solid OpenSCAD_Model
  facet normal 0 0 1
    outer loop
      vertex 2.00906 3.77392 0
      vertex 3.8699 4.16676 0
      vertex 3.00465 5.09493 0
    endloop
  endfacet
  facet normal 0 -0 1
    outer loop
      vertex 2.32436 3.11272 0
      vertex 3.8699 4.16676 0
      vertex 2.19341 3.47257 0
    endloop
  endfacet
  facet normal 0 0 1
    outer loop
      vertex 4.31426 2.86732 0
      vertex 2.32436 3.11272 0
      vertex 2.40192 2.69437 0
    endloop
  endfacet
  facet normal 0 0 1
    outer loop
      vertex 3.8699 4.16676 0
      vertex 2.32436 3.11272 0
      vertex 4.31426 2.86732 0
    endloop
  endfacet
  facet normal 0 0 1
    outer loop
      vertex 3.8699 4.16676 0
      vertex 2.00906 3.77392 0
      vertex 2.19341 3.47257 0
    endloop
  endfacet
  facet normal 0 0 1
    outer loop
      vertex 3.00465 5.09493 0
      vertex 1.77132 4.01677 0
      vertex 2.00906 3.77392 0
    endloop
  endfacet
  facet normal 0 0 1
    outer loop
      vertex 1.71852 5.65184 0
      vertex 1.77132 4.01677 0
      vertex 3.00465 5.09493 0
    endloop
  endfacet
  facet normal 0 0 1
    outer loop
      vertex 1.71852 5.65184 0
      vertex 1.4649 4.20367 0
      vertex 1.77132 4.01677 0
    endloop
  endfacet
  facet normal 0 0 1
    outer loop
      vertex 1.71852 5.65184 0
      vertex 1.07456 4.33717 0
      vertex 1.4649 4.20367 0
    endloop
  endfacet
  facet normal 0 0 1
    outer loop
      vertex 1.71852 5.65184 0
      vertex 0.600304 4.41727 0
      vertex 1.07456 4.33717 0
    endloop
  endfacet
  facet normal 0 0 1
    outer loop
      vertex 0.0115128 5.83747 0
      vertex 0.600304 4.41727 0
      vertex 1.71852 5.65184 0
    endloop
  endfacet
  facet normal 0 0 1
    outer loop
      vertex 0.600304 4.41727 0
      vertex 0.0115128 5.83747 0
      vertex 0.0421143 4.44397 0
    endloop
  endfacet
  facet normal 0 0 1
    outer loop
      vertex 0.0115128 5.83747 0
      vertex -0.507843 4.40742 0
      vertex 0.0421143 4.44397 0
    endloop
  endfacet
  facet normal -0 0 1
    outer loop
      vertex -0.942375 5.77802 0
      vertex -0.507843 4.40742 0
      vertex 0.0115128 5.83747 0
    endloop
  endfacet
  facet normal 0 0 1
    outer loop
      vertex -0.942375 5.77802 0
      vertex -0.977692 4.29776 0
      vertex -0.507843 4.40742 0
    endloop
  endfacet
  facet normal -0 0 1
    outer loop
      vertex -1.76977 5.59969 0
      vertex -0.977692 4.29776 0
      vertex -0.942375 5.77802 0
    endloop
  endfacet
  facet normal 0 0 1
    outer loop
      vertex -0.977692 4.29776 0
      vertex -1.76977 5.59969 0
      vertex -1.36742 4.11499 0
    endloop
  endfacet
  facet normal -0 0 1
    outer loop
      vertex -2.47065 5.30245 0
      vertex -1.36742 4.11499 0
      vertex -1.76977 5.59969 0
    endloop
  endfacet
  facet normal 0 0 1
    outer loop
      vertex -1.36742 4.11499 0
      vertex -2.47065 5.30245 0
      vertex -1.67703 3.85912 0
    endloop
  endfacet
  facet normal -0 0 1
    outer loop
      vertex -3.04503 4.88632 0
      vertex -1.67703 3.85912 0
      vertex -2.47065 5.30245 0
    endloop
  endfacet
  facet normal 0 0 1
    outer loop
      vertex -1.67703 3.85912 0
      vertex -3.04503 4.88632 0
      vertex -1.91289 3.51996 0
    endloop
  endfacet
  facet normal 0 0 1
    outer loop
      vertex -4.06743 2.13502 0
      vertex -2.21613 1.34152 0
      vertex -2.21613 1.94167 0
    endloop
  endfacet
  facet normal 0 0 1
    outer loop
      vertex -2.21613 1.34152 0
      vertex -4.06743 2.13502 0
      vertex -2.21613 0.0599213 0
    endloop
  endfacet
  facet normal 0 0 1
    outer loop
      vertex -4.06743 -2.60512 0
      vertex -2.21613 0.0599213 0
      vertex -4.06743 2.13502 0
    endloop
  endfacet
  facet normal 0 0 1
    outer loop
      vertex -2.21613 -0.845322 0
      vertex -2.27718 -3.26632 0
      vertex -2.21613 -3.26632 0
    endloop
  endfacet
  facet normal 0 0 1
    outer loop
      vertex -2.21613 -0.845322 0
      vertex -4.06743 -2.60512 0
      vertex -2.27718 -3.26632 0
    endloop
  endfacet
  facet normal -0 0 1
    outer loop
      vertex -4.08078 -2.98689 0
      vertex -2.27718 -3.26632 0
      vertex -4.06743 -2.60512 0
    endloop
  endfacet
  facet normal -0 0 1
    outer loop
      vertex -3.49233 4.35774 0
      vertex -1.91289 3.51996 0
      vertex -3.04503 4.88632 0
    endloop
  endfacet
  facet normal 0 0 1
    outer loop
      vertex -1.91289 3.51996 0
      vertex -3.49233 4.35774 0
      vertex -2.08135 3.08733 0
    endloop
  endfacet
  facet normal -0 0 1
    outer loop
      vertex -3.81183 3.723 0
      vertex -2.08135 3.08733 0
      vertex -3.49233 4.35774 0
    endloop
  endfacet
  facet normal 0 0 1
    outer loop
      vertex -2.21613 0.0599213 0
      vertex -4.06743 -2.60512 0
      vertex -2.21613 -0.845322 0
    endloop
  endfacet
  facet normal 0 0 1
    outer loop
      vertex -4.12083 -3.31844 0
      vertex -2.27718 -3.26632 0
      vertex -4.08078 -2.98689 0
    endloop
  endfacet
  facet normal 0 0 1
    outer loop
      vertex -4.00353 2.98209 0
      vertex -2.08135 3.08733 0
      vertex -3.81183 3.723 0
    endloop
  endfacet
  facet normal 0 0 1
    outer loop
      vertex -2.27718 -3.26632 0
      vertex -4.12083 -3.31844 0
      vertex -2.33275 -3.79812 0
    endloop
  endfacet
  facet normal -0 0 1
    outer loop
      vertex -4.18758 -3.59979 0
      vertex -2.33275 -3.79812 0
      vertex -4.12083 -3.31844 0
    endloop
  endfacet
  facet normal 0 0 1
    outer loop
      vertex -2.08135 3.08733 0
      vertex -4.00353 2.98209 0
      vertex -2.18243 2.56123 0
    endloop
  endfacet
  facet normal -0 0 1
    outer loop
      vertex -4.28103 -3.83092 0
      vertex -2.43855 -4.25426 0
      vertex -4.18758 -3.59979 0
    endloop
  endfacet
  facet normal 0 0 1
    outer loop
      vertex -4.06743 2.13502 0
      vertex -2.18243 2.56123 0
      vertex -4.00353 2.98209 0
    endloop
  endfacet
  facet normal 0 0 1
    outer loop
      vertex -2.18243 2.56123 0
      vertex -4.06743 2.13502 0
      vertex -2.21613 1.94167 0
    endloop
  endfacet
  facet normal 0 0 1
    outer loop
      vertex -2.33275 -3.79812 0
      vertex -4.18758 -3.59979 0
      vertex -2.43855 -4.25426 0
    endloop
  endfacet
  facet normal 0 0 1
    outer loop
      vertex -2.43855 -4.25426 0
      vertex -4.28103 -3.83092 0
      vertex -2.59457 -4.63474 0
    endloop
  endfacet
  facet normal 0 0 1
    outer loop
      vertex -2.59457 -4.63474 0
      vertex -4.28103 -3.83092 0
      vertex -2.80083 -4.93957 0
    endloop
  endfacet
  facet normal 0 0 1
    outer loop
      vertex -2.80083 -4.93957 0
      vertex -4.28103 -3.83092 0
      vertex -3.06693 -5.17319 0
    endloop
  endfacet
  facet normal -0 0 1
    outer loop
      vertex -4.41199 -4.01112 0
      vertex -3.06693 -5.17319 0
      vertex -4.28103 -3.83092 0
    endloop
  endfacet
  facet normal 0 0 1
    outer loop
      vertex -3.06693 -5.17319 0
      vertex -4.41199 -4.01112 0
      vertex -3.40233 -5.34007 0
    endloop
  endfacet
  facet normal 0 0 1
    outer loop
      vertex -3.40233 -5.34007 0
      vertex -4.41199 -4.01112 0
      vertex -3.80703 -5.44019 0
    endloop
  endfacet
  facet normal -0 0 1
    outer loop
      vertex -4.59127 -4.13985 0
      vertex -3.80703 -5.44019 0
      vertex -4.41199 -4.01112 0
    endloop
  endfacet
  facet normal 0 0 1
    outer loop
      vertex -3.80703 -5.44019 0
      vertex -4.59127 -4.13985 0
      vertex -4.28103 -5.47357 0
    endloop
  endfacet
  facet normal 0 0 1
    outer loop
      vertex -4.59127 -4.13985 0
      vertex -4.64018 -5.4634 0
      vertex -4.28103 -5.47357 0
    endloop
  endfacet
  facet normal -0 0 1
    outer loop
      vertex -4.81886 -4.21708 0
      vertex -4.64018 -5.4634 0
      vertex -4.59127 -4.13985 0
    endloop
  endfacet
  facet normal 0 0 1
    outer loop
      vertex -4.81886 -4.21708 0
      vertex -4.99555 -5.43288 0
      vertex -4.64018 -5.4634 0
    endloop
  endfacet
  facet normal -0 0 1
    outer loop
      vertex -5.09478 -4.24282 0
      vertex -4.99555 -5.43288 0
      vertex -4.81886 -4.21708 0
    endloop
  endfacet
  facet normal 0 0 1
    outer loop
      vertex -5.34714 -5.38203 0
      vertex -5.09478 -4.24282 0
      vertex -5.23146 -4.23837 0
    endloop
  endfacet
  facet normal 0 0 1
    outer loop
      vertex -5.09478 -4.24282 0
      vertex -5.34714 -5.38203 0
      vertex -4.99555 -5.43288 0
    endloop
  endfacet
  facet normal 0 0 1
    outer loop
      vertex -5.37704 -4.22501 0
      vertex -5.34714 -5.38203 0
      vertex -5.23146 -4.23837 0
    endloop
  endfacet
  facet normal 0 0 1
    outer loop
      vertex -5.69493 -5.31082 0
      vertex -5.37704 -4.22501 0
      vertex -5.53153 -4.20274 0
    endloop
  endfacet
  facet normal 0 0 1
    outer loop
      vertex -5.69493 -5.31082 0
      vertex -5.53153 -4.20274 0
      vertex -5.69493 -4.17157 0
    endloop
  endfacet
  facet normal 0 0 1
    outer loop
      vertex -5.37704 -4.22501 0
      vertex -5.69493 -5.31082 0
      vertex -5.34714 -5.38203 0
    endloop
  endfacet
  facet normal -0 0 1
    outer loop
      vertex 2.85168 -2.7272 0
      vertex 4.75166 -3.02217 0
      vertex 4.80251 -2.30002 0
    endloop
  endfacet
  facet normal -0 0 1
    outer loop
      vertex 2.85803 -1.93407 0
      vertex 4.80251 -2.30002 0
      vertex 4.51389 -0.743698 0
    endloop
  endfacet
  facet normal 0 0 1
    outer loop
      vertex 2.85168 -2.7272 0
      vertex 4.80251 -2.30002 0
      vertex 2.87996 -2.33047 0
    endloop
  endfacet
  facet normal 0 0 1
    outer loop
      vertex 4.75166 -3.02217 0
      vertex 2.85168 -2.7272 0
      vertex 4.59908 -3.66296 0
    endloop
  endfacet
  facet normal 0 0 1
    outer loop
      vertex 2.68261 -1.26529 0
      vertex 4.51389 -0.743698 0
      vertex 3.648 0.375221 0
    endloop
  endfacet
  facet normal -0 0 1
    outer loop
      vertex 2.76682 -3.08324 0
      vertex 4.59908 -3.66296 0
      vertex 2.85168 -2.7272 0
    endloop
  endfacet
  facet normal 0 0 1
    outer loop
      vertex 4.59908 -3.66296 0
      vertex 2.76682 -3.08324 0
      vertex 4.34478 -4.2224 0
    endloop
  endfacet
  facet normal -0 0 1
    outer loop
      vertex 2.6254 -3.39861 0
      vertex 4.34478 -4.2224 0
      vertex 2.76682 -3.08324 0
    endloop
  endfacet
  facet normal 0 0 1
    outer loop
      vertex 4.80251 -2.30002 0
      vertex 2.85803 -1.93407 0
      vertex 2.87996 -2.33047 0
    endloop
  endfacet
  facet normal 0 0 1
    outer loop
      vertex 4.51389 -0.743698 0
      vertex 2.79225 -1.57901 0
      vertex 2.85803 -1.93407 0
    endloop
  endfacet
  facet normal 0 0 1
    outer loop
      vertex 4.51389 -0.743698 0
      vertex 2.68261 -1.26529 0
      vertex 2.79225 -1.57901 0
    endloop
  endfacet
  facet normal 0 0 1
    outer loop
      vertex 3.648 0.375221 0
      vertex 2.52911 -0.99292 0
      vertex 2.68261 -1.26529 0
    endloop
  endfacet
  facet normal 0 0 1
    outer loop
      vertex 3.648 0.375221 0
      vertex 2.33614 -0.757362 0
      vertex 2.52911 -0.99292 0
    endloop
  endfacet
  facet normal 0 0 1
    outer loop
      vertex 2.10822 -0.554245 0
      vertex 3.648 0.375221 0
      vertex 2.20486 1.05675 0
    endloop
  endfacet
  facet normal 0 0 1
    outer loop
      vertex 3.648 0.375221 0
      vertex 2.10822 -0.554245 0
      vertex 2.33614 -0.757362 0
    endloop
  endfacet
  facet normal 0 0 1
    outer loop
      vertex 2.20486 1.05675 0
      vertex 1.84534 -0.383568 0
      vertex 2.10822 -0.554245 0
    endloop
  endfacet
  facet normal 0 0 1
    outer loop
      vertex 2.20486 1.05675 0
      vertex 1.54752 -0.245323 0
      vertex 1.84534 -0.383568 0
    endloop
  endfacet
  facet normal 0 0 1
    outer loop
      vertex 2.20486 1.05675 0
      vertex 1.19661 -0.137207 0
      vertex 1.54752 -0.245323 0
    endloop
  endfacet
  facet normal 0 0 1
    outer loop
      vertex 2.20486 1.05675 0
      vertex 0.77449 -0.0570679 0
      vertex 1.19661 -0.137207 0
    endloop
  endfacet
  facet normal 0 0 1
    outer loop
      vertex 0.184464 1.30087 0
      vertex 0.77449 -0.0570679 0
      vertex 2.20486 1.05675 0
    endloop
  endfacet
  facet normal 0 0 1
    outer loop
      vertex 0.77449 -0.0570679 0
      vertex 0.184464 1.30087 0
      vertex 0.281158 -0.0049057 0
    endloop
  endfacet
  facet normal 0 0 1
    outer loop
      vertex 0.184464 1.30087 0
      vertex -0.283379 0.0192719 0
      vertex 0.281158 -0.0049057 0
    endloop
  endfacet
  facet normal 0 0 1
    outer loop
      vertex -2.21613 1.34152 0
      vertex -0.283379 0.0192719 0
      vertex 0.184464 1.30087 0
    endloop
  endfacet
  facet normal 0 0 1
    outer loop
      vertex -0.283379 0.0192719 0
      vertex -2.21613 1.34152 0
      vertex -2.21613 0.0599213 0
    endloop
  endfacet
  facet normal 0 0 1
    outer loop
      vertex 4.34478 -4.2224 0
      vertex 2.6254 -3.39861 0
      vertex 3.98876 -4.70047 0
    endloop
  endfacet
  facet normal -0 0 1
    outer loop
      vertex 2.42741 -3.67327 0
      vertex 3.98876 -4.70047 0
      vertex 2.6254 -3.39861 0
    endloop
  endfacet
  facet normal 0 0 1
    outer loop
      vertex 3.98876 -4.70047 0
      vertex 2.42741 -3.67327 0
      vertex 3.5323 -5.0832 0
    endloop
  endfacet
  facet normal -0 0 1
    outer loop
      vertex 2.17468 -3.89574 0
      vertex 3.5323 -5.0832 0
      vertex 2.42741 -3.67327 0
    endloop
  endfacet
  facet normal 0 0 1
    outer loop
      vertex 3.5323 -5.0832 0
      vertex 2.17468 -3.89574 0
      vertex 2.97668 -5.35657 0
    endloop
  endfacet
  facet normal 0 0 1
    outer loop
      vertex 2.97668 -5.35657 0
      vertex 2.17468 -3.89574 0
      vertex 2.32188 -5.5206 0
    endloop
  endfacet
  facet normal -0 0 1
    outer loop
      vertex 1.86919 -4.05465 0
      vertex 2.32188 -5.5206 0
      vertex 2.17468 -3.89574 0
    endloop
  endfacet
  facet normal 0 0 1
    outer loop
      vertex 1.86919 -4.05465 0
      vertex 1.56791 -5.57527 0
      vertex 2.32188 -5.5206 0
    endloop
  endfacet
  facet normal -0 0 1
    outer loop
      vertex 1.51093 -4.14999 0
      vertex 1.56791 -5.57527 0
      vertex 1.86919 -4.05465 0
    endloop
  endfacet
  facet normal -0 0 1
    outer loop
      vertex 1.09991 -4.18177 0
      vertex 1.56791 -5.57527 0
      vertex 1.51093 -4.14999 0
    endloop
  endfacet
  facet normal 0 0 1
    outer loop
      vertex 1.09991 -4.18177 0
      vertex 0.933105 -5.54158 0
      vertex 1.56791 -5.57527 0
    endloop
  endfacet
  facet normal 0 0 1
    outer loop
      vertex 0.625648 -4.15253 0
      vertex 0.933105 -5.54158 0
      vertex 1.09991 -4.18177 0
    endloop
  endfacet
  facet normal 0 0 1
    outer loop
      vertex 0.625648 -4.15253 0
      vertex 0.351074 -5.4405 0
      vertex 0.933105 -5.54158 0
    endloop
  endfacet
  facet normal 0 0 1
    outer loop
      vertex 0.179359 -4.06481 0
      vertex 0.351074 -5.4405 0
      vertex 0.625648 -4.15253 0
    endloop
  endfacet
  facet normal 0 0 1
    outer loop
      vertex 0.179359 -4.06481 0
      vertex -0.178162 -5.27203 0
      vertex 0.351074 -5.4405 0
    endloop
  endfacet
  facet normal 0 0 1
    outer loop
      vertex -0.654633 -5.03617 0
      vertex 0.179359 -4.06481 0
      vertex -0.238945 -3.9186 0
    endloop
  endfacet
  facet normal 0 0 1
    outer loop
      vertex -1.08984 -4.7234 0
      vertex -0.238945 -3.9186 0
      vertex -0.62928 -3.71392 0
    endloop
  endfacet
  facet normal 0 0 1
    outer loop
      vertex 0.179359 -4.06481 0
      vertex -0.654633 -5.03617 0
      vertex -0.178162 -5.27203 0
    endloop
  endfacet
  facet normal 0 0 1
    outer loop
      vertex -1.49516 -4.32416 0
      vertex -0.62928 -3.71392 0
      vertex -0.98465 -3.46023 0
    endloop
  endfacet
  facet normal 0 0 1
    outer loop
      vertex -0.238945 -3.9186 0
      vertex -1.08984 -4.7234 0
      vertex -0.654633 -5.03617 0
    endloop
  endfacet
  facet normal 0 0 1
    outer loop
      vertex -1.87058 -3.83847 0
      vertex -0.98465 -3.46023 0
      vertex -1.29806 -3.16714 0
    endloop
  endfacet
  facet normal 0 0 1
    outer loop
      vertex -0.62928 -3.71392 0
      vertex -1.49516 -4.32416 0
      vertex -1.08984 -4.7234 0
    endloop
  endfacet
  facet normal 0 0 1
    outer loop
      vertex -2.21613 -3.26632 0
      vertex -1.29806 -3.16714 0
      vertex -1.5695 -2.83465 0
    endloop
  endfacet
  facet normal 0 0 1
    outer loop
      vertex -2.21613 -3.26632 0
      vertex -1.5695 -2.83465 0
      vertex -1.79898 -2.46277 0
    endloop
  endfacet
  facet normal 0 0 1
    outer loop
      vertex -0.98465 -3.46023 0
      vertex -1.87058 -3.83847 0
      vertex -1.49516 -4.32416 0
    endloop
  endfacet
  facet normal 0 0 1
    outer loop
      vertex -2.21613 -3.26632 0
      vertex -1.79898 -2.46277 0
      vertex -1.98148 -2.06794 0
    endloop
  endfacet
  facet normal 0 0 1
    outer loop
      vertex -2.21613 -3.26632 0
      vertex -1.98148 -2.06794 0
      vertex -2.11184 -1.66676 0
    endloop
  endfacet
  facet normal 0 0 1
    outer loop
      vertex -2.21613 -3.26632 0
      vertex -2.11184 -1.66676 0
      vertex -2.19006 -1.25922 0
    endloop
  endfacet
  facet normal 0 0 1
    outer loop
      vertex -1.29806 -3.16714 0
      vertex -2.21613 -3.26632 0
      vertex -1.87058 -3.83847 0
    endloop
  endfacet
  facet normal 0 0 1
    outer loop
      vertex -2.21613 -3.26632 0
      vertex -2.19006 -1.25922 0
      vertex -2.21613 -0.845322 0
    endloop
  endfacet
  facet normal -0.171107 -0.985253 0
    outer loop
      vertex 0.351074 -5.4405 -4
      vertex 0.933105 -5.54158 0
      vertex 0.351074 -5.4405 0
    endloop
  endfacet
  facet normal -0.171107 -0.985253 -0
    outer loop
      vertex 0.933105 -5.54158 0
      vertex 0.351074 -5.4405 -4
      vertex 0.933105 -5.54158 -4
    endloop
  endfacet
  facet normal -0.303329 -0.952886 0
    outer loop
      vertex -0.178162 -5.27203 -4
      vertex 0.351074 -5.4405 0
      vertex -0.178162 -5.27203 0
    endloop
  endfacet
  facet normal -0.303329 -0.952886 -0
    outer loop
      vertex 0.351074 -5.4405 0
      vertex -0.178162 -5.27203 -4
      vertex 0.351074 -5.4405 -4
    endloop
  endfacet
  facet normal -0.443636 -0.896207 0
    outer loop
      vertex -0.654633 -5.03617 -4
      vertex -0.178162 -5.27203 0
      vertex -0.654633 -5.03617 0
    endloop
  endfacet
  facet normal -0.443636 -0.896207 -0
    outer loop
      vertex -0.178162 -5.27203 0
      vertex -0.654633 -5.03617 -4
      vertex -0.178162 -5.27203 -4
    endloop
  endfacet
  facet normal -0.583593 -0.812046 0
    outer loop
      vertex -1.08984 -4.7234 -4
      vertex -0.654633 -5.03617 0
      vertex -1.08984 -4.7234 0
    endloop
  endfacet
  facet normal -0.583593 -0.812046 -0
    outer loop
      vertex -0.654633 -5.03617 0
      vertex -1.08984 -4.7234 -4
      vertex -0.654633 -5.03617 -4
    endloop
  endfacet
  facet normal -0.701743 -0.71243 0
    outer loop
      vertex -1.49516 -4.32416 -4
      vertex -1.08984 -4.7234 0
      vertex -1.49516 -4.32416 0
    endloop
  endfacet
  facet normal -0.701743 -0.71243 -0
    outer loop
      vertex -1.08984 -4.7234 0
      vertex -1.49516 -4.32416 -4
      vertex -1.08984 -4.7234 -4
    endloop
  endfacet
  facet normal -0.791195 -0.611564 0
    outer loop
      vertex -1.49516 -4.32416 -4
      vertex -1.87058 -3.83847 0
      vertex -1.87058 -3.83847 -4
    endloop
  endfacet
  facet normal -0.791195 -0.611564 0
    outer loop
      vertex -1.87058 -3.83847 0
      vertex -1.49516 -4.32416 -4
      vertex -1.49516 -4.32416 0
    endloop
  endfacet
  facet normal -0.855998 -0.51698 0
    outer loop
      vertex -1.87058 -3.83847 -4
      vertex -2.21613 -3.26632 0
      vertex -2.21613 -3.26632 -4
    endloop
  endfacet
  facet normal -0.855998 -0.51698 0
    outer loop
      vertex -2.21613 -3.26632 0
      vertex -1.87058 -3.83847 -4
      vertex -1.87058 -3.83847 0
    endloop
  endfacet
  facet normal 0 -1 0
    outer loop
      vertex -2.27718 -3.26632 -4
      vertex -2.21613 -3.26632 0
      vertex -2.27718 -3.26632 0
    endloop
  endfacet
  facet normal 0 -1 -0
    outer loop
      vertex -2.21613 -3.26632 0
      vertex -2.27718 -3.26632 -4
      vertex -2.21613 -3.26632 -4
    endloop
  endfacet
  facet normal 0.994585 -0.103928 0
    outer loop
      vertex -2.33275 -3.79812 0
      vertex -2.27718 -3.26632 -4
      vertex -2.27718 -3.26632 0
    endloop
  endfacet
  facet normal 0.994585 -0.103928 0
    outer loop
      vertex -2.27718 -3.26632 -4
      vertex -2.33275 -3.79812 0
      vertex -2.33275 -3.79812 -4
    endloop
  endfacet
  facet normal 0.974139 -0.225948 0
    outer loop
      vertex -2.43855 -4.25426 0
      vertex -2.33275 -3.79812 -4
      vertex -2.33275 -3.79812 0
    endloop
  endfacet
  facet normal 0.974139 -0.225948 0
    outer loop
      vertex -2.33275 -3.79812 -4
      vertex -2.43855 -4.25426 0
      vertex -2.43855 -4.25426 -4
    endloop
  endfacet
  facet normal 0.925232 -0.379402 0
    outer loop
      vertex -2.59457 -4.63474 0
      vertex -2.43855 -4.25426 -4
      vertex -2.43855 -4.25426 0
    endloop
  endfacet
  facet normal 0.925232 -0.379402 0
    outer loop
      vertex -2.43855 -4.25426 -4
      vertex -2.59457 -4.63474 0
      vertex -2.59457 -4.63474 -4
    endloop
  endfacet
  facet normal 0.828219 -0.560405 0
    outer loop
      vertex -2.80083 -4.93957 0
      vertex -2.59457 -4.63474 -4
      vertex -2.59457 -4.63474 0
    endloop
  endfacet
  facet normal 0.828219 -0.560405 0
    outer loop
      vertex -2.59457 -4.63474 -4
      vertex -2.80083 -4.93957 0
      vertex -2.80083 -4.93957 -4
    endloop
  endfacet
  facet normal 0.659755 -0.751481 0
    outer loop
      vertex -3.06693 -5.17319 -4
      vertex -2.80083 -4.93957 0
      vertex -3.06693 -5.17319 0
    endloop
  endfacet
  facet normal 0.659755 -0.751481 0
    outer loop
      vertex -2.80083 -4.93957 0
      vertex -3.06693 -5.17319 -4
      vertex -2.80083 -4.93957 -4
    endloop
  endfacet
  facet normal 0.445462 -0.895301 0
    outer loop
      vertex -3.40233 -5.34007 -4
      vertex -3.06693 -5.17319 0
      vertex -3.40233 -5.34007 0
    endloop
  endfacet
  facet normal 0.445462 -0.895301 0
    outer loop
      vertex -3.06693 -5.17319 0
      vertex -3.40233 -5.34007 -4
      vertex -3.06693 -5.17319 -4
    endloop
  endfacet
  facet normal 0.240153 -0.970735 0
    outer loop
      vertex -3.80703 -5.44019 -4
      vertex -3.40233 -5.34007 0
      vertex -3.80703 -5.44019 0
    endloop
  endfacet
  facet normal 0.240153 -0.970735 0
    outer loop
      vertex -3.40233 -5.34007 0
      vertex -3.80703 -5.44019 -4
      vertex -3.40233 -5.34007 -4
    endloop
  endfacet
  facet normal 0.070248 -0.99753 0
    outer loop
      vertex -4.28103 -5.47357 -4
      vertex -3.80703 -5.44019 0
      vertex -4.28103 -5.47357 0
    endloop
  endfacet
  facet normal 0.070248 -0.99753 0
    outer loop
      vertex -3.80703 -5.44019 0
      vertex -4.28103 -5.47357 -4
      vertex -3.80703 -5.44019 -4
    endloop
  endfacet
  facet normal -0.0283055 -0.999599 0
    outer loop
      vertex -4.64018 -5.4634 -4
      vertex -4.28103 -5.47357 0
      vertex -4.64018 -5.4634 0
    endloop
  endfacet
  facet normal -0.0283055 -0.999599 -0
    outer loop
      vertex -4.28103 -5.47357 0
      vertex -4.64018 -5.4634 -4
      vertex -4.28103 -5.47357 -4
    endloop
  endfacet
  facet normal -0.0855673 -0.996332 0
    outer loop
      vertex -4.99555 -5.43288 -4
      vertex -4.64018 -5.4634 0
      vertex -4.99555 -5.43288 0
    endloop
  endfacet
  facet normal -0.0855673 -0.996332 -0
    outer loop
      vertex -4.64018 -5.4634 0
      vertex -4.99555 -5.43288 -4
      vertex -4.64018 -5.4634 -4
    endloop
  endfacet
  facet normal -0.143139 -0.989703 0
    outer loop
      vertex -5.34714 -5.38203 -4
      vertex -4.99555 -5.43288 0
      vertex -5.34714 -5.38203 0
    endloop
  endfacet
  facet normal -0.143139 -0.989703 -0
    outer loop
      vertex -4.99555 -5.43288 0
      vertex -5.34714 -5.38203 -4
      vertex -4.99555 -5.43288 -4
    endloop
  endfacet
  facet normal -0.200589 -0.979676 0
    outer loop
      vertex -5.69493 -5.31082 -4
      vertex -5.34714 -5.38203 0
      vertex -5.69493 -5.31082 0
    endloop
  endfacet
  facet normal -0.200589 -0.979676 -0
    outer loop
      vertex -5.34714 -5.38203 0
      vertex -5.69493 -5.31082 -4
      vertex -5.34714 -5.38203 -4
    endloop
  endfacet
  facet normal -1 0 0
    outer loop
      vertex -5.69493 -5.31082 -4
      vertex -5.69493 -4.17157 0
      vertex -5.69493 -4.17157 -4
    endloop
  endfacet
  facet normal -1 -0 0
    outer loop
      vertex -5.69493 -4.17157 0
      vertex -5.69493 -5.31082 -4
      vertex -5.69493 -5.31082 0
    endloop
  endfacet
  facet normal 0.18738 0.982287 -0
    outer loop
      vertex -5.53153 -4.20274 -4
      vertex -5.69493 -4.17157 0
      vertex -5.53153 -4.20274 0
    endloop
  endfacet
  facet normal 0.18738 0.982287 0
    outer loop
      vertex -5.69493 -4.17157 0
      vertex -5.53153 -4.20274 -4
      vertex -5.69493 -4.17157 -4
    endloop
  endfacet
  facet normal 0.142677 0.989769 -0
    outer loop
      vertex -5.37704 -4.22501 -4
      vertex -5.53153 -4.20274 0
      vertex -5.37704 -4.22501 0
    endloop
  endfacet
  facet normal 0.142677 0.989769 0
    outer loop
      vertex -5.53153 -4.20274 0
      vertex -5.37704 -4.22501 -4
      vertex -5.53153 -4.20274 -4
    endloop
  endfacet
  facet normal 0.0913868 0.995815 -0
    outer loop
      vertex -5.23146 -4.23837 -4
      vertex -5.37704 -4.22501 0
      vertex -5.23146 -4.23837 0
    endloop
  endfacet
  facet normal 0.0913868 0.995815 0
    outer loop
      vertex -5.37704 -4.22501 0
      vertex -5.23146 -4.23837 -4
      vertex -5.37704 -4.22501 -4
    endloop
  endfacet
  facet normal 0.0325406 0.99947 -0
    outer loop
      vertex -5.09478 -4.24282 -4
      vertex -5.23146 -4.23837 0
      vertex -5.09478 -4.24282 0
    endloop
  endfacet
  facet normal 0.0325406 0.99947 0
    outer loop
      vertex -5.23146 -4.23837 0
      vertex -5.09478 -4.24282 -4
      vertex -5.23146 -4.23837 -4
    endloop
  endfacet
  facet normal -0.0928846 0.995677 0
    outer loop
      vertex -4.81886 -4.21708 -4
      vertex -5.09478 -4.24282 0
      vertex -4.81886 -4.21708 0
    endloop
  endfacet
  facet normal -0.0928846 0.995677 0
    outer loop
      vertex -5.09478 -4.24282 0
      vertex -4.81886 -4.21708 -4
      vertex -5.09478 -4.24282 -4
    endloop
  endfacet
  facet normal -0.321341 0.946964 0
    outer loop
      vertex -4.59127 -4.13985 -4
      vertex -4.81886 -4.21708 0
      vertex -4.59127 -4.13985 0
    endloop
  endfacet
  facet normal -0.321341 0.946964 0
    outer loop
      vertex -4.81886 -4.21708 0
      vertex -4.59127 -4.13985 -4
      vertex -4.81886 -4.21708 -4
    endloop
  endfacet
  facet normal -0.583255 0.812289 0
    outer loop
      vertex -4.41199 -4.01112 -4
      vertex -4.59127 -4.13985 0
      vertex -4.41199 -4.01112 0
    endloop
  endfacet
  facet normal -0.583255 0.812289 0
    outer loop
      vertex -4.59127 -4.13985 0
      vertex -4.41199 -4.01112 -4
      vertex -4.59127 -4.13985 -4
    endloop
  endfacet
  facet normal -0.808938 0.587894 0
    outer loop
      vertex -4.41199 -4.01112 -4
      vertex -4.28103 -3.83092 0
      vertex -4.28103 -3.83092 -4
    endloop
  endfacet
  facet normal -0.808938 0.587894 0
    outer loop
      vertex -4.28103 -3.83092 0
      vertex -4.41199 -4.01112 -4
      vertex -4.41199 -4.01112 0
    endloop
  endfacet
  facet normal -0.92709 0.374839 0
    outer loop
      vertex -4.28103 -3.83092 -4
      vertex -4.18758 -3.59979 0
      vertex -4.18758 -3.59979 -4
    endloop
  endfacet
  facet normal -0.92709 0.374839 0
    outer loop
      vertex -4.18758 -3.59979 0
      vertex -4.28103 -3.83092 -4
      vertex -4.28103 -3.83092 0
    endloop
  endfacet
  facet normal -0.972991 0.230841 0
    outer loop
      vertex -4.18758 -3.59979 -4
      vertex -4.12083 -3.31844 0
      vertex -4.12083 -3.31844 -4
    endloop
  endfacet
  facet normal -0.972991 0.230841 0
    outer loop
      vertex -4.12083 -3.31844 0
      vertex -4.18758 -3.59979 -4
      vertex -4.18758 -3.59979 0
    endloop
  endfacet
  facet normal -0.992783 0.119924 0
    outer loop
      vertex -4.12083 -3.31844 -4
      vertex -4.08078 -2.98689 0
      vertex -4.08078 -2.98689 -4
    endloop
  endfacet
  facet normal -0.992783 0.119924 0
    outer loop
      vertex -4.08078 -2.98689 0
      vertex -4.12083 -3.31844 -4
      vertex -4.12083 -3.31844 0
    endloop
  endfacet
  facet normal -0.999389 0.0349473 0
    outer loop
      vertex -4.08078 -2.98689 -4
      vertex -4.06743 -2.60512 0
      vertex -4.06743 -2.60512 -4
    endloop
  endfacet
  facet normal -0.999389 0.0349473 0
    outer loop
      vertex -4.06743 -2.60512 0
      vertex -4.08078 -2.98689 -4
      vertex -4.08078 -2.98689 0
    endloop
  endfacet
  facet normal -1 0 0
    outer loop
      vertex -4.06743 -2.60512 -4
      vertex -4.06743 2.13502 0
      vertex -4.06743 2.13502 -4
    endloop
  endfacet
  facet normal -1 -0 0
    outer loop
      vertex -4.06743 2.13502 0
      vertex -4.06743 -2.60512 -4
      vertex -4.06743 -2.60512 0
    endloop
  endfacet
  facet normal -0.997167 0.0752228 0
    outer loop
      vertex -4.06743 2.13502 -4
      vertex -4.00353 2.98209 0
      vertex -4.00353 2.98209 -4
    endloop
  endfacet
  facet normal -0.997167 0.0752228 0
    outer loop
      vertex -4.00353 2.98209 0
      vertex -4.06743 2.13502 -4
      vertex -4.06743 2.13502 0
    endloop
  endfacet
  facet normal -0.96812 0.250487 0
    outer loop
      vertex -4.00353 2.98209 -4
      vertex -3.81183 3.723 0
      vertex -3.81183 3.723 -4
    endloop
  endfacet
  facet normal -0.96812 0.250487 0
    outer loop
      vertex -3.81183 3.723 0
      vertex -4.00353 2.98209 -4
      vertex -4.00353 2.98209 0
    endloop
  endfacet
  facet normal -0.893225 0.44961 0
    outer loop
      vertex -3.81183 3.723 -4
      vertex -3.49233 4.35774 0
      vertex -3.49233 4.35774 -4
    endloop
  endfacet
  facet normal -0.893225 0.44961 0
    outer loop
      vertex -3.49233 4.35774 0
      vertex -3.81183 3.723 -4
      vertex -3.81183 3.723 0
    endloop
  endfacet
  facet normal -0.763358 0.645976 0
    outer loop
      vertex -3.49233 4.35774 -4
      vertex -3.04503 4.88632 0
      vertex -3.04503 4.88632 -4
    endloop
  endfacet
  facet normal -0.763358 0.645976 0
    outer loop
      vertex -3.04503 4.88632 0
      vertex -3.49233 4.35774 -4
      vertex -3.49233 4.35774 0
    endloop
  endfacet
  facet normal -0.586694 0.809808 0
    outer loop
      vertex -2.47065 5.30245 -4
      vertex -3.04503 4.88632 0
      vertex -2.47065 5.30245 0
    endloop
  endfacet
  facet normal -0.586694 0.809808 0
    outer loop
      vertex -3.04503 4.88632 0
      vertex -2.47065 5.30245 -4
      vertex -3.04503 4.88632 -4
    endloop
  endfacet
  facet normal -0.390435 0.92063 0
    outer loop
      vertex -1.76977 5.59969 -4
      vertex -2.47065 5.30245 0
      vertex -1.76977 5.59969 0
    endloop
  endfacet
  facet normal -0.390435 0.92063 0
    outer loop
      vertex -2.47065 5.30245 0
      vertex -1.76977 5.59969 -4
      vertex -2.47065 5.30245 -4
    endloop
  endfacet
  facet normal -0.210694 0.977552 0
    outer loop
      vertex -0.942375 5.77802 -4
      vertex -1.76977 5.59969 0
      vertex -0.942375 5.77802 0
    endloop
  endfacet
  facet normal -0.210694 0.977552 0
    outer loop
      vertex -1.76977 5.59969 0
      vertex -0.942375 5.77802 -4
      vertex -1.76977 5.59969 -4
    endloop
  endfacet
  facet normal -0.0622032 0.998064 0
    outer loop
      vertex 0.0115128 5.83747 -4
      vertex -0.942375 5.77802 0
      vertex 0.0115128 5.83747 0
    endloop
  endfacet
  facet normal -0.0622032 0.998064 0
    outer loop
      vertex -0.942375 5.77802 0
      vertex 0.0115128 5.83747 -4
      vertex -0.942375 5.77802 -4
    endloop
  endfacet
  facet normal 0.108109 0.994139 -0
    outer loop
      vertex 1.71852 5.65184 -4
      vertex 0.0115128 5.83747 0
      vertex 1.71852 5.65184 0
    endloop
  endfacet
  facet normal 0.108109 0.994139 0
    outer loop
      vertex 0.0115128 5.83747 0
      vertex 1.71852 5.65184 -4
      vertex 0.0115128 5.83747 -4
    endloop
  endfacet
  facet normal 0.397359 0.917663 -0
    outer loop
      vertex 3.00465 5.09493 -4
      vertex 1.71852 5.65184 0
      vertex 3.00465 5.09493 0
    endloop
  endfacet
  facet normal 0.397359 0.917663 0
    outer loop
      vertex 1.71852 5.65184 0
      vertex 3.00465 5.09493 -4
      vertex 1.71852 5.65184 -4
    endloop
  endfacet
  facet normal 0.731465 0.681879 0
    outer loop
      vertex 3.8699 4.16676 0
      vertex 3.00465 5.09493 -4
      vertex 3.00465 5.09493 0
    endloop
  endfacet
  facet normal 0.731465 0.681879 0
    outer loop
      vertex 3.00465 5.09493 -4
      vertex 3.8699 4.16676 0
      vertex 3.8699 4.16676 -4
    endloop
  endfacet
  facet normal 0.946205 0.323567 0
    outer loop
      vertex 4.31426 2.86732 0
      vertex 3.8699 4.16676 -4
      vertex 3.8699 4.16676 0
    endloop
  endfacet
  facet normal 0.946205 0.323567 0
    outer loop
      vertex 3.8699 4.16676 -4
      vertex 4.31426 2.86732 0
      vertex 4.31426 2.86732 -4
    endloop
  endfacet
  facet normal 0.0900713 -0.995935 0
    outer loop
      vertex 2.40192 2.69437 -4
      vertex 4.31426 2.86732 0
      vertex 2.40192 2.69437 0
    endloop
  endfacet
  facet normal 0.0900713 -0.995935 0
    outer loop
      vertex 4.31426 2.86732 0
      vertex 2.40192 2.69437 -4
      vertex 4.31426 2.86732 -4
    endloop
  endfacet
  facet normal -0.983245 -0.182289 0
    outer loop
      vertex 2.40192 2.69437 -4
      vertex 2.32436 3.11272 0
      vertex 2.32436 3.11272 -4
    endloop
  endfacet
  facet normal -0.983245 -0.182289 0
    outer loop
      vertex 2.32436 3.11272 0
      vertex 2.40192 2.69437 -4
      vertex 2.40192 2.69437 0
    endloop
  endfacet
  facet normal -0.939713 -0.341963 0
    outer loop
      vertex 2.32436 3.11272 -4
      vertex 2.19341 3.47257 0
      vertex 2.19341 3.47257 -4
    endloop
  endfacet
  facet normal -0.939713 -0.341963 0
    outer loop
      vertex 2.19341 3.47257 0
      vertex 2.32436 3.11272 -4
      vertex 2.32436 3.11272 0
    endloop
  endfacet
  facet normal -0.85304 -0.521845 0
    outer loop
      vertex 2.19341 3.47257 -4
      vertex 2.00906 3.77392 0
      vertex 2.00906 3.77392 -4
    endloop
  endfacet
  facet normal -0.85304 -0.521845 0
    outer loop
      vertex 2.00906 3.77392 0
      vertex 2.19341 3.47257 -4
      vertex 2.19341 3.47257 0
    endloop
  endfacet
  facet normal -0.714585 -0.699549 0
    outer loop
      vertex 2.00906 3.77392 -4
      vertex 1.77132 4.01677 0
      vertex 1.77132 4.01677 -4
    endloop
  endfacet
  facet normal -0.714585 -0.699549 0
    outer loop
      vertex 1.77132 4.01677 0
      vertex 2.00906 3.77392 -4
      vertex 2.00906 3.77392 0
    endloop
  endfacet
  facet normal -0.520726 -0.853724 0
    outer loop
      vertex 1.4649 4.20367 -4
      vertex 1.77132 4.01677 0
      vertex 1.4649 4.20367 0
    endloop
  endfacet
  facet normal -0.520726 -0.853724 -0
    outer loop
      vertex 1.77132 4.01677 0
      vertex 1.4649 4.20367 -4
      vertex 1.77132 4.01677 -4
    endloop
  endfacet
  facet normal -0.323607 -0.946192 0
    outer loop
      vertex 1.07456 4.33717 -4
      vertex 1.4649 4.20367 0
      vertex 1.07456 4.33717 0
    endloop
  endfacet
  facet normal -0.323607 -0.946192 -0
    outer loop
      vertex 1.4649 4.20367 0
      vertex 1.07456 4.33717 -4
      vertex 1.4649 4.20367 -4
    endloop
  endfacet
  facet normal -0.166538 -0.986035 0
    outer loop
      vertex 0.600304 4.41727 -4
      vertex 1.07456 4.33717 0
      vertex 0.600304 4.41727 0
    endloop
  endfacet
  facet normal -0.166538 -0.986035 -0
    outer loop
      vertex 1.07456 4.33717 0
      vertex 0.600304 4.41727 -4
      vertex 1.07456 4.33717 -4
    endloop
  endfacet
  facet normal -0.0477786 -0.998858 0
    outer loop
      vertex 0.0421143 4.44397 -4
      vertex 0.600304 4.41727 0
      vertex 0.0421143 4.44397 0
    endloop
  endfacet
  facet normal -0.0477786 -0.998858 -0
    outer loop
      vertex 0.600304 4.41727 0
      vertex 0.0421143 4.44397 -4
      vertex 0.600304 4.41727 -4
    endloop
  endfacet
  facet normal 0.0663134 -0.997799 0
    outer loop
      vertex -0.507843 4.40742 -4
      vertex 0.0421143 4.44397 0
      vertex -0.507843 4.40742 0
    endloop
  endfacet
  facet normal 0.0663134 -0.997799 0
    outer loop
      vertex 0.0421143 4.44397 0
      vertex -0.507843 4.40742 -4
      vertex 0.0421143 4.44397 -4
    endloop
  endfacet
  facet normal 0.227286 -0.973828 0
    outer loop
      vertex -0.977692 4.29776 -4
      vertex -0.507843 4.40742 0
      vertex -0.977692 4.29776 0
    endloop
  endfacet
  facet normal 0.227286 -0.973828 0
    outer loop
      vertex -0.507843 4.40742 0
      vertex -0.977692 4.29776 -4
      vertex -0.507843 4.40742 -4
    endloop
  endfacet
  facet normal 0.424596 -0.905383 0
    outer loop
      vertex -1.36742 4.11499 -4
      vertex -0.977692 4.29776 0
      vertex -1.36742 4.11499 0
    endloop
  endfacet
  facet normal 0.424596 -0.905383 0
    outer loop
      vertex -0.977692 4.29776 0
      vertex -1.36742 4.11499 -4
      vertex -0.977692 4.29776 -4
    endloop
  endfacet
  facet normal 0.637037 -0.770833 0
    outer loop
      vertex -1.67703 3.85912 -4
      vertex -1.36742 4.11499 0
      vertex -1.67703 3.85912 0
    endloop
  endfacet
  facet normal 0.637037 -0.770833 0
    outer loop
      vertex -1.36742 4.11499 0
      vertex -1.67703 3.85912 -4
      vertex -1.36742 4.11499 -4
    endloop
  endfacet
  facet normal 0.820993 -0.570938 0
    outer loop
      vertex -1.91289 3.51996 0
      vertex -1.67703 3.85912 -4
      vertex -1.67703 3.85912 0
    endloop
  endfacet
  facet normal 0.820993 -0.570938 0
    outer loop
      vertex -1.67703 3.85912 -4
      vertex -1.91289 3.51996 0
      vertex -1.91289 3.51996 -4
    endloop
  endfacet
  facet normal 0.931848 -0.362848 0
    outer loop
      vertex -2.08135 3.08733 0
      vertex -1.91289 3.51996 -4
      vertex -1.91289 3.51996 0
    endloop
  endfacet
  facet normal 0.931848 -0.362848 0
    outer loop
      vertex -1.91289 3.51996 -4
      vertex -2.08135 3.08733 0
      vertex -2.08135 3.08733 -4
    endloop
  endfacet
  facet normal 0.982039 -0.18868 0
    outer loop
      vertex -2.18243 2.56123 0
      vertex -2.08135 3.08733 -4
      vertex -2.08135 3.08733 0
    endloop
  endfacet
  facet normal 0.982039 -0.18868 0
    outer loop
      vertex -2.08135 3.08733 -4
      vertex -2.18243 2.56123 0
      vertex -2.18243 2.56123 -4
    endloop
  endfacet
  facet normal 0.998524 -0.0543132 0
    outer loop
      vertex -2.21613 1.94167 0
      vertex -2.18243 2.56123 -4
      vertex -2.18243 2.56123 0
    endloop
  endfacet
  facet normal 0.998524 -0.0543132 0
    outer loop
      vertex -2.18243 2.56123 -4
      vertex -2.21613 1.94167 0
      vertex -2.21613 1.94167 -4
    endloop
  endfacet
  facet normal 1 -0 0
    outer loop
      vertex -2.21613 1.34152 0
      vertex -2.21613 1.94167 -4
      vertex -2.21613 1.94167 0
    endloop
  endfacet
  facet normal 1 0 0
    outer loop
      vertex -2.21613 1.94167 -4
      vertex -2.21613 1.34152 0
      vertex -2.21613 1.34152 -4
    endloop
  endfacet
  facet normal 0.0169309 0.999857 -0
    outer loop
      vertex 0.184464 1.30087 -4
      vertex -2.21613 1.34152 0
      vertex 0.184464 1.30087 0
    endloop
  endfacet
  facet normal 0.0169309 0.999857 0
    outer loop
      vertex -2.21613 1.34152 0
      vertex 0.184464 1.30087 -4
      vertex -2.21613 1.34152 -4
    endloop
  endfacet
  facet normal 0.119955 0.992779 -0
    outer loop
      vertex 2.20486 1.05675 -4
      vertex 0.184464 1.30087 0
      vertex 2.20486 1.05675 0
    endloop
  endfacet
  facet normal 0.119955 0.992779 0
    outer loop
      vertex 0.184464 1.30087 0
      vertex 2.20486 1.05675 -4
      vertex 0.184464 1.30087 -4
    endloop
  endfacet
  facet normal 0.42703 0.904237 -0
    outer loop
      vertex 3.648 0.375221 -4
      vertex 2.20486 1.05675 0
      vertex 3.648 0.375221 0
    endloop
  endfacet
  facet normal 0.42703 0.904237 0
    outer loop
      vertex 2.20486 1.05675 0
      vertex 3.648 0.375221 -4
      vertex 2.20486 1.05675 -4
    endloop
  endfacet
  facet normal 0.79085 0.61201 0
    outer loop
      vertex 4.51389 -0.743698 0
      vertex 3.648 0.375221 -4
      vertex 3.648 0.375221 0
    endloop
  endfacet
  facet normal 0.79085 0.61201 0
    outer loop
      vertex 3.648 0.375221 -4
      vertex 4.51389 -0.743698 0
      vertex 4.51389 -0.743698 -4
    endloop
  endfacet
  facet normal 0.983235 0.182341 0
    outer loop
      vertex 4.80251 -2.30002 0
      vertex 4.51389 -0.743698 -4
      vertex 4.51389 -0.743698 0
    endloop
  endfacet
  facet normal 0.983235 0.182341 0
    outer loop
      vertex 4.51389 -0.743698 -4
      vertex 4.80251 -2.30002 0
      vertex 4.80251 -2.30002 -4
    endloop
  endfacet
  facet normal 0.99753 -0.0702408 0
    outer loop
      vertex 4.75166 -3.02217 0
      vertex 4.80251 -2.30002 -4
      vertex 4.80251 -2.30002 0
    endloop
  endfacet
  facet normal 0.99753 -0.0702408 0
    outer loop
      vertex 4.80251 -2.30002 -4
      vertex 4.75166 -3.02217 0
      vertex 4.75166 -3.02217 -4
    endloop
  endfacet
  facet normal 0.972802 -0.231636 0
    outer loop
      vertex 4.59908 -3.66296 0
      vertex 4.75166 -3.02217 -4
      vertex 4.75166 -3.02217 0
    endloop
  endfacet
  facet normal 0.972802 -0.231636 0
    outer loop
      vertex 4.75166 -3.02217 -4
      vertex 4.59908 -3.66296 0
      vertex 4.59908 -3.66296 -4
    endloop
  endfacet
  facet normal 0.910361 -0.413815 0
    outer loop
      vertex 4.34478 -4.2224 0
      vertex 4.59908 -3.66296 -4
      vertex 4.59908 -3.66296 0
    endloop
  endfacet
  facet normal 0.910361 -0.413815 0
    outer loop
      vertex 4.59908 -3.66296 -4
      vertex 4.34478 -4.2224 0
      vertex 4.34478 -4.2224 -4
    endloop
  endfacet
  facet normal 0.802035 -0.597277 0
    outer loop
      vertex 3.98876 -4.70047 0
      vertex 4.34478 -4.2224 -4
      vertex 4.34478 -4.2224 0
    endloop
  endfacet
  facet normal 0.802035 -0.597277 0
    outer loop
      vertex 4.34478 -4.2224 -4
      vertex 3.98876 -4.70047 0
      vertex 3.98876 -4.70047 -4
    endloop
  endfacet
  facet normal 0.642506 -0.76628 0
    outer loop
      vertex 3.5323 -5.0832 -4
      vertex 3.98876 -4.70047 0
      vertex 3.5323 -5.0832 0
    endloop
  endfacet
  facet normal 0.642506 -0.76628 0
    outer loop
      vertex 3.98876 -4.70047 0
      vertex 3.5323 -5.0832 -4
      vertex 3.98876 -4.70047 -4
    endloop
  endfacet
  facet normal 0.441468 -0.897277 0
    outer loop
      vertex 2.97668 -5.35657 -4
      vertex 3.5323 -5.0832 0
      vertex 2.97668 -5.35657 0
    endloop
  endfacet
  facet normal 0.441468 -0.897277 0
    outer loop
      vertex 3.5323 -5.0832 0
      vertex 2.97668 -5.35657 -4
      vertex 3.5323 -5.0832 -4
    endloop
  endfacet
  facet normal 0.242996 -0.970027 0
    outer loop
      vertex 2.32188 -5.5206 -4
      vertex 2.97668 -5.35657 0
      vertex 2.32188 -5.5206 0
    endloop
  endfacet
  facet normal 0.242996 -0.970027 0
    outer loop
      vertex 2.97668 -5.35657 0
      vertex 2.32188 -5.5206 -4
      vertex 2.97668 -5.35657 -4
    endloop
  endfacet
  facet normal 0.0723197 -0.997382 0
    outer loop
      vertex 1.56791 -5.57527 -4
      vertex 2.32188 -5.5206 0
      vertex 1.56791 -5.57527 0
    endloop
  endfacet
  facet normal 0.0723197 -0.997382 0
    outer loop
      vertex 2.32188 -5.5206 0
      vertex 1.56791 -5.57527 -4
      vertex 2.32188 -5.5206 -4
    endloop
  endfacet
  facet normal -0.0529968 -0.998595 0
    outer loop
      vertex 0.933105 -5.54158 -4
      vertex 1.56791 -5.57527 0
      vertex 0.933105 -5.54158 0
    endloop
  endfacet
  facet normal -0.0529968 -0.998595 -0
    outer loop
      vertex 1.56791 -5.57527 0
      vertex 0.933105 -5.54158 -4
      vertex 1.56791 -5.57527 -4
    endloop
  endfacet
  facet normal -0.257169 0.966366 0
    outer loop
      vertex 1.86919 -4.05465 -4
      vertex 1.51093 -4.14999 0
      vertex 1.86919 -4.05465 0
    endloop
  endfacet
  facet normal -0.257169 0.966366 0
    outer loop
      vertex 1.51093 -4.14999 0
      vertex 1.86919 -4.05465 -4
      vertex 1.51093 -4.14999 -4
    endloop
  endfacet
  facet normal -0.461479 0.887151 0
    outer loop
      vertex 2.17468 -3.89574 -4
      vertex 1.86919 -4.05465 0
      vertex 2.17468 -3.89574 0
    endloop
  endfacet
  facet normal -0.461479 0.887151 0
    outer loop
      vertex 1.86919 -4.05465 0
      vertex 2.17468 -3.89574 -4
      vertex 1.86919 -4.05465 -4
    endloop
  endfacet
  facet normal -0.660741 0.750614 0
    outer loop
      vertex 2.42741 -3.67327 -4
      vertex 2.17468 -3.89574 0
      vertex 2.42741 -3.67327 0
    endloop
  endfacet
  facet normal -0.660741 0.750614 0
    outer loop
      vertex 2.17468 -3.89574 0
      vertex 2.42741 -3.67327 -4
      vertex 2.17468 -3.89574 -4
    endloop
  endfacet
  facet normal -0.811205 0.584761 0
    outer loop
      vertex 2.42741 -3.67327 -4
      vertex 2.6254 -3.39861 0
      vertex 2.6254 -3.39861 -4
    endloop
  endfacet
  facet normal -0.811205 0.584761 0
    outer loop
      vertex 2.6254 -3.39861 0
      vertex 2.42741 -3.67327 -4
      vertex 2.42741 -3.67327 0
    endloop
  endfacet
  facet normal -0.912458 0.40917 0
    outer loop
      vertex 2.6254 -3.39861 -4
      vertex 2.76682 -3.08324 0
      vertex 2.76682 -3.08324 -4
    endloop
  endfacet
  facet normal -0.912458 0.40917 0
    outer loop
      vertex 2.76682 -3.08324 0
      vertex 2.6254 -3.39861 -4
      vertex 2.6254 -3.39861 0
    endloop
  endfacet
  facet normal -0.972752 0.23185 0
    outer loop
      vertex 2.76682 -3.08324 -4
      vertex 2.85168 -2.7272 0
      vertex 2.85168 -2.7272 -4
    endloop
  endfacet
  facet normal -0.972752 0.23185 0
    outer loop
      vertex 2.85168 -2.7272 0
      vertex 2.76682 -3.08324 -4
      vertex 2.76682 -3.08324 0
    endloop
  endfacet
  facet normal -0.997469 0.0711023 0
    outer loop
      vertex 2.85168 -2.7272 -4
      vertex 2.87996 -2.33047 0
      vertex 2.87996 -2.33047 -4
    endloop
  endfacet
  facet normal -0.997469 0.0711023 0
    outer loop
      vertex 2.87996 -2.33047 0
      vertex 2.85168 -2.7272 -4
      vertex 2.85168 -2.7272 0
    endloop
  endfacet
  facet normal -0.998473 -0.0552384 0
    outer loop
      vertex 2.87996 -2.33047 -4
      vertex 2.85803 -1.93407 0
      vertex 2.85803 -1.93407 -4
    endloop
  endfacet
  facet normal -0.998473 -0.0552384 0
    outer loop
      vertex 2.85803 -1.93407 0
      vertex 2.87996 -2.33047 -4
      vertex 2.87996 -2.33047 0
    endloop
  endfacet
  facet normal -0.983268 -0.182165 0
    outer loop
      vertex 2.85803 -1.93407 -4
      vertex 2.79225 -1.57901 0
      vertex 2.79225 -1.57901 -4
    endloop
  endfacet
  facet normal -0.983268 -0.182165 0
    outer loop
      vertex 2.79225 -1.57901 0
      vertex 2.85803 -1.93407 -4
      vertex 2.85803 -1.93407 0
    endloop
  endfacet
  facet normal -0.94401 -0.329916 0
    outer loop
      vertex 2.79225 -1.57901 -4
      vertex 2.68261 -1.26529 0
      vertex 2.68261 -1.26529 -4
    endloop
  endfacet
  facet normal -0.94401 -0.329916 0
    outer loop
      vertex 2.68261 -1.26529 0
      vertex 2.79225 -1.57901 -4
      vertex 2.79225 -1.57901 0
    endloop
  endfacet
  facet normal -0.871176 -0.49097 0
    outer loop
      vertex 2.68261 -1.26529 -4
      vertex 2.52911 -0.99292 0
      vertex 2.52911 -0.99292 -4
    endloop
  endfacet
  facet normal -0.871176 -0.49097 0
    outer loop
      vertex 2.52911 -0.99292 0
      vertex 2.68261 -1.26529 -4
      vertex 2.68261 -1.26529 0
    endloop
  endfacet
  facet normal -0.77357 -0.633711 0
    outer loop
      vertex 2.52911 -0.99292 -4
      vertex 2.33614 -0.757362 0
      vertex 2.33614 -0.757362 -4
    endloop
  endfacet
  facet normal -0.77357 -0.633711 0
    outer loop
      vertex 2.33614 -0.757362 0
      vertex 2.52911 -0.99292 -4
      vertex 2.52911 -0.99292 0
    endloop
  endfacet
  facet normal -0.665317 -0.746561 0
    outer loop
      vertex 2.10822 -0.554245 -4
      vertex 2.33614 -0.757362 0
      vertex 2.10822 -0.554245 0
    endloop
  endfacet
  facet normal -0.665317 -0.746561 -0
    outer loop
      vertex 2.33614 -0.757362 0
      vertex 2.10822 -0.554245 -4
      vertex 2.33614 -0.757362 -4
    endloop
  endfacet
  facet normal -0.544551 -0.838728 0
    outer loop
      vertex 1.84534 -0.383568 -4
      vertex 2.10822 -0.554245 0
      vertex 1.84534 -0.383568 0
    endloop
  endfacet
  facet normal -0.544551 -0.838728 -0
    outer loop
      vertex 2.10822 -0.554245 0
      vertex 1.84534 -0.383568 -4
      vertex 2.10822 -0.554245 -4
    endloop
  endfacet
  facet normal -0.42104 -0.907042 0
    outer loop
      vertex 1.54752 -0.245323 -4
      vertex 1.84534 -0.383568 0
      vertex 1.54752 -0.245323 0
    endloop
  endfacet
  facet normal -0.42104 -0.907042 -0
    outer loop
      vertex 1.84534 -0.383568 0
      vertex 1.54752 -0.245323 -4
      vertex 1.84534 -0.383568 -4
    endloop
  endfacet
  facet normal -0.294443 -0.955669 0
    outer loop
      vertex 1.19661 -0.137207 -4
      vertex 1.54752 -0.245323 0
      vertex 1.19661 -0.137207 0
    endloop
  endfacet
  facet normal -0.294443 -0.955669 -0
    outer loop
      vertex 1.54752 -0.245323 0
      vertex 1.19661 -0.137207 -4
      vertex 1.54752 -0.245323 -4
    endloop
  endfacet
  facet normal -0.186518 -0.982452 0
    outer loop
      vertex 0.77449 -0.0570679 -4
      vertex 1.19661 -0.137207 0
      vertex 0.77449 -0.0570679 0
    endloop
  endfacet
  facet normal -0.186518 -0.982452 -0
    outer loop
      vertex 1.19661 -0.137207 0
      vertex 0.77449 -0.0570679 -4
      vertex 1.19661 -0.137207 -4
    endloop
  endfacet
  facet normal -0.105148 -0.994457 0
    outer loop
      vertex 0.281158 -0.0049057 -4
      vertex 0.77449 -0.0570679 0
      vertex 0.281158 -0.0049057 0
    endloop
  endfacet
  facet normal -0.105148 -0.994457 -0
    outer loop
      vertex 0.77449 -0.0570679 0
      vertex 0.281158 -0.0049057 -4
      vertex 0.77449 -0.0570679 -4
    endloop
  endfacet
  facet normal -0.0427881 -0.999084 0
    outer loop
      vertex -0.283379 0.0192719 -4
      vertex 0.281158 -0.0049057 0
      vertex -0.283379 0.0192719 0
    endloop
  endfacet
  facet normal -0.0427881 -0.999084 -0
    outer loop
      vertex 0.281158 -0.0049057 0
      vertex -0.283379 0.0192719 -4
      vertex 0.281158 -0.0049057 -4
    endloop
  endfacet
  facet normal -0.0210272 -0.999779 0
    outer loop
      vertex -2.21613 0.0599213 -4
      vertex -0.283379 0.0192719 0
      vertex -2.21613 0.0599213 0
    endloop
  endfacet
  facet normal -0.0210272 -0.999779 -0
    outer loop
      vertex -0.283379 0.0192719 0
      vertex -2.21613 0.0599213 -4
      vertex -0.283379 0.0192719 -4
    endloop
  endfacet
  facet normal 1 -0 0
    outer loop
      vertex -2.21613 -0.845322 0
      vertex -2.21613 0.0599213 -4
      vertex -2.21613 0.0599213 0
    endloop
  endfacet
  facet normal 1 0 0
    outer loop
      vertex -2.21613 0.0599213 -4
      vertex -2.21613 -0.845322 0
      vertex -2.21613 -0.845322 -4
    endloop
  endfacet
  facet normal 0.998022 0.062862 0
    outer loop
      vertex -2.19006 -1.25922 0
      vertex -2.21613 -0.845322 -4
      vertex -2.21613 -0.845322 0
    endloop
  endfacet
  facet normal 0.998022 0.062862 0
    outer loop
      vertex -2.21613 -0.845322 -4
      vertex -2.19006 -1.25922 0
      vertex -2.19006 -1.25922 -4
    endloop
  endfacet
  facet normal 0.982075 0.188492 0
    outer loop
      vertex -2.11184 -1.66676 0
      vertex -2.19006 -1.25922 -4
      vertex -2.19006 -1.25922 0
    endloop
  endfacet
  facet normal 0.982075 0.188492 0
    outer loop
      vertex -2.19006 -1.25922 -4
      vertex -2.11184 -1.66676 0
      vertex -2.11184 -1.66676 -4
    endloop
  endfacet
  facet normal 0.95105 0.309036 0
    outer loop
      vertex -1.98148 -2.06794 0
      vertex -2.11184 -1.66676 -4
      vertex -2.11184 -1.66676 0
    endloop
  endfacet
  facet normal 0.95105 0.309036 0
    outer loop
      vertex -2.11184 -1.66676 -4
      vertex -1.98148 -2.06794 0
      vertex -1.98148 -2.06794 -4
    endloop
  endfacet
  facet normal 0.907722 0.419571 0
    outer loop
      vertex -1.79898 -2.46277 0
      vertex -1.98148 -2.06794 -4
      vertex -1.98148 -2.06794 0
    endloop
  endfacet
  facet normal 0.907722 0.419571 0
    outer loop
      vertex -1.98148 -2.06794 -4
      vertex -1.79898 -2.46277 0
      vertex -1.79898 -2.46277 -4
    endloop
  endfacet
  facet normal 0.851013 0.525144 0
    outer loop
      vertex -1.5695 -2.83465 0
      vertex -1.79898 -2.46277 -4
      vertex -1.79898 -2.46277 0
    endloop
  endfacet
  facet normal 0.851013 0.525144 0
    outer loop
      vertex -1.79898 -2.46277 -4
      vertex -1.5695 -2.83465 0
      vertex -1.5695 -2.83465 -4
    endloop
  endfacet
  facet normal 0.774639 0.632404 0
    outer loop
      vertex -1.29806 -3.16714 0
      vertex -1.5695 -2.83465 -4
      vertex -1.5695 -2.83465 0
    endloop
  endfacet
  facet normal 0.774639 0.632404 0
    outer loop
      vertex -1.5695 -2.83465 -4
      vertex -1.29806 -3.16714 0
      vertex -1.29806 -3.16714 -4
    endloop
  endfacet
  facet normal 0.683033 0.730388 -0
    outer loop
      vertex -0.98465 -3.46023 -4
      vertex -1.29806 -3.16714 0
      vertex -0.98465 -3.46023 0
    endloop
  endfacet
  facet normal 0.683033 0.730388 0
    outer loop
      vertex -1.29806 -3.16714 0
      vertex -0.98465 -3.46023 -4
      vertex -1.29806 -3.16714 -4
    endloop
  endfacet
  facet normal 0.581017 0.813891 -0
    outer loop
      vertex -0.62928 -3.71392 -4
      vertex -0.98465 -3.46023 0
      vertex -0.62928 -3.71392 0
    endloop
  endfacet
  facet normal 0.581017 0.813891 0
    outer loop
      vertex -0.98465 -3.46023 0
      vertex -0.62928 -3.71392 -4
      vertex -0.98465 -3.46023 -4
    endloop
  endfacet
  facet normal 0.464397 0.885627 -0
    outer loop
      vertex -0.238945 -3.9186 -4
      vertex -0.62928 -3.71392 0
      vertex -0.238945 -3.9186 0
    endloop
  endfacet
  facet normal 0.464397 0.885627 0
    outer loop
      vertex -0.62928 -3.71392 0
      vertex -0.238945 -3.9186 -4
      vertex -0.62928 -3.71392 -4
    endloop
  endfacet
  facet normal 0.329956 0.943996 -0
    outer loop
      vertex 0.179359 -4.06481 -4
      vertex -0.238945 -3.9186 0
      vertex 0.179359 -4.06481 0
    endloop
  endfacet
  facet normal 0.329956 0.943996 0
    outer loop
      vertex -0.238945 -3.9186 0
      vertex 0.179359 -4.06481 -4
      vertex -0.238945 -3.9186 -4
    endloop
  endfacet
  facet normal 0.192864 0.981225 -0
    outer loop
      vertex 0.625648 -4.15253 -4
      vertex 0.179359 -4.06481 0
      vertex 0.625648 -4.15253 0
    endloop
  endfacet
  facet normal 0.192864 0.981225 0
    outer loop
      vertex 0.179359 -4.06481 0
      vertex 0.625648 -4.15253 -4
      vertex 0.179359 -4.06481 -4
    endloop
  endfacet
  facet normal 0.0615368 0.998105 -0
    outer loop
      vertex 1.09991 -4.18177 -4
      vertex 0.625648 -4.15253 0
      vertex 1.09991 -4.18177 0
    endloop
  endfacet
  facet normal 0.0615368 0.998105 0
    outer loop
      vertex 0.625648 -4.15253 0
      vertex 1.09991 -4.18177 -4
      vertex 0.625648 -4.15253 -4
    endloop
  endfacet
  facet normal -0.0770897 0.997024 0
    outer loop
      vertex 1.51093 -4.14999 -4
      vertex 1.09991 -4.18177 0
      vertex 1.51093 -4.14999 0
    endloop
  endfacet
  facet normal -0.0770897 0.997024 0
    outer loop
      vertex 1.09991 -4.18177 0
      vertex 1.51093 -4.14999 -4
      vertex 1.09991 -4.18177 -4
    endloop
  endfacet
  facet normal -1 0 0
    outer loop
      vertex -6 -10 -14
      vertex -6 10 -4
      vertex -6 10 -14
    endloop
  endfacet
  facet normal -1 -0 0
    outer loop
      vertex -6 10 -4
      vertex -6 -10 -14
      vertex -6 -10 -4
    endloop
  endfacet
  facet normal 0 0 -1
    outer loop
      vertex -6 -10 -14
      vertex 6 10 -14
      vertex 6 -10 -14
    endloop
  endfacet
  facet normal -0 0 -1
    outer loop
      vertex 6 10 -14
      vertex -6 -10 -14
      vertex -6 10 -14
    endloop
  endfacet
  facet normal 0 0 1
    outer loop
      vertex 6 10 -4
      vertex 4.80251 -2.30002 -4
      vertex 6 -10 -4
    endloop
  endfacet
  facet normal 0 0 1
    outer loop
      vertex 6 10 -4
      vertex 4.51389 -0.743698 -4
      vertex 4.80251 -2.30002 -4
    endloop
  endfacet
  facet normal 0 0 1
    outer loop
      vertex 6 10 -4
      vertex 4.31426 2.86732 -4
      vertex 4.51389 -0.743698 -4
    endloop
  endfacet
  facet normal 0 0 1
    outer loop
      vertex 6 10 -4
      vertex 3.8699 4.16676 -4
      vertex 4.31426 2.86732 -4
    endloop
  endfacet
  facet normal 0 0 1
    outer loop
      vertex 6 10 -4
      vertex 3.00465 5.09493 -4
      vertex 3.8699 4.16676 -4
    endloop
  endfacet
  facet normal 0 0 1
    outer loop
      vertex 6 10 -4
      vertex 1.71852 5.65184 -4
      vertex 3.00465 5.09493 -4
    endloop
  endfacet
  facet normal 0 0 1
    outer loop
      vertex 6 10 -4
      vertex 0.0115128 5.83747 -4
      vertex 1.71852 5.65184 -4
    endloop
  endfacet
  facet normal -0 0 1
    outer loop
      vertex -6 10 -4
      vertex 0.0115128 5.83747 -4
      vertex 6 10 -4
    endloop
  endfacet
  facet normal 0 0 1
    outer loop
      vertex 0.0115128 5.83747 -4
      vertex -6 10 -4
      vertex -0.942375 5.77802 -4
    endloop
  endfacet
  facet normal 0 0 1
    outer loop
      vertex -0.942375 5.77802 -4
      vertex -6 10 -4
      vertex -1.76977 5.59969 -4
    endloop
  endfacet
  facet normal 0 0 1
    outer loop
      vertex -5.69493 -4.17157 -4
      vertex -4.06743 -2.60512 -4
      vertex -4.06743 2.13502 -4
    endloop
  endfacet
  facet normal 0 0 1
    outer loop
      vertex -4.06743 -2.60512 -4
      vertex -5.69493 -4.17157 -4
      vertex -4.08078 -2.98689 -4
    endloop
  endfacet
  facet normal 0 -0 1
    outer loop
      vertex -5.53153 -4.20274 -4
      vertex -4.08078 -2.98689 -4
      vertex -5.69493 -4.17157 -4
    endloop
  endfacet
  facet normal 0 0 1
    outer loop
      vertex -4.08078 -2.98689 -4
      vertex -5.53153 -4.20274 -4
      vertex -4.12083 -3.31844 -4
    endloop
  endfacet
  facet normal 0 -0 1
    outer loop
      vertex -5.37704 -4.22501 -4
      vertex -4.12083 -3.31844 -4
      vertex -5.53153 -4.20274 -4
    endloop
  endfacet
  facet normal 0 -0 1
    outer loop
      vertex -5.23146 -4.23837 -4
      vertex -4.12083 -3.31844 -4
      vertex -5.37704 -4.22501 -4
    endloop
  endfacet
  facet normal 0 0 1
    outer loop
      vertex -6 10 -4
      vertex -4.06743 2.13502 -4
      vertex -4.00353 2.98209 -4
    endloop
  endfacet
  facet normal 0 0 1
    outer loop
      vertex -4.12083 -3.31844 -4
      vertex -5.23146 -4.23837 -4
      vertex -4.18758 -3.59979 -4
    endloop
  endfacet
  facet normal 0 -0 1
    outer loop
      vertex -5.09478 -4.24282 -4
      vertex -4.18758 -3.59979 -4
      vertex -5.23146 -4.23837 -4
    endloop
  endfacet
  facet normal 0 -0 1
    outer loop
      vertex -4.81886 -4.21708 -4
      vertex -4.18758 -3.59979 -4
      vertex -5.09478 -4.24282 -4
    endloop
  endfacet
  facet normal 0 0 1
    outer loop
      vertex -4.28103 -3.83092 -4
      vertex -4.59127 -4.13985 -4
      vertex -4.41199 -4.01112 -4
    endloop
  endfacet
  facet normal 0 -0 1
    outer loop
      vertex -4.59127 -4.13985 -4
      vertex -4.28103 -3.83092 -4
      vertex -4.81886 -4.21708 -4
    endloop
  endfacet
  facet normal 0 0 1
    outer loop
      vertex -4.18758 -3.59979 -4
      vertex -4.81886 -4.21708 -4
      vertex -4.28103 -3.83092 -4
    endloop
  endfacet
  facet normal 0 0 1
    outer loop
      vertex -6 -10 -4
      vertex -5.69493 -4.17157 -4
      vertex -6 10 -4
    endloop
  endfacet
  facet normal 0 0 1
    outer loop
      vertex -4.06743 2.13502 -4
      vertex -6 10 -4
      vertex -5.69493 -4.17157 -4
    endloop
  endfacet
  facet normal 0 0 1
    outer loop
      vertex -3.81183 3.723 -4
      vertex -6 10 -4
      vertex -4.00353 2.98209 -4
    endloop
  endfacet
  facet normal 0 0 1
    outer loop
      vertex -3.49233 4.35774 -4
      vertex -6 10 -4
      vertex -3.81183 3.723 -4
    endloop
  endfacet
  facet normal 0 0 1
    outer loop
      vertex -3.04503 4.88632 -4
      vertex -6 10 -4
      vertex -3.49233 4.35774 -4
    endloop
  endfacet
  facet normal 0 0 1
    outer loop
      vertex -2.47065 5.30245 -4
      vertex -6 10 -4
      vertex -3.04503 4.88632 -4
    endloop
  endfacet
  facet normal 0 0 1
    outer loop
      vertex -1.76977 5.59969 -4
      vertex -6 10 -4
      vertex -2.47065 5.30245 -4
    endloop
  endfacet
  facet normal -0 0 1
    outer loop
      vertex 4.75166 -3.02217 -4
      vertex 6 -10 -4
      vertex 4.80251 -2.30002 -4
    endloop
  endfacet
  facet normal -0 0 1
    outer loop
      vertex 4.59908 -3.66296 -4
      vertex 6 -10 -4
      vertex 4.75166 -3.02217 -4
    endloop
  endfacet
  facet normal -0 0 1
    outer loop
      vertex 4.34478 -4.2224 -4
      vertex 6 -10 -4
      vertex 4.59908 -3.66296 -4
    endloop
  endfacet
  facet normal -0 0 1
    outer loop
      vertex 3.98876 -4.70047 -4
      vertex 6 -10 -4
      vertex 4.34478 -4.2224 -4
    endloop
  endfacet
  facet normal -0 0 1
    outer loop
      vertex 3.5323 -5.0832 -4
      vertex 6 -10 -4
      vertex 3.98876 -4.70047 -4
    endloop
  endfacet
  facet normal -0 0 1
    outer loop
      vertex 2.97668 -5.35657 -4
      vertex 6 -10 -4
      vertex 3.5323 -5.0832 -4
    endloop
  endfacet
  facet normal -0 0 1
    outer loop
      vertex 2.32188 -5.5206 -4
      vertex 6 -10 -4
      vertex 2.97668 -5.35657 -4
    endloop
  endfacet
  facet normal -0 0 1
    outer loop
      vertex 1.56791 -5.57527 -4
      vertex 6 -10 -4
      vertex 2.32188 -5.5206 -4
    endloop
  endfacet
  facet normal 0 0 1
    outer loop
      vertex 0.933105 -5.54158 -4
      vertex 6 -10 -4
      vertex 1.56791 -5.57527 -4
    endloop
  endfacet
  facet normal 0 0 1
    outer loop
      vertex -6 -10 -4
      vertex 0.933105 -5.54158 -4
      vertex 0.351074 -5.4405 -4
    endloop
  endfacet
  facet normal 0 0 1
    outer loop
      vertex -6 -10 -4
      vertex 0.351074 -5.4405 -4
      vertex -0.178162 -5.27203 -4
    endloop
  endfacet
  facet normal -0 0 1
    outer loop
      vertex -3.06693 -5.17319 -4
      vertex -0.178162 -5.27203 -4
      vertex -0.654633 -5.03617 -4
    endloop
  endfacet
  facet normal -0 0 1
    outer loop
      vertex -2.80083 -4.93957 -4
      vertex -0.654633 -5.03617 -4
      vertex -1.08984 -4.7234 -4
    endloop
  endfacet
  facet normal 0 0 1
    outer loop
      vertex -2.33275 -3.79812 -4
      vertex -2.21613 -3.26632 -4
      vertex -2.27718 -3.26632 -4
    endloop
  endfacet
  facet normal 0 0 1
    outer loop
      vertex -2.21613 -3.26632 -4
      vertex -2.33275 -3.79812 -4
      vertex -1.87058 -3.83847 -4
    endloop
  endfacet
  facet normal 0 0 1
    outer loop
      vertex -2.43855 -4.25426 -4
      vertex -1.87058 -3.83847 -4
      vertex -2.33275 -3.79812 -4
    endloop
  endfacet
  facet normal 0 0 1
    outer loop
      vertex -1.87058 -3.83847 -4
      vertex -2.43855 -4.25426 -4
      vertex -1.49516 -4.32416 -4
    endloop
  endfacet
  facet normal 0 0 1
    outer loop
      vertex -2.59457 -4.63474 -4
      vertex -1.49516 -4.32416 -4
      vertex -2.43855 -4.25426 -4
    endloop
  endfacet
  facet normal 0 0 1
    outer loop
      vertex -1.49516 -4.32416 -4
      vertex -2.59457 -4.63474 -4
      vertex -1.08984 -4.7234 -4
    endloop
  endfacet
  facet normal 0 0 1
    outer loop
      vertex -2.80083 -4.93957 -4
      vertex -1.08984 -4.7234 -4
      vertex -2.59457 -4.63474 -4
    endloop
  endfacet
  facet normal 0 0 1
    outer loop
      vertex -0.654633 -5.03617 -4
      vertex -2.80083 -4.93957 -4
      vertex -3.06693 -5.17319 -4
    endloop
  endfacet
  facet normal 0 0 1
    outer loop
      vertex -0.178162 -5.27203 -4
      vertex -3.06693 -5.17319 -4
      vertex -3.40233 -5.34007 -4
    endloop
  endfacet
  facet normal 0 0 1
    outer loop
      vertex -0.178162 -5.27203 -4
      vertex -3.40233 -5.34007 -4
      vertex -6 -10 -4
    endloop
  endfacet
  facet normal 0 0 1
    outer loop
      vertex -6 -10 -4
      vertex -3.40233 -5.34007 -4
      vertex -3.80703 -5.44019 -4
    endloop
  endfacet
  facet normal 0 0 1
    outer loop
      vertex -6 -10 -4
      vertex -3.80703 -5.44019 -4
      vertex -4.28103 -5.47357 -4
    endloop
  endfacet
  facet normal 0 0 1
    outer loop
      vertex -6 -10 -4
      vertex -4.28103 -5.47357 -4
      vertex -4.64018 -5.4634 -4
    endloop
  endfacet
  facet normal 0 0 1
    outer loop
      vertex -6 -10 -4
      vertex -4.64018 -5.4634 -4
      vertex -4.99555 -5.43288 -4
    endloop
  endfacet
  facet normal 0 0 1
    outer loop
      vertex -6 -10 -4
      vertex -4.99555 -5.43288 -4
      vertex -5.34714 -5.38203 -4
    endloop
  endfacet
  facet normal 0 0 1
    outer loop
      vertex -6 -10 -4
      vertex -5.34714 -5.38203 -4
      vertex -5.69493 -5.31082 -4
    endloop
  endfacet
  facet normal 0 0 1
    outer loop
      vertex 0.933105 -5.54158 -4
      vertex -6 -10 -4
      vertex 6 -10 -4
    endloop
  endfacet
  facet normal 0 0 1
    outer loop
      vertex -5.69493 -4.17157 -4
      vertex -6 -10 -4
      vertex -5.69493 -5.31082 -4
    endloop
  endfacet
  facet normal 0 0 1
    outer loop
      vertex 4.31426 2.86732 -4
      vertex 3.648 0.375221 -4
      vertex 4.51389 -0.743698 -4
    endloop
  endfacet
  facet normal -0 0 1
    outer loop
      vertex 2.40192 2.69437 -4
      vertex 3.648 0.375221 -4
      vertex 4.31426 2.86732 -4
    endloop
  endfacet
  facet normal 0 0 1
    outer loop
      vertex 2.40192 2.69437 -4
      vertex 2.20486 1.05675 -4
      vertex 3.648 0.375221 -4
    endloop
  endfacet
  facet normal 0 0 1
    outer loop
      vertex 0.184464 1.30087 -4
      vertex 2.40192 2.69437 -4
      vertex 2.32436 3.11272 -4
    endloop
  endfacet
  facet normal 0 0 1
    outer loop
      vertex 0.184464 1.30087 -4
      vertex 2.32436 3.11272 -4
      vertex 2.19341 3.47257 -4
    endloop
  endfacet
  facet normal 0 0 1
    outer loop
      vertex 1.4649 4.20367 -4
      vertex 2.19341 3.47257 -4
      vertex 2.00906 3.77392 -4
    endloop
  endfacet
  facet normal 0 0 1
    outer loop
      vertex 1.4649 4.20367 -4
      vertex 2.00906 3.77392 -4
      vertex 1.77132 4.01677 -4
    endloop
  endfacet
  facet normal 0 0 1
    outer loop
      vertex 2.19341 3.47257 -4
      vertex 1.4649 4.20367 -4
      vertex 0.184464 1.30087 -4
    endloop
  endfacet
  facet normal 0 0 1
    outer loop
      vertex 0.184464 1.30087 -4
      vertex 1.4649 4.20367 -4
      vertex 1.07456 4.33717 -4
    endloop
  endfacet
  facet normal 0 0 1
    outer loop
      vertex 0.184464 1.30087 -4
      vertex 1.07456 4.33717 -4
      vertex 0.600304 4.41727 -4
    endloop
  endfacet
  facet normal 0 0 1
    outer loop
      vertex 2.40192 2.69437 -4
      vertex 0.184464 1.30087 -4
      vertex 2.20486 1.05675 -4
    endloop
  endfacet
  facet normal 0 0 1
    outer loop
      vertex 0.0421143 4.44397 -4
      vertex 0.184464 1.30087 -4
      vertex 0.600304 4.41727 -4
    endloop
  endfacet
  facet normal -0 0 1
    outer loop
      vertex -0.507843 4.40742 -4
      vertex 0.184464 1.30087 -4
      vertex 0.0421143 4.44397 -4
    endloop
  endfacet
  facet normal -0 0 1
    outer loop
      vertex -0.977692 4.29776 -4
      vertex 0.184464 1.30087 -4
      vertex -0.507843 4.40742 -4
    endloop
  endfacet
  facet normal -0 0 1
    outer loop
      vertex -1.36742 4.11499 -4
      vertex 0.184464 1.30087 -4
      vertex -0.977692 4.29776 -4
    endloop
  endfacet
  facet normal 0 0 1
    outer loop
      vertex -1.91289 3.51996 -4
      vertex -1.36742 4.11499 -4
      vertex -1.67703 3.85912 -4
    endloop
  endfacet
  facet normal 0 0 1
    outer loop
      vertex -1.36742 4.11499 -4
      vertex -1.91289 3.51996 -4
      vertex 0.184464 1.30087 -4
    endloop
  endfacet
  facet normal -0 0 1
    outer loop
      vertex -2.08135 3.08733 -4
      vertex 0.184464 1.30087 -4
      vertex -1.91289 3.51996 -4
    endloop
  endfacet
  facet normal -0 0 1
    outer loop
      vertex -2.18243 2.56123 -4
      vertex 0.184464 1.30087 -4
      vertex -2.08135 3.08733 -4
    endloop
  endfacet
  facet normal -0 0 1
    outer loop
      vertex -2.21613 1.94167 -4
      vertex 0.184464 1.30087 -4
      vertex -2.18243 2.56123 -4
    endloop
  endfacet
  facet normal 0 0 1
    outer loop
      vertex 0.184464 1.30087 -4
      vertex -2.21613 1.94167 -4
      vertex -2.21613 1.34152 -4
    endloop
  endfacet
  facet normal 0 0 1
    outer loop
      vertex 0.625648 -4.15253 -4
      vertex 2.87996 -2.33047 -4
      vertex 2.85803 -1.93407 -4
    endloop
  endfacet
  facet normal 0 0 1
    outer loop
      vertex 1.84534 -0.383568 -4
      vertex 2.85803 -1.93407 -4
      vertex 2.79225 -1.57901 -4
    endloop
  endfacet
  facet normal 0 0 1
    outer loop
      vertex 2.87996 -2.33047 -4
      vertex 1.09991 -4.18177 -4
      vertex 2.85168 -2.7272 -4
    endloop
  endfacet
  facet normal 0 0 1
    outer loop
      vertex 2.10822 -0.554245 -4
      vertex 2.79225 -1.57901 -4
      vertex 2.68261 -1.26529 -4
    endloop
  endfacet
  facet normal 0 -0 1
    outer loop
      vertex 1.51093 -4.14999 -4
      vertex 2.85168 -2.7272 -4
      vertex 1.09991 -4.18177 -4
    endloop
  endfacet
  facet normal 0 0 1
    outer loop
      vertex 2.33614 -0.757362 -4
      vertex 2.68261 -1.26529 -4
      vertex 2.52911 -0.99292 -4
    endloop
  endfacet
  facet normal 0 0 1
    outer loop
      vertex 2.85168 -2.7272 -4
      vertex 1.51093 -4.14999 -4
      vertex 2.76682 -3.08324 -4
    endloop
  endfacet
  facet normal 0 0 1
    outer loop
      vertex 2.10822 -0.554245 -4
      vertex 2.68261 -1.26529 -4
      vertex 2.33614 -0.757362 -4
    endloop
  endfacet
  facet normal 0 0 1
    outer loop
      vertex 2.76682 -3.08324 -4
      vertex 1.51093 -4.14999 -4
      vertex 2.6254 -3.39861 -4
    endloop
  endfacet
  facet normal 0 0 1
    outer loop
      vertex 1.84534 -0.383568 -4
      vertex 2.79225 -1.57901 -4
      vertex 2.10822 -0.554245 -4
    endloop
  endfacet
  facet normal 0 0 1
    outer loop
      vertex 2.6254 -3.39861 -4
      vertex 1.86919 -4.05465 -4
      vertex 2.42741 -3.67327 -4
    endloop
  endfacet
  facet normal 0 0 1
    outer loop
      vertex 2.85803 -1.93407 -4
      vertex 1.84534 -0.383568 -4
      vertex 0.625648 -4.15253 -4
    endloop
  endfacet
  facet normal 0 0 1
    outer loop
      vertex 0.625648 -4.15253 -4
      vertex 1.84534 -0.383568 -4
      vertex 1.54752 -0.245323 -4
    endloop
  endfacet
  facet normal 0 0 1
    outer loop
      vertex 2.42741 -3.67327 -4
      vertex 1.86919 -4.05465 -4
      vertex 2.17468 -3.89574 -4
    endloop
  endfacet
  facet normal 0 0 1
    outer loop
      vertex 0.625648 -4.15253 -4
      vertex 1.54752 -0.245323 -4
      vertex 1.19661 -0.137207 -4
    endloop
  endfacet
  facet normal 0 -0 1
    outer loop
      vertex 1.86919 -4.05465 -4
      vertex 2.6254 -3.39861 -4
      vertex 1.51093 -4.14999 -4
    endloop
  endfacet
  facet normal 0 0 1
    outer loop
      vertex -0.238945 -3.9186 -4
      vertex 1.19661 -0.137207 -4
      vertex 0.77449 -0.0570679 -4
    endloop
  endfacet
  facet normal 0 0 1
    outer loop
      vertex 2.87996 -2.33047 -4
      vertex 0.625648 -4.15253 -4
      vertex 1.09991 -4.18177 -4
    endloop
  endfacet
  facet normal 0 0 1
    outer loop
      vertex -0.62928 -3.71392 -4
      vertex 0.77449 -0.0570679 -4
      vertex 0.281158 -0.0049057 -4
    endloop
  endfacet
  facet normal 0 0 1
    outer loop
      vertex 1.19661 -0.137207 -4
      vertex 0.179359 -4.06481 -4
      vertex 0.625648 -4.15253 -4
    endloop
  endfacet
  facet normal 0 0 1
    outer loop
      vertex 1.19661 -0.137207 -4
      vertex -0.238945 -3.9186 -4
      vertex 0.179359 -4.06481 -4
    endloop
  endfacet
  facet normal 0 0 1
    outer loop
      vertex -1.5695 -2.83465 -4
      vertex 0.281158 -0.0049057 -4
      vertex -0.283379 0.0192719 -4
    endloop
  endfacet
  facet normal 0 0 1
    outer loop
      vertex 0.77449 -0.0570679 -4
      vertex -0.62928 -3.71392 -4
      vertex -0.238945 -3.9186 -4
    endloop
  endfacet
  facet normal 0 0 1
    outer loop
      vertex 0.281158 -0.0049057 -4
      vertex -0.98465 -3.46023 -4
      vertex -0.62928 -3.71392 -4
    endloop
  endfacet
  facet normal 0 0 1
    outer loop
      vertex 0.281158 -0.0049057 -4
      vertex -1.29806 -3.16714 -4
      vertex -0.98465 -3.46023 -4
    endloop
  endfacet
  facet normal 0 0 1
    outer loop
      vertex 0.281158 -0.0049057 -4
      vertex -1.5695 -2.83465 -4
      vertex -1.29806 -3.16714 -4
    endloop
  endfacet
  facet normal 0 0 1
    outer loop
      vertex -0.283379 0.0192719 -4
      vertex -1.79898 -2.46277 -4
      vertex -1.5695 -2.83465 -4
    endloop
  endfacet
  facet normal 0 0 1
    outer loop
      vertex -0.283379 0.0192719 -4
      vertex -1.98148 -2.06794 -4
      vertex -1.79898 -2.46277 -4
    endloop
  endfacet
  facet normal 0 0 1
    outer loop
      vertex -0.283379 0.0192719 -4
      vertex -2.11184 -1.66676 -4
      vertex -1.98148 -2.06794 -4
    endloop
  endfacet
  facet normal 0 0 1
    outer loop
      vertex -0.283379 0.0192719 -4
      vertex -2.19006 -1.25922 -4
      vertex -2.11184 -1.66676 -4
    endloop
  endfacet
  facet normal 0 0 1
    outer loop
      vertex -2.21613 -0.845322 -4
      vertex -0.283379 0.0192719 -4
      vertex -2.21613 0.0599213 -4
    endloop
  endfacet
  facet normal 0 0 1
    outer loop
      vertex -0.283379 0.0192719 -4
      vertex -2.21613 -0.845322 -4
      vertex -2.19006 -1.25922 -4
    endloop
  endfacet
  facet normal 1 -0 0
    outer loop
      vertex 6 -10 -4
      vertex 6 10 -14
      vertex 6 10 -4
    endloop
  endfacet
  facet normal 1 0 0
    outer loop
      vertex 6 10 -14
      vertex 6 -10 -4
      vertex 6 -10 -14
    endloop
  endfacet
  facet normal 0 1 -0
    outer loop
      vertex 6 10 -14
      vertex -6 10 -4
      vertex 6 10 -4
    endloop
  endfacet
  facet normal 0 1 0
    outer loop
      vertex -6 10 -4
      vertex 6 10 -14
      vertex -6 10 -14
    endloop
  endfacet
  facet normal 0 -1 0
    outer loop
      vertex -6 -10 -14
      vertex 6 -10 -4
      vertex -6 -10 -4
    endloop
  endfacet
  facet normal 0 -1 -0
    outer loop
      vertex 6 -10 -4
      vertex -6 -10 -14
      vertex 6 -10 -14
    endloop
  endfacet
endsolid OpenSCAD_Model
