solid OpenSCAD_Model
  facet normal -0 0 1
    outer loop
      vertex -4.78953 3.63251 0
      vertex 0.204865 2.18816 0
      vertex 0.204865 3.63251 0
    endloop
  endfacet
  facet normal 0 0 1
    outer loop
      vertex 0.204865 2.18816 0
      vertex -4.78953 3.63251 0
      vertex -4.78953 2.18816 0
    endloop
  endfacet
  facet normal 0 0 1
    outer loop
      vertex 2.03577 3.88676 0
      vertex 0.189293 4.18116 0
      vertex 0.204865 3.73421 0
    endloop
  endfacet
  facet normal 0 0 1
    outer loop
      vertex 1.05416 6.84686 0
      vertex 0.142578 4.57597 0
      vertex 0.189293 4.18116 0
    endloop
  endfacet
  facet normal 0 0 1
    outer loop
      vertex 1.05416 6.84686 0
      vertex 0.0647125 4.91864 0
      vertex 0.142578 4.57597 0
    endloop
  endfacet
  facet normal 0 0 1
    outer loop
      vertex 1.05416 6.84686 0
      vertex -0.044281 5.20916 0
      vertex 0.0647125 4.91864 0
    endloop
  endfacet
  facet normal 0 0 1
    outer loop
      vertex 1.05416 6.84686 0
      vertex -0.187042 5.45518 0
      vertex -0.044281 5.20916 0
    endloop
  endfacet
  facet normal 0 0 1
    outer loop
      vertex -0.581245 5.83662 0
      vertex 0.481667 7.22958 0
      vertex -0.254204 7.50296 0
    endloop
  endfacet
  facet normal 0 0 1
    outer loop
      vertex 1.05416 6.84686 0
      vertex -0.366028 5.66434 0
      vertex -0.187042 5.45518 0
    endloop
  endfacet
  facet normal 0 0 1
    outer loop
      vertex 0.481667 7.22958 0
      vertex -0.581245 5.83662 0
      vertex -0.366028 5.66434 0
    endloop
  endfacet
  facet normal 0 0 1
    outer loop
      vertex -0.254204 7.50296 0
      vertex -0.83268 5.97206 0
      vertex -0.581245 5.83662 0
    endloop
  endfacet
  facet normal 0 0 1
    outer loop
      vertex -0.254204 7.50296 0
      vertex -1.13466 6.07443 0
      vertex -0.83268 5.97206 0
    endloop
  endfacet
  facet normal 0 0 1
    outer loop
      vertex -1.15347 7.66698 0
      vertex -1.13466 6.07443 0
      vertex -0.254204 7.50296 0
    endloop
  endfacet
  facet normal 0 0 1
    outer loop
      vertex -1.15347 7.66698 0
      vertex -1.5015 6.14756 0
      vertex -1.13466 6.07443 0
    endloop
  endfacet
  facet normal 0 0 1
    outer loop
      vertex -1.15347 7.66698 0
      vertex -1.93318 6.19144 0
      vertex -1.5015 6.14756 0
    endloop
  endfacet
  facet normal 0 0 1
    outer loop
      vertex -2.21613 7.72166 0
      vertex -1.93318 6.19144 0
      vertex -1.15347 7.66698 0
    endloop
  endfacet
  facet normal 0 0 1
    outer loop
      vertex -2.21613 7.72166 0
      vertex -2.42973 6.20606 0
      vertex -1.93318 6.19144 0
    endloop
  endfacet
  facet normal -0 0 1
    outer loop
      vertex -2.58959 7.71752 0
      vertex -2.42973 6.20606 0
      vertex -2.21613 7.72166 0
    endloop
  endfacet
  facet normal 0 0 1
    outer loop
      vertex -2.58959 7.71752 0
      vertex -2.69705 6.20224 0
      vertex -2.42973 6.20606 0
    endloop
  endfacet
  facet normal -0 0 1
    outer loop
      vertex -2.97768 7.70512 0
      vertex -2.69705 6.20224 0
      vertex -2.58959 7.71752 0
    endloop
  endfacet
  facet normal 0 0 1
    outer loop
      vertex -2.97768 7.70512 0
      vertex -3.02096 6.1908 0
      vertex -2.69705 6.20224 0
    endloop
  endfacet
  facet normal -0 0 1
    outer loop
      vertex -3.38039 7.68445 0
      vertex -3.02096 6.1908 0
      vertex -2.97768 7.70512 0
    endloop
  endfacet
  facet normal 0 0 1
    outer loop
      vertex -3.38039 7.68445 0
      vertex -3.40145 6.17171 0
      vertex -3.02096 6.1908 0
    endloop
  endfacet
  facet normal -0 0 1
    outer loop
      vertex -3.79773 7.65551 0
      vertex -3.40145 6.17171 0
      vertex -3.38039 7.68445 0
    endloop
  endfacet
  facet normal 0 0 1
    outer loop
      vertex -3.79773 7.65551 0
      vertex -3.83853 6.14501 0
      vertex -3.40145 6.17171 0
    endloop
  endfacet
  facet normal -0 0 1
    outer loop
      vertex -4.19606 7.62149 0
      vertex -3.83853 6.14501 0
      vertex -3.79773 7.65551 0
    endloop
  endfacet
  facet normal 0 0 1
    outer loop
      vertex -4.19606 7.62149 0
      vertex -4.2648 6.11512 0
      vertex -3.83853 6.14501 0
    endloop
  endfacet
  facet normal -0 0 1
    outer loop
      vertex -4.54162 7.58557 0
      vertex -4.2648 6.11512 0
      vertex -4.19606 7.62149 0
    endloop
  endfacet
  facet normal 0 0 1
    outer loop
      vertex -4.54162 7.58557 0
      vertex -4.61287 6.08651 0
      vertex -4.2648 6.11512 0
    endloop
  endfacet
  facet normal -0 0 1
    outer loop
      vertex -4.83439 7.54776 0
      vertex -4.61287 6.08651 0
      vertex -4.54162 7.58557 0
    endloop
  endfacet
  facet normal 0 0 1
    outer loop
      vertex -4.83439 7.54776 0
      vertex -4.88273 6.05917 0
      vertex -4.61287 6.08651 0
    endloop
  endfacet
  facet normal -0 0 1
    outer loop
      vertex -5.07438 7.50806 0
      vertex -4.88273 6.05917 0
      vertex -4.83439 7.54776 0
    endloop
  endfacet
  facet normal 0 0 1
    outer loop
      vertex -4.88273 6.05917 0
      vertex -5.07438 7.50806 0
      vertex -5.07438 6.03311 0
    endloop
  endfacet
  facet normal -0 0 1
    outer loop
      vertex 0.204865 3.73421 0
      vertex 2.03577 3.63251 0
      vertex 2.03577 3.88676 0
    endloop
  endfacet
  facet normal 0 0 1
    outer loop
      vertex 2.03577 3.63251 0
      vertex 0.204865 3.63251 0
      vertex 2.03577 2.18816 0
    endloop
  endfacet
  facet normal -0 0 1
    outer loop
      vertex 0.189293 4.18116 0
      vertex 2.03577 3.88676 0
      vertex 1.97441 4.85375 0
    endloop
  endfacet
  facet normal 0 0 1
    outer loop
      vertex 0.189293 4.18116 0
      vertex 1.97441 4.85375 0
      vertex 1.79036 5.66943 0
    endloop
  endfacet
  facet normal 0 0 1
    outer loop
      vertex 0.189293 4.18116 0
      vertex 1.79036 5.66943 0
      vertex 1.48361 6.3338 0
    endloop
  endfacet
  facet normal 0 0 1
    outer loop
      vertex 0.189293 4.18116 0
      vertex 1.48361 6.3338 0
      vertex 1.05416 6.84686 0
    endloop
  endfacet
  facet normal 0 0 1
    outer loop
      vertex -0.366028 5.66434 0
      vertex 1.05416 6.84686 0
      vertex 0.481667 7.22958 0
    endloop
  endfacet
  facet normal 0 0 1
    outer loop
      vertex 2.03577 3.63251 0
      vertex 0.204865 3.73421 0
      vertex 0.204865 3.63251 0
    endloop
  endfacet
  facet normal 0 0 1
    outer loop
      vertex 2.03577 2.18816 0
      vertex 0.204865 3.63251 0
      vertex 0.204865 2.18816 0
    endloop
  endfacet
  facet normal 0 0 1
    outer loop
      vertex 2.03577 2.18816 0
      vertex 0.204865 2.18816 0
      vertex 2.03577 -7.37344 0
    endloop
  endfacet
  facet normal 0 0 1
    outer loop
      vertex 2.03577 -7.37344 0
      vertex 0.204865 2.18816 0
      vertex 0.204865 -7.37344 0
    endloop
  endfacet
  facet normal -0 0 1
    outer loop
      vertex 2.03577 3.63251 0
      vertex 4.70081 2.18816 0
      vertex 4.70081 3.63251 0
    endloop
  endfacet
  facet normal 0 0 1
    outer loop
      vertex 4.70081 2.18816 0
      vertex 2.03577 3.63251 0
      vertex 2.03577 2.18816 0
    endloop
  endfacet
  facet normal 0 -1 0
    outer loop
      vertex -4.78953 2.18816 -4
      vertex 0.204865 2.18816 0
      vertex -4.78953 2.18816 0
    endloop
  endfacet
  facet normal 0 -1 -0
    outer loop
      vertex 0.204865 2.18816 0
      vertex -4.78953 2.18816 -4
      vertex 0.204865 2.18816 -4
    endloop
  endfacet
  facet normal -1 0 0
    outer loop
      vertex -4.78953 2.18816 -4
      vertex -4.78953 3.63251 0
      vertex -4.78953 3.63251 -4
    endloop
  endfacet
  facet normal -1 -0 0
    outer loop
      vertex -4.78953 3.63251 0
      vertex -4.78953 2.18816 -4
      vertex -4.78953 2.18816 0
    endloop
  endfacet
  facet normal 0 1 -0
    outer loop
      vertex 0.204865 3.63251 -4
      vertex -4.78953 3.63251 0
      vertex 0.204865 3.63251 0
    endloop
  endfacet
  facet normal 0 1 0
    outer loop
      vertex -4.78953 3.63251 0
      vertex 0.204865 3.63251 -4
      vertex -4.78953 3.63251 -4
    endloop
  endfacet
  facet normal -1 0 0
    outer loop
      vertex 0.204865 3.63251 -4
      vertex 0.204865 3.73421 0
      vertex 0.204865 3.73421 -4
    endloop
  endfacet
  facet normal -1 -0 0
    outer loop
      vertex 0.204865 3.73421 0
      vertex 0.204865 3.63251 -4
      vertex 0.204865 3.63251 0
    endloop
  endfacet
  facet normal -0.999394 -0.0348195 0
    outer loop
      vertex 0.204865 3.73421 -4
      vertex 0.189293 4.18116 0
      vertex 0.189293 4.18116 -4
    endloop
  endfacet
  facet normal -0.999394 -0.0348195 0
    outer loop
      vertex 0.189293 4.18116 0
      vertex 0.204865 3.73421 -4
      vertex 0.204865 3.73421 0
    endloop
  endfacet
  facet normal -0.993073 -0.117503 0
    outer loop
      vertex 0.189293 4.18116 -4
      vertex 0.142578 4.57597 0
      vertex 0.142578 4.57597 -4
    endloop
  endfacet
  facet normal -0.993073 -0.117503 0
    outer loop
      vertex 0.142578 4.57597 0
      vertex 0.189293 4.18116 -4
      vertex 0.189293 4.18116 0
    endloop
  endfacet
  facet normal -0.975141 -0.221583 0
    outer loop
      vertex 0.142578 4.57597 -4
      vertex 0.0647125 4.91864 0
      vertex 0.0647125 4.91864 -4
    endloop
  endfacet
  facet normal -0.975141 -0.221583 0
    outer loop
      vertex 0.0647125 4.91864 0
      vertex 0.142578 4.57597 -4
      vertex 0.142578 4.57597 0
    endloop
  endfacet
  facet normal -0.936278 -0.35126 0
    outer loop
      vertex 0.0647125 4.91864 -4
      vertex -0.044281 5.20916 0
      vertex -0.044281 5.20916 -4
    endloop
  endfacet
  facet normal -0.936278 -0.35126 0
    outer loop
      vertex -0.044281 5.20916 0
      vertex 0.0647125 4.91864 -4
      vertex 0.0647125 4.91864 0
    endloop
  endfacet
  facet normal -0.864925 -0.501901 0
    outer loop
      vertex -0.044281 5.20916 -4
      vertex -0.187042 5.45518 0
      vertex -0.187042 5.45518 -4
    endloop
  endfacet
  facet normal -0.864925 -0.501901 0
    outer loop
      vertex -0.187042 5.45518 0
      vertex -0.044281 5.20916 -4
      vertex -0.044281 5.20916 0
    endloop
  endfacet
  facet normal -0.759784 -0.650176 0
    outer loop
      vertex -0.187042 5.45518 -4
      vertex -0.366028 5.66434 0
      vertex -0.366028 5.66434 -4
    endloop
  endfacet
  facet normal -0.759784 -0.650176 0
    outer loop
      vertex -0.366028 5.66434 0
      vertex -0.187042 5.45518 -4
      vertex -0.187042 5.45518 0
    endloop
  endfacet
  facet normal -0.62493 -0.780681 0
    outer loop
      vertex -0.581245 5.83662 -4
      vertex -0.366028 5.66434 0
      vertex -0.581245 5.83662 0
    endloop
  endfacet
  facet normal -0.62493 -0.780681 -0
    outer loop
      vertex -0.366028 5.66434 0
      vertex -0.581245 5.83662 -4
      vertex -0.366028 5.66434 -4
    endloop
  endfacet
  facet normal -0.474241 -0.880395 0
    outer loop
      vertex -0.83268 5.97206 -4
      vertex -0.581245 5.83662 0
      vertex -0.83268 5.97206 0
    endloop
  endfacet
  facet normal -0.474241 -0.880395 -0
    outer loop
      vertex -0.581245 5.83662 0
      vertex -0.83268 5.97206 -4
      vertex -0.581245 5.83662 -4
    endloop
  endfacet
  facet normal -0.32105 -0.947062 0
    outer loop
      vertex -1.13466 6.07443 -4
      vertex -0.83268 5.97206 0
      vertex -1.13466 6.07443 0
    endloop
  endfacet
  facet normal -0.32105 -0.947062 -0
    outer loop
      vertex -0.83268 5.97206 0
      vertex -1.13466 6.07443 -4
      vertex -0.83268 5.97206 -4
    endloop
  endfacet
  facet normal -0.195504 -0.980703 0
    outer loop
      vertex -1.5015 6.14756 -4
      vertex -1.13466 6.07443 0
      vertex -1.5015 6.14756 0
    endloop
  endfacet
  facet normal -0.195504 -0.980703 -0
    outer loop
      vertex -1.13466 6.07443 0
      vertex -1.5015 6.14756 -4
      vertex -1.13466 6.07443 -4
    endloop
  endfacet
  facet normal -0.101128 -0.994873 0
    outer loop
      vertex -1.93318 6.19144 -4
      vertex -1.5015 6.14756 0
      vertex -1.93318 6.19144 0
    endloop
  endfacet
  facet normal -0.101128 -0.994873 -0
    outer loop
      vertex -1.5015 6.14756 0
      vertex -1.93318 6.19144 -4
      vertex -1.5015 6.14756 -4
    endloop
  endfacet
  facet normal -0.0294304 -0.999567 0
    outer loop
      vertex -2.42973 6.20606 -4
      vertex -1.93318 6.19144 0
      vertex -2.42973 6.20606 0
    endloop
  endfacet
  facet normal -0.0294304 -0.999567 -0
    outer loop
      vertex -1.93318 6.19144 0
      vertex -2.42973 6.20606 -4
      vertex -1.93318 6.19144 -4
    endloop
  endfacet
  facet normal 0.0142885 -0.999898 0
    outer loop
      vertex -2.69705 6.20224 -4
      vertex -2.42973 6.20606 0
      vertex -2.69705 6.20224 0
    endloop
  endfacet
  facet normal 0.0142885 -0.999898 0
    outer loop
      vertex -2.42973 6.20606 0
      vertex -2.69705 6.20224 -4
      vertex -2.42973 6.20606 -4
    endloop
  endfacet
  facet normal 0.0352964 -0.999377 0
    outer loop
      vertex -3.02096 6.1908 -4
      vertex -2.69705 6.20224 0
      vertex -3.02096 6.1908 0
    endloop
  endfacet
  facet normal 0.0352964 -0.999377 0
    outer loop
      vertex -2.69705 6.20224 0
      vertex -3.02096 6.1908 -4
      vertex -2.69705 6.20224 -4
    endloop
  endfacet
  facet normal 0.0501091 -0.998744 0
    outer loop
      vertex -3.40145 6.17171 -4
      vertex -3.02096 6.1908 0
      vertex -3.40145 6.17171 0
    endloop
  endfacet
  facet normal 0.0501091 -0.998744 0
    outer loop
      vertex -3.02096 6.1908 0
      vertex -3.40145 6.17171 -4
      vertex -3.02096 6.1908 -4
    endloop
  endfacet
  facet normal 0.0609736 -0.998139 0
    outer loop
      vertex -3.83853 6.14501 -4
      vertex -3.40145 6.17171 0
      vertex -3.83853 6.14501 0
    endloop
  endfacet
  facet normal 0.0609736 -0.998139 0
    outer loop
      vertex -3.40145 6.17171 0
      vertex -3.83853 6.14501 -4
      vertex -3.40145 6.17171 -4
    endloop
  endfacet
  facet normal 0.0699481 -0.997551 0
    outer loop
      vertex -4.2648 6.11512 -4
      vertex -3.83853 6.14501 0
      vertex -4.2648 6.11512 0
    endloop
  endfacet
  facet normal 0.0699481 -0.997551 0
    outer loop
      vertex -3.83853 6.14501 0
      vertex -4.2648 6.11512 -4
      vertex -3.83853 6.14501 -4
    endloop
  endfacet
  facet normal 0.0819198 -0.996639 0
    outer loop
      vertex -4.61287 6.08651 -4
      vertex -4.2648 6.11512 0
      vertex -4.61287 6.08651 0
    endloop
  endfacet
  facet normal 0.0819198 -0.996639 0
    outer loop
      vertex -4.2648 6.11512 0
      vertex -4.61287 6.08651 -4
      vertex -4.2648 6.11512 -4
    endloop
  endfacet
  facet normal 0.100796 -0.994907 0
    outer loop
      vertex -4.88273 6.05917 -4
      vertex -4.61287 6.08651 0
      vertex -4.88273 6.05917 0
    endloop
  endfacet
  facet normal 0.100796 -0.994907 0
    outer loop
      vertex -4.61287 6.08651 0
      vertex -4.88273 6.05917 -4
      vertex -4.61287 6.08651 -4
    endloop
  endfacet
  facet normal 0.134737 -0.990881 0
    outer loop
      vertex -5.07438 6.03311 -4
      vertex -4.88273 6.05917 0
      vertex -5.07438 6.03311 0
    endloop
  endfacet
  facet normal 0.134737 -0.990881 0
    outer loop
      vertex -4.88273 6.05917 0
      vertex -5.07438 6.03311 -4
      vertex -4.88273 6.05917 -4
    endloop
  endfacet
  facet normal -1 0 0
    outer loop
      vertex -5.07438 6.03311 -4
      vertex -5.07438 7.50806 0
      vertex -5.07438 7.50806 -4
    endloop
  endfacet
  facet normal -1 -0 0
    outer loop
      vertex -5.07438 7.50806 0
      vertex -5.07438 6.03311 -4
      vertex -5.07438 6.03311 0
    endloop
  endfacet
  facet normal -0.163206 0.986592 0
    outer loop
      vertex -4.83439 7.54776 -4
      vertex -5.07438 7.50806 0
      vertex -4.83439 7.54776 0
    endloop
  endfacet
  facet normal -0.163206 0.986592 0
    outer loop
      vertex -5.07438 7.50806 0
      vertex -4.83439 7.54776 -4
      vertex -5.07438 7.50806 -4
    endloop
  endfacet
  facet normal -0.128082 0.991764 0
    outer loop
      vertex -4.54162 7.58557 -4
      vertex -4.83439 7.54776 0
      vertex -4.54162 7.58557 0
    endloop
  endfacet
  facet normal -0.128082 0.991764 0
    outer loop
      vertex -4.83439 7.54776 0
      vertex -4.54162 7.58557 -4
      vertex -4.83439 7.54776 -4
    endloop
  endfacet
  facet normal -0.10339 0.994641 0
    outer loop
      vertex -4.19606 7.62149 -4
      vertex -4.54162 7.58557 0
      vertex -4.19606 7.62149 0
    endloop
  endfacet
  facet normal -0.10339 0.994641 0
    outer loop
      vertex -4.54162 7.58557 0
      vertex -4.19606 7.62149 -4
      vertex -4.54162 7.58557 -4
    endloop
  endfacet
  facet normal -0.0850968 0.996373 0
    outer loop
      vertex -3.79773 7.65551 -4
      vertex -4.19606 7.62149 0
      vertex -3.79773 7.65551 0
    endloop
  endfacet
  facet normal -0.0850968 0.996373 0
    outer loop
      vertex -4.19606 7.62149 0
      vertex -3.79773 7.65551 -4
      vertex -4.19606 7.62149 -4
    endloop
  endfacet
  facet normal -0.0691778 0.997604 0
    outer loop
      vertex -3.38039 7.68445 -4
      vertex -3.79773 7.65551 0
      vertex -3.38039 7.68445 0
    endloop
  endfacet
  facet normal -0.0691778 0.997604 0
    outer loop
      vertex -3.79773 7.65551 0
      vertex -3.38039 7.68445 -4
      vertex -3.79773 7.65551 -4
    endloop
  endfacet
  facet normal -0.0512598 0.998685 0
    outer loop
      vertex -2.97768 7.70512 -4
      vertex -3.38039 7.68445 0
      vertex -2.97768 7.70512 0
    endloop
  endfacet
  facet normal -0.0512598 0.998685 0
    outer loop
      vertex -3.38039 7.68445 0
      vertex -2.97768 7.70512 -4
      vertex -3.38039 7.68445 -4
    endloop
  endfacet
  facet normal -0.0319351 0.99949 0
    outer loop
      vertex -2.58959 7.71752 -4
      vertex -2.97768 7.70512 0
      vertex -2.58959 7.71752 0
    endloop
  endfacet
  facet normal -0.0319351 0.99949 0
    outer loop
      vertex -2.97768 7.70512 0
      vertex -2.58959 7.71752 -4
      vertex -2.97768 7.70512 -4
    endloop
  endfacet
  facet normal -0.0110848 0.999939 0
    outer loop
      vertex -2.21613 7.72166 -4
      vertex -2.58959 7.71752 0
      vertex -2.21613 7.72166 0
    endloop
  endfacet
  facet normal -0.0110848 0.999939 0
    outer loop
      vertex -2.58959 7.71752 0
      vertex -2.21613 7.72166 -4
      vertex -2.58959 7.71752 -4
    endloop
  endfacet
  facet normal 0.0513878 0.998679 -0
    outer loop
      vertex -1.15347 7.66698 -4
      vertex -2.21613 7.72166 0
      vertex -1.15347 7.66698 0
    endloop
  endfacet
  facet normal 0.0513878 0.998679 0
    outer loop
      vertex -2.21613 7.72166 0
      vertex -1.15347 7.66698 -4
      vertex -2.21613 7.72166 -4
    endloop
  endfacet
  facet normal 0.179433 0.98377 -0
    outer loop
      vertex -0.254204 7.50296 -4
      vertex -1.15347 7.66698 0
      vertex -0.254204 7.50296 0
    endloop
  endfacet
  facet normal 0.179433 0.98377 0
    outer loop
      vertex -1.15347 7.66698 0
      vertex -0.254204 7.50296 -4
      vertex -1.15347 7.66698 -4
    endloop
  endfacet
  facet normal 0.34825 0.937402 -0
    outer loop
      vertex 0.481667 7.22958 -4
      vertex -0.254204 7.50296 0
      vertex 0.481667 7.22958 0
    endloop
  endfacet
  facet normal 0.34825 0.937402 0
    outer loop
      vertex -0.254204 7.50296 0
      vertex 0.481667 7.22958 -4
      vertex -0.254204 7.50296 -4
    endloop
  endfacet
  facet normal 0.555763 0.831341 -0
    outer loop
      vertex 1.05416 6.84686 -4
      vertex 0.481667 7.22958 0
      vertex 1.05416 6.84686 0
    endloop
  endfacet
  facet normal 0.555763 0.831341 0
    outer loop
      vertex 0.481667 7.22958 0
      vertex 1.05416 6.84686 -4
      vertex 0.481667 7.22958 -4
    endloop
  endfacet
  facet normal 0.766823 0.641859 0
    outer loop
      vertex 1.48361 6.3338 0
      vertex 1.05416 6.84686 -4
      vertex 1.05416 6.84686 0
    endloop
  endfacet
  facet normal 0.766823 0.641859 0
    outer loop
      vertex 1.05416 6.84686 -4
      vertex 1.48361 6.3338 0
      vertex 1.48361 6.3338 -4
    endloop
  endfacet
  facet normal 0.907898 0.419191 0
    outer loop
      vertex 1.79036 5.66943 0
      vertex 1.48361 6.3338 -4
      vertex 1.48361 6.3338 0
    endloop
  endfacet
  facet normal 0.907898 0.419191 0
    outer loop
      vertex 1.48361 6.3338 -4
      vertex 1.79036 5.66943 0
      vertex 1.79036 5.66943 -4
    endloop
  endfacet
  facet normal 0.975476 0.220106 0
    outer loop
      vertex 1.97441 4.85375 0
      vertex 1.79036 5.66943 -4
      vertex 1.79036 5.66943 0
    endloop
  endfacet
  facet normal 0.975476 0.220106 0
    outer loop
      vertex 1.79036 5.66943 -4
      vertex 1.97441 4.85375 0
      vertex 1.97441 4.85375 -4
    endloop
  endfacet
  facet normal 0.997993 0.0633273 0
    outer loop
      vertex 2.03577 3.88676 0
      vertex 1.97441 4.85375 -4
      vertex 1.97441 4.85375 0
    endloop
  endfacet
  facet normal 0.997993 0.0633273 0
    outer loop
      vertex 1.97441 4.85375 -4
      vertex 2.03577 3.88676 0
      vertex 2.03577 3.88676 -4
    endloop
  endfacet
  facet normal 1 -0 0
    outer loop
      vertex 2.03577 3.63251 0
      vertex 2.03577 3.88676 -4
      vertex 2.03577 3.88676 0
    endloop
  endfacet
  facet normal 1 0 0
    outer loop
      vertex 2.03577 3.88676 -4
      vertex 2.03577 3.63251 0
      vertex 2.03577 3.63251 -4
    endloop
  endfacet
  facet normal 0 1 -0
    outer loop
      vertex 4.70081 3.63251 -4
      vertex 2.03577 3.63251 0
      vertex 4.70081 3.63251 0
    endloop
  endfacet
  facet normal 0 1 0
    outer loop
      vertex 2.03577 3.63251 0
      vertex 4.70081 3.63251 -4
      vertex 2.03577 3.63251 -4
    endloop
  endfacet
  facet normal 1 -0 0
    outer loop
      vertex 4.70081 2.18816 0
      vertex 4.70081 3.63251 -4
      vertex 4.70081 3.63251 0
    endloop
  endfacet
  facet normal 1 0 0
    outer loop
      vertex 4.70081 3.63251 -4
      vertex 4.70081 2.18816 0
      vertex 4.70081 2.18816 -4
    endloop
  endfacet
  facet normal 0 -1 0
    outer loop
      vertex 2.03577 2.18816 -4
      vertex 4.70081 2.18816 0
      vertex 2.03577 2.18816 0
    endloop
  endfacet
  facet normal 0 -1 -0
    outer loop
      vertex 4.70081 2.18816 0
      vertex 2.03577 2.18816 -4
      vertex 4.70081 2.18816 -4
    endloop
  endfacet
  facet normal 1 -0 0
    outer loop
      vertex 2.03577 -7.37344 0
      vertex 2.03577 2.18816 -4
      vertex 2.03577 2.18816 0
    endloop
  endfacet
  facet normal 1 0 0
    outer loop
      vertex 2.03577 2.18816 -4
      vertex 2.03577 -7.37344 0
      vertex 2.03577 -7.37344 -4
    endloop
  endfacet
  facet normal 0 -1 0
    outer loop
      vertex 0.204865 -7.37344 -4
      vertex 2.03577 -7.37344 0
      vertex 0.204865 -7.37344 0
    endloop
  endfacet
  facet normal 0 -1 -0
    outer loop
      vertex 2.03577 -7.37344 0
      vertex 0.204865 -7.37344 -4
      vertex 2.03577 -7.37344 -4
    endloop
  endfacet
  facet normal -1 0 0
    outer loop
      vertex 0.204865 -7.37344 -4
      vertex 0.204865 2.18816 0
      vertex 0.204865 2.18816 -4
    endloop
  endfacet
  facet normal -1 -0 0
    outer loop
      vertex 0.204865 2.18816 0
      vertex 0.204865 -7.37344 -4
      vertex 0.204865 -7.37344 0
    endloop
  endfacet
  facet normal -1 0 0
    outer loop
      vertex -6 -10 -14
      vertex -6 10 -4
      vertex -6 10 -14
    endloop
  endfacet
  facet normal -1 -0 0
    outer loop
      vertex -6 10 -4
      vertex -6 -10 -14
      vertex -6 -10 -4
    endloop
  endfacet
  facet normal 0 0 -1
    outer loop
      vertex -6 -10 -14
      vertex 6 10 -14
      vertex 6 -10 -14
    endloop
  endfacet
  facet normal -0 0 -1
    outer loop
      vertex 6 10 -14
      vertex -6 -10 -14
      vertex -6 10 -14
    endloop
  endfacet
  facet normal 0 0 1
    outer loop
      vertex -1.93318 6.19144 -4
      vertex 0.204865 3.73421 -4
      vertex 0.189293 4.18116 -4
    endloop
  endfacet
  facet normal 0 0 1
    outer loop
      vertex -1.5015 6.14756 -4
      vertex 0.189293 4.18116 -4
      vertex 0.142578 4.57597 -4
    endloop
  endfacet
  facet normal 0 0 1
    outer loop
      vertex -1.13466 6.07443 -4
      vertex 0.142578 4.57597 -4
      vertex 0.0647125 4.91864 -4
    endloop
  endfacet
  facet normal 0 0 1
    outer loop
      vertex -1.13466 6.07443 -4
      vertex 0.0647125 4.91864 -4
      vertex -0.044281 5.20916 -4
    endloop
  endfacet
  facet normal 0 0 1
    outer loop
      vertex -0.83268 5.97206 -4
      vertex -0.044281 5.20916 -4
      vertex -0.187042 5.45518 -4
    endloop
  endfacet
  facet normal 0 0 1
    outer loop
      vertex -0.83268 5.97206 -4
      vertex -0.187042 5.45518 -4
      vertex -0.366028 5.66434 -4
    endloop
  endfacet
  facet normal 0 0 1
    outer loop
      vertex -0.83268 5.97206 -4
      vertex -0.366028 5.66434 -4
      vertex -0.581245 5.83662 -4
    endloop
  endfacet
  facet normal 0 0 1
    outer loop
      vertex -0.044281 5.20916 -4
      vertex -0.83268 5.97206 -4
      vertex -1.13466 6.07443 -4
    endloop
  endfacet
  facet normal 0 0 1
    outer loop
      vertex 0.142578 4.57597 -4
      vertex -1.13466 6.07443 -4
      vertex -1.5015 6.14756 -4
    endloop
  endfacet
  facet normal 0 0 1
    outer loop
      vertex 0.189293 4.18116 -4
      vertex -1.5015 6.14756 -4
      vertex -1.93318 6.19144 -4
    endloop
  endfacet
  facet normal 0 0 1
    outer loop
      vertex -2.42973 6.20606 -4
      vertex 0.204865 3.73421 -4
      vertex -1.93318 6.19144 -4
    endloop
  endfacet
  facet normal 0 0 1
    outer loop
      vertex -4.78953 3.63251 -4
      vertex 0.204865 3.73421 -4
      vertex -2.42973 6.20606 -4
    endloop
  endfacet
  facet normal 0 0 1
    outer loop
      vertex -4.78953 3.63251 -4
      vertex -2.42973 6.20606 -4
      vertex -2.69705 6.20224 -4
    endloop
  endfacet
  facet normal 0 0 1
    outer loop
      vertex -4.78953 3.63251 -4
      vertex -2.69705 6.20224 -4
      vertex -3.02096 6.1908 -4
    endloop
  endfacet
  facet normal 0 0 1
    outer loop
      vertex -4.78953 3.63251 -4
      vertex -3.02096 6.1908 -4
      vertex -3.40145 6.17171 -4
    endloop
  endfacet
  facet normal 0 0 1
    outer loop
      vertex -4.78953 3.63251 -4
      vertex -3.40145 6.17171 -4
      vertex -3.83853 6.14501 -4
    endloop
  endfacet
  facet normal 0 0 1
    outer loop
      vertex -4.78953 3.63251 -4
      vertex -3.83853 6.14501 -4
      vertex -4.2648 6.11512 -4
    endloop
  endfacet
  facet normal 0 0 1
    outer loop
      vertex -4.78953 3.63251 -4
      vertex -4.2648 6.11512 -4
      vertex -4.61287 6.08651 -4
    endloop
  endfacet
  facet normal 0 0 1
    outer loop
      vertex 0.204865 3.73421 -4
      vertex -4.78953 3.63251 -4
      vertex 0.204865 3.63251 -4
    endloop
  endfacet
  facet normal -0 0 1
    outer loop
      vertex -5.07438 6.03311 -4
      vertex -4.78953 3.63251 -4
      vertex -4.88273 6.05917 -4
    endloop
  endfacet
  facet normal -0 0 1
    outer loop
      vertex -4.88273 6.05917 -4
      vertex -4.78953 3.63251 -4
      vertex -4.61287 6.08651 -4
    endloop
  endfacet
  facet normal 0 0 1
    outer loop
      vertex 0.204865 2.18816 -4
      vertex -4.78953 2.18816 -4
      vertex 0.204865 -7.37344 -4
    endloop
  endfacet
  facet normal 0 0 1
    outer loop
      vertex 4.70081 2.18816 -4
      vertex 6 10 -4
      vertex 4.70081 3.63251 -4
    endloop
  endfacet
  facet normal -0 0 1
    outer loop
      vertex 1.79036 5.66943 -4
      vertex 4.70081 3.63251 -4
      vertex 6 10 -4
    endloop
  endfacet
  facet normal 0 0 1
    outer loop
      vertex 4.70081 3.63251 -4
      vertex 1.97441 4.85375 -4
      vertex 2.03577 3.88676 -4
    endloop
  endfacet
  facet normal 0 0 1
    outer loop
      vertex 4.70081 3.63251 -4
      vertex 1.79036 5.66943 -4
      vertex 1.97441 4.85375 -4
    endloop
  endfacet
  facet normal 0 0 1
    outer loop
      vertex 6 10 -4
      vertex 1.48361 6.3338 -4
      vertex 1.79036 5.66943 -4
    endloop
  endfacet
  facet normal 0 0 1
    outer loop
      vertex 6 10 -4
      vertex 1.05416 6.84686 -4
      vertex 1.48361 6.3338 -4
    endloop
  endfacet
  facet normal 0 0 1
    outer loop
      vertex 6 10 -4
      vertex 0.481667 7.22958 -4
      vertex 1.05416 6.84686 -4
    endloop
  endfacet
  facet normal 0 0 1
    outer loop
      vertex 6 10 -4
      vertex -0.254204 7.50296 -4
      vertex 0.481667 7.22958 -4
    endloop
  endfacet
  facet normal 0 0 1
    outer loop
      vertex 6 10 -4
      vertex -1.15347 7.66698 -4
      vertex -0.254204 7.50296 -4
    endloop
  endfacet
  facet normal -0 0 1
    outer loop
      vertex -6 10 -4
      vertex -1.15347 7.66698 -4
      vertex 6 10 -4
    endloop
  endfacet
  facet normal 0 0 1
    outer loop
      vertex -1.15347 7.66698 -4
      vertex -6 10 -4
      vertex -2.21613 7.72166 -4
    endloop
  endfacet
  facet normal 0 0 1
    outer loop
      vertex -2.21613 7.72166 -4
      vertex -6 10 -4
      vertex -2.58959 7.71752 -4
    endloop
  endfacet
  facet normal 0 0 1
    outer loop
      vertex -2.58959 7.71752 -4
      vertex -6 10 -4
      vertex -2.97768 7.70512 -4
    endloop
  endfacet
  facet normal 0 0 1
    outer loop
      vertex -2.97768 7.70512 -4
      vertex -6 10 -4
      vertex -3.38039 7.68445 -4
    endloop
  endfacet
  facet normal 0 0 1
    outer loop
      vertex -3.38039 7.68445 -4
      vertex -6 10 -4
      vertex -3.79773 7.65551 -4
    endloop
  endfacet
  facet normal 0 0 1
    outer loop
      vertex -3.79773 7.65551 -4
      vertex -6 10 -4
      vertex -4.19606 7.62149 -4
    endloop
  endfacet
  facet normal 0 0 1
    outer loop
      vertex -4.19606 7.62149 -4
      vertex -6 10 -4
      vertex -4.54162 7.58557 -4
    endloop
  endfacet
  facet normal 0 0 1
    outer loop
      vertex -4.54162 7.58557 -4
      vertex -6 10 -4
      vertex -4.83439 7.54776 -4
    endloop
  endfacet
  facet normal 0 0 1
    outer loop
      vertex -5.07438 7.50806 -4
      vertex -6 10 -4
      vertex -5.07438 6.03311 -4
    endloop
  endfacet
  facet normal 0 0 1
    outer loop
      vertex -4.83439 7.54776 -4
      vertex -6 10 -4
      vertex -5.07438 7.50806 -4
    endloop
  endfacet
  facet normal 0 0 1
    outer loop
      vertex 6 10 -4
      vertex 4.70081 2.18816 -4
      vertex 6 -10 -4
    endloop
  endfacet
  facet normal 0 0 1
    outer loop
      vertex 2.03577 -7.37344 -4
      vertex 4.70081 2.18816 -4
      vertex 2.03577 2.18816 -4
    endloop
  endfacet
  facet normal 0 0 1
    outer loop
      vertex 4.70081 2.18816 -4
      vertex 2.03577 -7.37344 -4
      vertex 6 -10 -4
    endloop
  endfacet
  facet normal -0 0 1
    outer loop
      vertex 0.204865 -7.37344 -4
      vertex 6 -10 -4
      vertex 2.03577 -7.37344 -4
    endloop
  endfacet
  facet normal 0 0 1
    outer loop
      vertex -4.78953 3.63251 -4
      vertex -5.07438 6.03311 -4
      vertex -4.78953 2.18816 -4
    endloop
  endfacet
  facet normal 0 0 1
    outer loop
      vertex -6 10 -4
      vertex -4.78953 2.18816 -4
      vertex -5.07438 6.03311 -4
    endloop
  endfacet
  facet normal 0 0 1
    outer loop
      vertex 0.204865 -7.37344 -4
      vertex -6 -10 -4
      vertex 6 -10 -4
    endloop
  endfacet
  facet normal 0 0 1
    outer loop
      vertex -4.78953 2.18816 -4
      vertex -6 -10 -4
      vertex 0.204865 -7.37344 -4
    endloop
  endfacet
  facet normal 0 0 1
    outer loop
      vertex -6 -10 -4
      vertex -4.78953 2.18816 -4
      vertex -6 10 -4
    endloop
  endfacet
  facet normal 0 0 1
    outer loop
      vertex 4.70081 3.63251 -4
      vertex 2.03577 3.88676 -4
      vertex 2.03577 3.63251 -4
    endloop
  endfacet
  facet normal 1 -0 0
    outer loop
      vertex 6 -10 -4
      vertex 6 10 -14
      vertex 6 10 -4
    endloop
  endfacet
  facet normal 1 0 0
    outer loop
      vertex 6 10 -14
      vertex 6 -10 -4
      vertex 6 -10 -14
    endloop
  endfacet
  facet normal 0 1 -0
    outer loop
      vertex 6 10 -14
      vertex -6 10 -4
      vertex 6 10 -4
    endloop
  endfacet
  facet normal 0 1 0
    outer loop
      vertex -6 10 -4
      vertex 6 10 -14
      vertex -6 10 -14
    endloop
  endfacet
  facet normal 0 -1 0
    outer loop
      vertex -6 -10 -14
      vertex 6 -10 -4
      vertex -6 -10 -4
    endloop
  endfacet
  facet normal 0 -1 -0
    outer loop
      vertex 6 -10 -4
      vertex -6 -10 -14
      vertex 6 -10 -14
    endloop
  endfacet
endsolid OpenSCAD_Model
