solid OpenSCAD_Model
  facet normal 0 0 1
    outer loop
      vertex 4.64996 2.23278 0
      vertex 2.71924 3.30627 0
      vertex 2.75801 2.25318 0
    endloop
  endfacet
  facet normal 0 0 1
    outer loop
      vertex 3.65321 6.46938 0
      vertex 2.60291 4.19726 0
      vertex 2.71924 3.30627 0
    endloop
  endfacet
  facet normal 0 0 1
    outer loop
      vertex 3.65321 6.46938 0
      vertex 2.40903 4.92612 0
      vertex 2.60291 4.19726 0
    endloop
  endfacet
  facet normal 0 0 1
    outer loop
      vertex 1.77902 5.91787 0
      vertex 3.08737 7.06348 0
      vertex 2.38676 7.48785 0
    endloop
  endfacet
  facet normal 0 0 1
    outer loop
      vertex 3.65321 6.46938 0
      vertex 2.13761 5.49288 0
      vertex 2.40903 4.92612 0
    endloop
  endfacet
  facet normal 0 0 1
    outer loop
      vertex 3.08737 7.06348 0
      vertex 1.77902 5.91787 0
      vertex 2.13761 5.49288 0
    endloop
  endfacet
  facet normal 0 0 1
    outer loop
      vertex 1.32379 6.22144 0
      vertex 2.38676 7.48785 0
      vertex 1.55138 7.74246 0
    endloop
  endfacet
  facet normal 0 0 1
    outer loop
      vertex 2.38676 7.48785 0
      vertex 1.32379 6.22144 0
      vertex 1.77902 5.91787 0
    endloop
  endfacet
  facet normal 0 0 1
    outer loop
      vertex 1.55138 7.74246 0
      vertex 0.771919 6.40357 0
      vertex 1.32379 6.22144 0
    endloop
  endfacet
  facet normal 0 0 1
    outer loop
      vertex 0.581215 7.82733 0
      vertex 0.771919 6.40357 0
      vertex 1.55138 7.74246 0
    endloop
  endfacet
  facet normal 0 0 1
    outer loop
      vertex 0.581215 7.82733 0
      vertex 0.123413 6.46429 0
      vertex 0.771919 6.40357 0
    endloop
  endfacet
  facet normal -0 0 1
    outer loop
      vertex 0.0252457 7.79396 0
      vertex 0.123413 6.46429 0
      vertex 0.581215 7.82733 0
    endloop
  endfacet
  facet normal -0 0 1
    outer loop
      vertex -0.493195 7.69383 0
      vertex 0.123413 6.46429 0
      vertex 0.0252457 7.79396 0
    endloop
  endfacet
  facet normal 0 0 1
    outer loop
      vertex -0.493195 7.69383 0
      vertex -0.50721 6.39404 0
      vertex 0.123413 6.46429 0
    endloop
  endfacet
  facet normal -0 0 1
    outer loop
      vertex -0.974121 7.52696 0
      vertex -0.50721 6.39404 0
      vertex -0.493195 7.69383 0
    endloop
  endfacet
  facet normal -0 0 1
    outer loop
      vertex -1.41753 7.29333 0
      vertex -0.50721 6.39404 0
      vertex -0.974121 7.52696 0
    endloop
  endfacet
  facet normal 0 0 1
    outer loop
      vertex -0.50721 6.39404 0
      vertex -1.41753 7.29333 0
      vertex -1.06664 6.1833 0
    endloop
  endfacet
  facet normal -0 0 1
    outer loop
      vertex -1.81776 6.99804 0
      vertex -1.06664 6.1833 0
      vertex -1.41753 7.29333 0
    endloop
  endfacet
  facet normal -0 0 1
    outer loop
      vertex -2.16903 6.64616 0
      vertex -1.06664 6.1833 0
      vertex -1.81776 6.99804 0
    endloop
  endfacet
  facet normal 0 0 1
    outer loop
      vertex -1.06664 6.1833 0
      vertex -2.16903 6.64616 0
      vertex -1.55489 5.83206 0
    endloop
  endfacet
  facet normal -0 0 1
    outer loop
      vertex -2.47131 6.23769 0
      vertex -1.55489 5.83206 0
      vertex -2.16903 6.64616 0
    endloop
  endfacet
  facet normal 0 0 1
    outer loop
      vertex -1.55489 5.83206 0
      vertex -2.47131 6.23769 0
      vertex -1.97193 5.34033 0
    endloop
  endfacet
  facet normal -0 0 1
    outer loop
      vertex -2.72463 5.77264 0
      vertex -1.97193 5.34033 0
      vertex -2.47131 6.23769 0
    endloop
  endfacet
  facet normal 0 0 1
    outer loop
      vertex -1.97193 5.34033 0
      vertex -2.72463 5.77264 0
      vertex -2.30569 4.72591 0
    endloop
  endfacet
  facet normal -0 0 1
    outer loop
      vertex -2.75523 5.77264 0
      vertex -2.30569 4.72591 0
      vertex -2.72463 5.77264 0
    endloop
  endfacet
  facet normal -0 0 1
    outer loop
      vertex -4.55568 5.37589 0
      vertex -2.30569 4.72591 0
      vertex -2.75523 5.77264 0
    endloop
  endfacet
  facet normal 0 0 1
    outer loop
      vertex -2.30569 4.72591 0
      vertex -4.55568 5.37589 0
      vertex -2.54411 4.00657 0
    endloop
  endfacet
  facet normal 0 0 1
    outer loop
      vertex -2.64581 1.044 0
      vertex -4.55568 -3.02606 0
      vertex -2.73483 -1.10351 0
    endloop
  endfacet
  facet normal 0 0 1
    outer loop
      vertex -2.68715 3.18233 0
      vertex -4.55568 5.37589 0
      vertex -2.73483 2.25318 0
    endloop
  endfacet
  facet normal 0 0 1
    outer loop
      vertex -2.54411 4.00657 0
      vertex -4.55568 5.37589 0
      vertex -2.68715 3.18233 0
    endloop
  endfacet
  facet normal -0 0 1
    outer loop
      vertex 2.71924 3.30627 0
      vertex 4.64996 2.23278 0
      vertex 4.58767 3.57706 0
    endloop
  endfacet
  facet normal 0 0 1
    outer loop
      vertex 2.74181 1.52555 0
      vertex 4.64996 2.23278 0
      vertex 2.75801 2.25318 0
    endloop
  endfacet
  facet normal 0 0 1
    outer loop
      vertex 2.71924 3.30627 0
      vertex 4.58767 3.57706 0
      vertex 4.40077 4.73126 0
    endloop
  endfacet
  facet normal 0 0 1
    outer loop
      vertex 4.64996 2.23278 0
      vertex 2.74181 1.52555 0
      vertex 4.59179 0.913292 0
    endloop
  endfacet
  facet normal 0 0 1
    outer loop
      vertex 2.71924 3.30627 0
      vertex 4.40077 4.73126 0
      vertex 4.08929 5.69537 0
    endloop
  endfacet
  facet normal 0 0 1
    outer loop
      vertex 2.69318 0.878662 0
      vertex 4.59179 0.913292 0
      vertex 2.74181 1.52555 0
    endloop
  endfacet
  facet normal 0 0 1
    outer loop
      vertex 2.71924 3.30627 0
      vertex 4.08929 5.69537 0
      vertex 3.65321 6.46938 0
    endloop
  endfacet
  facet normal 0 0 1
    outer loop
      vertex 4.59179 0.913292 0
      vertex 2.69318 0.878662 0
      vertex 4.41727 -0.217384 0
    endloop
  endfacet
  facet normal 0 0 1
    outer loop
      vertex 2.13761 5.49288 0
      vertex 3.65321 6.46938 0
      vertex 3.08737 7.06348 0
    endloop
  endfacet
  facet normal -0 0 1
    outer loop
      vertex 2.61213 0.3125 0
      vertex 4.41727 -0.217384 0
      vertex 2.69318 0.878662 0
    endloop
  endfacet
  facet normal -0 0 1
    outer loop
      vertex 2.49866 -0.172905 0
      vertex 4.41727 -0.217384 0
      vertex 2.61213 0.3125 0
    endloop
  endfacet
  facet normal 0 0 1
    outer loop
      vertex 4.41727 -0.217384 0
      vertex 2.49866 -0.172905 0
      vertex 4.12642 -1.15926 0
    endloop
  endfacet
  facet normal -0 0 1
    outer loop
      vertex 2.3508 -0.5877 0
      vertex 4.12642 -1.15926 0
      vertex 2.49866 -0.172905 0
    endloop
  endfacet
  facet normal 0 0 1
    outer loop
      vertex 4.12642 -1.15926 0
      vertex 2.3508 -0.5877 0
      vertex 3.71922 -1.91231 0
    endloop
  endfacet
  facet normal -0 0 1
    outer loop
      vertex 2.16671 -0.942108 0
      vertex 3.71922 -1.91231 0
      vertex 2.3508 -0.5877 0
    endloop
  endfacet
  facet normal 0 0 1
    outer loop
      vertex 3.71922 -1.91231 0
      vertex 2.16671 -0.942108 0
      vertex 3.18613 -2.48856 0
    endloop
  endfacet
  facet normal -0 0 1
    outer loop
      vertex 1.9464 -1.23615 0
      vertex 3.18613 -2.48856 0
      vertex 2.16671 -0.942108 0
    endloop
  endfacet
  facet normal 0 0 1
    outer loop
      vertex 3.18613 -2.48856 0
      vertex 1.9464 -1.23615 0
      vertex 2.51764 -2.90017 0
    endloop
  endfacet
  facet normal -0 0 1
    outer loop
      vertex 1.68987 -1.46981 0
      vertex 2.51764 -2.90017 0
      vertex 1.9464 -1.23615 0
    endloop
  endfacet
  facet normal -0 0 1
    outer loop
      vertex 1.38789 -1.64778 0
      vertex 2.51764 -2.90017 0
      vertex 1.68987 -1.46981 0
    endloop
  endfacet
  facet normal 0 0 1
    outer loop
      vertex 2.51764 -2.90017 0
      vertex 1.38789 -1.64778 0
      vertex 1.71373 -3.14714 0
    endloop
  endfacet
  facet normal -0 0 1
    outer loop
      vertex 1.03125 -1.77491 0
      vertex 1.71373 -3.14714 0
      vertex 1.38789 -1.64778 0
    endloop
  endfacet
  facet normal 0 0 1
    outer loop
      vertex 1.03125 -1.77491 0
      vertex 0.774414 -3.22946 0
      vertex 1.71373 -3.14714 0
    endloop
  endfacet
  facet normal -0 0 1
    outer loop
      vertex 0.619957 -1.85118 0
      vertex 0.774414 -3.22946 0
      vertex 1.03125 -1.77491 0
    endloop
  endfacet
  facet normal 0 0 1
    outer loop
      vertex 0.619957 -1.85118 0
      vertex 0.185112 -3.19576 0
      vertex 0.774414 -3.22946 0
    endloop
  endfacet
  facet normal -0 0 1
    outer loop
      vertex 0.154015 -1.87661 0
      vertex 0.185112 -3.19576 0
      vertex 0.619957 -1.85118 0
    endloop
  endfacet
  facet normal 0 0 1
    outer loop
      vertex -0.362244 -3.09468 0
      vertex 0.154015 -1.87661 0
      vertex -0.265251 -1.84641 0
    endloop
  endfacet
  facet normal 0 0 1
    outer loop
      vertex 0.154015 -1.87661 0
      vertex -0.362244 -3.09468 0
      vertex 0.185112 -3.19576 0
    endloop
  endfacet
  facet normal 0 0 1
    outer loop
      vertex -0.867661 -2.92622 0
      vertex -0.265251 -1.84641 0
      vertex -0.658455 -1.75582 0
    endloop
  endfacet
  facet normal 0 0 1
    outer loop
      vertex -0.265251 -1.84641 0
      vertex -0.867661 -2.92622 0
      vertex -0.362244 -3.09468 0
    endloop
  endfacet
  facet normal 0 0 1
    outer loop
      vertex -1.33113 -2.69036 0
      vertex -0.658455 -1.75582 0
      vertex -1.0256 -1.60484 0
    endloop
  endfacet
  facet normal 0 0 1
    outer loop
      vertex -0.658455 -1.75582 0
      vertex -1.33113 -2.69036 0
      vertex -0.867661 -2.92622 0
    endloop
  endfacet
  facet normal 0 0 1
    outer loop
      vertex -1.74946 -2.38902 0
      vertex -1.0256 -1.60484 0
      vertex -1.36668 -1.39346 0
    endloop
  endfacet
  facet normal 0 0 1
    outer loop
      vertex -2.11945 -2.02409 0
      vertex -1.36668 -1.39346 0
      vertex -1.67597 -1.12391 0
    endloop
  endfacet
  facet normal 0 0 1
    outer loop
      vertex -1.0256 -1.60484 0
      vertex -1.74946 -2.38902 0
      vertex -1.33113 -2.69036 0
    endloop
  endfacet
  facet normal 0 0 1
    outer loop
      vertex -2.44111 -1.5956 0
      vertex -1.67597 -1.12391 0
      vertex -1.94774 -0.798409 0
    endloop
  endfacet
  facet normal 0 0 1
    outer loop
      vertex -1.36668 -1.39346 0
      vertex -2.11945 -2.02409 0
      vertex -1.74946 -2.38902 0
    endloop
  endfacet
  facet normal 0 0 1
    outer loop
      vertex -2.71443 -1.10351 0
      vertex -1.94774 -0.798409 0
      vertex -2.18199 -0.416962 0
    endloop
  endfacet
  facet normal 0 0 1
    outer loop
      vertex -2.73483 -1.10351 0
      vertex -2.18199 -0.416962 0
      vertex -2.37873 0.0204315 0
    endloop
  endfacet
  facet normal 0 0 1
    outer loop
      vertex -1.67597 -1.12391 0
      vertex -2.44111 -1.5956 0
      vertex -2.11945 -2.02409 0
    endloop
  endfacet
  facet normal 0 0 1
    outer loop
      vertex -2.73483 -1.10351 0
      vertex -2.37873 0.0204315 0
      vertex -2.53452 0.50901 0
    endloop
  endfacet
  facet normal 0 0 1
    outer loop
      vertex -2.73483 -1.10351 0
      vertex -2.53452 0.50901 0
      vertex -2.64581 1.044 0
    endloop
  endfacet
  facet normal 0 0 1
    outer loop
      vertex -4.55568 -3.02606 0
      vertex -2.64581 1.044 0
      vertex -2.71257 1.62539 0
    endloop
  endfacet
  facet normal 0 0 1
    outer loop
      vertex -1.94774 -0.798409 0
      vertex -2.71443 -1.10351 0
      vertex -2.44111 -1.5956 0
    endloop
  endfacet
  facet normal 0 0 1
    outer loop
      vertex -4.55568 -3.02606 0
      vertex -2.71257 1.62539 0
      vertex -2.73483 2.25318 0
    endloop
  endfacet
  facet normal 0 0 1
    outer loop
      vertex -2.18199 -0.416962 0
      vertex -2.73483 -1.10351 0
      vertex -2.71443 -1.10351 0
    endloop
  endfacet
  facet normal 0 0 1
    outer loop
      vertex 2.04596 -4.69421 0
      vertex 3.72811 -5.5665 0
      vertex 3.91751 -4.94861 0
    endloop
  endfacet
  facet normal 0 0 1
    outer loop
      vertex 3.72811 -5.5665 0
      vertex 1.93438 -5.05372 0
      vertex 3.4446 -6.10811 0
    endloop
  endfacet
  facet normal -0 0 1
    outer loop
      vertex 1.77259 -5.36936 0
      vertex 3.4446 -6.10811 0
      vertex 1.93438 -5.05372 0
    endloop
  endfacet
  facet normal 0 0 1
    outer loop
      vertex 3.72811 -5.5665 0
      vertex 2.04596 -4.69421 0
      vertex 1.93438 -5.05372 0
    endloop
  endfacet
  facet normal 0 0 1
    outer loop
      vertex 3.4446 -6.10811 0
      vertex 1.77259 -5.36936 0
      vertex 3.06699 -6.57345 0
    endloop
  endfacet
  facet normal -0 0 1
    outer loop
      vertex 1.56059 -5.64112 0
      vertex 3.06699 -6.57345 0
      vertex 1.77259 -5.36936 0
    endloop
  endfacet
  facet normal 0 0 1
    outer loop
      vertex 3.06699 -6.57345 0
      vertex 1.56059 -5.64112 0
      vertex 2.59526 -6.96251 0
    endloop
  endfacet
  facet normal -0 0 1
    outer loop
      vertex 1.29836 -5.86901 0
      vertex 2.59526 -6.96251 0
      vertex 1.56059 -5.64112 0
    endloop
  endfacet
  facet normal 0 0 1
    outer loop
      vertex 2.59526 -6.96251 0
      vertex 1.29836 -5.86901 0
      vertex 2.03452 -7.26963 0
    endloop
  endfacet
  facet normal -0 0 1
    outer loop
      vertex 0.988396 -6.04928 0
      vertex 2.03452 -7.26963 0
      vertex 1.29836 -5.86901 0
    endloop
  endfacet
  facet normal 0 0 1
    outer loop
      vertex 2.03452 -7.26963 0
      vertex 0.988396 -6.04928 0
      vertex 1.38986 -7.48901 0
    endloop
  endfacet
  facet normal -0 0 1
    outer loop
      vertex 0.633301 -6.17805 0
      vertex 1.38986 -7.48901 0
      vertex 0.988396 -6.04928 0
    endloop
  endfacet
  facet normal 0 0 1
    outer loop
      vertex 1.38986 -7.48901 0
      vertex 0.633301 -6.17805 0
      vertex 0.661278 -7.62064 0
    endloop
  endfacet
  facet normal -0 0 1
    outer loop
      vertex 0.23307 -6.2553 0
      vertex 0.661278 -7.62064 0
      vertex 0.633301 -6.17805 0
    endloop
  endfacet
  facet normal 0 0 1
    outer loop
      vertex 0.23307 -6.2553 0
      vertex -0.15123 -7.66451 0
      vertex 0.661278 -7.62064 0
    endloop
  endfacet
  facet normal -0 0 1
    outer loop
      vertex -0.21228 -6.28106 0
      vertex -0.15123 -7.66451 0
      vertex 0.23307 -6.2553 0
    endloop
  endfacet
  facet normal 0 0 1
    outer loop
      vertex -0.21228 -6.28106 0
      vertex -1.20207 -7.59171 0
      vertex -0.15123 -7.66451 0
    endloop
  endfacet
  facet normal 0 0 1
    outer loop
      vertex -1.3159 -6.0808 0
      vertex -1.20207 -7.59171 0
      vertex -0.21228 -6.28106 0
    endloop
  endfacet
  facet normal 0 0 1
    outer loop
      vertex -2.86512 -7.00934 0
      vertex -1.3159 -6.0808 0
      vertex -2.10419 -5.48002 0
    endloop
  endfacet
  facet normal 0 0 1
    outer loop
      vertex -1.3159 -6.0808 0
      vertex -2.1067 -7.37332 0
      vertex -1.20207 -7.59171 0
    endloop
  endfacet
  facet normal 0 0 1
    outer loop
      vertex -3.9491 -5.84587 0
      vertex -2.10419 -5.48002 0
      vertex -2.57717 -4.47872 0
    endloop
  endfacet
  facet normal 0 0 1
    outer loop
      vertex -4.55949 6.16674 0
      vertex -2.75523 5.77264 0
      vertex -2.75777 5.95157 0
    endloop
  endfacet
  facet normal -0 0 1
    outer loop
      vertex -4.55949 6.16674 0
      vertex -2.75777 5.95157 0
      vertex -2.76539 6.18326 0
    endloop
  endfacet
  facet normal 0 0 1
    outer loop
      vertex -4.55949 6.16674 0
      vertex -2.76539 6.18326 0
      vertex -2.77809 6.46771 0
    endloop
  endfacet
  facet normal 0 0 1
    outer loop
      vertex -4.57091 6.81011 0
      vertex -2.77809 6.46771 0
      vertex -2.79588 6.80493 0
    endloop
  endfacet
  facet normal -0 0 1
    outer loop
      vertex -4.57091 6.81011 0
      vertex -2.79588 6.80493 0
      vertex -2.81621 7.13078 0
    endloop
  endfacet
  facet normal -0 0 1
    outer loop
      vertex -4.58994 7.30599 0
      vertex -2.81621 7.13078 0
      vertex -2.83653 7.38097 0
    endloop
  endfacet
  facet normal 0 0 1
    outer loop
      vertex -4.58994 7.30599 0
      vertex -2.83653 7.38097 0
      vertex -2.85686 7.5555 0
    endloop
  endfacet
  facet normal 0 0 1
    outer loop
      vertex -1.3159 -6.0808 0
      vertex -2.86512 -7.00934 0
      vertex -2.1067 -7.37332 0
    endloop
  endfacet
  facet normal -0 0 1
    outer loop
      vertex -4.48828 -4.10902 0
      vertex -2.57717 -4.47872 0
      vertex -2.73483 -3.07691 0
    endloop
  endfacet
  facet normal 0 0 1
    outer loop
      vertex -4.55568 -3.02606 0
      vertex -2.73483 2.25318 0
      vertex -4.55568 5.37589 0
    endloop
  endfacet
  facet normal 0 0 1
    outer loop
      vertex -4.58994 7.30599 0
      vertex -2.85686 7.5555 0
      vertex -2.87718 7.65438 0
    endloop
  endfacet
  facet normal 0 -0 1
    outer loop
      vertex -4.48828 -4.10902 0
      vertex -2.73483 -3.07691 0
      vertex -4.55568 -3.02606 0
    endloop
  endfacet
  facet normal 0 0 1
    outer loop
      vertex -2.57717 -4.47872 0
      vertex -4.48828 -4.10902 0
      vertex -4.28609 -5.04896 0
    endloop
  endfacet
  facet normal 0 0 1
    outer loop
      vertex -2.57717 -4.47872 0
      vertex -4.28609 -5.04896 0
      vertex -3.9491 -5.84587 0
    endloop
  endfacet
  facet normal 0 0 1
    outer loop
      vertex -2.10419 -5.48002 0
      vertex -3.9491 -5.84587 0
      vertex -3.47733 -6.49976 0
    endloop
  endfacet
  facet normal 0 0 1
    outer loop
      vertex -2.73483 -1.10351 0
      vertex -4.55568 -3.02606 0
      vertex -2.73483 -3.07691 0
    endloop
  endfacet
  facet normal 0 0 1
    outer loop
      vertex -2.75523 5.77264 0
      vertex -4.55949 6.16674 0
      vertex -4.55568 5.37589 0
    endloop
  endfacet
  facet normal 0 0 1
    outer loop
      vertex -2.77809 6.46771 0
      vertex -4.57091 6.81011 0
      vertex -4.55949 6.16674 0
    endloop
  endfacet
  facet normal 0 0 1
    outer loop
      vertex -2.81621 7.13078 0
      vertex -4.58994 7.30599 0
      vertex -4.57091 6.81011 0
    endloop
  endfacet
  facet normal 0 -0 1
    outer loop
      vertex -4.58994 7.30599 0
      vertex -2.87718 7.65438 0
      vertex -4.61658 7.65438 0
    endloop
  endfacet
  facet normal 0 0 1
    outer loop
      vertex -2.10419 -5.48002 0
      vertex -3.47733 -6.49976 0
      vertex -2.86512 -7.00934 0
    endloop
  endfacet
  facet normal -0.234672 -0.972075 0
    outer loop
      vertex -2.1067 -7.37332 -4
      vertex -1.20207 -7.59171 0
      vertex -2.1067 -7.37332 0
    endloop
  endfacet
  facet normal -0.234672 -0.972075 -0
    outer loop
      vertex -1.20207 -7.59171 0
      vertex -2.1067 -7.37332 -4
      vertex -1.20207 -7.59171 -4
    endloop
  endfacet
  facet normal -0.432672 -0.901552 0
    outer loop
      vertex -2.86512 -7.00934 -4
      vertex -2.1067 -7.37332 0
      vertex -2.86512 -7.00934 0
    endloop
  endfacet
  facet normal -0.432672 -0.901552 -0
    outer loop
      vertex -2.1067 -7.37332 0
      vertex -2.86512 -7.00934 -4
      vertex -2.1067 -7.37332 -4
    endloop
  endfacet
  facet normal -0.639743 -0.768589 0
    outer loop
      vertex -3.47733 -6.49976 -4
      vertex -2.86512 -7.00934 0
      vertex -3.47733 -6.49976 0
    endloop
  endfacet
  facet normal -0.639743 -0.768589 -0
    outer loop
      vertex -2.86512 -7.00934 0
      vertex -3.47733 -6.49976 -4
      vertex -2.86512 -7.00934 -4
    endloop
  endfacet
  facet normal -0.810964 -0.585096 0
    outer loop
      vertex -3.47733 -6.49976 -4
      vertex -3.9491 -5.84587 0
      vertex -3.9491 -5.84587 -4
    endloop
  endfacet
  facet normal -0.810964 -0.585096 0
    outer loop
      vertex -3.9491 -5.84587 0
      vertex -3.47733 -6.49976 -4
      vertex -3.47733 -6.49976 0
    endloop
  endfacet
  facet normal -0.921035 -0.389479 0
    outer loop
      vertex -3.9491 -5.84587 -4
      vertex -4.28609 -5.04896 0
      vertex -4.28609 -5.04896 -4
    endloop
  endfacet
  facet normal -0.921035 -0.389479 0
    outer loop
      vertex -4.28609 -5.04896 0
      vertex -3.9491 -5.84587 -4
      vertex -3.9491 -5.84587 0
    endloop
  endfacet
  facet normal -0.977637 -0.210299 0
    outer loop
      vertex -4.28609 -5.04896 -4
      vertex -4.48828 -4.10902 0
      vertex -4.48828 -4.10902 -4
    endloop
  endfacet
  facet normal -0.977637 -0.210299 0
    outer loop
      vertex -4.48828 -4.10902 0
      vertex -4.28609 -5.04896 -4
      vertex -4.28609 -5.04896 0
    endloop
  endfacet
  facet normal -0.998069 -0.0621166 0
    outer loop
      vertex -4.48828 -4.10902 -4
      vertex -4.55568 -3.02606 0
      vertex -4.55568 -3.02606 -4
    endloop
  endfacet
  facet normal -0.998069 -0.0621166 0
    outer loop
      vertex -4.55568 -3.02606 0
      vertex -4.48828 -4.10902 -4
      vertex -4.48828 -4.10902 0
    endloop
  endfacet
  facet normal -1 0 0
    outer loop
      vertex -4.55568 -3.02606 -4
      vertex -4.55568 5.37589 0
      vertex -4.55568 5.37589 -4
    endloop
  endfacet
  facet normal -1 -0 0
    outer loop
      vertex -4.55568 5.37589 0
      vertex -4.55568 -3.02606 -4
      vertex -4.55568 -3.02606 0
    endloop
  endfacet
  facet normal -0.999988 -0.00481755 0
    outer loop
      vertex -4.55568 5.37589 -4
      vertex -4.55949 6.16674 0
      vertex -4.55949 6.16674 -4
    endloop
  endfacet
  facet normal -0.999988 -0.00481755 0
    outer loop
      vertex -4.55949 6.16674 0
      vertex -4.55568 5.37589 -4
      vertex -4.55568 5.37589 0
    endloop
  endfacet
  facet normal -0.999843 -0.0177475 0
    outer loop
      vertex -4.55949 6.16674 -4
      vertex -4.57091 6.81011 0
      vertex -4.57091 6.81011 -4
    endloop
  endfacet
  facet normal -0.999843 -0.0177475 0
    outer loop
      vertex -4.57091 6.81011 0
      vertex -4.55949 6.16674 -4
      vertex -4.55949 6.16674 0
    endloop
  endfacet
  facet normal -0.999264 -0.038348 0
    outer loop
      vertex -4.57091 6.81011 -4
      vertex -4.58994 7.30599 0
      vertex -4.58994 7.30599 -4
    endloop
  endfacet
  facet normal -0.999264 -0.038348 0
    outer loop
      vertex -4.58994 7.30599 0
      vertex -4.57091 6.81011 -4
      vertex -4.57091 6.81011 0
    endloop
  endfacet
  facet normal -0.997089 -0.0762435 0
    outer loop
      vertex -4.58994 7.30599 -4
      vertex -4.61658 7.65438 0
      vertex -4.61658 7.65438 -4
    endloop
  endfacet
  facet normal -0.997089 -0.0762435 0
    outer loop
      vertex -4.61658 7.65438 0
      vertex -4.58994 7.30599 -4
      vertex -4.58994 7.30599 0
    endloop
  endfacet
  facet normal 0 1 -0
    outer loop
      vertex -2.87718 7.65438 -4
      vertex -4.61658 7.65438 0
      vertex -2.87718 7.65438 0
    endloop
  endfacet
  facet normal 0 1 0
    outer loop
      vertex -4.61658 7.65438 0
      vertex -2.87718 7.65438 -4
      vertex -4.61658 7.65438 -4
    endloop
  endfacet
  facet normal 0.979531 0.201295 0
    outer loop
      vertex -2.85686 7.5555 0
      vertex -2.87718 7.65438 -4
      vertex -2.87718 7.65438 0
    endloop
  endfacet
  facet normal 0.979531 0.201295 0
    outer loop
      vertex -2.87718 7.65438 -4
      vertex -2.85686 7.5555 0
      vertex -2.85686 7.5555 -4
    endloop
  endfacet
  facet normal 0.993284 0.115702 0
    outer loop
      vertex -2.83653 7.38097 0
      vertex -2.85686 7.5555 -4
      vertex -2.85686 7.5555 0
    endloop
  endfacet
  facet normal 0.993284 0.115702 0
    outer loop
      vertex -2.85686 7.5555 -4
      vertex -2.83653 7.38097 0
      vertex -2.83653 7.38097 -4
    endloop
  endfacet
  facet normal 0.996718 0.0809517 0
    outer loop
      vertex -2.81621 7.13078 0
      vertex -2.83653 7.38097 -4
      vertex -2.83653 7.38097 0
    endloop
  endfacet
  facet normal 0.996718 0.0809517 0
    outer loop
      vertex -2.83653 7.38097 -4
      vertex -2.81621 7.13078 0
      vertex -2.81621 7.13078 -4
    endloop
  endfacet
  facet normal 0.998059 0.0622696 0
    outer loop
      vertex -2.79588 6.80493 0
      vertex -2.81621 7.13078 -4
      vertex -2.81621 7.13078 0
    endloop
  endfacet
  facet normal 0.998059 0.0622696 0
    outer loop
      vertex -2.81621 7.13078 -4
      vertex -2.79588 6.80493 0
      vertex -2.79588 6.80493 -4
    endloop
  endfacet
  facet normal 0.998611 0.0526816 0
    outer loop
      vertex -2.77809 6.46771 0
      vertex -2.79588 6.80493 -4
      vertex -2.79588 6.80493 0
    endloop
  endfacet
  facet normal 0.998611 0.0526816 0
    outer loop
      vertex -2.79588 6.80493 -4
      vertex -2.77809 6.46771 0
      vertex -2.77809 6.46771 -4
    endloop
  endfacet
  facet normal 0.999005 0.0446031 0
    outer loop
      vertex -2.76539 6.18326 0
      vertex -2.77809 6.46771 -4
      vertex -2.77809 6.46771 0
    endloop
  endfacet
  facet normal 0.999005 0.0446031 0
    outer loop
      vertex -2.77809 6.46771 -4
      vertex -2.76539 6.18326 0
      vertex -2.76539 6.18326 -4
    endloop
  endfacet
  facet normal 0.99946 0.032871 0
    outer loop
      vertex -2.75777 5.95157 0
      vertex -2.76539 6.18326 -4
      vertex -2.76539 6.18326 0
    endloop
  endfacet
  facet normal 0.99946 0.032871 0
    outer loop
      vertex -2.76539 6.18326 -4
      vertex -2.75777 5.95157 0
      vertex -2.75777 5.95157 -4
    endloop
  endfacet
  facet normal 0.999899 0.0141941 0
    outer loop
      vertex -2.75523 5.77264 0
      vertex -2.75777 5.95157 -4
      vertex -2.75777 5.95157 0
    endloop
  endfacet
  facet normal 0.999899 0.0141941 0
    outer loop
      vertex -2.75777 5.95157 -4
      vertex -2.75523 5.77264 0
      vertex -2.75523 5.77264 -4
    endloop
  endfacet
  facet normal 0 1 -0
    outer loop
      vertex -2.72463 5.77264 -4
      vertex -2.75523 5.77264 0
      vertex -2.72463 5.77264 0
    endloop
  endfacet
  facet normal 0 1 0
    outer loop
      vertex -2.75523 5.77264 0
      vertex -2.72463 5.77264 -4
      vertex -2.75523 5.77264 -4
    endloop
  endfacet
  facet normal -0.878168 0.478352 0
    outer loop
      vertex -2.72463 5.77264 -4
      vertex -2.47131 6.23769 0
      vertex -2.47131 6.23769 -4
    endloop
  endfacet
  facet normal -0.878168 0.478352 0
    outer loop
      vertex -2.47131 6.23769 0
      vertex -2.72463 5.77264 -4
      vertex -2.72463 5.77264 0
    endloop
  endfacet
  facet normal -0.80383 0.594859 0
    outer loop
      vertex -2.47131 6.23769 -4
      vertex -2.16903 6.64616 0
      vertex -2.16903 6.64616 -4
    endloop
  endfacet
  facet normal -0.80383 0.594859 0
    outer loop
      vertex -2.16903 6.64616 0
      vertex -2.47131 6.23769 -4
      vertex -2.47131 6.23769 0
    endloop
  endfacet
  facet normal -0.70772 0.706493 0
    outer loop
      vertex -2.16903 6.64616 -4
      vertex -1.81776 6.99804 0
      vertex -1.81776 6.99804 -4
    endloop
  endfacet
  facet normal -0.70772 0.706493 0
    outer loop
      vertex -1.81776 6.99804 0
      vertex -2.16903 6.64616 -4
      vertex -2.16903 6.64616 0
    endloop
  endfacet
  facet normal -0.593699 0.804687 0
    outer loop
      vertex -1.41753 7.29333 -4
      vertex -1.81776 6.99804 0
      vertex -1.41753 7.29333 0
    endloop
  endfacet
  facet normal -0.593699 0.804687 0
    outer loop
      vertex -1.81776 6.99804 0
      vertex -1.41753 7.29333 -4
      vertex -1.81776 6.99804 -4
    endloop
  endfacet
  facet normal -0.466148 0.884707 0
    outer loop
      vertex -0.974121 7.52696 -4
      vertex -1.41753 7.29333 0
      vertex -0.974121 7.52696 0
    endloop
  endfacet
  facet normal -0.466148 0.884707 0
    outer loop
      vertex -1.41753 7.29333 0
      vertex -0.974121 7.52696 -4
      vertex -1.41753 7.29333 -4
    endloop
  endfacet
  facet normal -0.327804 0.944746 0
    outer loop
      vertex -0.493195 7.69383 -4
      vertex -0.974121 7.52696 0
      vertex -0.493195 7.69383 0
    endloop
  endfacet
  facet normal -0.327804 0.944746 0
    outer loop
      vertex -0.974121 7.52696 0
      vertex -0.493195 7.69383 -4
      vertex -0.974121 7.52696 -4
    endloop
  endfacet
  facet normal -0.189632 0.981855 0
    outer loop
      vertex 0.0252457 7.79396 -4
      vertex -0.493195 7.69383 0
      vertex 0.0252457 7.79396 0
    endloop
  endfacet
  facet normal -0.189632 0.981855 0
    outer loop
      vertex -0.493195 7.69383 0
      vertex 0.0252457 7.79396 -4
      vertex -0.493195 7.69383 -4
    endloop
  endfacet
  facet normal -0.0599135 0.998204 0
    outer loop
      vertex 0.581215 7.82733 -4
      vertex 0.0252457 7.79396 0
      vertex 0.581215 7.82733 0
    endloop
  endfacet
  facet normal -0.0599135 0.998204 0
    outer loop
      vertex 0.0252457 7.79396 0
      vertex 0.581215 7.82733 -4
      vertex 0.0252457 7.79396 -4
    endloop
  endfacet
  facet normal 0.0871471 0.996195 -0
    outer loop
      vertex 1.55138 7.74246 -4
      vertex 0.581215 7.82733 0
      vertex 1.55138 7.74246 0
    endloop
  endfacet
  facet normal 0.0871471 0.996195 0
    outer loop
      vertex 0.581215 7.82733 0
      vertex 1.55138 7.74246 -4
      vertex 0.581215 7.82733 -4
    endloop
  endfacet
  facet normal 0.291543 0.956558 -0
    outer loop
      vertex 2.38676 7.48785 -4
      vertex 1.55138 7.74246 0
      vertex 2.38676 7.48785 0
    endloop
  endfacet
  facet normal 0.291543 0.956558 0
    outer loop
      vertex 1.55138 7.74246 0
      vertex 2.38676 7.48785 -4
      vertex 1.55138 7.74246 -4
    endloop
  endfacet
  facet normal 0.518086 0.855329 -0
    outer loop
      vertex 3.08737 7.06348 -4
      vertex 2.38676 7.48785 0
      vertex 3.08737 7.06348 0
    endloop
  endfacet
  facet normal 0.518086 0.855329 0
    outer loop
      vertex 2.38676 7.48785 0
      vertex 3.08737 7.06348 -4
      vertex 2.38676 7.48785 -4
    endloop
  endfacet
  facet normal 0.724119 0.689675 0
    outer loop
      vertex 3.65321 6.46938 0
      vertex 3.08737 7.06348 -4
      vertex 3.08737 7.06348 0
    endloop
  endfacet
  facet normal 0.724119 0.689675 0
    outer loop
      vertex 3.08737 7.06348 -4
      vertex 3.65321 6.46938 0
      vertex 3.65321 6.46938 -4
    endloop
  endfacet
  facet normal 0.871239 0.490859 0
    outer loop
      vertex 4.08929 5.69537 0
      vertex 3.65321 6.46938 -4
      vertex 3.65321 6.46938 0
    endloop
  endfacet
  facet normal 0.871239 0.490859 0
    outer loop
      vertex 3.65321 6.46938 -4
      vertex 4.08929 5.69537 0
      vertex 4.08929 5.69537 -4
    endloop
  endfacet
  facet normal 0.951571 0.307429 0
    outer loop
      vertex 4.40077 4.73126 0
      vertex 4.08929 5.69537 -4
      vertex 4.08929 5.69537 0
    endloop
  endfacet
  facet normal 0.951571 0.307429 0
    outer loop
      vertex 4.08929 5.69537 -4
      vertex 4.40077 4.73126 0
      vertex 4.40077 4.73126 -4
    endloop
  endfacet
  facet normal 0.987142 0.159848 0
    outer loop
      vertex 4.58767 3.57706 0
      vertex 4.40077 4.73126 -4
      vertex 4.40077 4.73126 0
    endloop
  endfacet
  facet normal 0.987142 0.159848 0
    outer loop
      vertex 4.40077 4.73126 -4
      vertex 4.58767 3.57706 0
      vertex 4.58767 3.57706 -4
    endloop
  endfacet
  facet normal 0.998928 0.0462874 0
    outer loop
      vertex 4.64996 2.23278 0
      vertex 4.58767 3.57706 -4
      vertex 4.58767 3.57706 0
    endloop
  endfacet
  facet normal 0.998928 0.0462874 0
    outer loop
      vertex 4.58767 3.57706 -4
      vertex 4.64996 2.23278 0
      vertex 4.64996 2.23278 -4
    endloop
  endfacet
  facet normal 0.99903 -0.0440425 0
    outer loop
      vertex 4.59179 0.913292 0
      vertex 4.64996 2.23278 -4
      vertex 4.64996 2.23278 0
    endloop
  endfacet
  facet normal 0.99903 -0.0440425 0
    outer loop
      vertex 4.64996 2.23278 -4
      vertex 4.59179 0.913292 0
      vertex 4.59179 0.913292 -4
    endloop
  endfacet
  facet normal 0.988297 -0.152544 0
    outer loop
      vertex 4.41727 -0.217384 0
      vertex 4.59179 0.913292 -4
      vertex 4.59179 0.913292 0
    endloop
  endfacet
  facet normal 0.988297 -0.152544 0
    outer loop
      vertex 4.59179 0.913292 -4
      vertex 4.41727 -0.217384 0
      vertex 4.41727 -0.217384 -4
    endloop
  endfacet
  facet normal 0.955481 -0.295051 0
    outer loop
      vertex 4.12642 -1.15926 0
      vertex 4.41727 -0.217384 -4
      vertex 4.41727 -0.217384 0
    endloop
  endfacet
  facet normal 0.955481 -0.295051 0
    outer loop
      vertex 4.41727 -0.217384 -4
      vertex 4.12642 -1.15926 0
      vertex 4.12642 -1.15926 -4
    endloop
  endfacet
  facet normal 0.879635 -0.475649 0
    outer loop
      vertex 3.71922 -1.91231 0
      vertex 4.12642 -1.15926 -4
      vertex 4.12642 -1.15926 0
    endloop
  endfacet
  facet normal 0.879635 -0.475649 0
    outer loop
      vertex 4.12642 -1.15926 -4
      vertex 3.71922 -1.91231 0
      vertex 3.71922 -1.91231 -4
    endloop
  endfacet
  facet normal 0.734062 -0.679082 0
    outer loop
      vertex 3.18613 -2.48856 0
      vertex 3.71922 -1.91231 -4
      vertex 3.71922 -1.91231 0
    endloop
  endfacet
  facet normal 0.734062 -0.679082 0
    outer loop
      vertex 3.71922 -1.91231 -4
      vertex 3.18613 -2.48856 0
      vertex 3.18613 -2.48856 -4
    endloop
  endfacet
  facet normal 0.524311 -0.851527 0
    outer loop
      vertex 2.51764 -2.90017 -4
      vertex 3.18613 -2.48856 0
      vertex 2.51764 -2.90017 0
    endloop
  endfacet
  facet normal 0.524311 -0.851527 0
    outer loop
      vertex 3.18613 -2.48856 0
      vertex 2.51764 -2.90017 -4
      vertex 3.18613 -2.48856 -4
    endloop
  endfacet
  facet normal 0.293666 -0.955908 0
    outer loop
      vertex 1.71373 -3.14714 -4
      vertex 2.51764 -2.90017 0
      vertex 1.71373 -3.14714 0
    endloop
  endfacet
  facet normal 0.293666 -0.955908 0
    outer loop
      vertex 2.51764 -2.90017 0
      vertex 1.71373 -3.14714 -4
      vertex 2.51764 -2.90017 -4
    endloop
  endfacet
  facet normal 0.0873036 -0.996182 0
    outer loop
      vertex 0.774414 -3.22946 -4
      vertex 1.71373 -3.14714 0
      vertex 0.774414 -3.22946 0
    endloop
  endfacet
  facet normal 0.0873036 -0.996182 0
    outer loop
      vertex 1.71373 -3.14714 0
      vertex 0.774414 -3.22946 -4
      vertex 1.71373 -3.14714 -4
    endloop
  endfacet
  facet normal -0.057093 -0.998369 0
    outer loop
      vertex 0.185112 -3.19576 -4
      vertex 0.774414 -3.22946 0
      vertex 0.185112 -3.19576 0
    endloop
  endfacet
  facet normal -0.057093 -0.998369 -0
    outer loop
      vertex 0.774414 -3.22946 0
      vertex 0.185112 -3.19576 -4
      vertex 0.774414 -3.22946 -4
    endloop
  endfacet
  facet normal -0.181599 -0.983373 0
    outer loop
      vertex -0.362244 -3.09468 -4
      vertex 0.185112 -3.19576 0
      vertex -0.362244 -3.09468 0
    endloop
  endfacet
  facet normal -0.181599 -0.983373 -0
    outer loop
      vertex 0.185112 -3.19576 0
      vertex -0.362244 -3.09468 -4
      vertex 0.185112 -3.19576 -4
    endloop
  endfacet
  facet normal -0.316207 -0.94869 0
    outer loop
      vertex -0.867661 -2.92622 -4
      vertex -0.362244 -3.09468 0
      vertex -0.867661 -2.92622 0
    endloop
  endfacet
  facet normal -0.316207 -0.94869 -0
    outer loop
      vertex -0.362244 -3.09468 0
      vertex -0.867661 -2.92622 -4
      vertex -0.362244 -3.09468 -4
    endloop
  endfacet
  facet normal -0.453549 -0.891231 0
    outer loop
      vertex -1.33113 -2.69036 -4
      vertex -0.867661 -2.92622 0
      vertex -1.33113 -2.69036 0
    endloop
  endfacet
  facet normal -0.453549 -0.891231 -0
    outer loop
      vertex -0.867661 -2.92622 0
      vertex -1.33113 -2.69036 -4
      vertex -0.867661 -2.92622 -4
    endloop
  endfacet
  facet normal -0.584487 -0.811403 0
    outer loop
      vertex -1.74946 -2.38902 -4
      vertex -1.33113 -2.69036 0
      vertex -1.74946 -2.38902 0
    endloop
  endfacet
  facet normal -0.584487 -0.811403 -0
    outer loop
      vertex -1.33113 -2.69036 0
      vertex -1.74946 -2.38902 -4
      vertex -1.33113 -2.69036 -4
    endloop
  endfacet
  facet normal -0.702222 -0.711958 0
    outer loop
      vertex -2.11945 -2.02409 -4
      vertex -1.74946 -2.38902 0
      vertex -2.11945 -2.02409 0
    endloop
  endfacet
  facet normal -0.702222 -0.711958 -0
    outer loop
      vertex -1.74946 -2.38902 0
      vertex -2.11945 -2.02409 -4
      vertex -1.74946 -2.38902 -4
    endloop
  endfacet
  facet normal -0.799738 -0.600349 0
    outer loop
      vertex -2.11945 -2.02409 -4
      vertex -2.44111 -1.5956 0
      vertex -2.44111 -1.5956 -4
    endloop
  endfacet
  facet normal -0.799738 -0.600349 0
    outer loop
      vertex -2.44111 -1.5956 0
      vertex -2.11945 -2.02409 -4
      vertex -2.11945 -2.02409 0
    endloop
  endfacet
  facet normal -0.874205 -0.485557 0
    outer loop
      vertex -2.44111 -1.5956 -4
      vertex -2.71443 -1.10351 0
      vertex -2.71443 -1.10351 -4
    endloop
  endfacet
  facet normal -0.874205 -0.485557 0
    outer loop
      vertex -2.71443 -1.10351 0
      vertex -2.44111 -1.5956 -4
      vertex -2.44111 -1.5956 0
    endloop
  endfacet
  facet normal 0 -1 0
    outer loop
      vertex -2.73483 -1.10351 -4
      vertex -2.71443 -1.10351 0
      vertex -2.73483 -1.10351 0
    endloop
  endfacet
  facet normal 0 -1 -0
    outer loop
      vertex -2.71443 -1.10351 0
      vertex -2.73483 -1.10351 -4
      vertex -2.71443 -1.10351 -4
    endloop
  endfacet
  facet normal 1 -0 0
    outer loop
      vertex -2.73483 -3.07691 0
      vertex -2.73483 -1.10351 -4
      vertex -2.73483 -1.10351 0
    endloop
  endfacet
  facet normal 1 0 0
    outer loop
      vertex -2.73483 -1.10351 -4
      vertex -2.73483 -3.07691 0
      vertex -2.73483 -3.07691 -4
    endloop
  endfacet
  facet normal 0.993735 0.111764 0
    outer loop
      vertex -2.57717 -4.47872 0
      vertex -2.73483 -3.07691 -4
      vertex -2.73483 -3.07691 0
    endloop
  endfacet
  facet normal 0.993735 0.111764 0
    outer loop
      vertex -2.73483 -3.07691 -4
      vertex -2.57717 -4.47872 0
      vertex -2.57717 -4.47872 -4
    endloop
  endfacet
  facet normal 0.904198 0.427113 0
    outer loop
      vertex -2.10419 -5.48002 0
      vertex -2.57717 -4.47872 -4
      vertex -2.57717 -4.47872 0
    endloop
  endfacet
  facet normal 0.904198 0.427113 0
    outer loop
      vertex -2.57717 -4.47872 -4
      vertex -2.10419 -5.48002 0
      vertex -2.10419 -5.48002 -4
    endloop
  endfacet
  facet normal 0.606157 0.795345 -0
    outer loop
      vertex -1.3159 -6.0808 -4
      vertex -2.10419 -5.48002 0
      vertex -1.3159 -6.0808 0
    endloop
  endfacet
  facet normal 0.606157 0.795345 0
    outer loop
      vertex -2.10419 -5.48002 0
      vertex -1.3159 -6.0808 -4
      vertex -2.10419 -5.48002 -4
    endloop
  endfacet
  facet normal 0.178542 0.983932 -0
    outer loop
      vertex -0.21228 -6.28106 -4
      vertex -1.3159 -6.0808 0
      vertex -0.21228 -6.28106 0
    endloop
  endfacet
  facet normal 0.178542 0.983932 0
    outer loop
      vertex -1.3159 -6.0808 0
      vertex -0.21228 -6.28106 -4
      vertex -1.3159 -6.0808 -4
    endloop
  endfacet
  facet normal -0.0577456 0.998331 0
    outer loop
      vertex 0.23307 -6.2553 -4
      vertex -0.21228 -6.28106 0
      vertex 0.23307 -6.2553 0
    endloop
  endfacet
  facet normal -0.0577456 0.998331 0
    outer loop
      vertex -0.21228 -6.28106 0
      vertex 0.23307 -6.2553 -4
      vertex -0.21228 -6.28106 -4
    endloop
  endfacet
  facet normal -0.189516 0.981878 0
    outer loop
      vertex 0.633301 -6.17805 -4
      vertex 0.23307 -6.2553 0
      vertex 0.633301 -6.17805 0
    endloop
  endfacet
  facet normal -0.189516 0.981878 0
    outer loop
      vertex 0.23307 -6.2553 0
      vertex 0.633301 -6.17805 -4
      vertex 0.23307 -6.2553 -4
    endloop
  endfacet
  facet normal -0.340912 0.940095 0
    outer loop
      vertex 0.988396 -6.04928 -4
      vertex 0.633301 -6.17805 0
      vertex 0.988396 -6.04928 0
    endloop
  endfacet
  facet normal -0.340912 0.940095 0
    outer loop
      vertex 0.633301 -6.17805 0
      vertex 0.988396 -6.04928 -4
      vertex 0.633301 -6.17805 -4
    endloop
  endfacet
  facet normal -0.502742 0.864436 0
    outer loop
      vertex 1.29836 -5.86901 -4
      vertex 0.988396 -6.04928 0
      vertex 1.29836 -5.86901 0
    endloop
  endfacet
  facet normal -0.502742 0.864436 0
    outer loop
      vertex 0.988396 -6.04928 0
      vertex 1.29836 -5.86901 -4
      vertex 0.988396 -6.04928 -4
    endloop
  endfacet
  facet normal -0.655956 0.754799 0
    outer loop
      vertex 1.56059 -5.64112 -4
      vertex 1.29836 -5.86901 0
      vertex 1.56059 -5.64112 0
    endloop
  endfacet
  facet normal -0.655956 0.754799 0
    outer loop
      vertex 1.29836 -5.86901 0
      vertex 1.56059 -5.64112 -4
      vertex 1.29836 -5.86901 -4
    endloop
  endfacet
  facet normal -0.788464 0.615081 0
    outer loop
      vertex 1.56059 -5.64112 -4
      vertex 1.77259 -5.36936 0
      vertex 1.77259 -5.36936 -4
    endloop
  endfacet
  facet normal -0.788464 0.615081 0
    outer loop
      vertex 1.77259 -5.36936 0
      vertex 1.56059 -5.64112 -4
      vertex 1.56059 -5.64112 0
    endloop
  endfacet
  facet normal -0.889905 0.456145 0
    outer loop
      vertex 1.77259 -5.36936 -4
      vertex 1.93438 -5.05372 0
      vertex 1.93438 -5.05372 -4
    endloop
  endfacet
  facet normal -0.889905 0.456145 0
    outer loop
      vertex 1.93438 -5.05372 0
      vertex 1.77259 -5.36936 -4
      vertex 1.77259 -5.36936 0
    endloop
  endfacet
  facet normal -0.955058 0.296418 0
    outer loop
      vertex 1.93438 -5.05372 -4
      vertex 2.04596 -4.69421 0
      vertex 2.04596 -4.69421 -4
    endloop
  endfacet
  facet normal -0.955058 0.296418 0
    outer loop
      vertex 2.04596 -4.69421 0
      vertex 1.93438 -5.05372 -4
      vertex 1.93438 -5.05372 0
    endloop
  endfacet
  facet normal 0.134691 0.990888 -0
    outer loop
      vertex 3.91751 -4.94861 -4
      vertex 2.04596 -4.69421 0
      vertex 3.91751 -4.94861 0
    endloop
  endfacet
  facet normal 0.134691 0.990888 0
    outer loop
      vertex 2.04596 -4.69421 0
      vertex 3.91751 -4.94861 -4
      vertex 2.04596 -4.69421 -4
    endloop
  endfacet
  facet normal 0.956092 -0.293068 0
    outer loop
      vertex 3.72811 -5.5665 0
      vertex 3.91751 -4.94861 -4
      vertex 3.91751 -4.94861 0
    endloop
  endfacet
  facet normal 0.956092 -0.293068 0
    outer loop
      vertex 3.91751 -4.94861 -4
      vertex 3.72811 -5.5665 0
      vertex 3.72811 -5.5665 -4
    endloop
  endfacet
  facet normal 0.88596 -0.463762 0
    outer loop
      vertex 3.4446 -6.10811 0
      vertex 3.72811 -5.5665 -4
      vertex 3.72811 -5.5665 0
    endloop
  endfacet
  facet normal 0.88596 -0.463762 0
    outer loop
      vertex 3.72811 -5.5665 -4
      vertex 3.4446 -6.10811 0
      vertex 3.4446 -6.10811 -4
    endloop
  endfacet
  facet normal 0.776505 -0.630111 0
    outer loop
      vertex 3.06699 -6.57345 0
      vertex 3.4446 -6.10811 -4
      vertex 3.4446 -6.10811 0
    endloop
  endfacet
  facet normal 0.776505 -0.630111 0
    outer loop
      vertex 3.4446 -6.10811 -4
      vertex 3.06699 -6.57345 0
      vertex 3.06699 -6.57345 -4
    endloop
  endfacet
  facet normal 0.636269 -0.771467 0
    outer loop
      vertex 2.59526 -6.96251 -4
      vertex 3.06699 -6.57345 0
      vertex 2.59526 -6.96251 0
    endloop
  endfacet
  facet normal 0.636269 -0.771467 0
    outer loop
      vertex 3.06699 -6.57345 0
      vertex 2.59526 -6.96251 -4
      vertex 3.06699 -6.57345 -4
    endloop
  endfacet
  facet normal 0.480372 -0.877065 0
    outer loop
      vertex 2.03452 -7.26963 -4
      vertex 2.59526 -6.96251 0
      vertex 2.03452 -7.26963 0
    endloop
  endfacet
  facet normal 0.480372 -0.877065 0
    outer loop
      vertex 2.59526 -6.96251 0
      vertex 2.03452 -7.26963 -4
      vertex 2.59526 -6.96251 -4
    endloop
  endfacet
  facet normal 0.32216 -0.946685 0
    outer loop
      vertex 1.38986 -7.48901 -4
      vertex 2.03452 -7.26963 0
      vertex 1.38986 -7.48901 0
    endloop
  endfacet
  facet normal 0.32216 -0.946685 0
    outer loop
      vertex 2.03452 -7.26963 0
      vertex 1.38986 -7.48901 -4
      vertex 2.03452 -7.26963 -4
    endloop
  endfacet
  facet normal 0.177788 -0.984069 0
    outer loop
      vertex 0.661278 -7.62064 -4
      vertex 1.38986 -7.48901 0
      vertex 0.661278 -7.62064 0
    endloop
  endfacet
  facet normal 0.177788 -0.984069 0
    outer loop
      vertex 1.38986 -7.48901 0
      vertex 0.661278 -7.62064 -4
      vertex 1.38986 -7.48901 -4
    endloop
  endfacet
  facet normal 0.0539148 -0.998546 0
    outer loop
      vertex -0.15123 -7.66451 -4
      vertex 0.661278 -7.62064 0
      vertex -0.15123 -7.66451 0
    endloop
  endfacet
  facet normal 0.0539148 -0.998546 0
    outer loop
      vertex 0.661278 -7.62064 0
      vertex -0.15123 -7.66451 -4
      vertex 0.661278 -7.62064 -4
    endloop
  endfacet
  facet normal -0.0691123 -0.997609 0
    outer loop
      vertex -1.20207 -7.59171 -4
      vertex -0.15123 -7.66451 0
      vertex -1.20207 -7.59171 0
    endloop
  endfacet
  facet normal -0.0691123 -0.997609 -0
    outer loop
      vertex -0.15123 -7.66451 0
      vertex -1.20207 -7.59171 -4
      vertex -0.15123 -7.66451 -4
    endloop
  endfacet
  facet normal -0.182331 0.983237 0
    outer loop
      vertex 1.03125 -1.77491 -4
      vertex 0.619957 -1.85118 0
      vertex 1.03125 -1.77491 0
    endloop
  endfacet
  facet normal -0.182331 0.983237 0
    outer loop
      vertex 0.619957 -1.85118 0
      vertex 1.03125 -1.77491 -4
      vertex 0.619957 -1.85118 -4
    endloop
  endfacet
  facet normal -0.335771 0.941944 0
    outer loop
      vertex 1.38789 -1.64778 -4
      vertex 1.03125 -1.77491 0
      vertex 1.38789 -1.64778 0
    endloop
  endfacet
  facet normal -0.335771 0.941944 0
    outer loop
      vertex 1.03125 -1.77491 0
      vertex 1.38789 -1.64778 -4
      vertex 1.03125 -1.77491 -4
    endloop
  endfacet
  facet normal -0.507729 0.861517 0
    outer loop
      vertex 1.68987 -1.46981 -4
      vertex 1.38789 -1.64778 0
      vertex 1.68987 -1.46981 0
    endloop
  endfacet
  facet normal -0.507729 0.861517 0
    outer loop
      vertex 1.38789 -1.64778 0
      vertex 1.68987 -1.46981 -4
      vertex 1.38789 -1.64778 -4
    endloop
  endfacet
  facet normal -0.673384 0.739293 0
    outer loop
      vertex 1.9464 -1.23615 -4
      vertex 1.68987 -1.46981 0
      vertex 1.9464 -1.23615 0
    endloop
  endfacet
  facet normal -0.673384 0.739293 0
    outer loop
      vertex 1.68987 -1.46981 0
      vertex 1.9464 -1.23615 -4
      vertex 1.68987 -1.46981 -4
    endloop
  endfacet
  facet normal -0.800289 0.599614 0
    outer loop
      vertex 1.9464 -1.23615 -4
      vertex 2.16671 -0.942108 0
      vertex 2.16671 -0.942108 -4
    endloop
  endfacet
  facet normal -0.800289 0.599614 0
    outer loop
      vertex 2.16671 -0.942108 0
      vertex 1.9464 -1.23615 -4
      vertex 1.9464 -1.23615 0
    endloop
  endfacet
  facet normal -0.887424 0.460954 0
    outer loop
      vertex 2.16671 -0.942108 -4
      vertex 2.3508 -0.5877 0
      vertex 2.3508 -0.5877 -4
    endloop
  endfacet
  facet normal -0.887424 0.460954 0
    outer loop
      vertex 2.3508 -0.5877 0
      vertex 2.16671 -0.942108 -4
      vertex 2.16671 -0.942108 0
    endloop
  endfacet
  facet normal -0.941944 0.33577 0
    outer loop
      vertex 2.3508 -0.5877 -4
      vertex 2.49866 -0.172905 0
      vertex 2.49866 -0.172905 -4
    endloop
  endfacet
  facet normal -0.941944 0.33577 0
    outer loop
      vertex 2.49866 -0.172905 0
      vertex 2.3508 -0.5877 -4
      vertex 2.3508 -0.5877 0
    endloop
  endfacet
  facet normal -0.973748 0.227627 0
    outer loop
      vertex 2.49866 -0.172905 -4
      vertex 2.61213 0.3125 0
      vertex 2.61213 0.3125 -4
    endloop
  endfacet
  facet normal -0.973748 0.227627 0
    outer loop
      vertex 2.61213 0.3125 0
      vertex 2.49866 -0.172905 -4
      vertex 2.49866 -0.172905 0
    endloop
  endfacet
  facet normal -0.989908 0.141712 0
    outer loop
      vertex 2.61213 0.3125 -4
      vertex 2.69318 0.878662 0
      vertex 2.69318 0.878662 -4
    endloop
  endfacet
  facet normal -0.989908 0.141712 0
    outer loop
      vertex 2.69318 0.878662 0
      vertex 2.61213 0.3125 -4
      vertex 2.61213 0.3125 0
    endloop
  endfacet
  facet normal -0.997186 0.0749638 0
    outer loop
      vertex 2.69318 0.878662 -4
      vertex 2.74181 1.52555 0
      vertex 2.74181 1.52555 -4
    endloop
  endfacet
  facet normal -0.997186 0.0749638 0
    outer loop
      vertex 2.74181 1.52555 0
      vertex 2.69318 0.878662 -4
      vertex 2.69318 0.878662 0
    endloop
  endfacet
  facet normal -0.999752 0.0222585 0
    outer loop
      vertex 2.74181 1.52555 -4
      vertex 2.75801 2.25318 0
      vertex 2.75801 2.25318 -4
    endloop
  endfacet
  facet normal -0.999752 0.0222585 0
    outer loop
      vertex 2.75801 2.25318 0
      vertex 2.74181 1.52555 -4
      vertex 2.74181 1.52555 0
    endloop
  endfacet
  facet normal -0.999323 -0.0367905 0
    outer loop
      vertex 2.75801 2.25318 -4
      vertex 2.71924 3.30627 0
      vertex 2.71924 3.30627 -4
    endloop
  endfacet
  facet normal -0.999323 -0.0367905 0
    outer loop
      vertex 2.71924 3.30627 0
      vertex 2.75801 2.25318 -4
      vertex 2.75801 2.25318 0
    endloop
  endfacet
  facet normal -0.991584 -0.129464 0
    outer loop
      vertex 2.71924 3.30627 -4
      vertex 2.60291 4.19726 0
      vertex 2.60291 4.19726 -4
    endloop
  endfacet
  facet normal -0.991584 -0.129464 0
    outer loop
      vertex 2.60291 4.19726 0
      vertex 2.71924 3.30627 -4
      vertex 2.71924 3.30627 0
    endloop
  endfacet
  facet normal -0.966394 -0.257065 0
    outer loop
      vertex 2.60291 4.19726 -4
      vertex 2.40903 4.92612 0
      vertex 2.40903 4.92612 -4
    endloop
  endfacet
  facet normal -0.966394 -0.257065 0
    outer loop
      vertex 2.40903 4.92612 0
      vertex 2.60291 4.19726 -4
      vertex 2.60291 4.19726 0
    endloop
  endfacet
  facet normal -0.901911 -0.431923 0
    outer loop
      vertex 2.40903 4.92612 -4
      vertex 2.13761 5.49288 0
      vertex 2.13761 5.49288 -4
    endloop
  endfacet
  facet normal -0.901911 -0.431923 0
    outer loop
      vertex 2.13761 5.49288 0
      vertex 2.40903 4.92612 -4
      vertex 2.40903 4.92612 0
    endloop
  endfacet
  facet normal -0.764287 -0.644876 0
    outer loop
      vertex 2.13761 5.49288 -4
      vertex 1.77902 5.91787 0
      vertex 1.77902 5.91787 -4
    endloop
  endfacet
  facet normal -0.764287 -0.644876 0
    outer loop
      vertex 1.77902 5.91787 0
      vertex 2.13761 5.49288 -4
      vertex 2.13761 5.49288 0
    endloop
  endfacet
  facet normal -0.554806 -0.83198 0
    outer loop
      vertex 1.32379 6.22144 -4
      vertex 1.77902 5.91787 0
      vertex 1.32379 6.22144 0
    endloop
  endfacet
  facet normal -0.554806 -0.83198 -0
    outer loop
      vertex 1.77902 5.91787 0
      vertex 1.32379 6.22144 -4
      vertex 1.77902 5.91787 -4
    endloop
  endfacet
  facet normal -0.313397 -0.949622 0
    outer loop
      vertex 0.771919 6.40357 -4
      vertex 1.32379 6.22144 0
      vertex 0.771919 6.40357 0
    endloop
  endfacet
  facet normal -0.313397 -0.949622 -0
    outer loop
      vertex 1.32379 6.22144 0
      vertex 0.771919 6.40357 -4
      vertex 1.32379 6.22144 -4
    endloop
  endfacet
  facet normal -0.0932229 -0.995645 0
    outer loop
      vertex 0.123413 6.46429 -4
      vertex 0.771919 6.40357 0
      vertex 0.123413 6.46429 0
    endloop
  endfacet
  facet normal -0.0932229 -0.995645 -0
    outer loop
      vertex 0.771919 6.40357 0
      vertex 0.123413 6.46429 -4
      vertex 0.771919 6.40357 -4
    endloop
  endfacet
  facet normal 0.110713 -0.993852 0
    outer loop
      vertex -0.50721 6.39404 -4
      vertex 0.123413 6.46429 0
      vertex -0.50721 6.39404 0
    endloop
  endfacet
  facet normal 0.110713 -0.993852 0
    outer loop
      vertex 0.123413 6.46429 0
      vertex -0.50721 6.39404 -4
      vertex 0.123413 6.46429 -4
    endloop
  endfacet
  facet normal 0.352522 -0.935804 0
    outer loop
      vertex -1.06664 6.1833 -4
      vertex -0.50721 6.39404 0
      vertex -1.06664 6.1833 0
    endloop
  endfacet
  facet normal 0.352522 -0.935804 0
    outer loop
      vertex -0.50721 6.39404 0
      vertex -1.06664 6.1833 -4
      vertex -0.50721 6.39404 -4
    endloop
  endfacet
  facet normal 0.583976 -0.811771 0
    outer loop
      vertex -1.55489 5.83206 -4
      vertex -1.06664 6.1833 0
      vertex -1.55489 5.83206 0
    endloop
  endfacet
  facet normal 0.583976 -0.811771 0
    outer loop
      vertex -1.06664 6.1833 0
      vertex -1.55489 5.83206 -4
      vertex -1.06664 6.1833 -4
    endloop
  endfacet
  facet normal 0.762651 -0.64681 0
    outer loop
      vertex -1.97193 5.34033 0
      vertex -1.55489 5.83206 -4
      vertex -1.55489 5.83206 0
    endloop
  endfacet
  facet normal 0.762651 -0.64681 0
    outer loop
      vertex -1.55489 5.83206 -4
      vertex -1.97193 5.34033 0
      vertex -1.97193 5.34033 -4
    endloop
  endfacet
  facet normal 0.878723 -0.477332 0
    outer loop
      vertex -2.30569 4.72591 0
      vertex -1.97193 5.34033 -4
      vertex -1.97193 5.34033 0
    endloop
  endfacet
  facet normal 0.878723 -0.477332 0
    outer loop
      vertex -1.97193 5.34033 -4
      vertex -2.30569 4.72591 0
      vertex -2.30569 4.72591 -4
    endloop
  endfacet
  facet normal 0.94922 -0.314612 0
    outer loop
      vertex -2.54411 4.00657 0
      vertex -2.30569 4.72591 -4
      vertex -2.30569 4.72591 0
    endloop
  endfacet
  facet normal 0.94922 -0.314612 0
    outer loop
      vertex -2.30569 4.72591 -4
      vertex -2.54411 4.00657 0
      vertex -2.54411 4.00657 -4
    endloop
  endfacet
  facet normal 0.985273 -0.170986 0
    outer loop
      vertex -2.68715 3.18233 0
      vertex -2.54411 4.00657 -4
      vertex -2.54411 4.00657 0
    endloop
  endfacet
  facet normal 0.985273 -0.170986 0
    outer loop
      vertex -2.54411 4.00657 -4
      vertex -2.68715 3.18233 0
      vertex -2.68715 3.18233 -4
    endloop
  endfacet
  facet normal 0.998686 -0.0512483 0
    outer loop
      vertex -2.73483 2.25318 0
      vertex -2.68715 3.18233 -4
      vertex -2.68715 3.18233 0
    endloop
  endfacet
  facet normal 0.998686 -0.0512483 0
    outer loop
      vertex -2.68715 3.18233 -4
      vertex -2.73483 2.25318 0
      vertex -2.73483 2.25318 -4
    endloop
  endfacet
  facet normal 0.999372 0.0354354 0
    outer loop
      vertex -2.71257 1.62539 0
      vertex -2.73483 2.25318 -4
      vertex -2.73483 2.25318 0
    endloop
  endfacet
  facet normal 0.999372 0.0354354 0
    outer loop
      vertex -2.73483 2.25318 -4
      vertex -2.71257 1.62539 0
      vertex -2.71257 1.62539 -4
    endloop
  endfacet
  facet normal 0.993472 0.114079 0
    outer loop
      vertex -2.64581 1.044 0
      vertex -2.71257 1.62539 -4
      vertex -2.71257 1.62539 0
    endloop
  endfacet
  facet normal 0.993472 0.114079 0
    outer loop
      vertex -2.71257 1.62539 -4
      vertex -2.64581 1.044 0
      vertex -2.64581 1.044 -4
    endloop
  endfacet
  facet normal 0.979041 0.203663 0
    outer loop
      vertex -2.53452 0.50901 0
      vertex -2.64581 1.044 -4
      vertex -2.64581 1.044 0
    endloop
  endfacet
  facet normal 0.979041 0.203663 0
    outer loop
      vertex -2.64581 1.044 -4
      vertex -2.53452 0.50901 0
      vertex -2.53452 0.50901 -4
    endloop
  endfacet
  facet normal 0.952738 0.303794 0
    outer loop
      vertex -2.37873 0.0204315 0
      vertex -2.53452 0.50901 -4
      vertex -2.53452 0.50901 0
    endloop
  endfacet
  facet normal 0.952738 0.303794 0
    outer loop
      vertex -2.53452 0.50901 -4
      vertex -2.37873 0.0204315 0
      vertex -2.37873 0.0204315 -4
    endloop
  endfacet
  facet normal 0.911989 0.410214 0
    outer loop
      vertex -2.18199 -0.416962 0
      vertex -2.37873 0.0204315 -4
      vertex -2.37873 0.0204315 0
    endloop
  endfacet
  facet normal 0.911989 0.410214 0
    outer loop
      vertex -2.37873 0.0204315 -4
      vertex -2.18199 -0.416962 0
      vertex -2.18199 -0.416962 -4
    endloop
  endfacet
  facet normal 0.852143 0.523309 0
    outer loop
      vertex -1.94774 -0.798409 0
      vertex -2.18199 -0.416962 -4
      vertex -2.18199 -0.416962 0
    endloop
  endfacet
  facet normal 0.852143 0.523309 0
    outer loop
      vertex -2.18199 -0.416962 -4
      vertex -1.94774 -0.798409 0
      vertex -1.94774 -0.798409 -4
    endloop
  endfacet
  facet normal 0.767619 0.640907 0
    outer loop
      vertex -1.67597 -1.12391 0
      vertex -1.94774 -0.798409 -4
      vertex -1.94774 -0.798409 0
    endloop
  endfacet
  facet normal 0.767619 0.640907 0
    outer loop
      vertex -1.94774 -0.798409 -4
      vertex -1.67597 -1.12391 0
      vertex -1.67597 -1.12391 -4
    endloop
  endfacet
  facet normal 0.657014 0.753878 -0
    outer loop
      vertex -1.36668 -1.39346 -4
      vertex -1.67597 -1.12391 0
      vertex -1.36668 -1.39346 0
    endloop
  endfacet
  facet normal 0.657014 0.753878 0
    outer loop
      vertex -1.67597 -1.12391 0
      vertex -1.36668 -1.39346 -4
      vertex -1.67597 -1.12391 -4
    endloop
  endfacet
  facet normal 0.526778 0.850003 -0
    outer loop
      vertex -1.0256 -1.60484 -4
      vertex -1.36668 -1.39346 0
      vertex -1.0256 -1.60484 0
    endloop
  endfacet
  facet normal 0.526778 0.850003 0
    outer loop
      vertex -1.36668 -1.39346 0
      vertex -1.0256 -1.60484 -4
      vertex -1.36668 -1.39346 -4
    endloop
  endfacet
  facet normal 0.380325 0.924853 -0
    outer loop
      vertex -0.658455 -1.75582 -4
      vertex -1.0256 -1.60484 0
      vertex -0.658455 -1.75582 0
    endloop
  endfacet
  facet normal 0.380325 0.924853 0
    outer loop
      vertex -1.0256 -1.60484 0
      vertex -0.658455 -1.75582 -4
      vertex -1.0256 -1.60484 -4
    endloop
  endfacet
  facet normal 0.224508 0.974472 -0
    outer loop
      vertex -0.265251 -1.84641 -4
      vertex -0.658455 -1.75582 0
      vertex -0.265251 -1.84641 0
    endloop
  endfacet
  facet normal 0.224508 0.974472 0
    outer loop
      vertex -0.658455 -1.75582 0
      vertex -0.265251 -1.84641 -4
      vertex -0.658455 -1.75582 -4
    endloop
  endfacet
  facet normal 0.0718445 0.997416 -0
    outer loop
      vertex 0.154015 -1.87661 -4
      vertex -0.265251 -1.84641 0
      vertex 0.154015 -1.87661 0
    endloop
  endfacet
  facet normal 0.0718445 0.997416 0
    outer loop
      vertex -0.265251 -1.84641 0
      vertex 0.154015 -1.87661 -4
      vertex -0.265251 -1.84641 -4
    endloop
  endfacet
  facet normal -0.0544965 0.998514 0
    outer loop
      vertex 0.619957 -1.85118 -4
      vertex 0.154015 -1.87661 0
      vertex 0.619957 -1.85118 0
    endloop
  endfacet
  facet normal -0.0544965 0.998514 0
    outer loop
      vertex 0.154015 -1.87661 0
      vertex 0.619957 -1.85118 -4
      vertex 0.154015 -1.87661 -4
    endloop
  endfacet
  facet normal -1 0 0
    outer loop
      vertex -6 -10 -14
      vertex -6 10 -4
      vertex -6 10 -14
    endloop
  endfacet
  facet normal -1 -0 0
    outer loop
      vertex -6 10 -4
      vertex -6 -10 -14
      vertex -6 -10 -4
    endloop
  endfacet
  facet normal 0 0 -1
    outer loop
      vertex -6 -10 -14
      vertex 6 10 -14
      vertex 6 -10 -14
    endloop
  endfacet
  facet normal -0 0 -1
    outer loop
      vertex 6 10 -14
      vertex -6 -10 -14
      vertex -6 10 -14
    endloop
  endfacet
  facet normal 0 0 1
    outer loop
      vertex -6 10 -4
      vertex -4.55568 5.37589 -4
      vertex -4.55949 6.16674 -4
    endloop
  endfacet
  facet normal -0 0 1
    outer loop
      vertex 3.71922 -1.91231 -4
      vertex 3.91751 -4.94861 -4
      vertex 4.12642 -1.15926 -4
    endloop
  endfacet
  facet normal -0 0 1
    outer loop
      vertex 3.18613 -2.48856 -4
      vertex 3.91751 -4.94861 -4
      vertex 3.71922 -1.91231 -4
    endloop
  endfacet
  facet normal -0 0 1
    outer loop
      vertex 2.51764 -2.90017 -4
      vertex 3.91751 -4.94861 -4
      vertex 3.18613 -2.48856 -4
    endloop
  endfacet
  facet normal 0 0 1
    outer loop
      vertex 2.51764 -2.90017 -4
      vertex 2.04596 -4.69421 -4
      vertex 3.91751 -4.94861 -4
    endloop
  endfacet
  facet normal -0 0 1
    outer loop
      vertex 1.71373 -3.14714 -4
      vertex 2.04596 -4.69421 -4
      vertex 2.51764 -2.90017 -4
    endloop
  endfacet
  facet normal -0 0 1
    outer loop
      vertex 0.774414 -3.22946 -4
      vertex 2.04596 -4.69421 -4
      vertex 1.71373 -3.14714 -4
    endloop
  endfacet
  facet normal 0 0 1
    outer loop
      vertex 2.04596 -4.69421 -4
      vertex 0.774414 -3.22946 -4
      vertex 1.93438 -5.05372 -4
    endloop
  endfacet
  facet normal 0 0 1
    outer loop
      vertex 1.93438 -5.05372 -4
      vertex 0.774414 -3.22946 -4
      vertex 1.77259 -5.36936 -4
    endloop
  endfacet
  facet normal 0 0 1
    outer loop
      vertex 1.77259 -5.36936 -4
      vertex 0.774414 -3.22946 -4
      vertex 1.56059 -5.64112 -4
    endloop
  endfacet
  facet normal 0 0 1
    outer loop
      vertex 1.56059 -5.64112 -4
      vertex 0.774414 -3.22946 -4
      vertex 1.29836 -5.86901 -4
    endloop
  endfacet
  facet normal 0 0 1
    outer loop
      vertex 1.29836 -5.86901 -4
      vertex 0.774414 -3.22946 -4
      vertex 0.988396 -6.04928 -4
    endloop
  endfacet
  facet normal 0 0 1
    outer loop
      vertex 0.185112 -3.19576 -4
      vertex 0.988396 -6.04928 -4
      vertex 0.774414 -3.22946 -4
    endloop
  endfacet
  facet normal 0 0 1
    outer loop
      vertex 0.988396 -6.04928 -4
      vertex 0.185112 -3.19576 -4
      vertex 0.633301 -6.17805 -4
    endloop
  endfacet
  facet normal 0 0 1
    outer loop
      vertex 0.633301 -6.17805 -4
      vertex 0.185112 -3.19576 -4
      vertex 0.23307 -6.2553 -4
    endloop
  endfacet
  facet normal 0 0 1
    outer loop
      vertex 0.185112 -3.19576 -4
      vertex -0.21228 -6.28106 -4
      vertex 0.23307 -6.2553 -4
    endloop
  endfacet
  facet normal 0 0 1
    outer loop
      vertex -0.362244 -3.09468 -4
      vertex -0.21228 -6.28106 -4
      vertex 0.185112 -3.19576 -4
    endloop
  endfacet
  facet normal 0 0 1
    outer loop
      vertex -2.10419 -5.48002 -4
      vertex -0.362244 -3.09468 -4
      vertex -0.867661 -2.92622 -4
    endloop
  endfacet
  facet normal 0 0 1
    outer loop
      vertex -0.362244 -3.09468 -4
      vertex -1.3159 -6.0808 -4
      vertex -0.21228 -6.28106 -4
    endloop
  endfacet
  facet normal 0 0 1
    outer loop
      vertex -2.57717 -4.47872 -4
      vertex -0.867661 -2.92622 -4
      vertex -1.33113 -2.69036 -4
    endloop
  endfacet
  facet normal 0 0 1
    outer loop
      vertex -2.73483 -3.07691 -4
      vertex -1.33113 -2.69036 -4
      vertex -1.74946 -2.38902 -4
    endloop
  endfacet
  facet normal 0 0 1
    outer loop
      vertex -0.362244 -3.09468 -4
      vertex -2.10419 -5.48002 -4
      vertex -1.3159 -6.0808 -4
    endloop
  endfacet
  facet normal 0 0 1
    outer loop
      vertex -2.73483 -3.07691 -4
      vertex -1.74946 -2.38902 -4
      vertex -2.11945 -2.02409 -4
    endloop
  endfacet
  facet normal 0 0 1
    outer loop
      vertex -2.73483 -3.07691 -4
      vertex -2.11945 -2.02409 -4
      vertex -2.44111 -1.5956 -4
    endloop
  endfacet
  facet normal 0 0 1
    outer loop
      vertex -1.33113 -2.69036 -4
      vertex -2.73483 -3.07691 -4
      vertex -2.57717 -4.47872 -4
    endloop
  endfacet
  facet normal -0 0 1
    outer loop
      vertex -2.73483 -1.10351 -4
      vertex -2.44111 -1.5956 -4
      vertex -2.71443 -1.10351 -4
    endloop
  endfacet
  facet normal 0 0 1
    outer loop
      vertex -2.44111 -1.5956 -4
      vertex -2.73483 -1.10351 -4
      vertex -2.73483 -3.07691 -4
    endloop
  endfacet
  facet normal 0 0 1
    outer loop
      vertex -0.867661 -2.92622 -4
      vertex -2.57717 -4.47872 -4
      vertex -2.10419 -5.48002 -4
    endloop
  endfacet
  facet normal 0 0 1
    outer loop
      vertex 6 10 -4
      vertex 4.64996 2.23278 -4
      vertex 6 -10 -4
    endloop
  endfacet
  facet normal 0 0 1
    outer loop
      vertex 6 10 -4
      vertex 4.58767 3.57706 -4
      vertex 4.64996 2.23278 -4
    endloop
  endfacet
  facet normal 0 0 1
    outer loop
      vertex 6 10 -4
      vertex 4.40077 4.73126 -4
      vertex 4.58767 3.57706 -4
    endloop
  endfacet
  facet normal 0 0 1
    outer loop
      vertex 6 10 -4
      vertex 4.08929 5.69537 -4
      vertex 4.40077 4.73126 -4
    endloop
  endfacet
  facet normal 0 0 1
    outer loop
      vertex 6 10 -4
      vertex 3.65321 6.46938 -4
      vertex 4.08929 5.69537 -4
    endloop
  endfacet
  facet normal 0 0 1
    outer loop
      vertex 6 10 -4
      vertex 3.08737 7.06348 -4
      vertex 3.65321 6.46938 -4
    endloop
  endfacet
  facet normal 0 0 1
    outer loop
      vertex 6 10 -4
      vertex 2.38676 7.48785 -4
      vertex 3.08737 7.06348 -4
    endloop
  endfacet
  facet normal 0 0 1
    outer loop
      vertex 6 10 -4
      vertex 1.55138 7.74246 -4
      vertex 2.38676 7.48785 -4
    endloop
  endfacet
  facet normal 0 0 1
    outer loop
      vertex 6 10 -4
      vertex 0.581215 7.82733 -4
      vertex 1.55138 7.74246 -4
    endloop
  endfacet
  facet normal -0 0 1
    outer loop
      vertex -6 10 -4
      vertex 0.581215 7.82733 -4
      vertex 6 10 -4
    endloop
  endfacet
  facet normal 0 0 1
    outer loop
      vertex 0.581215 7.82733 -4
      vertex -6 10 -4
      vertex 0.0252457 7.79396 -4
    endloop
  endfacet
  facet normal 0 0 1
    outer loop
      vertex 0.0252457 7.79396 -4
      vertex -6 10 -4
      vertex -0.493195 7.69383 -4
    endloop
  endfacet
  facet normal -0 0 1
    outer loop
      vertex -2.75777 5.95157 -4
      vertex -2.72463 5.77264 -4
      vertex -2.47131 6.23769 -4
    endloop
  endfacet
  facet normal 0 0 1
    outer loop
      vertex -2.72463 5.77264 -4
      vertex -2.75777 5.95157 -4
      vertex -2.75523 5.77264 -4
    endloop
  endfacet
  facet normal -0 0 1
    outer loop
      vertex -2.77809 6.46771 -4
      vertex -2.47131 6.23769 -4
      vertex -2.16903 6.64616 -4
    endloop
  endfacet
  facet normal 0 0 1
    outer loop
      vertex -2.47131 6.23769 -4
      vertex -2.76539 6.18326 -4
      vertex -2.75777 5.95157 -4
    endloop
  endfacet
  facet normal 0 0 1
    outer loop
      vertex -2.81621 7.13078 -4
      vertex -2.16903 6.64616 -4
      vertex -1.81776 6.99804 -4
    endloop
  endfacet
  facet normal 0 0 1
    outer loop
      vertex -2.47131 6.23769 -4
      vertex -2.77809 6.46771 -4
      vertex -2.76539 6.18326 -4
    endloop
  endfacet
  facet normal 0 0 1
    outer loop
      vertex -2.85686 7.5555 -4
      vertex -1.81776 6.99804 -4
      vertex -1.41753 7.29333 -4
    endloop
  endfacet
  facet normal 0 0 1
    outer loop
      vertex -2.16903 6.64616 -4
      vertex -2.79588 6.80493 -4
      vertex -2.77809 6.46771 -4
    endloop
  endfacet
  facet normal 0 0 1
    outer loop
      vertex -2.87718 7.65438 -4
      vertex -1.41753 7.29333 -4
      vertex -0.974121 7.52696 -4
    endloop
  endfacet
  facet normal 0 0 1
    outer loop
      vertex -2.16903 6.64616 -4
      vertex -2.81621 7.13078 -4
      vertex -2.79588 6.80493 -4
    endloop
  endfacet
  facet normal 0 -0 1
    outer loop
      vertex -2.87718 7.65438 -4
      vertex -0.493195 7.69383 -4
      vertex -6 10 -4
    endloop
  endfacet
  facet normal 0 0 1
    outer loop
      vertex -1.81776 6.99804 -4
      vertex -2.83653 7.38097 -4
      vertex -2.81621 7.13078 -4
    endloop
  endfacet
  facet normal 0 0 1
    outer loop
      vertex -1.81776 6.99804 -4
      vertex -2.85686 7.5555 -4
      vertex -2.83653 7.38097 -4
    endloop
  endfacet
  facet normal 0 0 1
    outer loop
      vertex -1.41753 7.29333 -4
      vertex -2.87718 7.65438 -4
      vertex -2.85686 7.5555 -4
    endloop
  endfacet
  facet normal 0 0 1
    outer loop
      vertex -0.493195 7.69383 -4
      vertex -2.87718 7.65438 -4
      vertex -0.974121 7.52696 -4
    endloop
  endfacet
  facet normal 0 0 1
    outer loop
      vertex -2.87718 7.65438 -4
      vertex -6 10 -4
      vertex -4.61658 7.65438 -4
    endloop
  endfacet
  facet normal -0 0 1
    outer loop
      vertex 4.59179 0.913292 -4
      vertex 6 -10 -4
      vertex 4.64996 2.23278 -4
    endloop
  endfacet
  facet normal -0 0 1
    outer loop
      vertex 4.41727 -0.217384 -4
      vertex 6 -10 -4
      vertex 4.59179 0.913292 -4
    endloop
  endfacet
  facet normal 0 0 1
    outer loop
      vertex 3.91751 -4.94861 -4
      vertex 4.41727 -0.217384 -4
      vertex 4.12642 -1.15926 -4
    endloop
  endfacet
  facet normal 0 0 1
    outer loop
      vertex 4.41727 -0.217384 -4
      vertex 3.91751 -4.94861 -4
      vertex 6 -10 -4
    endloop
  endfacet
  facet normal -0 0 1
    outer loop
      vertex 3.72811 -5.5665 -4
      vertex 6 -10 -4
      vertex 3.91751 -4.94861 -4
    endloop
  endfacet
  facet normal -0 0 1
    outer loop
      vertex 3.4446 -6.10811 -4
      vertex 6 -10 -4
      vertex 3.72811 -5.5665 -4
    endloop
  endfacet
  facet normal -0 0 1
    outer loop
      vertex 3.06699 -6.57345 -4
      vertex 6 -10 -4
      vertex 3.4446 -6.10811 -4
    endloop
  endfacet
  facet normal -0 0 1
    outer loop
      vertex 2.59526 -6.96251 -4
      vertex 6 -10 -4
      vertex 3.06699 -6.57345 -4
    endloop
  endfacet
  facet normal -0 0 1
    outer loop
      vertex 2.03452 -7.26963 -4
      vertex 6 -10 -4
      vertex 2.59526 -6.96251 -4
    endloop
  endfacet
  facet normal -0 0 1
    outer loop
      vertex 1.38986 -7.48901 -4
      vertex 6 -10 -4
      vertex 2.03452 -7.26963 -4
    endloop
  endfacet
  facet normal -0 0 1
    outer loop
      vertex 0.661278 -7.62064 -4
      vertex 6 -10 -4
      vertex 1.38986 -7.48901 -4
    endloop
  endfacet
  facet normal -0 0 1
    outer loop
      vertex -0.15123 -7.66451 -4
      vertex 6 -10 -4
      vertex 0.661278 -7.62064 -4
    endloop
  endfacet
  facet normal 0 0 1
    outer loop
      vertex -6 -10 -4
      vertex -0.15123 -7.66451 -4
      vertex -1.20207 -7.59171 -4
    endloop
  endfacet
  facet normal 0 0 1
    outer loop
      vertex -6 -10 -4
      vertex -1.20207 -7.59171 -4
      vertex -2.1067 -7.37332 -4
    endloop
  endfacet
  facet normal 0 0 1
    outer loop
      vertex -6 10 -4
      vertex -4.55949 6.16674 -4
      vertex -4.57091 6.81011 -4
    endloop
  endfacet
  facet normal 0 0 1
    outer loop
      vertex -6 10 -4
      vertex -4.57091 6.81011 -4
      vertex -4.58994 7.30599 -4
    endloop
  endfacet
  facet normal 0 0 1
    outer loop
      vertex -6 10 -4
      vertex -4.58994 7.30599 -4
      vertex -4.61658 7.65438 -4
    endloop
  endfacet
  facet normal 0 0 1
    outer loop
      vertex -4.55568 5.37589 -4
      vertex -6 10 -4
      vertex -4.55568 -3.02606 -4
    endloop
  endfacet
  facet normal 0 0 1
    outer loop
      vertex -6 -10 -4
      vertex -4.55568 -3.02606 -4
      vertex -6 10 -4
    endloop
  endfacet
  facet normal 0 0 1
    outer loop
      vertex -0.15123 -7.66451 -4
      vertex -6 -10 -4
      vertex 6 -10 -4
    endloop
  endfacet
  facet normal 0 0 1
    outer loop
      vertex -2.86512 -7.00934 -4
      vertex -6 -10 -4
      vertex -2.1067 -7.37332 -4
    endloop
  endfacet
  facet normal 0 0 1
    outer loop
      vertex -3.47733 -6.49976 -4
      vertex -6 -10 -4
      vertex -2.86512 -7.00934 -4
    endloop
  endfacet
  facet normal 0 0 1
    outer loop
      vertex -3.9491 -5.84587 -4
      vertex -6 -10 -4
      vertex -3.47733 -6.49976 -4
    endloop
  endfacet
  facet normal 0 0 1
    outer loop
      vertex -4.28609 -5.04896 -4
      vertex -6 -10 -4
      vertex -3.9491 -5.84587 -4
    endloop
  endfacet
  facet normal 0 0 1
    outer loop
      vertex -4.48828 -4.10902 -4
      vertex -6 -10 -4
      vertex -4.28609 -5.04896 -4
    endloop
  endfacet
  facet normal 0 0 1
    outer loop
      vertex -4.55568 -3.02606 -4
      vertex -6 -10 -4
      vertex -4.48828 -4.10902 -4
    endloop
  endfacet
  facet normal -0 0 1
    outer loop
      vertex -2.68715 3.18233 -4
      vertex 2.75801 2.25318 -4
      vertex 2.71924 3.30627 -4
    endloop
  endfacet
  facet normal 0 -0 1
    outer loop
      vertex -2.71257 1.62539 -4
      vertex 2.75801 2.25318 -4
      vertex -2.73483 2.25318 -4
    endloop
  endfacet
  facet normal 0 0 1
    outer loop
      vertex 2.75801 2.25318 -4
      vertex -2.71257 1.62539 -4
      vertex 2.74181 1.52555 -4
    endloop
  endfacet
  facet normal -0 0 1
    outer loop
      vertex -2.54411 4.00657 -4
      vertex 2.71924 3.30627 -4
      vertex 2.60291 4.19726 -4
    endloop
  endfacet
  facet normal 0 -0 1
    outer loop
      vertex -2.64581 1.044 -4
      vertex 2.74181 1.52555 -4
      vertex -2.71257 1.62539 -4
    endloop
  endfacet
  facet normal 0 0 1
    outer loop
      vertex -1.97193 5.34033 -4
      vertex 2.60291 4.19726 -4
      vertex 2.40903 4.92612 -4
    endloop
  endfacet
  facet normal 0 0 1
    outer loop
      vertex 2.74181 1.52555 -4
      vertex -2.64581 1.044 -4
      vertex 2.69318 0.878662 -4
    endloop
  endfacet
  facet normal 0 -0 1
    outer loop
      vertex -2.53452 0.50901 -4
      vertex 2.69318 0.878662 -4
      vertex -2.64581 1.044 -4
    endloop
  endfacet
  facet normal 0 0 1
    outer loop
      vertex 0.771919 6.40357 -4
      vertex 2.40903 4.92612 -4
      vertex 2.13761 5.49288 -4
    endloop
  endfacet
  facet normal 0 -0 1
    outer loop
      vertex -2.37873 0.0204315 -4
      vertex 2.69318 0.878662 -4
      vertex -2.53452 0.50901 -4
    endloop
  endfacet
  facet normal 0 0 1
    outer loop
      vertex 1.32379 6.22144 -4
      vertex 2.13761 5.49288 -4
      vertex 1.77902 5.91787 -4
    endloop
  endfacet
  facet normal 0 0 1
    outer loop
      vertex 2.69318 0.878662 -4
      vertex -2.37873 0.0204315 -4
      vertex 2.61213 0.3125 -4
    endloop
  endfacet
  facet normal 0 -0 1
    outer loop
      vertex -2.18199 -0.416962 -4
      vertex 2.61213 0.3125 -4
      vertex -2.37873 0.0204315 -4
    endloop
  endfacet
  facet normal 0 0 1
    outer loop
      vertex 2.13761 5.49288 -4
      vertex 1.32379 6.22144 -4
      vertex 0.771919 6.40357 -4
    endloop
  endfacet
  facet normal 0 -0 1
    outer loop
      vertex -1.94774 -0.798409 -4
      vertex 2.61213 0.3125 -4
      vertex -2.18199 -0.416962 -4
    endloop
  endfacet
  facet normal 0 0 1
    outer loop
      vertex 2.40903 4.92612 -4
      vertex 0.771919 6.40357 -4
      vertex 0.123413 6.46429 -4
    endloop
  endfacet
  facet normal 0 0 1
    outer loop
      vertex 2.61213 0.3125 -4
      vertex -1.94774 -0.798409 -4
      vertex 2.49866 -0.172905 -4
    endloop
  endfacet
  facet normal 0 -0 1
    outer loop
      vertex 0.154015 -1.87661 -4
      vertex 2.49866 -0.172905 -4
      vertex -1.94774 -0.798409 -4
    endloop
  endfacet
  facet normal 0 0 1
    outer loop
      vertex 2.40903 4.92612 -4
      vertex 0.123413 6.46429 -4
      vertex -1.97193 5.34033 -4
    endloop
  endfacet
  facet normal 0 0 1
    outer loop
      vertex 2.49866 -0.172905 -4
      vertex 0.619957 -1.85118 -4
      vertex 2.3508 -0.5877 -4
    endloop
  endfacet
  facet normal 0 0 1
    outer loop
      vertex -1.97193 5.34033 -4
      vertex 0.123413 6.46429 -4
      vertex -0.50721 6.39404 -4
    endloop
  endfacet
  facet normal 0 -0 1
    outer loop
      vertex 1.03125 -1.77491 -4
      vertex 2.3508 -0.5877 -4
      vertex 0.619957 -1.85118 -4
    endloop
  endfacet
  facet normal 0 -0 1
    outer loop
      vertex 1.38789 -1.64778 -4
      vertex 1.9464 -1.23615 -4
      vertex 1.03125 -1.77491 -4
    endloop
  endfacet
  facet normal 0 0 1
    outer loop
      vertex -1.55489 5.83206 -4
      vertex -0.50721 6.39404 -4
      vertex -1.06664 6.1833 -4
    endloop
  endfacet
  facet normal 0 0 1
    outer loop
      vertex 1.9464 -1.23615 -4
      vertex 1.38789 -1.64778 -4
      vertex 1.68987 -1.46981 -4
    endloop
  endfacet
  facet normal 0 0 1
    outer loop
      vertex -0.50721 6.39404 -4
      vertex -1.55489 5.83206 -4
      vertex -1.97193 5.34033 -4
    endloop
  endfacet
  facet normal 0 0 1
    outer loop
      vertex 2.16671 -0.942108 -4
      vertex 1.03125 -1.77491 -4
      vertex 1.9464 -1.23615 -4
    endloop
  endfacet
  facet normal 0 0 1
    outer loop
      vertex 2.3508 -0.5877 -4
      vertex 1.03125 -1.77491 -4
      vertex 2.16671 -0.942108 -4
    endloop
  endfacet
  facet normal 0 0 1
    outer loop
      vertex 2.60291 4.19726 -4
      vertex -1.97193 5.34033 -4
      vertex -2.30569 4.72591 -4
    endloop
  endfacet
  facet normal 0 -0 1
    outer loop
      vertex 0.619957 -1.85118 -4
      vertex 2.49866 -0.172905 -4
      vertex 0.154015 -1.87661 -4
    endloop
  endfacet
  facet normal 0 0 1
    outer loop
      vertex 2.60291 4.19726 -4
      vertex -2.30569 4.72591 -4
      vertex -2.54411 4.00657 -4
    endloop
  endfacet
  facet normal 0 0 1
    outer loop
      vertex 0.154015 -1.87661 -4
      vertex -1.94774 -0.798409 -4
      vertex -0.265251 -1.84641 -4
    endloop
  endfacet
  facet normal 0 0 1
    outer loop
      vertex -0.265251 -1.84641 -4
      vertex -1.94774 -0.798409 -4
      vertex -0.658455 -1.75582 -4
    endloop
  endfacet
  facet normal 0 0 1
    outer loop
      vertex 2.71924 3.30627 -4
      vertex -2.54411 4.00657 -4
      vertex -2.68715 3.18233 -4
    endloop
  endfacet
  facet normal 0 0 1
    outer loop
      vertex 2.75801 2.25318 -4
      vertex -2.68715 3.18233 -4
      vertex -2.73483 2.25318 -4
    endloop
  endfacet
  facet normal 0 0 1
    outer loop
      vertex -0.658455 -1.75582 -4
      vertex -1.94774 -0.798409 -4
      vertex -1.0256 -1.60484 -4
    endloop
  endfacet
  facet normal 0 0 1
    outer loop
      vertex -1.36668 -1.39346 -4
      vertex -1.94774 -0.798409 -4
      vertex -1.67597 -1.12391 -4
    endloop
  endfacet
  facet normal 0 0 1
    outer loop
      vertex -1.0256 -1.60484 -4
      vertex -1.94774 -0.798409 -4
      vertex -1.36668 -1.39346 -4
    endloop
  endfacet
  facet normal 1 -0 0
    outer loop
      vertex 6 -10 -4
      vertex 6 10 -14
      vertex 6 10 -4
    endloop
  endfacet
  facet normal 1 0 0
    outer loop
      vertex 6 10 -14
      vertex 6 -10 -4
      vertex 6 -10 -14
    endloop
  endfacet
  facet normal 0 1 -0
    outer loop
      vertex 6 10 -14
      vertex -6 10 -4
      vertex 6 10 -4
    endloop
  endfacet
  facet normal 0 1 0
    outer loop
      vertex -6 10 -4
      vertex 6 10 -14
      vertex -6 10 -14
    endloop
  endfacet
  facet normal 0 -1 0
    outer loop
      vertex -6 -10 -14
      vertex 6 -10 -4
      vertex -6 -10 -4
    endloop
  endfacet
  facet normal 0 -1 -0
    outer loop
      vertex 6 -10 -4
      vertex -6 -10 -14
      vertex 6 -10 -14
    endloop
  endfacet
endsolid OpenSCAD_Model
