solid OpenSCAD_Model
  facet normal -0 0 1
    outer loop
      vertex -1.47348 7.72166 0
      vertex 0.560814 5.76866 0
      vertex 0.560814 7.72166 0
    endloop
  endfacet
  facet normal 0 0 1
    outer loop
      vertex 0.560814 5.76866 0
      vertex -1.47348 7.72166 0
      vertex -1.47348 5.76866 0
    endloop
  endfacet
  facet normal 0 0 1
    outer loop
      vertex 3.60221 3.63251 0
      vertex 0.357414 2.18816 0
      vertex 3.60221 2.18816 0
    endloop
  endfacet
  facet normal 0 0 1
    outer loop
      vertex -1.47348 -5.92908 0
      vertex 0.357414 2.18816 0
      vertex -1.47348 3.63251 0
    endloop
  endfacet
  facet normal -0 0 1
    outer loop
      vertex -1.47348 3.63251 0
      vertex 0.357414 2.18816 0
      vertex 3.60221 3.63251 0
    endloop
  endfacet
  facet normal -0 0 1
    outer loop
      vertex 0.357414 -5.92908 0
      vertex 4.64996 -7.37344 0
      vertex 4.64996 -5.92908 0
    endloop
  endfacet
  facet normal 0 0 1
    outer loop
      vertex 0.357414 2.18816 0
      vertex -1.47348 -5.92908 0
      vertex 0.357414 -5.92908 0
    endloop
  endfacet
  facet normal 0 0 1
    outer loop
      vertex -5.33883 -7.37344 0
      vertex 0.357414 -5.92908 0
      vertex -1.47348 -5.92908 0
    endloop
  endfacet
  facet normal 0 0 1
    outer loop
      vertex -5.33883 -7.37344 0
      vertex -1.47348 -5.92908 0
      vertex -5.33883 -5.92908 0
    endloop
  endfacet
  facet normal 0 0 1
    outer loop
      vertex 0.357414 -5.92908 0
      vertex -5.33883 -7.37344 0
      vertex 4.64996 -7.37344 0
    endloop
  endfacet
  facet normal 0 1 -0
    outer loop
      vertex 0.560814 7.72166 -4
      vertex -1.47348 7.72166 0
      vertex 0.560814 7.72166 0
    endloop
  endfacet
  facet normal 0 1 0
    outer loop
      vertex -1.47348 7.72166 0
      vertex 0.560814 7.72166 -4
      vertex -1.47348 7.72166 -4
    endloop
  endfacet
  facet normal 1 -0 0
    outer loop
      vertex 0.560814 5.76866 0
      vertex 0.560814 7.72166 -4
      vertex 0.560814 7.72166 0
    endloop
  endfacet
  facet normal 1 0 0
    outer loop
      vertex 0.560814 7.72166 -4
      vertex 0.560814 5.76866 0
      vertex 0.560814 5.76866 -4
    endloop
  endfacet
  facet normal 0 -1 0
    outer loop
      vertex -1.47348 5.76866 -4
      vertex 0.560814 5.76866 0
      vertex -1.47348 5.76866 0
    endloop
  endfacet
  facet normal 0 -1 -0
    outer loop
      vertex 0.560814 5.76866 0
      vertex -1.47348 5.76866 -4
      vertex 0.560814 5.76866 -4
    endloop
  endfacet
  facet normal -1 0 0
    outer loop
      vertex -1.47348 5.76866 -4
      vertex -1.47348 7.72166 0
      vertex -1.47348 7.72166 -4
    endloop
  endfacet
  facet normal -1 -0 0
    outer loop
      vertex -1.47348 7.72166 0
      vertex -1.47348 5.76866 -4
      vertex -1.47348 5.76866 0
    endloop
  endfacet
  facet normal 0 1 -0
    outer loop
      vertex -1.47348 -5.92908 -4
      vertex -5.33883 -5.92908 0
      vertex -1.47348 -5.92908 0
    endloop
  endfacet
  facet normal 0 1 0
    outer loop
      vertex -5.33883 -5.92908 0
      vertex -1.47348 -5.92908 -4
      vertex -5.33883 -5.92908 -4
    endloop
  endfacet
  facet normal -1 0 0
    outer loop
      vertex -1.47348 -5.92908 -4
      vertex -1.47348 3.63251 0
      vertex -1.47348 3.63251 -4
    endloop
  endfacet
  facet normal -1 -0 0
    outer loop
      vertex -1.47348 3.63251 0
      vertex -1.47348 -5.92908 -4
      vertex -1.47348 -5.92908 0
    endloop
  endfacet
  facet normal 0 1 -0
    outer loop
      vertex 3.60221 3.63251 -4
      vertex -1.47348 3.63251 0
      vertex 3.60221 3.63251 0
    endloop
  endfacet
  facet normal 0 1 0
    outer loop
      vertex -1.47348 3.63251 0
      vertex 3.60221 3.63251 -4
      vertex -1.47348 3.63251 -4
    endloop
  endfacet
  facet normal 1 -0 0
    outer loop
      vertex 3.60221 2.18816 0
      vertex 3.60221 3.63251 -4
      vertex 3.60221 3.63251 0
    endloop
  endfacet
  facet normal 1 0 0
    outer loop
      vertex 3.60221 3.63251 -4
      vertex 3.60221 2.18816 0
      vertex 3.60221 2.18816 -4
    endloop
  endfacet
  facet normal 0 -1 0
    outer loop
      vertex 0.357414 2.18816 -4
      vertex 3.60221 2.18816 0
      vertex 0.357414 2.18816 0
    endloop
  endfacet
  facet normal 0 -1 -0
    outer loop
      vertex 3.60221 2.18816 0
      vertex 0.357414 2.18816 -4
      vertex 3.60221 2.18816 -4
    endloop
  endfacet
  facet normal 1 -0 0
    outer loop
      vertex 0.357414 -5.92908 0
      vertex 0.357414 2.18816 -4
      vertex 0.357414 2.18816 0
    endloop
  endfacet
  facet normal 1 0 0
    outer loop
      vertex 0.357414 2.18816 -4
      vertex 0.357414 -5.92908 0
      vertex 0.357414 -5.92908 -4
    endloop
  endfacet
  facet normal 0 1 -0
    outer loop
      vertex 4.64996 -5.92908 -4
      vertex 0.357414 -5.92908 0
      vertex 4.64996 -5.92908 0
    endloop
  endfacet
  facet normal 0 1 0
    outer loop
      vertex 0.357414 -5.92908 0
      vertex 4.64996 -5.92908 -4
      vertex 0.357414 -5.92908 -4
    endloop
  endfacet
  facet normal 1 -0 0
    outer loop
      vertex 4.64996 -7.37344 0
      vertex 4.64996 -5.92908 -4
      vertex 4.64996 -5.92908 0
    endloop
  endfacet
  facet normal 1 0 0
    outer loop
      vertex 4.64996 -5.92908 -4
      vertex 4.64996 -7.37344 0
      vertex 4.64996 -7.37344 -4
    endloop
  endfacet
  facet normal 0 -1 0
    outer loop
      vertex -5.33883 -7.37344 -4
      vertex 4.64996 -7.37344 0
      vertex -5.33883 -7.37344 0
    endloop
  endfacet
  facet normal 0 -1 -0
    outer loop
      vertex 4.64996 -7.37344 0
      vertex -5.33883 -7.37344 -4
      vertex 4.64996 -7.37344 -4
    endloop
  endfacet
  facet normal -1 0 0
    outer loop
      vertex -5.33883 -7.37344 -4
      vertex -5.33883 -5.92908 0
      vertex -5.33883 -5.92908 -4
    endloop
  endfacet
  facet normal -1 -0 0
    outer loop
      vertex -5.33883 -5.92908 0
      vertex -5.33883 -7.37344 -4
      vertex -5.33883 -7.37344 0
    endloop
  endfacet
  facet normal -1 0 0
    outer loop
      vertex -6 -10 -14
      vertex -6 10 -4
      vertex -6 10 -14
    endloop
  endfacet
  facet normal -1 -0 0
    outer loop
      vertex -6 10 -4
      vertex -6 -10 -14
      vertex -6 -10 -4
    endloop
  endfacet
  facet normal 0 0 -1
    outer loop
      vertex -6 -10 -14
      vertex 6 10 -14
      vertex 6 -10 -14
    endloop
  endfacet
  facet normal -0 0 -1
    outer loop
      vertex 6 10 -14
      vertex -6 -10 -14
      vertex -6 10 -14
    endloop
  endfacet
  facet normal 0 0 1
    outer loop
      vertex 6 10 -4
      vertex 4.64996 -5.92908 -4
      vertex 6 -10 -4
    endloop
  endfacet
  facet normal 0 0 1
    outer loop
      vertex 3.60221 2.18816 -4
      vertex 6 10 -4
      vertex 3.60221 3.63251 -4
    endloop
  endfacet
  facet normal 0 0 1
    outer loop
      vertex 6 10 -4
      vertex 0.560814 7.72166 -4
      vertex 3.60221 3.63251 -4
    endloop
  endfacet
  facet normal -0 0 1
    outer loop
      vertex -6 10 -4
      vertex 0.560814 7.72166 -4
      vertex 6 10 -4
    endloop
  endfacet
  facet normal 0 0 1
    outer loop
      vertex -6 10 -4
      vertex -1.47348 5.76866 -4
      vertex -1.47348 7.72166 -4
    endloop
  endfacet
  facet normal 0 0 1
    outer loop
      vertex -1.47348 5.76866 -4
      vertex -6 10 -4
      vertex -1.47348 3.63251 -4
    endloop
  endfacet
  facet normal 0 0 1
    outer loop
      vertex -1.47348 3.63251 -4
      vertex -5.33883 -5.92908 -4
      vertex -1.47348 -5.92908 -4
    endloop
  endfacet
  facet normal 0 0 1
    outer loop
      vertex -6 -10 -4
      vertex -5.33883 -5.92908 -4
      vertex -6 10 -4
    endloop
  endfacet
  facet normal 0 0 1
    outer loop
      vertex -1.47348 3.63251 -4
      vertex -6 10 -4
      vertex -5.33883 -5.92908 -4
    endloop
  endfacet
  facet normal 0 0 1
    outer loop
      vertex 0.560814 7.72166 -4
      vertex -6 10 -4
      vertex -1.47348 7.72166 -4
    endloop
  endfacet
  facet normal -0 0 1
    outer loop
      vertex 4.64996 -7.37344 -4
      vertex 6 -10 -4
      vertex 4.64996 -5.92908 -4
    endloop
  endfacet
  facet normal 0 0 1
    outer loop
      vertex -6 -10 -4
      vertex 4.64996 -7.37344 -4
      vertex -5.33883 -7.37344 -4
    endloop
  endfacet
  facet normal 0 0 1
    outer loop
      vertex 4.64996 -7.37344 -4
      vertex -6 -10 -4
      vertex 6 -10 -4
    endloop
  endfacet
  facet normal 0 0 1
    outer loop
      vertex -5.33883 -5.92908 -4
      vertex -6 -10 -4
      vertex -5.33883 -7.37344 -4
    endloop
  endfacet
  facet normal 0 0 1
    outer loop
      vertex 6 10 -4
      vertex 3.60221 2.18816 -4
      vertex 4.64996 -5.92908 -4
    endloop
  endfacet
  facet normal 0 0 1
    outer loop
      vertex 0.357414 -5.92908 -4
      vertex 3.60221 2.18816 -4
      vertex 0.357414 2.18816 -4
    endloop
  endfacet
  facet normal 0 0 1
    outer loop
      vertex 3.60221 2.18816 -4
      vertex 0.357414 -5.92908 -4
      vertex 4.64996 -5.92908 -4
    endloop
  endfacet
  facet normal -0 0 1
    outer loop
      vertex 0.560814 5.76866 -4
      vertex 3.60221 3.63251 -4
      vertex 0.560814 7.72166 -4
    endloop
  endfacet
  facet normal 0 0 1
    outer loop
      vertex -1.47348 3.63251 -4
      vertex 0.560814 5.76866 -4
      vertex -1.47348 5.76866 -4
    endloop
  endfacet
  facet normal 0 0 1
    outer loop
      vertex 0.560814 5.76866 -4
      vertex -1.47348 3.63251 -4
      vertex 3.60221 3.63251 -4
    endloop
  endfacet
  facet normal 1 -0 0
    outer loop
      vertex 6 -10 -4
      vertex 6 10 -14
      vertex 6 10 -4
    endloop
  endfacet
  facet normal 1 0 0
    outer loop
      vertex 6 10 -14
      vertex 6 -10 -4
      vertex 6 -10 -14
    endloop
  endfacet
  facet normal 0 1 -0
    outer loop
      vertex 6 10 -14
      vertex -6 10 -4
      vertex 6 10 -4
    endloop
  endfacet
  facet normal 0 1 0
    outer loop
      vertex -6 10 -4
      vertex 6 10 -14
      vertex -6 10 -14
    endloop
  endfacet
  facet normal 0 -1 0
    outer loop
      vertex -6 -10 -14
      vertex 6 -10 -4
      vertex -6 -10 -4
    endloop
  endfacet
  facet normal 0 -1 -0
    outer loop
      vertex 6 -10 -4
      vertex -6 -10 -14
      vertex 6 -10 -14
    endloop
  endfacet
endsolid OpenSCAD_Model
