solid OpenSCAD_Model
  facet normal 0 0 1
    outer loop
      vertex 4.78211 0.14122 0
      vertex 2.81394 1.1489 0
      vertex 2.85971 0.14122 0
    endloop
  endfacet
  facet normal 0 0 1
    outer loop
      vertex 2.12741 3.38602 0
      vertex 3.49541 4.40827 0
      vertex 2.78499 5.03355 0
    endloop
  endfacet
  facet normal 0 0 1
    outer loop
      vertex 4.05834 3.60569 0
      vertex 2.67664 2.0256 0
      vertex 2.81394 1.1489 0
    endloop
  endfacet
  facet normal 0 0 1
    outer loop
      vertex 4.05834 3.60569 0
      vertex 2.44779 2.7713 0
      vertex 2.67664 2.0256 0
    endloop
  endfacet
  facet normal 0 0 1
    outer loop
      vertex 4.05834 3.60569 0
      vertex 2.12741 3.38602 0
      vertex 2.44779 2.7713 0
    endloop
  endfacet
  facet normal 0 0 1
    outer loop
      vertex 1.70843 3.86666 0
      vertex 2.78499 5.03355 0
      vertex 1.9404 5.48017 0
    endloop
  endfacet
  facet normal 0 0 1
    outer loop
      vertex 2.78499 5.03355 0
      vertex 1.70843 3.86666 0
      vertex 2.12741 3.38602 0
    endloop
  endfacet
  facet normal 0 0 1
    outer loop
      vertex 1.9404 5.48017 0
      vertex 1.18391 4.20997 0
      vertex 1.70843 3.86666 0
    endloop
  endfacet
  facet normal 0 0 1
    outer loop
      vertex 0.961662 5.74815 0
      vertex 1.18391 4.20997 0
      vertex 1.9404 5.48017 0
    endloop
  endfacet
  facet normal 0 0 1
    outer loop
      vertex 0.961662 5.74815 0
      vertex 0.553879 4.41596 0
      vertex 1.18391 4.20997 0
    endloop
  endfacet
  facet normal 0 0 1
    outer loop
      vertex -0.15123 5.83747 0
      vertex 0.553879 4.41596 0
      vertex 0.961662 5.74815 0
    endloop
  endfacet
  facet normal 0 0 1
    outer loop
      vertex -0.15123 5.83747 0
      vertex -0.181679 4.48462 0
      vertex 0.553879 4.41596 0
    endloop
  endfacet
  facet normal 0 0 1
    outer loop
      vertex -0.15123 5.83747 0
      vertex -0.906082 4.41724 0
      vertex -0.181679 4.48462 0
    endloop
  endfacet
  facet normal -0 0 1
    outer loop
      vertex -1.31271 5.7491 0
      vertex -0.906082 4.41724 0
      vertex -0.15123 5.83747 0
    endloop
  endfacet
  facet normal 0 0 1
    outer loop
      vertex -1.31271 5.7491 0
      vertex -1.52306 4.21507 0
      vertex -0.906082 4.41724 0
    endloop
  endfacet
  facet normal -0 0 1
    outer loop
      vertex -2.31524 5.48399 0
      vertex -1.52306 4.21507 0
      vertex -1.31271 5.7491 0
    endloop
  endfacet
  facet normal 0 0 1
    outer loop
      vertex -1.52306 4.21507 0
      vertex -2.31524 5.48399 0
      vertex -2.03259 3.87814 0
    endloop
  endfacet
  facet normal -0 0 1
    outer loop
      vertex -3.15884 5.04215 0
      vertex -2.03259 3.87814 0
      vertex -2.31524 5.48399 0
    endloop
  endfacet
  facet normal 0 0 1
    outer loop
      vertex -2.03259 3.87814 0
      vertex -3.15884 5.04215 0
      vertex -2.43468 3.40642 0
    endloop
  endfacet
  facet normal -0 0 1
    outer loop
      vertex -3.84348 4.42357 0
      vertex -2.43468 3.40642 0
      vertex -3.15884 5.04215 0
    endloop
  endfacet
  facet normal 0 0 1
    outer loop
      vertex -4.75136 2.64611 0
      vertex -2.73957 2.79802 0
      vertex -4.37307 3.62577 0
    endloop
  endfacet
  facet normal 0 0 1
    outer loop
      vertex -2.43468 3.40642 0
      vertex -4.37307 3.62577 0
      vertex -2.73957 2.79802 0
    endloop
  endfacet
  facet normal -0 0 1
    outer loop
      vertex -4.37307 3.62577 0
      vertex -2.43468 3.40642 0
      vertex -3.84348 4.42357 0
    endloop
  endfacet
  facet normal -0 0 1
    outer loop
      vertex 2.81394 1.1489 0
      vertex 4.78211 0.14122 0
      vertex 4.70169 1.47216 0
    endloop
  endfacet
  facet normal 0 0 1
    outer loop
      vertex 2.81394 -0.862892 0
      vertex 4.78211 0.14122 0
      vertex 2.85971 0.14122 0
    endloop
  endfacet
  facet normal 0 0 1
    outer loop
      vertex 2.81394 1.1489 0
      vertex 4.70169 1.47216 0
      vertex 4.46044 2.62698 0
    endloop
  endfacet
  facet normal 0 0 1
    outer loop
      vertex 4.78211 0.14122 0
      vertex 2.81394 -0.862892 0
      vertex 4.70361 -1.15312 0
    endloop
  endfacet
  facet normal 0 0 1
    outer loop
      vertex 2.81394 1.1489 0
      vertex 4.46044 2.62698 0
      vertex 4.05834 3.60569 0
    endloop
  endfacet
  facet normal 0 0 1
    outer loop
      vertex 2.67664 -1.73924 0
      vertex 4.70361 -1.15312 0
      vertex 2.81394 -0.862892 0
    endloop
  endfacet
  facet normal 0 0 1
    outer loop
      vertex 2.12741 3.38602 0
      vertex 4.05834 3.60569 0
      vertex 3.49541 4.40827 0
    endloop
  endfacet
  facet normal 0 0 1
    outer loop
      vertex 4.70361 -1.15312 0
      vertex 2.67664 -1.73924 0
      vertex 4.46809 -2.28982 0
    endloop
  endfacet
  facet normal 0 0 1
    outer loop
      vertex 2.44779 -2.48784 0
      vertex 4.46809 -2.28982 0
      vertex 2.67664 -1.73924 0
    endloop
  endfacet
  facet normal 0 0 1
    outer loop
      vertex 4.46809 -2.28982 0
      vertex 2.44779 -2.48784 0
      vertex 4.07555 -3.26887 0
    endloop
  endfacet
  facet normal 0 0 1
    outer loop
      vertex 4.07555 -3.26887 0
      vertex 2.44779 -2.48784 0
      vertex 3.52602 -4.09027 0
    endloop
  endfacet
  facet normal -0 0 1
    outer loop
      vertex 2.12741 -3.10867 0
      vertex 3.52602 -4.09027 0
      vertex 2.44779 -2.48784 0
    endloop
  endfacet
  facet normal 0 0 1
    outer loop
      vertex 3.52602 -4.09027 0
      vertex 2.12741 -3.10867 0
      vertex 2.8289 -4.73996 0
    endloop
  endfacet
  facet normal -0 0 1
    outer loop
      vertex 1.71542 -3.59594 0
      vertex 2.8289 -4.73996 0
      vertex 2.12741 -3.10867 0
    endloop
  endfacet
  facet normal 0 0 1
    outer loop
      vertex 2.8289 -4.73996 0
      vertex 1.71542 -3.59594 0
      vertex 1.99384 -5.20402 0
    endloop
  endfacet
  facet normal -0 0 1
    outer loop
      vertex 1.21189 -3.94398 0
      vertex 1.99384 -5.20402 0
      vertex 1.71542 -3.59594 0
    endloop
  endfacet
  facet normal 0 0 1
    outer loop
      vertex 1.21189 -3.94398 0
      vertex 1.02081 -5.48246 0
      vertex 1.99384 -5.20402 0
    endloop
  endfacet
  facet normal -0 0 1
    outer loop
      vertex 0.616821 -4.15281 0
      vertex 1.02081 -5.48246 0
      vertex 1.21189 -3.94398 0
    endloop
  endfacet
  facet normal 0 0 1
    outer loop
      vertex -0.0901794 -5.57527 0
      vertex 0.616821 -4.15281 0
      vertex -0.0697784 -4.22242 0
    endloop
  endfacet
  facet normal 0 0 1
    outer loop
      vertex 0.616821 -4.15281 0
      vertex -0.0901794 -5.57527 0
      vertex 1.02081 -5.48246 0
    endloop
  endfacet
  facet normal 0 0 1
    outer loop
      vertex -0.822487 -4.1544 0
      vertex -0.0901794 -5.57527 0
      vertex -0.0697784 -4.22242 0
    endloop
  endfacet
  facet normal 0 0 1
    outer loop
      vertex -0.822487 -4.1544 0
      vertex -1.22462 -5.48341 0
      vertex -0.0901794 -5.57527 0
    endloop
  endfacet
  facet normal 0 0 1
    outer loop
      vertex -1.46332 -3.95032 0
      vertex -1.22462 -5.48341 0
      vertex -0.822487 -4.1544 0
    endloop
  endfacet
  facet normal 0 0 1
    outer loop
      vertex -2.21729 -5.20781 0
      vertex -1.46332 -3.95032 0
      vertex -1.99226 -3.6102 0
    endloop
  endfacet
  facet normal 0 0 1
    outer loop
      vertex -1.46332 -3.95032 0
      vertex -2.21729 -5.20781 0
      vertex -1.22462 -5.48341 0
    endloop
  endfacet
  facet normal 0 0 1
    outer loop
      vertex -3.06819 -4.74848 0
      vertex -1.99226 -3.6102 0
      vertex -2.40933 -3.13402 0
    endloop
  endfacet
  facet normal 0 0 1
    outer loop
      vertex -3.77733 -4.10542 0
      vertex -2.40933 -3.13402 0
      vertex -2.72531 -2.52117 0
    endloop
  endfacet
  facet normal -0 0 1
    outer loop
      vertex -4.73482 -2.30883 0
      vertex -2.72531 -2.52117 0
      vertex -2.95102 -1.77101 0
    endloop
  endfacet
  facet normal 0 0 1
    outer loop
      vertex -1.99226 -3.6102 0
      vertex -3.06819 -4.74848 0
      vertex -2.21729 -5.20781 0
    endloop
  endfacet
  facet normal -0 0 1
    outer loop
      vertex -4.97419 -1.16549 0
      vertex -2.95102 -1.77101 0
      vertex -3.08644 -0.883545 0
    endloop
  endfacet
  facet normal -0 0 1
    outer loop
      vertex -5.05398 0.14122 0
      vertex -3.08644 -0.883545 0
      vertex -3.13158 0.14122 0
    endloop
  endfacet
  facet normal 0 0 1
    outer loop
      vertex -2.40933 -3.13402 0
      vertex -3.77733 -4.10542 0
      vertex -3.06819 -4.74848 0
    endloop
  endfacet
  facet normal 0 0 1
    outer loop
      vertex -2.73957 2.79802 0
      vertex -4.75136 2.64611 0
      vertex -2.95735 2.05102 0
    endloop
  endfacet
  facet normal 0 0 1
    outer loop
      vertex -4.97832 1.4846 0
      vertex -2.95735 2.05102 0
      vertex -4.75136 2.64611 0
    endloop
  endfacet
  facet normal 0 0 1
    outer loop
      vertex -3.08644 -0.883545 0
      vertex -5.05398 0.14122 0
      vertex -4.97419 -1.16549 0
    endloop
  endfacet
  facet normal 0 0 1
    outer loop
      vertex -2.95735 2.05102 0
      vertex -4.97832 1.4846 0
      vertex -3.08802 1.16542 0
    endloop
  endfacet
  facet normal 0 0 1
    outer loop
      vertex -2.95102 -1.77101 0
      vertex -4.97419 -1.16549 0
      vertex -4.73482 -2.30883 0
    endloop
  endfacet
  facet normal 0 0 1
    outer loop
      vertex -5.05398 0.14122 0
      vertex -3.08802 1.16542 0
      vertex -4.97832 1.4846 0
    endloop
  endfacet
  facet normal 0 0 1
    outer loop
      vertex -2.72531 -2.52117 0
      vertex -4.73482 -2.30883 0
      vertex -4.33586 -3.28881 0
    endloop
  endfacet
  facet normal 0 0 1
    outer loop
      vertex -3.08802 1.16542 0
      vertex -5.05398 0.14122 0
      vertex -3.13158 0.14122 0
    endloop
  endfacet
  facet normal 0 0 1
    outer loop
      vertex -2.72531 -2.52117 0
      vertex -4.33586 -3.28881 0
      vertex -3.77733 -4.10542 0
    endloop
  endfacet
  facet normal -0.267516 -0.963553 0
    outer loop
      vertex -2.21729 -5.20781 -4
      vertex -1.22462 -5.48341 0
      vertex -2.21729 -5.20781 0
    endloop
  endfacet
  facet normal -0.267516 -0.963553 -0
    outer loop
      vertex -1.22462 -5.48341 0
      vertex -2.21729 -5.20781 -4
      vertex -1.22462 -5.48341 -4
    endloop
  endfacet
  facet normal -0.475024 -0.879973 0
    outer loop
      vertex -3.06819 -4.74848 -4
      vertex -2.21729 -5.20781 0
      vertex -3.06819 -4.74848 0
    endloop
  endfacet
  facet normal -0.475024 -0.879973 -0
    outer loop
      vertex -2.21729 -5.20781 0
      vertex -3.06819 -4.74848 -4
      vertex -2.21729 -5.20781 -4
    endloop
  endfacet
  facet normal -0.67175 -0.740778 0
    outer loop
      vertex -3.77733 -4.10542 -4
      vertex -3.06819 -4.74848 0
      vertex -3.77733 -4.10542 0
    endloop
  endfacet
  facet normal -0.67175 -0.740778 -0
    outer loop
      vertex -3.06819 -4.74848 0
      vertex -3.77733 -4.10542 -4
      vertex -3.06819 -4.74848 -4
    endloop
  endfacet
  facet normal -0.825403 -0.564544 0
    outer loop
      vertex -3.77733 -4.10542 -4
      vertex -4.33586 -3.28881 0
      vertex -4.33586 -3.28881 -4
    endloop
  endfacet
  facet normal -0.825403 -0.564544 0
    outer loop
      vertex -4.33586 -3.28881 0
      vertex -3.77733 -4.10542 -4
      vertex -3.77733 -4.10542 0
    endloop
  endfacet
  facet normal -0.926188 -0.377061 0
    outer loop
      vertex -4.33586 -3.28881 -4
      vertex -4.73482 -2.30883 0
      vertex -4.73482 -2.30883 -4
    endloop
  endfacet
  facet normal -0.926188 -0.377061 0
    outer loop
      vertex -4.73482 -2.30883 0
      vertex -4.33586 -3.28881 -4
      vertex -4.33586 -3.28881 0
    endloop
  endfacet
  facet normal -0.978779 -0.204918 0
    outer loop
      vertex -4.73482 -2.30883 -4
      vertex -4.97419 -1.16549 0
      vertex -4.97419 -1.16549 -4
    endloop
  endfacet
  facet normal -0.978779 -0.204918 0
    outer loop
      vertex -4.97419 -1.16549 0
      vertex -4.73482 -2.30883 -4
      vertex -4.73482 -2.30883 0
    endloop
  endfacet
  facet normal -0.998141 -0.0609482 0
    outer loop
      vertex -4.97419 -1.16549 -4
      vertex -5.05398 0.14122 0
      vertex -5.05398 0.14122 -4
    endloop
  endfacet
  facet normal -0.998141 -0.0609482 0
    outer loop
      vertex -5.05398 0.14122 0
      vertex -4.97419 -1.16549 -4
      vertex -4.97419 -1.16549 0
    endloop
  endfacet
  facet normal -0.998418 0.0562315 0
    outer loop
      vertex -5.05398 0.14122 -4
      vertex -4.97832 1.4846 0
      vertex -4.97832 1.4846 -4
    endloop
  endfacet
  facet normal -0.998418 0.0562315 0
    outer loop
      vertex -4.97832 1.4846 0
      vertex -5.05398 0.14122 -4
      vertex -5.05398 0.14122 0
    endloop
  endfacet
  facet normal -0.981439 0.191774 0
    outer loop
      vertex -4.97832 1.4846 -4
      vertex -4.75136 2.64611 0
      vertex -4.75136 2.64611 -4
    endloop
  endfacet
  facet normal -0.981439 0.191774 0
    outer loop
      vertex -4.75136 2.64611 0
      vertex -4.97832 1.4846 -4
      vertex -4.97832 1.4846 0
    endloop
  endfacet
  facet normal -0.932867 0.360221 0
    outer loop
      vertex -4.75136 2.64611 -4
      vertex -4.37307 3.62577 0
      vertex -4.37307 3.62577 -4
    endloop
  endfacet
  facet normal -0.932867 0.360221 0
    outer loop
      vertex -4.37307 3.62577 0
      vertex -4.75136 2.64611 -4
      vertex -4.75136 2.64611 0
    endloop
  endfacet
  facet normal -0.833146 0.553053 0
    outer loop
      vertex -4.37307 3.62577 -4
      vertex -3.84348 4.42357 0
      vertex -3.84348 4.42357 -4
    endloop
  endfacet
  facet normal -0.833146 0.553053 0
    outer loop
      vertex -3.84348 4.42357 0
      vertex -4.37307 3.62577 -4
      vertex -4.37307 3.62577 0
    endloop
  endfacet
  facet normal -0.670403 0.741997 0
    outer loop
      vertex -3.15884 5.04215 -4
      vertex -3.84348 4.42357 0
      vertex -3.15884 5.04215 0
    endloop
  endfacet
  facet normal -0.670403 0.741997 0
    outer loop
      vertex -3.84348 4.42357 0
      vertex -3.15884 5.04215 -4
      vertex -3.84348 4.42357 -4
    endloop
  endfacet
  facet normal -0.463969 0.885851 0
    outer loop
      vertex -2.31524 5.48399 -4
      vertex -3.15884 5.04215 0
      vertex -2.31524 5.48399 0
    endloop
  endfacet
  facet normal -0.463969 0.885851 0
    outer loop
      vertex -3.15884 5.04215 0
      vertex -2.31524 5.48399 -4
      vertex -3.15884 5.04215 -4
    endloop
  endfacet
  facet normal -0.255653 0.966769 0
    outer loop
      vertex -1.31271 5.7491 -4
      vertex -2.31524 5.48399 0
      vertex -1.31271 5.7491 0
    endloop
  endfacet
  facet normal -0.255653 0.966769 0
    outer loop
      vertex -2.31524 5.48399 0
      vertex -1.31271 5.7491 -4
      vertex -2.31524 5.48399 -4
    endloop
  endfacet
  facet normal -0.0758647 0.997118 0
    outer loop
      vertex -0.15123 5.83747 -4
      vertex -1.31271 5.7491 0
      vertex -0.15123 5.83747 0
    endloop
  endfacet
  facet normal -0.0758647 0.997118 0
    outer loop
      vertex -1.31271 5.7491 0
      vertex -0.15123 5.83747 -4
      vertex -1.31271 5.7491 -4
    endloop
  endfacet
  facet normal 0.0800021 0.996795 -0
    outer loop
      vertex 0.961662 5.74815 -4
      vertex -0.15123 5.83747 0
      vertex 0.961662 5.74815 0
    endloop
  endfacet
  facet normal 0.0800021 0.996795 0
    outer loop
      vertex -0.15123 5.83747 0
      vertex 0.961662 5.74815 -4
      vertex -0.15123 5.83747 -4
    endloop
  endfacet
  facet normal 0.264082 0.9645 -0
    outer loop
      vertex 1.9404 5.48017 -4
      vertex 0.961662 5.74815 0
      vertex 1.9404 5.48017 0
    endloop
  endfacet
  facet normal 0.264082 0.9645 0
    outer loop
      vertex 0.961662 5.74815 0
      vertex 1.9404 5.48017 -4
      vertex 0.961662 5.74815 -4
    endloop
  endfacet
  facet normal 0.467466 0.884011 -0
    outer loop
      vertex 2.78499 5.03355 -4
      vertex 1.9404 5.48017 0
      vertex 2.78499 5.03355 0
    endloop
  endfacet
  facet normal 0.467466 0.884011 0
    outer loop
      vertex 1.9404 5.48017 0
      vertex 2.78499 5.03355 -4
      vertex 1.9404 5.48017 -4
    endloop
  endfacet
  facet normal 0.660694 0.750656 -0
    outer loop
      vertex 3.49541 4.40827 -4
      vertex 2.78499 5.03355 0
      vertex 3.49541 4.40827 0
    endloop
  endfacet
  facet normal 0.660694 0.750656 0
    outer loop
      vertex 2.78499 5.03355 0
      vertex 3.49541 4.40827 -4
      vertex 2.78499 5.03355 -4
    endloop
  endfacet
  facet normal 0.818693 0.574232 0
    outer loop
      vertex 4.05834 3.60569 0
      vertex 3.49541 4.40827 -4
      vertex 3.49541 4.40827 0
    endloop
  endfacet
  facet normal 0.818693 0.574232 0
    outer loop
      vertex 3.49541 4.40827 -4
      vertex 4.05834 3.60569 0
      vertex 4.05834 3.60569 -4
    endloop
  endfacet
  facet normal 0.924977 0.380024 0
    outer loop
      vertex 4.46044 2.62698 0
      vertex 4.05834 3.60569 -4
      vertex 4.05834 3.60569 0
    endloop
  endfacet
  facet normal 0.924977 0.380024 0
    outer loop
      vertex 4.05834 3.60569 -4
      vertex 4.46044 2.62698 0
      vertex 4.46044 2.62698 -4
    endloop
  endfacet
  facet normal 0.978868 0.204492 0
    outer loop
      vertex 4.70169 1.47216 0
      vertex 4.46044 2.62698 -4
      vertex 4.46044 2.62698 0
    endloop
  endfacet
  facet normal 0.978868 0.204492 0
    outer loop
      vertex 4.46044 2.62698 -4
      vertex 4.70169 1.47216 0
      vertex 4.70169 1.47216 -4
    endloop
  endfacet
  facet normal 0.998179 0.0603135 0
    outer loop
      vertex 4.78211 0.14122 0
      vertex 4.70169 1.47216 -4
      vertex 4.70169 1.47216 0
    endloop
  endfacet
  facet normal 0.998179 0.0603135 0
    outer loop
      vertex 4.70169 1.47216 -4
      vertex 4.78211 0.14122 0
      vertex 4.78211 0.14122 -4
    endloop
  endfacet
  facet normal 0.998166 -0.0605374 0
    outer loop
      vertex 4.70361 -1.15312 0
      vertex 4.78211 0.14122 -4
      vertex 4.78211 0.14122 0
    endloop
  endfacet
  facet normal 0.998166 -0.0605374 0
    outer loop
      vertex 4.78211 0.14122 -4
      vertex 4.70361 -1.15312 0
      vertex 4.70361 -1.15312 -4
    endloop
  endfacet
  facet normal 0.979202 -0.202887 0
    outer loop
      vertex 4.46809 -2.28982 0
      vertex 4.70361 -1.15312 -4
      vertex 4.70361 -1.15312 0
    endloop
  endfacet
  facet normal 0.979202 -0.202887 0
    outer loop
      vertex 4.70361 -1.15312 -4
      vertex 4.46809 -2.28982 0
      vertex 4.46809 -2.28982 -4
    endloop
  endfacet
  facet normal 0.928176 -0.372142 0
    outer loop
      vertex 4.07555 -3.26887 0
      vertex 4.46809 -2.28982 -4
      vertex 4.46809 -2.28982 0
    endloop
  endfacet
  facet normal 0.928176 -0.372142 0
    outer loop
      vertex 4.46809 -2.28982 -4
      vertex 4.07555 -3.26887 0
      vertex 4.07555 -3.26887 -4
    endloop
  endfacet
  facet normal 0.831148 -0.556051 0
    outer loop
      vertex 3.52602 -4.09027 0
      vertex 4.07555 -3.26887 -4
      vertex 4.07555 -3.26887 0
    endloop
  endfacet
  facet normal 0.831148 -0.556051 0
    outer loop
      vertex 4.07555 -3.26887 -4
      vertex 3.52602 -4.09027 0
      vertex 3.52602 -4.09027 -4
    endloop
  endfacet
  facet normal 0.681782 -0.731555 0
    outer loop
      vertex 2.8289 -4.73996 -4
      vertex 3.52602 -4.09027 0
      vertex 2.8289 -4.73996 0
    endloop
  endfacet
  facet normal 0.681782 -0.731555 0
    outer loop
      vertex 3.52602 -4.09027 0
      vertex 2.8289 -4.73996 -4
      vertex 3.52602 -4.09027 -4
    endloop
  endfacet
  facet normal 0.485753 -0.874096 0
    outer loop
      vertex 1.99384 -5.20402 -4
      vertex 2.8289 -4.73996 0
      vertex 1.99384 -5.20402 0
    endloop
  endfacet
  facet normal 0.485753 -0.874096 0
    outer loop
      vertex 2.8289 -4.73996 0
      vertex 1.99384 -5.20402 -4
      vertex 2.8289 -4.73996 -4
    endloop
  endfacet
  facet normal 0.275115 -0.961411 0
    outer loop
      vertex 1.02081 -5.48246 -4
      vertex 1.99384 -5.20402 0
      vertex 1.02081 -5.48246 0
    endloop
  endfacet
  facet normal 0.275115 -0.961411 0
    outer loop
      vertex 1.99384 -5.20402 0
      vertex 1.02081 -5.48246 -4
      vertex 1.99384 -5.20402 -4
    endloop
  endfacet
  facet normal 0.0832482 -0.996529 0
    outer loop
      vertex -0.0901794 -5.57527 -4
      vertex 1.02081 -5.48246 0
      vertex -0.0901794 -5.57527 0
    endloop
  endfacet
  facet normal 0.0832482 -0.996529 0
    outer loop
      vertex 1.02081 -5.48246 0
      vertex -0.0901794 -5.57527 -4
      vertex 1.02081 -5.48246 -4
    endloop
  endfacet
  facet normal -0.0807097 -0.996738 0
    outer loop
      vertex -1.22462 -5.48341 -4
      vertex -0.0901794 -5.57527 0
      vertex -1.22462 -5.48341 0
    endloop
  endfacet
  facet normal -0.0807097 -0.996738 -0
    outer loop
      vertex -0.0901794 -5.57527 0
      vertex -1.22462 -5.48341 -4
      vertex -0.0901794 -5.57527 -4
    endloop
  endfacet
  facet normal -0.331136 0.943583 0
    outer loop
      vertex 1.21189 -3.94398 -4
      vertex 0.616821 -4.15281 0
      vertex 1.21189 -3.94398 0
    endloop
  endfacet
  facet normal -0.331136 0.943583 0
    outer loop
      vertex 0.616821 -4.15281 0
      vertex 1.21189 -3.94398 -4
      vertex 0.616821 -4.15281 -4
    endloop
  endfacet
  facet normal -0.568594 0.822618 0
    outer loop
      vertex 1.71542 -3.59594 -4
      vertex 1.21189 -3.94398 0
      vertex 1.71542 -3.59594 0
    endloop
  endfacet
  facet normal -0.568594 0.822618 0
    outer loop
      vertex 1.21189 -3.94398 0
      vertex 1.71542 -3.59594 -4
      vertex 1.21189 -3.94398 -4
    endloop
  endfacet
  facet normal -0.76363 0.645654 0
    outer loop
      vertex 1.71542 -3.59594 -4
      vertex 2.12741 -3.10867 0
      vertex 2.12741 -3.10867 -4
    endloop
  endfacet
  facet normal -0.76363 0.645654 0
    outer loop
      vertex 2.12741 -3.10867 0
      vertex 1.71542 -3.59594 -4
      vertex 1.71542 -3.59594 0
    endloop
  endfacet
  facet normal -0.888649 0.458588 0
    outer loop
      vertex 2.12741 -3.10867 -4
      vertex 2.44779 -2.48784 0
      vertex 2.44779 -2.48784 -4
    endloop
  endfacet
  facet normal -0.888649 0.458588 0
    outer loop
      vertex 2.44779 -2.48784 0
      vertex 2.12741 -3.10867 -4
      vertex 2.12741 -3.10867 0
    endloop
  endfacet
  facet normal -0.956312 0.292348 0
    outer loop
      vertex 2.44779 -2.48784 -4
      vertex 2.67664 -1.73924 0
      vertex 2.67664 -1.73924 -4
    endloop
  endfacet
  facet normal -0.956312 0.292348 0
    outer loop
      vertex 2.67664 -1.73924 0
      vertex 2.44779 -2.48784 -4
      vertex 2.44779 -2.48784 0
    endloop
  endfacet
  facet normal -0.987948 0.154785 0
    outer loop
      vertex 2.67664 -1.73924 -4
      vertex 2.81394 -0.862892 0
      vertex 2.81394 -0.862892 -4
    endloop
  endfacet
  facet normal -0.987948 0.154785 0
    outer loop
      vertex 2.81394 -0.862892 0
      vertex 2.67664 -1.73924 -4
      vertex 2.67664 -1.73924 0
    endloop
  endfacet
  facet normal -0.998963 0.0455353 0
    outer loop
      vertex 2.81394 -0.862892 -4
      vertex 2.85971 0.14122 0
      vertex 2.85971 0.14122 -4
    endloop
  endfacet
  facet normal -0.998963 0.0455353 0
    outer loop
      vertex 2.85971 0.14122 0
      vertex 2.81394 -0.862892 -4
      vertex 2.81394 -0.862892 0
    endloop
  endfacet
  facet normal -0.99897 -0.0453744 0
    outer loop
      vertex 2.85971 0.14122 -4
      vertex 2.81394 1.1489 0
      vertex 2.81394 1.1489 -4
    endloop
  endfacet
  facet normal -0.99897 -0.0453744 0
    outer loop
      vertex 2.81394 1.1489 0
      vertex 2.85971 0.14122 -4
      vertex 2.85971 0.14122 0
    endloop
  endfacet
  facet normal -0.987958 -0.154724 0
    outer loop
      vertex 2.81394 1.1489 -4
      vertex 2.67664 2.0256 0
      vertex 2.67664 2.0256 -4
    endloop
  endfacet
  facet normal -0.987958 -0.154724 0
    outer loop
      vertex 2.67664 2.0256 0
      vertex 2.81394 1.1489 -4
      vertex 2.81394 1.1489 0
    endloop
  endfacet
  facet normal -0.955994 -0.293388 0
    outer loop
      vertex 2.67664 2.0256 -4
      vertex 2.44779 2.7713 0
      vertex 2.44779 2.7713 -4
    endloop
  endfacet
  facet normal -0.955994 -0.293388 0
    outer loop
      vertex 2.44779 2.7713 0
      vertex 2.67664 2.0256 -4
      vertex 2.67664 2.0256 0
    endloop
  endfacet
  facet normal -0.886788 -0.462176 0
    outer loop
      vertex 2.44779 2.7713 -4
      vertex 2.12741 3.38602 0
      vertex 2.12741 3.38602 -4
    endloop
  endfacet
  facet normal -0.886788 -0.462176 0
    outer loop
      vertex 2.12741 3.38602 0
      vertex 2.44779 2.7713 -4
      vertex 2.44779 2.7713 0
    endloop
  endfacet
  facet normal -0.753803 -0.6571 0
    outer loop
      vertex 2.12741 3.38602 -4
      vertex 1.70843 3.86666 0
      vertex 1.70843 3.86666 -4
    endloop
  endfacet
  facet normal -0.753803 -0.6571 0
    outer loop
      vertex 1.70843 3.86666 0
      vertex 2.12741 3.38602 -4
      vertex 2.12741 3.38602 0
    endloop
  endfacet
  facet normal -0.547646 -0.83671 0
    outer loop
      vertex 1.18391 4.20997 -4
      vertex 1.70843 3.86666 0
      vertex 1.18391 4.20997 0
    endloop
  endfacet
  facet normal -0.547646 -0.83671 -0
    outer loop
      vertex 1.70843 3.86666 0
      vertex 1.18391 4.20997 -4
      vertex 1.70843 3.86666 -4
    endloop
  endfacet
  facet normal -0.310764 -0.950487 0
    outer loop
      vertex 0.553879 4.41596 -4
      vertex 1.18391 4.20997 0
      vertex 0.553879 4.41596 0
    endloop
  endfacet
  facet normal -0.310764 -0.950487 -0
    outer loop
      vertex 1.18391 4.20997 0
      vertex 0.553879 4.41596 -4
      vertex 1.18391 4.20997 -4
    endloop
  endfacet
  facet normal -0.0929401 -0.995672 0
    outer loop
      vertex -0.181679 4.48462 -4
      vertex 0.553879 4.41596 0
      vertex -0.181679 4.48462 0
    endloop
  endfacet
  facet normal -0.0929401 -0.995672 -0
    outer loop
      vertex 0.553879 4.41596 0
      vertex -0.181679 4.48462 -4
      vertex 0.553879 4.41596 -4
    endloop
  endfacet
  facet normal 0.0926147 -0.995702 0
    outer loop
      vertex -0.906082 4.41724 -4
      vertex -0.181679 4.48462 0
      vertex -0.906082 4.41724 0
    endloop
  endfacet
  facet normal 0.0926147 -0.995702 0
    outer loop
      vertex -0.181679 4.48462 0
      vertex -0.906082 4.41724 -4
      vertex -0.181679 4.48462 -4
    endloop
  endfacet
  facet normal 0.311387 -0.950283 0
    outer loop
      vertex -1.52306 4.21507 -4
      vertex -0.906082 4.41724 0
      vertex -1.52306 4.21507 0
    endloop
  endfacet
  facet normal 0.311387 -0.950283 0
    outer loop
      vertex -0.906082 4.41724 0
      vertex -1.52306 4.21507 -4
      vertex -0.906082 4.41724 -4
    endloop
  endfacet
  facet normal 0.551572 -0.834127 0
    outer loop
      vertex -2.03259 3.87814 -4
      vertex -1.52306 4.21507 0
      vertex -2.03259 3.87814 0
    endloop
  endfacet
  facet normal 0.551572 -0.834127 0
    outer loop
      vertex -1.52306 4.21507 0
      vertex -2.03259 3.87814 -4
      vertex -1.52306 4.21507 -4
    endloop
  endfacet
  facet normal 0.761041 -0.648704 0
    outer loop
      vertex -2.43468 3.40642 0
      vertex -2.03259 3.87814 -4
      vertex -2.03259 3.87814 0
    endloop
  endfacet
  facet normal 0.761041 -0.648704 0
    outer loop
      vertex -2.03259 3.87814 -4
      vertex -2.43468 3.40642 0
      vertex -2.43468 3.40642 -4
    endloop
  endfacet
  facet normal 0.894021 -0.448025 0
    outer loop
      vertex -2.73957 2.79802 0
      vertex -2.43468 3.40642 -4
      vertex -2.43468 3.40642 0
    endloop
  endfacet
  facet normal 0.894021 -0.448025 0
    outer loop
      vertex -2.43468 3.40642 -4
      vertex -2.73957 2.79802 0
      vertex -2.73957 2.79802 -4
    endloop
  endfacet
  facet normal 0.960033 -0.279887 0
    outer loop
      vertex -2.95735 2.05102 0
      vertex -2.73957 2.79802 -4
      vertex -2.73957 2.79802 0
    endloop
  endfacet
  facet normal 0.960033 -0.279887 0
    outer loop
      vertex -2.73957 2.79802 -4
      vertex -2.95735 2.05102 0
      vertex -2.95735 2.05102 -4
    endloop
  endfacet
  facet normal 0.989289 -0.145969 0
    outer loop
      vertex -3.08802 1.16542 0
      vertex -2.95735 2.05102 -4
      vertex -2.95735 2.05102 0
    endloop
  endfacet
  facet normal 0.989289 -0.145969 0
    outer loop
      vertex -2.95735 2.05102 -4
      vertex -3.08802 1.16542 0
      vertex -3.08802 1.16542 -4
    endloop
  endfacet
  facet normal 0.999097 -0.0424923 0
    outer loop
      vertex -3.13158 0.14122 0
      vertex -3.08802 1.16542 -4
      vertex -3.08802 1.16542 0
    endloop
  endfacet
  facet normal 0.999097 -0.0424923 0
    outer loop
      vertex -3.08802 1.16542 -4
      vertex -3.13158 0.14122 0
      vertex -3.13158 0.14122 -4
    endloop
  endfacet
  facet normal 0.999031 0.0440065 0
    outer loop
      vertex -3.08644 -0.883545 0
      vertex -3.13158 0.14122 -4
      vertex -3.13158 0.14122 0
    endloop
  endfacet
  facet normal 0.999031 0.0440065 0
    outer loop
      vertex -3.13158 0.14122 -4
      vertex -3.08644 -0.883545 0
      vertex -3.08644 -0.883545 -4
    endloop
  endfacet
  facet normal 0.988557 0.150846 0
    outer loop
      vertex -2.95102 -1.77101 0
      vertex -3.08644 -0.883545 -4
      vertex -3.08644 -0.883545 0
    endloop
  endfacet
  facet normal 0.988557 0.150846 0
    outer loop
      vertex -3.08644 -0.883545 -4
      vertex -2.95102 -1.77101 0
      vertex -2.95102 -1.77101 -4
    endloop
  endfacet
  facet normal 0.957593 0.288123 0
    outer loop
      vertex -2.72531 -2.52117 0
      vertex -2.95102 -1.77101 -4
      vertex -2.95102 -1.77101 0
    endloop
  endfacet
  facet normal 0.957593 0.288123 0
    outer loop
      vertex -2.95102 -1.77101 -4
      vertex -2.72531 -2.52117 0
      vertex -2.72531 -2.52117 -4
    endloop
  endfacet
  facet normal 0.888815 0.458265 0
    outer loop
      vertex -2.40933 -3.13402 0
      vertex -2.72531 -2.52117 -4
      vertex -2.72531 -2.52117 0
    endloop
  endfacet
  facet normal 0.888815 0.458265 0
    outer loop
      vertex -2.72531 -2.52117 -4
      vertex -2.40933 -3.13402 0
      vertex -2.40933 -3.13402 -4
    endloop
  endfacet
  facet normal 0.752254 0.658874 0
    outer loop
      vertex -1.99226 -3.6102 0
      vertex -2.40933 -3.13402 -4
      vertex -2.40933 -3.13402 0
    endloop
  endfacet
  facet normal 0.752254 0.658874 0
    outer loop
      vertex -2.40933 -3.13402 -4
      vertex -1.99226 -3.6102 0
      vertex -1.99226 -3.6102 -4
    endloop
  endfacet
  facet normal 0.540856 0.841115 -0
    outer loop
      vertex -1.46332 -3.95032 -4
      vertex -1.99226 -3.6102 0
      vertex -1.46332 -3.95032 0
    endloop
  endfacet
  facet normal 0.540856 0.841115 0
    outer loop
      vertex -1.99226 -3.6102 0
      vertex -1.46332 -3.95032 -4
      vertex -1.99226 -3.6102 -4
    endloop
  endfacet
  facet normal 0.303445 0.952849 -0
    outer loop
      vertex -0.822487 -4.1544 -4
      vertex -1.46332 -3.95032 0
      vertex -0.822487 -4.1544 0
    endloop
  endfacet
  facet normal 0.303445 0.952849 0
    outer loop
      vertex -1.46332 -3.95032 0
      vertex -0.822487 -4.1544 -4
      vertex -1.46332 -3.95032 -4
    endloop
  endfacet
  facet normal 0.0900002 0.995942 -0
    outer loop
      vertex -0.0697784 -4.22242 -4
      vertex -0.822487 -4.1544 0
      vertex -0.0697784 -4.22242 0
    endloop
  endfacet
  facet normal 0.0900002 0.995942 0
    outer loop
      vertex -0.822487 -4.1544 0
      vertex -0.0697784 -4.22242 -4
      vertex -0.822487 -4.1544 -4
    endloop
  endfacet
  facet normal -0.100867 0.9949 0
    outer loop
      vertex 0.616821 -4.15281 -4
      vertex -0.0697784 -4.22242 0
      vertex 0.616821 -4.15281 0
    endloop
  endfacet
  facet normal -0.100867 0.9949 0
    outer loop
      vertex -0.0697784 -4.22242 0
      vertex 0.616821 -4.15281 -4
      vertex -0.0697784 -4.22242 -4
    endloop
  endfacet
  facet normal -1 0 0
    outer loop
      vertex -6 -10 -14
      vertex -6 10 -4
      vertex -6 10 -14
    endloop
  endfacet
  facet normal -1 -0 0
    outer loop
      vertex -6 10 -4
      vertex -6 -10 -14
      vertex -6 -10 -4
    endloop
  endfacet
  facet normal 0 0 -1
    outer loop
      vertex -6 -10 -14
      vertex 6 10 -14
      vertex 6 -10 -14
    endloop
  endfacet
  facet normal -0 0 -1
    outer loop
      vertex 6 10 -14
      vertex -6 -10 -14
      vertex -6 10 -14
    endloop
  endfacet
  facet normal 0 0 1
    outer loop
      vertex 6 10 -4
      vertex 4.78211 0.14122 -4
      vertex 6 -10 -4
    endloop
  endfacet
  facet normal 0 0 1
    outer loop
      vertex 6 10 -4
      vertex 4.70169 1.47216 -4
      vertex 4.78211 0.14122 -4
    endloop
  endfacet
  facet normal 0 0 1
    outer loop
      vertex 6 10 -4
      vertex 4.46044 2.62698 -4
      vertex 4.70169 1.47216 -4
    endloop
  endfacet
  facet normal 0 0 1
    outer loop
      vertex 6 10 -4
      vertex 4.05834 3.60569 -4
      vertex 4.46044 2.62698 -4
    endloop
  endfacet
  facet normal 0 0 1
    outer loop
      vertex 6 10 -4
      vertex 3.49541 4.40827 -4
      vertex 4.05834 3.60569 -4
    endloop
  endfacet
  facet normal 0 0 1
    outer loop
      vertex 6 10 -4
      vertex 2.78499 5.03355 -4
      vertex 3.49541 4.40827 -4
    endloop
  endfacet
  facet normal 0 0 1
    outer loop
      vertex 6 10 -4
      vertex 1.9404 5.48017 -4
      vertex 2.78499 5.03355 -4
    endloop
  endfacet
  facet normal 0 0 1
    outer loop
      vertex 6 10 -4
      vertex 0.961662 5.74815 -4
      vertex 1.9404 5.48017 -4
    endloop
  endfacet
  facet normal 0 0 1
    outer loop
      vertex 6 10 -4
      vertex -0.15123 5.83747 -4
      vertex 0.961662 5.74815 -4
    endloop
  endfacet
  facet normal -0 0 1
    outer loop
      vertex -6 10 -4
      vertex -0.15123 5.83747 -4
      vertex 6 10 -4
    endloop
  endfacet
  facet normal 0 0 1
    outer loop
      vertex -0.15123 5.83747 -4
      vertex -6 10 -4
      vertex -1.31271 5.7491 -4
    endloop
  endfacet
  facet normal 0 0 1
    outer loop
      vertex -1.31271 5.7491 -4
      vertex -6 10 -4
      vertex -2.31524 5.48399 -4
    endloop
  endfacet
  facet normal 0 0 1
    outer loop
      vertex -4.97832 1.4846 -4
      vertex -6 10 -4
      vertex -5.05398 0.14122 -4
    endloop
  endfacet
  facet normal 0 0 1
    outer loop
      vertex -4.75136 2.64611 -4
      vertex -6 10 -4
      vertex -4.97832 1.4846 -4
    endloop
  endfacet
  facet normal 0 0 1
    outer loop
      vertex -4.37307 3.62577 -4
      vertex -6 10 -4
      vertex -4.75136 2.64611 -4
    endloop
  endfacet
  facet normal 0 0 1
    outer loop
      vertex -3.84348 4.42357 -4
      vertex -6 10 -4
      vertex -4.37307 3.62577 -4
    endloop
  endfacet
  facet normal 0 0 1
    outer loop
      vertex -3.15884 5.04215 -4
      vertex -6 10 -4
      vertex -3.84348 4.42357 -4
    endloop
  endfacet
  facet normal 0 0 1
    outer loop
      vertex -2.31524 5.48399 -4
      vertex -6 10 -4
      vertex -3.15884 5.04215 -4
    endloop
  endfacet
  facet normal -0 0 1
    outer loop
      vertex 4.70361 -1.15312 -4
      vertex 6 -10 -4
      vertex 4.78211 0.14122 -4
    endloop
  endfacet
  facet normal -0 0 1
    outer loop
      vertex 4.46809 -2.28982 -4
      vertex 6 -10 -4
      vertex 4.70361 -1.15312 -4
    endloop
  endfacet
  facet normal -0 0 1
    outer loop
      vertex 4.07555 -3.26887 -4
      vertex 6 -10 -4
      vertex 4.46809 -2.28982 -4
    endloop
  endfacet
  facet normal -0 0 1
    outer loop
      vertex 3.52602 -4.09027 -4
      vertex 6 -10 -4
      vertex 4.07555 -3.26887 -4
    endloop
  endfacet
  facet normal -0 0 1
    outer loop
      vertex 2.8289 -4.73996 -4
      vertex 6 -10 -4
      vertex 3.52602 -4.09027 -4
    endloop
  endfacet
  facet normal -0 0 1
    outer loop
      vertex 1.99384 -5.20402 -4
      vertex 6 -10 -4
      vertex 2.8289 -4.73996 -4
    endloop
  endfacet
  facet normal -0 0 1
    outer loop
      vertex 1.02081 -5.48246 -4
      vertex 6 -10 -4
      vertex 1.99384 -5.20402 -4
    endloop
  endfacet
  facet normal -0 0 1
    outer loop
      vertex -0.0901794 -5.57527 -4
      vertex 6 -10 -4
      vertex 1.02081 -5.48246 -4
    endloop
  endfacet
  facet normal 0 0 1
    outer loop
      vertex -6 -10 -4
      vertex -0.0901794 -5.57527 -4
      vertex -1.22462 -5.48341 -4
    endloop
  endfacet
  facet normal 0 0 1
    outer loop
      vertex -6 -10 -4
      vertex -1.22462 -5.48341 -4
      vertex -2.21729 -5.20781 -4
    endloop
  endfacet
  facet normal 0 0 1
    outer loop
      vertex -6 -10 -4
      vertex -2.21729 -5.20781 -4
      vertex -3.06819 -4.74848 -4
    endloop
  endfacet
  facet normal 0 0 1
    outer loop
      vertex -6 -10 -4
      vertex -5.05398 0.14122 -4
      vertex -6 10 -4
    endloop
  endfacet
  facet normal 0 0 1
    outer loop
      vertex -0.0901794 -5.57527 -4
      vertex -6 -10 -4
      vertex 6 -10 -4
    endloop
  endfacet
  facet normal 0 0 1
    outer loop
      vertex -3.77733 -4.10542 -4
      vertex -6 -10 -4
      vertex -3.06819 -4.74848 -4
    endloop
  endfacet
  facet normal 0 0 1
    outer loop
      vertex -4.33586 -3.28881 -4
      vertex -6 -10 -4
      vertex -3.77733 -4.10542 -4
    endloop
  endfacet
  facet normal 0 0 1
    outer loop
      vertex -4.73482 -2.30883 -4
      vertex -6 -10 -4
      vertex -4.33586 -3.28881 -4
    endloop
  endfacet
  facet normal 0 0 1
    outer loop
      vertex -4.97419 -1.16549 -4
      vertex -6 -10 -4
      vertex -4.73482 -2.30883 -4
    endloop
  endfacet
  facet normal 0 0 1
    outer loop
      vertex -5.05398 0.14122 -4
      vertex -6 -10 -4
      vertex -4.97419 -1.16549 -4
    endloop
  endfacet
  facet normal 0 0 1
    outer loop
      vertex -3.13158 0.14122 -4
      vertex 2.85971 0.14122 -4
      vertex 2.81394 1.1489 -4
    endloop
  endfacet
  facet normal -0 0 1
    outer loop
      vertex -3.08802 1.16542 -4
      vertex 2.81394 1.1489 -4
      vertex 2.67664 2.0256 -4
    endloop
  endfacet
  facet normal 0 0 1
    outer loop
      vertex 2.85971 0.14122 -4
      vertex -3.13158 0.14122 -4
      vertex 2.81394 -0.862892 -4
    endloop
  endfacet
  facet normal -0 0 1
    outer loop
      vertex -2.95735 2.05102 -4
      vertex 2.67664 2.0256 -4
      vertex 2.44779 2.7713 -4
    endloop
  endfacet
  facet normal 0 -0 1
    outer loop
      vertex -3.08644 -0.883545 -4
      vertex 2.81394 -0.862892 -4
      vertex -3.13158 0.14122 -4
    endloop
  endfacet
  facet normal 0 0 1
    outer loop
      vertex 0.553879 4.41596 -4
      vertex 2.44779 2.7713 -4
      vertex 2.12741 3.38602 -4
    endloop
  endfacet
  facet normal 0 0 1
    outer loop
      vertex 2.81394 -0.862892 -4
      vertex -3.08644 -0.883545 -4
      vertex 2.67664 -1.73924 -4
    endloop
  endfacet
  facet normal 0 -0 1
    outer loop
      vertex -2.95102 -1.77101 -4
      vertex 2.67664 -1.73924 -4
      vertex -3.08644 -0.883545 -4
    endloop
  endfacet
  facet normal 0 0 1
    outer loop
      vertex 1.18391 4.20997 -4
      vertex 2.12741 3.38602 -4
      vertex 1.70843 3.86666 -4
    endloop
  endfacet
  facet normal 0 0 1
    outer loop
      vertex 2.67664 -1.73924 -4
      vertex -2.95102 -1.77101 -4
      vertex 2.44779 -2.48784 -4
    endloop
  endfacet
  facet normal 0 0 1
    outer loop
      vertex 2.12741 3.38602 -4
      vertex 1.18391 4.20997 -4
      vertex 0.553879 4.41596 -4
    endloop
  endfacet
  facet normal 0 -0 1
    outer loop
      vertex -2.72531 -2.52117 -4
      vertex 2.44779 -2.48784 -4
      vertex -2.95102 -1.77101 -4
    endloop
  endfacet
  facet normal 0 0 1
    outer loop
      vertex 2.44779 2.7713 -4
      vertex 0.553879 4.41596 -4
      vertex -0.181679 4.48462 -4
    endloop
  endfacet
  facet normal 0 -0 1
    outer loop
      vertex -0.0697784 -4.22242 -4
      vertex 2.44779 -2.48784 -4
      vertex -2.72531 -2.52117 -4
    endloop
  endfacet
  facet normal 0 0 1
    outer loop
      vertex 2.44779 2.7713 -4
      vertex -0.181679 4.48462 -4
      vertex -2.95735 2.05102 -4
    endloop
  endfacet
  facet normal 0 -0 1
    outer loop
      vertex 0.616821 -4.15281 -4
      vertex 2.12741 -3.10867 -4
      vertex -0.0697784 -4.22242 -4
    endloop
  endfacet
  facet normal 0 0 1
    outer loop
      vertex -2.73957 2.79802 -4
      vertex -0.181679 4.48462 -4
      vertex -0.906082 4.41724 -4
    endloop
  endfacet
  facet normal 0 0 1
    outer loop
      vertex 2.12741 -3.10867 -4
      vertex 0.616821 -4.15281 -4
      vertex 1.71542 -3.59594 -4
    endloop
  endfacet
  facet normal 0 0 1
    outer loop
      vertex -2.43468 3.40642 -4
      vertex -0.906082 4.41724 -4
      vertex -1.52306 4.21507 -4
    endloop
  endfacet
  facet normal 0 0 1
    outer loop
      vertex 1.71542 -3.59594 -4
      vertex 0.616821 -4.15281 -4
      vertex 1.21189 -3.94398 -4
    endloop
  endfacet
  facet normal 0 0 1
    outer loop
      vertex -2.43468 3.40642 -4
      vertex -1.52306 4.21507 -4
      vertex -2.03259 3.87814 -4
    endloop
  endfacet
  facet normal 0 0 1
    outer loop
      vertex 2.44779 -2.48784 -4
      vertex -0.0697784 -4.22242 -4
      vertex 2.12741 -3.10867 -4
    endloop
  endfacet
  facet normal 0 0 1
    outer loop
      vertex -0.906082 4.41724 -4
      vertex -2.43468 3.40642 -4
      vertex -2.73957 2.79802 -4
    endloop
  endfacet
  facet normal 0 0 1
    outer loop
      vertex -0.0697784 -4.22242 -4
      vertex -2.72531 -2.52117 -4
      vertex -0.822487 -4.1544 -4
    endloop
  endfacet
  facet normal 0 0 1
    outer loop
      vertex -0.181679 4.48462 -4
      vertex -2.73957 2.79802 -4
      vertex -2.95735 2.05102 -4
    endloop
  endfacet
  facet normal -0 -0 1
    outer loop
      vertex -2.40933 -3.13402 -4
      vertex -0.822487 -4.1544 -4
      vertex -2.72531 -2.52117 -4
    endloop
  endfacet
  facet normal 0 0 1
    outer loop
      vertex 2.67664 2.0256 -4
      vertex -2.95735 2.05102 -4
      vertex -3.08802 1.16542 -4
    endloop
  endfacet
  facet normal 0 0 1
    outer loop
      vertex -0.822487 -4.1544 -4
      vertex -2.40933 -3.13402 -4
      vertex -1.46332 -3.95032 -4
    endloop
  endfacet
  facet normal 0 0 1
    outer loop
      vertex 2.81394 1.1489 -4
      vertex -3.08802 1.16542 -4
      vertex -3.13158 0.14122 -4
    endloop
  endfacet
  facet normal 0 0 1
    outer loop
      vertex -1.46332 -3.95032 -4
      vertex -2.40933 -3.13402 -4
      vertex -1.99226 -3.6102 -4
    endloop
  endfacet
  facet normal 1 -0 0
    outer loop
      vertex 6 -10 -4
      vertex 6 10 -14
      vertex 6 10 -4
    endloop
  endfacet
  facet normal 1 0 0
    outer loop
      vertex 6 10 -14
      vertex 6 -10 -4
      vertex 6 -10 -14
    endloop
  endfacet
  facet normal 0 1 -0
    outer loop
      vertex 6 10 -14
      vertex -6 10 -4
      vertex 6 10 -4
    endloop
  endfacet
  facet normal 0 1 0
    outer loop
      vertex -6 10 -4
      vertex 6 10 -14
      vertex -6 10 -14
    endloop
  endfacet
  facet normal 0 -1 0
    outer loop
      vertex -6 -10 -14
      vertex 6 -10 -4
      vertex -6 -10 -4
    endloop
  endfacet
  facet normal 0 -1 -0
    outer loop
      vertex 6 -10 -4
      vertex -6 -10 -14
      vertex 6 -10 -14
    endloop
  endfacet
endsolid OpenSCAD_Model
