solid OpenSCAD_Model
  facet normal 0 0 1
    outer loop
      vertex 1.99834 4.70324 0
      vertex 2.40192 5.82513 0
      vertex 2.36126 5.82513 0
    endloop
  endfacet
  facet normal 0 0 1
    outer loop
      vertex 2.40192 5.82513 0
      vertex 2.33907 3.01731 0
      vertex 2.38166 1.95979 0
    endloop
  endfacet
  facet normal 0 0 1
    outer loop
      vertex 2.40192 5.82513 0
      vertex 2.2113 3.93179 0
      vertex 2.33907 3.01731 0
    endloop
  endfacet
  facet normal 0 0 1
    outer loop
      vertex 1.30602 5.81896 0
      vertex 2.36126 5.82513 0
      vertex 2.08946 6.32258 0
    endloop
  endfacet
  facet normal 0 0 1
    outer loop
      vertex 2.40192 5.82513 0
      vertex 1.99834 4.70324 0
      vertex 2.2113 3.93179 0
    endloop
  endfacet
  facet normal 0 0 1
    outer loop
      vertex 1.30602 5.81896 0
      vertex 2.08946 6.32258 0
      vertex 1.78271 6.74692 0
    endloop
  endfacet
  facet normal 0 0 1
    outer loop
      vertex 2.36126 5.82513 0
      vertex 1.70021 5.33163 0
      vertex 1.99834 4.70324 0
    endloop
  endfacet
  facet normal 0 0 1
    outer loop
      vertex 0.805016 6.16706 0
      vertex 1.78271 6.74692 0
      vertex 1.44101 7.09815 0
    endloop
  endfacet
  facet normal 0 0 1
    outer loop
      vertex 2.36126 5.82513 0
      vertex 1.30602 5.81896 0
      vertex 1.70021 5.33163 0
    endloop
  endfacet
  facet normal 0 0 1
    outer loop
      vertex 0.805016 6.16706 0
      vertex 1.44101 7.09815 0
      vertex 1.06436 7.37628 0
    endloop
  endfacet
  facet normal 0 0 1
    outer loop
      vertex 1.78271 6.74692 0
      vertex 0.805016 6.16706 0
      vertex 1.30602 5.81896 0
    endloop
  endfacet
  facet normal 0 0 1
    outer loop
      vertex 0.197212 6.37592 0
      vertex 1.06436 7.37628 0
      vertex 0.639977 7.58766 0
    endloop
  endfacet
  facet normal 0 0 1
    outer loop
      vertex 1.06436 7.37628 0
      vertex 0.197212 6.37592 0
      vertex 0.805016 6.16706 0
    endloop
  endfacet
  facet normal 0 0 1
    outer loop
      vertex 0.155212 7.73865 0
      vertex 0.197212 6.37592 0
      vertex 0.639977 7.58766 0
    endloop
  endfacet
  facet normal 0 0 1
    outer loop
      vertex -0.51738 6.44553 0
      vertex 0.155212 7.73865 0
      vertex -0.389915 7.82924 0
    endloop
  endfacet
  facet normal 0 0 1
    outer loop
      vertex 0.155212 7.73865 0
      vertex -0.51738 6.44553 0
      vertex 0.197212 6.37592 0
    endloop
  endfacet
  facet normal 0 0 1
    outer loop
      vertex -0.99543 7.85944 0
      vertex -0.51738 6.44553 0
      vertex -0.389915 7.82924 0
    endloop
  endfacet
  facet normal 0 0 1
    outer loop
      vertex -0.99543 7.85944 0
      vertex -1.13911 6.38419 0
      vertex -0.51738 6.44553 0
    endloop
  endfacet
  facet normal -0 0 1
    outer loop
      vertex -1.93825 7.77265 0
      vertex -1.13911 6.38419 0
      vertex -0.99543 7.85944 0
    endloop
  endfacet
  facet normal 0 0 1
    outer loop
      vertex -1.13911 6.38419 0
      vertex -1.93825 7.77265 0
      vertex -1.67185 6.20013 0
    endloop
  endfacet
  facet normal -0 0 1
    outer loop
      vertex -2.75264 7.5123 0
      vertex -1.67185 6.20013 0
      vertex -1.93825 7.77265 0
    endloop
  endfacet
  facet normal 0 0 1
    outer loop
      vertex -1.67185 6.20013 0
      vertex -2.75264 7.5123 0
      vertex -2.11561 5.89339 0
    endloop
  endfacet
  facet normal -0 0 1
    outer loop
      vertex -3.43862 7.07838 0
      vertex -2.11561 5.89339 0
      vertex -2.75264 7.5123 0
    endloop
  endfacet
  facet normal 0 0 1
    outer loop
      vertex -2.11561 5.89339 0
      vertex -3.43862 7.07838 0
      vertex -2.47038 5.46394 0
    endloop
  endfacet
  facet normal -0 0 1
    outer loop
      vertex -3.99618 6.47089 0
      vertex -2.47038 5.46394 0
      vertex -3.43862 7.07838 0
    endloop
  endfacet
  facet normal -0 0 1
    outer loop
      vertex -4.42786 5.68227 0
      vertex -2.47038 5.46394 0
      vertex -3.99618 6.47089 0
    endloop
  endfacet
  facet normal 0 0 1
    outer loop
      vertex -4.73621 4.70486 0
      vertex -2.74187 4.89081 0
      vertex -4.42786 5.68227 0
    endloop
  endfacet
  facet normal 0 0 1
    outer loop
      vertex -2.47038 5.46394 0
      vertex -4.42786 5.68227 0
      vertex -2.74187 4.89081 0
    endloop
  endfacet
  facet normal 0 0 1
    outer loop
      vertex 2.4035 5.96337 0
      vertex 4.22658 6.14799 0
      vertex 2.40829 6.13402 0
    endloop
  endfacet
  facet normal 0 0 1
    outer loop
      vertex 2.40192 5.82513 0
      vertex 4.22658 6.14799 0
      vertex 2.4035 5.96337 0
    endloop
  endfacet
  facet normal 0 0 1
    outer loop
      vertex 4.22658 6.14799 0
      vertex 2.40192 5.82513 0
      vertex 4.22276 5.35713 0
    endloop
  endfacet
  facet normal 0 0 1
    outer loop
      vertex 4.22276 5.35713 0
      vertex 2.40192 5.82513 0
      vertex 2.38166 1.95979 0
    endloop
  endfacet
  facet normal 0 0 1
    outer loop
      vertex 2.33907 0.948952 0
      vertex 4.22276 5.35713 0
      vertex 2.38166 1.95979 0
    endloop
  endfacet
  facet normal 0 0 1
    outer loop
      vertex 4.22276 5.35713 0
      vertex 2.33907 0.948952 0
      vertex 2.42231 -1.70216 0
    endloop
  endfacet
  facet normal -0 0 1
    outer loop
      vertex 2.2113 0.0830612 0
      vertex 2.42231 -1.70216 0
      vertex 2.33907 0.948952 0
    endloop
  endfacet
  facet normal -0 0 1
    outer loop
      vertex 1.99834 -0.637894 0
      vertex 2.42231 -1.70216 0
      vertex 2.2113 0.0830612 0
    endloop
  endfacet
  facet normal 0 0 1
    outer loop
      vertex 2.42231 -1.70216 0
      vertex 1.99834 -0.637894 0
      vertex 2.37146 -1.70216 0
    endloop
  endfacet
  facet normal -0 0 1
    outer loop
      vertex 1.70021 -1.21391 0
      vertex 2.37146 -1.70216 0
      vertex 1.99834 -0.637894 0
    endloop
  endfacet
  facet normal -0 0 1
    outer loop
      vertex 1.30729 -1.65445 0
      vertex 2.37146 -1.70216 0
      vertex 1.70021 -1.21391 0
    endloop
  endfacet
  facet normal 0 0 1
    outer loop
      vertex 2.37146 -1.70216 0
      vertex 1.30729 -1.65445 0
      vertex 1.83681 -2.52097 0
    endloop
  endfacet
  facet normal -0 0 1
    outer loop
      vertex 0.810112 -1.96912 0
      vertex 1.83681 -2.52097 0
      vertex 1.30729 -1.65445 0
    endloop
  endfacet
  facet normal 0 0 1
    outer loop
      vertex 1.83681 -2.52097 0
      vertex 0.810112 -1.96912 0
      vertex 1.09743 -3.10582 0
    endloop
  endfacet
  facet normal -0 0 1
    outer loop
      vertex 0.208687 -2.15792 0
      vertex 1.09743 -3.10582 0
      vertex 0.810112 -1.96912 0
    endloop
  endfacet
  facet normal 0 0 1
    outer loop
      vertex 0.208687 -2.15792 0
      vertex 0.153358 -3.45673 0
      vertex 1.09743 -3.10582 0
    endloop
  endfacet
  facet normal -0 0 1
    outer loop
      vertex -0.496979 -2.22086 0
      vertex 0.153358 -3.45673 0
      vertex 0.208687 -2.15792 0
    endloop
  endfacet
  facet normal 0 0 1
    outer loop
      vertex -0.496979 -2.22086 0
      vertex -0.99543 -3.57371 0
      vertex 0.153358 -3.45673 0
    endloop
  endfacet
  facet normal 0 0 1
    outer loop
      vertex -1.12763 -2.15665 0
      vertex -0.99543 -3.57371 0
      vertex -0.496979 -2.22086 0
    endloop
  endfacet
  facet normal 0 0 1
    outer loop
      vertex -1.66676 -1.96402 0
      vertex -0.99543 -3.57371 0
      vertex -1.12763 -2.15665 0
    endloop
  endfacet
  facet normal 0 0 1
    outer loop
      vertex -2.73994 -3.21387 0
      vertex -1.66676 -1.96402 0
      vertex -2.11433 -1.64297 0
    endloop
  endfacet
  facet normal 0 0 1
    outer loop
      vertex -3.98602 -2.13438 0
      vertex -2.11433 -1.64297 0
      vertex -2.47038 -1.19351 0
    endloop
  endfacet
  facet normal 0 0 1
    outer loop
      vertex -1.66676 -1.96402 0
      vertex -2.73994 -3.21387 0
      vertex -0.99543 -3.57371 0
    endloop
  endfacet
  facet normal 0 0 1
    outer loop
      vertex -3.98602 -2.13438 0
      vertex -2.47038 -1.19351 0
      vertex -2.74187 -0.597183 0
    endloop
  endfacet
  facet normal -0 0 1
    outer loop
      vertex -4.73367 -0.335228 0
      vertex -2.74187 -0.597183 0
      vertex -2.93579 0.164436 0
    endloop
  endfacet
  facet normal 0 0 1
    outer loop
      vertex -4.73367 -0.335228 0
      vertex -2.93579 0.164436 0
      vertex -3.05215 1.09136 0
    endloop
  endfacet
  facet normal 0 0 1
    outer loop
      vertex -2.74187 4.89081 0
      vertex -4.73621 4.70486 0
      vertex -2.93579 4.15305 0
    endloop
  endfacet
  facet normal 0 0 1
    outer loop
      vertex -2.11433 -1.64297 0
      vertex -3.98602 -2.13438 0
      vertex -2.73994 -3.21387 0
    endloop
  endfacet
  facet normal 0 0 1
    outer loop
      vertex -2.93579 4.15305 0
      vertex -4.92121 3.53863 0
      vertex -3.05215 3.25063 0
    endloop
  endfacet
  facet normal 0 0 1
    outer loop
      vertex -4.92121 3.53863 0
      vertex -2.93579 4.15305 0
      vertex -4.73621 4.70486 0
    endloop
  endfacet
  facet normal 0 0 1
    outer loop
      vertex -4.98288 2.18359 0
      vertex -3.05215 3.25063 0
      vertex -4.92121 3.53863 0
    endloop
  endfacet
  facet normal 0 -0 1
    outer loop
      vertex -4.73367 -0.335228 0
      vertex -3.05215 1.09136 0
      vertex -4.98288 2.18359 0
    endloop
  endfacet
  facet normal 0 0 1
    outer loop
      vertex -3.05215 3.25063 0
      vertex -4.98288 2.18359 0
      vertex -3.09093 2.18359 0
    endloop
  endfacet
  facet normal 0 0 1
    outer loop
      vertex -3.09093 2.18359 0
      vertex -4.98288 2.18359 0
      vertex -3.05215 1.09136 0
    endloop
  endfacet
  facet normal 0 0 1
    outer loop
      vertex -2.74187 -0.597183 0
      vertex -4.73367 -0.335228 0
      vertex -3.98602 -2.13438 0
    endloop
  endfacet
  facet normal -0 0 1
    outer loop
      vertex 2.50362 7.63564 0
      vertex 4.2571 7.28724 0
      vertex 4.28381 7.63564 0
    endloop
  endfacet
  facet normal -0 0 1
    outer loop
      vertex 2.49097 7.54027 0
      vertex 4.2571 7.28724 0
      vertex 2.50362 7.63564 0
    endloop
  endfacet
  facet normal -0 0 1
    outer loop
      vertex 2.48272 7.45155 0
      vertex 4.2571 7.28724 0
      vertex 2.49097 7.54027 0
    endloop
  endfacet
  facet normal -0 0 1
    outer loop
      vertex 2.47316 7.33549 0
      vertex 4.2571 7.28724 0
      vertex 2.48272 7.45155 0
    endloop
  endfacet
  facet normal 0 0 1
    outer loop
      vertex 4.2571 7.28724 0
      vertex 2.46265 7.19054 0
      vertex 4.23802 6.79136 0
    endloop
  endfacet
  facet normal 0 0 1
    outer loop
      vertex 2.49097 7.54027 0
      vertex 2.50362 7.63564 0
      vertex 2.49794 7.60163 0
    endloop
  endfacet
  facet normal 0 0 1
    outer loop
      vertex 2.46265 7.19054 0
      vertex 4.2571 7.28724 0
      vertex 2.47316 7.33549 0
    endloop
  endfacet
  facet normal -0 0 1
    outer loop
      vertex 2.45152 7.01508 0
      vertex 4.23802 6.79136 0
      vertex 2.46265 7.19054 0
    endloop
  endfacet
  facet normal -0 0 1
    outer loop
      vertex 2.43978 6.8091 0
      vertex 4.23802 6.79136 0
      vertex 2.45152 7.01508 0
    endloop
  endfacet
  facet normal 0 0 1
    outer loop
      vertex 2.42741 6.57259 0
      vertex 4.23802 6.79136 0
      vertex 2.43978 6.8091 0
    endloop
  endfacet
  facet normal 0 0 1
    outer loop
      vertex 4.23802 6.79136 0
      vertex 2.42741 6.57259 0
      vertex 4.22658 6.14799 0
    endloop
  endfacet
  facet normal -0 0 1
    outer loop
      vertex 2.41626 6.33709 0
      vertex 4.22658 6.14799 0
      vertex 2.42741 6.57259 0
    endloop
  endfacet
  facet normal 0 0 1
    outer loop
      vertex 2.40829 6.13402 0
      vertex 4.22658 6.14799 0
      vertex 2.41626 6.33709 0
    endloop
  endfacet
  facet normal 0 0 1
    outer loop
      vertex 4.22276 5.35713 0
      vertex 2.42231 -1.70216 0
      vertex 4.22276 -7.69331 0
    endloop
  endfacet
  facet normal 0 0 1
    outer loop
      vertex 2.39182 -2.16495 0
      vertex 2.42231 -1.70216 0
      vertex 2.40453 -1.83818 0
    endloop
  endfacet
  facet normal 0 0 1
    outer loop
      vertex 2.42231 -1.70216 0
      vertex 2.39182 -2.16495 0
      vertex 4.22276 -7.69331 0
    endloop
  endfacet
  facet normal -0 0 1
    outer loop
      vertex 2.3842 -2.68246 0
      vertex 4.22276 -7.69331 0
      vertex 2.39182 -2.16495 0
    endloop
  endfacet
  facet normal -0 0 1
    outer loop
      vertex 2.38166 -3.39071 0
      vertex 4.22276 -7.69331 0
      vertex 2.3842 -2.68246 0
    endloop
  endfacet
  facet normal 0 0 1
    outer loop
      vertex 4.22276 -7.69331 0
      vertex 2.38166 -3.39071 0
      vertex 2.38166 -7.69331 0
    endloop
  endfacet
  facet normal -0.999994 0.00358628 0
    outer loop
      vertex 2.38166 -3.39071 -4
      vertex 2.3842 -2.68246 0
      vertex 2.3842 -2.68246 -4
    endloop
  endfacet
  facet normal -0.999994 0.00358628 0
    outer loop
      vertex 2.3842 -2.68246 0
      vertex 2.38166 -3.39071 -4
      vertex 2.38166 -3.39071 0
    endloop
  endfacet
  facet normal -0.999892 0.0147228 0
    outer loop
      vertex 2.3842 -2.68246 -4
      vertex 2.39182 -2.16495 0
      vertex 2.39182 -2.16495 -4
    endloop
  endfacet
  facet normal -0.999892 0.0147228 0
    outer loop
      vertex 2.39182 -2.16495 0
      vertex 2.3842 -2.68246 -4
      vertex 2.3842 -2.68246 0
    endloop
  endfacet
  facet normal -0.999244 0.0388665 0
    outer loop
      vertex 2.39182 -2.16495 -4
      vertex 2.40453 -1.83818 0
      vertex 2.40453 -1.83818 -4
    endloop
  endfacet
  facet normal -0.999244 0.0388665 0
    outer loop
      vertex 2.40453 -1.83818 0
      vertex 2.39182 -2.16495 -4
      vertex 2.39182 -2.16495 0
    endloop
  endfacet
  facet normal -0.991565 0.129613 0
    outer loop
      vertex 2.40453 -1.83818 -4
      vertex 2.42231 -1.70216 0
      vertex 2.42231 -1.70216 -4
    endloop
  endfacet
  facet normal -0.991565 0.129613 0
    outer loop
      vertex 2.42231 -1.70216 0
      vertex 2.40453 -1.83818 -4
      vertex 2.40453 -1.83818 0
    endloop
  endfacet
  facet normal 0 -1 0
    outer loop
      vertex 2.37146 -1.70216 -4
      vertex 2.42231 -1.70216 0
      vertex 2.37146 -1.70216 0
    endloop
  endfacet
  facet normal 0 -1 -0
    outer loop
      vertex 2.42231 -1.70216 0
      vertex 2.37146 -1.70216 -4
      vertex 2.42231 -1.70216 -4
    endloop
  endfacet
  facet normal 0.837309 -0.546729 0
    outer loop
      vertex 1.83681 -2.52097 0
      vertex 2.37146 -1.70216 -4
      vertex 2.37146 -1.70216 0
    endloop
  endfacet
  facet normal 0.837309 -0.546729 0
    outer loop
      vertex 2.37146 -1.70216 -4
      vertex 1.83681 -2.52097 0
      vertex 1.83681 -2.52097 -4
    endloop
  endfacet
  facet normal 0.620382 -0.7843 0
    outer loop
      vertex 1.09743 -3.10582 -4
      vertex 1.83681 -2.52097 0
      vertex 1.09743 -3.10582 0
    endloop
  endfacet
  facet normal 0.620382 -0.7843 0
    outer loop
      vertex 1.83681 -2.52097 0
      vertex 1.09743 -3.10582 -4
      vertex 1.83681 -2.52097 -4
    endloop
  endfacet
  facet normal 0.348409 -0.937343 0
    outer loop
      vertex 0.153358 -3.45673 -4
      vertex 1.09743 -3.10582 0
      vertex 0.153358 -3.45673 0
    endloop
  endfacet
  facet normal 0.348409 -0.937343 0
    outer loop
      vertex 1.09743 -3.10582 0
      vertex 0.153358 -3.45673 -4
      vertex 1.09743 -3.10582 -4
    endloop
  endfacet
  facet normal 0.101305 -0.994855 0
    outer loop
      vertex -0.99543 -3.57371 -4
      vertex 0.153358 -3.45673 0
      vertex -0.99543 -3.57371 0
    endloop
  endfacet
  facet normal 0.101305 -0.994855 0
    outer loop
      vertex 0.153358 -3.45673 0
      vertex -0.99543 -3.57371 -4
      vertex 0.153358 -3.45673 -4
    endloop
  endfacet
  facet normal -0.202017 -0.979382 0
    outer loop
      vertex -2.73994 -3.21387 -4
      vertex -0.99543 -3.57371 0
      vertex -2.73994 -3.21387 0
    endloop
  endfacet
  facet normal -0.202017 -0.979382 -0
    outer loop
      vertex -0.99543 -3.57371 0
      vertex -2.73994 -3.21387 -4
      vertex -0.99543 -3.57371 -4
    endloop
  endfacet
  facet normal -0.654776 -0.755823 0
    outer loop
      vertex -3.98602 -2.13438 -4
      vertex -2.73994 -3.21387 0
      vertex -3.98602 -2.13438 0
    endloop
  endfacet
  facet normal -0.654776 -0.755823 -0
    outer loop
      vertex -2.73994 -3.21387 0
      vertex -3.98602 -2.13438 -4
      vertex -2.73994 -3.21387 -4
    endloop
  endfacet
  facet normal -0.92344 -0.383742 0
    outer loop
      vertex -3.98602 -2.13438 -4
      vertex -4.73367 -0.335228 0
      vertex -4.73367 -0.335228 -4
    endloop
  endfacet
  facet normal -0.92344 -0.383742 0
    outer loop
      vertex -4.73367 -0.335228 0
      vertex -3.98602 -2.13438 -4
      vertex -3.98602 -2.13438 0
    endloop
  endfacet
  facet normal -0.995141 -0.0984585 0
    outer loop
      vertex -4.73367 -0.335228 -4
      vertex -4.98288 2.18359 0
      vertex -4.98288 2.18359 -4
    endloop
  endfacet
  facet normal -0.995141 -0.0984585 0
    outer loop
      vertex -4.98288 2.18359 0
      vertex -4.73367 -0.335228 -4
      vertex -4.73367 -0.335228 0
    endloop
  endfacet
  facet normal -0.998966 0.0454645 0
    outer loop
      vertex -4.98288 2.18359 -4
      vertex -4.92121 3.53863 0
      vertex -4.92121 3.53863 -4
    endloop
  endfacet
  facet normal -0.998966 0.0454645 0
    outer loop
      vertex -4.92121 3.53863 0
      vertex -4.98288 2.18359 -4
      vertex -4.98288 2.18359 0
    endloop
  endfacet
  facet normal -0.987651 0.156672 0
    outer loop
      vertex -4.92121 3.53863 -4
      vertex -4.73621 4.70486 0
      vertex -4.73621 4.70486 -4
    endloop
  endfacet
  facet normal -0.987651 0.156672 0
    outer loop
      vertex -4.73621 4.70486 0
      vertex -4.92121 3.53863 -4
      vertex -4.92121 3.53863 0
    endloop
  endfacet
  facet normal -0.953668 0.30086 0
    outer loop
      vertex -4.73621 4.70486 -4
      vertex -4.42786 5.68227 0
      vertex -4.42786 5.68227 -4
    endloop
  endfacet
  facet normal -0.953668 0.30086 0
    outer loop
      vertex -4.42786 5.68227 0
      vertex -4.73621 4.70486 -4
      vertex -4.73621 4.70486 0
    endloop
  endfacet
  facet normal -0.877182 0.480158 0
    outer loop
      vertex -4.42786 5.68227 -4
      vertex -3.99618 6.47089 0
      vertex -3.99618 6.47089 -4
    endloop
  endfacet
  facet normal -0.877182 0.480158 0
    outer loop
      vertex -3.99618 6.47089 0
      vertex -4.42786 5.68227 -4
      vertex -4.42786 5.68227 0
    endloop
  endfacet
  facet normal -0.736735 0.676182 0
    outer loop
      vertex -3.99618 6.47089 -4
      vertex -3.43862 7.07838 0
      vertex -3.43862 7.07838 -4
    endloop
  endfacet
  facet normal -0.736735 0.676182 0
    outer loop
      vertex -3.43862 7.07838 0
      vertex -3.99618 6.47089 -4
      vertex -3.99618 6.47089 0
    endloop
  endfacet
  facet normal -0.534582 0.845116 0
    outer loop
      vertex -2.75264 7.5123 -4
      vertex -3.43862 7.07838 0
      vertex -2.75264 7.5123 0
    endloop
  endfacet
  facet normal -0.534582 0.845116 0
    outer loop
      vertex -3.43862 7.07838 0
      vertex -2.75264 7.5123 -4
      vertex -3.43862 7.07838 -4
    endloop
  endfacet
  facet normal -0.304505 0.952511 0
    outer loop
      vertex -1.93825 7.77265 -4
      vertex -2.75264 7.5123 0
      vertex -1.93825 7.77265 0
    endloop
  endfacet
  facet normal -0.304505 0.952511 0
    outer loop
      vertex -2.75264 7.5123 0
      vertex -1.93825 7.77265 -4
      vertex -2.75264 7.5123 -4
    endloop
  endfacet
  facet normal -0.0916661 0.99579 0
    outer loop
      vertex -0.99543 7.85944 -4
      vertex -1.93825 7.77265 0
      vertex -0.99543 7.85944 0
    endloop
  endfacet
  facet normal -0.0916661 0.99579 0
    outer loop
      vertex -1.93825 7.77265 0
      vertex -0.99543 7.85944 -4
      vertex -1.93825 7.77265 -4
    endloop
  endfacet
  facet normal 0.049813 0.998759 -0
    outer loop
      vertex -0.389915 7.82924 -4
      vertex -0.99543 7.85944 0
      vertex -0.389915 7.82924 0
    endloop
  endfacet
  facet normal 0.049813 0.998759 0
    outer loop
      vertex -0.99543 7.85944 0
      vertex -0.389915 7.82924 -4
      vertex -0.99543 7.85944 -4
    endloop
  endfacet
  facet normal 0.163933 0.986471 -0
    outer loop
      vertex 0.155212 7.73865 -4
      vertex -0.389915 7.82924 0
      vertex 0.155212 7.73865 0
    endloop
  endfacet
  facet normal 0.163933 0.986471 0
    outer loop
      vertex -0.389915 7.82924 0
      vertex 0.155212 7.73865 -4
      vertex -0.389915 7.82924 -4
    endloop
  endfacet
  facet normal 0.297379 0.954759 -0
    outer loop
      vertex 0.639977 7.58766 -4
      vertex 0.155212 7.73865 0
      vertex 0.639977 7.58766 0
    endloop
  endfacet
  facet normal 0.297379 0.954759 0
    outer loop
      vertex 0.155212 7.73865 0
      vertex 0.639977 7.58766 -4
      vertex 0.155212 7.73865 -4
    endloop
  endfacet
  facet normal 0.445844 0.895111 -0
    outer loop
      vertex 1.06436 7.37628 -4
      vertex 0.639977 7.58766 0
      vertex 1.06436 7.37628 0
    endloop
  endfacet
  facet normal 0.445844 0.895111 0
    outer loop
      vertex 0.639977 7.58766 0
      vertex 1.06436 7.37628 -4
      vertex 0.639977 7.58766 -4
    endloop
  endfacet
  facet normal 0.594027 0.804445 -0
    outer loop
      vertex 1.44101 7.09815 -4
      vertex 1.06436 7.37628 0
      vertex 1.44101 7.09815 0
    endloop
  endfacet
  facet normal 0.594027 0.804445 0
    outer loop
      vertex 1.06436 7.37628 0
      vertex 1.44101 7.09815 -4
      vertex 1.06436 7.37628 -4
    endloop
  endfacet
  facet normal 0.716764 0.697316 0
    outer loop
      vertex 1.78271 6.74692 0
      vertex 1.44101 7.09815 -4
      vertex 1.44101 7.09815 0
    endloop
  endfacet
  facet normal 0.716764 0.697316 0
    outer loop
      vertex 1.44101 7.09815 -4
      vertex 1.78271 6.74692 0
      vertex 1.78271 6.74692 -4
    endloop
  endfacet
  facet normal 0.810423 0.585845 0
    outer loop
      vertex 2.08946 6.32258 0
      vertex 1.78271 6.74692 -4
      vertex 1.78271 6.74692 0
    endloop
  endfacet
  facet normal 0.810423 0.585845 0
    outer loop
      vertex 1.78271 6.74692 -4
      vertex 2.08946 6.32258 0
      vertex 2.08946 6.32258 -4
    endloop
  endfacet
  facet normal 0.877552 0.479482 0
    outer loop
      vertex 2.36126 5.82513 0
      vertex 2.08946 6.32258 -4
      vertex 2.08946 6.32258 0
    endloop
  endfacet
  facet normal 0.877552 0.479482 0
    outer loop
      vertex 2.08946 6.32258 -4
      vertex 2.36126 5.82513 0
      vertex 2.36126 5.82513 -4
    endloop
  endfacet
  facet normal 0 1 -0
    outer loop
      vertex 2.40192 5.82513 -4
      vertex 2.36126 5.82513 0
      vertex 2.40192 5.82513 0
    endloop
  endfacet
  facet normal 0 1 0
    outer loop
      vertex 2.36126 5.82513 0
      vertex 2.40192 5.82513 -4
      vertex 2.36126 5.82513 -4
    endloop
  endfacet
  facet normal -0.999935 0.0114287 0
    outer loop
      vertex 2.40192 5.82513 -4
      vertex 2.4035 5.96337 0
      vertex 2.4035 5.96337 -4
    endloop
  endfacet
  facet normal -0.999935 0.0114287 0
    outer loop
      vertex 2.4035 5.96337 0
      vertex 2.40192 5.82513 -4
      vertex 2.40192 5.82513 0
    endloop
  endfacet
  facet normal -0.999606 0.0280581 0
    outer loop
      vertex 2.4035 5.96337 -4
      vertex 2.40829 6.13402 0
      vertex 2.40829 6.13402 -4
    endloop
  endfacet
  facet normal -0.999606 0.0280581 0
    outer loop
      vertex 2.40829 6.13402 0
      vertex 2.4035 5.96337 -4
      vertex 2.4035 5.96337 0
    endloop
  endfacet
  facet normal -0.999231 0.0392174 0
    outer loop
      vertex 2.40829 6.13402 -4
      vertex 2.41626 6.33709 0
      vertex 2.41626 6.33709 -4
    endloop
  endfacet
  facet normal -0.999231 0.0392174 0
    outer loop
      vertex 2.41626 6.33709 0
      vertex 2.40829 6.13402 -4
      vertex 2.40829 6.13402 0
    endloop
  endfacet
  facet normal -0.998881 0.0472931 0
    outer loop
      vertex 2.41626 6.33709 -4
      vertex 2.42741 6.57259 0
      vertex 2.42741 6.57259 -4
    endloop
  endfacet
  facet normal -0.998881 0.0472931 0
    outer loop
      vertex 2.42741 6.57259 0
      vertex 2.41626 6.33709 -4
      vertex 2.41626 6.33709 0
    endloop
  endfacet
  facet normal -0.998635 0.0522308 0
    outer loop
      vertex 2.42741 6.57259 -4
      vertex 2.43978 6.8091 0
      vertex 2.43978 6.8091 -4
    endloop
  endfacet
  facet normal -0.998635 0.0522308 0
    outer loop
      vertex 2.43978 6.8091 0
      vertex 2.42741 6.57259 -4
      vertex 2.42741 6.57259 0
    endloop
  endfacet
  facet normal -0.99838 0.0569035 0
    outer loop
      vertex 2.43978 6.8091 -4
      vertex 2.45152 7.01508 0
      vertex 2.45152 7.01508 -4
    endloop
  endfacet
  facet normal -0.99838 0.0569035 0
    outer loop
      vertex 2.45152 7.01508 0
      vertex 2.43978 6.8091 -4
      vertex 2.43978 6.8091 0
    endloop
  endfacet
  facet normal -0.997994 0.063306 0
    outer loop
      vertex 2.45152 7.01508 -4
      vertex 2.46265 7.19054 0
      vertex 2.46265 7.19054 -4
    endloop
  endfacet
  facet normal -0.997994 0.063306 0
    outer loop
      vertex 2.46265 7.19054 0
      vertex 2.45152 7.01508 -4
      vertex 2.45152 7.01508 0
    endloop
  endfacet
  facet normal -0.997382 0.0723179 0
    outer loop
      vertex 2.46265 7.19054 -4
      vertex 2.47316 7.33549 0
      vertex 2.47316 7.33549 -4
    endloop
  endfacet
  facet normal -0.997382 0.0723179 0
    outer loop
      vertex 2.47316 7.33549 0
      vertex 2.46265 7.19054 -4
      vertex 2.46265 7.19054 0
    endloop
  endfacet
  facet normal -0.996625 0.0820932 0
    outer loop
      vertex 2.47316 7.33549 -4
      vertex 2.48272 7.45155 0
      vertex 2.48272 7.45155 -4
    endloop
  endfacet
  facet normal -0.996625 0.0820932 0
    outer loop
      vertex 2.48272 7.45155 0
      vertex 2.47316 7.33549 -4
      vertex 2.47316 7.33549 0
    endloop
  endfacet
  facet normal -0.995704 0.0925897 0
    outer loop
      vertex 2.48272 7.45155 -4
      vertex 2.49097 7.54027 0
      vertex 2.49097 7.54027 -4
    endloop
  endfacet
  facet normal -0.995704 0.0925897 0
    outer loop
      vertex 2.49097 7.54027 0
      vertex 2.48272 7.45155 -4
      vertex 2.48272 7.45155 0
    endloop
  endfacet
  facet normal -0.99361 0.112866 0
    outer loop
      vertex 2.49097 7.54027 -4
      vertex 2.49794 7.60163 0
      vertex 2.49794 7.60163 -4
    endloop
  endfacet
  facet normal -0.99361 0.112866 0
    outer loop
      vertex 2.49794 7.60163 0
      vertex 2.49097 7.54027 -4
      vertex 2.49097 7.54027 0
    endloop
  endfacet
  facet normal -0.986339 0.164728 0
    outer loop
      vertex 2.49794 7.60163 -4
      vertex 2.50362 7.63564 0
      vertex 2.50362 7.63564 -4
    endloop
  endfacet
  facet normal -0.986339 0.164728 0
    outer loop
      vertex 2.50362 7.63564 0
      vertex 2.49794 7.60163 -4
      vertex 2.49794 7.60163 0
    endloop
  endfacet
  facet normal 0 1 -0
    outer loop
      vertex 4.28381 7.63564 -4
      vertex 2.50362 7.63564 0
      vertex 4.28381 7.63564 0
    endloop
  endfacet
  facet normal 0 1 0
    outer loop
      vertex 2.50362 7.63564 0
      vertex 4.28381 7.63564 -4
      vertex 2.50362 7.63564 -4
    endloop
  endfacet
  facet normal 0.997074 -0.0764404 0
    outer loop
      vertex 4.2571 7.28724 0
      vertex 4.28381 7.63564 -4
      vertex 4.28381 7.63564 0
    endloop
  endfacet
  facet normal 0.997074 -0.0764404 0
    outer loop
      vertex 4.28381 7.63564 -4
      vertex 4.2571 7.28724 0
      vertex 4.2571 7.28724 -4
    endloop
  endfacet
  facet normal 0.999261 -0.0384486 0
    outer loop
      vertex 4.23802 6.79136 0
      vertex 4.2571 7.28724 -4
      vertex 4.2571 7.28724 0
    endloop
  endfacet
  facet normal 0.999261 -0.0384486 0
    outer loop
      vertex 4.2571 7.28724 -4
      vertex 4.23802 6.79136 0
      vertex 4.23802 6.79136 -4
    endloop
  endfacet
  facet normal 0.999842 -0.0177786 0
    outer loop
      vertex 4.22658 6.14799 0
      vertex 4.23802 6.79136 -4
      vertex 4.23802 6.79136 0
    endloop
  endfacet
  facet normal 0.999842 -0.0177786 0
    outer loop
      vertex 4.23802 6.79136 -4
      vertex 4.22658 6.14799 0
      vertex 4.22658 6.14799 -4
    endloop
  endfacet
  facet normal 0.999988 -0.00483013 0
    outer loop
      vertex 4.22276 5.35713 0
      vertex 4.22658 6.14799 -4
      vertex 4.22658 6.14799 0
    endloop
  endfacet
  facet normal 0.999988 -0.00483013 0
    outer loop
      vertex 4.22658 6.14799 -4
      vertex 4.22276 5.35713 0
      vertex 4.22276 5.35713 -4
    endloop
  endfacet
  facet normal 1 -0 0
    outer loop
      vertex 4.22276 -7.69331 0
      vertex 4.22276 5.35713 -4
      vertex 4.22276 5.35713 0
    endloop
  endfacet
  facet normal 1 0 0
    outer loop
      vertex 4.22276 5.35713 -4
      vertex 4.22276 -7.69331 0
      vertex 4.22276 -7.69331 -4
    endloop
  endfacet
  facet normal 0 -1 0
    outer loop
      vertex 2.38166 -7.69331 -4
      vertex 4.22276 -7.69331 0
      vertex 2.38166 -7.69331 0
    endloop
  endfacet
  facet normal 0 -1 -0
    outer loop
      vertex 4.22276 -7.69331 0
      vertex 2.38166 -7.69331 -4
      vertex 4.22276 -7.69331 -4
    endloop
  endfacet
  facet normal -1 0 0
    outer loop
      vertex 2.38166 -7.69331 -4
      vertex 2.38166 -3.39071 0
      vertex 2.38166 -3.39071 -4
    endloop
  endfacet
  facet normal -1 -0 0
    outer loop
      vertex 2.38166 -3.39071 0
      vertex 2.38166 -7.69331 -4
      vertex 2.38166 -7.69331 0
    endloop
  endfacet
  facet normal -0.29951 0.954093 0
    outer loop
      vertex 0.810112 -1.96912 -4
      vertex 0.208687 -2.15792 0
      vertex 0.810112 -1.96912 0
    endloop
  endfacet
  facet normal -0.29951 0.954093 0
    outer loop
      vertex 0.208687 -2.15792 0
      vertex 0.810112 -1.96912 -4
      vertex 0.208687 -2.15792 -4
    endloop
  endfacet
  facet normal -0.534798 0.84498 0
    outer loop
      vertex 1.30729 -1.65445 -4
      vertex 0.810112 -1.96912 0
      vertex 1.30729 -1.65445 0
    endloop
  endfacet
  facet normal -0.534798 0.84498 0
    outer loop
      vertex 0.810112 -1.96912 0
      vertex 1.30729 -1.65445 -4
      vertex 0.810112 -1.96912 -4
    endloop
  endfacet
  facet normal -0.74629 0.66562 0
    outer loop
      vertex 1.30729 -1.65445 -4
      vertex 1.70021 -1.21391 0
      vertex 1.70021 -1.21391 -4
    endloop
  endfacet
  facet normal -0.74629 0.66562 0
    outer loop
      vertex 1.70021 -1.21391 0
      vertex 1.30729 -1.65445 -4
      vertex 1.30729 -1.65445 0
    endloop
  endfacet
  facet normal -0.888098 0.459655 0
    outer loop
      vertex 1.70021 -1.21391 -4
      vertex 1.99834 -0.637894 0
      vertex 1.99834 -0.637894 -4
    endloop
  endfacet
  facet normal -0.888098 0.459655 0
    outer loop
      vertex 1.99834 -0.637894 0
      vertex 1.70021 -1.21391 -4
      vertex 1.70021 -1.21391 0
    endloop
  endfacet
  facet normal -0.959036 0.283286 0
    outer loop
      vertex 1.99834 -0.637894 -4
      vertex 2.2113 0.0830612 0
      vertex 2.2113 0.0830612 -4
    endloop
  endfacet
  facet normal -0.959036 0.283286 0
    outer loop
      vertex 2.2113 0.0830612 0
      vertex 1.99834 -0.637894 -4
      vertex 1.99834 -0.637894 0
    endloop
  endfacet
  facet normal -0.989288 0.145978 0
    outer loop
      vertex 2.2113 0.0830612 -4
      vertex 2.33907 0.948952 0
      vertex 2.33907 0.948952 -4
    endloop
  endfacet
  facet normal -0.989288 0.145978 0
    outer loop
      vertex 2.33907 0.948952 0
      vertex 2.2113 0.0830612 -4
      vertex 2.2113 0.0830612 0
    endloop
  endfacet
  facet normal -0.999114 0.042096 0
    outer loop
      vertex 2.33907 0.948952 -4
      vertex 2.38166 1.95979 0
      vertex 2.38166 1.95979 -4
    endloop
  endfacet
  facet normal -0.999114 0.042096 0
    outer loop
      vertex 2.38166 1.95979 0
      vertex 2.33907 0.948952 -4
      vertex 2.33907 0.948952 0
    endloop
  endfacet
  facet normal -0.99919 -0.0402408 0
    outer loop
      vertex 2.38166 1.95979 -4
      vertex 2.33907 3.01731 0
      vertex 2.33907 3.01731 -4
    endloop
  endfacet
  facet normal -0.99919 -0.0402408 0
    outer loop
      vertex 2.33907 3.01731 0
      vertex 2.38166 1.95979 -4
      vertex 2.38166 1.95979 0
    endloop
  endfacet
  facet normal -0.99038 -0.138375 0
    outer loop
      vertex 2.33907 3.01731 -4
      vertex 2.2113 3.93179 0
      vertex 2.2113 3.93179 -4
    endloop
  endfacet
  facet normal -0.99038 -0.138375 0
    outer loop
      vertex 2.2113 3.93179 0
      vertex 2.33907 3.01731 -4
      vertex 2.33907 3.01731 0
    endloop
  endfacet
  facet normal -0.963946 -0.266099 0
    outer loop
      vertex 2.2113 3.93179 -4
      vertex 1.99834 4.70324 0
      vertex 1.99834 4.70324 -4
    endloop
  endfacet
  facet normal -0.963946 -0.266099 0
    outer loop
      vertex 1.99834 4.70324 0
      vertex 2.2113 3.93179 -4
      vertex 2.2113 3.93179 0
    endloop
  endfacet
  facet normal -0.903475 -0.42864 0
    outer loop
      vertex 1.99834 4.70324 -4
      vertex 1.70021 5.33163 0
      vertex 1.70021 5.33163 -4
    endloop
  endfacet
  facet normal -0.903475 -0.42864 0
    outer loop
      vertex 1.70021 5.33163 0
      vertex 1.99834 4.70324 -4
      vertex 1.99834 4.70324 0
    endloop
  endfacet
  facet normal -0.777491 -0.628894 0
    outer loop
      vertex 1.70021 5.33163 -4
      vertex 1.30602 5.81896 0
      vertex 1.30602 5.81896 -4
    endloop
  endfacet
  facet normal -0.777491 -0.628894 0
    outer loop
      vertex 1.30602 5.81896 0
      vertex 1.70021 5.33163 -4
      vertex 1.70021 5.33163 0
    endloop
  endfacet
  facet normal -0.570595 -0.821231 0
    outer loop
      vertex 0.805016 6.16706 -4
      vertex 1.30602 5.81896 0
      vertex 0.805016 6.16706 0
    endloop
  endfacet
  facet normal -0.570595 -0.821231 -0
    outer loop
      vertex 1.30602 5.81896 0
      vertex 0.805016 6.16706 -4
      vertex 1.30602 5.81896 -4
    endloop
  endfacet
  facet normal -0.324979 -0.945721 0
    outer loop
      vertex 0.197212 6.37592 -4
      vertex 0.805016 6.16706 0
      vertex 0.197212 6.37592 0
    endloop
  endfacet
  facet normal -0.324979 -0.945721 -0
    outer loop
      vertex 0.805016 6.16706 0
      vertex 0.197212 6.37592 -4
      vertex 0.805016 6.16706 -4
    endloop
  endfacet
  facet normal -0.0969533 -0.995289 0
    outer loop
      vertex -0.51738 6.44553 -4
      vertex 0.197212 6.37592 0
      vertex -0.51738 6.44553 0
    endloop
  endfacet
  facet normal -0.0969533 -0.995289 -0
    outer loop
      vertex 0.197212 6.37592 0
      vertex -0.51738 6.44553 -4
      vertex 0.197212 6.37592 -4
    endloop
  endfacet
  facet normal 0.0981835 -0.995168 0
    outer loop
      vertex -1.13911 6.38419 -4
      vertex -0.51738 6.44553 0
      vertex -1.13911 6.38419 0
    endloop
  endfacet
  facet normal 0.0981835 -0.995168 0
    outer loop
      vertex -0.51738 6.44553 0
      vertex -1.13911 6.38419 -4
      vertex -0.51738 6.44553 -4
    endloop
  endfacet
  facet normal 0.326556 -0.945178 0
    outer loop
      vertex -1.67185 6.20013 -4
      vertex -1.13911 6.38419 0
      vertex -1.67185 6.20013 0
    endloop
  endfacet
  facet normal 0.326556 -0.945178 0
    outer loop
      vertex -1.13911 6.38419 0
      vertex -1.67185 6.20013 -4
      vertex -1.13911 6.38419 -4
    endloop
  endfacet
  facet normal 0.56861 -0.822607 0
    outer loop
      vertex -2.11561 5.89339 -4
      vertex -1.67185 6.20013 0
      vertex -2.11561 5.89339 0
    endloop
  endfacet
  facet normal 0.56861 -0.822607 0
    outer loop
      vertex -1.67185 6.20013 0
      vertex -2.11561 5.89339 -4
      vertex -1.67185 6.20013 -4
    endloop
  endfacet
  facet normal 0.770956 -0.636889 0
    outer loop
      vertex -2.47038 5.46394 0
      vertex -2.11561 5.89339 -4
      vertex -2.11561 5.89339 0
    endloop
  endfacet
  facet normal 0.770956 -0.636889 0
    outer loop
      vertex -2.11561 5.89339 -4
      vertex -2.47038 5.46394 0
      vertex -2.47038 5.46394 -4
    endloop
  endfacet
  facet normal 0.903733 -0.428096 0
    outer loop
      vertex -2.74187 4.89081 0
      vertex -2.47038 5.46394 -4
      vertex -2.47038 5.46394 0
    endloop
  endfacet
  facet normal 0.903733 -0.428096 0
    outer loop
      vertex -2.47038 5.46394 -4
      vertex -2.74187 4.89081 0
      vertex -2.74187 4.89081 -4
    endloop
  endfacet
  facet normal 0.967148 -0.254215 0
    outer loop
      vertex -2.93579 4.15305 0
      vertex -2.74187 4.89081 -4
      vertex -2.74187 4.89081 0
    endloop
  endfacet
  facet normal 0.967148 -0.254215 0
    outer loop
      vertex -2.74187 4.89081 -4
      vertex -2.93579 4.15305 0
      vertex -2.93579 4.15305 -4
    endloop
  endfacet
  facet normal 0.991789 -0.127883 0
    outer loop
      vertex -3.05215 3.25063 0
      vertex -2.93579 4.15305 -4
      vertex -2.93579 4.15305 0
    endloop
  endfacet
  facet normal 0.991789 -0.127883 0
    outer loop
      vertex -2.93579 4.15305 -4
      vertex -3.05215 3.25063 0
      vertex -3.05215 3.25063 -4
    endloop
  endfacet
  facet normal 0.99934 -0.0363196 0
    outer loop
      vertex -3.09093 2.18359 0
      vertex -3.05215 3.25063 -4
      vertex -3.05215 3.25063 0
    endloop
  endfacet
  facet normal 0.99934 -0.0363196 0
    outer loop
      vertex -3.05215 3.25063 -4
      vertex -3.09093 2.18359 0
      vertex -3.09093 2.18359 -4
    endloop
  endfacet
  facet normal 0.99937 0.035483 0
    outer loop
      vertex -3.05215 1.09136 0
      vertex -3.09093 2.18359 -4
      vertex -3.09093 2.18359 0
    endloop
  endfacet
  facet normal 0.99937 0.035483 0
    outer loop
      vertex -3.09093 2.18359 -4
      vertex -3.05215 1.09136 0
      vertex -3.05215 1.09136 -4
    endloop
  endfacet
  facet normal 0.992213 0.124556 0
    outer loop
      vertex -2.93579 0.164436 0
      vertex -3.05215 1.09136 -4
      vertex -3.05215 1.09136 0
    endloop
  endfacet
  facet normal 0.992213 0.124556 0
    outer loop
      vertex -3.05215 1.09136 -4
      vertex -2.93579 0.164436 0
      vertex -2.93579 0.164436 -4
    endloop
  endfacet
  facet normal 0.969081 0.246743 0
    outer loop
      vertex -2.74187 -0.597183 0
      vertex -2.93579 0.164436 -4
      vertex -2.93579 0.164436 0
    endloop
  endfacet
  facet normal 0.969081 0.246743 0
    outer loop
      vertex -2.93579 0.164436 -4
      vertex -2.74187 -0.597183 0
      vertex -2.74187 -0.597183 -4
    endloop
  endfacet
  facet normal 0.910118 0.41435 0
    outer loop
      vertex -2.47038 -1.19351 0
      vertex -2.74187 -0.597183 -4
      vertex -2.74187 -0.597183 0
    endloop
  endfacet
  facet normal 0.910118 0.41435 0
    outer loop
      vertex -2.74187 -0.597183 -4
      vertex -2.47038 -1.19351 0
      vertex -2.47038 -1.19351 -4
    endloop
  endfacet
  facet normal 0.783853 0.620947 0
    outer loop
      vertex -2.11433 -1.64297 0
      vertex -2.47038 -1.19351 -4
      vertex -2.47038 -1.19351 0
    endloop
  endfacet
  facet normal 0.783853 0.620947 0
    outer loop
      vertex -2.47038 -1.19351 -4
      vertex -2.11433 -1.64297 0
      vertex -2.11433 -1.64297 -4
    endloop
  endfacet
  facet normal 0.582869 0.812566 -0
    outer loop
      vertex -1.66676 -1.96402 -4
      vertex -2.11433 -1.64297 0
      vertex -1.66676 -1.96402 0
    endloop
  endfacet
  facet normal 0.582869 0.812566 0
    outer loop
      vertex -2.11433 -1.64297 0
      vertex -1.66676 -1.96402 -4
      vertex -2.11433 -1.64297 -4
    endloop
  endfacet
  facet normal 0.336466 0.941696 -0
    outer loop
      vertex -1.12763 -2.15665 -4
      vertex -1.66676 -1.96402 0
      vertex -1.12763 -2.15665 0
    endloop
  endfacet
  facet normal 0.336466 0.941696 0
    outer loop
      vertex -1.66676 -1.96402 0
      vertex -1.12763 -2.15665 -4
      vertex -1.66676 -1.96402 -4
    endloop
  endfacet
  facet normal 0.101292 0.994857 -0
    outer loop
      vertex -0.496979 -2.22086 -4
      vertex -1.12763 -2.15665 0
      vertex -0.496979 -2.22086 0
    endloop
  endfacet
  facet normal 0.101292 0.994857 0
    outer loop
      vertex -1.12763 -2.15665 0
      vertex -0.496979 -2.22086 -4
      vertex -1.12763 -2.15665 -4
    endloop
  endfacet
  facet normal -0.0888397 0.996046 0
    outer loop
      vertex 0.208687 -2.15792 -4
      vertex -0.496979 -2.22086 0
      vertex 0.208687 -2.15792 0
    endloop
  endfacet
  facet normal -0.0888397 0.996046 0
    outer loop
      vertex -0.496979 -2.22086 0
      vertex 0.208687 -2.15792 -4
      vertex -0.496979 -2.22086 -4
    endloop
  endfacet
  facet normal -1 0 0
    outer loop
      vertex -6 -10 -14
      vertex -6 10 -4
      vertex -6 10 -14
    endloop
  endfacet
  facet normal -1 -0 0
    outer loop
      vertex -6 10 -4
      vertex -6 -10 -14
      vertex -6 -10 -4
    endloop
  endfacet
  facet normal 0 0 -1
    outer loop
      vertex -6 -10 -14
      vertex 6 10 -14
      vertex 6 -10 -14
    endloop
  endfacet
  facet normal -0 0 -1
    outer loop
      vertex 6 10 -14
      vertex -6 -10 -14
      vertex -6 10 -14
    endloop
  endfacet
  facet normal 0 0 1
    outer loop
      vertex 2.3842 -2.68246 -4
      vertex 1.83681 -2.52097 -4
      vertex 2.38166 -3.39071 -4
    endloop
  endfacet
  facet normal 0 0 1
    outer loop
      vertex 2.39182 -2.16495 -4
      vertex 1.83681 -2.52097 -4
      vertex 2.3842 -2.68246 -4
    endloop
  endfacet
  facet normal 0 0 1
    outer loop
      vertex 2.40453 -1.83818 -4
      vertex 1.83681 -2.52097 -4
      vertex 2.39182 -2.16495 -4
    endloop
  endfacet
  facet normal 0 0 1
    outer loop
      vertex 1.83681 -2.52097 -4
      vertex 2.40453 -1.83818 -4
      vertex 2.37146 -1.70216 -4
    endloop
  endfacet
  facet normal -0 0 1
    outer loop
      vertex 2.37146 -1.70216 -4
      vertex 2.40453 -1.83818 -4
      vertex 2.42231 -1.70216 -4
    endloop
  endfacet
  facet normal 0 0 1
    outer loop
      vertex 4.2571 7.28724 -4
      vertex 6 10 -4
      vertex 4.28381 7.63564 -4
    endloop
  endfacet
  facet normal 0 0 1
    outer loop
      vertex 6 10 -4
      vertex 2.50362 7.63564 -4
      vertex 4.28381 7.63564 -4
    endloop
  endfacet
  facet normal 0 0 1
    outer loop
      vertex 2.4035 5.96337 -4
      vertex 2.36126 5.82513 -4
      vertex 2.40192 5.82513 -4
    endloop
  endfacet
  facet normal 0 0 1
    outer loop
      vertex 2.08946 6.32258 -4
      vertex 2.4035 5.96337 -4
      vertex 2.40829 6.13402 -4
    endloop
  endfacet
  facet normal -0 0 1
    outer loop
      vertex 2.08946 6.32258 -4
      vertex 2.40829 6.13402 -4
      vertex 2.41626 6.33709 -4
    endloop
  endfacet
  facet normal 0 0 1
    outer loop
      vertex 2.08946 6.32258 -4
      vertex 2.41626 6.33709 -4
      vertex 2.42741 6.57259 -4
    endloop
  endfacet
  facet normal -0 0 1
    outer loop
      vertex 1.78271 6.74692 -4
      vertex 2.42741 6.57259 -4
      vertex 2.43978 6.8091 -4
    endloop
  endfacet
  facet normal 0 0 1
    outer loop
      vertex 1.78271 6.74692 -4
      vertex 2.43978 6.8091 -4
      vertex 2.45152 7.01508 -4
    endloop
  endfacet
  facet normal 0 0 1
    outer loop
      vertex 1.78271 6.74692 -4
      vertex 2.45152 7.01508 -4
      vertex 2.46265 7.19054 -4
    endloop
  endfacet
  facet normal 0 0 1
    outer loop
      vertex 1.44101 7.09815 -4
      vertex 2.46265 7.19054 -4
      vertex 2.47316 7.33549 -4
    endloop
  endfacet
  facet normal 0 0 1
    outer loop
      vertex 2.4035 5.96337 -4
      vertex 2.08946 6.32258 -4
      vertex 2.36126 5.82513 -4
    endloop
  endfacet
  facet normal 0 0 1
    outer loop
      vertex 1.44101 7.09815 -4
      vertex 2.47316 7.33549 -4
      vertex 2.48272 7.45155 -4
    endloop
  endfacet
  facet normal 0 0 1
    outer loop
      vertex 1.44101 7.09815 -4
      vertex 2.48272 7.45155 -4
      vertex 2.49097 7.54027 -4
    endloop
  endfacet
  facet normal 0 0 1
    outer loop
      vertex 1.44101 7.09815 -4
      vertex 2.49097 7.54027 -4
      vertex 2.49794 7.60163 -4
    endloop
  endfacet
  facet normal 0 0 1
    outer loop
      vertex 1.44101 7.09815 -4
      vertex 2.49794 7.60163 -4
      vertex 2.50362 7.63564 -4
    endloop
  endfacet
  facet normal 0 0 1
    outer loop
      vertex 2.42741 6.57259 -4
      vertex 1.78271 6.74692 -4
      vertex 2.08946 6.32258 -4
    endloop
  endfacet
  facet normal 0 0 1
    outer loop
      vertex 2.46265 7.19054 -4
      vertex 1.44101 7.09815 -4
      vertex 1.78271 6.74692 -4
    endloop
  endfacet
  facet normal -0 0 1
    outer loop
      vertex 0.155212 7.73865 -4
      vertex 2.50362 7.63564 -4
      vertex 6 10 -4
    endloop
  endfacet
  facet normal 0 0 1
    outer loop
      vertex 2.50362 7.63564 -4
      vertex 1.06436 7.37628 -4
      vertex 1.44101 7.09815 -4
    endloop
  endfacet
  facet normal 0 0 1
    outer loop
      vertex 2.50362 7.63564 -4
      vertex 0.639977 7.58766 -4
      vertex 1.06436 7.37628 -4
    endloop
  endfacet
  facet normal 0 0 1
    outer loop
      vertex 2.50362 7.63564 -4
      vertex 0.155212 7.73865 -4
      vertex 0.639977 7.58766 -4
    endloop
  endfacet
  facet normal 0 0 1
    outer loop
      vertex 6 10 -4
      vertex -0.389915 7.82924 -4
      vertex 0.155212 7.73865 -4
    endloop
  endfacet
  facet normal -0 0 1
    outer loop
      vertex -6 10 -4
      vertex -0.389915 7.82924 -4
      vertex 6 10 -4
    endloop
  endfacet
  facet normal 0 0 1
    outer loop
      vertex -0.389915 7.82924 -4
      vertex -6 10 -4
      vertex -0.99543 7.85944 -4
    endloop
  endfacet
  facet normal 0 0 1
    outer loop
      vertex -4.92121 3.53863 -4
      vertex -6 10 -4
      vertex -4.98288 2.18359 -4
    endloop
  endfacet
  facet normal 0 0 1
    outer loop
      vertex -4.73621 4.70486 -4
      vertex -6 10 -4
      vertex -4.92121 3.53863 -4
    endloop
  endfacet
  facet normal 0 0 1
    outer loop
      vertex -4.42786 5.68227 -4
      vertex -6 10 -4
      vertex -4.73621 4.70486 -4
    endloop
  endfacet
  facet normal 0 0 1
    outer loop
      vertex -3.99618 6.47089 -4
      vertex -6 10 -4
      vertex -4.42786 5.68227 -4
    endloop
  endfacet
  facet normal 0 0 1
    outer loop
      vertex -3.43862 7.07838 -4
      vertex -6 10 -4
      vertex -3.99618 6.47089 -4
    endloop
  endfacet
  facet normal 0 0 1
    outer loop
      vertex -2.75264 7.5123 -4
      vertex -6 10 -4
      vertex -3.43862 7.07838 -4
    endloop
  endfacet
  facet normal 0 0 1
    outer loop
      vertex -1.93825 7.77265 -4
      vertex -6 10 -4
      vertex -2.75264 7.5123 -4
    endloop
  endfacet
  facet normal 0 0 1
    outer loop
      vertex -0.99543 7.85944 -4
      vertex -6 10 -4
      vertex -1.93825 7.77265 -4
    endloop
  endfacet
  facet normal 0 0 1
    outer loop
      vertex 6 10 -4
      vertex 4.2571 7.28724 -4
      vertex 4.23802 6.79136 -4
    endloop
  endfacet
  facet normal 0 0 1
    outer loop
      vertex 6 10 -4
      vertex 4.23802 6.79136 -4
      vertex 4.22658 6.14799 -4
    endloop
  endfacet
  facet normal 0 0 1
    outer loop
      vertex 6 10 -4
      vertex 4.22658 6.14799 -4
      vertex 4.22276 5.35713 -4
    endloop
  endfacet
  facet normal 0 0 1
    outer loop
      vertex 6 10 -4
      vertex 4.22276 5.35713 -4
      vertex 6 -10 -4
    endloop
  endfacet
  facet normal -0 0 1
    outer loop
      vertex 4.22276 -7.69331 -4
      vertex 6 -10 -4
      vertex 4.22276 5.35713 -4
    endloop
  endfacet
  facet normal -0 0 1
    outer loop
      vertex 2.38166 -7.69331 -4
      vertex 6 -10 -4
      vertex 4.22276 -7.69331 -4
    endloop
  endfacet
  facet normal -0 0 1
    outer loop
      vertex 1.09743 -3.10582 -4
      vertex 2.38166 -3.39071 -4
      vertex 1.83681 -2.52097 -4
    endloop
  endfacet
  facet normal 0 0 1
    outer loop
      vertex 0.153358 -3.45673 -4
      vertex 2.38166 -3.39071 -4
      vertex 1.09743 -3.10582 -4
    endloop
  endfacet
  facet normal 0 0 1
    outer loop
      vertex 2.38166 -3.39071 -4
      vertex 0.153358 -3.45673 -4
      vertex 2.38166 -7.69331 -4
    endloop
  endfacet
  facet normal -0 0 1
    outer loop
      vertex -0.99543 -3.57371 -4
      vertex 2.38166 -7.69331 -4
      vertex 0.153358 -3.45673 -4
    endloop
  endfacet
  facet normal 0 0 1
    outer loop
      vertex -6 -10 -4
      vertex -0.99543 -3.57371 -4
      vertex -2.73994 -3.21387 -4
    endloop
  endfacet
  facet normal 0 0 1
    outer loop
      vertex -6 -10 -4
      vertex -2.73994 -3.21387 -4
      vertex -3.98602 -2.13438 -4
    endloop
  endfacet
  facet normal 0 0 1
    outer loop
      vertex -6 -10 -4
      vertex -4.98288 2.18359 -4
      vertex -6 10 -4
    endloop
  endfacet
  facet normal 0 0 1
    outer loop
      vertex 2.38166 -7.69331 -4
      vertex -6 -10 -4
      vertex 6 -10 -4
    endloop
  endfacet
  facet normal 0 0 1
    outer loop
      vertex -0.99543 -3.57371 -4
      vertex -6 -10 -4
      vertex 2.38166 -7.69331 -4
    endloop
  endfacet
  facet normal 0 0 1
    outer loop
      vertex -4.73367 -0.335228 -4
      vertex -6 -10 -4
      vertex -3.98602 -2.13438 -4
    endloop
  endfacet
  facet normal 0 0 1
    outer loop
      vertex -4.98288 2.18359 -4
      vertex -6 -10 -4
      vertex -4.73367 -0.335228 -4
    endloop
  endfacet
  facet normal -0 0 1
    outer loop
      vertex -3.09093 2.18359 -4
      vertex 2.38166 1.95979 -4
      vertex 2.33907 3.01731 -4
    endloop
  endfacet
  facet normal -0 0 1
    outer loop
      vertex -3.05215 3.25063 -4
      vertex 2.33907 3.01731 -4
      vertex 2.2113 3.93179 -4
    endloop
  endfacet
  facet normal 0 -0 1
    outer loop
      vertex -3.05215 1.09136 -4
      vertex 2.38166 1.95979 -4
      vertex -3.09093 2.18359 -4
    endloop
  endfacet
  facet normal -0 0 1
    outer loop
      vertex -2.93579 4.15305 -4
      vertex 2.2113 3.93179 -4
      vertex 1.99834 4.70324 -4
    endloop
  endfacet
  facet normal 0 0 1
    outer loop
      vertex 2.38166 1.95979 -4
      vertex -3.05215 1.09136 -4
      vertex 2.33907 0.948952 -4
    endloop
  endfacet
  facet normal 0 0 1
    outer loop
      vertex 0.197212 6.37592 -4
      vertex 1.99834 4.70324 -4
      vertex 1.70021 5.33163 -4
    endloop
  endfacet
  facet normal 0 -0 1
    outer loop
      vertex -2.93579 0.164436 -4
      vertex 2.33907 0.948952 -4
      vertex -3.05215 1.09136 -4
    endloop
  endfacet
  facet normal 0 0 1
    outer loop
      vertex 2.33907 0.948952 -4
      vertex -2.93579 0.164436 -4
      vertex 2.2113 0.0830612 -4
    endloop
  endfacet
  facet normal 0 0 1
    outer loop
      vertex 0.197212 6.37592 -4
      vertex 1.70021 5.33163 -4
      vertex 1.30602 5.81896 -4
    endloop
  endfacet
  facet normal 0 0 1
    outer loop
      vertex 2.2113 0.0830612 -4
      vertex -2.93579 0.164436 -4
      vertex 1.99834 -0.637894 -4
    endloop
  endfacet
  facet normal 0 0 1
    outer loop
      vertex 0.197212 6.37592 -4
      vertex 1.30602 5.81896 -4
      vertex 0.805016 6.16706 -4
    endloop
  endfacet
  facet normal -0 -0 1
    outer loop
      vertex -2.74187 -0.597183 -4
      vertex 1.99834 -0.637894 -4
      vertex -2.93579 0.164436 -4
    endloop
  endfacet
  facet normal 0 0 1
    outer loop
      vertex 1.99834 4.70324 -4
      vertex 0.197212 6.37592 -4
      vertex -2.74187 4.89081 -4
    endloop
  endfacet
  facet normal 0 -0 1
    outer loop
      vertex 0.208687 -2.15792 -4
      vertex 1.99834 -0.637894 -4
      vertex -2.74187 -0.597183 -4
    endloop
  endfacet
  facet normal 0 0 1
    outer loop
      vertex -2.74187 4.89081 -4
      vertex 0.197212 6.37592 -4
      vertex -0.51738 6.44553 -4
    endloop
  endfacet
  facet normal 0 -0 1
    outer loop
      vertex 0.810112 -1.96912 -4
      vertex 1.70021 -1.21391 -4
      vertex 0.208687 -2.15792 -4
    endloop
  endfacet
  facet normal 0 0 1
    outer loop
      vertex -2.74187 4.89081 -4
      vertex -0.51738 6.44553 -4
      vertex -1.13911 6.38419 -4
    endloop
  endfacet
  facet normal 0 0 1
    outer loop
      vertex 1.70021 -1.21391 -4
      vertex 0.810112 -1.96912 -4
      vertex 1.30729 -1.65445 -4
    endloop
  endfacet
  facet normal 0 0 1
    outer loop
      vertex -2.47038 5.46394 -4
      vertex -1.13911 6.38419 -4
      vertex -1.67185 6.20013 -4
    endloop
  endfacet
  facet normal 0 0 1
    outer loop
      vertex 1.99834 -0.637894 -4
      vertex 0.208687 -2.15792 -4
      vertex 1.70021 -1.21391 -4
    endloop
  endfacet
  facet normal 0 0 1
    outer loop
      vertex -2.47038 5.46394 -4
      vertex -1.67185 6.20013 -4
      vertex -2.11561 5.89339 -4
    endloop
  endfacet
  facet normal 0 0 1
    outer loop
      vertex -1.13911 6.38419 -4
      vertex -2.47038 5.46394 -4
      vertex -2.74187 4.89081 -4
    endloop
  endfacet
  facet normal 0 0 1
    outer loop
      vertex 0.208687 -2.15792 -4
      vertex -2.74187 -0.597183 -4
      vertex -0.496979 -2.22086 -4
    endloop
  endfacet
  facet normal 0 0 1
    outer loop
      vertex 1.99834 4.70324 -4
      vertex -2.74187 4.89081 -4
      vertex -2.93579 4.15305 -4
    endloop
  endfacet
  facet normal 0 0 1
    outer loop
      vertex -0.496979 -2.22086 -4
      vertex -2.74187 -0.597183 -4
      vertex -1.12763 -2.15665 -4
    endloop
  endfacet
  facet normal 0 0 1
    outer loop
      vertex 2.2113 3.93179 -4
      vertex -2.93579 4.15305 -4
      vertex -3.05215 3.25063 -4
    endloop
  endfacet
  facet normal -0 -0 1
    outer loop
      vertex -2.47038 -1.19351 -4
      vertex -1.12763 -2.15665 -4
      vertex -2.74187 -0.597183 -4
    endloop
  endfacet
  facet normal 0 0 1
    outer loop
      vertex 2.33907 3.01731 -4
      vertex -3.05215 3.25063 -4
      vertex -3.09093 2.18359 -4
    endloop
  endfacet
  facet normal 0 0 1
    outer loop
      vertex -1.12763 -2.15665 -4
      vertex -2.47038 -1.19351 -4
      vertex -1.66676 -1.96402 -4
    endloop
  endfacet
  facet normal 0 0 1
    outer loop
      vertex -1.66676 -1.96402 -4
      vertex -2.47038 -1.19351 -4
      vertex -2.11433 -1.64297 -4
    endloop
  endfacet
  facet normal 1 -0 0
    outer loop
      vertex 6 -10 -4
      vertex 6 10 -14
      vertex 6 10 -4
    endloop
  endfacet
  facet normal 1 0 0
    outer loop
      vertex 6 10 -14
      vertex 6 -10 -4
      vertex 6 -10 -14
    endloop
  endfacet
  facet normal 0 1 -0
    outer loop
      vertex 6 10 -14
      vertex -6 10 -4
      vertex 6 10 -4
    endloop
  endfacet
  facet normal 0 1 0
    outer loop
      vertex -6 10 -4
      vertex 6 10 -14
      vertex -6 10 -14
    endloop
  endfacet
  facet normal 0 -1 0
    outer loop
      vertex -6 -10 -14
      vertex 6 -10 -4
      vertex -6 -10 -4
    endloop
  endfacet
  facet normal 0 -1 -0
    outer loop
      vertex 6 -10 -4
      vertex -6 -10 -14
      vertex 6 -10 -14
    endloop
  endfacet
endsolid OpenSCAD_Model
