solid OpenSCAD_Model
  facet normal 0 0 1
    outer loop
      vertex 0.621864 -1.53161 0
      vertex 5.40266 5.62939 0
      vertex 3.34796 5.62939 0
    endloop
  endfacet
  facet normal 0 0 1
    outer loop
      vertex 5.40266 5.62939 0
      vertex 0.621864 -1.53161 0
      vertex 0.998215 -5.37656 0
    endloop
  endfacet
  facet normal -0 0 1
    outer loop
      vertex 0.448914 -2.07071 0
      vertex 0.998215 -5.37656 0
      vertex 0.621864 -1.53161 0
    endloop
  endfacet
  facet normal -0 0 1
    outer loop
      vertex -0.0799789 -3.94226 0
      vertex 0.998215 -5.37656 0
      vertex 0.448914 -2.07071 0
    endloop
  endfacet
  facet normal 0 0 1
    outer loop
      vertex -1.16838 -5.37656 0
      vertex -0.435928 -2.75216 0
      vertex -0.83268 -1.55186 0
    endloop
  endfacet
  facet normal 0 0 1
    outer loop
      vertex -0.0799789 -3.94226 0
      vertex -1.16838 -5.37656 0
      vertex 0.998215 -5.37656 0
    endloop
  endfacet
  facet normal 0 0 1
    outer loop
      vertex -0.435928 -2.75216 0
      vertex -1.16838 -5.37656 0
      vertex -0.0799789 -3.94226 0
    endloop
  endfacet
  facet normal -0 0 1
    outer loop
      vertex -5.68473 5.62939 0
      vertex -0.83268 -1.55186 0
      vertex -3.64008 5.62939 0
    endloop
  endfacet
  facet normal 0 0 1
    outer loop
      vertex -0.83268 -1.55186 0
      vertex -5.68473 5.62939 0
      vertex -1.16838 -5.37656 0
    endloop
  endfacet
  facet normal 0 1 -0
    outer loop
      vertex -3.64008 5.62939 -4
      vertex -5.68473 5.62939 0
      vertex -3.64008 5.62939 0
    endloop
  endfacet
  facet normal 0 1 0
    outer loop
      vertex -5.68473 5.62939 0
      vertex -3.64008 5.62939 -4
      vertex -5.68473 5.62939 -4
    endloop
  endfacet
  facet normal 0.93136 0.364101 0
    outer loop
      vertex -0.83268 -1.55186 0
      vertex -3.64008 5.62939 -4
      vertex -3.64008 5.62939 0
    endloop
  endfacet
  facet normal 0.93136 0.364101 0
    outer loop
      vertex -3.64008 5.62939 -4
      vertex -0.83268 -1.55186 0
      vertex -0.83268 -1.55186 -4
    endloop
  endfacet
  facet normal 0.949475 0.313843 0
    outer loop
      vertex -0.435928 -2.75216 0
      vertex -0.83268 -1.55186 -4
      vertex -0.83268 -1.55186 0
    endloop
  endfacet
  facet normal 0.949475 0.313843 0
    outer loop
      vertex -0.83268 -1.55186 -4
      vertex -0.435928 -2.75216 0
      vertex -0.435928 -2.75216 -4
    endloop
  endfacet
  facet normal 0.958065 0.286549 0
    outer loop
      vertex -0.0799789 -3.94226 0
      vertex -0.435928 -2.75216 -4
      vertex -0.435928 -2.75216 0
    endloop
  endfacet
  facet normal 0.958065 0.286549 0
    outer loop
      vertex -0.435928 -2.75216 -4
      vertex -0.0799789 -3.94226 0
      vertex -0.0799789 -3.94226 -4
    endloop
  endfacet
  facet normal -0.962313 0.271946 0
    outer loop
      vertex -0.0799789 -3.94226 -4
      vertex 0.448914 -2.07071 0
      vertex 0.448914 -2.07071 -4
    endloop
  endfacet
  facet normal -0.962313 0.271946 0
    outer loop
      vertex 0.448914 -2.07071 0
      vertex -0.0799789 -3.94226 -4
      vertex -0.0799789 -3.94226 0
    endloop
  endfacet
  facet normal -0.952199 0.305477 0
    outer loop
      vertex 0.448914 -2.07071 -4
      vertex 0.621864 -1.53161 0
      vertex 0.621864 -1.53161 -4
    endloop
  endfacet
  facet normal -0.952199 0.305477 0
    outer loop
      vertex 0.621864 -1.53161 0
      vertex 0.448914 -2.07071 -4
      vertex 0.448914 -2.07071 0
    endloop
  endfacet
  facet normal -0.93457 0.355778 0
    outer loop
      vertex 0.621864 -1.53161 -4
      vertex 3.34796 5.62939 0
      vertex 3.34796 5.62939 -4
    endloop
  endfacet
  facet normal -0.93457 0.355778 0
    outer loop
      vertex 3.34796 5.62939 0
      vertex 0.621864 -1.53161 -4
      vertex 0.621864 -1.53161 0
    endloop
  endfacet
  facet normal 0 1 -0
    outer loop
      vertex 5.40266 5.62939 -4
      vertex 3.34796 5.62939 0
      vertex 5.40266 5.62939 0
    endloop
  endfacet
  facet normal 0 1 0
    outer loop
      vertex 3.34796 5.62939 0
      vertex 5.40266 5.62939 -4
      vertex 3.34796 5.62939 -4
    endloop
  endfacet
  facet normal 0.928417 -0.371541 0
    outer loop
      vertex 0.998215 -5.37656 0
      vertex 5.40266 5.62939 -4
      vertex 5.40266 5.62939 0
    endloop
  endfacet
  facet normal 0.928417 -0.371541 0
    outer loop
      vertex 5.40266 5.62939 -4
      vertex 0.998215 -5.37656 0
      vertex 0.998215 -5.37656 -4
    endloop
  endfacet
  facet normal 0 -1 0
    outer loop
      vertex -1.16838 -5.37656 -4
      vertex 0.998215 -5.37656 0
      vertex -1.16838 -5.37656 0
    endloop
  endfacet
  facet normal 0 -1 -0
    outer loop
      vertex 0.998215 -5.37656 0
      vertex -1.16838 -5.37656 -4
      vertex 0.998215 -5.37656 -4
    endloop
  endfacet
  facet normal -0.925136 -0.379635 0
    outer loop
      vertex -1.16838 -5.37656 -4
      vertex -5.68473 5.62939 0
      vertex -5.68473 5.62939 -4
    endloop
  endfacet
  facet normal -0.925136 -0.379635 0
    outer loop
      vertex -5.68473 5.62939 0
      vertex -1.16838 -5.37656 -4
      vertex -1.16838 -5.37656 0
    endloop
  endfacet
  facet normal -1 0 0
    outer loop
      vertex -6 -10 -14
      vertex -6 10 -4
      vertex -6 10 -14
    endloop
  endfacet
  facet normal -1 -0 0
    outer loop
      vertex -6 10 -4
      vertex -6 -10 -14
      vertex -6 -10 -4
    endloop
  endfacet
  facet normal 0 0 -1
    outer loop
      vertex -6 -10 -14
      vertex 6 10 -14
      vertex 6 -10 -14
    endloop
  endfacet
  facet normal -0 0 -1
    outer loop
      vertex 6 10 -14
      vertex -6 -10 -14
      vertex -6 10 -14
    endloop
  endfacet
  facet normal 0 0 1
    outer loop
      vertex 6 10 -4
      vertex 5.40266 5.62939 -4
      vertex 6 -10 -4
    endloop
  endfacet
  facet normal 0 0 1
    outer loop
      vertex 6 10 -4
      vertex 3.34796 5.62939 -4
      vertex 5.40266 5.62939 -4
    endloop
  endfacet
  facet normal 0 0 1
    outer loop
      vertex 0.448914 -2.07071 -4
      vertex -0.435928 -2.75216 -4
      vertex -0.0799789 -3.94226 -4
    endloop
  endfacet
  facet normal -0 0 1
    outer loop
      vertex -0.83268 -1.55186 -4
      vertex 0.448914 -2.07071 -4
      vertex 0.621864 -1.53161 -4
    endloop
  endfacet
  facet normal 0 0 1
    outer loop
      vertex -0.83268 -1.55186 -4
      vertex 0.621864 -1.53161 -4
      vertex 3.34796 5.62939 -4
    endloop
  endfacet
  facet normal 0 0 1
    outer loop
      vertex 0.448914 -2.07071 -4
      vertex -0.83268 -1.55186 -4
      vertex -0.435928 -2.75216 -4
    endloop
  endfacet
  facet normal 0 0 1
    outer loop
      vertex 3.34796 5.62939 -4
      vertex -3.64008 5.62939 -4
      vertex -0.83268 -1.55186 -4
    endloop
  endfacet
  facet normal -0 0 1
    outer loop
      vertex -6 10 -4
      vertex 3.34796 5.62939 -4
      vertex 6 10 -4
    endloop
  endfacet
  facet normal 0 0 1
    outer loop
      vertex 3.34796 5.62939 -4
      vertex -6 10 -4
      vertex -3.64008 5.62939 -4
    endloop
  endfacet
  facet normal 0 0 1
    outer loop
      vertex -3.64008 5.62939 -4
      vertex -6 10 -4
      vertex -5.68473 5.62939 -4
    endloop
  endfacet
  facet normal -0 0 1
    outer loop
      vertex 0.998215 -5.37656 -4
      vertex 6 -10 -4
      vertex 5.40266 5.62939 -4
    endloop
  endfacet
  facet normal 0 0 1
    outer loop
      vertex -6 -10 -4
      vertex 0.998215 -5.37656 -4
      vertex -1.16838 -5.37656 -4
    endloop
  endfacet
  facet normal 0 0 1
    outer loop
      vertex 0.998215 -5.37656 -4
      vertex -6 -10 -4
      vertex 6 -10 -4
    endloop
  endfacet
  facet normal 0 0 1
    outer loop
      vertex -5.68473 5.62939 -4
      vertex -6 -10 -4
      vertex -1.16838 -5.37656 -4
    endloop
  endfacet
  facet normal 0 0 1
    outer loop
      vertex -6 -10 -4
      vertex -5.68473 5.62939 -4
      vertex -6 10 -4
    endloop
  endfacet
  facet normal 1 -0 0
    outer loop
      vertex 6 -10 -4
      vertex 6 10 -14
      vertex 6 10 -4
    endloop
  endfacet
  facet normal 1 0 0
    outer loop
      vertex 6 10 -14
      vertex 6 -10 -4
      vertex 6 -10 -14
    endloop
  endfacet
  facet normal 0 1 -0
    outer loop
      vertex 6 10 -14
      vertex -6 10 -4
      vertex 6 10 -4
    endloop
  endfacet
  facet normal 0 1 0
    outer loop
      vertex -6 10 -4
      vertex 6 10 -14
      vertex -6 10 -14
    endloop
  endfacet
  facet normal 0 -1 0
    outer loop
      vertex -6 -10 -14
      vertex 6 -10 -4
      vertex -6 -10 -4
    endloop
  endfacet
  facet normal 0 -1 -0
    outer loop
      vertex 6 -10 -4
      vertex -6 -10 -14
      vertex 6 -10 -14
    endloop
  endfacet
endsolid OpenSCAD_Model
