solid OpenSCAD_Model
  facet normal -0 0 1
    outer loop
      vertex 7.52119 0.407021 0
      vertex 14.3973 -1.20007 0
      vertex 14.3973 0.407021 0
    endloop
  endfacet
  facet normal 0 0 1
    outer loop
      vertex 14.3973 -1.20007 0
      vertex 7.52119 0.407021 0
      vertex 7.52119 -1.20007 0
    endloop
  endfacet
  facet normal 0 0 1
    outer loop
      vertex 14.3973 0.407021 0
      vertex 16.3401 7.01872 0
      vertex 14.3973 5.43187 0
    endloop
  endfacet
  facet normal -0 0 1
    outer loop
      vertex 7.27699 7.01872 0
      vertex 14.3973 5.43187 0
      vertex 16.3401 7.01872 0
    endloop
  endfacet
  facet normal 0 0 1
    outer loop
      vertex 14.3973 5.43187 0
      vertex 7.27699 7.01872 0
      vertex 7.27699 5.43187 0
    endloop
  endfacet
  facet normal 0 0 1
    outer loop
      vertex 16.3401 7.01872 0
      vertex 14.3973 0.407021 0
      vertex 16.3401 -6.70312 0
    endloop
  endfacet
  facet normal -0 0 1
    outer loop
      vertex 14.3973 -1.20007 0
      vertex 16.3401 -6.70312 0
      vertex 14.3973 0.407021 0
    endloop
  endfacet
  facet normal 0 0 1
    outer loop
      vertex 16.3401 -6.70312 0
      vertex 14.3973 -1.20007 0
      vertex 14.3973 -6.70312 0
    endloop
  endfacet
  facet normal 0 0 1
    outer loop
      vertex -3.93513 7.01872 0
      vertex -1.09713 -0.762672 0
      vertex -0.15123 0.803772 0
    endloop
  endfacet
  facet normal 0 0 1
    outer loop
      vertex -1.09713 -0.762672 0
      vertex -3.93513 7.01872 0
      vertex -6.02043 7.01872 0
    endloop
  endfacet
  facet normal -0 0 1
    outer loop
      vertex 3.65306 7.01872 0
      vertex 0.815063 -0.762672 0
      vertex 5.73837 7.01872 0
    endloop
  endfacet
  facet normal -0 0 1
    outer loop
      vertex -0.15123 0.803772 0
      vertex 0.815063 -0.762672 0
      vertex 3.65306 7.01872 0
    endloop
  endfacet
  facet normal 0 0 1
    outer loop
      vertex -1.09713 -0.762672 0
      vertex 0.815063 -0.762672 0
      vertex -0.15123 0.803772 0
    endloop
  endfacet
  facet normal 0 0 1
    outer loop
      vertex 0.815063 -0.762672 0
      vertex -1.09713 -0.762672 0
      vertex 0.815063 -6.70312 0
    endloop
  endfacet
  facet normal 0 0 1
    outer loop
      vertex 0.815063 -6.70312 0
      vertex -1.09713 -0.762672 0
      vertex -1.09713 -6.70312 0
    endloop
  endfacet
  facet normal 0 0 1
    outer loop
      vertex -8.15921 7.01872 0
      vertex -11.3736 5.43187 0
      vertex -8.15921 5.43187 0
    endloop
  endfacet
  facet normal 0 0 1
    outer loop
      vertex -11.3736 5.43187 0
      vertex -13.3164 5.43187 0
      vertex -11.3736 -5.11627 0
    endloop
  endfacet
  facet normal 0 0 1
    outer loop
      vertex -8.15921 7.01872 0
      vertex -13.3164 5.43187 0
      vertex -11.3736 5.43187 0
    endloop
  endfacet
  facet normal -0 0 1
    outer loop
      vertex -16.5307 7.01872 0
      vertex -13.3164 5.43187 0
      vertex -8.15921 7.01872 0
    endloop
  endfacet
  facet normal 0 0 1
    outer loop
      vertex -13.3164 5.43187 0
      vertex -16.5307 7.01872 0
      vertex -16.5307 5.43187 0
    endloop
  endfacet
  facet normal -0 0 1
    outer loop
      vertex -11.3736 -5.11627 0
      vertex -8.15921 -6.70312 0
      vertex -8.15921 -5.11627 0
    endloop
  endfacet
  facet normal 0 0 1
    outer loop
      vertex -13.3164 -5.11627 0
      vertex -11.3736 -5.11627 0
      vertex -13.3164 5.43187 0
    endloop
  endfacet
  facet normal -0 0 1
    outer loop
      vertex -13.3164 -5.11627 0
      vertex -8.15921 -6.70312 0
      vertex -11.3736 -5.11627 0
    endloop
  endfacet
  facet normal 0 0 1
    outer loop
      vertex -16.5307 -6.70312 0
      vertex -13.3164 -5.11627 0
      vertex -16.5307 -5.11627 0
    endloop
  endfacet
  facet normal 0 0 1
    outer loop
      vertex -13.3164 -5.11627 0
      vertex -16.5307 -6.70312 0
      vertex -8.15921 -6.70312 0
    endloop
  endfacet
  facet normal 0 -1 0
    outer loop
      vertex 7.52119 -1.20007 -4
      vertex 14.3973 -1.20007 0
      vertex 7.52119 -1.20007 0
    endloop
  endfacet
  facet normal 0 -1 -0
    outer loop
      vertex 14.3973 -1.20007 0
      vertex 7.52119 -1.20007 -4
      vertex 14.3973 -1.20007 -4
    endloop
  endfacet
  facet normal -1 0 0
    outer loop
      vertex 7.52119 -1.20007 -4
      vertex 7.52119 0.407021 0
      vertex 7.52119 0.407021 -4
    endloop
  endfacet
  facet normal -1 -0 0
    outer loop
      vertex 7.52119 0.407021 0
      vertex 7.52119 -1.20007 -4
      vertex 7.52119 -1.20007 0
    endloop
  endfacet
  facet normal 0 1 -0
    outer loop
      vertex 14.3973 0.407021 -4
      vertex 7.52119 0.407021 0
      vertex 14.3973 0.407021 0
    endloop
  endfacet
  facet normal 0 1 0
    outer loop
      vertex 7.52119 0.407021 0
      vertex 14.3973 0.407021 -4
      vertex 7.52119 0.407021 -4
    endloop
  endfacet
  facet normal -1 0 0
    outer loop
      vertex 14.3973 0.407021 -4
      vertex 14.3973 5.43187 0
      vertex 14.3973 5.43187 -4
    endloop
  endfacet
  facet normal -1 -0 0
    outer loop
      vertex 14.3973 5.43187 0
      vertex 14.3973 0.407021 -4
      vertex 14.3973 0.407021 0
    endloop
  endfacet
  facet normal 0 -1 0
    outer loop
      vertex 7.27699 5.43187 -4
      vertex 14.3973 5.43187 0
      vertex 7.27699 5.43187 0
    endloop
  endfacet
  facet normal 0 -1 -0
    outer loop
      vertex 14.3973 5.43187 0
      vertex 7.27699 5.43187 -4
      vertex 14.3973 5.43187 -4
    endloop
  endfacet
  facet normal -1 0 0
    outer loop
      vertex 7.27699 5.43187 -4
      vertex 7.27699 7.01872 0
      vertex 7.27699 7.01872 -4
    endloop
  endfacet
  facet normal -1 -0 0
    outer loop
      vertex 7.27699 7.01872 0
      vertex 7.27699 5.43187 -4
      vertex 7.27699 5.43187 0
    endloop
  endfacet
  facet normal 0 1 -0
    outer loop
      vertex 16.3401 7.01872 -4
      vertex 7.27699 7.01872 0
      vertex 16.3401 7.01872 0
    endloop
  endfacet
  facet normal 0 1 0
    outer loop
      vertex 7.27699 7.01872 0
      vertex 16.3401 7.01872 -4
      vertex 7.27699 7.01872 -4
    endloop
  endfacet
  facet normal 1 -0 0
    outer loop
      vertex 16.3401 -6.70312 0
      vertex 16.3401 7.01872 -4
      vertex 16.3401 7.01872 0
    endloop
  endfacet
  facet normal 1 0 0
    outer loop
      vertex 16.3401 7.01872 -4
      vertex 16.3401 -6.70312 0
      vertex 16.3401 -6.70312 -4
    endloop
  endfacet
  facet normal 0 -1 0
    outer loop
      vertex 14.3973 -6.70312 -4
      vertex 16.3401 -6.70312 0
      vertex 14.3973 -6.70312 0
    endloop
  endfacet
  facet normal 0 -1 -0
    outer loop
      vertex 16.3401 -6.70312 0
      vertex 14.3973 -6.70312 -4
      vertex 16.3401 -6.70312 -4
    endloop
  endfacet
  facet normal -1 0 0
    outer loop
      vertex 14.3973 -6.70312 -4
      vertex 14.3973 -1.20007 0
      vertex 14.3973 -1.20007 -4
    endloop
  endfacet
  facet normal -1 -0 0
    outer loop
      vertex 14.3973 -1.20007 0
      vertex 14.3973 -6.70312 -4
      vertex 14.3973 -6.70312 0
    endloop
  endfacet
  facet normal -0.84506 -0.534671 0
    outer loop
      vertex -1.09713 -0.762672 -4
      vertex -6.02043 7.01872 0
      vertex -6.02043 7.01872 -4
    endloop
  endfacet
  facet normal -0.84506 -0.534671 0
    outer loop
      vertex -6.02043 7.01872 0
      vertex -1.09713 -0.762672 -4
      vertex -1.09713 -0.762672 0
    endloop
  endfacet
  facet normal 0 1 -0
    outer loop
      vertex -3.93513 7.01872 -4
      vertex -6.02043 7.01872 0
      vertex -3.93513 7.01872 0
    endloop
  endfacet
  facet normal 0 1 0
    outer loop
      vertex -6.02043 7.01872 0
      vertex -3.93513 7.01872 -4
      vertex -6.02043 7.01872 -4
    endloop
  endfacet
  facet normal 0.854144 0.520036 0
    outer loop
      vertex -0.15123 0.803772 0
      vertex -3.93513 7.01872 -4
      vertex -3.93513 7.01872 0
    endloop
  endfacet
  facet normal 0.854144 0.520036 0
    outer loop
      vertex -3.93513 7.01872 -4
      vertex -0.15123 0.803772 0
      vertex -0.15123 0.803772 -4
    endloop
  endfacet
  facet normal -0.852899 0.522076 0
    outer loop
      vertex -0.15123 0.803772 -4
      vertex 3.65306 7.01872 0
      vertex 3.65306 7.01872 -4
    endloop
  endfacet
  facet normal -0.852899 0.522076 0
    outer loop
      vertex 3.65306 7.01872 0
      vertex -0.15123 0.803772 -4
      vertex -0.15123 0.803772 0
    endloop
  endfacet
  facet normal 0 1 -0
    outer loop
      vertex 5.73837 7.01872 -4
      vertex 3.65306 7.01872 0
      vertex 5.73837 7.01872 0
    endloop
  endfacet
  facet normal 0 1 0
    outer loop
      vertex 3.65306 7.01872 0
      vertex 5.73837 7.01872 -4
      vertex 3.65306 7.01872 -4
    endloop
  endfacet
  facet normal 0.84506 -0.534672 0
    outer loop
      vertex 0.815063 -0.762672 0
      vertex 5.73837 7.01872 -4
      vertex 5.73837 7.01872 0
    endloop
  endfacet
  facet normal 0.84506 -0.534672 0
    outer loop
      vertex 5.73837 7.01872 -4
      vertex 0.815063 -0.762672 0
      vertex 0.815063 -0.762672 -4
    endloop
  endfacet
  facet normal 1 -0 0
    outer loop
      vertex 0.815063 -6.70312 0
      vertex 0.815063 -0.762672 -4
      vertex 0.815063 -0.762672 0
    endloop
  endfacet
  facet normal 1 0 0
    outer loop
      vertex 0.815063 -0.762672 -4
      vertex 0.815063 -6.70312 0
      vertex 0.815063 -6.70312 -4
    endloop
  endfacet
  facet normal 0 -1 0
    outer loop
      vertex -1.09713 -6.70312 -4
      vertex 0.815063 -6.70312 0
      vertex -1.09713 -6.70312 0
    endloop
  endfacet
  facet normal 0 -1 -0
    outer loop
      vertex 0.815063 -6.70312 0
      vertex -1.09713 -6.70312 -4
      vertex 0.815063 -6.70312 -4
    endloop
  endfacet
  facet normal -1 0 0
    outer loop
      vertex -1.09713 -6.70312 -4
      vertex -1.09713 -0.762672 0
      vertex -1.09713 -0.762672 -4
    endloop
  endfacet
  facet normal -1 -0 0
    outer loop
      vertex -1.09713 -0.762672 0
      vertex -1.09713 -6.70312 -4
      vertex -1.09713 -6.70312 0
    endloop
  endfacet
  facet normal 0 1 -0
    outer loop
      vertex -13.3164 -5.11627 -4
      vertex -16.5307 -5.11627 0
      vertex -13.3164 -5.11627 0
    endloop
  endfacet
  facet normal 0 1 0
    outer loop
      vertex -16.5307 -5.11627 0
      vertex -13.3164 -5.11627 -4
      vertex -16.5307 -5.11627 -4
    endloop
  endfacet
  facet normal -1 0 0
    outer loop
      vertex -13.3164 -5.11627 -4
      vertex -13.3164 5.43187 0
      vertex -13.3164 5.43187 -4
    endloop
  endfacet
  facet normal -1 -0 0
    outer loop
      vertex -13.3164 5.43187 0
      vertex -13.3164 -5.11627 -4
      vertex -13.3164 -5.11627 0
    endloop
  endfacet
  facet normal 0 -1 0
    outer loop
      vertex -16.5307 5.43187 -4
      vertex -13.3164 5.43187 0
      vertex -16.5307 5.43187 0
    endloop
  endfacet
  facet normal 0 -1 -0
    outer loop
      vertex -13.3164 5.43187 0
      vertex -16.5307 5.43187 -4
      vertex -13.3164 5.43187 -4
    endloop
  endfacet
  facet normal -1 0 0
    outer loop
      vertex -16.5307 5.43187 -4
      vertex -16.5307 7.01872 0
      vertex -16.5307 7.01872 -4
    endloop
  endfacet
  facet normal -1 -0 0
    outer loop
      vertex -16.5307 7.01872 0
      vertex -16.5307 5.43187 -4
      vertex -16.5307 5.43187 0
    endloop
  endfacet
  facet normal 0 1 -0
    outer loop
      vertex -8.15921 7.01872 -4
      vertex -16.5307 7.01872 0
      vertex -8.15921 7.01872 0
    endloop
  endfacet
  facet normal 0 1 0
    outer loop
      vertex -16.5307 7.01872 0
      vertex -8.15921 7.01872 -4
      vertex -16.5307 7.01872 -4
    endloop
  endfacet
  facet normal 1 -0 0
    outer loop
      vertex -8.15921 5.43187 0
      vertex -8.15921 7.01872 -4
      vertex -8.15921 7.01872 0
    endloop
  endfacet
  facet normal 1 0 0
    outer loop
      vertex -8.15921 7.01872 -4
      vertex -8.15921 5.43187 0
      vertex -8.15921 5.43187 -4
    endloop
  endfacet
  facet normal 0 -1 0
    outer loop
      vertex -11.3736 5.43187 -4
      vertex -8.15921 5.43187 0
      vertex -11.3736 5.43187 0
    endloop
  endfacet
  facet normal 0 -1 -0
    outer loop
      vertex -8.15921 5.43187 0
      vertex -11.3736 5.43187 -4
      vertex -8.15921 5.43187 -4
    endloop
  endfacet
  facet normal 1 -0 0
    outer loop
      vertex -11.3736 -5.11627 0
      vertex -11.3736 5.43187 -4
      vertex -11.3736 5.43187 0
    endloop
  endfacet
  facet normal 1 0 0
    outer loop
      vertex -11.3736 5.43187 -4
      vertex -11.3736 -5.11627 0
      vertex -11.3736 -5.11627 -4
    endloop
  endfacet
  facet normal 0 1 -0
    outer loop
      vertex -8.15921 -5.11627 -4
      vertex -11.3736 -5.11627 0
      vertex -8.15921 -5.11627 0
    endloop
  endfacet
  facet normal 0 1 0
    outer loop
      vertex -11.3736 -5.11627 0
      vertex -8.15921 -5.11627 -4
      vertex -11.3736 -5.11627 -4
    endloop
  endfacet
  facet normal 1 -0 0
    outer loop
      vertex -8.15921 -6.70312 0
      vertex -8.15921 -5.11627 -4
      vertex -8.15921 -5.11627 0
    endloop
  endfacet
  facet normal 1 0 0
    outer loop
      vertex -8.15921 -5.11627 -4
      vertex -8.15921 -6.70312 0
      vertex -8.15921 -6.70312 -4
    endloop
  endfacet
  facet normal 0 -1 0
    outer loop
      vertex -16.5307 -6.70312 -4
      vertex -8.15921 -6.70312 0
      vertex -16.5307 -6.70312 0
    endloop
  endfacet
  facet normal 0 -1 -0
    outer loop
      vertex -8.15921 -6.70312 0
      vertex -16.5307 -6.70312 -4
      vertex -8.15921 -6.70312 -4
    endloop
  endfacet
  facet normal -1 0 0
    outer loop
      vertex -16.5307 -6.70312 -4
      vertex -16.5307 -5.11627 0
      vertex -16.5307 -5.11627 -4
    endloop
  endfacet
  facet normal -1 -0 0
    outer loop
      vertex -16.5307 -5.11627 0
      vertex -16.5307 -6.70312 -4
      vertex -16.5307 -6.70312 0
    endloop
  endfacet
  facet normal -1 0 0
    outer loop
      vertex -18 -10 -14
      vertex -18 10 -4
      vertex -18 10 -14
    endloop
  endfacet
  facet normal -1 -0 0
    outer loop
      vertex -18 10 -4
      vertex -18 -10 -14
      vertex -18 -10 -4
    endloop
  endfacet
  facet normal 0 0 -1
    outer loop
      vertex -18 -10 -14
      vertex 18 10 -14
      vertex 18 -10 -14
    endloop
  endfacet
  facet normal -0 0 -1
    outer loop
      vertex 18 10 -14
      vertex -18 -10 -14
      vertex -18 10 -14
    endloop
  endfacet
  facet normal 0 0 1
    outer loop
      vertex 14.3973 5.43187 -4
      vertex 7.52119 0.407021 -4
      vertex 14.3973 0.407021 -4
    endloop
  endfacet
  facet normal 0 0 1
    outer loop
      vertex 0.815063 -0.762672 -4
      vertex 7.52119 0.407021 -4
      vertex 7.27699 5.43187 -4
    endloop
  endfacet
  facet normal -0 0 1
    outer loop
      vertex 7.27699 5.43187 -4
      vertex 7.52119 0.407021 -4
      vertex 14.3973 5.43187 -4
    endloop
  endfacet
  facet normal 0 0 1
    outer loop
      vertex 14.3973 -1.20007 -4
      vertex 7.52119 -1.20007 -4
      vertex 14.3973 -6.70312 -4
    endloop
  endfacet
  facet normal 0 0 1
    outer loop
      vertex 16.3401 -6.70312 -4
      vertex 18 10 -4
      vertex 16.3401 7.01872 -4
    endloop
  endfacet
  facet normal 0 0 1
    outer loop
      vertex 18 10 -4
      vertex 7.27699 7.01872 -4
      vertex 16.3401 7.01872 -4
    endloop
  endfacet
  facet normal 0 0 1
    outer loop
      vertex 7.27699 7.01872 -4
      vertex 5.73837 7.01872 -4
      vertex 7.27699 5.43187 -4
    endloop
  endfacet
  facet normal 0 0 1
    outer loop
      vertex 18 10 -4
      vertex 5.73837 7.01872 -4
      vertex 7.27699 7.01872 -4
    endloop
  endfacet
  facet normal 0 0 1
    outer loop
      vertex 18 10 -4
      vertex 3.65306 7.01872 -4
      vertex 5.73837 7.01872 -4
    endloop
  endfacet
  facet normal 0 0 1
    outer loop
      vertex 3.65306 7.01872 -4
      vertex -3.93513 7.01872 -4
      vertex -0.15123 0.803772 -4
    endloop
  endfacet
  facet normal 0 0 1
    outer loop
      vertex 18 10 -4
      vertex -3.93513 7.01872 -4
      vertex 3.65306 7.01872 -4
    endloop
  endfacet
  facet normal -0 0 1
    outer loop
      vertex -18 10 -4
      vertex -3.93513 7.01872 -4
      vertex 18 10 -4
    endloop
  endfacet
  facet normal 0 0 1
    outer loop
      vertex -3.93513 7.01872 -4
      vertex -18 10 -4
      vertex -6.02043 7.01872 -4
    endloop
  endfacet
  facet normal 0 0 1
    outer loop
      vertex -6.02043 7.01872 -4
      vertex -18 10 -4
      vertex -8.15921 7.01872 -4
    endloop
  endfacet
  facet normal 0 0 1
    outer loop
      vertex -18 10 -4
      vertex -16.5307 5.43187 -4
      vertex -16.5307 7.01872 -4
    endloop
  endfacet
  facet normal 0 0 1
    outer loop
      vertex -16.5307 5.43187 -4
      vertex -18 10 -4
      vertex -16.5307 -5.11627 -4
    endloop
  endfacet
  facet normal 0 0 1
    outer loop
      vertex -18 -10 -4
      vertex -16.5307 -5.11627 -4
      vertex -18 10 -4
    endloop
  endfacet
  facet normal 0 0 1
    outer loop
      vertex -8.15921 7.01872 -4
      vertex -18 10 -4
      vertex -16.5307 7.01872 -4
    endloop
  endfacet
  facet normal 0 0 1
    outer loop
      vertex 18 10 -4
      vertex 16.3401 -6.70312 -4
      vertex 18 -10 -4
    endloop
  endfacet
  facet normal -0 0 1
    outer loop
      vertex 14.3973 -6.70312 -4
      vertex 18 -10 -4
      vertex 16.3401 -6.70312 -4
    endloop
  endfacet
  facet normal 0 0 1
    outer loop
      vertex 0.815063 -6.70312 -4
      vertex 14.3973 -6.70312 -4
      vertex 7.52119 -1.20007 -4
    endloop
  endfacet
  facet normal 0 0 1
    outer loop
      vertex 0.815063 -0.762672 -4
      vertex 7.27699 5.43187 -4
      vertex 5.73837 7.01872 -4
    endloop
  endfacet
  facet normal 0 0 1
    outer loop
      vertex 7.52119 0.407021 -4
      vertex 0.815063 -0.762672 -4
      vertex 7.52119 -1.20007 -4
    endloop
  endfacet
  facet normal 0 0 1
    outer loop
      vertex 0.815063 -6.70312 -4
      vertex 7.52119 -1.20007 -4
      vertex 0.815063 -0.762672 -4
    endloop
  endfacet
  facet normal 0 0 1
    outer loop
      vertex 14.3973 -6.70312 -4
      vertex 0.815063 -6.70312 -4
      vertex 18 -10 -4
    endloop
  endfacet
  facet normal -0 0 1
    outer loop
      vertex -1.09713 -6.70312 -4
      vertex 18 -10 -4
      vertex 0.815063 -6.70312 -4
    endloop
  endfacet
  facet normal 0 0 1
    outer loop
      vertex -6.02043 7.01872 -4
      vertex -8.15921 5.43187 -4
      vertex -1.09713 -0.762672 -4
    endloop
  endfacet
  facet normal 0 0 1
    outer loop
      vertex -8.15921 -5.11627 -4
      vertex -1.09713 -0.762672 -4
      vertex -8.15921 5.43187 -4
    endloop
  endfacet
  facet normal 0 0 1
    outer loop
      vertex -1.09713 -0.762672 -4
      vertex -8.15921 -5.11627 -4
      vertex -1.09713 -6.70312 -4
    endloop
  endfacet
  facet normal 0 0 1
    outer loop
      vertex -8.15921 -6.70312 -4
      vertex -1.09713 -6.70312 -4
      vertex -8.15921 -5.11627 -4
    endloop
  endfacet
  facet normal 0 0 1
    outer loop
      vertex -18 -10 -4
      vertex -1.09713 -6.70312 -4
      vertex -8.15921 -6.70312 -4
    endloop
  endfacet
  facet normal 0 0 1
    outer loop
      vertex -18 -10 -4
      vertex -8.15921 -6.70312 -4
      vertex -16.5307 -6.70312 -4
    endloop
  endfacet
  facet normal 0 0 1
    outer loop
      vertex -1.09713 -6.70312 -4
      vertex -18 -10 -4
      vertex 18 -10 -4
    endloop
  endfacet
  facet normal 0 0 1
    outer loop
      vertex -16.5307 -5.11627 -4
      vertex -18 -10 -4
      vertex -16.5307 -6.70312 -4
    endloop
  endfacet
  facet normal 0 0 1
    outer loop
      vertex -8.15921 5.43187 -4
      vertex -6.02043 7.01872 -4
      vertex -8.15921 7.01872 -4
    endloop
  endfacet
  facet normal -0 0 1
    outer loop
      vertex -11.3736 5.43187 -4
      vertex -8.15921 -5.11627 -4
      vertex -8.15921 5.43187 -4
    endloop
  endfacet
  facet normal 0 0 1
    outer loop
      vertex -8.15921 -5.11627 -4
      vertex -11.3736 5.43187 -4
      vertex -11.3736 -5.11627 -4
    endloop
  endfacet
  facet normal -0 0 1
    outer loop
      vertex -16.5307 5.43187 -4
      vertex -13.3164 -5.11627 -4
      vertex -13.3164 5.43187 -4
    endloop
  endfacet
  facet normal 0 0 1
    outer loop
      vertex -13.3164 -5.11627 -4
      vertex -16.5307 5.43187 -4
      vertex -16.5307 -5.11627 -4
    endloop
  endfacet
  facet normal 1 -0 0
    outer loop
      vertex 18 -10 -4
      vertex 18 10 -14
      vertex 18 10 -4
    endloop
  endfacet
  facet normal 1 0 0
    outer loop
      vertex 18 10 -14
      vertex 18 -10 -4
      vertex 18 -10 -14
    endloop
  endfacet
  facet normal 0 1 -0
    outer loop
      vertex 18 10 -14
      vertex -18 10 -4
      vertex 18 10 -4
    endloop
  endfacet
  facet normal 0 1 0
    outer loop
      vertex -18 10 -4
      vertex 18 10 -14
      vertex -18 10 -14
    endloop
  endfacet
  facet normal 0 -1 0
    outer loop
      vertex -18 -10 -14
      vertex 18 -10 -4
      vertex -18 -10 -4
    endloop
  endfacet
  facet normal 0 -1 -0
    outer loop
      vertex 18 -10 -4
      vertex -18 -10 -14
      vertex 18 -10 -14
    endloop
  endfacet
endsolid OpenSCAD_Model
