solid OpenSCAD_Model
  facet normal 0 0 1
    outer loop
      vertex -15.2911 0.223869 0
      vertex -13.2466 0.223869 0
      vertex -13.3292 1.83549 0
    endloop
  endfacet
  facet normal -0 0 1
    outer loop
      vertex -15.4894 2.59582 0
      vertex -13.3292 1.83549 0
      vertex -13.5771 3.24239 0
    endloop
  endfacet
  facet normal 0 0 1
    outer loop
      vertex -15.3413 -1.06538 0
      vertex -13.2466 0.223869 0
      vertex -15.2911 0.223869 0
    endloop
  endfacet
  facet normal 0 0 1
    outer loop
      vertex -15.4894 2.59582 0
      vertex -13.5771 3.24239 0
      vertex -13.9903 4.44459 0
    endloop
  endfacet
  facet normal 0 0 1
    outer loop
      vertex -13.2466 0.223869 0
      vertex -15.3413 -1.06538 0
      vertex -13.3299 -1.4163 0
    endloop
  endfacet
  facet normal 0 0 1
    outer loop
      vertex -16.0845 4.29007 0
      vertex -13.9903 4.44459 0
      vertex -14.5688 5.44207 0
    endloop
  endfacet
  facet normal 0 0 1
    outer loop
      vertex -15.492 -2.18681 0
      vertex -13.3299 -1.4163 0
      vertex -15.3413 -1.06538 0
    endloop
  endfacet
  facet normal 0 0 1
    outer loop
      vertex -13.3299 -1.4163 0
      vertex -15.492 -2.18681 0
      vertex -13.5797 -2.84797 0
    endloop
  endfacet
  facet normal 0 0 1
    outer loop
      vertex -16.0845 4.29007 0
      vertex -14.5688 5.44207 0
      vertex -15.3082 6.2253 0
    endloop
  endfacet
  facet normal 0 0 1
    outer loop
      vertex -13.3292 1.83549 0
      vertex -15.4894 2.59582 0
      vertex -15.2911 0.223869 0
    endloop
  endfacet
  facet normal 0 0 1
    outer loop
      vertex -13.9903 4.44459 0
      vertex -16.0845 4.29007 0
      vertex -15.4894 2.59582 0
    endloop
  endfacet
  facet normal 0 0 1
    outer loop
      vertex -17.0763 5.30662 0
      vertex -15.3082 6.2253 0
      vertex -16.204 6.78476 0
    endloop
  endfacet
  facet normal 0 0 1
    outer loop
      vertex -15.3082 6.2253 0
      vertex -17.0763 5.30662 0
      vertex -16.0845 4.29007 0
    endloop
  endfacet
  facet normal 0 0 1
    outer loop
      vertex -17.2562 7.12043 0
      vertex -17.0763 5.30662 0
      vertex -16.204 6.78476 0
    endloop
  endfacet
  facet normal 0 0 1
    outer loop
      vertex -18.4648 5.64547 0
      vertex -17.2562 7.12043 0
      vertex -18.4648 7.23232 0
    endloop
  endfacet
  facet normal 0 0 1
    outer loop
      vertex -17.2562 7.12043 0
      vertex -18.4648 5.64547 0
      vertex -17.0763 5.30662 0
    endloop
  endfacet
  facet normal -0 0 1
    outer loop
      vertex -19.6479 7.12202 0
      vertex -18.4648 5.64547 0
      vertex -18.4648 7.23232 0
    endloop
  endfacet
  facet normal 0 0 1
    outer loop
      vertex -19.6479 7.12202 0
      vertex -19.8443 5.30662 0
      vertex -18.4648 5.64547 0
    endloop
  endfacet
  facet normal -0 0 1
    outer loop
      vertex -20.6847 6.7911 0
      vertex -19.8443 5.30662 0
      vertex -19.6479 7.12202 0
    endloop
  endfacet
  facet normal -0 0 1
    outer loop
      vertex -21.5753 6.23956 0
      vertex -19.8443 5.30662 0
      vertex -20.6847 6.7911 0
    endloop
  endfacet
  facet normal 0 0 1
    outer loop
      vertex -19.8443 5.30662 0
      vertex -21.5753 6.23956 0
      vertex -20.8298 4.29007 0
    endloop
  endfacet
  facet normal -0 0 1
    outer loop
      vertex -22.3198 5.46742 0
      vertex -20.8298 4.29007 0
      vertex -21.5753 6.23956 0
    endloop
  endfacet
  facet normal -0 0 1
    outer loop
      vertex -22.9073 4.47792 0
      vertex -20.8298 4.29007 0
      vertex -22.3198 5.46742 0
    endloop
  endfacet
  facet normal 0 0 1
    outer loop
      vertex -20.8298 4.29007 0
      vertex -22.9073 4.47792 0
      vertex -21.421 2.59582 0
    endloop
  endfacet
  facet normal -0 0 1
    outer loop
      vertex -23.3269 3.27416 0
      vertex -21.421 2.59582 0
      vertex -22.9073 4.47792 0
    endloop
  endfacet
  facet normal 0 -0 1
    outer loop
      vertex -23.5783 -1.39149 0
      vertex -21.6181 0.223869 0
      vertex -23.6626 0.223869 0
    endloop
  endfacet
  facet normal 0 0 1
    outer loop
      vertex -23.5787 1.85614 0
      vertex -21.421 2.59582 0
      vertex -23.3269 3.27416 0
    endloop
  endfacet
  facet normal 0 -0 1
    outer loop
      vertex -23.3256 -2.8098 0
      vertex -21.6181 0.223869 0
      vertex -23.5783 -1.39149 0
    endloop
  endfacet
  facet normal 0 0 1
    outer loop
      vertex -21.421 2.59582 0
      vertex -23.5787 1.85614 0
      vertex -21.6181 0.223869 0
    endloop
  endfacet
  facet normal 0 -0 1
    outer loop
      vertex -22.9045 -4.03104 0
      vertex -21.6181 0.223869 0
      vertex -23.3256 -2.8098 0
    endloop
  endfacet
  facet normal 0 0 1
    outer loop
      vertex -21.6181 0.223869 0
      vertex -23.5787 1.85614 0
      vertex -23.6626 0.223869 0
    endloop
  endfacet
  facet normal 0 0 1
    outer loop
      vertex -21.6181 0.223869 0
      vertex -22.9045 -4.03104 0
      vertex -22.3148 -5.05522 0
    endloop
  endfacet
  facet normal 0 0 1
    outer loop
      vertex -15.7431 -3.1404 0
      vertex -13.5797 -2.84797 0
      vertex -15.492 -2.18681 0
    endloop
  endfacet
  facet normal 0 0 1
    outer loop
      vertex -13.5797 -2.84797 0
      vertex -15.7431 -3.1404 0
      vertex -13.9961 -4.07114 0
    endloop
  endfacet
  facet normal -0 0 1
    outer loop
      vertex -16.0946 -3.92617 0
      vertex -13.9961 -4.07114 0
      vertex -15.7431 -3.1404 0
    endloop
  endfacet
  facet normal 0 0 1
    outer loop
      vertex -13.9961 -4.07114 0
      vertex -16.0946 -3.92617 0
      vertex -14.579 -5.08582 0
    endloop
  endfacet
  facet normal -0 0 1
    outer loop
      vertex -16.5435 -4.54029 0
      vertex -14.579 -5.08582 0
      vertex -16.0946 -3.92617 0
    endloop
  endfacet
  facet normal 0 0 1
    outer loop
      vertex -14.579 -5.08582 0
      vertex -16.5435 -4.54029 0
      vertex -15.3203 -5.88238 0
    endloop
  endfacet
  facet normal 0 0 1
    outer loop
      vertex -15.3203 -5.88238 0
      vertex -16.5435 -4.54029 0
      vertex -16.2117 -6.45135 0
    endloop
  endfacet
  facet normal -0 0 1
    outer loop
      vertex -17.0865 -4.97894 0
      vertex -16.2117 -6.45135 0
      vertex -16.5435 -4.54029 0
    endloop
  endfacet
  facet normal 0 0 1
    outer loop
      vertex -17.0865 -4.97894 0
      vertex -17.253 -6.79272 0
      vertex -16.2117 -6.45135 0
    endloop
  endfacet
  facet normal -0 0 1
    outer loop
      vertex -17.7235 -5.24214 0
      vertex -17.253 -6.79272 0
      vertex -17.0865 -4.97894 0
    endloop
  endfacet
  facet normal 0 0 1
    outer loop
      vertex -17.7235 -5.24214 0
      vertex -18.4444 -6.90652 0
      vertex -17.253 -6.79272 0
    endloop
  endfacet
  facet normal -0 0 1
    outer loop
      vertex -18.4546 -5.32987 0
      vertex -18.4444 -6.90652 0
      vertex -17.7235 -5.24214 0
    endloop
  endfacet
  facet normal 0 0 1
    outer loop
      vertex -19.227 -5.24088 0
      vertex -18.4444 -6.90652 0
      vertex -18.4546 -5.32987 0
    endloop
  endfacet
  facet normal 0 0 1
    outer loop
      vertex -19.227 -5.24088 0
      vertex -19.6323 -6.79082 0
      vertex -18.4444 -6.90652 0
    endloop
  endfacet
  facet normal 0 0 1
    outer loop
      vertex -19.8862 -4.97388 0
      vertex -19.6323 -6.79082 0
      vertex -19.227 -5.24088 0
    endloop
  endfacet
  facet normal 0 0 1
    outer loop
      vertex -21.5675 -5.86517 0
      vertex -19.8862 -4.97388 0
      vertex -20.4323 -4.5289 0
    endloop
  endfacet
  facet normal 0 0 1
    outer loop
      vertex -19.8862 -4.97388 0
      vertex -20.6733 -6.4437 0
      vertex -19.6323 -6.79082 0
    endloop
  endfacet
  facet normal 0 0 1
    outer loop
      vertex -22.3148 -5.05522 0
      vertex -20.4323 -4.5289 0
      vertex -20.8652 -3.90592 0
    endloop
  endfacet
  facet normal 0 0 1
    outer loop
      vertex -22.3148 -5.05522 0
      vertex -20.8652 -3.90592 0
      vertex -21.1946 -3.11377 0
    endloop
  endfacet
  facet normal 0 0 1
    outer loop
      vertex -22.3148 -5.05522 0
      vertex -21.1946 -3.11377 0
      vertex -21.4299 -2.16142 0
    endloop
  endfacet
  facet normal 0 0 1
    outer loop
      vertex -19.8862 -4.97388 0
      vertex -21.5675 -5.86517 0
      vertex -20.6733 -6.4437 0
    endloop
  endfacet
  facet normal 0 0 1
    outer loop
      vertex -22.3148 -5.05522 0
      vertex -21.4299 -2.16142 0
      vertex -21.571 -1.04887 0
    endloop
  endfacet
  facet normal 0 0 1
    outer loop
      vertex -22.3148 -5.05522 0
      vertex -21.571 -1.04887 0
      vertex -21.6181 0.223869 0
    endloop
  endfacet
  facet normal 0 0 1
    outer loop
      vertex -20.4323 -4.5289 0
      vertex -22.3148 -5.05522 0
      vertex -21.5675 -5.86517 0
    endloop
  endfacet
  facet normal 0 0 1
    outer loop
      vertex 20.0645 -5.11627 0
      vertex 22.0073 7.01872 0
      vertex 20.0645 7.01872 0
    endloop
  endfacet
  facet normal 0 0 1
    outer loop
      vertex 22.0073 7.01872 0
      vertex 20.0645 -5.11627 0
      vertex 22.0073 -6.70312 0
    endloop
  endfacet
  facet normal 0 0 1
    outer loop
      vertex 13.229 -6.70312 0
      vertex 20.0645 -5.11627 0
      vertex 13.229 -5.11627 0
    endloop
  endfacet
  facet normal 0 0 1
    outer loop
      vertex 20.0645 -5.11627 0
      vertex 13.229 -6.70312 0
      vertex 22.0073 -6.70312 0
    endloop
  endfacet
  facet normal 0 0 1
    outer loop
      vertex 9.26933 2.12602 0
      vertex 10.8968 7.01872 0
      vertex 9.30998 5.18782 0
    endloop
  endfacet
  facet normal 0 0 1
    outer loop
      vertex 8.48618 7.01872 0
      vertex 8.95144 4.06828 0
      vertex 9.30998 5.18782 0
    endloop
  endfacet
  facet normal -0 0 1
    outer loop
      vertex 8.48618 7.01872 0
      vertex 9.30998 5.18782 0
      vertex 10.8968 7.01872 0
    endloop
  endfacet
  facet normal 0 0 1
    outer loop
      vertex 6.60428 2.04472 0
      vertex 8.95144 4.06828 0
      vertex 8.48618 7.01872 0
    endloop
  endfacet
  facet normal 0 0 1
    outer loop
      vertex 8.95144 4.06828 0
      vertex 6.60428 2.04472 0
      vertex 8.66918 3.20174 0
    endloop
  endfacet
  facet normal 0 0 1
    outer loop
      vertex 8.66918 3.20174 0
      vertex 6.60428 2.04472 0
      vertex 8.46319 2.58823 0
    endloop
  endfacet
  facet normal 0 0 1
    outer loop
      vertex 8.46319 2.58823 0
      vertex 6.60428 2.04472 0
      vertex 8.33348 2.22772 0
    endloop
  endfacet
  facet normal 0 0 1
    outer loop
      vertex 6.48095 1.6957 0
      vertex 8.33348 2.22772 0
      vertex 6.60428 2.04472 0
    endloop
  endfacet
  facet normal 0 0 1
    outer loop
      vertex 6.32457 1.18774 0
      vertex 8.33348 2.22772 0
      vertex 6.48095 1.6957 0
    endloop
  endfacet
  facet normal 0 0 1
    outer loop
      vertex 6.13512 0.520821 0
      vertex 8.33348 2.22772 0
      vertex 6.32457 1.18774 0
    endloop
  endfacet
  facet normal 0 0 1
    outer loop
      vertex 8.33348 2.22772 0
      vertex 6.13512 0.520821 0
      vertex 6.64508 -2.22742 0
    endloop
  endfacet
  facet normal -0 0 1
    outer loop
      vertex 5.91263 -0.305023 0
      vertex 6.64508 -2.22742 0
      vertex 6.13512 0.520821 0
    endloop
  endfacet
  facet normal 0 0 1
    outer loop
      vertex 5.91263 -0.305023 0
      vertex 5.25143 -2.22742 0
      vertex 6.64508 -2.22742 0
    endloop
  endfacet
  facet normal 0 0 1
    outer loop
      vertex 5.64818 0.61042 0
      vertex 5.25143 -2.22742 0
      vertex 5.91263 -0.305023 0
    endloop
  endfacet
  facet normal 0 0 1
    outer loop
      vertex 3.58328 2.22772 0
      vertex 5.64818 0.61042 0
      vertex 5.20058 2.03452 0
    endloop
  endfacet
  facet normal 0 0 1
    outer loop
      vertex 5.64818 0.61042 0
      vertex 3.58328 2.22772 0
      vertex 5.25143 -2.22742 0
    endloop
  endfacet
  facet normal 0 0 1
    outer loop
      vertex 5.20058 2.03452 0
      vertex 3.40465 2.73695 0
      vertex 3.58328 2.22772 0
    endloop
  endfacet
  facet normal -0 0 1
    outer loop
      vertex 2.9215 4.217 0
      vertex 5.20058 2.03452 0
      vertex 3.31883 7.01872 0
    endloop
  endfacet
  facet normal 0 0 1
    outer loop
      vertex 5.20058 2.03452 0
      vertex 3.18405 3.40005 0
      vertex 3.40465 2.73695 0
    endloop
  endfacet
  facet normal 0 0 1
    outer loop
      vertex 5.20058 2.03452 0
      vertex 2.9215 4.217 0
      vertex 3.18405 3.40005 0
    endloop
  endfacet
  facet normal 0 0 1
    outer loop
      vertex 3.31883 7.01872 0
      vertex 2.61698 5.18782 0
      vertex 2.9215 4.217 0
    endloop
  endfacet
  facet normal 0 -0 1
    outer loop
      vertex 2.61698 5.18782 0
      vertex 3.31883 7.01872 0
      vertex 1.03013 7.01872 0
    endloop
  endfacet
  facet normal 0 0 1
    outer loop
      vertex 10.8968 7.01872 0
      vertex 9.26933 2.12602 0
      vertex 10.8968 -6.70312 0
    endloop
  endfacet
  facet normal 0 0 1
    outer loop
      vertex 10.8968 -6.70312 0
      vertex 9.26933 2.12602 0
      vertex 9.26933 -6.70312 0
    endloop
  endfacet
  facet normal 0 0 1
    outer loop
      vertex 1.03013 7.01872 0
      vertex 2.67803 2.12602 0
      vertex 2.67612 2.76878 0
    endloop
  endfacet
  facet normal 0 0 1
    outer loop
      vertex 1.03013 7.01872 0
      vertex 2.67612 2.76878 0
      vertex 2.67038 3.32381 0
    endloop
  endfacet
  facet normal 0 0 1
    outer loop
      vertex 1.03013 7.01872 0
      vertex 2.67038 3.32381 0
      vertex 2.66082 3.79111 0
    endloop
  endfacet
  facet normal 0 0 1
    outer loop
      vertex 1.03013 7.01872 0
      vertex 2.66082 3.79111 0
      vertex 2.64743 4.17067 0
    endloop
  endfacet
  facet normal 0 0 1
    outer loop
      vertex 1.03013 7.01872 0
      vertex 2.64743 4.17067 0
      vertex 2.61698 5.18782 0
    endloop
  endfacet
  facet normal 0 0 1
    outer loop
      vertex 2.67803 2.12602 0
      vertex 1.03013 7.01872 0
      vertex 1.03013 -6.70312 0
    endloop
  endfacet
  facet normal 0 0 1
    outer loop
      vertex 2.67803 2.12602 0
      vertex 1.03013 -6.70312 0
      vertex 2.67803 -6.70312 0
    endloop
  endfacet
  facet normal 0 0 1
    outer loop
      vertex 0 -6.70312 0
      vertex -3.3873 -2.81752 0
      vertex -1.99364 -6.70312 0
    endloop
  endfacet
  facet normal 0 0 1
    outer loop
      vertex 0 -6.70312 0
      vertex -3.906 -1.30192 0
      vertex -3.3873 -2.81752 0
    endloop
  endfacet
  facet normal 0 0 1
    outer loop
      vertex -5.1876 7.01872 0
      vertex -3.906 -1.30192 0
      vertex 0 -6.70312 0
    endloop
  endfacet
  facet normal 0 0 1
    outer loop
      vertex -5.1876 7.01872 0
      vertex -5.44199 3.00082 0
      vertex -3.906 -1.30192 0
    endloop
  endfacet
  facet normal 0 0 1
    outer loop
      vertex -5.1876 7.01872 0
      vertex -6.14384 5.15722 0
      vertex -5.44199 3.00082 0
    endloop
  endfacet
  facet normal 0 0 1
    outer loop
      vertex -5.1876 7.01872 0
      vertex -6.26595 5.55397 0
      vertex -6.14384 5.15722 0
    endloop
  endfacet
  facet normal -0 0 1
    outer loop
      vertex -7.395 7.01872 0
      vertex -6.26595 5.55397 0
      vertex -5.1876 7.01872 0
    endloop
  endfacet
  facet normal 0 0 1
    outer loop
      vertex -7.395 7.01872 0
      vertex -6.8559 3.78412 0
      vertex -6.26595 5.55397 0
    endloop
  endfacet
  facet normal 0 0 1
    outer loop
      vertex -7.395 7.01872 0
      vertex -8.61555 -1.30192 0
      vertex -6.8559 3.78412 0
    endloop
  endfacet
  facet normal 0 0 1
    outer loop
      vertex -12.4911 -6.70312 0
      vertex -8.61555 -1.30192 0
      vertex -7.395 7.01872 0
    endloop
  endfacet
  facet normal 0 0 1
    outer loop
      vertex -8.61555 -1.30192 0
      vertex -12.4911 -6.70312 0
      vertex -9.114 -2.81752 0
    endloop
  endfacet
  facet normal 0 0 1
    outer loop
      vertex -9.114 -2.81752 0
      vertex -12.4911 -6.70312 0
      vertex -10.5177 -6.70312 0
    endloop
  endfacet
  facet normal 0 0 1
    outer loop
      vertex -9.114 -2.81752 0
      vertex -3.906 -1.30192 0
      vertex -8.61555 -1.30192 0
    endloop
  endfacet
  facet normal 0 0 1
    outer loop
      vertex -3.906 -1.30192 0
      vertex -9.114 -2.81752 0
      vertex -3.3873 -2.81752 0
    endloop
  endfacet
  facet normal -0.316326 -0.94865 0
    outer loop
      vertex -20.6733 -6.4437 -4
      vertex -19.6323 -6.79082 0
      vertex -20.6733 -6.4437 0
    endloop
  endfacet
  facet normal -0.316326 -0.94865 -0
    outer loop
      vertex -19.6323 -6.79082 0
      vertex -20.6733 -6.4437 -4
      vertex -19.6323 -6.79082 -4
    endloop
  endfacet
  facet normal -0.543205 -0.8396 0
    outer loop
      vertex -21.5675 -5.86517 -4
      vertex -20.6733 -6.4437 0
      vertex -21.5675 -5.86517 0
    endloop
  endfacet
  facet normal -0.543205 -0.8396 -0
    outer loop
      vertex -20.6733 -6.4437 0
      vertex -21.5675 -5.86517 -4
      vertex -20.6733 -6.4437 -4
    endloop
  endfacet
  facet normal -0.73496 -0.67811 0
    outer loop
      vertex -21.5675 -5.86517 -4
      vertex -22.3148 -5.05522 0
      vertex -22.3148 -5.05522 -4
    endloop
  endfacet
  facet normal -0.73496 -0.67811 0
    outer loop
      vertex -22.3148 -5.05522 0
      vertex -21.5675 -5.86517 -4
      vertex -21.5675 -5.86517 0
    endloop
  endfacet
  facet normal -0.866615 -0.498978 0
    outer loop
      vertex -22.3148 -5.05522 -4
      vertex -22.9045 -4.03104 0
      vertex -22.9045 -4.03104 -4
    endloop
  endfacet
  facet normal -0.866615 -0.498978 0
    outer loop
      vertex -22.9045 -4.03104 0
      vertex -22.3148 -5.05522 -4
      vertex -22.3148 -5.05522 0
    endloop
  endfacet
  facet normal -0.945377 -0.325979 0
    outer loop
      vertex -22.9045 -4.03104 -4
      vertex -23.3256 -2.8098 0
      vertex -23.3256 -2.8098 -4
    endloop
  endfacet
  facet normal -0.945377 -0.325979 0
    outer loop
      vertex -23.3256 -2.8098 0
      vertex -22.9045 -4.03104 -4
      vertex -22.9045 -4.03104 0
    endloop
  endfacet
  facet normal -0.984496 -0.175407 0
    outer loop
      vertex -23.3256 -2.8098 -4
      vertex -23.5783 -1.39149 0
      vertex -23.5783 -1.39149 -4
    endloop
  endfacet
  facet normal -0.984496 -0.175407 0
    outer loop
      vertex -23.5783 -1.39149 0
      vertex -23.3256 -2.8098 -4
      vertex -23.3256 -2.8098 0
    endloop
  endfacet
  facet normal -0.998641 -0.0521156 0
    outer loop
      vertex -23.5783 -1.39149 -4
      vertex -23.6626 0.223869 0
      vertex -23.6626 0.223869 -4
    endloop
  endfacet
  facet normal -0.998641 -0.0521156 0
    outer loop
      vertex -23.6626 0.223869 0
      vertex -23.5783 -1.39149 -4
      vertex -23.5783 -1.39149 0
    endloop
  endfacet
  facet normal -0.998682 0.051333 0
    outer loop
      vertex -23.6626 0.223869 -4
      vertex -23.5787 1.85614 0
      vertex -23.5787 1.85614 -4
    endloop
  endfacet
  facet normal -0.998682 0.051333 0
    outer loop
      vertex -23.5787 1.85614 0
      vertex -23.6626 0.223869 -4
      vertex -23.6626 0.223869 0
    endloop
  endfacet
  facet normal -0.984597 0.174836 0
    outer loop
      vertex -23.5787 1.85614 -4
      vertex -23.3269 3.27416 0
      vertex -23.3269 3.27416 -4
    endloop
  endfacet
  facet normal -0.984597 0.174836 0
    outer loop
      vertex -23.3269 3.27416 0
      vertex -23.5787 1.85614 -4
      vertex -23.5787 1.85614 0
    endloop
  endfacet
  facet normal -0.944277 0.329151 0
    outer loop
      vertex -23.3269 3.27416 -4
      vertex -22.9073 4.47792 0
      vertex -22.9073 4.47792 -4
    endloop
  endfacet
  facet normal -0.944277 0.329151 0
    outer loop
      vertex -22.9073 4.47792 0
      vertex -23.3269 3.27416 -4
      vertex -23.3269 3.27416 0
    endloop
  endfacet
  facet normal -0.859861 0.510529 0
    outer loop
      vertex -22.9073 4.47792 -4
      vertex -22.3198 5.46742 0
      vertex -22.3198 5.46742 -4
    endloop
  endfacet
  facet normal -0.859861 0.510529 0
    outer loop
      vertex -22.3198 5.46742 0
      vertex -22.9073 4.47792 -4
      vertex -22.9073 4.47792 0
    endloop
  endfacet
  facet normal -0.719874 0.694105 0
    outer loop
      vertex -22.3198 5.46742 -4
      vertex -21.5753 6.23956 0
      vertex -21.5753 6.23956 -4
    endloop
  endfacet
  facet normal -0.719874 0.694105 0
    outer loop
      vertex -21.5753 6.23956 0
      vertex -22.3198 5.46742 -4
      vertex -22.3198 5.46742 0
    endloop
  endfacet
  facet normal -0.526504 0.850173 0
    outer loop
      vertex -20.6847 6.7911 -4
      vertex -21.5753 6.23956 0
      vertex -20.6847 6.7911 0
    endloop
  endfacet
  facet normal -0.526504 0.850173 0
    outer loop
      vertex -21.5753 6.23956 0
      vertex -20.6847 6.7911 -4
      vertex -21.5753 6.23956 -4
    endloop
  endfacet
  facet normal -0.304062 0.952652 0
    outer loop
      vertex -19.6479 7.12202 -4
      vertex -20.6847 6.7911 0
      vertex -19.6479 7.12202 0
    endloop
  endfacet
  facet normal -0.304062 0.952652 0
    outer loop
      vertex -20.6847 6.7911 0
      vertex -19.6479 7.12202 -4
      vertex -20.6847 6.7911 -4
    endloop
  endfacet
  facet normal -0.0928271 0.995682 0
    outer loop
      vertex -18.4648 7.23232 -4
      vertex -19.6479 7.12202 0
      vertex -18.4648 7.23232 0
    endloop
  endfacet
  facet normal -0.0928271 0.995682 0
    outer loop
      vertex -19.6479 7.12202 0
      vertex -18.4648 7.23232 -4
      vertex -19.6479 7.12202 -4
    endloop
  endfacet
  facet normal 0.092184 0.995742 -0
    outer loop
      vertex -17.2562 7.12043 -4
      vertex -18.4648 7.23232 0
      vertex -17.2562 7.12043 0
    endloop
  endfacet
  facet normal 0.092184 0.995742 0
    outer loop
      vertex -18.4648 7.23232 0
      vertex -17.2562 7.12043 -4
      vertex -18.4648 7.23232 -4
    endloop
  endfacet
  facet normal 0.303926 0.952696 -0
    outer loop
      vertex -16.204 6.78476 -4
      vertex -17.2562 7.12043 0
      vertex -16.204 6.78476 0
    endloop
  endfacet
  facet normal 0.303926 0.952696 0
    outer loop
      vertex -17.2562 7.12043 0
      vertex -16.204 6.78476 -4
      vertex -17.2562 7.12043 -4
    endloop
  endfacet
  facet normal 0.529716 0.848175 -0
    outer loop
      vertex -15.3082 6.2253 -4
      vertex -16.204 6.78476 0
      vertex -15.3082 6.2253 0
    endloop
  endfacet
  facet normal 0.529716 0.848175 0
    outer loop
      vertex -16.204 6.78476 0
      vertex -15.3082 6.2253 -4
      vertex -16.204 6.78476 -4
    endloop
  endfacet
  facet normal 0.72716 0.686468 0
    outer loop
      vertex -14.5688 5.44207 0
      vertex -15.3082 6.2253 -4
      vertex -15.3082 6.2253 0
    endloop
  endfacet
  facet normal 0.72716 0.686468 0
    outer loop
      vertex -15.3082 6.2253 -4
      vertex -14.5688 5.44207 0
      vertex -14.5688 5.44207 -4
    endloop
  endfacet
  facet normal 0.865046 0.501693 0
    outer loop
      vertex -13.9903 4.44459 0
      vertex -14.5688 5.44207 -4
      vertex -14.5688 5.44207 0
    endloop
  endfacet
  facet normal 0.865046 0.501693 0
    outer loop
      vertex -14.5688 5.44207 -4
      vertex -13.9903 4.44459 0
      vertex -13.9903 4.44459 -4
    endloop
  endfacet
  facet normal 0.9457 0.32504 0
    outer loop
      vertex -13.5771 3.24239 0
      vertex -13.9903 4.44459 -4
      vertex -13.9903 4.44459 0
    endloop
  endfacet
  facet normal 0.9457 0.32504 0
    outer loop
      vertex -13.9903 4.44459 -4
      vertex -13.5771 3.24239 0
      vertex -13.5771 3.24239 -4
    endloop
  endfacet
  facet normal 0.984829 0.17353 0
    outer loop
      vertex -13.3292 1.83549 0
      vertex -13.5771 3.24239 -4
      vertex -13.5771 3.24239 0
    endloop
  endfacet
  facet normal 0.984829 0.17353 0
    outer loop
      vertex -13.5771 3.24239 -4
      vertex -13.3292 1.83549 0
      vertex -13.3292 1.83549 -4
    endloop
  endfacet
  facet normal 0.998689 0.0511856 0
    outer loop
      vertex -13.2466 0.223869 0
      vertex -13.3292 1.83549 -4
      vertex -13.3292 1.83549 0
    endloop
  endfacet
  facet normal 0.998689 0.0511856 0
    outer loop
      vertex -13.3292 1.83549 -4
      vertex -13.2466 0.223869 0
      vertex -13.2466 0.223869 -4
    endloop
  endfacet
  facet normal 0.998713 -0.0507221 0
    outer loop
      vertex -13.3299 -1.4163 0
      vertex -13.2466 0.223869 -4
      vertex -13.2466 0.223869 0
    endloop
  endfacet
  facet normal 0.998713 -0.0507221 0
    outer loop
      vertex -13.2466 0.223869 -4
      vertex -13.3299 -1.4163 0
      vertex -13.3299 -1.4163 -4
    endloop
  endfacet
  facet normal 0.985117 -0.171885 0
    outer loop
      vertex -13.5797 -2.84797 0
      vertex -13.3299 -1.4163 -4
      vertex -13.3299 -1.4163 0
    endloop
  endfacet
  facet normal 0.985117 -0.171885 0
    outer loop
      vertex -13.3299 -1.4163 -4
      vertex -13.5797 -2.84797 0
      vertex -13.5797 -2.84797 -4
    endloop
  endfacet
  facet normal 0.94665 -0.322265 0
    outer loop
      vertex -13.9961 -4.07114 0
      vertex -13.5797 -2.84797 -4
      vertex -13.5797 -2.84797 0
    endloop
  endfacet
  facet normal 0.94665 -0.322265 0
    outer loop
      vertex -13.5797 -2.84797 -4
      vertex -13.9961 -4.07114 0
      vertex -13.9961 -4.07114 -4
    endloop
  endfacet
  facet normal 0.867106 -0.498124 0
    outer loop
      vertex -14.579 -5.08582 0
      vertex -13.9961 -4.07114 -4
      vertex -13.9961 -4.07114 0
    endloop
  endfacet
  facet normal 0.867106 -0.498124 0
    outer loop
      vertex -13.9961 -4.07114 -4
      vertex -14.579 -5.08582 0
      vertex -14.579 -5.08582 -4
    endloop
  endfacet
  facet normal 0.732043 -0.681259 0
    outer loop
      vertex -15.3203 -5.88238 0
      vertex -14.579 -5.08582 -4
      vertex -14.579 -5.08582 0
    endloop
  endfacet
  facet normal 0.732043 -0.681259 0
    outer loop
      vertex -14.579 -5.08582 -4
      vertex -15.3203 -5.88238 0
      vertex -15.3203 -5.88238 -4
    endloop
  endfacet
  facet normal 0.53803 -0.842926 0
    outer loop
      vertex -16.2117 -6.45135 -4
      vertex -15.3203 -5.88238 0
      vertex -16.2117 -6.45135 0
    endloop
  endfacet
  facet normal 0.53803 -0.842926 0
    outer loop
      vertex -15.3203 -5.88238 0
      vertex -16.2117 -6.45135 -4
      vertex -15.3203 -5.88238 -4
    endloop
  endfacet
  facet normal 0.311518 -0.95024 0
    outer loop
      vertex -17.253 -6.79272 -4
      vertex -16.2117 -6.45135 0
      vertex -17.253 -6.79272 0
    endloop
  endfacet
  facet normal 0.311518 -0.95024 0
    outer loop
      vertex -16.2117 -6.45135 0
      vertex -17.253 -6.79272 -4
      vertex -16.2117 -6.45135 -4
    endloop
  endfacet
  facet normal 0.0950851 -0.995469 0
    outer loop
      vertex -18.4444 -6.90652 -4
      vertex -17.253 -6.79272 0
      vertex -18.4444 -6.90652 0
    endloop
  endfacet
  facet normal 0.0950851 -0.995469 0
    outer loop
      vertex -17.253 -6.79272 0
      vertex -18.4444 -6.90652 -4
      vertex -17.253 -6.79272 -4
    endloop
  endfacet
  facet normal -0.09694 -0.99529 0
    outer loop
      vertex -19.6323 -6.79082 -4
      vertex -18.4444 -6.90652 0
      vertex -19.6323 -6.79082 0
    endloop
  endfacet
  facet normal -0.09694 -0.99529 -0
    outer loop
      vertex -18.4444 -6.90652 0
      vertex -19.6323 -6.79082 -4
      vertex -18.4444 -6.90652 -4
    endloop
  endfacet
  facet normal -0.381873 0.924215 0
    outer loop
      vertex -17.0865 -4.97894 -4
      vertex -17.7235 -5.24214 0
      vertex -17.0865 -4.97894 0
    endloop
  endfacet
  facet normal -0.381873 0.924215 0
    outer loop
      vertex -17.7235 -5.24214 0
      vertex -17.0865 -4.97894 -4
      vertex -17.7235 -5.24214 -4
    endloop
  endfacet
  facet normal -0.6284 0.77789 0
    outer loop
      vertex -16.5435 -4.54029 -4
      vertex -17.0865 -4.97894 0
      vertex -16.5435 -4.54029 0
    endloop
  endfacet
  facet normal -0.6284 0.77789 0
    outer loop
      vertex -17.0865 -4.97894 0
      vertex -16.5435 -4.54029 -4
      vertex -17.0865 -4.97894 -4
    endloop
  endfacet
  facet normal -0.807316 0.590119 0
    outer loop
      vertex -16.5435 -4.54029 -4
      vertex -16.0946 -3.92617 0
      vertex -16.0946 -3.92617 -4
    endloop
  endfacet
  facet normal -0.807316 0.590119 0
    outer loop
      vertex -16.0946 -3.92617 0
      vertex -16.5435 -4.54029 -4
      vertex -16.5435 -4.54029 0
    endloop
  endfacet
  facet normal -0.912831 0.408338 0
    outer loop
      vertex -16.0946 -3.92617 -4
      vertex -15.7431 -3.1404 0
      vertex -15.7431 -3.1404 -4
    endloop
  endfacet
  facet normal -0.912831 0.408338 0
    outer loop
      vertex -15.7431 -3.1404 0
      vertex -16.0946 -3.92617 -4
      vertex -16.0946 -3.92617 0
    endloop
  endfacet
  facet normal -0.967036 0.254641 0
    outer loop
      vertex -15.7431 -3.1404 -4
      vertex -15.492 -2.18681 0
      vertex -15.492 -2.18681 -4
    endloop
  endfacet
  facet normal -0.967036 0.254641 0
    outer loop
      vertex -15.492 -2.18681 0
      vertex -15.7431 -3.1404 -4
      vertex -15.7431 -3.1404 0
    endloop
  endfacet
  facet normal -0.991091 0.133185 0
    outer loop
      vertex -15.492 -2.18681 -4
      vertex -15.3413 -1.06538 0
      vertex -15.3413 -1.06538 -4
    endloop
  endfacet
  facet normal -0.991091 0.133185 0
    outer loop
      vertex -15.3413 -1.06538 0
      vertex -15.492 -2.18681 -4
      vertex -15.492 -2.18681 0
    endloop
  endfacet
  facet normal -0.999243 0.0389079 0
    outer loop
      vertex -15.3413 -1.06538 -4
      vertex -15.2911 0.223869 0
      vertex -15.2911 0.223869 -4
    endloop
  endfacet
  facet normal -0.999243 0.0389079 0
    outer loop
      vertex -15.2911 0.223869 0
      vertex -15.3413 -1.06538 -4
      vertex -15.3413 -1.06538 0
    endloop
  endfacet
  facet normal -0.996524 -0.0833114 0
    outer loop
      vertex -15.2911 0.223869 -4
      vertex -15.4894 2.59582 0
      vertex -15.4894 2.59582 -4
    endloop
  endfacet
  facet normal -0.996524 -0.0833114 0
    outer loop
      vertex -15.4894 2.59582 0
      vertex -15.2911 0.223869 -4
      vertex -15.2911 0.223869 0
    endloop
  endfacet
  facet normal -0.943491 -0.331398 0
    outer loop
      vertex -15.4894 2.59582 -4
      vertex -16.0845 4.29007 0
      vertex -16.0845 4.29007 -4
    endloop
  endfacet
  facet normal -0.943491 -0.331398 0
    outer loop
      vertex -16.0845 4.29007 0
      vertex -15.4894 2.59582 -4
      vertex -15.4894 2.59582 0
    endloop
  endfacet
  facet normal -0.715766 -0.69834 0
    outer loop
      vertex -16.0845 4.29007 -4
      vertex -17.0763 5.30662 0
      vertex -17.0763 5.30662 -4
    endloop
  endfacet
  facet normal -0.715766 -0.69834 0
    outer loop
      vertex -17.0763 5.30662 0
      vertex -16.0845 4.29007 -4
      vertex -16.0845 4.29007 0
    endloop
  endfacet
  facet normal -0.237083 -0.971489 0
    outer loop
      vertex -18.4648 5.64547 -4
      vertex -17.0763 5.30662 0
      vertex -18.4648 5.64547 0
    endloop
  endfacet
  facet normal -0.237083 -0.971489 -0
    outer loop
      vertex -17.0763 5.30662 0
      vertex -18.4648 5.64547 -4
      vertex -17.0763 5.30662 -4
    endloop
  endfacet
  facet normal 0.238542 -0.971132 0
    outer loop
      vertex -19.8443 5.30662 -4
      vertex -18.4648 5.64547 0
      vertex -19.8443 5.30662 0
    endloop
  endfacet
  facet normal 0.238542 -0.971132 0
    outer loop
      vertex -18.4648 5.64547 0
      vertex -19.8443 5.30662 -4
      vertex -18.4648 5.64547 -4
    endloop
  endfacet
  facet normal 0.717987 -0.696056 0
    outer loop
      vertex -20.8298 4.29007 0
      vertex -19.8443 5.30662 -4
      vertex -19.8443 5.30662 0
    endloop
  endfacet
  facet normal 0.717987 -0.696056 0
    outer loop
      vertex -19.8443 5.30662 -4
      vertex -20.8298 4.29007 0
      vertex -20.8298 4.29007 -4
    endloop
  endfacet
  facet normal 0.944169 -0.329463 0
    outer loop
      vertex -21.421 2.59582 0
      vertex -20.8298 4.29007 -4
      vertex -20.8298 4.29007 0
    endloop
  endfacet
  facet normal 0.944169 -0.329463 0
    outer loop
      vertex -20.8298 4.29007 -4
      vertex -21.421 2.59582 0
      vertex -21.421 2.59582 -4
    endloop
  endfacet
  facet normal 0.996565 -0.0828107 0
    outer loop
      vertex -21.6181 0.223869 0
      vertex -21.421 2.59582 -4
      vertex -21.421 2.59582 0
    endloop
  endfacet
  facet normal 0.996565 -0.0828107 0
    outer loop
      vertex -21.421 2.59582 -4
      vertex -21.6181 0.223869 0
      vertex -21.6181 0.223869 -4
    endloop
  endfacet
  facet normal 0.999316 0.0369815 0
    outer loop
      vertex -21.571 -1.04887 0
      vertex -21.6181 0.223869 -4
      vertex -21.6181 0.223869 0
    endloop
  endfacet
  facet normal 0.999316 0.0369815 0
    outer loop
      vertex -21.6181 0.223869 -4
      vertex -21.571 -1.04887 0
      vertex -21.571 -1.04887 -4
    endloop
  endfacet
  facet normal 0.992053 0.125818 0
    outer loop
      vertex -21.4299 -2.16142 0
      vertex -21.571 -1.04887 -4
      vertex -21.571 -1.04887 0
    endloop
  endfacet
  facet normal 0.992053 0.125818 0
    outer loop
      vertex -21.571 -1.04887 -4
      vertex -21.4299 -2.16142 0
      vertex -21.4299 -2.16142 -4
    endloop
  endfacet
  facet normal 0.970807 0.23986 0
    outer loop
      vertex -21.1946 -3.11377 0
      vertex -21.4299 -2.16142 -4
      vertex -21.4299 -2.16142 0
    endloop
  endfacet
  facet normal 0.970807 0.23986 0
    outer loop
      vertex -21.4299 -2.16142 -4
      vertex -21.1946 -3.11377 0
      vertex -21.1946 -3.11377 -4
    endloop
  endfacet
  facet normal 0.923351 0.383957 0
    outer loop
      vertex -20.8652 -3.90592 0
      vertex -21.1946 -3.11377 -4
      vertex -21.1946 -3.11377 0
    endloop
  endfacet
  facet normal 0.923351 0.383957 0
    outer loop
      vertex -21.1946 -3.11377 -4
      vertex -20.8652 -3.90592 0
      vertex -20.8652 -3.90592 -4
    endloop
  endfacet
  facet normal 0.8212 0.57064 0
    outer loop
      vertex -20.4323 -4.5289 0
      vertex -20.8652 -3.90592 -4
      vertex -20.8652 -3.90592 0
    endloop
  endfacet
  facet normal 0.8212 0.57064 0
    outer loop
      vertex -20.8652 -3.90592 -4
      vertex -20.4323 -4.5289 0
      vertex -20.4323 -4.5289 -4
    endloop
  endfacet
  facet normal 0.631681 0.775228 -0
    outer loop
      vertex -19.8862 -4.97388 -4
      vertex -20.4323 -4.5289 0
      vertex -19.8862 -4.97388 0
    endloop
  endfacet
  facet normal 0.631681 0.775228 0
    outer loop
      vertex -20.4323 -4.5289 0
      vertex -19.8862 -4.97388 -4
      vertex -20.4323 -4.5289 -4
    endloop
  endfacet
  facet normal 0.375411 0.926858 -0
    outer loop
      vertex -19.227 -5.24088 -4
      vertex -19.8862 -4.97388 0
      vertex -19.227 -5.24088 0
    endloop
  endfacet
  facet normal 0.375411 0.926858 0
    outer loop
      vertex -19.8862 -4.97388 0
      vertex -19.227 -5.24088 -4
      vertex -19.8862 -4.97388 -4
    endloop
  endfacet
  facet normal 0.114455 0.993428 -0
    outer loop
      vertex -18.4546 -5.32987 -4
      vertex -19.227 -5.24088 0
      vertex -18.4546 -5.32987 0
    endloop
  endfacet
  facet normal 0.114455 0.993428 0
    outer loop
      vertex -19.227 -5.24088 0
      vertex -18.4546 -5.32987 -4
      vertex -19.227 -5.24088 -4
    endloop
  endfacet
  facet normal -0.119143 0.992877 0
    outer loop
      vertex -17.7235 -5.24214 -4
      vertex -18.4546 -5.32987 0
      vertex -17.7235 -5.24214 0
    endloop
  endfacet
  facet normal -0.119143 0.992877 0
    outer loop
      vertex -18.4546 -5.32987 0
      vertex -17.7235 -5.24214 -4
      vertex -18.4546 -5.32987 -4
    endloop
  endfacet
  facet normal 0 1 -0
    outer loop
      vertex 20.0645 -5.11627 -4
      vertex 13.229 -5.11627 0
      vertex 20.0645 -5.11627 0
    endloop
  endfacet
  facet normal 0 1 0
    outer loop
      vertex 13.229 -5.11627 0
      vertex 20.0645 -5.11627 -4
      vertex 13.229 -5.11627 -4
    endloop
  endfacet
  facet normal -1 0 0
    outer loop
      vertex 20.0645 -5.11627 -4
      vertex 20.0645 7.01872 0
      vertex 20.0645 7.01872 -4
    endloop
  endfacet
  facet normal -1 -0 0
    outer loop
      vertex 20.0645 7.01872 0
      vertex 20.0645 -5.11627 -4
      vertex 20.0645 -5.11627 0
    endloop
  endfacet
  facet normal 0 1 -0
    outer loop
      vertex 22.0073 7.01872 -4
      vertex 20.0645 7.01872 0
      vertex 22.0073 7.01872 0
    endloop
  endfacet
  facet normal 0 1 0
    outer loop
      vertex 20.0645 7.01872 0
      vertex 22.0073 7.01872 -4
      vertex 20.0645 7.01872 -4
    endloop
  endfacet
  facet normal 1 -0 0
    outer loop
      vertex 22.0073 -6.70312 0
      vertex 22.0073 7.01872 -4
      vertex 22.0073 7.01872 0
    endloop
  endfacet
  facet normal 1 0 0
    outer loop
      vertex 22.0073 7.01872 -4
      vertex 22.0073 -6.70312 0
      vertex 22.0073 -6.70312 -4
    endloop
  endfacet
  facet normal 0 -1 0
    outer loop
      vertex 13.229 -6.70312 -4
      vertex 22.0073 -6.70312 0
      vertex 13.229 -6.70312 0
    endloop
  endfacet
  facet normal 0 -1 -0
    outer loop
      vertex 22.0073 -6.70312 0
      vertex 13.229 -6.70312 -4
      vertex 22.0073 -6.70312 -4
    endloop
  endfacet
  facet normal -1 0 0
    outer loop
      vertex 13.229 -6.70312 -4
      vertex 13.229 -5.11627 0
      vertex 13.229 -5.11627 -4
    endloop
  endfacet
  facet normal -1 -0 0
    outer loop
      vertex 13.229 -5.11627 0
      vertex 13.229 -6.70312 -4
      vertex 13.229 -6.70312 0
    endloop
  endfacet
  facet normal -0.999912 0.0132753 0
    outer loop
      vertex 9.26933 2.12602 -4
      vertex 9.30998 5.18782 0
      vertex 9.30998 5.18782 -4
    endloop
  endfacet
  facet normal -0.999912 0.0132753 0
    outer loop
      vertex 9.30998 5.18782 0
      vertex 9.26933 2.12602 -4
      vertex 9.26933 2.12602 0
    endloop
  endfacet
  facet normal 0.952353 -0.304997 0
    outer loop
      vertex 8.95144 4.06828 0
      vertex 9.30998 5.18782 -4
      vertex 9.30998 5.18782 0
    endloop
  endfacet
  facet normal 0.952353 -0.304997 0
    outer loop
      vertex 9.30998 5.18782 -4
      vertex 8.95144 4.06828 0
      vertex 8.95144 4.06828 -4
    endloop
  endfacet
  facet normal 0.950829 -0.309716 0
    outer loop
      vertex 8.66918 3.20174 0
      vertex 8.95144 4.06828 -4
      vertex 8.95144 4.06828 0
    endloop
  endfacet
  facet normal 0.950829 -0.309716 0
    outer loop
      vertex 8.95144 4.06828 -4
      vertex 8.66918 3.20174 0
      vertex 8.66918 3.20174 -4
    endloop
  endfacet
  facet normal 0.947992 -0.318294 0
    outer loop
      vertex 8.46319 2.58823 0
      vertex 8.66918 3.20174 -4
      vertex 8.66918 3.20174 0
    endloop
  endfacet
  facet normal 0.947992 -0.318294 0
    outer loop
      vertex 8.66918 3.20174 -4
      vertex 8.46319 2.58823 0
      vertex 8.46319 2.58823 -4
    endloop
  endfacet
  facet normal 0.940949 -0.338549 0
    outer loop
      vertex 8.33348 2.22772 0
      vertex 8.46319 2.58823 -4
      vertex 8.46319 2.58823 0
    endloop
  endfacet
  facet normal 0.940949 -0.338549 0
    outer loop
      vertex 8.46319 2.58823 -4
      vertex 8.33348 2.22772 0
      vertex 8.33348 2.22772 -4
    endloop
  endfacet
  facet normal 0.935101 -0.354383 0
    outer loop
      vertex 6.64508 -2.22742 0
      vertex 8.33348 2.22772 -4
      vertex 8.33348 2.22772 0
    endloop
  endfacet
  facet normal 0.935101 -0.354383 0
    outer loop
      vertex 8.33348 2.22772 -4
      vertex 6.64508 -2.22742 0
      vertex 6.64508 -2.22742 -4
    endloop
  endfacet
  facet normal 0 -1 0
    outer loop
      vertex 5.25143 -2.22742 -4
      vertex 6.64508 -2.22742 0
      vertex 5.25143 -2.22742 0
    endloop
  endfacet
  facet normal 0 -1 -0
    outer loop
      vertex 6.64508 -2.22742 0
      vertex 5.25143 -2.22742 -4
      vertex 6.64508 -2.22742 -4
    endloop
  endfacet
  facet normal -0.936504 -0.350658 0
    outer loop
      vertex 5.25143 -2.22742 -4
      vertex 3.58328 2.22772 0
      vertex 3.58328 2.22772 -4
    endloop
  endfacet
  facet normal -0.936504 -0.350658 0
    outer loop
      vertex 3.58328 2.22772 0
      vertex 5.25143 -2.22742 -4
      vertex 5.25143 -2.22742 0
    endloop
  endfacet
  facet normal -0.943627 -0.33101 0
    outer loop
      vertex 3.58328 2.22772 -4
      vertex 3.40465 2.73695 0
      vertex 3.40465 2.73695 -4
    endloop
  endfacet
  facet normal -0.943627 -0.33101 0
    outer loop
      vertex 3.40465 2.73695 0
      vertex 3.58328 2.22772 -4
      vertex 3.58328 2.22772 0
    endloop
  endfacet
  facet normal -0.948869 -0.31567 0
    outer loop
      vertex 3.40465 2.73695 -4
      vertex 3.18405 3.40005 0
      vertex 3.18405 3.40005 -4
    endloop
  endfacet
  facet normal -0.948869 -0.31567 0
    outer loop
      vertex 3.18405 3.40005 0
      vertex 3.40465 2.73695 -4
      vertex 3.40465 2.73695 0
    endloop
  endfacet
  facet normal -0.952043 -0.305966 0
    outer loop
      vertex 3.18405 3.40005 -4
      vertex 2.9215 4.217 0
      vertex 2.9215 4.217 -4
    endloop
  endfacet
  facet normal -0.952043 -0.305966 0
    outer loop
      vertex 2.9215 4.217 0
      vertex 3.18405 3.40005 -4
      vertex 3.18405 3.40005 0
    endloop
  endfacet
  facet normal -0.954161 -0.299294 0
    outer loop
      vertex 2.9215 4.217 -4
      vertex 2.61698 5.18782 0
      vertex 2.61698 5.18782 -4
    endloop
  endfacet
  facet normal -0.954161 -0.299294 0
    outer loop
      vertex 2.61698 5.18782 0
      vertex 2.9215 4.217 -4
      vertex 2.9215 4.217 0
    endloop
  endfacet
  facet normal 0.999552 0.0299232 0
    outer loop
      vertex 2.64743 4.17067 0
      vertex 2.61698 5.18782 -4
      vertex 2.61698 5.18782 0
    endloop
  endfacet
  facet normal 0.999552 0.0299232 0
    outer loop
      vertex 2.61698 5.18782 -4
      vertex 2.64743 4.17067 0
      vertex 2.64743 4.17067 -4
    endloop
  endfacet
  facet normal 0.999378 0.0352558 0
    outer loop
      vertex 2.66082 3.79111 0
      vertex 2.64743 4.17067 -4
      vertex 2.64743 4.17067 0
    endloop
  endfacet
  facet normal 0.999378 0.0352558 0
    outer loop
      vertex 2.64743 4.17067 -4
      vertex 2.66082 3.79111 0
      vertex 2.66082 3.79111 -4
    endloop
  endfacet
  facet normal 0.999791 0.0204537 0
    outer loop
      vertex 2.67038 3.32381 0
      vertex 2.66082 3.79111 -4
      vertex 2.66082 3.79111 0
    endloop
  endfacet
  facet normal 0.999791 0.0204537 0
    outer loop
      vertex 2.66082 3.79111 -4
      vertex 2.67038 3.32381 0
      vertex 2.67038 3.32381 -4
    endloop
  endfacet
  facet normal 0.999947 0.0103412 0
    outer loop
      vertex 2.67612 2.76878 0
      vertex 2.67038 3.32381 -4
      vertex 2.67038 3.32381 0
    endloop
  endfacet
  facet normal 0.999947 0.0103412 0
    outer loop
      vertex 2.67038 3.32381 -4
      vertex 2.67612 2.76878 0
      vertex 2.67612 2.76878 -4
    endloop
  endfacet
  facet normal 0.999996 0.00297155 0
    outer loop
      vertex 2.67803 2.12602 0
      vertex 2.67612 2.76878 -4
      vertex 2.67612 2.76878 0
    endloop
  endfacet
  facet normal 0.999996 0.00297155 0
    outer loop
      vertex 2.67612 2.76878 -4
      vertex 2.67803 2.12602 0
      vertex 2.67803 2.12602 -4
    endloop
  endfacet
  facet normal 1 -0 0
    outer loop
      vertex 2.67803 -6.70312 0
      vertex 2.67803 2.12602 -4
      vertex 2.67803 2.12602 0
    endloop
  endfacet
  facet normal 1 0 0
    outer loop
      vertex 2.67803 2.12602 -4
      vertex 2.67803 -6.70312 0
      vertex 2.67803 -6.70312 -4
    endloop
  endfacet
  facet normal 0 -1 0
    outer loop
      vertex 1.03013 -6.70312 -4
      vertex 2.67803 -6.70312 0
      vertex 1.03013 -6.70312 0
    endloop
  endfacet
  facet normal 0 -1 -0
    outer loop
      vertex 2.67803 -6.70312 0
      vertex 1.03013 -6.70312 -4
      vertex 2.67803 -6.70312 -4
    endloop
  endfacet
  facet normal -1 0 0
    outer loop
      vertex 1.03013 -6.70312 -4
      vertex 1.03013 7.01872 0
      vertex 1.03013 7.01872 -4
    endloop
  endfacet
  facet normal -1 -0 0
    outer loop
      vertex 1.03013 7.01872 0
      vertex 1.03013 -6.70312 -4
      vertex 1.03013 -6.70312 0
    endloop
  endfacet
  facet normal 0 1 -0
    outer loop
      vertex 3.31883 7.01872 -4
      vertex 1.03013 7.01872 0
      vertex 3.31883 7.01872 0
    endloop
  endfacet
  facet normal 0 1 0
    outer loop
      vertex 1.03013 7.01872 0
      vertex 3.31883 7.01872 -4
      vertex 1.03013 7.01872 -4
    endloop
  endfacet
  facet normal 0.935545 0.353208 0
    outer loop
      vertex 5.20058 2.03452 0
      vertex 3.31883 7.01872 -4
      vertex 3.31883 7.01872 0
    endloop
  endfacet
  facet normal 0.935545 0.353208 0
    outer loop
      vertex 3.31883 7.01872 -4
      vertex 5.20058 2.03452 0
      vertex 5.20058 2.03452 -4
    endloop
  endfacet
  facet normal 0.953989 0.299842 0
    outer loop
      vertex 5.64818 0.61042 0
      vertex 5.20058 2.03452 -4
      vertex 5.20058 2.03452 0
    endloop
  endfacet
  facet normal 0.953989 0.299842 0
    outer loop
      vertex 5.20058 2.03452 -4
      vertex 5.64818 0.61042 0
      vertex 5.64818 0.61042 -4
    endloop
  endfacet
  facet normal 0.960717 0.277529 0
    outer loop
      vertex 5.91263 -0.305023 0
      vertex 5.64818 0.61042 -4
      vertex 5.64818 0.61042 0
    endloop
  endfacet
  facet normal 0.960717 0.277529 0
    outer loop
      vertex 5.64818 0.61042 -4
      vertex 5.91263 -0.305023 0
      vertex 5.91263 -0.305023 -4
    endloop
  endfacet
  facet normal -0.965572 0.260134 0
    outer loop
      vertex 5.91263 -0.305023 -4
      vertex 6.13512 0.520821 0
      vertex 6.13512 0.520821 -4
    endloop
  endfacet
  facet normal -0.965572 0.260134 0
    outer loop
      vertex 6.13512 0.520821 0
      vertex 5.91263 -0.305023 -4
      vertex 5.91263 -0.305023 0
    endloop
  endfacet
  facet normal -0.961941 0.273256 0
    outer loop
      vertex 6.13512 0.520821 -4
      vertex 6.32457 1.18774 0
      vertex 6.32457 1.18774 -4
    endloop
  endfacet
  facet normal -0.961941 0.273256 0
    outer loop
      vertex 6.32457 1.18774 0
      vertex 6.13512 0.520821 -4
      vertex 6.13512 0.520821 0
    endloop
  endfacet
  facet normal -0.955734 0.294231 0
    outer loop
      vertex 6.32457 1.18774 -4
      vertex 6.48095 1.6957 0
      vertex 6.48095 1.6957 -4
    endloop
  endfacet
  facet normal -0.955734 0.294231 0
    outer loop
      vertex 6.48095 1.6957 0
      vertex 6.32457 1.18774 -4
      vertex 6.32457 1.18774 0
    endloop
  endfacet
  facet normal -0.942866 0.333172 0
    outer loop
      vertex 6.48095 1.6957 -4
      vertex 6.60428 2.04472 0
      vertex 6.60428 2.04472 -4
    endloop
  endfacet
  facet normal -0.942866 0.333172 0
    outer loop
      vertex 6.60428 2.04472 0
      vertex 6.48095 1.6957 -4
      vertex 6.48095 1.6957 0
    endloop
  endfacet
  facet normal -0.935296 0.353867 0
    outer loop
      vertex 6.60428 2.04472 -4
      vertex 8.48618 7.01872 0
      vertex 8.48618 7.01872 -4
    endloop
  endfacet
  facet normal -0.935296 0.353867 0
    outer loop
      vertex 8.48618 7.01872 0
      vertex 6.60428 2.04472 -4
      vertex 6.60428 2.04472 0
    endloop
  endfacet
  facet normal 0 1 -0
    outer loop
      vertex 10.8968 7.01872 -4
      vertex 8.48618 7.01872 0
      vertex 10.8968 7.01872 0
    endloop
  endfacet
  facet normal 0 1 0
    outer loop
      vertex 8.48618 7.01872 0
      vertex 10.8968 7.01872 -4
      vertex 8.48618 7.01872 -4
    endloop
  endfacet
  facet normal 1 -0 0
    outer loop
      vertex 10.8968 -6.70312 0
      vertex 10.8968 7.01872 -4
      vertex 10.8968 7.01872 0
    endloop
  endfacet
  facet normal 1 0 0
    outer loop
      vertex 10.8968 7.01872 -4
      vertex 10.8968 -6.70312 0
      vertex 10.8968 -6.70312 -4
    endloop
  endfacet
  facet normal 0 -1 0
    outer loop
      vertex 9.26933 -6.70312 -4
      vertex 10.8968 -6.70312 0
      vertex 9.26933 -6.70312 0
    endloop
  endfacet
  facet normal 0 -1 -0
    outer loop
      vertex 10.8968 -6.70312 0
      vertex 9.26933 -6.70312 -4
      vertex 10.8968 -6.70312 -4
    endloop
  endfacet
  facet normal -1 0 0
    outer loop
      vertex 9.26933 -6.70312 -4
      vertex 9.26933 2.12602 0
      vertex 9.26933 2.12602 -4
    endloop
  endfacet
  facet normal -1 -0 0
    outer loop
      vertex 9.26933 2.12602 0
      vertex 9.26933 -6.70312 -4
      vertex 9.26933 -6.70312 0
    endloop
  endfacet
  facet normal 0 -1 0
    outer loop
      vertex -9.114 -2.81752 -4
      vertex -3.3873 -2.81752 0
      vertex -9.114 -2.81752 0
    endloop
  endfacet
  facet normal 0 -1 -0
    outer loop
      vertex -3.3873 -2.81752 0
      vertex -9.114 -2.81752 -4
      vertex -3.3873 -2.81752 -4
    endloop
  endfacet
  facet normal 0.94051 -0.339766 0
    outer loop
      vertex -10.5177 -6.70312 0
      vertex -9.114 -2.81752 -4
      vertex -9.114 -2.81752 0
    endloop
  endfacet
  facet normal 0.94051 -0.339766 0
    outer loop
      vertex -9.114 -2.81752 -4
      vertex -10.5177 -6.70312 0
      vertex -10.5177 -6.70312 -4
    endloop
  endfacet
  facet normal 0 -1 0
    outer loop
      vertex -12.4911 -6.70312 -4
      vertex -10.5177 -6.70312 0
      vertex -12.4911 -6.70312 0
    endloop
  endfacet
  facet normal 0 -1 -0
    outer loop
      vertex -10.5177 -6.70312 0
      vertex -12.4911 -6.70312 -4
      vertex -10.5177 -6.70312 -4
    endloop
  endfacet
  facet normal -0.937438 0.348152 0
    outer loop
      vertex -12.4911 -6.70312 -4
      vertex -7.395 7.01872 0
      vertex -7.395 7.01872 -4
    endloop
  endfacet
  facet normal -0.937438 0.348152 0
    outer loop
      vertex -7.395 7.01872 0
      vertex -12.4911 -6.70312 -4
      vertex -12.4911 -6.70312 0
    endloop
  endfacet
  facet normal 0 1 -0
    outer loop
      vertex -5.1876 7.01872 -4
      vertex -7.395 7.01872 0
      vertex -5.1876 7.01872 0
    endloop
  endfacet
  facet normal 0 1 0
    outer loop
      vertex -7.395 7.01872 0
      vertex -5.1876 7.01872 -4
      vertex -7.395 7.01872 -4
    endloop
  endfacet
  facet normal 0.935387 0.353627 0
    outer loop
      vertex 0 -6.70312 0
      vertex -5.1876 7.01872 -4
      vertex -5.1876 7.01872 0
    endloop
  endfacet
  facet normal 0.935387 0.353627 0
    outer loop
      vertex -5.1876 7.01872 -4
      vertex 0 -6.70312 0
      vertex 0 -6.70312 -4
    endloop
  endfacet
  facet normal 0 -1 0
    outer loop
      vertex -1.99364 -6.70312 -4
      vertex 0 -6.70312 0
      vertex -1.99364 -6.70312 0
    endloop
  endfacet
  facet normal 0 -1 -0
    outer loop
      vertex 0 -6.70312 0
      vertex -1.99364 -6.70312 -4
      vertex 0 -6.70312 -4
    endloop
  endfacet
  facet normal -0.941285 -0.337613 0
    outer loop
      vertex -1.99364 -6.70312 -4
      vertex -3.3873 -2.81752 0
      vertex -3.3873 -2.81752 -4
    endloop
  endfacet
  facet normal -0.941285 -0.337613 0
    outer loop
      vertex -3.3873 -2.81752 0
      vertex -1.99364 -6.70312 -4
      vertex -1.99364 -6.70312 0
    endloop
  endfacet
  facet normal -0.941791 -0.3362 0
    outer loop
      vertex -3.906 -1.30192 -4
      vertex -5.44199 3.00082 0
      vertex -5.44199 3.00082 -4
    endloop
  endfacet
  facet normal -0.941791 -0.3362 0
    outer loop
      vertex -5.44199 3.00082 0
      vertex -3.906 -1.30192 -4
      vertex -3.906 -1.30192 0
    endloop
  endfacet
  facet normal -0.950902 -0.309493 0
    outer loop
      vertex -5.44199 3.00082 -4
      vertex -6.14384 5.15722 0
      vertex -6.14384 5.15722 -4
    endloop
  endfacet
  facet normal -0.950902 -0.309493 0
    outer loop
      vertex -6.14384 5.15722 0
      vertex -5.44199 3.00082 -4
      vertex -5.44199 3.00082 0
    endloop
  endfacet
  facet normal -0.955757 -0.294159 0
    outer loop
      vertex -6.14384 5.15722 -4
      vertex -6.26595 5.55397 0
      vertex -6.26595 5.55397 -4
    endloop
  endfacet
  facet normal -0.955757 -0.294159 0
    outer loop
      vertex -6.26595 5.55397 0
      vertex -6.14384 5.15722 -4
      vertex -6.14384 5.15722 0
    endloop
  endfacet
  facet normal 0.948683 -0.316228 0
    outer loop
      vertex -6.8559 3.78412 0
      vertex -6.26595 5.55397 -4
      vertex -6.26595 5.55397 0
    endloop
  endfacet
  facet normal 0.948683 -0.316228 0
    outer loop
      vertex -6.26595 5.55397 -4
      vertex -6.8559 3.78412 0
      vertex -6.8559 3.78412 -4
    endloop
  endfacet
  facet normal 0.945038 -0.326961 0
    outer loop
      vertex -8.61555 -1.30192 0
      vertex -6.8559 3.78412 -4
      vertex -6.8559 3.78412 0
    endloop
  endfacet
  facet normal 0.945038 -0.326961 0
    outer loop
      vertex -6.8559 3.78412 -4
      vertex -8.61555 -1.30192 0
      vertex -8.61555 -1.30192 -4
    endloop
  endfacet
  facet normal 0 1 -0
    outer loop
      vertex -3.906 -1.30192 -4
      vertex -8.61555 -1.30192 0
      vertex -3.906 -1.30192 0
    endloop
  endfacet
  facet normal 0 1 0
    outer loop
      vertex -8.61555 -1.30192 0
      vertex -3.906 -1.30192 -4
      vertex -8.61555 -1.30192 -4
    endloop
  endfacet
  facet normal -1 0 0
    outer loop
      vertex -24 -10 -14
      vertex -24 10 -4
      vertex -24 10 -14
    endloop
  endfacet
  facet normal -1 -0 0
    outer loop
      vertex -24 10 -4
      vertex -24 -10 -14
      vertex -24 -10 -4
    endloop
  endfacet
  facet normal 0 0 -1
    outer loop
      vertex -24 -10 -14
      vertex 24 10 -14
      vertex 24 -10 -14
    endloop
  endfacet
  facet normal -0 0 -1
    outer loop
      vertex 24 10 -14
      vertex -24 -10 -14
      vertex -24 10 -14
    endloop
  endfacet
  facet normal -0 0 1
    outer loop
      vertex 8.66918 3.20174 -4
      vertex 9.26933 2.12602 -4
      vertex 8.95144 4.06828 -4
    endloop
  endfacet
  facet normal -0 0 1
    outer loop
      vertex 8.95144 4.06828 -4
      vertex 9.26933 2.12602 -4
      vertex 9.30998 5.18782 -4
    endloop
  endfacet
  facet normal 0 0 1
    outer loop
      vertex 22.0073 -6.70312 -4
      vertex 24 10 -4
      vertex 22.0073 7.01872 -4
    endloop
  endfacet
  facet normal 0 0 1
    outer loop
      vertex 24 10 -4
      vertex 20.0645 7.01872 -4
      vertex 22.0073 7.01872 -4
    endloop
  endfacet
  facet normal 0 0 1
    outer loop
      vertex 20.0645 7.01872 -4
      vertex 13.229 -5.11627 -4
      vertex 20.0645 -5.11627 -4
    endloop
  endfacet
  facet normal 0 0 1
    outer loop
      vertex 10.8968 -6.70312 -4
      vertex 13.229 -5.11627 -4
      vertex 10.8968 7.01872 -4
    endloop
  endfacet
  facet normal 0 0 1
    outer loop
      vertex 20.0645 7.01872 -4
      vertex 10.8968 7.01872 -4
      vertex 13.229 -5.11627 -4
    endloop
  endfacet
  facet normal 0 0 1
    outer loop
      vertex 24 10 -4
      vertex 10.8968 7.01872 -4
      vertex 20.0645 7.01872 -4
    endloop
  endfacet
  facet normal 0 0 1
    outer loop
      vertex 24 10 -4
      vertex 8.48618 7.01872 -4
      vertex 10.8968 7.01872 -4
    endloop
  endfacet
  facet normal 0 0 1
    outer loop
      vertex 6.13512 0.520821 -4
      vertex 5.64818 0.61042 -4
      vertex 5.91263 -0.305023 -4
    endloop
  endfacet
  facet normal 0 0 1
    outer loop
      vertex 6.32457 1.18774 -4
      vertex 5.64818 0.61042 -4
      vertex 6.13512 0.520821 -4
    endloop
  endfacet
  facet normal 0 0 1
    outer loop
      vertex 5.20058 2.03452 -4
      vertex 6.32457 1.18774 -4
      vertex 6.48095 1.6957 -4
    endloop
  endfacet
  facet normal -0 0 1
    outer loop
      vertex 5.20058 2.03452 -4
      vertex 6.48095 1.6957 -4
      vertex 6.60428 2.04472 -4
    endloop
  endfacet
  facet normal 0 0 1
    outer loop
      vertex 5.20058 2.03452 -4
      vertex 6.60428 2.04472 -4
      vertex 8.48618 7.01872 -4
    endloop
  endfacet
  facet normal 0 0 1
    outer loop
      vertex 6.32457 1.18774 -4
      vertex 5.20058 2.03452 -4
      vertex 5.64818 0.61042 -4
    endloop
  endfacet
  facet normal 0 0 1
    outer loop
      vertex 8.48618 7.01872 -4
      vertex 3.31883 7.01872 -4
      vertex 5.20058 2.03452 -4
    endloop
  endfacet
  facet normal 0 0 1
    outer loop
      vertex 24 10 -4
      vertex 3.31883 7.01872 -4
      vertex 8.48618 7.01872 -4
    endloop
  endfacet
  facet normal 0 0 1
    outer loop
      vertex 24 10 -4
      vertex 1.03013 7.01872 -4
      vertex 3.31883 7.01872 -4
    endloop
  endfacet
  facet normal 0 0 1
    outer loop
      vertex 1.03013 7.01872 -4
      vertex 0 -6.70312 -4
      vertex 1.03013 -6.70312 -4
    endloop
  endfacet
  facet normal 0 0 1
    outer loop
      vertex 1.03013 7.01872 -4
      vertex -5.1876 7.01872 -4
      vertex 0 -6.70312 -4
    endloop
  endfacet
  facet normal -0 0 1
    outer loop
      vertex -24 10 -4
      vertex 1.03013 7.01872 -4
      vertex 24 10 -4
    endloop
  endfacet
  facet normal 0 0 1
    outer loop
      vertex 1.03013 7.01872 -4
      vertex -24 10 -4
      vertex -5.1876 7.01872 -4
    endloop
  endfacet
  facet normal 0 0 1
    outer loop
      vertex -13.3299 -1.4163 -4
      vertex -7.395 7.01872 -4
      vertex -13.2466 0.223869 -4
    endloop
  endfacet
  facet normal 0 0 1
    outer loop
      vertex -7.395 7.01872 -4
      vertex -13.3292 1.83549 -4
      vertex -13.2466 0.223869 -4
    endloop
  endfacet
  facet normal 0 0 1
    outer loop
      vertex -7.395 7.01872 -4
      vertex -13.5771 3.24239 -4
      vertex -13.3292 1.83549 -4
    endloop
  endfacet
  facet normal 0 0 1
    outer loop
      vertex -7.395 7.01872 -4
      vertex -13.9903 4.44459 -4
      vertex -13.5771 3.24239 -4
    endloop
  endfacet
  facet normal 0 0 1
    outer loop
      vertex -7.395 7.01872 -4
      vertex -14.5688 5.44207 -4
      vertex -13.9903 4.44459 -4
    endloop
  endfacet
  facet normal 0 0 1
    outer loop
      vertex -7.395 7.01872 -4
      vertex -15.3082 6.2253 -4
      vertex -14.5688 5.44207 -4
    endloop
  endfacet
  facet normal 0 0 1
    outer loop
      vertex -7.395 7.01872 -4
      vertex -16.204 6.78476 -4
      vertex -15.3082 6.2253 -4
    endloop
  endfacet
  facet normal 0 0 1
    outer loop
      vertex -5.1876 7.01872 -4
      vertex -24 10 -4
      vertex -7.395 7.01872 -4
    endloop
  endfacet
  facet normal -0 -0 1
    outer loop
      vertex -17.2562 7.12043 -4
      vertex -7.395 7.01872 -4
      vertex -24 10 -4
    endloop
  endfacet
  facet normal 0 0 1
    outer loop
      vertex -7.395 7.01872 -4
      vertex -17.2562 7.12043 -4
      vertex -16.204 6.78476 -4
    endloop
  endfacet
  facet normal 0 0 1
    outer loop
      vertex -23.5787 1.85614 -4
      vertex -24 10 -4
      vertex -23.6626 0.223869 -4
    endloop
  endfacet
  facet normal 0 0 1
    outer loop
      vertex -23.3269 3.27416 -4
      vertex -24 10 -4
      vertex -23.5787 1.85614 -4
    endloop
  endfacet
  facet normal 0 0 1
    outer loop
      vertex -22.9073 4.47792 -4
      vertex -24 10 -4
      vertex -23.3269 3.27416 -4
    endloop
  endfacet
  facet normal 0 0 1
    outer loop
      vertex -22.3198 5.46742 -4
      vertex -24 10 -4
      vertex -22.9073 4.47792 -4
    endloop
  endfacet
  facet normal 0 0 1
    outer loop
      vertex -21.5753 6.23956 -4
      vertex -24 10 -4
      vertex -22.3198 5.46742 -4
    endloop
  endfacet
  facet normal 0 0 1
    outer loop
      vertex -20.6847 6.7911 -4
      vertex -24 10 -4
      vertex -21.5753 6.23956 -4
    endloop
  endfacet
  facet normal 0 0 1
    outer loop
      vertex -19.6479 7.12202 -4
      vertex -24 10 -4
      vertex -20.6847 6.7911 -4
    endloop
  endfacet
  facet normal 0 0 1
    outer loop
      vertex -18.4648 7.23232 -4
      vertex -24 10 -4
      vertex -19.6479 7.12202 -4
    endloop
  endfacet
  facet normal 0 0 1
    outer loop
      vertex -17.2562 7.12043 -4
      vertex -24 10 -4
      vertex -18.4648 7.23232 -4
    endloop
  endfacet
  facet normal 0 0 1
    outer loop
      vertex 24 10 -4
      vertex 22.0073 -6.70312 -4
      vertex 24 -10 -4
    endloop
  endfacet
  facet normal -0 0 1
    outer loop
      vertex 13.229 -6.70312 -4
      vertex 24 -10 -4
      vertex 22.0073 -6.70312 -4
    endloop
  endfacet
  facet normal 0 0 1
    outer loop
      vertex 13.229 -5.11627 -4
      vertex 10.8968 -6.70312 -4
      vertex 13.229 -6.70312 -4
    endloop
  endfacet
  facet normal -0 0 1
    outer loop
      vertex 10.8968 -6.70312 -4
      vertex 24 -10 -4
      vertex 13.229 -6.70312 -4
    endloop
  endfacet
  facet normal -0 0 1
    outer loop
      vertex 9.26933 -6.70312 -4
      vertex 24 -10 -4
      vertex 10.8968 -6.70312 -4
    endloop
  endfacet
  facet normal -0 0 1
    outer loop
      vertex 8.46319 2.58823 -4
      vertex 9.26933 2.12602 -4
      vertex 8.66918 3.20174 -4
    endloop
  endfacet
  facet normal -0 0 1
    outer loop
      vertex 8.33348 2.22772 -4
      vertex 9.26933 2.12602 -4
      vertex 8.46319 2.58823 -4
    endloop
  endfacet
  facet normal 0 0 1
    outer loop
      vertex 6.64508 -2.22742 -4
      vertex 9.26933 2.12602 -4
      vertex 8.33348 2.22772 -4
    endloop
  endfacet
  facet normal 0 0 1
    outer loop
      vertex 9.26933 2.12602 -4
      vertex 6.64508 -2.22742 -4
      vertex 9.26933 -6.70312 -4
    endloop
  endfacet
  facet normal -0 0 1
    outer loop
      vertex 5.25143 -2.22742 -4
      vertex 9.26933 -6.70312 -4
      vertex 6.64508 -2.22742 -4
    endloop
  endfacet
  facet normal -0 0 1
    outer loop
      vertex 2.66082 3.79111 -4
      vertex 3.18405 3.40005 -4
      vertex 2.9215 4.217 -4
    endloop
  endfacet
  facet normal -0 0 1
    outer loop
      vertex 2.67612 2.76878 -4
      vertex 3.40465 2.73695 -4
      vertex 3.18405 3.40005 -4
    endloop
  endfacet
  facet normal 0 0 1
    outer loop
      vertex 2.67803 2.12602 -4
      vertex 3.58328 2.22772 -4
      vertex 3.40465 2.73695 -4
    endloop
  endfacet
  facet normal -0 0 1
    outer loop
      vertex 2.67803 2.12602 -4
      vertex 5.25143 -2.22742 -4
      vertex 3.58328 2.22772 -4
    endloop
  endfacet
  facet normal 0 0 1
    outer loop
      vertex 2.67803 -6.70312 -4
      vertex 5.25143 -2.22742 -4
      vertex 2.67803 2.12602 -4
    endloop
  endfacet
  facet normal 0 0 1
    outer loop
      vertex 2.67803 -6.70312 -4
      vertex 9.26933 -6.70312 -4
      vertex 5.25143 -2.22742 -4
    endloop
  endfacet
  facet normal -0 0 1
    outer loop
      vertex 2.67803 -6.70312 -4
      vertex 24 -10 -4
      vertex 9.26933 -6.70312 -4
    endloop
  endfacet
  facet normal -0 0 1
    outer loop
      vertex 1.03013 -6.70312 -4
      vertex 24 -10 -4
      vertex 2.67803 -6.70312 -4
    endloop
  endfacet
  facet normal -0 0 1
    outer loop
      vertex 0 -6.70312 -4
      vertex 24 -10 -4
      vertex 1.03013 -6.70312 -4
    endloop
  endfacet
  facet normal 0 0 1
    outer loop
      vertex -24 -10 -4
      vertex 0 -6.70312 -4
      vertex -1.99364 -6.70312 -4
    endloop
  endfacet
  facet normal -0 0 1
    outer loop
      vertex -9.114 -2.81752 -4
      vertex -1.99364 -6.70312 -4
      vertex -3.3873 -2.81752 -4
    endloop
  endfacet
  facet normal 0 0 1
    outer loop
      vertex -10.5177 -6.70312 -4
      vertex -1.99364 -6.70312 -4
      vertex -9.114 -2.81752 -4
    endloop
  endfacet
  facet normal 0 0 1
    outer loop
      vertex -24 -10 -4
      vertex -1.99364 -6.70312 -4
      vertex -10.5177 -6.70312 -4
    endloop
  endfacet
  facet normal 0 0 1
    outer loop
      vertex -24 -10 -4
      vertex -10.5177 -6.70312 -4
      vertex -12.4911 -6.70312 -4
    endloop
  endfacet
  facet normal 0 0 1
    outer loop
      vertex -7.395 7.01872 -4
      vertex -13.3299 -1.4163 -4
      vertex -12.4911 -6.70312 -4
    endloop
  endfacet
  facet normal -0 0 1
    outer loop
      vertex -13.5797 -2.84797 -4
      vertex -12.4911 -6.70312 -4
      vertex -13.3299 -1.4163 -4
    endloop
  endfacet
  facet normal -0 0 1
    outer loop
      vertex -13.9961 -4.07114 -4
      vertex -12.4911 -6.70312 -4
      vertex -13.5797 -2.84797 -4
    endloop
  endfacet
  facet normal -0 0 1
    outer loop
      vertex -14.579 -5.08582 -4
      vertex -12.4911 -6.70312 -4
      vertex -13.9961 -4.07114 -4
    endloop
  endfacet
  facet normal -0 0 1
    outer loop
      vertex -15.3203 -5.88238 -4
      vertex -12.4911 -6.70312 -4
      vertex -14.579 -5.08582 -4
    endloop
  endfacet
  facet normal -0 0 1
    outer loop
      vertex -16.2117 -6.45135 -4
      vertex -12.4911 -6.70312 -4
      vertex -15.3203 -5.88238 -4
    endloop
  endfacet
  facet normal 0 0 1
    outer loop
      vertex -17.253 -6.79272 -4
      vertex -12.4911 -6.70312 -4
      vertex -16.2117 -6.45135 -4
    endloop
  endfacet
  facet normal 0 0 1
    outer loop
      vertex -12.4911 -6.70312 -4
      vertex -17.253 -6.79272 -4
      vertex -24 -10 -4
    endloop
  endfacet
  facet normal 0 0 1
    outer loop
      vertex -24 -10 -4
      vertex -17.253 -6.79272 -4
      vertex -18.4444 -6.90652 -4
    endloop
  endfacet
  facet normal 0 0 1
    outer loop
      vertex 0 -6.70312 -4
      vertex -24 -10 -4
      vertex 24 -10 -4
    endloop
  endfacet
  facet normal 0 0 1
    outer loop
      vertex -19.6323 -6.79082 -4
      vertex -24 -10 -4
      vertex -18.4444 -6.90652 -4
    endloop
  endfacet
  facet normal 0 0 1
    outer loop
      vertex -20.6733 -6.4437 -4
      vertex -24 -10 -4
      vertex -19.6323 -6.79082 -4
    endloop
  endfacet
  facet normal 0 0 1
    outer loop
      vertex -21.5675 -5.86517 -4
      vertex -24 -10 -4
      vertex -20.6733 -6.4437 -4
    endloop
  endfacet
  facet normal 0 0 1
    outer loop
      vertex -22.3148 -5.05522 -4
      vertex -24 -10 -4
      vertex -21.5675 -5.86517 -4
    endloop
  endfacet
  facet normal 0 0 1
    outer loop
      vertex -22.9045 -4.03104 -4
      vertex -24 -10 -4
      vertex -22.3148 -5.05522 -4
    endloop
  endfacet
  facet normal 0 0 1
    outer loop
      vertex -23.3256 -2.8098 -4
      vertex -24 -10 -4
      vertex -22.9045 -4.03104 -4
    endloop
  endfacet
  facet normal 0 0 1
    outer loop
      vertex -23.5783 -1.39149 -4
      vertex -24 -10 -4
      vertex -23.3256 -2.8098 -4
    endloop
  endfacet
  facet normal 0 0 1
    outer loop
      vertex -23.6626 0.223869 -4
      vertex -24 -10 -4
      vertex -23.5783 -1.39149 -4
    endloop
  endfacet
  facet normal 0 0 1
    outer loop
      vertex -24 -10 -4
      vertex -23.6626 0.223869 -4
      vertex -24 10 -4
    endloop
  endfacet
  facet normal 0 0 1
    outer loop
      vertex 3.40465 2.73695 -4
      vertex 2.67612 2.76878 -4
      vertex 2.67803 2.12602 -4
    endloop
  endfacet
  facet normal 0 0 1
    outer loop
      vertex 3.18405 3.40005 -4
      vertex 2.67038 3.32381 -4
      vertex 2.67612 2.76878 -4
    endloop
  endfacet
  facet normal 0 0 1
    outer loop
      vertex 3.18405 3.40005 -4
      vertex 2.66082 3.79111 -4
      vertex 2.67038 3.32381 -4
    endloop
  endfacet
  facet normal 0 0 1
    outer loop
      vertex 2.9215 4.217 -4
      vertex 2.64743 4.17067 -4
      vertex 2.66082 3.79111 -4
    endloop
  endfacet
  facet normal 0 -0 1
    outer loop
      vertex 2.64743 4.17067 -4
      vertex 2.9215 4.217 -4
      vertex 2.61698 5.18782 -4
    endloop
  endfacet
  facet normal 0 0 1
    outer loop
      vertex -6.8559 3.78412 -4
      vertex -6.14384 5.15722 -4
      vertex -6.26595 5.55397 -4
    endloop
  endfacet
  facet normal -0 0 1
    outer loop
      vertex -6.8559 3.78412 -4
      vertex -5.44199 3.00082 -4
      vertex -6.14384 5.15722 -4
    endloop
  endfacet
  facet normal 0 0 1
    outer loop
      vertex -8.61555 -1.30192 -4
      vertex -5.44199 3.00082 -4
      vertex -6.8559 3.78412 -4
    endloop
  endfacet
  facet normal 0 0 1
    outer loop
      vertex -5.44199 3.00082 -4
      vertex -8.61555 -1.30192 -4
      vertex -3.906 -1.30192 -4
    endloop
  endfacet
  facet normal 0 0 1
    outer loop
      vertex -21.6181 0.223869 -4
      vertex -15.2911 0.223869 -4
      vertex -15.4894 2.59582 -4
    endloop
  endfacet
  facet normal 0 0 1
    outer loop
      vertex -15.2911 0.223869 -4
      vertex -21.6181 0.223869 -4
      vertex -15.3413 -1.06538 -4
    endloop
  endfacet
  facet normal -0 -0 1
    outer loop
      vertex -21.571 -1.04887 -4
      vertex -15.3413 -1.06538 -4
      vertex -21.6181 0.223869 -4
    endloop
  endfacet
  facet normal 0 0 1
    outer loop
      vertex -21.421 2.59582 -4
      vertex -15.4894 2.59582 -4
      vertex -16.0845 4.29007 -4
    endloop
  endfacet
  facet normal 0 0 1
    outer loop
      vertex -15.3413 -1.06538 -4
      vertex -21.571 -1.04887 -4
      vertex -15.492 -2.18681 -4
    endloop
  endfacet
  facet normal -0 -0 1
    outer loop
      vertex -21.4299 -2.16142 -4
      vertex -15.492 -2.18681 -4
      vertex -21.571 -1.04887 -4
    endloop
  endfacet
  facet normal 0 0 1
    outer loop
      vertex -18.4648 5.64547 -4
      vertex -16.0845 4.29007 -4
      vertex -17.0763 5.30662 -4
    endloop
  endfacet
  facet normal 0 0 1
    outer loop
      vertex -15.492 -2.18681 -4
      vertex -21.4299 -2.16142 -4
      vertex -15.7431 -3.1404 -4
    endloop
  endfacet
  facet normal -0 -0 1
    outer loop
      vertex -21.1946 -3.11377 -4
      vertex -15.7431 -3.1404 -4
      vertex -21.4299 -2.16142 -4
    endloop
  endfacet
  facet normal 0 0 1
    outer loop
      vertex -15.7431 -3.1404 -4
      vertex -21.1946 -3.11377 -4
      vertex -16.0946 -3.92617 -4
    endloop
  endfacet
  facet normal 0 0 1
    outer loop
      vertex -16.0845 4.29007 -4
      vertex -18.4648 5.64547 -4
      vertex -20.8298 4.29007 -4
    endloop
  endfacet
  facet normal -0 -0 1
    outer loop
      vertex -20.8652 -3.90592 -4
      vertex -16.0946 -3.92617 -4
      vertex -21.1946 -3.11377 -4
    endloop
  endfacet
  facet normal 0 0 1
    outer loop
      vertex -20.8298 4.29007 -4
      vertex -18.4648 5.64547 -4
      vertex -19.8443 5.30662 -4
    endloop
  endfacet
  facet normal 0 -0 1
    outer loop
      vertex -18.4546 -5.32987 -4
      vertex -16.0946 -3.92617 -4
      vertex -20.8652 -3.90592 -4
    endloop
  endfacet
  facet normal 0 0 1
    outer loop
      vertex -16.0946 -3.92617 -4
      vertex -18.4546 -5.32987 -4
      vertex -16.5435 -4.54029 -4
    endloop
  endfacet
  facet normal 0 0 1
    outer loop
      vertex -16.0845 4.29007 -4
      vertex -20.8298 4.29007 -4
      vertex -21.421 2.59582 -4
    endloop
  endfacet
  facet normal 0 -0 1
    outer loop
      vertex -17.7235 -5.24214 -4
      vertex -16.5435 -4.54029 -4
      vertex -18.4546 -5.32987 -4
    endloop
  endfacet
  facet normal 0 0 1
    outer loop
      vertex -16.5435 -4.54029 -4
      vertex -17.7235 -5.24214 -4
      vertex -17.0865 -4.97894 -4
    endloop
  endfacet
  facet normal 0 0 1
    outer loop
      vertex -15.4894 2.59582 -4
      vertex -21.421 2.59582 -4
      vertex -21.6181 0.223869 -4
    endloop
  endfacet
  facet normal 0 0 1
    outer loop
      vertex -18.4546 -5.32987 -4
      vertex -20.8652 -3.90592 -4
      vertex -19.227 -5.24088 -4
    endloop
  endfacet
  facet normal 0 0 1
    outer loop
      vertex -19.227 -5.24088 -4
      vertex -20.4323 -4.5289 -4
      vertex -19.8862 -4.97388 -4
    endloop
  endfacet
  facet normal -0 -0 1
    outer loop
      vertex -20.4323 -4.5289 -4
      vertex -19.227 -5.24088 -4
      vertex -20.8652 -3.90592 -4
    endloop
  endfacet
  facet normal 1 -0 0
    outer loop
      vertex 24 -10 -4
      vertex 24 10 -14
      vertex 24 10 -4
    endloop
  endfacet
  facet normal 1 0 0
    outer loop
      vertex 24 10 -14
      vertex 24 -10 -4
      vertex 24 -10 -14
    endloop
  endfacet
  facet normal 0 1 -0
    outer loop
      vertex 24 10 -14
      vertex -24 10 -4
      vertex 24 10 -4
    endloop
  endfacet
  facet normal 0 1 0
    outer loop
      vertex -24 10 -4
      vertex 24 10 -14
      vertex -24 10 -14
    endloop
  endfacet
  facet normal 0 -1 0
    outer loop
      vertex -24 -10 -14
      vertex 24 -10 -4
      vertex -24 -10 -4
    endloop
  endfacet
  facet normal 0 -1 -0
    outer loop
      vertex 24 -10 -4
      vertex -24 -10 -14
      vertex 24 -10 -14
    endloop
  endfacet
endsolid OpenSCAD_Model
