solid OpenSCAD_Model
  facet normal 0 0 1
    outer loop
      vertex 3.02246 0.223869 0
      vertex 5.06696 0.223869 0
      vertex 4.98432 1.83549 0
    endloop
  endfacet
  facet normal -0 0 1
    outer loop
      vertex 2.8241 2.59582 0
      vertex 4.98432 1.83549 0
      vertex 4.7364 3.24239 0
    endloop
  endfacet
  facet normal 0 0 1
    outer loop
      vertex 2.97224 -1.06538 0
      vertex 5.06696 0.223869 0
      vertex 3.02246 0.223869 0
    endloop
  endfacet
  facet normal 0 0 1
    outer loop
      vertex 2.8241 2.59582 0
      vertex 4.7364 3.24239 0
      vertex 4.3232 4.44459 0
    endloop
  endfacet
  facet normal 0 0 1
    outer loop
      vertex 5.06696 0.223869 0
      vertex 2.97224 -1.06538 0
      vertex 4.98369 -1.4163 0
    endloop
  endfacet
  facet normal 0 0 1
    outer loop
      vertex 2.22903 4.29007 0
      vertex 4.3232 4.44459 0
      vertex 3.74471 5.44207 0
    endloop
  endfacet
  facet normal 0 0 1
    outer loop
      vertex 2.82158 -2.18681 0
      vertex 4.98369 -1.4163 0
      vertex 2.97224 -1.06538 0
    endloop
  endfacet
  facet normal 0 0 1
    outer loop
      vertex 4.98369 -1.4163 0
      vertex 2.82158 -2.18681 0
      vertex 4.73385 -2.84797 0
    endloop
  endfacet
  facet normal 0 0 1
    outer loop
      vertex 2.22903 4.29007 0
      vertex 3.74471 5.44207 0
      vertex 3.00532 6.2253 0
    endloop
  endfacet
  facet normal 0 0 1
    outer loop
      vertex 4.98432 1.83549 0
      vertex 2.8241 2.59582 0
      vertex 3.02246 0.223869 0
    endloop
  endfacet
  facet normal 0 0 1
    outer loop
      vertex 4.3232 4.44459 0
      vertex 2.22903 4.29007 0
      vertex 2.8241 2.59582 0
    endloop
  endfacet
  facet normal 0 0 1
    outer loop
      vertex 1.23726 5.30662 0
      vertex 3.00532 6.2253 0
      vertex 2.10953 6.78476 0
    endloop
  endfacet
  facet normal 0 0 1
    outer loop
      vertex 3.00532 6.2253 0
      vertex 1.23726 5.30662 0
      vertex 2.22903 4.29007 0
    endloop
  endfacet
  facet normal 0 0 1
    outer loop
      vertex 1.05734 7.12043 0
      vertex 1.23726 5.30662 0
      vertex 2.10953 6.78476 0
    endloop
  endfacet
  facet normal 0 0 1
    outer loop
      vertex -0.15123 5.64547 0
      vertex 1.05734 7.12043 0
      vertex -0.15123 7.23232 0
    endloop
  endfacet
  facet normal 0 0 1
    outer loop
      vertex 1.05734 7.12043 0
      vertex -0.15123 5.64547 0
      vertex 1.23726 5.30662 0
    endloop
  endfacet
  facet normal -0 0 1
    outer loop
      vertex -1.3343 7.12202 0
      vertex -0.15123 5.64547 0
      vertex -0.15123 7.23232 0
    endloop
  endfacet
  facet normal 0 0 1
    outer loop
      vertex -1.3343 7.12202 0
      vertex -1.5308 5.30662 0
      vertex -0.15123 5.64547 0
    endloop
  endfacet
  facet normal -0 0 1
    outer loop
      vertex -2.37115 6.7911 0
      vertex -1.5308 5.30662 0
      vertex -1.3343 7.12202 0
    endloop
  endfacet
  facet normal -0 0 1
    outer loop
      vertex -3.2618 6.23956 0
      vertex -1.5308 5.30662 0
      vertex -2.37115 6.7911 0
    endloop
  endfacet
  facet normal 0 0 1
    outer loop
      vertex -1.5308 5.30662 0
      vertex -3.2618 6.23956 0
      vertex -2.5162 4.29007 0
    endloop
  endfacet
  facet normal -0 0 1
    outer loop
      vertex -4.00623 5.46742 0
      vertex -2.5162 4.29007 0
      vertex -3.2618 6.23956 0
    endloop
  endfacet
  facet normal -0 0 1
    outer loop
      vertex -4.5937 4.47792 0
      vertex -2.5162 4.29007 0
      vertex -4.00623 5.46742 0
    endloop
  endfacet
  facet normal 0 0 1
    outer loop
      vertex -2.5162 4.29007 0
      vertex -4.5937 4.47792 0
      vertex -3.10744 2.59582 0
    endloop
  endfacet
  facet normal -0 0 1
    outer loop
      vertex -5.01333 3.27416 0
      vertex -3.10744 2.59582 0
      vertex -4.5937 4.47792 0
    endloop
  endfacet
  facet normal 0 -0 1
    outer loop
      vertex -5.26479 -1.39149 0
      vertex -3.30453 0.223869 0
      vertex -5.34903 0.223869 0
    endloop
  endfacet
  facet normal 0 0 1
    outer loop
      vertex -5.26511 1.85614 0
      vertex -3.10744 2.59582 0
      vertex -5.01333 3.27416 0
    endloop
  endfacet
  facet normal 0 -0 1
    outer loop
      vertex -5.01209 -2.8098 0
      vertex -3.30453 0.223869 0
      vertex -5.26479 -1.39149 0
    endloop
  endfacet
  facet normal 0 0 1
    outer loop
      vertex -3.10744 2.59582 0
      vertex -5.26511 1.85614 0
      vertex -3.30453 0.223869 0
    endloop
  endfacet
  facet normal 0 -0 1
    outer loop
      vertex -4.59092 -4.03104 0
      vertex -3.30453 0.223869 0
      vertex -5.01209 -2.8098 0
    endloop
  endfacet
  facet normal 0 0 1
    outer loop
      vertex -3.30453 0.223869 0
      vertex -5.26511 1.85614 0
      vertex -5.34903 0.223869 0
    endloop
  endfacet
  facet normal 0 0 1
    outer loop
      vertex -3.30453 0.223869 0
      vertex -4.59092 -4.03104 0
      vertex -4.00128 -5.05522 0
    endloop
  endfacet
  facet normal 0 0 1
    outer loop
      vertex 2.57047 -3.1404 0
      vertex 4.73385 -2.84797 0
      vertex 2.82158 -2.18681 0
    endloop
  endfacet
  facet normal 0 0 1
    outer loop
      vertex 4.73385 -2.84797 0
      vertex 2.57047 -3.1404 0
      vertex 4.31746 -4.07114 0
    endloop
  endfacet
  facet normal -0 0 1
    outer loop
      vertex 2.21891 -3.92617 0
      vertex 4.31746 -4.07114 0
      vertex 2.57047 -3.1404 0
    endloop
  endfacet
  facet normal 0 0 1
    outer loop
      vertex 4.31746 -4.07114 0
      vertex 2.21891 -3.92617 0
      vertex 3.73451 -5.08582 0
    endloop
  endfacet
  facet normal -0 0 1
    outer loop
      vertex 1.77003 -4.54029 0
      vertex 3.73451 -5.08582 0
      vertex 2.21891 -3.92617 0
    endloop
  endfacet
  facet normal 0 0 1
    outer loop
      vertex 3.73451 -5.08582 0
      vertex 1.77003 -4.54029 0
      vertex 2.9932 -5.88238 0
    endloop
  endfacet
  facet normal 0 0 1
    outer loop
      vertex 2.9932 -5.88238 0
      vertex 1.77003 -4.54029 0
      vertex 2.10188 -6.45135 0
    endloop
  endfacet
  facet normal -0 0 1
    outer loop
      vertex 1.22707 -4.97894 0
      vertex 2.10188 -6.45135 0
      vertex 1.77003 -4.54029 0
    endloop
  endfacet
  facet normal 0 0 1
    outer loop
      vertex 1.22707 -4.97894 0
      vertex 1.06053 -6.79272 0
      vertex 2.10188 -6.45135 0
    endloop
  endfacet
  facet normal -0 0 1
    outer loop
      vertex 0.59005 -5.24214 0
      vertex 1.06053 -6.79272 0
      vertex 1.22707 -4.97894 0
    endloop
  endfacet
  facet normal 0 0 1
    outer loop
      vertex 0.59005 -5.24214 0
      vertex -0.130829 -6.90652 0
      vertex 1.06053 -6.79272 0
    endloop
  endfacet
  facet normal -0 0 1
    outer loop
      vertex -0.141029 -5.32987 0
      vertex -0.130829 -6.90652 0
      vertex 0.59005 -5.24214 0
    endloop
  endfacet
  facet normal 0 0 1
    outer loop
      vertex -0.913429 -5.24088 0
      vertex -0.130829 -6.90652 0
      vertex -0.141029 -5.32987 0
    endloop
  endfacet
  facet normal 0 0 1
    outer loop
      vertex -0.913429 -5.24088 0
      vertex -1.31875 -6.79082 0
      vertex -0.130829 -6.90652 0
    endloop
  endfacet
  facet normal 0 0 1
    outer loop
      vertex -1.57267 -4.97388 0
      vertex -1.31875 -6.79082 0
      vertex -0.913429 -5.24088 0
    endloop
  endfacet
  facet normal 0 0 1
    outer loop
      vertex -3.25397 -5.86517 0
      vertex -1.57267 -4.97388 0
      vertex -2.11875 -4.5289 0
    endloop
  endfacet
  facet normal 0 0 1
    outer loop
      vertex -1.57267 -4.97388 0
      vertex -2.35979 -6.4437 0
      vertex -1.31875 -6.79082 0
    endloop
  endfacet
  facet normal 0 0 1
    outer loop
      vertex -4.00128 -5.05522 0
      vertex -2.11875 -4.5289 0
      vertex -2.55168 -3.90592 0
    endloop
  endfacet
  facet normal 0 0 1
    outer loop
      vertex -4.00128 -5.05522 0
      vertex -2.55168 -3.90592 0
      vertex -2.88105 -3.11377 0
    endloop
  endfacet
  facet normal 0 0 1
    outer loop
      vertex -4.00128 -5.05522 0
      vertex -2.88105 -3.11377 0
      vertex -3.11632 -2.16142 0
    endloop
  endfacet
  facet normal 0 0 1
    outer loop
      vertex -1.57267 -4.97388 0
      vertex -3.25397 -5.86517 0
      vertex -2.35979 -6.4437 0
    endloop
  endfacet
  facet normal 0 0 1
    outer loop
      vertex -4.00128 -5.05522 0
      vertex -3.11632 -2.16142 0
      vertex -3.25748 -1.04887 0
    endloop
  endfacet
  facet normal 0 0 1
    outer loop
      vertex -4.00128 -5.05522 0
      vertex -3.25748 -1.04887 0
      vertex -3.30453 0.223869 0
    endloop
  endfacet
  facet normal 0 0 1
    outer loop
      vertex -2.11875 -4.5289 0
      vertex -4.00128 -5.05522 0
      vertex -3.25397 -5.86517 0
    endloop
  endfacet
  facet normal 0 0 1
    outer loop
      vertex 13.9599 -5.11627 0
      vertex 15.9027 7.01872 0
      vertex 13.9599 7.01872 0
    endloop
  endfacet
  facet normal 0 0 1
    outer loop
      vertex 15.9027 7.01872 0
      vertex 13.9599 -5.11627 0
      vertex 15.9027 -6.70312 0
    endloop
  endfacet
  facet normal 0 0 1
    outer loop
      vertex 7.12444 -6.70312 0
      vertex 13.9599 -5.11627 0
      vertex 7.12444 -5.11627 0
    endloop
  endfacet
  facet normal 0 0 1
    outer loop
      vertex 13.9599 -5.11627 0
      vertex 7.12444 -6.70312 0
      vertex 15.9027 -6.70312 0
    endloop
  endfacet
  facet normal 0 0 1
    outer loop
      vertex -10.4581 -5.11627 0
      vertex -8.51531 7.01872 0
      vertex -10.4581 7.01872 0
    endloop
  endfacet
  facet normal 0 0 1
    outer loop
      vertex -8.51531 7.01872 0
      vertex -10.4581 -5.11627 0
      vertex -8.51531 -6.70312 0
    endloop
  endfacet
  facet normal 0 0 1
    outer loop
      vertex -17.2936 -6.70312 0
      vertex -10.4581 -5.11627 0
      vertex -17.2936 -5.11627 0
    endloop
  endfacet
  facet normal 0 0 1
    outer loop
      vertex -10.4581 -5.11627 0
      vertex -17.2936 -6.70312 0
      vertex -8.51531 -6.70312 0
    endloop
  endfacet
  facet normal -0.316315 -0.948654 0
    outer loop
      vertex -2.35979 -6.4437 -4
      vertex -1.31875 -6.79082 0
      vertex -2.35979 -6.4437 0
    endloop
  endfacet
  facet normal -0.316315 -0.948654 -0
    outer loop
      vertex -1.31875 -6.79082 0
      vertex -2.35979 -6.4437 -4
      vertex -1.31875 -6.79082 -4
    endloop
  endfacet
  facet normal -0.543214 -0.839595 0
    outer loop
      vertex -3.25397 -5.86517 -4
      vertex -2.35979 -6.4437 0
      vertex -3.25397 -5.86517 0
    endloop
  endfacet
  facet normal -0.543214 -0.839595 -0
    outer loop
      vertex -2.35979 -6.4437 0
      vertex -3.25397 -5.86517 -4
      vertex -2.35979 -6.4437 -4
    endloop
  endfacet
  facet normal -0.734955 -0.678115 0
    outer loop
      vertex -3.25397 -5.86517 -4
      vertex -4.00128 -5.05522 0
      vertex -4.00128 -5.05522 -4
    endloop
  endfacet
  facet normal -0.734955 -0.678115 0
    outer loop
      vertex -4.00128 -5.05522 0
      vertex -3.25397 -5.86517 -4
      vertex -3.25397 -5.86517 0
    endloop
  endfacet
  facet normal -0.866637 -0.498939 0
    outer loop
      vertex -4.00128 -5.05522 -4
      vertex -4.59092 -4.03104 0
      vertex -4.59092 -4.03104 -4
    endloop
  endfacet
  facet normal -0.866637 -0.498939 0
    outer loop
      vertex -4.59092 -4.03104 0
      vertex -4.00128 -5.05522 -4
      vertex -4.00128 -5.05522 0
    endloop
  endfacet
  facet normal -0.94536 -0.326027 0
    outer loop
      vertex -4.59092 -4.03104 -4
      vertex -5.01209 -2.8098 0
      vertex -5.01209 -2.8098 -4
    endloop
  endfacet
  facet normal -0.94536 -0.326027 0
    outer loop
      vertex -5.01209 -2.8098 0
      vertex -4.59092 -4.03104 -4
      vertex -4.59092 -4.03104 0
    endloop
  endfacet
  facet normal -0.984496 -0.175407 0
    outer loop
      vertex -5.01209 -2.8098 -4
      vertex -5.26479 -1.39149 0
      vertex -5.26479 -1.39149 -4
    endloop
  endfacet
  facet normal -0.984496 -0.175407 0
    outer loop
      vertex -5.26479 -1.39149 0
      vertex -5.01209 -2.8098 -4
      vertex -5.01209 -2.8098 0
    endloop
  endfacet
  facet normal -0.998643 -0.0520786 0
    outer loop
      vertex -5.26479 -1.39149 -4
      vertex -5.34903 0.223869 0
      vertex -5.34903 0.223869 -4
    endloop
  endfacet
  facet normal -0.998643 -0.0520786 0
    outer loop
      vertex -5.34903 0.223869 0
      vertex -5.26479 -1.39149 -4
      vertex -5.26479 -1.39149 0
    endloop
  endfacet
  facet normal -0.998681 0.0513452 0
    outer loop
      vertex -5.34903 0.223869 -4
      vertex -5.26511 1.85614 0
      vertex -5.26511 1.85614 -4
    endloop
  endfacet
  facet normal -0.998681 0.0513452 0
    outer loop
      vertex -5.26511 1.85614 0
      vertex -5.34903 0.223869 -4
      vertex -5.34903 0.223869 0
    endloop
  endfacet
  facet normal -0.9846 0.174823 0
    outer loop
      vertex -5.26511 1.85614 -4
      vertex -5.01333 3.27416 0
      vertex -5.01333 3.27416 -4
    endloop
  endfacet
  facet normal -0.9846 0.174823 0
    outer loop
      vertex -5.01333 3.27416 0
      vertex -5.26511 1.85614 -4
      vertex -5.26511 1.85614 0
    endloop
  endfacet
  facet normal -0.94427 0.329172 0
    outer loop
      vertex -5.01333 3.27416 -4
      vertex -4.5937 4.47792 0
      vertex -4.5937 4.47792 -4
    endloop
  endfacet
  facet normal -0.94427 0.329172 0
    outer loop
      vertex -4.5937 4.47792 0
      vertex -5.01333 3.27416 -4
      vertex -5.01333 3.27416 0
    endloop
  endfacet
  facet normal -0.859872 0.510509 0
    outer loop
      vertex -4.5937 4.47792 -4
      vertex -4.00623 5.46742 0
      vertex -4.00623 5.46742 -4
    endloop
  endfacet
  facet normal -0.859872 0.510509 0
    outer loop
      vertex -4.00623 5.46742 0
      vertex -4.5937 4.47792 -4
      vertex -4.5937 4.47792 0
    endloop
  endfacet
  facet normal -0.719907 0.694071 0
    outer loop
      vertex -4.00623 5.46742 -4
      vertex -3.2618 6.23956 0
      vertex -3.2618 6.23956 -4
    endloop
  endfacet
  facet normal -0.719907 0.694071 0
    outer loop
      vertex -3.2618 6.23956 0
      vertex -4.00623 5.46742 -4
      vertex -4.00623 5.46742 0
    endloop
  endfacet
  facet normal -0.526482 0.850186 0
    outer loop
      vertex -2.37115 6.7911 -4
      vertex -3.2618 6.23956 0
      vertex -2.37115 6.7911 0
    endloop
  endfacet
  facet normal -0.526482 0.850186 0
    outer loop
      vertex -3.2618 6.23956 0
      vertex -2.37115 6.7911 -4
      vertex -3.2618 6.23956 -4
    endloop
  endfacet
  facet normal -0.304049 0.952656 0
    outer loop
      vertex -1.3343 7.12202 -4
      vertex -2.37115 6.7911 0
      vertex -1.3343 7.12202 0
    endloop
  endfacet
  facet normal -0.304049 0.952656 0
    outer loop
      vertex -2.37115 6.7911 0
      vertex -1.3343 7.12202 -4
      vertex -2.37115 6.7911 -4
    endloop
  endfacet
  facet normal -0.0928294 0.995682 0
    outer loop
      vertex -0.15123 7.23232 -4
      vertex -1.3343 7.12202 0
      vertex -0.15123 7.23232 0
    endloop
  endfacet
  facet normal -0.0928294 0.995682 0
    outer loop
      vertex -1.3343 7.12202 0
      vertex -0.15123 7.23232 -4
      vertex -1.3343 7.12202 -4
    endloop
  endfacet
  facet normal 0.0921863 0.995742 -0
    outer loop
      vertex 1.05734 7.12043 -4
      vertex -0.15123 7.23232 0
      vertex 1.05734 7.12043 0
    endloop
  endfacet
  facet normal 0.0921863 0.995742 0
    outer loop
      vertex -0.15123 7.23232 0
      vertex 1.05734 7.12043 -4
      vertex -0.15123 7.23232 -4
    endloop
  endfacet
  facet normal 0.303929 0.952695 -0
    outer loop
      vertex 2.10953 6.78476 -4
      vertex 1.05734 7.12043 0
      vertex 2.10953 6.78476 0
    endloop
  endfacet
  facet normal 0.303929 0.952695 0
    outer loop
      vertex 1.05734 7.12043 0
      vertex 2.10953 6.78476 -4
      vertex 1.05734 7.12043 -4
    endloop
  endfacet
  facet normal 0.529721 0.848172 -0
    outer loop
      vertex 3.00532 6.2253 -4
      vertex 2.10953 6.78476 0
      vertex 3.00532 6.2253 0
    endloop
  endfacet
  facet normal 0.529721 0.848172 0
    outer loop
      vertex 2.10953 6.78476 0
      vertex 3.00532 6.2253 -4
      vertex 2.10953 6.78476 -4
    endloop
  endfacet
  facet normal 0.727165 0.686463 0
    outer loop
      vertex 3.74471 5.44207 0
      vertex 3.00532 6.2253 -4
      vertex 3.00532 6.2253 0
    endloop
  endfacet
  facet normal 0.727165 0.686463 0
    outer loop
      vertex 3.00532 6.2253 -4
      vertex 3.74471 5.44207 0
      vertex 3.74471 5.44207 -4
    endloop
  endfacet
  facet normal 0.865049 0.501687 0
    outer loop
      vertex 4.3232 4.44459 0
      vertex 3.74471 5.44207 -4
      vertex 3.74471 5.44207 0
    endloop
  endfacet
  facet normal 0.865049 0.501687 0
    outer loop
      vertex 3.74471 5.44207 -4
      vertex 4.3232 4.44459 0
      vertex 4.3232 4.44459 -4
    endloop
  endfacet
  facet normal 0.9457 0.32504 0
    outer loop
      vertex 4.7364 3.24239 0
      vertex 4.3232 4.44459 -4
      vertex 4.3232 4.44459 0
    endloop
  endfacet
  facet normal 0.9457 0.32504 0
    outer loop
      vertex 4.3232 4.44459 -4
      vertex 4.7364 3.24239 0
      vertex 4.7364 3.24239 -4
    endloop
  endfacet
  facet normal 0.984826 0.173543 0
    outer loop
      vertex 4.98432 1.83549 0
      vertex 4.7364 3.24239 -4
      vertex 4.7364 3.24239 0
    endloop
  endfacet
  facet normal 0.984826 0.173543 0
    outer loop
      vertex 4.7364 3.24239 -4
      vertex 4.98432 1.83549 0
      vertex 4.98432 1.83549 -4
    endloop
  endfacet
  facet normal 0.998688 0.0512103 0
    outer loop
      vertex 5.06696 0.223869 0
      vertex 4.98432 1.83549 -4
      vertex 4.98432 1.83549 0
    endloop
  endfacet
  facet normal 0.998688 0.0512103 0
    outer loop
      vertex 4.98432 1.83549 -4
      vertex 5.06696 0.223869 0
      vertex 5.06696 0.223869 -4
    endloop
  endfacet
  facet normal 0.998714 -0.0507039 0
    outer loop
      vertex 4.98369 -1.4163 0
      vertex 5.06696 0.223869 -4
      vertex 5.06696 0.223869 0
    endloop
  endfacet
  facet normal 0.998714 -0.0507039 0
    outer loop
      vertex 5.06696 0.223869 -4
      vertex 4.98369 -1.4163 0
      vertex 4.98369 -1.4163 -4
    endloop
  endfacet
  facet normal 0.985112 -0.171911 0
    outer loop
      vertex 4.73385 -2.84797 0
      vertex 4.98369 -1.4163 -4
      vertex 4.98369 -1.4163 0
    endloop
  endfacet
  facet normal 0.985112 -0.171911 0
    outer loop
      vertex 4.98369 -1.4163 -4
      vertex 4.73385 -2.84797 0
      vertex 4.73385 -2.84797 -4
    endloop
  endfacet
  facet normal 0.946652 -0.322258 0
    outer loop
      vertex 4.31746 -4.07114 0
      vertex 4.73385 -2.84797 -4
      vertex 4.73385 -2.84797 0
    endloop
  endfacet
  facet normal 0.946652 -0.322258 0
    outer loop
      vertex 4.73385 -2.84797 -4
      vertex 4.31746 -4.07114 0
      vertex 4.31746 -4.07114 -4
    endloop
  endfacet
  facet normal 0.867088 -0.498156 0
    outer loop
      vertex 3.73451 -5.08582 0
      vertex 4.31746 -4.07114 -4
      vertex 4.31746 -4.07114 0
    endloop
  endfacet
  facet normal 0.867088 -0.498156 0
    outer loop
      vertex 4.31746 -4.07114 -4
      vertex 3.73451 -5.08582 0
      vertex 3.73451 -5.08582 -4
    endloop
  endfacet
  facet normal 0.732038 -0.681264 0
    outer loop
      vertex 2.9932 -5.88238 0
      vertex 3.73451 -5.08582 -4
      vertex 3.73451 -5.08582 0
    endloop
  endfacet
  facet normal 0.732038 -0.681264 0
    outer loop
      vertex 3.73451 -5.08582 -4
      vertex 2.9932 -5.88238 0
      vertex 2.9932 -5.88238 -4
    endloop
  endfacet
  facet normal 0.538064 -0.842904 0
    outer loop
      vertex 2.10188 -6.45135 -4
      vertex 2.9932 -5.88238 0
      vertex 2.10188 -6.45135 0
    endloop
  endfacet
  facet normal 0.538064 -0.842904 0
    outer loop
      vertex 2.9932 -5.88238 0
      vertex 2.10188 -6.45135 -4
      vertex 2.9932 -5.88238 -4
    endloop
  endfacet
  facet normal 0.311504 -0.950245 0
    outer loop
      vertex 1.06053 -6.79272 -4
      vertex 2.10188 -6.45135 0
      vertex 1.06053 -6.79272 0
    endloop
  endfacet
  facet normal 0.311504 -0.950245 0
    outer loop
      vertex 2.10188 -6.45135 0
      vertex 1.06053 -6.79272 -4
      vertex 2.10188 -6.45135 -4
    endloop
  endfacet
  facet normal 0.0950883 -0.995469 0
    outer loop
      vertex -0.130829 -6.90652 -4
      vertex 1.06053 -6.79272 0
      vertex -0.130829 -6.90652 0
    endloop
  endfacet
  facet normal 0.0950883 -0.995469 0
    outer loop
      vertex 1.06053 -6.79272 0
      vertex -0.130829 -6.90652 -4
      vertex 1.06053 -6.79272 -4
    endloop
  endfacet
  facet normal -0.0969383 -0.99529 0
    outer loop
      vertex -1.31875 -6.79082 -4
      vertex -0.130829 -6.90652 0
      vertex -1.31875 -6.79082 0
    endloop
  endfacet
  facet normal -0.0969383 -0.99529 -0
    outer loop
      vertex -0.130829 -6.90652 0
      vertex -1.31875 -6.79082 -4
      vertex -0.130829 -6.90652 -4
    endloop
  endfacet
  facet normal -0.381863 0.924219 0
    outer loop
      vertex 1.22707 -4.97894 -4
      vertex 0.59005 -5.24214 0
      vertex 1.22707 -4.97894 0
    endloop
  endfacet
  facet normal -0.381863 0.924219 0
    outer loop
      vertex 0.59005 -5.24214 0
      vertex 1.22707 -4.97894 -4
      vertex 0.59005 -5.24214 -4
    endloop
  endfacet
  facet normal -0.628428 0.777867 0
    outer loop
      vertex 1.77003 -4.54029 -4
      vertex 1.22707 -4.97894 0
      vertex 1.77003 -4.54029 0
    endloop
  endfacet
  facet normal -0.628428 0.777867 0
    outer loop
      vertex 1.22707 -4.97894 0
      vertex 1.77003 -4.54029 -4
      vertex 1.22707 -4.97894 -4
    endloop
  endfacet
  facet normal -0.807328 0.590102 0
    outer loop
      vertex 1.77003 -4.54029 -4
      vertex 2.21891 -3.92617 0
      vertex 2.21891 -3.92617 -4
    endloop
  endfacet
  facet normal -0.807328 0.590102 0
    outer loop
      vertex 2.21891 -3.92617 0
      vertex 1.77003 -4.54029 -4
      vertex 1.77003 -4.54029 0
    endloop
  endfacet
  facet normal -0.912805 0.408396 0
    outer loop
      vertex 2.21891 -3.92617 -4
      vertex 2.57047 -3.1404 0
      vertex 2.57047 -3.1404 -4
    endloop
  endfacet
  facet normal -0.912805 0.408396 0
    outer loop
      vertex 2.57047 -3.1404 0
      vertex 2.21891 -3.92617 -4
      vertex 2.21891 -3.92617 0
    endloop
  endfacet
  facet normal -0.967033 0.25465 0
    outer loop
      vertex 2.57047 -3.1404 -4
      vertex 2.82158 -2.18681 0
      vertex 2.82158 -2.18681 -4
    endloop
  endfacet
  facet normal -0.967033 0.25465 0
    outer loop
      vertex 2.82158 -2.18681 0
      vertex 2.57047 -3.1404 -4
      vertex 2.57047 -3.1404 0
    endloop
  endfacet
  facet normal -0.991096 0.13315 0
    outer loop
      vertex 2.82158 -2.18681 -4
      vertex 2.97224 -1.06538 0
      vertex 2.97224 -1.06538 -4
    endloop
  endfacet
  facet normal -0.991096 0.13315 0
    outer loop
      vertex 2.97224 -1.06538 0
      vertex 2.82158 -2.18681 -4
      vertex 2.82158 -2.18681 0
    endloop
  endfacet
  facet normal -0.999242 0.0389234 0
    outer loop
      vertex 2.97224 -1.06538 -4
      vertex 3.02246 0.223869 0
      vertex 3.02246 0.223869 -4
    endloop
  endfacet
  facet normal -0.999242 0.0389234 0
    outer loop
      vertex 3.02246 0.223869 0
      vertex 2.97224 -1.06538 -4
      vertex 2.97224 -1.06538 0
    endloop
  endfacet
  facet normal -0.996521 -0.0833365 0
    outer loop
      vertex 3.02246 0.223869 -4
      vertex 2.8241 2.59582 0
      vertex 2.8241 2.59582 -4
    endloop
  endfacet
  facet normal -0.996521 -0.0833365 0
    outer loop
      vertex 2.8241 2.59582 0
      vertex 3.02246 0.223869 -4
      vertex 3.02246 0.223869 0
    endloop
  endfacet
  facet normal -0.943496 -0.331383 0
    outer loop
      vertex 2.8241 2.59582 -4
      vertex 2.22903 4.29007 0
      vertex 2.22903 4.29007 -4
    endloop
  endfacet
  facet normal -0.943496 -0.331383 0
    outer loop
      vertex 2.22903 4.29007 0
      vertex 2.8241 2.59582 -4
      vertex 2.8241 2.59582 0
    endloop
  endfacet
  facet normal -0.715777 -0.698329 0
    outer loop
      vertex 2.22903 4.29007 -4
      vertex 1.23726 5.30662 0
      vertex 1.23726 5.30662 -4
    endloop
  endfacet
  facet normal -0.715777 -0.698329 0
    outer loop
      vertex 1.23726 5.30662 0
      vertex 2.22903 4.29007 -4
      vertex 2.22903 4.29007 0
    endloop
  endfacet
  facet normal -0.237084 -0.971489 0
    outer loop
      vertex -0.15123 5.64547 -4
      vertex 1.23726 5.30662 0
      vertex -0.15123 5.64547 0
    endloop
  endfacet
  facet normal -0.237084 -0.971489 -0
    outer loop
      vertex 1.23726 5.30662 0
      vertex -0.15123 5.64547 -4
      vertex 1.23726 5.30662 -4
    endloop
  endfacet
  facet normal 0.23853 -0.971135 0
    outer loop
      vertex -1.5308 5.30662 -4
      vertex -0.15123 5.64547 0
      vertex -1.5308 5.30662 0
    endloop
  endfacet
  facet normal 0.23853 -0.971135 0
    outer loop
      vertex -0.15123 5.64547 0
      vertex -1.5308 5.30662 -4
      vertex -0.15123 5.64547 -4
    endloop
  endfacet
  facet normal 0.718022 -0.69602 0
    outer loop
      vertex -2.5162 4.29007 0
      vertex -1.5308 5.30662 -4
      vertex -1.5308 5.30662 0
    endloop
  endfacet
  facet normal 0.718022 -0.69602 0
    outer loop
      vertex -1.5308 5.30662 -4
      vertex -2.5162 4.29007 0
      vertex -2.5162 4.29007 -4
    endloop
  endfacet
  facet normal 0.944162 -0.329483 0
    outer loop
      vertex -3.10744 2.59582 0
      vertex -2.5162 4.29007 -4
      vertex -2.5162 4.29007 0
    endloop
  endfacet
  facet normal 0.944162 -0.329483 0
    outer loop
      vertex -2.5162 4.29007 -4
      vertex -3.10744 2.59582 0
      vertex -3.10744 2.59582 -4
    endloop
  endfacet
  facet normal 0.996566 -0.0828066 0
    outer loop
      vertex -3.30453 0.223869 0
      vertex -3.10744 2.59582 -4
      vertex -3.10744 2.59582 0
    endloop
  endfacet
  facet normal 0.996566 -0.0828066 0
    outer loop
      vertex -3.10744 2.59582 -4
      vertex -3.30453 0.223869 0
      vertex -3.30453 0.223869 -4
    endloop
  endfacet
  facet normal 0.999317 0.0369423 0
    outer loop
      vertex -3.25748 -1.04887 0
      vertex -3.30453 0.223869 -4
      vertex -3.30453 0.223869 0
    endloop
  endfacet
  facet normal 0.999317 0.0369423 0
    outer loop
      vertex -3.30453 0.223869 -4
      vertex -3.25748 -1.04887 0
      vertex -3.25748 -1.04887 -4
    endloop
  endfacet
  facet normal 0.992047 0.125871 0
    outer loop
      vertex -3.11632 -2.16142 0
      vertex -3.25748 -1.04887 -4
      vertex -3.25748 -1.04887 0
    endloop
  endfacet
  facet normal 0.992047 0.125871 0
    outer loop
      vertex -3.25748 -1.04887 -4
      vertex -3.11632 -2.16142 0
      vertex -3.11632 -2.16142 -4
    endloop
  endfacet
  facet normal 0.970815 0.239832 0
    outer loop
      vertex -2.88105 -3.11377 0
      vertex -3.11632 -2.16142 -4
      vertex -3.11632 -2.16142 0
    endloop
  endfacet
  facet normal 0.970815 0.239832 0
    outer loop
      vertex -3.11632 -2.16142 -4
      vertex -2.88105 -3.11377 0
      vertex -2.88105 -3.11377 -4
    endloop
  endfacet
  facet normal 0.923363 0.383927 0
    outer loop
      vertex -2.55168 -3.90592 0
      vertex -2.88105 -3.11377 -4
      vertex -2.88105 -3.11377 0
    endloop
  endfacet
  facet normal 0.923363 0.383927 0
    outer loop
      vertex -2.88105 -3.11377 -4
      vertex -2.55168 -3.90592 0
      vertex -2.55168 -3.90592 -4
    endloop
  endfacet
  facet normal 0.821182 0.570667 0
    outer loop
      vertex -2.11875 -4.5289 0
      vertex -2.55168 -3.90592 -4
      vertex -2.55168 -3.90592 0
    endloop
  endfacet
  facet normal 0.821182 0.570667 0
    outer loop
      vertex -2.55168 -3.90592 -4
      vertex -2.11875 -4.5289 0
      vertex -2.11875 -4.5289 -4
    endloop
  endfacet
  facet normal 0.631695 0.775217 -0
    outer loop
      vertex -1.57267 -4.97388 -4
      vertex -2.11875 -4.5289 0
      vertex -1.57267 -4.97388 0
    endloop
  endfacet
  facet normal 0.631695 0.775217 0
    outer loop
      vertex -2.11875 -4.5289 0
      vertex -1.57267 -4.97388 -4
      vertex -2.11875 -4.5289 -4
    endloop
  endfacet
  facet normal 0.375391 0.926866 -0
    outer loop
      vertex -0.913429 -5.24088 -4
      vertex -1.57267 -4.97388 0
      vertex -0.913429 -5.24088 0
    endloop
  endfacet
  facet normal 0.375391 0.926866 0
    outer loop
      vertex -1.57267 -4.97388 0
      vertex -0.913429 -5.24088 -4
      vertex -1.57267 -4.97388 -4
    endloop
  endfacet
  facet normal 0.114455 0.993428 -0
    outer loop
      vertex -0.141029 -5.32987 -4
      vertex -0.913429 -5.24088 0
      vertex -0.141029 -5.32987 0
    endloop
  endfacet
  facet normal 0.114455 0.993428 0
    outer loop
      vertex -0.913429 -5.24088 0
      vertex -0.141029 -5.32987 -4
      vertex -0.913429 -5.24088 -4
    endloop
  endfacet
  facet normal -0.119146 0.992877 0
    outer loop
      vertex 0.59005 -5.24214 -4
      vertex -0.141029 -5.32987 0
      vertex 0.59005 -5.24214 0
    endloop
  endfacet
  facet normal -0.119146 0.992877 0
    outer loop
      vertex -0.141029 -5.32987 0
      vertex 0.59005 -5.24214 -4
      vertex -0.141029 -5.32987 -4
    endloop
  endfacet
  facet normal 0 1 -0
    outer loop
      vertex 13.9599 -5.11627 -4
      vertex 7.12444 -5.11627 0
      vertex 13.9599 -5.11627 0
    endloop
  endfacet
  facet normal 0 1 0
    outer loop
      vertex 7.12444 -5.11627 0
      vertex 13.9599 -5.11627 -4
      vertex 7.12444 -5.11627 -4
    endloop
  endfacet
  facet normal -1 0 0
    outer loop
      vertex 13.9599 -5.11627 -4
      vertex 13.9599 7.01872 0
      vertex 13.9599 7.01872 -4
    endloop
  endfacet
  facet normal -1 -0 0
    outer loop
      vertex 13.9599 7.01872 0
      vertex 13.9599 -5.11627 -4
      vertex 13.9599 -5.11627 0
    endloop
  endfacet
  facet normal 0 1 -0
    outer loop
      vertex 15.9027 7.01872 -4
      vertex 13.9599 7.01872 0
      vertex 15.9027 7.01872 0
    endloop
  endfacet
  facet normal 0 1 0
    outer loop
      vertex 13.9599 7.01872 0
      vertex 15.9027 7.01872 -4
      vertex 13.9599 7.01872 -4
    endloop
  endfacet
  facet normal 1 -0 0
    outer loop
      vertex 15.9027 -6.70312 0
      vertex 15.9027 7.01872 -4
      vertex 15.9027 7.01872 0
    endloop
  endfacet
  facet normal 1 0 0
    outer loop
      vertex 15.9027 7.01872 -4
      vertex 15.9027 -6.70312 0
      vertex 15.9027 -6.70312 -4
    endloop
  endfacet
  facet normal 0 -1 0
    outer loop
      vertex 7.12444 -6.70312 -4
      vertex 15.9027 -6.70312 0
      vertex 7.12444 -6.70312 0
    endloop
  endfacet
  facet normal 0 -1 -0
    outer loop
      vertex 15.9027 -6.70312 0
      vertex 7.12444 -6.70312 -4
      vertex 15.9027 -6.70312 -4
    endloop
  endfacet
  facet normal -1 0 0
    outer loop
      vertex 7.12444 -6.70312 -4
      vertex 7.12444 -5.11627 0
      vertex 7.12444 -5.11627 -4
    endloop
  endfacet
  facet normal -1 -0 0
    outer loop
      vertex 7.12444 -5.11627 0
      vertex 7.12444 -6.70312 -4
      vertex 7.12444 -6.70312 0
    endloop
  endfacet
  facet normal 0 1 -0
    outer loop
      vertex -10.4581 -5.11627 -4
      vertex -17.2936 -5.11627 0
      vertex -10.4581 -5.11627 0
    endloop
  endfacet
  facet normal 0 1 0
    outer loop
      vertex -17.2936 -5.11627 0
      vertex -10.4581 -5.11627 -4
      vertex -17.2936 -5.11627 -4
    endloop
  endfacet
  facet normal -1 0 0
    outer loop
      vertex -10.4581 -5.11627 -4
      vertex -10.4581 7.01872 0
      vertex -10.4581 7.01872 -4
    endloop
  endfacet
  facet normal -1 -0 0
    outer loop
      vertex -10.4581 7.01872 0
      vertex -10.4581 -5.11627 -4
      vertex -10.4581 -5.11627 0
    endloop
  endfacet
  facet normal 0 1 -0
    outer loop
      vertex -8.51531 7.01872 -4
      vertex -10.4581 7.01872 0
      vertex -8.51531 7.01872 0
    endloop
  endfacet
  facet normal 0 1 0
    outer loop
      vertex -10.4581 7.01872 0
      vertex -8.51531 7.01872 -4
      vertex -10.4581 7.01872 -4
    endloop
  endfacet
  facet normal 1 -0 0
    outer loop
      vertex -8.51531 -6.70312 0
      vertex -8.51531 7.01872 -4
      vertex -8.51531 7.01872 0
    endloop
  endfacet
  facet normal 1 0 0
    outer loop
      vertex -8.51531 7.01872 -4
      vertex -8.51531 -6.70312 0
      vertex -8.51531 -6.70312 -4
    endloop
  endfacet
  facet normal 0 -1 0
    outer loop
      vertex -17.2936 -6.70312 -4
      vertex -8.51531 -6.70312 0
      vertex -17.2936 -6.70312 0
    endloop
  endfacet
  facet normal 0 -1 -0
    outer loop
      vertex -8.51531 -6.70312 0
      vertex -17.2936 -6.70312 -4
      vertex -8.51531 -6.70312 -4
    endloop
  endfacet
  facet normal -1 0 0
    outer loop
      vertex -17.2936 -6.70312 -4
      vertex -17.2936 -5.11627 0
      vertex -17.2936 -5.11627 -4
    endloop
  endfacet
  facet normal -1 -0 0
    outer loop
      vertex -17.2936 -5.11627 0
      vertex -17.2936 -6.70312 -4
      vertex -17.2936 -6.70312 0
    endloop
  endfacet
  facet normal -1 0 0
    outer loop
      vertex -18 -10 -14
      vertex -18 10 -4
      vertex -18 10 -14
    endloop
  endfacet
  facet normal -1 -0 0
    outer loop
      vertex -18 10 -4
      vertex -18 -10 -14
      vertex -18 -10 -4
    endloop
  endfacet
  facet normal 0 0 -1
    outer loop
      vertex -18 -10 -14
      vertex 18 10 -14
      vertex 18 -10 -14
    endloop
  endfacet
  facet normal -0 0 -1
    outer loop
      vertex 18 10 -14
      vertex -18 -10 -14
      vertex -18 10 -14
    endloop
  endfacet
  facet normal 0 0 1
    outer loop
      vertex 15.9027 -6.70312 -4
      vertex 18 10 -4
      vertex 15.9027 7.01872 -4
    endloop
  endfacet
  facet normal 0 0 1
    outer loop
      vertex 18 10 -4
      vertex 13.9599 7.01872 -4
      vertex 15.9027 7.01872 -4
    endloop
  endfacet
  facet normal -0 0 1
    outer loop
      vertex 5.06696 0.223869 -4
      vertex 13.9599 -5.11627 -4
      vertex 13.9599 7.01872 -4
    endloop
  endfacet
  facet normal -0 0 1
    outer loop
      vertex 4.98369 -1.4163 -4
      vertex 7.12444 -5.11627 -4
      vertex 5.06696 0.223869 -4
    endloop
  endfacet
  facet normal 0 0 1
    outer loop
      vertex 13.9599 -5.11627 -4
      vertex 5.06696 0.223869 -4
      vertex 7.12444 -5.11627 -4
    endloop
  endfacet
  facet normal 0 0 1
    outer loop
      vertex 13.9599 7.01872 -4
      vertex 4.98432 1.83549 -4
      vertex 5.06696 0.223869 -4
    endloop
  endfacet
  facet normal 0 0 1
    outer loop
      vertex 2.10953 6.78476 -4
      vertex 13.9599 7.01872 -4
      vertex 18 10 -4
    endloop
  endfacet
  facet normal 0 0 1
    outer loop
      vertex 13.9599 7.01872 -4
      vertex 4.7364 3.24239 -4
      vertex 4.98432 1.83549 -4
    endloop
  endfacet
  facet normal 0 0 1
    outer loop
      vertex 13.9599 7.01872 -4
      vertex 4.3232 4.44459 -4
      vertex 4.7364 3.24239 -4
    endloop
  endfacet
  facet normal 0 0 1
    outer loop
      vertex 13.9599 7.01872 -4
      vertex 3.74471 5.44207 -4
      vertex 4.3232 4.44459 -4
    endloop
  endfacet
  facet normal 0 0 1
    outer loop
      vertex 13.9599 7.01872 -4
      vertex 3.00532 6.2253 -4
      vertex 3.74471 5.44207 -4
    endloop
  endfacet
  facet normal 0 0 1
    outer loop
      vertex 13.9599 7.01872 -4
      vertex 2.10953 6.78476 -4
      vertex 3.00532 6.2253 -4
    endloop
  endfacet
  facet normal 0 0 1
    outer loop
      vertex 18 10 -4
      vertex 1.05734 7.12043 -4
      vertex 2.10953 6.78476 -4
    endloop
  endfacet
  facet normal 0 0 1
    outer loop
      vertex 18 10 -4
      vertex -0.15123 7.23232 -4
      vertex 1.05734 7.12043 -4
    endloop
  endfacet
  facet normal -0 0 1
    outer loop
      vertex -18 10 -4
      vertex -0.15123 7.23232 -4
      vertex 18 10 -4
    endloop
  endfacet
  facet normal 0 0 1
    outer loop
      vertex -5.26511 1.85614 -4
      vertex -8.51531 7.01872 -4
      vertex -5.34903 0.223869 -4
    endloop
  endfacet
  facet normal 0 0 1
    outer loop
      vertex -5.01333 3.27416 -4
      vertex -8.51531 7.01872 -4
      vertex -5.26511 1.85614 -4
    endloop
  endfacet
  facet normal 0 0 1
    outer loop
      vertex -4.5937 4.47792 -4
      vertex -8.51531 7.01872 -4
      vertex -5.01333 3.27416 -4
    endloop
  endfacet
  facet normal 0 0 1
    outer loop
      vertex -4.00623 5.46742 -4
      vertex -8.51531 7.01872 -4
      vertex -4.5937 4.47792 -4
    endloop
  endfacet
  facet normal 0 0 1
    outer loop
      vertex -3.2618 6.23956 -4
      vertex -8.51531 7.01872 -4
      vertex -4.00623 5.46742 -4
    endloop
  endfacet
  facet normal 0 0 1
    outer loop
      vertex -2.37115 6.7911 -4
      vertex -8.51531 7.01872 -4
      vertex -3.2618 6.23956 -4
    endloop
  endfacet
  facet normal 0 0 1
    outer loop
      vertex -1.3343 7.12202 -4
      vertex -8.51531 7.01872 -4
      vertex -2.37115 6.7911 -4
    endloop
  endfacet
  facet normal 0 0 1
    outer loop
      vertex -0.15123 7.23232 -4
      vertex -18 10 -4
      vertex -1.3343 7.12202 -4
    endloop
  endfacet
  facet normal 0 0 1
    outer loop
      vertex -1.3343 7.12202 -4
      vertex -18 10 -4
      vertex -8.51531 7.01872 -4
    endloop
  endfacet
  facet normal 0 0 1
    outer loop
      vertex -10.4581 7.01872 -4
      vertex -17.2936 -5.11627 -4
      vertex -10.4581 -5.11627 -4
    endloop
  endfacet
  facet normal 0 0 1
    outer loop
      vertex -18 -10 -4
      vertex -17.2936 -5.11627 -4
      vertex -18 10 -4
    endloop
  endfacet
  facet normal 0 0 1
    outer loop
      vertex -10.4581 7.01872 -4
      vertex -18 10 -4
      vertex -17.2936 -5.11627 -4
    endloop
  endfacet
  facet normal 0 0 1
    outer loop
      vertex -8.51531 7.01872 -4
      vertex -18 10 -4
      vertex -10.4581 7.01872 -4
    endloop
  endfacet
  facet normal 0 0 1
    outer loop
      vertex 18 10 -4
      vertex 15.9027 -6.70312 -4
      vertex 18 -10 -4
    endloop
  endfacet
  facet normal -0 0 1
    outer loop
      vertex 7.12444 -6.70312 -4
      vertex 18 -10 -4
      vertex 15.9027 -6.70312 -4
    endloop
  endfacet
  facet normal -0 0 1
    outer loop
      vertex 4.73385 -2.84797 -4
      vertex 7.12444 -5.11627 -4
      vertex 4.98369 -1.4163 -4
    endloop
  endfacet
  facet normal -0 0 1
    outer loop
      vertex 4.31746 -4.07114 -4
      vertex 7.12444 -5.11627 -4
      vertex 4.73385 -2.84797 -4
    endloop
  endfacet
  facet normal -0 0 1
    outer loop
      vertex 3.73451 -5.08582 -4
      vertex 7.12444 -5.11627 -4
      vertex 4.31746 -4.07114 -4
    endloop
  endfacet
  facet normal 0 0 1
    outer loop
      vertex 7.12444 -5.11627 -4
      vertex 3.73451 -5.08582 -4
      vertex 7.12444 -6.70312 -4
    endloop
  endfacet
  facet normal -0 0 1
    outer loop
      vertex 2.9932 -5.88238 -4
      vertex 7.12444 -6.70312 -4
      vertex 3.73451 -5.08582 -4
    endloop
  endfacet
  facet normal -0 0 1
    outer loop
      vertex 2.10188 -6.45135 -4
      vertex 7.12444 -6.70312 -4
      vertex 2.9932 -5.88238 -4
    endloop
  endfacet
  facet normal 0 0 1
    outer loop
      vertex 1.06053 -6.79272 -4
      vertex 7.12444 -6.70312 -4
      vertex 2.10188 -6.45135 -4
    endloop
  endfacet
  facet normal 0 0 1
    outer loop
      vertex 7.12444 -6.70312 -4
      vertex 1.06053 -6.79272 -4
      vertex 18 -10 -4
    endloop
  endfacet
  facet normal -0 0 1
    outer loop
      vertex -0.130829 -6.90652 -4
      vertex 18 -10 -4
      vertex 1.06053 -6.79272 -4
    endloop
  endfacet
  facet normal 0 0 1
    outer loop
      vertex -18 -10 -4
      vertex -0.130829 -6.90652 -4
      vertex -1.31875 -6.79082 -4
    endloop
  endfacet
  facet normal 0 0 1
    outer loop
      vertex -8.51531 -6.70312 -4
      vertex -5.34903 0.223869 -4
      vertex -8.51531 7.01872 -4
    endloop
  endfacet
  facet normal 0 0 1
    outer loop
      vertex -5.34903 0.223869 -4
      vertex -8.51531 -6.70312 -4
      vertex -5.26479 -1.39149 -4
    endloop
  endfacet
  facet normal 0 0 1
    outer loop
      vertex -5.26479 -1.39149 -4
      vertex -8.51531 -6.70312 -4
      vertex -5.01209 -2.8098 -4
    endloop
  endfacet
  facet normal 0 0 1
    outer loop
      vertex -5.01209 -2.8098 -4
      vertex -8.51531 -6.70312 -4
      vertex -4.59092 -4.03104 -4
    endloop
  endfacet
  facet normal 0 0 1
    outer loop
      vertex -8.51531 -6.70312 -4
      vertex -4.00128 -5.05522 -4
      vertex -4.59092 -4.03104 -4
    endloop
  endfacet
  facet normal 0 0 1
    outer loop
      vertex -8.51531 -6.70312 -4
      vertex -3.25397 -5.86517 -4
      vertex -4.00128 -5.05522 -4
    endloop
  endfacet
  facet normal 0 0 1
    outer loop
      vertex -8.51531 -6.70312 -4
      vertex -2.35979 -6.4437 -4
      vertex -3.25397 -5.86517 -4
    endloop
  endfacet
  facet normal -0 0 1
    outer loop
      vertex -8.51531 -6.70312 -4
      vertex -1.31875 -6.79082 -4
      vertex -2.35979 -6.4437 -4
    endloop
  endfacet
  facet normal 0 0 1
    outer loop
      vertex -18 -10 -4
      vertex -1.31875 -6.79082 -4
      vertex -8.51531 -6.70312 -4
    endloop
  endfacet
  facet normal 0 0 1
    outer loop
      vertex -18 -10 -4
      vertex -8.51531 -6.70312 -4
      vertex -17.2936 -6.70312 -4
    endloop
  endfacet
  facet normal 0 0 1
    outer loop
      vertex -0.130829 -6.90652 -4
      vertex -18 -10 -4
      vertex 18 -10 -4
    endloop
  endfacet
  facet normal 0 0 1
    outer loop
      vertex -17.2936 -5.11627 -4
      vertex -18 -10 -4
      vertex -17.2936 -6.70312 -4
    endloop
  endfacet
  facet normal 0 0 1
    outer loop
      vertex -3.30453 0.223869 -4
      vertex 3.02246 0.223869 -4
      vertex 2.8241 2.59582 -4
    endloop
  endfacet
  facet normal 0 0 1
    outer loop
      vertex 3.02246 0.223869 -4
      vertex -3.30453 0.223869 -4
      vertex 2.97224 -1.06538 -4
    endloop
  endfacet
  facet normal -0 -0 1
    outer loop
      vertex -3.25748 -1.04887 -4
      vertex 2.97224 -1.06538 -4
      vertex -3.30453 0.223869 -4
    endloop
  endfacet
  facet normal 0 0 1
    outer loop
      vertex -3.10744 2.59582 -4
      vertex 2.8241 2.59582 -4
      vertex 2.22903 4.29007 -4
    endloop
  endfacet
  facet normal 0 0 1
    outer loop
      vertex 2.97224 -1.06538 -4
      vertex -3.25748 -1.04887 -4
      vertex 2.82158 -2.18681 -4
    endloop
  endfacet
  facet normal -0 -0 1
    outer loop
      vertex -3.11632 -2.16142 -4
      vertex 2.82158 -2.18681 -4
      vertex -3.25748 -1.04887 -4
    endloop
  endfacet
  facet normal 0 0 1
    outer loop
      vertex -0.15123 5.64547 -4
      vertex 2.22903 4.29007 -4
      vertex 1.23726 5.30662 -4
    endloop
  endfacet
  facet normal 0 0 1
    outer loop
      vertex 2.82158 -2.18681 -4
      vertex -3.11632 -2.16142 -4
      vertex 2.57047 -3.1404 -4
    endloop
  endfacet
  facet normal -0 -0 1
    outer loop
      vertex -2.88105 -3.11377 -4
      vertex 2.57047 -3.1404 -4
      vertex -3.11632 -2.16142 -4
    endloop
  endfacet
  facet normal 0 0 1
    outer loop
      vertex 2.57047 -3.1404 -4
      vertex -2.88105 -3.11377 -4
      vertex 2.21891 -3.92617 -4
    endloop
  endfacet
  facet normal 0 0 1
    outer loop
      vertex 2.22903 4.29007 -4
      vertex -0.15123 5.64547 -4
      vertex -2.5162 4.29007 -4
    endloop
  endfacet
  facet normal -0 -0 1
    outer loop
      vertex -2.55168 -3.90592 -4
      vertex 2.21891 -3.92617 -4
      vertex -2.88105 -3.11377 -4
    endloop
  endfacet
  facet normal 0 0 1
    outer loop
      vertex -2.5162 4.29007 -4
      vertex -0.15123 5.64547 -4
      vertex -1.5308 5.30662 -4
    endloop
  endfacet
  facet normal 0 -0 1
    outer loop
      vertex -0.141029 -5.32987 -4
      vertex 2.21891 -3.92617 -4
      vertex -2.55168 -3.90592 -4
    endloop
  endfacet
  facet normal 0 0 1
    outer loop
      vertex 2.21891 -3.92617 -4
      vertex -0.141029 -5.32987 -4
      vertex 1.77003 -4.54029 -4
    endloop
  endfacet
  facet normal 0 0 1
    outer loop
      vertex 2.22903 4.29007 -4
      vertex -2.5162 4.29007 -4
      vertex -3.10744 2.59582 -4
    endloop
  endfacet
  facet normal 0 -0 1
    outer loop
      vertex 0.59005 -5.24214 -4
      vertex 1.77003 -4.54029 -4
      vertex -0.141029 -5.32987 -4
    endloop
  endfacet
  facet normal 0 0 1
    outer loop
      vertex 1.77003 -4.54029 -4
      vertex 0.59005 -5.24214 -4
      vertex 1.22707 -4.97894 -4
    endloop
  endfacet
  facet normal 0 0 1
    outer loop
      vertex 2.8241 2.59582 -4
      vertex -3.10744 2.59582 -4
      vertex -3.30453 0.223869 -4
    endloop
  endfacet
  facet normal 0 0 1
    outer loop
      vertex -0.141029 -5.32987 -4
      vertex -2.55168 -3.90592 -4
      vertex -0.913429 -5.24088 -4
    endloop
  endfacet
  facet normal 0 0 1
    outer loop
      vertex -0.913429 -5.24088 -4
      vertex -2.11875 -4.5289 -4
      vertex -1.57267 -4.97388 -4
    endloop
  endfacet
  facet normal -0 -0 1
    outer loop
      vertex -2.11875 -4.5289 -4
      vertex -0.913429 -5.24088 -4
      vertex -2.55168 -3.90592 -4
    endloop
  endfacet
  facet normal 1 -0 0
    outer loop
      vertex 18 -10 -4
      vertex 18 10 -14
      vertex 18 10 -4
    endloop
  endfacet
  facet normal 1 0 0
    outer loop
      vertex 18 10 -14
      vertex 18 -10 -4
      vertex 18 -10 -14
    endloop
  endfacet
  facet normal 0 1 -0
    outer loop
      vertex 18 10 -14
      vertex -18 10 -4
      vertex 18 10 -4
    endloop
  endfacet
  facet normal 0 1 0
    outer loop
      vertex -18 10 -4
      vertex 18 10 -14
      vertex -18 10 -14
    endloop
  endfacet
  facet normal 0 -1 0
    outer loop
      vertex -18 -10 -14
      vertex 18 -10 -4
      vertex -18 -10 -4
    endloop
  endfacet
  facet normal 0 -1 -0
    outer loop
      vertex 18 -10 -4
      vertex -18 -10 -14
      vertex 18 -10 -14
    endloop
  endfacet
endsolid OpenSCAD_Model
