solid OpenSCAD_Model
  facet normal -1 0 0
    outer loop
      vertex -14.5 -12.5 -15
      vertex -14.5 12.5 0
      vertex -14.5 12.5 -15
    endloop
  endfacet
  facet normal -1 -0 0
    outer loop
      vertex -14.5 12.5 0
      vertex -14.5 -12.5 -15
      vertex -14.5 -12.5 0
    endloop
  endfacet
  facet normal 0 0 -1
    outer loop
      vertex -14.5 -12.5 -15
      vertex 14.5 12.5 -15
      vertex 14.5 -12.5 -15
    endloop
  endfacet
  facet normal -0 0 -1
    outer loop
      vertex 14.5 12.5 -15
      vertex -14.5 -12.5 -15
      vertex -14.5 12.5 -15
    endloop
  endfacet
  facet normal 0 0 1
    outer loop
      vertex 14.5 12.5 0
      vertex 13.5 11 0
      vertex 14.5 -12.5 0
    endloop
  endfacet
  facet normal 0 0 1
    outer loop
      vertex 14.5 12.5 0
      vertex -13 11 0
      vertex 13.5 11 0
    endloop
  endfacet
  facet normal 0 0 1
    outer loop
      vertex -14.5 -12.5 0
      vertex -13 11 0
      vertex -14.5 12.5 0
    endloop
  endfacet
  facet normal -0 0 1
    outer loop
      vertex -14.5 12.5 0
      vertex -13 11 0
      vertex 14.5 12.5 0
    endloop
  endfacet
  facet normal -0 0 1
    outer loop
      vertex 13.5 -11.5 0
      vertex 14.5 -12.5 0
      vertex 13.5 11 0
    endloop
  endfacet
  facet normal -0 0 1
    outer loop
      vertex -13 -11.5 0
      vertex 14.5 -12.5 0
      vertex 13.5 -11.5 0
    endloop
  endfacet
  facet normal 0 0 1
    outer loop
      vertex -13 -11.5 0
      vertex -14.5 -12.5 0
      vertex 14.5 -12.5 0
    endloop
  endfacet
  facet normal 0 0 1
    outer loop
      vertex -13 11 0
      vertex -14.5 -12.5 0
      vertex -13 -11.5 0
    endloop
  endfacet
  facet normal 1 -0 0
    outer loop
      vertex 14.5 -12.5 0
      vertex 14.5 12.5 -15
      vertex 14.5 12.5 0
    endloop
  endfacet
  facet normal 1 0 0
    outer loop
      vertex 14.5 12.5 -15
      vertex 14.5 -12.5 0
      vertex 14.5 -12.5 -15
    endloop
  endfacet
  facet normal 0 1 -0
    outer loop
      vertex 14.5 12.5 -15
      vertex -14.5 12.5 0
      vertex 14.5 12.5 0
    endloop
  endfacet
  facet normal 0 1 0
    outer loop
      vertex -14.5 12.5 0
      vertex 14.5 12.5 -15
      vertex -14.5 12.5 -15
    endloop
  endfacet
  facet normal 0 -1 0
    outer loop
      vertex -14.5 -12.5 -15
      vertex 14.5 -12.5 0
      vertex -14.5 -12.5 0
    endloop
  endfacet
  facet normal 0 -1 -0
    outer loop
      vertex 14.5 -12.5 0
      vertex -14.5 -12.5 -15
      vertex 14.5 -12.5 -15
    endloop
  endfacet
  facet normal 1 -0 0
    outer loop
      vertex -13 -11.5 0
      vertex -13 11 -4
      vertex -13 11 0
    endloop
  endfacet
  facet normal 1 0 0
    outer loop
      vertex -13 11 -4
      vertex -13 -11.5 0
      vertex -13 -11.5 -4
    endloop
  endfacet
  facet normal 0 0 1
    outer loop
      vertex -10.2024 -6.70312 -4
      vertex -3.5907 -1.93252 -4
      vertex -5.24865 -0.213524 -4
    endloop
  endfacet
  facet normal 0 0 1
    outer loop
      vertex 12 10 -4
      vertex 11.1715 0.223869 -4
      vertex 12 -10 -4
    endloop
  endfacet
  facet normal 0 0 1
    outer loop
      vertex 12 10 -4
      vertex 11.0888 1.83549 -4
      vertex 11.1715 0.223869 -4
    endloop
  endfacet
  facet normal 0 0 1
    outer loop
      vertex 12 10 -4
      vertex 10.8409 3.24239 -4
      vertex 11.0888 1.83549 -4
    endloop
  endfacet
  facet normal 0 0 1
    outer loop
      vertex 12 10 -4
      vertex 10.4277 4.44459 -4
      vertex 10.8409 3.24239 -4
    endloop
  endfacet
  facet normal 0 0 1
    outer loop
      vertex 12 10 -4
      vertex 9.84923 5.44207 -4
      vertex 10.4277 4.44459 -4
    endloop
  endfacet
  facet normal 0 0 1
    outer loop
      vertex 12 10 -4
      vertex 9.10983 6.2253 -4
      vertex 9.84923 5.44207 -4
    endloop
  endfacet
  facet normal 0 0 1
    outer loop
      vertex 12 10 -4
      vertex 8.21404 6.78476 -4
      vertex 9.10983 6.2253 -4
    endloop
  endfacet
  facet normal 0 0 1
    outer loop
      vertex 12 10 -4
      vertex 7.16186 7.12043 -4
      vertex 8.21404 6.78476 -4
    endloop
  endfacet
  facet normal 0 0 1
    outer loop
      vertex 12 10 -4
      vertex 5.95328 7.23232 -4
      vertex 7.16186 7.12043 -4
    endloop
  endfacet
  facet normal 0 0 1
    outer loop
      vertex 12 10 -4
      vertex 4.77021 7.12202 -4
      vertex 5.95328 7.23232 -4
    endloop
  endfacet
  facet normal 0 0 1
    outer loop
      vertex -1.6479 7.01872 -4
      vertex 4.77021 7.12202 -4
      vertex 12 10 -4
    endloop
  endfacet
  facet normal 0 0 1
    outer loop
      vertex 0.839401 1.85614 -4
      vertex -1.6479 7.01872 -4
      vertex 0.755478 0.223869 -4
    endloop
  endfacet
  facet normal 0 0 1
    outer loop
      vertex 1.09118 3.27416 -4
      vertex -1.6479 7.01872 -4
      vertex 0.839401 1.85614 -4
    endloop
  endfacet
  facet normal 0 0 1
    outer loop
      vertex 1.5108 4.47792 -4
      vertex -1.6479 7.01872 -4
      vertex 1.09118 3.27416 -4
    endloop
  endfacet
  facet normal 0 0 1
    outer loop
      vertex 2.09828 5.46742 -4
      vertex -1.6479 7.01872 -4
      vertex 1.5108 4.47792 -4
    endloop
  endfacet
  facet normal 0 0 1
    outer loop
      vertex 2.84271 6.23956 -4
      vertex -1.6479 7.01872 -4
      vertex 2.09828 5.46742 -4
    endloop
  endfacet
  facet normal 0 0 1
    outer loop
      vertex 3.73335 6.7911 -4
      vertex -1.6479 7.01872 -4
      vertex 2.84271 6.23956 -4
    endloop
  endfacet
  facet normal 0 0 1
    outer loop
      vertex 4.77021 7.12202 -4
      vertex -1.6479 7.01872 -4
      vertex 3.73335 6.7911 -4
    endloop
  endfacet
  facet normal -0 0 1
    outer loop
      vertex -12 10 -4
      vertex -1.6479 7.01872 -4
      vertex 12 10 -4
    endloop
  endfacet
  facet normal 0 0 1
    outer loop
      vertex -3.5907 7.01872 -4
      vertex -9.40905 7.01872 -4
      vertex -3.5907 0.173019 -4
    endloop
  endfacet
  facet normal 0 0 1
    outer loop
      vertex -1.6479 7.01872 -4
      vertex -12 10 -4
      vertex -3.5907 7.01872 -4
    endloop
  endfacet
  facet normal 0 0 1
    outer loop
      vertex -3.5907 7.01872 -4
      vertex -12 10 -4
      vertex -9.40905 7.01872 -4
    endloop
  endfacet
  facet normal 0 0 1
    outer loop
      vertex -9.40905 7.01872 -4
      vertex -12 10 -4
      vertex -11.6976 7.01872 -4
    endloop
  endfacet
  facet normal -0 0 1
    outer loop
      vertex 11.0882 -1.4163 -4
      vertex 12 -10 -4
      vertex 11.1715 0.223869 -4
    endloop
  endfacet
  facet normal -0 0 1
    outer loop
      vertex 10.8384 -2.84797 -4
      vertex 12 -10 -4
      vertex 11.0882 -1.4163 -4
    endloop
  endfacet
  facet normal -0 0 1
    outer loop
      vertex 10.422 -4.07114 -4
      vertex 12 -10 -4
      vertex 10.8384 -2.84797 -4
    endloop
  endfacet
  facet normal -0 0 1
    outer loop
      vertex 9.83903 -5.08582 -4
      vertex 12 -10 -4
      vertex 10.422 -4.07114 -4
    endloop
  endfacet
  facet normal -0 0 1
    outer loop
      vertex 9.09772 -5.88238 -4
      vertex 12 -10 -4
      vertex 9.83903 -5.08582 -4
    endloop
  endfacet
  facet normal -0 0 1
    outer loop
      vertex 8.20639 -6.45135 -4
      vertex 12 -10 -4
      vertex 9.09772 -5.88238 -4
    endloop
  endfacet
  facet normal -0 0 1
    outer loop
      vertex 7.16505 -6.79272 -4
      vertex 12 -10 -4
      vertex 8.20639 -6.45135 -4
    endloop
  endfacet
  facet normal -0 0 1
    outer loop
      vertex 5.97368 -6.90652 -4
      vertex 12 -10 -4
      vertex 7.16505 -6.79272 -4
    endloop
  endfacet
  facet normal 0 0 1
    outer loop
      vertex 4.78577 -6.79082 -4
      vertex 12 -10 -4
      vertex 5.97368 -6.90652 -4
    endloop
  endfacet
  facet normal -0 0 1
    outer loop
      vertex -1.6479 -6.70312 -4
      vertex 4.78577 -6.79082 -4
      vertex 3.74472 -6.4437 -4
    endloop
  endfacet
  facet normal 0 0 1
    outer loop
      vertex -1.6479 -6.70312 -4
      vertex 0.755478 0.223869 -4
      vertex -1.6479 7.01872 -4
    endloop
  endfacet
  facet normal 0 0 1
    outer loop
      vertex 0.755478 0.223869 -4
      vertex -1.6479 -6.70312 -4
      vertex 0.839714 -1.39149 -4
    endloop
  endfacet
  facet normal 0 0 1
    outer loop
      vertex 0.839714 -1.39149 -4
      vertex -1.6479 -6.70312 -4
      vertex 1.09241 -2.8098 -4
    endloop
  endfacet
  facet normal 0 0 1
    outer loop
      vertex -1.6479 -6.70312 -4
      vertex 1.51359 -4.03104 -4
      vertex 1.09241 -2.8098 -4
    endloop
  endfacet
  facet normal 0 0 1
    outer loop
      vertex -1.6479 -6.70312 -4
      vertex 2.10323 -5.05522 -4
      vertex 1.51359 -4.03104 -4
    endloop
  endfacet
  facet normal 0 0 1
    outer loop
      vertex -1.6479 -6.70312 -4
      vertex 2.85054 -5.86517 -4
      vertex 2.10323 -5.05522 -4
    endloop
  endfacet
  facet normal 0 0 1
    outer loop
      vertex -1.6479 -6.70312 -4
      vertex 3.74472 -6.4437 -4
      vertex 2.85054 -5.86517 -4
    endloop
  endfacet
  facet normal 0 0 1
    outer loop
      vertex 4.78577 -6.79082 -4
      vertex -1.6479 -6.70312 -4
      vertex 12 -10 -4
    endloop
  endfacet
  facet normal 0 0 1
    outer loop
      vertex -12 -10 -4
      vertex -1.6479 -6.70312 -4
      vertex -3.5907 -6.70312 -4
    endloop
  endfacet
  facet normal 0 0 1
    outer loop
      vertex -3.5907 -1.93252 -4
      vertex -10.2024 -6.70312 -4
      vertex -3.5907 -6.70312 -4
    endloop
  endfacet
  facet normal 0 0 1
    outer loop
      vertex -12 -10 -4
      vertex -3.5907 -6.70312 -4
      vertex -10.2024 -6.70312 -4
    endloop
  endfacet
  facet normal 0 0 1
    outer loop
      vertex -12 -10 -4
      vertex -10.2024 -6.70312 -4
      vertex -12 -6.70312 -4
    endloop
  endfacet
  facet normal 0 0 1
    outer loop
      vertex -1.6479 -6.70312 -4
      vertex -12 -10 -4
      vertex 12 -10 -4
    endloop
  endfacet
  facet normal 0 0 1
    outer loop
      vertex -11.6976 7.01872 -4
      vertex -12 -6.06 -4
      vertex -6.57104 1.20037 -4
    endloop
  endfacet
  facet normal 0 0 1
    outer loop
      vertex -12 -6.06 -4
      vertex -11.6976 7.01872 -4
      vertex -12 10 -4
    endloop
  endfacet
  facet normal 0 0 1
    outer loop
      vertex -12 -6.70312 -4
      vertex -12.4809 -6.70312 -4
      vertex -12 -10 -4
    endloop
  endfacet
  facet normal 0 0 1
    outer loop
      vertex 12 -10 -4
      vertex 13.5 11 -4
      vertex 12 10 -4
    endloop
  endfacet
  facet normal -0 0 1
    outer loop
      vertex -13 11 -4
      vertex 12 10 -4
      vertex 13.5 11 -4
    endloop
  endfacet
  facet normal 0 0 1
    outer loop
      vertex -13 11 -4
      vertex -12 -6.06 -4
      vertex -12 10 -4
    endloop
  endfacet
  facet normal 0 0 1
    outer loop
      vertex -12 -6.06 -4
      vertex -13 11 -4
      vertex -12.4809 -6.70312 -4
    endloop
  endfacet
  facet normal 0 0 1
    outer loop
      vertex 12 10 -4
      vertex -13 11 -4
      vertex -12 10 -4
    endloop
  endfacet
  facet normal 0 0 1
    outer loop
      vertex 13.5 11 -4
      vertex 12 -10 -4
      vertex 13.5 -11.5 -4
    endloop
  endfacet
  facet normal 0 0 1
    outer loop
      vertex -13 -11.5 -4
      vertex 12 -10 -4
      vertex -12 -10 -4
    endloop
  endfacet
  facet normal 0 0 1
    outer loop
      vertex 12 -10 -4
      vertex -13 -11.5 -4
      vertex 13.5 -11.5 -4
    endloop
  endfacet
  facet normal 0 0 1
    outer loop
      vertex -12.4809 -6.70312 -4
      vertex -13 -11.5 -4
      vertex -12 -10 -4
    endloop
  endfacet
  facet normal 0 0 1
    outer loop
      vertex -13 -11.5 -4
      vertex -12.4809 -6.70312 -4
      vertex -13 11 -4
    endloop
  endfacet
  facet normal 0 0 1
    outer loop
      vertex 2.79998 0.223869 -4
      vertex 9.12698 0.223869 -4
      vertex 8.92862 2.59582 -4
    endloop
  endfacet
  facet normal 0 0 1
    outer loop
      vertex 9.12698 0.223869 -4
      vertex 2.79998 0.223869 -4
      vertex 9.07676 -1.06538 -4
    endloop
  endfacet
  facet normal -0 -0 1
    outer loop
      vertex 2.84703 -1.04887 -4
      vertex 9.07676 -1.06538 -4
      vertex 2.79998 0.223869 -4
    endloop
  endfacet
  facet normal 0 0 1
    outer loop
      vertex 2.99706 2.59582 -4
      vertex 8.92862 2.59582 -4
      vertex 8.33356 4.29007 -4
    endloop
  endfacet
  facet normal 0 0 1
    outer loop
      vertex 9.07676 -1.06538 -4
      vertex 2.84703 -1.04887 -4
      vertex 8.92609 -2.18681 -4
    endloop
  endfacet
  facet normal -0 -0 1
    outer loop
      vertex 2.98819 -2.16142 -4
      vertex 8.92609 -2.18681 -4
      vertex 2.84703 -1.04887 -4
    endloop
  endfacet
  facet normal 0 0 1
    outer loop
      vertex 5.95328 5.64547 -4
      vertex 8.33356 4.29007 -4
      vertex 7.34177 5.30662 -4
    endloop
  endfacet
  facet normal 0 0 1
    outer loop
      vertex 8.92609 -2.18681 -4
      vertex 2.98819 -2.16142 -4
      vertex 8.67498 -3.1404 -4
    endloop
  endfacet
  facet normal -0 -0 1
    outer loop
      vertex 3.22346 -3.11377 -4
      vertex 8.67498 -3.1404 -4
      vertex 2.98819 -2.16142 -4
    endloop
  endfacet
  facet normal 0 0 1
    outer loop
      vertex 8.67498 -3.1404 -4
      vertex 3.22346 -3.11377 -4
      vertex 8.32343 -3.92617 -4
    endloop
  endfacet
  facet normal 0 0 1
    outer loop
      vertex 8.33356 4.29007 -4
      vertex 5.95328 5.64547 -4
      vertex 3.5883 4.29007 -4
    endloop
  endfacet
  facet normal -0 -0 1
    outer loop
      vertex 3.55283 -3.90592 -4
      vertex 8.32343 -3.92617 -4
      vertex 3.22346 -3.11377 -4
    endloop
  endfacet
  facet normal 0 0 1
    outer loop
      vertex 3.5883 4.29007 -4
      vertex 5.95328 5.64547 -4
      vertex 4.57371 5.30662 -4
    endloop
  endfacet
  facet normal 0 -0 1
    outer loop
      vertex 5.96348 -5.32987 -4
      vertex 8.32343 -3.92617 -4
      vertex 3.55283 -3.90592 -4
    endloop
  endfacet
  facet normal 0 0 1
    outer loop
      vertex 8.32343 -3.92617 -4
      vertex 5.96348 -5.32987 -4
      vertex 7.87454 -4.54029 -4
    endloop
  endfacet
  facet normal 0 0 1
    outer loop
      vertex 8.33356 4.29007 -4
      vertex 3.5883 4.29007 -4
      vertex 2.99706 2.59582 -4
    endloop
  endfacet
  facet normal 0 -0 1
    outer loop
      vertex 6.69457 -5.24214 -4
      vertex 7.87454 -4.54029 -4
      vertex 5.96348 -5.32987 -4
    endloop
  endfacet
  facet normal 0 0 1
    outer loop
      vertex 7.87454 -4.54029 -4
      vertex 6.69457 -5.24214 -4
      vertex 7.33159 -4.97894 -4
    endloop
  endfacet
  facet normal 0 0 1
    outer loop
      vertex 8.92862 2.59582 -4
      vertex 2.99706 2.59582 -4
      vertex 2.79998 0.223869 -4
    endloop
  endfacet
  facet normal 0 0 1
    outer loop
      vertex 5.96348 -5.32987 -4
      vertex 3.55283 -3.90592 -4
      vertex 5.19109 -5.24088 -4
    endloop
  endfacet
  facet normal 0 0 1
    outer loop
      vertex 5.19109 -5.24088 -4
      vertex 3.98576 -4.5289 -4
      vertex 4.53185 -4.97388 -4
    endloop
  endfacet
  facet normal -0 -0 1
    outer loop
      vertex 3.98576 -4.5289 -4
      vertex 5.19109 -5.24088 -4
      vertex 3.55283 -3.90592 -4
    endloop
  endfacet
  facet normal -1 0 0
    outer loop
      vertex 13.5 -11.5 -4
      vertex 13.5 11 0
      vertex 13.5 11 -4
    endloop
  endfacet
  facet normal -1 -0 0
    outer loop
      vertex 13.5 11 0
      vertex 13.5 -11.5 -4
      vertex 13.5 -11.5 0
    endloop
  endfacet
  facet normal 0 -1 0
    outer loop
      vertex -13 11 -4
      vertex 13.5 11 0
      vertex -13 11 0
    endloop
  endfacet
  facet normal 0 -1 -0
    outer loop
      vertex 13.5 11 0
      vertex -13 11 -4
      vertex 13.5 11 -4
    endloop
  endfacet
  facet normal 0 1 -0
    outer loop
      vertex 13.5 -11.5 -4
      vertex -13 -11.5 0
      vertex 13.5 -11.5 0
    endloop
  endfacet
  facet normal 0 1 0
    outer loop
      vertex -13 -11.5 0
      vertex 13.5 -11.5 -4
      vertex -13 -11.5 -4
    endloop
  endfacet
  facet normal 0 0 1
    outer loop
      vertex 9.12698 0.223869 0
      vertex 11.1715 0.223869 0
      vertex 11.0888 1.83549 0
    endloop
  endfacet
  facet normal -0 0 1
    outer loop
      vertex 8.92862 2.59582 0
      vertex 11.0888 1.83549 0
      vertex 10.8409 3.24239 0
    endloop
  endfacet
  facet normal 0 0 1
    outer loop
      vertex 9.07676 -1.06538 0
      vertex 11.1715 0.223869 0
      vertex 9.12698 0.223869 0
    endloop
  endfacet
  facet normal 0 0 1
    outer loop
      vertex 8.92862 2.59582 0
      vertex 10.8409 3.24239 0
      vertex 10.4277 4.44459 0
    endloop
  endfacet
  facet normal 0 0 1
    outer loop
      vertex 11.1715 0.223869 0
      vertex 9.07676 -1.06538 0
      vertex 11.0882 -1.4163 0
    endloop
  endfacet
  facet normal 0 0 1
    outer loop
      vertex 8.33356 4.29007 0
      vertex 10.4277 4.44459 0
      vertex 9.84923 5.44207 0
    endloop
  endfacet
  facet normal 0 0 1
    outer loop
      vertex 8.92609 -2.18681 0
      vertex 11.0882 -1.4163 0
      vertex 9.07676 -1.06538 0
    endloop
  endfacet
  facet normal 0 0 1
    outer loop
      vertex 11.0882 -1.4163 0
      vertex 8.92609 -2.18681 0
      vertex 10.8384 -2.84797 0
    endloop
  endfacet
  facet normal 0 0 1
    outer loop
      vertex 8.33356 4.29007 0
      vertex 9.84923 5.44207 0
      vertex 9.10983 6.2253 0
    endloop
  endfacet
  facet normal 0 0 1
    outer loop
      vertex 11.0888 1.83549 0
      vertex 8.92862 2.59582 0
      vertex 9.12698 0.223869 0
    endloop
  endfacet
  facet normal 0 0 1
    outer loop
      vertex 10.4277 4.44459 0
      vertex 8.33356 4.29007 0
      vertex 8.92862 2.59582 0
    endloop
  endfacet
  facet normal 0 0 1
    outer loop
      vertex 7.34177 5.30662 0
      vertex 9.10983 6.2253 0
      vertex 8.21404 6.78476 0
    endloop
  endfacet
  facet normal 0 0 1
    outer loop
      vertex 9.10983 6.2253 0
      vertex 7.34177 5.30662 0
      vertex 8.33356 4.29007 0
    endloop
  endfacet
  facet normal 0 0 1
    outer loop
      vertex 7.16186 7.12043 0
      vertex 7.34177 5.30662 0
      vertex 8.21404 6.78476 0
    endloop
  endfacet
  facet normal 0 0 1
    outer loop
      vertex 5.95328 5.64547 0
      vertex 7.16186 7.12043 0
      vertex 5.95328 7.23232 0
    endloop
  endfacet
  facet normal 0 0 1
    outer loop
      vertex 7.16186 7.12043 0
      vertex 5.95328 5.64547 0
      vertex 7.34177 5.30662 0
    endloop
  endfacet
  facet normal -0 0 1
    outer loop
      vertex 4.77021 7.12202 0
      vertex 5.95328 5.64547 0
      vertex 5.95328 7.23232 0
    endloop
  endfacet
  facet normal 0 0 1
    outer loop
      vertex 4.77021 7.12202 0
      vertex 4.57371 5.30662 0
      vertex 5.95328 5.64547 0
    endloop
  endfacet
  facet normal -0 0 1
    outer loop
      vertex 3.73335 6.7911 0
      vertex 4.57371 5.30662 0
      vertex 4.77021 7.12202 0
    endloop
  endfacet
  facet normal -0 0 1
    outer loop
      vertex 2.84271 6.23956 0
      vertex 4.57371 5.30662 0
      vertex 3.73335 6.7911 0
    endloop
  endfacet
  facet normal 0 0 1
    outer loop
      vertex 4.57371 5.30662 0
      vertex 2.84271 6.23956 0
      vertex 3.5883 4.29007 0
    endloop
  endfacet
  facet normal -0 0 1
    outer loop
      vertex 2.09828 5.46742 0
      vertex 3.5883 4.29007 0
      vertex 2.84271 6.23956 0
    endloop
  endfacet
  facet normal -0 0 1
    outer loop
      vertex 1.5108 4.47792 0
      vertex 3.5883 4.29007 0
      vertex 2.09828 5.46742 0
    endloop
  endfacet
  facet normal 0 0 1
    outer loop
      vertex 3.5883 4.29007 0
      vertex 1.5108 4.47792 0
      vertex 2.99706 2.59582 0
    endloop
  endfacet
  facet normal -0 0 1
    outer loop
      vertex 1.09118 3.27416 0
      vertex 2.99706 2.59582 0
      vertex 1.5108 4.47792 0
    endloop
  endfacet
  facet normal 0 -0 1
    outer loop
      vertex 0.839714 -1.39149 0
      vertex 2.79998 0.223869 0
      vertex 0.755478 0.223869 0
    endloop
  endfacet
  facet normal 0 0 1
    outer loop
      vertex 0.839401 1.85614 0
      vertex 2.99706 2.59582 0
      vertex 1.09118 3.27416 0
    endloop
  endfacet
  facet normal 0 -0 1
    outer loop
      vertex 1.09241 -2.8098 0
      vertex 2.79998 0.223869 0
      vertex 0.839714 -1.39149 0
    endloop
  endfacet
  facet normal 0 0 1
    outer loop
      vertex 2.99706 2.59582 0
      vertex 0.839401 1.85614 0
      vertex 2.79998 0.223869 0
    endloop
  endfacet
  facet normal 0 -0 1
    outer loop
      vertex 1.51359 -4.03104 0
      vertex 2.79998 0.223869 0
      vertex 1.09241 -2.8098 0
    endloop
  endfacet
  facet normal 0 0 1
    outer loop
      vertex 2.79998 0.223869 0
      vertex 0.839401 1.85614 0
      vertex 0.755478 0.223869 0
    endloop
  endfacet
  facet normal 0 0 1
    outer loop
      vertex 2.79998 0.223869 0
      vertex 1.51359 -4.03104 0
      vertex 2.10323 -5.05522 0
    endloop
  endfacet
  facet normal 0 0 1
    outer loop
      vertex 8.67498 -3.1404 0
      vertex 10.8384 -2.84797 0
      vertex 8.92609 -2.18681 0
    endloop
  endfacet
  facet normal 0 0 1
    outer loop
      vertex 10.8384 -2.84797 0
      vertex 8.67498 -3.1404 0
      vertex 10.422 -4.07114 0
    endloop
  endfacet
  facet normal -0 0 1
    outer loop
      vertex 8.32343 -3.92617 0
      vertex 10.422 -4.07114 0
      vertex 8.67498 -3.1404 0
    endloop
  endfacet
  facet normal 0 0 1
    outer loop
      vertex 10.422 -4.07114 0
      vertex 8.32343 -3.92617 0
      vertex 9.83903 -5.08582 0
    endloop
  endfacet
  facet normal -0 0 1
    outer loop
      vertex 7.87454 -4.54029 0
      vertex 9.83903 -5.08582 0
      vertex 8.32343 -3.92617 0
    endloop
  endfacet
  facet normal 0 0 1
    outer loop
      vertex 9.83903 -5.08582 0
      vertex 7.87454 -4.54029 0
      vertex 9.09772 -5.88238 0
    endloop
  endfacet
  facet normal 0 0 1
    outer loop
      vertex 9.09772 -5.88238 0
      vertex 7.87454 -4.54029 0
      vertex 8.20639 -6.45135 0
    endloop
  endfacet
  facet normal -0 0 1
    outer loop
      vertex 7.33159 -4.97894 0
      vertex 8.20639 -6.45135 0
      vertex 7.87454 -4.54029 0
    endloop
  endfacet
  facet normal 0 0 1
    outer loop
      vertex 7.33159 -4.97894 0
      vertex 7.16505 -6.79272 0
      vertex 8.20639 -6.45135 0
    endloop
  endfacet
  facet normal -0 0 1
    outer loop
      vertex 6.69457 -5.24214 0
      vertex 7.16505 -6.79272 0
      vertex 7.33159 -4.97894 0
    endloop
  endfacet
  facet normal 0 0 1
    outer loop
      vertex 6.69457 -5.24214 0
      vertex 5.97368 -6.90652 0
      vertex 7.16505 -6.79272 0
    endloop
  endfacet
  facet normal -0 0 1
    outer loop
      vertex 5.96348 -5.32987 0
      vertex 5.97368 -6.90652 0
      vertex 6.69457 -5.24214 0
    endloop
  endfacet
  facet normal 0 0 1
    outer loop
      vertex 5.19109 -5.24088 0
      vertex 5.97368 -6.90652 0
      vertex 5.96348 -5.32987 0
    endloop
  endfacet
  facet normal 0 0 1
    outer loop
      vertex 5.19109 -5.24088 0
      vertex 4.78577 -6.79082 0
      vertex 5.97368 -6.90652 0
    endloop
  endfacet
  facet normal 0 0 1
    outer loop
      vertex 4.53185 -4.97388 0
      vertex 4.78577 -6.79082 0
      vertex 5.19109 -5.24088 0
    endloop
  endfacet
  facet normal 0 0 1
    outer loop
      vertex 2.85054 -5.86517 0
      vertex 4.53185 -4.97388 0
      vertex 3.98576 -4.5289 0
    endloop
  endfacet
  facet normal 0 0 1
    outer loop
      vertex 4.53185 -4.97388 0
      vertex 3.74472 -6.4437 0
      vertex 4.78577 -6.79082 0
    endloop
  endfacet
  facet normal 0 0 1
    outer loop
      vertex 2.10323 -5.05522 0
      vertex 3.98576 -4.5289 0
      vertex 3.55283 -3.90592 0
    endloop
  endfacet
  facet normal 0 0 1
    outer loop
      vertex 2.10323 -5.05522 0
      vertex 3.55283 -3.90592 0
      vertex 3.22346 -3.11377 0
    endloop
  endfacet
  facet normal 0 0 1
    outer loop
      vertex 2.10323 -5.05522 0
      vertex 3.22346 -3.11377 0
      vertex 2.98819 -2.16142 0
    endloop
  endfacet
  facet normal 0 0 1
    outer loop
      vertex 4.53185 -4.97388 0
      vertex 2.85054 -5.86517 0
      vertex 3.74472 -6.4437 0
    endloop
  endfacet
  facet normal 0 0 1
    outer loop
      vertex 2.10323 -5.05522 0
      vertex 2.98819 -2.16142 0
      vertex 2.84703 -1.04887 0
    endloop
  endfacet
  facet normal 0 0 1
    outer loop
      vertex 2.10323 -5.05522 0
      vertex 2.84703 -1.04887 0
      vertex 2.79998 0.223869 0
    endloop
  endfacet
  facet normal 0 0 1
    outer loop
      vertex 3.98576 -4.5289 0
      vertex 2.10323 -5.05522 0
      vertex 2.85054 -5.86517 0
    endloop
  endfacet
  facet normal 0 0 1
    outer loop
      vertex -3.5907 0.173019 0
      vertex -5.24865 -0.213524 0
      vertex -3.5907 -1.93252 0
    endloop
  endfacet
  facet normal 0 0 1
    outer loop
      vertex -3.5907 0.173019 0
      vertex -6.57104 1.20037 0
      vertex -5.24865 -0.213524 0
    endloop
  endfacet
  facet normal 0 0 1
    outer loop
      vertex -9.40905 7.01872 0
      vertex -6.57104 1.20037 0
      vertex -3.5907 0.173019 0
    endloop
  endfacet
  facet normal 0 0 1
    outer loop
      vertex -6.57104 1.20037 0
      vertex -9.40905 7.01872 0
      vertex -11.6976 7.01872 0
    endloop
  endfacet
  facet normal 0 0 1
    outer loop
      vertex -3.5907 0.173019 0
      vertex -1.6479 7.01872 0
      vertex -3.5907 7.01872 0
    endloop
  endfacet
  facet normal 0 0 1
    outer loop
      vertex -1.6479 7.01872 0
      vertex -3.5907 0.173019 0
      vertex -1.6479 -6.70312 0
    endloop
  endfacet
  facet normal -0 0 1
    outer loop
      vertex -3.5907 -1.93252 0
      vertex -1.6479 -6.70312 0
      vertex -3.5907 0.173019 0
    endloop
  endfacet
  facet normal 0 0 1
    outer loop
      vertex -1.6479 -6.70312 0
      vertex -3.5907 -1.93252 0
      vertex -3.5907 -6.70312 0
    endloop
  endfacet
  facet normal 0 0 1
    outer loop
      vertex -6.57104 1.20037 0
      vertex -10.2024 -6.70312 0
      vertex -5.24865 -0.213524 0
    endloop
  endfacet
  facet normal 0 -0 1
    outer loop
      vertex -10.2024 -6.70312 0
      vertex -6.57104 1.20037 0
      vertex -12.4809 -6.70312 0
    endloop
  endfacet
  facet normal -0.316313 -0.948655 0
    outer loop
      vertex 3.74472 -6.4437 -4
      vertex 4.78577 -6.79082 0
      vertex 3.74472 -6.4437 0
    endloop
  endfacet
  facet normal -0.316313 -0.948655 -0
    outer loop
      vertex 4.78577 -6.79082 0
      vertex 3.74472 -6.4437 -4
      vertex 4.78577 -6.79082 -4
    endloop
  endfacet
  facet normal -0.543214 -0.839595 0
    outer loop
      vertex 2.85054 -5.86517 -4
      vertex 3.74472 -6.4437 0
      vertex 2.85054 -5.86517 0
    endloop
  endfacet
  facet normal -0.543214 -0.839595 -0
    outer loop
      vertex 3.74472 -6.4437 0
      vertex 2.85054 -5.86517 -4
      vertex 3.74472 -6.4437 -4
    endloop
  endfacet
  facet normal -0.734955 -0.678115 0
    outer loop
      vertex 2.85054 -5.86517 -4
      vertex 2.10323 -5.05522 0
      vertex 2.10323 -5.05522 -4
    endloop
  endfacet
  facet normal -0.734955 -0.678115 0
    outer loop
      vertex 2.10323 -5.05522 0
      vertex 2.85054 -5.86517 -4
      vertex 2.85054 -5.86517 0
    endloop
  endfacet
  facet normal -0.866637 -0.498939 0
    outer loop
      vertex 2.10323 -5.05522 -4
      vertex 1.51359 -4.03104 0
      vertex 1.51359 -4.03104 -4
    endloop
  endfacet
  facet normal -0.866637 -0.498939 0
    outer loop
      vertex 1.51359 -4.03104 0
      vertex 2.10323 -5.05522 -4
      vertex 2.10323 -5.05522 0
    endloop
  endfacet
  facet normal -0.945358 -0.326034 0
    outer loop
      vertex 1.51359 -4.03104 -4
      vertex 1.09241 -2.8098 0
      vertex 1.09241 -2.8098 -4
    endloop
  endfacet
  facet normal -0.945358 -0.326034 0
    outer loop
      vertex 1.09241 -2.8098 0
      vertex 1.51359 -4.03104 -4
      vertex 1.51359 -4.03104 0
    endloop
  endfacet
  facet normal -0.984496 -0.175405 0
    outer loop
      vertex 1.09241 -2.8098 -4
      vertex 0.839714 -1.39149 0
      vertex 0.839714 -1.39149 -4
    endloop
  endfacet
  facet normal -0.984496 -0.175405 0
    outer loop
      vertex 0.839714 -1.39149 0
      vertex 1.09241 -2.8098 -4
      vertex 1.09241 -2.8098 0
    endloop
  endfacet
  facet normal -0.998643 -0.0520762 0
    outer loop
      vertex 0.839714 -1.39149 -4
      vertex 0.755478 0.223869 0
      vertex 0.755478 0.223869 -4
    endloop
  endfacet
  facet normal -0.998643 -0.0520762 0
    outer loop
      vertex 0.755478 0.223869 0
      vertex 0.839714 -1.39149 -4
      vertex 0.839714 -1.39149 0
    endloop
  endfacet
  facet normal -0.998681 0.051347 0
    outer loop
      vertex 0.755478 0.223869 -4
      vertex 0.839401 1.85614 0
      vertex 0.839401 1.85614 -4
    endloop
  endfacet
  facet normal -0.998681 0.051347 0
    outer loop
      vertex 0.839401 1.85614 0
      vertex 0.755478 0.223869 -4
      vertex 0.755478 0.223869 0
    endloop
  endfacet
  facet normal -0.9846 0.174822 0
    outer loop
      vertex 0.839401 1.85614 -4
      vertex 1.09118 3.27416 0
      vertex 1.09118 3.27416 -4
    endloop
  endfacet
  facet normal -0.9846 0.174822 0
    outer loop
      vertex 1.09118 3.27416 0
      vertex 0.839401 1.85614 -4
      vertex 0.839401 1.85614 0
    endloop
  endfacet
  facet normal -0.944272 0.329165 0
    outer loop
      vertex 1.09118 3.27416 -4
      vertex 1.5108 4.47792 0
      vertex 1.5108 4.47792 -4
    endloop
  endfacet
  facet normal -0.944272 0.329165 0
    outer loop
      vertex 1.5108 4.47792 0
      vertex 1.09118 3.27416 -4
      vertex 1.09118 3.27416 0
    endloop
  endfacet
  facet normal -0.859868 0.510516 0
    outer loop
      vertex 1.5108 4.47792 -4
      vertex 2.09828 5.46742 0
      vertex 2.09828 5.46742 -4
    endloop
  endfacet
  facet normal -0.859868 0.510516 0
    outer loop
      vertex 2.09828 5.46742 0
      vertex 1.5108 4.47792 -4
      vertex 1.5108 4.47792 0
    endloop
  endfacet
  facet normal -0.719907 0.694071 0
    outer loop
      vertex 2.09828 5.46742 -4
      vertex 2.84271 6.23956 0
      vertex 2.84271 6.23956 -4
    endloop
  endfacet
  facet normal -0.719907 0.694071 0
    outer loop
      vertex 2.84271 6.23956 0
      vertex 2.09828 5.46742 -4
      vertex 2.09828 5.46742 0
    endloop
  endfacet
  facet normal -0.526487 0.850183 0
    outer loop
      vertex 3.73335 6.7911 -4
      vertex 2.84271 6.23956 0
      vertex 3.73335 6.7911 0
    endloop
  endfacet
  facet normal -0.526487 0.850183 0
    outer loop
      vertex 2.84271 6.23956 0
      vertex 3.73335 6.7911 -4
      vertex 2.84271 6.23956 -4
    endloop
  endfacet
  facet normal -0.304046 0.952657 0
    outer loop
      vertex 4.77021 7.12202 -4
      vertex 3.73335 6.7911 0
      vertex 4.77021 7.12202 0
    endloop
  endfacet
  facet normal -0.304046 0.952657 0
    outer loop
      vertex 3.73335 6.7911 0
      vertex 4.77021 7.12202 -4
      vertex 3.73335 6.7911 -4
    endloop
  endfacet
  facet normal -0.0928294 0.995682 0
    outer loop
      vertex 5.95328 7.23232 -4
      vertex 4.77021 7.12202 0
      vertex 5.95328 7.23232 0
    endloop
  endfacet
  facet normal -0.0928294 0.995682 0
    outer loop
      vertex 4.77021 7.12202 0
      vertex 5.95328 7.23232 -4
      vertex 4.77021 7.12202 -4
    endloop
  endfacet
  facet normal 0.0921855 0.995742 -0
    outer loop
      vertex 7.16186 7.12043 -4
      vertex 5.95328 7.23232 0
      vertex 7.16186 7.12043 0
    endloop
  endfacet
  facet normal 0.0921855 0.995742 0
    outer loop
      vertex 5.95328 7.23232 0
      vertex 7.16186 7.12043 -4
      vertex 5.95328 7.23232 -4
    endloop
  endfacet
  facet normal 0.303932 0.952694 -0
    outer loop
      vertex 8.21404 6.78476 -4
      vertex 7.16186 7.12043 0
      vertex 8.21404 6.78476 0
    endloop
  endfacet
  facet normal 0.303932 0.952694 0
    outer loop
      vertex 7.16186 7.12043 0
      vertex 8.21404 6.78476 -4
      vertex 7.16186 7.12043 -4
    endloop
  endfacet
  facet normal 0.529721 0.848172 -0
    outer loop
      vertex 9.10983 6.2253 -4
      vertex 8.21404 6.78476 0
      vertex 9.10983 6.2253 0
    endloop
  endfacet
  facet normal 0.529721 0.848172 0
    outer loop
      vertex 8.21404 6.78476 0
      vertex 9.10983 6.2253 -4
      vertex 8.21404 6.78476 -4
    endloop
  endfacet
  facet normal 0.72716 0.686468 0
    outer loop
      vertex 9.84923 5.44207 0
      vertex 9.10983 6.2253 -4
      vertex 9.10983 6.2253 0
    endloop
  endfacet
  facet normal 0.72716 0.686468 0
    outer loop
      vertex 9.10983 6.2253 -4
      vertex 9.84923 5.44207 0
      vertex 9.84923 5.44207 -4
    endloop
  endfacet
  facet normal 0.865057 0.501674 0
    outer loop
      vertex 10.4277 4.44459 0
      vertex 9.84923 5.44207 -4
      vertex 9.84923 5.44207 0
    endloop
  endfacet
  facet normal 0.865057 0.501674 0
    outer loop
      vertex 9.84923 5.44207 -4
      vertex 10.4277 4.44459 0
      vertex 10.4277 4.44459 -4
    endloop
  endfacet
  facet normal 0.9457 0.32504 0
    outer loop
      vertex 10.8409 3.24239 0
      vertex 10.4277 4.44459 -4
      vertex 10.4277 4.44459 0
    endloop
  endfacet
  facet normal 0.9457 0.32504 0
    outer loop
      vertex 10.4277 4.44459 -4
      vertex 10.8409 3.24239 0
      vertex 10.8409 3.24239 -4
    endloop
  endfacet
  facet normal 0.984829 0.17353 0
    outer loop
      vertex 11.0888 1.83549 0
      vertex 10.8409 3.24239 -4
      vertex 10.8409 3.24239 0
    endloop
  endfacet
  facet normal 0.984829 0.17353 0
    outer loop
      vertex 10.8409 3.24239 -4
      vertex 11.0888 1.83549 0
      vertex 11.0888 1.83549 -4
    endloop
  endfacet
  facet normal 0.998686 0.0512474 0
    outer loop
      vertex 11.1715 0.223869 0
      vertex 11.0888 1.83549 -4
      vertex 11.0888 1.83549 0
    endloop
  endfacet
  facet normal 0.998686 0.0512474 0
    outer loop
      vertex 11.0888 1.83549 -4
      vertex 11.1715 0.223869 0
      vertex 11.1715 0.223869 -4
    endloop
  endfacet
  facet normal 0.998713 -0.0507221 0
    outer loop
      vertex 11.0882 -1.4163 0
      vertex 11.1715 0.223869 -4
      vertex 11.1715 0.223869 0
    endloop
  endfacet
  facet normal 0.998713 -0.0507221 0
    outer loop
      vertex 11.1715 0.223869 -4
      vertex 11.0882 -1.4163 0
      vertex 11.0882 -1.4163 -4
    endloop
  endfacet
  facet normal 0.985117 -0.171885 0
    outer loop
      vertex 10.8384 -2.84797 0
      vertex 11.0882 -1.4163 -4
      vertex 11.0882 -1.4163 0
    endloop
  endfacet
  facet normal 0.985117 -0.171885 0
    outer loop
      vertex 11.0882 -1.4163 -4
      vertex 10.8384 -2.84797 0
      vertex 10.8384 -2.84797 -4
    endloop
  endfacet
  facet normal 0.94665 -0.322265 0
    outer loop
      vertex 10.422 -4.07114 0
      vertex 10.8384 -2.84797 -4
      vertex 10.8384 -2.84797 0
    endloop
  endfacet
  facet normal 0.94665 -0.322265 0
    outer loop
      vertex 10.8384 -2.84797 -4
      vertex 10.422 -4.07114 0
      vertex 10.422 -4.07114 -4
    endloop
  endfacet
  facet normal 0.86708 -0.498169 0
    outer loop
      vertex 9.83903 -5.08582 0
      vertex 10.422 -4.07114 -4
      vertex 10.422 -4.07114 0
    endloop
  endfacet
  facet normal 0.86708 -0.498169 0
    outer loop
      vertex 10.422 -4.07114 -4
      vertex 9.83903 -5.08582 0
      vertex 9.83903 -5.08582 -4
    endloop
  endfacet
  facet normal 0.732038 -0.681264 0
    outer loop
      vertex 9.09772 -5.88238 0
      vertex 9.83903 -5.08582 -4
      vertex 9.83903 -5.08582 0
    endloop
  endfacet
  facet normal 0.732038 -0.681264 0
    outer loop
      vertex 9.83903 -5.08582 -4
      vertex 9.09772 -5.88238 0
      vertex 9.09772 -5.88238 -4
    endloop
  endfacet
  facet normal 0.53806 -0.842907 0
    outer loop
      vertex 8.20639 -6.45135 -4
      vertex 9.09772 -5.88238 0
      vertex 8.20639 -6.45135 0
    endloop
  endfacet
  facet normal 0.53806 -0.842907 0
    outer loop
      vertex 9.09772 -5.88238 0
      vertex 8.20639 -6.45135 -4
      vertex 9.09772 -5.88238 -4
    endloop
  endfacet
  facet normal 0.311507 -0.950244 0
    outer loop
      vertex 7.16505 -6.79272 -4
      vertex 8.20639 -6.45135 0
      vertex 7.16505 -6.79272 0
    endloop
  endfacet
  facet normal 0.311507 -0.950244 0
    outer loop
      vertex 8.20639 -6.45135 0
      vertex 7.16505 -6.79272 -4
      vertex 8.20639 -6.45135 -4
    endloop
  endfacet
  facet normal 0.0950875 -0.995469 0
    outer loop
      vertex 5.97368 -6.90652 -4
      vertex 7.16505 -6.79272 0
      vertex 5.97368 -6.90652 0
    endloop
  endfacet
  facet normal 0.0950875 -0.995469 0
    outer loop
      vertex 7.16505 -6.79272 0
      vertex 5.97368 -6.90652 -4
      vertex 7.16505 -6.79272 -4
    endloop
  endfacet
  facet normal -0.0969392 -0.99529 0
    outer loop
      vertex 4.78577 -6.79082 -4
      vertex 5.97368 -6.90652 0
      vertex 4.78577 -6.79082 0
    endloop
  endfacet
  facet normal -0.0969392 -0.99529 -0
    outer loop
      vertex 5.97368 -6.90652 0
      vertex 4.78577 -6.79082 -4
      vertex 5.97368 -6.90652 -4
    endloop
  endfacet
  facet normal -0.381863 0.924219 0
    outer loop
      vertex 7.33159 -4.97894 -4
      vertex 6.69457 -5.24214 0
      vertex 7.33159 -4.97894 0
    endloop
  endfacet
  facet normal -0.381863 0.924219 0
    outer loop
      vertex 6.69457 -5.24214 0
      vertex 7.33159 -4.97894 -4
      vertex 6.69457 -5.24214 -4
    endloop
  endfacet
  facet normal -0.628435 0.777862 0
    outer loop
      vertex 7.87454 -4.54029 -4
      vertex 7.33159 -4.97894 0
      vertex 7.87454 -4.54029 0
    endloop
  endfacet
  facet normal -0.628435 0.777862 0
    outer loop
      vertex 7.33159 -4.97894 0
      vertex 7.87454 -4.54029 -4
      vertex 7.33159 -4.97894 -4
    endloop
  endfacet
  facet normal -0.807322 0.590111 0
    outer loop
      vertex 7.87454 -4.54029 -4
      vertex 8.32343 -3.92617 0
      vertex 8.32343 -3.92617 -4
    endloop
  endfacet
  facet normal -0.807322 0.590111 0
    outer loop
      vertex 8.32343 -3.92617 0
      vertex 7.87454 -4.54029 -4
      vertex 7.87454 -4.54029 0
    endloop
  endfacet
  facet normal -0.912809 0.408387 0
    outer loop
      vertex 8.32343 -3.92617 -4
      vertex 8.67498 -3.1404 0
      vertex 8.67498 -3.1404 -4
    endloop
  endfacet
  facet normal -0.912809 0.408387 0
    outer loop
      vertex 8.67498 -3.1404 0
      vertex 8.32343 -3.92617 -4
      vertex 8.32343 -3.92617 0
    endloop
  endfacet
  facet normal -0.967033 0.25465 0
    outer loop
      vertex 8.67498 -3.1404 -4
      vertex 8.92609 -2.18681 0
      vertex 8.92609 -2.18681 -4
    endloop
  endfacet
  facet normal -0.967033 0.25465 0
    outer loop
      vertex 8.92609 -2.18681 0
      vertex 8.67498 -3.1404 -4
      vertex 8.67498 -3.1404 0
    endloop
  endfacet
  facet normal -0.991095 0.133159 0
    outer loop
      vertex 8.92609 -2.18681 -4
      vertex 9.07676 -1.06538 0
      vertex 9.07676 -1.06538 -4
    endloop
  endfacet
  facet normal -0.991095 0.133159 0
    outer loop
      vertex 9.07676 -1.06538 0
      vertex 8.92609 -2.18681 -4
      vertex 8.92609 -2.18681 0
    endloop
  endfacet
  facet normal -0.999242 0.0389234 0
    outer loop
      vertex 9.07676 -1.06538 -4
      vertex 9.12698 0.223869 0
      vertex 9.12698 0.223869 -4
    endloop
  endfacet
  facet normal -0.999242 0.0389234 0
    outer loop
      vertex 9.12698 0.223869 0
      vertex 9.07676 -1.06538 -4
      vertex 9.07676 -1.06538 0
    endloop
  endfacet
  facet normal -0.996521 -0.0833365 0
    outer loop
      vertex 9.12698 0.223869 -4
      vertex 8.92862 2.59582 0
      vertex 8.92862 2.59582 -4
    endloop
  endfacet
  facet normal -0.996521 -0.0833365 0
    outer loop
      vertex 8.92862 2.59582 0
      vertex 9.12698 0.223869 -4
      vertex 9.12698 0.223869 0
    endloop
  endfacet
  facet normal -0.943498 -0.331378 0
    outer loop
      vertex 8.92862 2.59582 -4
      vertex 8.33356 4.29007 0
      vertex 8.33356 4.29007 -4
    endloop
  endfacet
  facet normal -0.943498 -0.331378 0
    outer loop
      vertex 8.33356 4.29007 0
      vertex 8.92862 2.59582 -4
      vertex 8.92862 2.59582 0
    endloop
  endfacet
  facet normal -0.71577 -0.698336 0
    outer loop
      vertex 8.33356 4.29007 -4
      vertex 7.34177 5.30662 0
      vertex 7.34177 5.30662 -4
    endloop
  endfacet
  facet normal -0.71577 -0.698336 0
    outer loop
      vertex 7.34177 5.30662 0
      vertex 8.33356 4.29007 -4
      vertex 8.33356 4.29007 0
    endloop
  endfacet
  facet normal -0.237084 -0.971489 0
    outer loop
      vertex 5.95328 5.64547 -4
      vertex 7.34177 5.30662 0
      vertex 5.95328 5.64547 0
    endloop
  endfacet
  facet normal -0.237084 -0.971489 -0
    outer loop
      vertex 7.34177 5.30662 0
      vertex 5.95328 5.64547 -4
      vertex 7.34177 5.30662 -4
    endloop
  endfacet
  facet normal 0.23853 -0.971135 0
    outer loop
      vertex 4.57371 5.30662 -4
      vertex 5.95328 5.64547 0
      vertex 4.57371 5.30662 0
    endloop
  endfacet
  facet normal 0.23853 -0.971135 0
    outer loop
      vertex 5.95328 5.64547 0
      vertex 4.57371 5.30662 -4
      vertex 5.95328 5.64547 -4
    endloop
  endfacet
  facet normal 0.718019 -0.696024 0
    outer loop
      vertex 3.5883 4.29007 0
      vertex 4.57371 5.30662 -4
      vertex 4.57371 5.30662 0
    endloop
  endfacet
  facet normal 0.718019 -0.696024 0
    outer loop
      vertex 4.57371 5.30662 -4
      vertex 3.5883 4.29007 0
      vertex 3.5883 4.29007 -4
    endloop
  endfacet
  facet normal 0.944162 -0.329483 0
    outer loop
      vertex 2.99706 2.59582 0
      vertex 3.5883 4.29007 -4
      vertex 3.5883 4.29007 0
    endloop
  endfacet
  facet normal 0.944162 -0.329483 0
    outer loop
      vertex 3.5883 4.29007 -4
      vertex 2.99706 2.59582 0
      vertex 2.99706 2.59582 -4
    endloop
  endfacet
  facet normal 0.996566 -0.0828024 0
    outer loop
      vertex 2.79998 0.223869 0
      vertex 2.99706 2.59582 -4
      vertex 2.99706 2.59582 0
    endloop
  endfacet
  facet normal 0.996566 -0.0828024 0
    outer loop
      vertex 2.99706 2.59582 -4
      vertex 2.79998 0.223869 0
      vertex 2.79998 0.223869 -4
    endloop
  endfacet
  facet normal 0.999317 0.0369423 0
    outer loop
      vertex 2.84703 -1.04887 0
      vertex 2.79998 0.223869 -4
      vertex 2.79998 0.223869 0
    endloop
  endfacet
  facet normal 0.999317 0.0369423 0
    outer loop
      vertex 2.79998 0.223869 -4
      vertex 2.84703 -1.04887 0
      vertex 2.84703 -1.04887 -4
    endloop
  endfacet
  facet normal 0.992047 0.125871 0
    outer loop
      vertex 2.98819 -2.16142 0
      vertex 2.84703 -1.04887 -4
      vertex 2.84703 -1.04887 0
    endloop
  endfacet
  facet normal 0.992047 0.125871 0
    outer loop
      vertex 2.84703 -1.04887 -4
      vertex 2.98819 -2.16142 0
      vertex 2.98819 -2.16142 -4
    endloop
  endfacet
  facet normal 0.970815 0.239832 0
    outer loop
      vertex 3.22346 -3.11377 0
      vertex 2.98819 -2.16142 -4
      vertex 2.98819 -2.16142 0
    endloop
  endfacet
  facet normal 0.970815 0.239832 0
    outer loop
      vertex 2.98819 -2.16142 -4
      vertex 3.22346 -3.11377 0
      vertex 3.22346 -3.11377 -4
    endloop
  endfacet
  facet normal 0.923363 0.383927 0
    outer loop
      vertex 3.55283 -3.90592 0
      vertex 3.22346 -3.11377 -4
      vertex 3.22346 -3.11377 0
    endloop
  endfacet
  facet normal 0.923363 0.383927 0
    outer loop
      vertex 3.22346 -3.11377 -4
      vertex 3.55283 -3.90592 0
      vertex 3.55283 -3.90592 -4
    endloop
  endfacet
  facet normal 0.821182 0.570667 0
    outer loop
      vertex 3.98576 -4.5289 0
      vertex 3.55283 -3.90592 -4
      vertex 3.55283 -3.90592 0
    endloop
  endfacet
  facet normal 0.821182 0.570667 0
    outer loop
      vertex 3.55283 -3.90592 -4
      vertex 3.98576 -4.5289 0
      vertex 3.98576 -4.5289 -4
    endloop
  endfacet
  facet normal 0.631688 0.775223 -0
    outer loop
      vertex 4.53185 -4.97388 -4
      vertex 3.98576 -4.5289 0
      vertex 4.53185 -4.97388 0
    endloop
  endfacet
  facet normal 0.631688 0.775223 0
    outer loop
      vertex 3.98576 -4.5289 0
      vertex 4.53185 -4.97388 -4
      vertex 3.98576 -4.5289 -4
    endloop
  endfacet
  facet normal 0.375392 0.926866 -0
    outer loop
      vertex 5.19109 -5.24088 -4
      vertex 4.53185 -4.97388 0
      vertex 5.19109 -5.24088 0
    endloop
  endfacet
  facet normal 0.375392 0.926866 0
    outer loop
      vertex 4.53185 -4.97388 0
      vertex 5.19109 -5.24088 -4
      vertex 4.53185 -4.97388 -4
    endloop
  endfacet
  facet normal 0.114457 0.993428 -0
    outer loop
      vertex 5.96348 -5.32987 -4
      vertex 5.19109 -5.24088 0
      vertex 5.96348 -5.32987 0
    endloop
  endfacet
  facet normal 0.114457 0.993428 0
    outer loop
      vertex 5.19109 -5.24088 0
      vertex 5.96348 -5.32987 -4
      vertex 5.19109 -5.24088 -4
    endloop
  endfacet
  facet normal -0.119144 0.992877 0
    outer loop
      vertex 6.69457 -5.24214 -4
      vertex 5.96348 -5.32987 0
      vertex 6.69457 -5.24214 0
    endloop
  endfacet
  facet normal -0.119144 0.992877 0
    outer loop
      vertex 5.96348 -5.32987 0
      vertex 6.69457 -5.24214 -4
      vertex 5.96348 -5.32987 -4
    endloop
  endfacet
  facet normal -0.719772 -0.694211 0
    outer loop
      vertex -3.5907 -1.93252 -4
      vertex -5.24865 -0.213524 0
      vertex -5.24865 -0.213524 -4
    endloop
  endfacet
  facet normal -0.719772 -0.694211 0
    outer loop
      vertex -5.24865 -0.213524 0
      vertex -3.5907 -1.93252 -4
      vertex -3.5907 -1.93252 0
    endloop
  endfacet
  facet normal 0.794883 -0.606763 0
    outer loop
      vertex -10.2024 -6.70312 0
      vertex -5.24865 -0.213524 -4
      vertex -5.24865 -0.213524 0
    endloop
  endfacet
  facet normal 0.794883 -0.606763 0
    outer loop
      vertex -5.24865 -0.213524 -4
      vertex -10.2024 -6.70312 0
      vertex -10.2024 -6.70312 -4
    endloop
  endfacet
  facet normal 0 -1 0
    outer loop
      vertex -12 -6.70312 -4
      vertex -12.4809 -6.70312 0
      vertex -12.4809 -6.70312 -4
    endloop
  endfacet
  facet normal 0 -1 0
    outer loop
      vertex -12.4809 -6.70312 0
      vertex -12 -6.70312 -4
      vertex -10.2024 -6.70312 0
    endloop
  endfacet
  facet normal 0 -1 -0
    outer loop
      vertex -10.2024 -6.70312 0
      vertex -12 -6.70312 -4
      vertex -10.2024 -6.70312 -4
    endloop
  endfacet
  facet normal -0.800863 0.598847 0
    outer loop
      vertex -12 -6.06 -4
      vertex -6.57104 1.20037 0
      vertex -6.57104 1.20037 -4
    endloop
  endfacet
  facet normal -0.80086 0.598852 0
    outer loop
      vertex -12.4809 -6.70312 0
      vertex -12 -6.06 -4
      vertex -12.4809 -6.70312 -4
    endloop
  endfacet
  facet normal -0.800863 0.598848 -9.92474e-07
    outer loop
      vertex -12 -6.06 -4
      vertex -12.4809 -6.70312 0
      vertex -6.57104 1.20037 0
    endloop
  endfacet
  facet normal -0.750303 -0.661094 0
    outer loop
      vertex -6.57104 1.20037 -4
      vertex -11.6976 7.01872 0
      vertex -11.6976 7.01872 -4
    endloop
  endfacet
  facet normal -0.750303 -0.661094 0
    outer loop
      vertex -11.6976 7.01872 0
      vertex -6.57104 1.20037 -4
      vertex -6.57104 1.20037 0
    endloop
  endfacet
  facet normal 0 1 -0
    outer loop
      vertex -9.40905 7.01872 -4
      vertex -11.6976 7.01872 0
      vertex -9.40905 7.01872 0
    endloop
  endfacet
  facet normal 0 1 0
    outer loop
      vertex -11.6976 7.01872 0
      vertex -9.40905 7.01872 -4
      vertex -11.6976 7.01872 -4
    endloop
  endfacet
  facet normal 0.761967 0.647616 0
    outer loop
      vertex -3.5907 0.173019 0
      vertex -9.40905 7.01872 -4
      vertex -9.40905 7.01872 0
    endloop
  endfacet
  facet normal 0.761967 0.647616 0
    outer loop
      vertex -9.40905 7.01872 -4
      vertex -3.5907 0.173019 0
      vertex -3.5907 0.173019 -4
    endloop
  endfacet
  facet normal -1 0 0
    outer loop
      vertex -3.5907 0.173019 -4
      vertex -3.5907 7.01872 0
      vertex -3.5907 7.01872 -4
    endloop
  endfacet
  facet normal -1 -0 0
    outer loop
      vertex -3.5907 7.01872 0
      vertex -3.5907 0.173019 -4
      vertex -3.5907 0.173019 0
    endloop
  endfacet
  facet normal 0 1 -0
    outer loop
      vertex -1.6479 7.01872 -4
      vertex -3.5907 7.01872 0
      vertex -1.6479 7.01872 0
    endloop
  endfacet
  facet normal 0 1 0
    outer loop
      vertex -3.5907 7.01872 0
      vertex -1.6479 7.01872 -4
      vertex -3.5907 7.01872 -4
    endloop
  endfacet
  facet normal 1 -0 0
    outer loop
      vertex -1.6479 -6.70312 0
      vertex -1.6479 7.01872 -4
      vertex -1.6479 7.01872 0
    endloop
  endfacet
  facet normal 1 0 0
    outer loop
      vertex -1.6479 7.01872 -4
      vertex -1.6479 -6.70312 0
      vertex -1.6479 -6.70312 -4
    endloop
  endfacet
  facet normal 0 -1 0
    outer loop
      vertex -3.5907 -6.70312 -4
      vertex -1.6479 -6.70312 0
      vertex -3.5907 -6.70312 0
    endloop
  endfacet
  facet normal 0 -1 -0
    outer loop
      vertex -1.6479 -6.70312 0
      vertex -3.5907 -6.70312 -4
      vertex -1.6479 -6.70312 -4
    endloop
  endfacet
  facet normal -1 0 0
    outer loop
      vertex -3.5907 -6.70312 -4
      vertex -3.5907 -1.93252 0
      vertex -3.5907 -1.93252 -4
    endloop
  endfacet
  facet normal -1 -0 0
    outer loop
      vertex -3.5907 -1.93252 0
      vertex -3.5907 -6.70312 -4
      vertex -3.5907 -6.70312 0
    endloop
  endfacet
endsolid OpenSCAD_Model
