solid OpenSCAD_Model
  facet normal 0 0 1
    outer loop
      vertex 15.2315 0.223869 0
      vertex 17.276 0.223869 0
      vertex 17.1934 1.83549 0
    endloop
  endfacet
  facet normal -0 0 1
    outer loop
      vertex 15.0331 2.59582 0
      vertex 17.1934 1.83549 0
      vertex 16.9454 3.24239 0
    endloop
  endfacet
  facet normal 0 0 1
    outer loop
      vertex 15.1813 -1.06538 0
      vertex 17.276 0.223869 0
      vertex 15.2315 0.223869 0
    endloop
  endfacet
  facet normal 0 0 1
    outer loop
      vertex 15.0331 2.59582 0
      vertex 16.9454 3.24239 0
      vertex 16.5322 4.44459 0
    endloop
  endfacet
  facet normal 0 0 1
    outer loop
      vertex 17.276 0.223869 0
      vertex 15.1813 -1.06538 0
      vertex 17.1927 -1.4163 0
    endloop
  endfacet
  facet normal 0 0 1
    outer loop
      vertex 14.4381 4.29007 0
      vertex 16.5322 4.44459 0
      vertex 15.9537 5.44207 0
    endloop
  endfacet
  facet normal 0 0 1
    outer loop
      vertex 15.0306 -2.18681 0
      vertex 17.1927 -1.4163 0
      vertex 15.1813 -1.06538 0
    endloop
  endfacet
  facet normal 0 0 1
    outer loop
      vertex 17.1927 -1.4163 0
      vertex 15.0306 -2.18681 0
      vertex 16.9429 -2.84797 0
    endloop
  endfacet
  facet normal 0 0 1
    outer loop
      vertex 14.4381 4.29007 0
      vertex 15.9537 5.44207 0
      vertex 15.2143 6.2253 0
    endloop
  endfacet
  facet normal 0 0 1
    outer loop
      vertex 17.1934 1.83549 0
      vertex 15.0331 2.59582 0
      vertex 15.2315 0.223869 0
    endloop
  endfacet
  facet normal 0 0 1
    outer loop
      vertex 16.5322 4.44459 0
      vertex 14.4381 4.29007 0
      vertex 15.0331 2.59582 0
    endloop
  endfacet
  facet normal 0 0 1
    outer loop
      vertex 13.4463 5.30662 0
      vertex 15.2143 6.2253 0
      vertex 14.3186 6.78476 0
    endloop
  endfacet
  facet normal 0 0 1
    outer loop
      vertex 15.2143 6.2253 0
      vertex 13.4463 5.30662 0
      vertex 14.4381 4.29007 0
    endloop
  endfacet
  facet normal 0 0 1
    outer loop
      vertex 13.2664 7.12043 0
      vertex 13.4463 5.30662 0
      vertex 14.3186 6.78476 0
    endloop
  endfacet
  facet normal 0 0 1
    outer loop
      vertex 12.0578 5.64547 0
      vertex 13.2664 7.12043 0
      vertex 12.0578 7.23232 0
    endloop
  endfacet
  facet normal 0 0 1
    outer loop
      vertex 13.2664 7.12043 0
      vertex 12.0578 5.64547 0
      vertex 13.4463 5.30662 0
    endloop
  endfacet
  facet normal -0 0 1
    outer loop
      vertex 10.8747 7.12202 0
      vertex 12.0578 5.64547 0
      vertex 12.0578 7.23232 0
    endloop
  endfacet
  facet normal 0 0 1
    outer loop
      vertex 10.8747 7.12202 0
      vertex 10.6782 5.30662 0
      vertex 12.0578 5.64547 0
    endloop
  endfacet
  facet normal -0 0 1
    outer loop
      vertex 9.83787 6.7911 0
      vertex 10.6782 5.30662 0
      vertex 10.8747 7.12202 0
    endloop
  endfacet
  facet normal -0 0 1
    outer loop
      vertex 8.94723 6.23956 0
      vertex 10.6782 5.30662 0
      vertex 9.83787 6.7911 0
    endloop
  endfacet
  facet normal 0 0 1
    outer loop
      vertex 10.6782 5.30662 0
      vertex 8.94723 6.23956 0
      vertex 9.69282 4.29007 0
    endloop
  endfacet
  facet normal -0 0 1
    outer loop
      vertex 8.2028 5.46742 0
      vertex 9.69282 4.29007 0
      vertex 8.94723 6.23956 0
    endloop
  endfacet
  facet normal -0 0 1
    outer loop
      vertex 7.61532 4.47792 0
      vertex 9.69282 4.29007 0
      vertex 8.2028 5.46742 0
    endloop
  endfacet
  facet normal 0 0 1
    outer loop
      vertex 9.69282 4.29007 0
      vertex 7.61532 4.47792 0
      vertex 9.10158 2.59582 0
    endloop
  endfacet
  facet normal -0 0 1
    outer loop
      vertex 7.19569 3.27416 0
      vertex 9.10158 2.59582 0
      vertex 7.61532 4.47792 0
    endloop
  endfacet
  facet normal 0 -0 1
    outer loop
      vertex 6.94423 -1.39149 0
      vertex 8.9045 0.223869 0
      vertex 6.85999 0.223869 0
    endloop
  endfacet
  facet normal 0 0 1
    outer loop
      vertex 6.94392 1.85614 0
      vertex 9.10158 2.59582 0
      vertex 7.19569 3.27416 0
    endloop
  endfacet
  facet normal 0 -0 1
    outer loop
      vertex 7.19693 -2.8098 0
      vertex 8.9045 0.223869 0
      vertex 6.94423 -1.39149 0
    endloop
  endfacet
  facet normal 0 0 1
    outer loop
      vertex 9.10158 2.59582 0
      vertex 6.94392 1.85614 0
      vertex 8.9045 0.223869 0
    endloop
  endfacet
  facet normal 0 -0 1
    outer loop
      vertex 7.6181 -4.03104 0
      vertex 8.9045 0.223869 0
      vertex 7.19693 -2.8098 0
    endloop
  endfacet
  facet normal 0 0 1
    outer loop
      vertex 8.9045 0.223869 0
      vertex 6.94392 1.85614 0
      vertex 6.85999 0.223869 0
    endloop
  endfacet
  facet normal 0 0 1
    outer loop
      vertex 8.9045 0.223869 0
      vertex 7.6181 -4.03104 0
      vertex 8.20775 -5.05522 0
    endloop
  endfacet
  facet normal 0 0 1
    outer loop
      vertex 14.7795 -3.1404 0
      vertex 16.9429 -2.84797 0
      vertex 15.0306 -2.18681 0
    endloop
  endfacet
  facet normal 0 0 1
    outer loop
      vertex 16.9429 -2.84797 0
      vertex 14.7795 -3.1404 0
      vertex 16.5265 -4.07114 0
    endloop
  endfacet
  facet normal -0 0 1
    outer loop
      vertex 14.4279 -3.92617 0
      vertex 16.5265 -4.07114 0
      vertex 14.7795 -3.1404 0
    endloop
  endfacet
  facet normal 0 0 1
    outer loop
      vertex 16.5265 -4.07114 0
      vertex 14.4279 -3.92617 0
      vertex 15.9435 -5.08582 0
    endloop
  endfacet
  facet normal -0 0 1
    outer loop
      vertex 13.9791 -4.54029 0
      vertex 15.9435 -5.08582 0
      vertex 14.4279 -3.92617 0
    endloop
  endfacet
  facet normal 0 0 1
    outer loop
      vertex 15.9435 -5.08582 0
      vertex 13.9791 -4.54029 0
      vertex 15.2022 -5.88238 0
    endloop
  endfacet
  facet normal 0 0 1
    outer loop
      vertex 15.2022 -5.88238 0
      vertex 13.9791 -4.54029 0
      vertex 14.3109 -6.45135 0
    endloop
  endfacet
  facet normal -0 0 1
    outer loop
      vertex 13.4361 -4.97894 0
      vertex 14.3109 -6.45135 0
      vertex 13.9791 -4.54029 0
    endloop
  endfacet
  facet normal 0 0 1
    outer loop
      vertex 13.4361 -4.97894 0
      vertex 13.2696 -6.79272 0
      vertex 14.3109 -6.45135 0
    endloop
  endfacet
  facet normal -0 0 1
    outer loop
      vertex 12.7991 -5.24214 0
      vertex 13.2696 -6.79272 0
      vertex 13.4361 -4.97894 0
    endloop
  endfacet
  facet normal 0 0 1
    outer loop
      vertex 12.7991 -5.24214 0
      vertex 12.0782 -6.90652 0
      vertex 13.2696 -6.79272 0
    endloop
  endfacet
  facet normal -0 0 1
    outer loop
      vertex 12.068 -5.32987 0
      vertex 12.0782 -6.90652 0
      vertex 12.7991 -5.24214 0
    endloop
  endfacet
  facet normal 0 0 1
    outer loop
      vertex 11.2956 -5.24088 0
      vertex 12.0782 -6.90652 0
      vertex 12.068 -5.32987 0
    endloop
  endfacet
  facet normal 0 0 1
    outer loop
      vertex 11.2956 -5.24088 0
      vertex 10.8903 -6.79082 0
      vertex 12.0782 -6.90652 0
    endloop
  endfacet
  facet normal 0 0 1
    outer loop
      vertex 10.6364 -4.97388 0
      vertex 10.8903 -6.79082 0
      vertex 11.2956 -5.24088 0
    endloop
  endfacet
  facet normal 0 0 1
    outer loop
      vertex 8.95506 -5.86517 0
      vertex 10.6364 -4.97388 0
      vertex 10.0903 -4.5289 0
    endloop
  endfacet
  facet normal 0 0 1
    outer loop
      vertex 10.6364 -4.97388 0
      vertex 9.84924 -6.4437 0
      vertex 10.8903 -6.79082 0
    endloop
  endfacet
  facet normal 0 0 1
    outer loop
      vertex 8.20775 -5.05522 0
      vertex 10.0903 -4.5289 0
      vertex 9.65735 -3.90592 0
    endloop
  endfacet
  facet normal 0 0 1
    outer loop
      vertex 8.20775 -5.05522 0
      vertex 9.65735 -3.90592 0
      vertex 9.32797 -3.11377 0
    endloop
  endfacet
  facet normal 0 0 1
    outer loop
      vertex 8.20775 -5.05522 0
      vertex 9.32797 -3.11377 0
      vertex 9.0927 -2.16142 0
    endloop
  endfacet
  facet normal 0 0 1
    outer loop
      vertex 10.6364 -4.97388 0
      vertex 8.95506 -5.86517 0
      vertex 9.84924 -6.4437 0
    endloop
  endfacet
  facet normal 0 0 1
    outer loop
      vertex 8.20775 -5.05522 0
      vertex 9.0927 -2.16142 0
      vertex 8.95155 -1.04887 0
    endloop
  endfacet
  facet normal 0 0 1
    outer loop
      vertex 8.20775 -5.05522 0
      vertex 8.95155 -1.04887 0
      vertex 8.9045 0.223869 0
    endloop
  endfacet
  facet normal 0 0 1
    outer loop
      vertex 10.0903 -4.5289 0
      vertex 8.20775 -5.05522 0
      vertex 8.95506 -5.86517 0
    endloop
  endfacet
  facet normal 0 0 1
    outer loop
      vertex -12.4314 0.468071 0
      vertex -15.4117 -1.15942 0
      vertex -12.4314 -1.15942 0
    endloop
  endfacet
  facet normal 0 0 1
    outer loop
      vertex -17.3038 -5.35027 0
      vertex -15.4117 -4.57717 0
      vertex -15.4117 -1.15942 0
    endloop
  endfacet
  facet normal -0 0 1
    outer loop
      vertex -17.3038 0.468071 0
      vertex -15.4117 -1.15942 0
      vertex -12.4314 0.468071 0
    endloop
  endfacet
  facet normal 0 0 1
    outer loop
      vertex -17.3038 -5.35027 0
      vertex -15.4117 -1.15942 0
      vertex -17.3038 0.468071 0
    endloop
  endfacet
  facet normal 0 0 1
    outer loop
      vertex -15.4117 -4.57717 0
      vertex -17.3038 -5.35027 0
      vertex -16.1366 -6.03113 0
    endloop
  endfacet
  facet normal -0 0 1
    outer loop
      vertex -9.34964 1.55452 0
      vertex -7.25396 0.223869 0
      vertex -7.33788 1.87681 0
    endloop
  endfacet
  facet normal -0 0 1
    outer loop
      vertex -9.50317 2.68807 0
      vertex -7.33788 1.87681 0
      vertex -7.58962 3.30596 0
    endloop
  endfacet
  facet normal 0 0 1
    outer loop
      vertex -7.25396 0.223869 0
      vertex -9.34964 1.55452 0
      vertex -9.29846 0.223869 0
    endloop
  endfacet
  facet normal -0 0 1
    outer loop
      vertex -9.75906 3.62452 0
      vertex -7.58962 3.30596 0
      vertex -8.0092 4.51133 0
    endloop
  endfacet
  facet normal 0 0 1
    outer loop
      vertex -9.51525 -2.20589 0
      vertex -7.3417 -1.3626 0
      vertex -9.29846 0.223869 0
    endloop
  endfacet
  facet normal 0 0 1
    outer loop
      vertex -10.1173 4.36387 0
      vertex -8.0092 4.51133 0
      vertex -8.59661 5.49292 0
    endloop
  endfacet
  facet normal 0 0 1
    outer loop
      vertex -7.3417 -1.3626 0
      vertex -9.51525 -2.20589 0
      vertex -7.60489 -2.76536 0
    endloop
  endfacet
  facet normal 0 0 1
    outer loop
      vertex -7.60489 -2.76536 0
      vertex -9.51525 -2.20589 0
      vertex -8.04354 -3.98438 0
    endloop
  endfacet
  facet normal 0 0 1
    outer loop
      vertex -7.25396 0.223869 0
      vertex -9.29846 0.223869 0
      vertex -7.3417 -1.3626 0
    endloop
  endfacet
  facet normal 0 0 1
    outer loop
      vertex -10.1173 4.36387 0
      vertex -8.59661 5.49292 0
      vertex -9.3525 6.25391 0
    endloop
  endfacet
  facet normal 0 0 1
    outer loop
      vertex -7.33788 1.87681 0
      vertex -9.50317 2.68807 0
      vertex -9.34964 1.55452 0
    endloop
  endfacet
  facet normal 0 0 1
    outer loop
      vertex -7.58962 3.30596 0
      vertex -9.75906 3.62452 0
      vertex -9.50317 2.68807 0
    endloop
  endfacet
  facet normal 0 0 1
    outer loop
      vertex -8.0092 4.51133 0
      vertex -10.1173 4.36387 0
      vertex -9.75906 3.62452 0
    endloop
  endfacet
  facet normal 0 0 1
    outer loop
      vertex -10.583 4.92457 0
      vertex -9.3525 6.25391 0
      vertex -10.2775 6.79747 0
    endloop
  endfacet
  facet normal 0 0 1
    outer loop
      vertex -9.3525 6.25391 0
      vertex -10.583 4.92457 0
      vertex -10.1173 4.36387 0
    endloop
  endfacet
  facet normal 0 0 1
    outer loop
      vertex -10.2775 6.79747 0
      vertex -11.1612 5.32507 0
      vertex -10.583 4.92457 0
    endloop
  endfacet
  facet normal 0 0 1
    outer loop
      vertex -11.3717 7.12361 0
      vertex -11.1612 5.32507 0
      vertex -10.2775 6.79747 0
    endloop
  endfacet
  facet normal 0 0 1
    outer loop
      vertex -11.3717 7.12361 0
      vertex -11.8519 5.56537 0
      vertex -11.1612 5.32507 0
    endloop
  endfacet
  facet normal 0 0 1
    outer loop
      vertex -12.6349 7.23232 0
      vertex -11.8519 5.56537 0
      vertex -11.3717 7.12361 0
    endloop
  endfacet
  facet normal 0 0 1
    outer loop
      vertex -12.6349 7.23232 0
      vertex -12.6552 5.64547 0
      vertex -11.8519 5.56537 0
    endloop
  endfacet
  facet normal 0 0 1
    outer loop
      vertex -12.6349 7.23232 0
      vertex -13.6317 5.49862 0
      vertex -12.6552 5.64547 0
    endloop
  endfacet
  facet normal -0 0 1
    outer loop
      vertex -14.2478 7.02189 0
      vertex -13.6317 5.49862 0
      vertex -12.6349 7.23232 0
    endloop
  endfacet
  facet normal 0 0 1
    outer loop
      vertex -14.2478 7.02189 0
      vertex -14.4454 5.05807 0
      vertex -13.6317 5.49862 0
    endloop
  endfacet
  facet normal -0 0 1
    outer loop
      vertex -15.5669 6.39059 0
      vertex -14.4454 5.05807 0
      vertex -14.2478 7.02189 0
    endloop
  endfacet
  facet normal 0 0 1
    outer loop
      vertex -14.4454 5.05807 0
      vertex -15.5669 6.39059 0
      vertex -15.0964 4.32382 0
    endloop
  endfacet
  facet normal -0 0 1
    outer loop
      vertex -16.5924 5.33844 0
      vertex -15.0964 4.32382 0
      vertex -15.5669 6.39059 0
    endloop
  endfacet
  facet normal 0 0 1
    outer loop
      vertex -15.0964 4.32382 0
      vertex -16.5924 5.33844 0
      vertex -15.5847 3.29587 0
    endloop
  endfacet
  facet normal 0 0 1
    outer loop
      vertex -15.5847 3.29587 0
      vertex -16.5924 5.33844 0
      vertex -17.3241 3.86542 0
    endloop
  endfacet
  facet normal -0 0 1
    outer loop
      vertex -10.1656 -3.94144 0
      vertex -8.04354 -3.98438 0
      vertex -9.51525 -2.20589 0
    endloop
  endfacet
  facet normal 0 0 1
    outer loop
      vertex -8.04354 -3.98438 0
      vertex -10.1656 -3.94144 0
      vertex -8.65766 -5.01967 0
    endloop
  endfacet
  facet normal 0 0 1
    outer loop
      vertex -8.65766 -5.01967 0
      vertex -10.1656 -3.94144 0
      vertex -9.43072 -5.84517 0
    endloop
  endfacet
  facet normal -0 0 1
    outer loop
      vertex -11.2495 -4.98277 0
      vertex -9.43072 -5.84517 0
      vertex -10.1656 -3.94144 0
    endloop
  endfacet
  facet normal 0 0 1
    outer loop
      vertex -9.43072 -5.84517 0
      vertex -11.2495 -4.98277 0
      vertex -10.3462 -6.43481 0
    endloop
  endfacet
  facet normal 0 0 1
    outer loop
      vertex -11.2495 -4.98277 0
      vertex -11.404 -6.78859 0
      vertex -10.3462 -6.43481 0
    endloop
  endfacet
  facet normal -0 0 1
    outer loop
      vertex -12.7671 -5.32987 0
      vertex -11.404 -6.78859 0
      vertex -11.2495 -4.98277 0
    endloop
  endfacet
  facet normal 0 0 1
    outer loop
      vertex -11.404 -6.78859 0
      vertex -12.7671 -5.32987 0
      vertex -12.6043 -6.90652 0
    endloop
  endfacet
  facet normal 0 0 1
    outer loop
      vertex -13.1161 -5.31652 0
      vertex -12.6043 -6.90652 0
      vertex -12.7671 -5.32987 0
    endloop
  endfacet
  facet normal 0 0 1
    outer loop
      vertex -13.7868 -6.80926 0
      vertex -13.1161 -5.31652 0
      vertex -13.4714 -5.27647 0
    endloop
  endfacet
  facet normal 0 0 1
    outer loop
      vertex -13.1161 -5.31652 0
      vertex -13.7868 -6.80926 0
      vertex -12.6043 -6.90652 0
    endloop
  endfacet
  facet normal 0 0 1
    outer loop
      vertex -13.8331 -5.20972 0
      vertex -13.7868 -6.80926 0
      vertex -13.4714 -5.27647 0
    endloop
  endfacet
  facet normal 0 0 1
    outer loop
      vertex -14.9643 -6.51746 0
      vertex -13.8331 -5.20972 0
      vertex -14.2012 -5.11627 0
    endloop
  endfacet
  facet normal 0 0 1
    outer loop
      vertex -14.9643 -6.51746 0
      vertex -14.2012 -5.11627 0
      vertex -14.5554 -5.00248 0
    endloop
  endfacet
  facet normal 0 0 1
    outer loop
      vertex -14.9643 -6.51746 0
      vertex -14.5554 -5.00248 0
      vertex -14.8752 -4.87469 0
    endloop
  endfacet
  facet normal 0 0 1
    outer loop
      vertex -13.8331 -5.20972 0
      vertex -14.9643 -6.51746 0
      vertex -13.7868 -6.80926 0
    endloop
  endfacet
  facet normal 0 0 1
    outer loop
      vertex -16.1366 -6.03113 0
      vertex -14.8752 -4.87469 0
      vertex -15.1606 -4.73293 0
    endloop
  endfacet
  facet normal 0 0 1
    outer loop
      vertex -16.1366 -6.03113 0
      vertex -15.1606 -4.73293 0
      vertex -15.4117 -4.57717 0
    endloop
  endfacet
  facet normal 0 0 1
    outer loop
      vertex -14.8752 -4.87469 0
      vertex -16.1366 -6.03113 0
      vertex -14.9643 -6.51746 0
    endloop
  endfacet
  facet normal 0 0 1
    outer loop
      vertex 3.16481 2.12602 0
      vertex 4.79231 7.01872 0
      vertex 3.20546 5.18782 0
    endloop
  endfacet
  facet normal 0 0 1
    outer loop
      vertex 2.38166 7.01872 0
      vertex 2.84692 4.06828 0
      vertex 3.20546 5.18782 0
    endloop
  endfacet
  facet normal -0 0 1
    outer loop
      vertex 2.38166 7.01872 0
      vertex 3.20546 5.18782 0
      vertex 4.79231 7.01872 0
    endloop
  endfacet
  facet normal 0 0 1
    outer loop
      vertex 0.499763 2.04472 0
      vertex 2.84692 4.06828 0
      vertex 2.38166 7.01872 0
    endloop
  endfacet
  facet normal 0 0 1
    outer loop
      vertex 2.84692 4.06828 0
      vertex 0.499763 2.04472 0
      vertex 2.56466 3.20174 0
    endloop
  endfacet
  facet normal 0 0 1
    outer loop
      vertex 2.56466 3.20174 0
      vertex 0.499763 2.04472 0
      vertex 2.35867 2.58823 0
    endloop
  endfacet
  facet normal 0 0 1
    outer loop
      vertex 2.35867 2.58823 0
      vertex 0.499763 2.04472 0
      vertex 2.22897 2.22772 0
    endloop
  endfacet
  facet normal 0 0 1
    outer loop
      vertex 0.376434 1.6957 0
      vertex 2.22897 2.22772 0
      vertex 0.499763 2.04472 0
    endloop
  endfacet
  facet normal 0 0 1
    outer loop
      vertex 0.220047 1.18774 0
      vertex 2.22897 2.22772 0
      vertex 0.376434 1.6957 0
    endloop
  endfacet
  facet normal 0 0 1
    outer loop
      vertex 0.0306091 0.520821 0
      vertex 2.22897 2.22772 0
      vertex 0.220047 1.18774 0
    endloop
  endfacet
  facet normal 0 0 1
    outer loop
      vertex 2.22897 2.22772 0
      vertex 0.0306091 0.520821 0
      vertex 0.540565 -2.22742 0
    endloop
  endfacet
  facet normal -0 0 1
    outer loop
      vertex -0.191879 -0.305023 0
      vertex 0.540565 -2.22742 0
      vertex 0.0306091 0.520821 0
    endloop
  endfacet
  facet normal 0 0 1
    outer loop
      vertex -0.191879 -0.305023 0
      vertex -0.853081 -2.22742 0
      vertex 0.540565 -2.22742 0
    endloop
  endfacet
  facet normal 0 0 1
    outer loop
      vertex -0.456329 0.61042 0
      vertex -0.853081 -2.22742 0
      vertex -0.191879 -0.305023 0
    endloop
  endfacet
  facet normal 0 0 1
    outer loop
      vertex -2.52123 2.22772 0
      vertex -0.456329 0.61042 0
      vertex -0.903931 2.03452 0
    endloop
  endfacet
  facet normal 0 0 1
    outer loop
      vertex -0.456329 0.61042 0
      vertex -2.52123 2.22772 0
      vertex -0.853081 -2.22742 0
    endloop
  endfacet
  facet normal 0 0 1
    outer loop
      vertex -0.903931 2.03452 0
      vertex -2.69986 2.73695 0
      vertex -2.52123 2.22772 0
    endloop
  endfacet
  facet normal -0 0 1
    outer loop
      vertex -3.18301 4.217 0
      vertex -0.903931 2.03452 0
      vertex -2.78568 7.01872 0
    endloop
  endfacet
  facet normal 0 0 1
    outer loop
      vertex -0.903931 2.03452 0
      vertex -2.92046 3.40005 0
      vertex -2.69986 2.73695 0
    endloop
  endfacet
  facet normal 0 0 1
    outer loop
      vertex -0.903931 2.03452 0
      vertex -3.18301 4.217 0
      vertex -2.92046 3.40005 0
    endloop
  endfacet
  facet normal 0 0 1
    outer loop
      vertex -2.78568 7.01872 0
      vertex -3.48753 5.18782 0
      vertex -3.18301 4.217 0
    endloop
  endfacet
  facet normal 0 -0 1
    outer loop
      vertex -3.48753 5.18782 0
      vertex -2.78568 7.01872 0
      vertex -5.07438 7.01872 0
    endloop
  endfacet
  facet normal 0 0 1
    outer loop
      vertex 4.79231 7.01872 0
      vertex 3.16481 2.12602 0
      vertex 4.79231 -6.70312 0
    endloop
  endfacet
  facet normal 0 0 1
    outer loop
      vertex 4.79231 -6.70312 0
      vertex 3.16481 2.12602 0
      vertex 3.16481 -6.70312 0
    endloop
  endfacet
  facet normal 0 0 1
    outer loop
      vertex -5.07438 7.01872 0
      vertex -3.42648 2.12602 0
      vertex -3.42839 2.76878 0
    endloop
  endfacet
  facet normal 0 0 1
    outer loop
      vertex -5.07438 7.01872 0
      vertex -3.42839 2.76878 0
      vertex -3.43413 3.32381 0
    endloop
  endfacet
  facet normal 0 0 1
    outer loop
      vertex -5.07438 7.01872 0
      vertex -3.43413 3.32381 0
      vertex -3.4437 3.79111 0
    endloop
  endfacet
  facet normal 0 0 1
    outer loop
      vertex -5.07438 7.01872 0
      vertex -3.4437 3.79111 0
      vertex -3.45708 4.17067 0
    endloop
  endfacet
  facet normal 0 0 1
    outer loop
      vertex -5.07438 7.01872 0
      vertex -3.45708 4.17067 0
      vertex -3.48753 5.18782 0
    endloop
  endfacet
  facet normal 0 0 1
    outer loop
      vertex -3.42648 2.12602 0
      vertex -5.07438 7.01872 0
      vertex -5.07438 -6.70312 0
    endloop
  endfacet
  facet normal 0 0 1
    outer loop
      vertex -3.42648 2.12602 0
      vertex -5.07438 -6.70312 0
      vertex -3.42648 -6.70312 0
    endloop
  endfacet
  facet normal -0.31631 -0.948656 0
    outer loop
      vertex 9.84924 -6.4437 -4
      vertex 10.8903 -6.79082 0
      vertex 9.84924 -6.4437 0
    endloop
  endfacet
  facet normal -0.31631 -0.948656 -0
    outer loop
      vertex 10.8903 -6.79082 0
      vertex 9.84924 -6.4437 -4
      vertex 10.8903 -6.79082 -4
    endloop
  endfacet
  facet normal -0.543214 -0.839595 0
    outer loop
      vertex 8.95506 -5.86517 -4
      vertex 9.84924 -6.4437 0
      vertex 8.95506 -5.86517 0
    endloop
  endfacet
  facet normal -0.543214 -0.839595 -0
    outer loop
      vertex 9.84924 -6.4437 0
      vertex 8.95506 -5.86517 -4
      vertex 9.84924 -6.4437 -4
    endloop
  endfacet
  facet normal -0.734955 -0.678115 0
    outer loop
      vertex 8.95506 -5.86517 -4
      vertex 8.20775 -5.05522 0
      vertex 8.20775 -5.05522 -4
    endloop
  endfacet
  facet normal -0.734955 -0.678115 0
    outer loop
      vertex 8.20775 -5.05522 0
      vertex 8.95506 -5.86517 -4
      vertex 8.95506 -5.86517 0
    endloop
  endfacet
  facet normal -0.866633 -0.498946 0
    outer loop
      vertex 8.20775 -5.05522 -4
      vertex 7.6181 -4.03104 0
      vertex 7.6181 -4.03104 -4
    endloop
  endfacet
  facet normal -0.866633 -0.498946 0
    outer loop
      vertex 7.6181 -4.03104 0
      vertex 8.20775 -5.05522 -4
      vertex 8.20775 -5.05522 0
    endloop
  endfacet
  facet normal -0.94536 -0.326027 0
    outer loop
      vertex 7.6181 -4.03104 -4
      vertex 7.19693 -2.8098 0
      vertex 7.19693 -2.8098 -4
    endloop
  endfacet
  facet normal -0.94536 -0.326027 0
    outer loop
      vertex 7.19693 -2.8098 0
      vertex 7.6181 -4.03104 -4
      vertex 7.6181 -4.03104 0
    endloop
  endfacet
  facet normal -0.984496 -0.175407 0
    outer loop
      vertex 7.19693 -2.8098 -4
      vertex 6.94423 -1.39149 0
      vertex 6.94423 -1.39149 -4
    endloop
  endfacet
  facet normal -0.984496 -0.175407 0
    outer loop
      vertex 6.94423 -1.39149 0
      vertex 7.19693 -2.8098 -4
      vertex 7.19693 -2.8098 0
    endloop
  endfacet
  facet normal -0.998643 -0.0520786 0
    outer loop
      vertex 6.94423 -1.39149 -4
      vertex 6.85999 0.223869 0
      vertex 6.85999 0.223869 -4
    endloop
  endfacet
  facet normal -0.998643 -0.0520786 0
    outer loop
      vertex 6.85999 0.223869 0
      vertex 6.94423 -1.39149 -4
      vertex 6.94423 -1.39149 0
    endloop
  endfacet
  facet normal -0.998681 0.0513513 0
    outer loop
      vertex 6.85999 0.223869 -4
      vertex 6.94392 1.85614 0
      vertex 6.94392 1.85614 -4
    endloop
  endfacet
  facet normal -0.998681 0.0513513 0
    outer loop
      vertex 6.94392 1.85614 0
      vertex 6.85999 0.223869 -4
      vertex 6.85999 0.223869 0
    endloop
  endfacet
  facet normal -0.984601 0.174816 0
    outer loop
      vertex 6.94392 1.85614 -4
      vertex 7.19569 3.27416 0
      vertex 7.19569 3.27416 -4
    endloop
  endfacet
  facet normal -0.984601 0.174816 0
    outer loop
      vertex 7.19569 3.27416 0
      vertex 6.94392 1.85614 -4
      vertex 6.94392 1.85614 0
    endloop
  endfacet
  facet normal -0.94427 0.329172 0
    outer loop
      vertex 7.19569 3.27416 -4
      vertex 7.61532 4.47792 0
      vertex 7.61532 4.47792 -4
    endloop
  endfacet
  facet normal -0.94427 0.329172 0
    outer loop
      vertex 7.61532 4.47792 0
      vertex 7.19569 3.27416 -4
      vertex 7.19569 3.27416 0
    endloop
  endfacet
  facet normal -0.859868 0.510516 0
    outer loop
      vertex 7.61532 4.47792 -4
      vertex 8.2028 5.46742 0
      vertex 8.2028 5.46742 -4
    endloop
  endfacet
  facet normal -0.859868 0.510516 0
    outer loop
      vertex 8.2028 5.46742 0
      vertex 7.61532 4.47792 -4
      vertex 7.61532 4.47792 0
    endloop
  endfacet
  facet normal -0.719907 0.694071 0
    outer loop
      vertex 8.2028 5.46742 -4
      vertex 8.94723 6.23956 0
      vertex 8.94723 6.23956 -4
    endloop
  endfacet
  facet normal -0.719907 0.694071 0
    outer loop
      vertex 8.94723 6.23956 0
      vertex 8.2028 5.46742 -4
      vertex 8.2028 5.46742 0
    endloop
  endfacet
  facet normal -0.526487 0.850183 0
    outer loop
      vertex 9.83787 6.7911 -4
      vertex 8.94723 6.23956 0
      vertex 9.83787 6.7911 0
    endloop
  endfacet
  facet normal -0.526487 0.850183 0
    outer loop
      vertex 8.94723 6.23956 0
      vertex 9.83787 6.7911 -4
      vertex 8.94723 6.23956 -4
    endloop
  endfacet
  facet normal -0.304054 0.952655 0
    outer loop
      vertex 10.8747 7.12202 -4
      vertex 9.83787 6.7911 0
      vertex 10.8747 7.12202 0
    endloop
  endfacet
  facet normal -0.304054 0.952655 0
    outer loop
      vertex 9.83787 6.7911 0
      vertex 10.8747 7.12202 -4
      vertex 9.83787 6.7911 -4
    endloop
  endfacet
  facet normal -0.0928271 0.995682 0
    outer loop
      vertex 12.0578 7.23232 -4
      vertex 10.8747 7.12202 0
      vertex 12.0578 7.23232 0
    endloop
  endfacet
  facet normal -0.0928271 0.995682 0
    outer loop
      vertex 10.8747 7.12202 0
      vertex 12.0578 7.23232 -4
      vertex 10.8747 7.12202 -4
    endloop
  endfacet
  facet normal 0.092184 0.995742 -0
    outer loop
      vertex 13.2664 7.12043 -4
      vertex 12.0578 7.23232 0
      vertex 13.2664 7.12043 0
    endloop
  endfacet
  facet normal 0.092184 0.995742 0
    outer loop
      vertex 12.0578 7.23232 0
      vertex 13.2664 7.12043 -4
      vertex 12.0578 7.23232 -4
    endloop
  endfacet
  facet normal 0.303926 0.952696 -0
    outer loop
      vertex 14.3186 6.78476 -4
      vertex 13.2664 7.12043 0
      vertex 14.3186 6.78476 0
    endloop
  endfacet
  facet normal 0.303926 0.952696 0
    outer loop
      vertex 13.2664 7.12043 0
      vertex 14.3186 6.78476 -4
      vertex 13.2664 7.12043 -4
    endloop
  endfacet
  facet normal 0.529759 0.848148 -0
    outer loop
      vertex 15.2143 6.2253 -4
      vertex 14.3186 6.78476 0
      vertex 15.2143 6.2253 0
    endloop
  endfacet
  facet normal 0.529759 0.848148 0
    outer loop
      vertex 14.3186 6.78476 0
      vertex 15.2143 6.2253 -4
      vertex 14.3186 6.78476 -4
    endloop
  endfacet
  facet normal 0.72716 0.686468 0
    outer loop
      vertex 15.9537 5.44207 0
      vertex 15.2143 6.2253 -4
      vertex 15.2143 6.2253 0
    endloop
  endfacet
  facet normal 0.72716 0.686468 0
    outer loop
      vertex 15.2143 6.2253 -4
      vertex 15.9537 5.44207 0
      vertex 15.9537 5.44207 -4
    endloop
  endfacet
  facet normal 0.865046 0.501693 0
    outer loop
      vertex 16.5322 4.44459 0
      vertex 15.9537 5.44207 -4
      vertex 15.9537 5.44207 0
    endloop
  endfacet
  facet normal 0.865046 0.501693 0
    outer loop
      vertex 15.9537 5.44207 -4
      vertex 16.5322 4.44459 0
      vertex 16.5322 4.44459 -4
    endloop
  endfacet
  facet normal 0.9457 0.32504 0
    outer loop
      vertex 16.9454 3.24239 0
      vertex 16.5322 4.44459 -4
      vertex 16.5322 4.44459 0
    endloop
  endfacet
  facet normal 0.9457 0.32504 0
    outer loop
      vertex 16.5322 4.44459 -4
      vertex 16.9454 3.24239 0
      vertex 16.9454 3.24239 -4
    endloop
  endfacet
  facet normal 0.984817 0.173598 0
    outer loop
      vertex 17.1934 1.83549 0
      vertex 16.9454 3.24239 -4
      vertex 16.9454 3.24239 0
    endloop
  endfacet
  facet normal 0.984817 0.173598 0
    outer loop
      vertex 16.9454 3.24239 -4
      vertex 17.1934 1.83549 0
      vertex 17.1934 1.83549 -4
    endloop
  endfacet
  facet normal 0.998689 0.0511856 0
    outer loop
      vertex 17.276 0.223869 0
      vertex 17.1934 1.83549 -4
      vertex 17.1934 1.83549 0
    endloop
  endfacet
  facet normal 0.998689 0.0511856 0
    outer loop
      vertex 17.1934 1.83549 -4
      vertex 17.276 0.223869 0
      vertex 17.276 0.223869 -4
    endloop
  endfacet
  facet normal 0.998713 -0.0507221 0
    outer loop
      vertex 17.1927 -1.4163 0
      vertex 17.276 0.223869 -4
      vertex 17.276 0.223869 0
    endloop
  endfacet
  facet normal 0.998713 -0.0507221 0
    outer loop
      vertex 17.276 0.223869 -4
      vertex 17.1927 -1.4163 0
      vertex 17.1927 -1.4163 -4
    endloop
  endfacet
  facet normal 0.985117 -0.171885 0
    outer loop
      vertex 16.9429 -2.84797 0
      vertex 17.1927 -1.4163 -4
      vertex 17.1927 -1.4163 0
    endloop
  endfacet
  facet normal 0.985117 -0.171885 0
    outer loop
      vertex 17.1927 -1.4163 -4
      vertex 16.9429 -2.84797 0
      vertex 16.9429 -2.84797 -4
    endloop
  endfacet
  facet normal 0.94665 -0.322265 0
    outer loop
      vertex 16.5265 -4.07114 0
      vertex 16.9429 -2.84797 -4
      vertex 16.9429 -2.84797 0
    endloop
  endfacet
  facet normal 0.94665 -0.322265 0
    outer loop
      vertex 16.9429 -2.84797 -4
      vertex 16.5265 -4.07114 0
      vertex 16.5265 -4.07114 -4
    endloop
  endfacet
  facet normal 0.867069 -0.498188 0
    outer loop
      vertex 15.9435 -5.08582 0
      vertex 16.5265 -4.07114 -4
      vertex 16.5265 -4.07114 0
    endloop
  endfacet
  facet normal 0.867069 -0.498188 0
    outer loop
      vertex 16.5265 -4.07114 -4
      vertex 15.9435 -5.08582 0
      vertex 15.9435 -5.08582 -4
    endloop
  endfacet
  facet normal 0.732043 -0.681259 0
    outer loop
      vertex 15.2022 -5.88238 0
      vertex 15.9435 -5.08582 -4
      vertex 15.9435 -5.08582 0
    endloop
  endfacet
  facet normal 0.732043 -0.681259 0
    outer loop
      vertex 15.9435 -5.08582 -4
      vertex 15.2022 -5.88238 0
      vertex 15.2022 -5.88238 -4
    endloop
  endfacet
  facet normal 0.538072 -0.842899 0
    outer loop
      vertex 14.3109 -6.45135 -4
      vertex 15.2022 -5.88238 0
      vertex 14.3109 -6.45135 0
    endloop
  endfacet
  facet normal 0.538072 -0.842899 0
    outer loop
      vertex 15.2022 -5.88238 0
      vertex 14.3109 -6.45135 -4
      vertex 15.2022 -5.88238 -4
    endloop
  endfacet
  facet normal 0.311518 -0.95024 0
    outer loop
      vertex 13.2696 -6.79272 -4
      vertex 14.3109 -6.45135 0
      vertex 13.2696 -6.79272 0
    endloop
  endfacet
  facet normal 0.311518 -0.95024 0
    outer loop
      vertex 14.3109 -6.45135 0
      vertex 13.2696 -6.79272 -4
      vertex 14.3109 -6.45135 -4
    endloop
  endfacet
  facet normal 0.0950851 -0.995469 0
    outer loop
      vertex 12.0782 -6.90652 -4
      vertex 13.2696 -6.79272 0
      vertex 12.0782 -6.90652 0
    endloop
  endfacet
  facet normal 0.0950851 -0.995469 0
    outer loop
      vertex 13.2696 -6.79272 0
      vertex 12.0782 -6.90652 -4
      vertex 13.2696 -6.79272 -4
    endloop
  endfacet
  facet normal -0.09694 -0.99529 0
    outer loop
      vertex 10.8903 -6.79082 -4
      vertex 12.0782 -6.90652 0
      vertex 10.8903 -6.79082 0
    endloop
  endfacet
  facet normal -0.09694 -0.99529 -0
    outer loop
      vertex 12.0782 -6.90652 0
      vertex 10.8903 -6.79082 -4
      vertex 12.0782 -6.90652 -4
    endloop
  endfacet
  facet normal -0.381873 0.924215 0
    outer loop
      vertex 13.4361 -4.97894 -4
      vertex 12.7991 -5.24214 0
      vertex 13.4361 -4.97894 0
    endloop
  endfacet
  facet normal -0.381873 0.924215 0
    outer loop
      vertex 12.7991 -5.24214 0
      vertex 13.4361 -4.97894 -4
      vertex 12.7991 -5.24214 -4
    endloop
  endfacet
  facet normal -0.6284 0.77789 0
    outer loop
      vertex 13.9791 -4.54029 -4
      vertex 13.4361 -4.97894 0
      vertex 13.9791 -4.54029 0
    endloop
  endfacet
  facet normal -0.6284 0.77789 0
    outer loop
      vertex 13.4361 -4.97894 0
      vertex 13.9791 -4.54029 -4
      vertex 13.4361 -4.97894 -4
    endloop
  endfacet
  facet normal -0.807379 0.590034 0
    outer loop
      vertex 13.9791 -4.54029 -4
      vertex 14.4279 -3.92617 0
      vertex 14.4279 -3.92617 -4
    endloop
  endfacet
  facet normal -0.807379 0.590034 0
    outer loop
      vertex 14.4279 -3.92617 0
      vertex 13.9791 -4.54029 -4
      vertex 13.9791 -4.54029 0
    endloop
  endfacet
  facet normal -0.912787 0.408435 0
    outer loop
      vertex 14.4279 -3.92617 -4
      vertex 14.7795 -3.1404 0
      vertex 14.7795 -3.1404 -4
    endloop
  endfacet
  facet normal -0.912787 0.408435 0
    outer loop
      vertex 14.7795 -3.1404 0
      vertex 14.4279 -3.92617 -4
      vertex 14.4279 -3.92617 0
    endloop
  endfacet
  facet normal -0.967036 0.254641 0
    outer loop
      vertex 14.7795 -3.1404 -4
      vertex 15.0306 -2.18681 0
      vertex 15.0306 -2.18681 -4
    endloop
  endfacet
  facet normal -0.967036 0.254641 0
    outer loop
      vertex 15.0306 -2.18681 0
      vertex 14.7795 -3.1404 -4
      vertex 14.7795 -3.1404 0
    endloop
  endfacet
  facet normal -0.991091 0.133185 0
    outer loop
      vertex 15.0306 -2.18681 -4
      vertex 15.1813 -1.06538 0
      vertex 15.1813 -1.06538 -4
    endloop
  endfacet
  facet normal -0.991091 0.133185 0
    outer loop
      vertex 15.1813 -1.06538 0
      vertex 15.0306 -2.18681 -4
      vertex 15.0306 -2.18681 0
    endloop
  endfacet
  facet normal -0.999243 0.0389079 0
    outer loop
      vertex 15.1813 -1.06538 -4
      vertex 15.2315 0.223869 0
      vertex 15.2315 0.223869 -4
    endloop
  endfacet
  facet normal -0.999243 0.0389079 0
    outer loop
      vertex 15.2315 0.223869 0
      vertex 15.1813 -1.06538 -4
      vertex 15.1813 -1.06538 0
    endloop
  endfacet
  facet normal -0.99652 -0.0833531 0
    outer loop
      vertex 15.2315 0.223869 -4
      vertex 15.0331 2.59582 0
      vertex 15.0331 2.59582 -4
    endloop
  endfacet
  facet normal -0.99652 -0.0833531 0
    outer loop
      vertex 15.0331 2.59582 0
      vertex 15.2315 0.223869 -4
      vertex 15.2315 0.223869 0
    endloop
  endfacet
  facet normal -0.943508 -0.331349 0
    outer loop
      vertex 15.0331 2.59582 -4
      vertex 14.4381 4.29007 0
      vertex 14.4381 4.29007 -4
    endloop
  endfacet
  facet normal -0.943508 -0.331349 0
    outer loop
      vertex 14.4381 4.29007 0
      vertex 15.0331 2.59582 -4
      vertex 15.0331 2.59582 0
    endloop
  endfacet
  facet normal -0.715766 -0.69834 0
    outer loop
      vertex 14.4381 4.29007 -4
      vertex 13.4463 5.30662 0
      vertex 13.4463 5.30662 -4
    endloop
  endfacet
  facet normal -0.715766 -0.69834 0
    outer loop
      vertex 13.4463 5.30662 0
      vertex 14.4381 4.29007 -4
      vertex 14.4381 4.29007 0
    endloop
  endfacet
  facet normal -0.237083 -0.971489 0
    outer loop
      vertex 12.0578 5.64547 -4
      vertex 13.4463 5.30662 0
      vertex 12.0578 5.64547 0
    endloop
  endfacet
  facet normal -0.237083 -0.971489 -0
    outer loop
      vertex 13.4463 5.30662 0
      vertex 12.0578 5.64547 -4
      vertex 13.4463 5.30662 -4
    endloop
  endfacet
  facet normal 0.238525 -0.971136 0
    outer loop
      vertex 10.6782 5.30662 -4
      vertex 12.0578 5.64547 0
      vertex 10.6782 5.30662 0
    endloop
  endfacet
  facet normal 0.238525 -0.971136 0
    outer loop
      vertex 12.0578 5.64547 0
      vertex 10.6782 5.30662 -4
      vertex 12.0578 5.64547 -4
    endloop
  endfacet
  facet normal 0.718029 -0.696013 0
    outer loop
      vertex 9.69282 4.29007 0
      vertex 10.6782 5.30662 -4
      vertex 10.6782 5.30662 0
    endloop
  endfacet
  facet normal 0.718029 -0.696013 0
    outer loop
      vertex 10.6782 5.30662 -4
      vertex 9.69282 4.29007 0
      vertex 9.69282 4.29007 -4
    endloop
  endfacet
  facet normal 0.944162 -0.329483 0
    outer loop
      vertex 9.10158 2.59582 0
      vertex 9.69282 4.29007 -4
      vertex 9.69282 4.29007 0
    endloop
  endfacet
  facet normal 0.944162 -0.329483 0
    outer loop
      vertex 9.69282 4.29007 -4
      vertex 9.10158 2.59582 0
      vertex 9.10158 2.59582 -4
    endloop
  endfacet
  facet normal 0.996566 -0.0828024 0
    outer loop
      vertex 8.9045 0.223869 0
      vertex 9.10158 2.59582 -4
      vertex 9.10158 2.59582 0
    endloop
  endfacet
  facet normal 0.996566 -0.0828024 0
    outer loop
      vertex 9.10158 2.59582 -4
      vertex 8.9045 0.223869 0
      vertex 8.9045 0.223869 -4
    endloop
  endfacet
  facet normal 0.999317 0.0369423 0
    outer loop
      vertex 8.95155 -1.04887 0
      vertex 8.9045 0.223869 -4
      vertex 8.9045 0.223869 0
    endloop
  endfacet
  facet normal 0.999317 0.0369423 0
    outer loop
      vertex 8.9045 0.223869 -4
      vertex 8.95155 -1.04887 0
      vertex 8.95155 -1.04887 -4
    endloop
  endfacet
  facet normal 0.992048 0.125862 0
    outer loop
      vertex 9.0927 -2.16142 0
      vertex 8.95155 -1.04887 -4
      vertex 8.95155 -1.04887 0
    endloop
  endfacet
  facet normal 0.992048 0.125862 0
    outer loop
      vertex 8.95155 -1.04887 -4
      vertex 9.0927 -2.16142 0
      vertex 9.0927 -2.16142 -4
    endloop
  endfacet
  facet normal 0.970815 0.239832 0
    outer loop
      vertex 9.32797 -3.11377 0
      vertex 9.0927 -2.16142 -4
      vertex 9.0927 -2.16142 0
    endloop
  endfacet
  facet normal 0.970815 0.239832 0
    outer loop
      vertex 9.0927 -2.16142 -4
      vertex 9.32797 -3.11377 0
      vertex 9.32797 -3.11377 -4
    endloop
  endfacet
  facet normal 0.923359 0.383937 0
    outer loop
      vertex 9.65735 -3.90592 0
      vertex 9.32797 -3.11377 -4
      vertex 9.32797 -3.11377 0
    endloop
  endfacet
  facet normal 0.923359 0.383937 0
    outer loop
      vertex 9.32797 -3.11377 -4
      vertex 9.65735 -3.90592 0
      vertex 9.65735 -3.90592 -4
    endloop
  endfacet
  facet normal 0.821169 0.570685 0
    outer loop
      vertex 10.0903 -4.5289 0
      vertex 9.65735 -3.90592 -4
      vertex 9.65735 -3.90592 0
    endloop
  endfacet
  facet normal 0.821169 0.570685 0
    outer loop
      vertex 9.65735 -3.90592 -4
      vertex 10.0903 -4.5289 0
      vertex 10.0903 -4.5289 -4
    endloop
  endfacet
  facet normal 0.631681 0.775228 -0
    outer loop
      vertex 10.6364 -4.97388 -4
      vertex 10.0903 -4.5289 0
      vertex 10.6364 -4.97388 0
    endloop
  endfacet
  facet normal 0.631681 0.775228 0
    outer loop
      vertex 10.0903 -4.5289 0
      vertex 10.6364 -4.97388 -4
      vertex 10.0903 -4.5289 -4
    endloop
  endfacet
  facet normal 0.375411 0.926858 -0
    outer loop
      vertex 11.2956 -5.24088 -4
      vertex 10.6364 -4.97388 0
      vertex 11.2956 -5.24088 0
    endloop
  endfacet
  facet normal 0.375411 0.926858 0
    outer loop
      vertex 10.6364 -4.97388 0
      vertex 11.2956 -5.24088 -4
      vertex 10.6364 -4.97388 -4
    endloop
  endfacet
  facet normal 0.114455 0.993428 -0
    outer loop
      vertex 12.068 -5.32987 -4
      vertex 11.2956 -5.24088 0
      vertex 12.068 -5.32987 0
    endloop
  endfacet
  facet normal 0.114455 0.993428 0
    outer loop
      vertex 11.2956 -5.24088 0
      vertex 12.068 -5.32987 -4
      vertex 11.2956 -5.24088 -4
    endloop
  endfacet
  facet normal -0.119143 0.992877 0
    outer loop
      vertex 12.7991 -5.24214 -4
      vertex 12.068 -5.32987 0
      vertex 12.7991 -5.24214 0
    endloop
  endfacet
  facet normal -0.119143 0.992877 0
    outer loop
      vertex 12.068 -5.32987 0
      vertex 12.7991 -5.24214 -4
      vertex 12.068 -5.32987 -4
    endloop
  endfacet
  facet normal -0.240537 -0.97064 0
    outer loop
      vertex -14.9643 -6.51746 -4
      vertex -13.7868 -6.80926 0
      vertex -14.9643 -6.51746 0
    endloop
  endfacet
  facet normal -0.240537 -0.97064 -0
    outer loop
      vertex -13.7868 -6.80926 0
      vertex -14.9643 -6.51746 -4
      vertex -13.7868 -6.80926 -4
    endloop
  endfacet
  facet normal -0.383186 -0.923671 0
    outer loop
      vertex -16.1366 -6.03113 -4
      vertex -14.9643 -6.51746 0
      vertex -16.1366 -6.03113 0
    endloop
  endfacet
  facet normal -0.383186 -0.923671 -0
    outer loop
      vertex -14.9643 -6.51746 0
      vertex -16.1366 -6.03113 -4
      vertex -14.9643 -6.51746 -4
    endloop
  endfacet
  facet normal -0.503867 -0.863781 0
    outer loop
      vertex -17.3038 -5.35027 -4
      vertex -16.1366 -6.03113 0
      vertex -17.3038 -5.35027 0
    endloop
  endfacet
  facet normal -0.503867 -0.863781 -0
    outer loop
      vertex -16.1366 -6.03113 0
      vertex -17.3038 -5.35027 -4
      vertex -16.1366 -6.03113 -4
    endloop
  endfacet
  facet normal -1 0 0
    outer loop
      vertex -17.3038 -5.35027 -4
      vertex -17.3038 0.468071 0
      vertex -17.3038 0.468071 -4
    endloop
  endfacet
  facet normal -1 -0 0
    outer loop
      vertex -17.3038 0.468071 0
      vertex -17.3038 -5.35027 -4
      vertex -17.3038 -5.35027 0
    endloop
  endfacet
  facet normal 0 1 -0
    outer loop
      vertex -12.4314 0.468071 -4
      vertex -17.3038 0.468071 0
      vertex -12.4314 0.468071 0
    endloop
  endfacet
  facet normal 0 1 0
    outer loop
      vertex -17.3038 0.468071 0
      vertex -12.4314 0.468071 -4
      vertex -17.3038 0.468071 -4
    endloop
  endfacet
  facet normal 1 -0 0
    outer loop
      vertex -12.4314 -1.15942 0
      vertex -12.4314 0.468071 -4
      vertex -12.4314 0.468071 0
    endloop
  endfacet
  facet normal 1 0 0
    outer loop
      vertex -12.4314 0.468071 -4
      vertex -12.4314 -1.15942 0
      vertex -12.4314 -1.15942 -4
    endloop
  endfacet
  facet normal 0 -1 0
    outer loop
      vertex -15.4117 -1.15942 -4
      vertex -12.4314 -1.15942 0
      vertex -15.4117 -1.15942 0
    endloop
  endfacet
  facet normal 0 -1 -0
    outer loop
      vertex -12.4314 -1.15942 0
      vertex -15.4117 -1.15942 -4
      vertex -12.4314 -1.15942 -4
    endloop
  endfacet
  facet normal 1 -0 0
    outer loop
      vertex -15.4117 -4.57717 0
      vertex -15.4117 -1.15942 -4
      vertex -15.4117 -1.15942 0
    endloop
  endfacet
  facet normal 1 0 0
    outer loop
      vertex -15.4117 -1.15942 -4
      vertex -15.4117 -4.57717 0
      vertex -15.4117 -4.57717 -4
    endloop
  endfacet
  facet normal 0.52713 0.849784 -0
    outer loop
      vertex -15.1606 -4.73293 -4
      vertex -15.4117 -4.57717 0
      vertex -15.1606 -4.73293 0
    endloop
  endfacet
  facet normal 0.52713 0.849784 0
    outer loop
      vertex -15.4117 -4.57717 0
      vertex -15.1606 -4.73293 -4
      vertex -15.4117 -4.57717 -4
    endloop
  endfacet
  facet normal 0.444852 0.895604 -0
    outer loop
      vertex -14.8752 -4.87469 -4
      vertex -15.1606 -4.73293 0
      vertex -14.8752 -4.87469 0
    endloop
  endfacet
  facet normal 0.444852 0.895604 0
    outer loop
      vertex -15.1606 -4.73293 0
      vertex -14.8752 -4.87469 -4
      vertex -15.1606 -4.73293 -4
    endloop
  endfacet
  facet normal 0.371065 0.928607 -0
    outer loop
      vertex -14.5554 -5.00248 -4
      vertex -14.8752 -4.87469 0
      vertex -14.5554 -5.00248 0
    endloop
  endfacet
  facet normal 0.371065 0.928607 0
    outer loop
      vertex -14.8752 -4.87469 0
      vertex -14.5554 -5.00248 -4
      vertex -14.8752 -4.87469 -4
    endloop
  endfacet
  facet normal 0.305863 0.952076 -0
    outer loop
      vertex -14.2012 -5.11627 -4
      vertex -14.5554 -5.00248 0
      vertex -14.2012 -5.11627 0
    endloop
  endfacet
  facet normal 0.305863 0.952076 0
    outer loop
      vertex -14.5554 -5.00248 0
      vertex -14.2012 -5.11627 -4
      vertex -14.5554 -5.00248 -4
    endloop
  endfacet
  facet normal 0.246066 0.969253 -0
    outer loop
      vertex -13.8331 -5.20972 -4
      vertex -14.2012 -5.11627 0
      vertex -13.8331 -5.20972 0
    endloop
  endfacet
  facet normal 0.246066 0.969253 0
    outer loop
      vertex -14.2012 -5.11627 0
      vertex -13.8331 -5.20972 -4
      vertex -14.2012 -5.11627 -4
    endloop
  endfacet
  facet normal 0.181481 0.983394 -0
    outer loop
      vertex -13.4714 -5.27647 -4
      vertex -13.8331 -5.20972 0
      vertex -13.4714 -5.27647 0
    endloop
  endfacet
  facet normal 0.181481 0.983394 0
    outer loop
      vertex -13.8331 -5.20972 0
      vertex -13.4714 -5.27647 -4
      vertex -13.8331 -5.20972 -4
    endloop
  endfacet
  facet normal 0.112012 0.993707 -0
    outer loop
      vertex -13.1161 -5.31652 -4
      vertex -13.4714 -5.27647 0
      vertex -13.1161 -5.31652 0
    endloop
  endfacet
  facet normal 0.112012 0.993707 0
    outer loop
      vertex -13.4714 -5.27647 0
      vertex -13.1161 -5.31652 -4
      vertex -13.4714 -5.27647 -4
    endloop
  endfacet
  facet normal 0.0382242 0.999269 -0
    outer loop
      vertex -12.7671 -5.32987 -4
      vertex -13.1161 -5.31652 0
      vertex -12.7671 -5.32987 0
    endloop
  endfacet
  facet normal 0.0382242 0.999269 0
    outer loop
      vertex -13.1161 -5.31652 0
      vertex -12.7671 -5.32987 -4
      vertex -13.1161 -5.31652 -4
    endloop
  endfacet
  facet normal -0.222959 0.974828 0
    outer loop
      vertex -11.2495 -4.98277 -4
      vertex -12.7671 -5.32987 0
      vertex -11.2495 -4.98277 0
    endloop
  endfacet
  facet normal -0.222959 0.974828 0
    outer loop
      vertex -12.7671 -5.32987 0
      vertex -11.2495 -4.98277 -4
      vertex -12.7671 -5.32987 -4
    endloop
  endfacet
  facet normal -0.692804 0.721126 0
    outer loop
      vertex -10.1656 -3.94144 -4
      vertex -11.2495 -4.98277 0
      vertex -10.1656 -3.94144 0
    endloop
  endfacet
  facet normal -0.692804 0.721126 0
    outer loop
      vertex -11.2495 -4.98277 0
      vertex -10.1656 -3.94144 -4
      vertex -11.2495 -4.98277 -4
    endloop
  endfacet
  facet normal -0.936415 0.350896 0
    outer loop
      vertex -10.1656 -3.94144 -4
      vertex -9.51525 -2.20589 0
      vertex -9.51525 -2.20589 -4
    endloop
  endfacet
  facet normal -0.936415 0.350896 0
    outer loop
      vertex -9.51525 -2.20589 0
      vertex -10.1656 -3.94144 -4
      vertex -10.1656 -3.94144 0
    endloop
  endfacet
  facet normal -0.996043 0.0888698 0
    outer loop
      vertex -9.51525 -2.20589 -4
      vertex -9.29846 0.223869 0
      vertex -9.29846 0.223869 -4
    endloop
  endfacet
  facet normal -0.996043 0.0888698 0
    outer loop
      vertex -9.29846 0.223869 0
      vertex -9.51525 -2.20589 -4
      vertex -9.51525 -2.20589 0
    endloop
  endfacet
  facet normal -0.999261 -0.038434 0
    outer loop
      vertex -9.29846 0.223869 -4
      vertex -9.34964 1.55452 0
      vertex -9.34964 1.55452 -4
    endloop
  endfacet
  facet normal -0.999261 -0.038434 0
    outer loop
      vertex -9.34964 1.55452 0
      vertex -9.29846 0.223869 -4
      vertex -9.29846 0.223869 0
    endloop
  endfacet
  facet normal -0.990952 -0.134216 0
    outer loop
      vertex -9.34964 1.55452 -4
      vertex -9.50317 2.68807 0
      vertex -9.50317 2.68807 -4
    endloop
  endfacet
  facet normal -0.990952 -0.134216 0
    outer loop
      vertex -9.50317 2.68807 0
      vertex -9.34964 1.55452 -4
      vertex -9.34964 1.55452 0
    endloop
  endfacet
  facet normal -0.964634 -0.263592 0
    outer loop
      vertex -9.50317 2.68807 -4
      vertex -9.75906 3.62452 0
      vertex -9.75906 3.62452 -4
    endloop
  endfacet
  facet normal -0.964634 -0.263592 0
    outer loop
      vertex -9.75906 3.62452 0
      vertex -9.50317 2.68807 -4
      vertex -9.50317 2.68807 0
    endloop
  endfacet
  facet normal -0.899925 -0.436044 0
    outer loop
      vertex -9.75906 3.62452 -4
      vertex -10.1173 4.36387 0
      vertex -10.1173 4.36387 -4
    endloop
  endfacet
  facet normal -0.899925 -0.436044 0
    outer loop
      vertex -10.1173 4.36387 0
      vertex -9.75906 3.62452 -4
      vertex -9.75906 3.62452 0
    endloop
  endfacet
  facet normal -0.769266 -0.638929 0
    outer loop
      vertex -10.1173 4.36387 -4
      vertex -10.583 4.92457 0
      vertex -10.583 4.92457 -4
    endloop
  endfacet
  facet normal -0.769266 -0.638929 0
    outer loop
      vertex -10.583 4.92457 0
      vertex -10.1173 4.36387 -4
      vertex -10.1173 4.36387 0
    endloop
  endfacet
  facet normal -0.56941 -0.822054 0
    outer loop
      vertex -11.1612 5.32507 -4
      vertex -10.583 4.92457 0
      vertex -11.1612 5.32507 0
    endloop
  endfacet
  facet normal -0.56941 -0.822054 -0
    outer loop
      vertex -10.583 4.92457 0
      vertex -11.1612 5.32507 -4
      vertex -10.583 4.92457 -4
    endloop
  endfacet
  facet normal -0.32859 -0.944473 0
    outer loop
      vertex -11.8519 5.56537 -4
      vertex -11.1612 5.32507 0
      vertex -11.8519 5.56537 0
    endloop
  endfacet
  facet normal -0.32859 -0.944473 -0
    outer loop
      vertex -11.1612 5.32507 0
      vertex -11.8519 5.56537 -4
      vertex -11.1612 5.32507 -4
    endloop
  endfacet
  facet normal -0.0992216 -0.995065 0
    outer loop
      vertex -12.6552 5.64547 -4
      vertex -11.8519 5.56537 0
      vertex -12.6552 5.64547 0
    endloop
  endfacet
  facet normal -0.0992216 -0.995065 -0
    outer loop
      vertex -11.8519 5.56537 0
      vertex -12.6552 5.64547 -4
      vertex -11.8519 5.56537 -4
    endloop
  endfacet
  facet normal 0.148712 -0.988881 0
    outer loop
      vertex -13.6317 5.49862 -4
      vertex -12.6552 5.64547 0
      vertex -13.6317 5.49862 0
    endloop
  endfacet
  facet normal 0.148712 -0.988881 0
    outer loop
      vertex -12.6552 5.64547 0
      vertex -13.6317 5.49862 -4
      vertex -12.6552 5.64547 -4
    endloop
  endfacet
  facet normal 0.476113 -0.879384 0
    outer loop
      vertex -14.4454 5.05807 -4
      vertex -13.6317 5.49862 0
      vertex -14.4454 5.05807 0
    endloop
  endfacet
  facet normal 0.476113 -0.879384 0
    outer loop
      vertex -13.6317 5.49862 0
      vertex -14.4454 5.05807 -4
      vertex -13.6317 5.49862 -4
    endloop
  endfacet
  facet normal 0.748252 -0.663415 0
    outer loop
      vertex -15.0964 4.32382 0
      vertex -14.4454 5.05807 -4
      vertex -14.4454 5.05807 0
    endloop
  endfacet
  facet normal 0.748252 -0.663415 0
    outer loop
      vertex -14.4454 5.05807 -4
      vertex -15.0964 4.32382 0
      vertex -15.0964 4.32382 -4
    endloop
  endfacet
  facet normal 0.903269 -0.429074 0
    outer loop
      vertex -15.5847 3.29587 0
      vertex -15.0964 4.32382 -4
      vertex -15.0964 4.32382 0
    endloop
  endfacet
  facet normal 0.903269 -0.429074 0
    outer loop
      vertex -15.0964 4.32382 -4
      vertex -15.5847 3.29587 0
      vertex -15.5847 3.29587 -4
    endloop
  endfacet
  facet normal -0.311183 -0.95035 0
    outer loop
      vertex -17.3241 3.86542 -4
      vertex -15.5847 3.29587 0
      vertex -17.3241 3.86542 0
    endloop
  endfacet
  facet normal -0.311183 -0.95035 -0
    outer loop
      vertex -15.5847 3.29587 0
      vertex -17.3241 3.86542 -4
      vertex -15.5847 3.29587 -4
    endloop
  endfacet
  facet normal -0.895594 0.444872 0
    outer loop
      vertex -17.3241 3.86542 -4
      vertex -16.5924 5.33844 0
      vertex -16.5924 5.33844 -4
    endloop
  endfacet
  facet normal -0.895594 0.444872 0
    outer loop
      vertex -16.5924 5.33844 0
      vertex -17.3241 3.86542 -4
      vertex -17.3241 3.86542 0
    endloop
  endfacet
  facet normal -0.716118 0.697979 0
    outer loop
      vertex -16.5924 5.33844 -4
      vertex -15.5669 6.39059 0
      vertex -15.5669 6.39059 -4
    endloop
  endfacet
  facet normal -0.716118 0.697979 0
    outer loop
      vertex -15.5669 6.39059 0
      vertex -16.5924 5.33844 -4
      vertex -16.5924 5.33844 0
    endloop
  endfacet
  facet normal -0.431693 0.902021 0
    outer loop
      vertex -14.2478 7.02189 -4
      vertex -15.5669 6.39059 0
      vertex -14.2478 7.02189 0
    endloop
  endfacet
  facet normal -0.431693 0.902021 0
    outer loop
      vertex -15.5669 6.39059 0
      vertex -14.2478 7.02189 -4
      vertex -15.5669 6.39059 -4
    endloop
  endfacet
  facet normal -0.12937 0.991596 0
    outer loop
      vertex -12.6349 7.23232 -4
      vertex -14.2478 7.02189 0
      vertex -12.6349 7.23232 0
    endloop
  endfacet
  facet normal -0.12937 0.991596 0
    outer loop
      vertex -14.2478 7.02189 0
      vertex -12.6349 7.23232 -4
      vertex -14.2478 7.02189 -4
    endloop
  endfacet
  facet normal 0.0857423 0.996317 -0
    outer loop
      vertex -11.3717 7.12361 -4
      vertex -12.6349 7.23232 0
      vertex -11.3717 7.12361 0
    endloop
  endfacet
  facet normal 0.0857423 0.996317 0
    outer loop
      vertex -12.6349 7.23232 0
      vertex -11.3717 7.12361 -4
      vertex -12.6349 7.23232 -4
    endloop
  endfacet
  facet normal 0.285644 0.958336 -0
    outer loop
      vertex -10.2775 6.79747 -4
      vertex -11.3717 7.12361 0
      vertex -10.2775 6.79747 0
    endloop
  endfacet
  facet normal 0.285644 0.958336 0
    outer loop
      vertex -11.3717 7.12361 0
      vertex -10.2775 6.79747 -4
      vertex -11.3717 7.12361 -4
    endloop
  endfacet
  facet normal 0.506634 0.862161 -0
    outer loop
      vertex -9.3525 6.25391 -4
      vertex -10.2775 6.79747 0
      vertex -9.3525 6.25391 0
    endloop
  endfacet
  facet normal 0.506634 0.862161 0
    outer loop
      vertex -10.2775 6.79747 0
      vertex -9.3525 6.25391 -4
      vertex -10.2775 6.79747 -4
    endloop
  endfacet
  facet normal 0.70948 0.704725 0
    outer loop
      vertex -8.59661 5.49292 0
      vertex -9.3525 6.25391 -4
      vertex -9.3525 6.25391 0
    endloop
  endfacet
  facet normal 0.70948 0.704725 0
    outer loop
      vertex -9.3525 6.25391 -4
      vertex -8.59661 5.49292 0
      vertex -8.59661 5.49292 -4
    endloop
  endfacet
  facet normal 0.858088 0.513503 0
    outer loop
      vertex -8.0092 4.51133 0
      vertex -8.59661 5.49292 -4
      vertex -8.59661 5.49292 0
    endloop
  endfacet
  facet normal 0.858088 0.513503 0
    outer loop
      vertex -8.59661 5.49292 -4
      vertex -8.0092 4.51133 0
      vertex -8.0092 4.51133 -4
    endloop
  endfacet
  facet normal 0.944419 0.328745 0
    outer loop
      vertex -7.58962 3.30596 0
      vertex -8.0092 4.51133 -4
      vertex -8.0092 4.51133 0
    endloop
  endfacet
  facet normal 0.944419 0.328745 0
    outer loop
      vertex -8.0092 4.51133 -4
      vertex -7.58962 3.30596 0
      vertex -7.58962 3.30596 -4
    endloop
  endfacet
  facet normal 0.984838 0.173476 0
    outer loop
      vertex -7.33788 1.87681 0
      vertex -7.58962 3.30596 -4
      vertex -7.58962 3.30596 0
    endloop
  endfacet
  facet normal 0.984838 0.173476 0
    outer loop
      vertex -7.58962 3.30596 -4
      vertex -7.33788 1.87681 0
      vertex -7.33788 1.87681 -4
    endloop
  endfacet
  facet normal 0.998714 0.0507048 0
    outer loop
      vertex -7.25396 0.223869 0
      vertex -7.33788 1.87681 -4
      vertex -7.33788 1.87681 0
    endloop
  endfacet
  facet normal 0.998714 0.0507048 0
    outer loop
      vertex -7.33788 1.87681 -4
      vertex -7.25396 0.223869 0
      vertex -7.25396 0.223869 -4
    endloop
  endfacet
  facet normal 0.998474 -0.0552208 0
    outer loop
      vertex -7.3417 -1.3626 0
      vertex -7.25396 0.223869 -4
      vertex -7.25396 0.223869 0
    endloop
  endfacet
  facet normal 0.998474 -0.0552208 0
    outer loop
      vertex -7.25396 0.223869 -4
      vertex -7.3417 -1.3626 0
      vertex -7.3417 -1.3626 -4
    endloop
  endfacet
  facet normal 0.98285 -0.184405 0
    outer loop
      vertex -7.60489 -2.76536 0
      vertex -7.3417 -1.3626 -4
      vertex -7.3417 -1.3626 0
    endloop
  endfacet
  facet normal 0.98285 -0.184405 0
    outer loop
      vertex -7.3417 -1.3626 -4
      vertex -7.60489 -2.76536 0
      vertex -7.60489 -2.76536 -4
    endloop
  endfacet
  facet normal 0.940936 -0.338585 0
    outer loop
      vertex -8.04354 -3.98438 0
      vertex -7.60489 -2.76536 -4
      vertex -7.60489 -2.76536 0
    endloop
  endfacet
  facet normal 0.940936 -0.338585 0
    outer loop
      vertex -7.60489 -2.76536 -4
      vertex -8.04354 -3.98438 0
      vertex -8.04354 -3.98438 -4
    endloop
  endfacet
  facet normal 0.860067 -0.51018 0
    outer loop
      vertex -8.65766 -5.01967 0
      vertex -8.04354 -3.98438 -4
      vertex -8.04354 -3.98438 0
    endloop
  endfacet
  facet normal 0.860067 -0.51018 0
    outer loop
      vertex -8.04354 -3.98438 -4
      vertex -8.65766 -5.01967 0
      vertex -8.65766 -5.01967 -4
    endloop
  endfacet
  facet normal 0.72991 -0.683543 0
    outer loop
      vertex -9.43072 -5.84517 0
      vertex -8.65766 -5.01967 -4
      vertex -8.65766 -5.01967 0
    endloop
  endfacet
  facet normal 0.72991 -0.683543 0
    outer loop
      vertex -8.65766 -5.01967 -4
      vertex -9.43072 -5.84517 0
      vertex -9.43072 -5.84517 -4
    endloop
  endfacet
  facet normal 0.541483 -0.840712 0
    outer loop
      vertex -10.3462 -6.43481 -4
      vertex -9.43072 -5.84517 0
      vertex -10.3462 -6.43481 0
    endloop
  endfacet
  facet normal 0.541483 -0.840712 0
    outer loop
      vertex -9.43072 -5.84517 0
      vertex -10.3462 -6.43481 -4
      vertex -9.43072 -5.84517 -4
    endloop
  endfacet
  facet normal 0.31718 -0.948365 0
    outer loop
      vertex -11.404 -6.78859 -4
      vertex -10.3462 -6.43481 0
      vertex -11.404 -6.78859 0
    endloop
  endfacet
  facet normal 0.31718 -0.948365 0
    outer loop
      vertex -10.3462 -6.43481 0
      vertex -11.404 -6.78859 -4
      vertex -10.3462 -6.43481 -4
    endloop
  endfacet
  facet normal 0.0977796 -0.995208 0
    outer loop
      vertex -12.6043 -6.90652 -4
      vertex -11.404 -6.78859 0
      vertex -12.6043 -6.90652 0
    endloop
  endfacet
  facet normal 0.0977796 -0.995208 0
    outer loop
      vertex -11.404 -6.78859 0
      vertex -12.6043 -6.90652 -4
      vertex -11.404 -6.78859 -4
    endloop
  endfacet
  facet normal -0.0819727 -0.996635 0
    outer loop
      vertex -13.7868 -6.80926 -4
      vertex -12.6043 -6.90652 0
      vertex -13.7868 -6.80926 0
    endloop
  endfacet
  facet normal -0.0819727 -0.996635 -0
    outer loop
      vertex -12.6043 -6.90652 0
      vertex -13.7868 -6.80926 -4
      vertex -12.6043 -6.90652 -4
    endloop
  endfacet
  facet normal -0.999912 0.0132753 0
    outer loop
      vertex 3.16481 2.12602 -4
      vertex 3.20546 5.18782 0
      vertex 3.20546 5.18782 -4
    endloop
  endfacet
  facet normal -0.999912 0.0132753 0
    outer loop
      vertex 3.20546 5.18782 0
      vertex 3.16481 2.12602 -4
      vertex 3.16481 2.12602 0
    endloop
  endfacet
  facet normal 0.952353 -0.304997 0
    outer loop
      vertex 2.84692 4.06828 0
      vertex 3.20546 5.18782 -4
      vertex 3.20546 5.18782 0
    endloop
  endfacet
  facet normal 0.952353 -0.304997 0
    outer loop
      vertex 3.20546 5.18782 -4
      vertex 2.84692 4.06828 0
      vertex 2.84692 4.06828 -4
    endloop
  endfacet
  facet normal 0.950829 -0.309716 0
    outer loop
      vertex 2.56466 3.20174 0
      vertex 2.84692 4.06828 -4
      vertex 2.84692 4.06828 0
    endloop
  endfacet
  facet normal 0.950829 -0.309716 0
    outer loop
      vertex 2.84692 4.06828 -4
      vertex 2.56466 3.20174 0
      vertex 2.56466 3.20174 -4
    endloop
  endfacet
  facet normal 0.947992 -0.318294 0
    outer loop
      vertex 2.35867 2.58823 0
      vertex 2.56466 3.20174 -4
      vertex 2.56466 3.20174 0
    endloop
  endfacet
  facet normal 0.947992 -0.318294 0
    outer loop
      vertex 2.56466 3.20174 -4
      vertex 2.35867 2.58823 0
      vertex 2.35867 2.58823 -4
    endloop
  endfacet
  facet normal 0.940957 -0.338526 0
    outer loop
      vertex 2.22897 2.22772 0
      vertex 2.35867 2.58823 -4
      vertex 2.35867 2.58823 0
    endloop
  endfacet
  facet normal 0.940957 -0.338526 0
    outer loop
      vertex 2.35867 2.58823 -4
      vertex 2.22897 2.22772 0
      vertex 2.22897 2.22772 -4
    endloop
  endfacet
  facet normal 0.9351 -0.354383 0
    outer loop
      vertex 0.540565 -2.22742 0
      vertex 2.22897 2.22772 -4
      vertex 2.22897 2.22772 0
    endloop
  endfacet
  facet normal 0.9351 -0.354383 0
    outer loop
      vertex 2.22897 2.22772 -4
      vertex 0.540565 -2.22742 0
      vertex 0.540565 -2.22742 -4
    endloop
  endfacet
  facet normal 0 -1 0
    outer loop
      vertex -0.853081 -2.22742 -4
      vertex 0.540565 -2.22742 0
      vertex -0.853081 -2.22742 0
    endloop
  endfacet
  facet normal 0 -1 -0
    outer loop
      vertex 0.540565 -2.22742 0
      vertex -0.853081 -2.22742 -4
      vertex 0.540565 -2.22742 -4
    endloop
  endfacet
  facet normal -0.936504 -0.350657 0
    outer loop
      vertex -0.853081 -2.22742 -4
      vertex -2.52123 2.22772 0
      vertex -2.52123 2.22772 -4
    endloop
  endfacet
  facet normal -0.936504 -0.350657 0
    outer loop
      vertex -2.52123 2.22772 0
      vertex -0.853081 -2.22742 -4
      vertex -0.853081 -2.22742 0
    endloop
  endfacet
  facet normal -0.943627 -0.33101 0
    outer loop
      vertex -2.52123 2.22772 -4
      vertex -2.69986 2.73695 0
      vertex -2.69986 2.73695 -4
    endloop
  endfacet
  facet normal -0.943627 -0.33101 0
    outer loop
      vertex -2.69986 2.73695 0
      vertex -2.52123 2.22772 -4
      vertex -2.52123 2.22772 0
    endloop
  endfacet
  facet normal -0.948869 -0.31567 0
    outer loop
      vertex -2.69986 2.73695 -4
      vertex -2.92046 3.40005 0
      vertex -2.92046 3.40005 -4
    endloop
  endfacet
  facet normal -0.948869 -0.31567 0
    outer loop
      vertex -2.92046 3.40005 0
      vertex -2.69986 2.73695 -4
      vertex -2.69986 2.73695 0
    endloop
  endfacet
  facet normal -0.952043 -0.305966 0
    outer loop
      vertex -2.92046 3.40005 -4
      vertex -3.18301 4.217 0
      vertex -3.18301 4.217 -4
    endloop
  endfacet
  facet normal -0.952043 -0.305966 0
    outer loop
      vertex -3.18301 4.217 0
      vertex -2.92046 3.40005 -4
      vertex -2.92046 3.40005 0
    endloop
  endfacet
  facet normal -0.954161 -0.299294 0
    outer loop
      vertex -3.18301 4.217 -4
      vertex -3.48753 5.18782 0
      vertex -3.48753 5.18782 -4
    endloop
  endfacet
  facet normal -0.954161 -0.299294 0
    outer loop
      vertex -3.48753 5.18782 0
      vertex -3.18301 4.217 -4
      vertex -3.18301 4.217 0
    endloop
  endfacet
  facet normal 0.999552 0.0299232 0
    outer loop
      vertex -3.45708 4.17067 0
      vertex -3.48753 5.18782 -4
      vertex -3.48753 5.18782 0
    endloop
  endfacet
  facet normal 0.999552 0.0299232 0
    outer loop
      vertex -3.48753 5.18782 -4
      vertex -3.45708 4.17067 0
      vertex -3.45708 4.17067 -4
    endloop
  endfacet
  facet normal 0.999379 0.0352295 0
    outer loop
      vertex -3.4437 3.79111 0
      vertex -3.45708 4.17067 -4
      vertex -3.45708 4.17067 0
    endloop
  endfacet
  facet normal 0.999379 0.0352295 0
    outer loop
      vertex -3.45708 4.17067 -4
      vertex -3.4437 3.79111 0
      vertex -3.4437 3.79111 -4
    endloop
  endfacet
  facet normal 0.99979 0.0204751 0
    outer loop
      vertex -3.43413 3.32381 0
      vertex -3.4437 3.79111 -4
      vertex -3.4437 3.79111 0
    endloop
  endfacet
  facet normal 0.99979 0.0204751 0
    outer loop
      vertex -3.4437 3.79111 -4
      vertex -3.43413 3.32381 0
      vertex -3.43413 3.32381 -4
    endloop
  endfacet
  facet normal 0.999947 0.0103412 0
    outer loop
      vertex -3.42839 2.76878 0
      vertex -3.43413 3.32381 -4
      vertex -3.43413 3.32381 0
    endloop
  endfacet
  facet normal 0.999947 0.0103412 0
    outer loop
      vertex -3.43413 3.32381 -4
      vertex -3.42839 2.76878 0
      vertex -3.42839 2.76878 -4
    endloop
  endfacet
  facet normal 0.999996 0.00297155 0
    outer loop
      vertex -3.42648 2.12602 0
      vertex -3.42839 2.76878 -4
      vertex -3.42839 2.76878 0
    endloop
  endfacet
  facet normal 0.999996 0.00297155 0
    outer loop
      vertex -3.42839 2.76878 -4
      vertex -3.42648 2.12602 0
      vertex -3.42648 2.12602 -4
    endloop
  endfacet
  facet normal 1 -0 0
    outer loop
      vertex -3.42648 -6.70312 0
      vertex -3.42648 2.12602 -4
      vertex -3.42648 2.12602 0
    endloop
  endfacet
  facet normal 1 0 0
    outer loop
      vertex -3.42648 2.12602 -4
      vertex -3.42648 -6.70312 0
      vertex -3.42648 -6.70312 -4
    endloop
  endfacet
  facet normal 0 -1 0
    outer loop
      vertex -5.07438 -6.70312 -4
      vertex -3.42648 -6.70312 0
      vertex -5.07438 -6.70312 0
    endloop
  endfacet
  facet normal 0 -1 -0
    outer loop
      vertex -3.42648 -6.70312 0
      vertex -5.07438 -6.70312 -4
      vertex -3.42648 -6.70312 -4
    endloop
  endfacet
  facet normal -1 0 0
    outer loop
      vertex -5.07438 -6.70312 -4
      vertex -5.07438 7.01872 0
      vertex -5.07438 7.01872 -4
    endloop
  endfacet
  facet normal -1 -0 0
    outer loop
      vertex -5.07438 7.01872 0
      vertex -5.07438 -6.70312 -4
      vertex -5.07438 -6.70312 0
    endloop
  endfacet
  facet normal 0 1 -0
    outer loop
      vertex -2.78568 7.01872 -4
      vertex -5.07438 7.01872 0
      vertex -2.78568 7.01872 0
    endloop
  endfacet
  facet normal 0 1 0
    outer loop
      vertex -5.07438 7.01872 0
      vertex -2.78568 7.01872 -4
      vertex -5.07438 7.01872 -4
    endloop
  endfacet
  facet normal 0.935545 0.353208 0
    outer loop
      vertex -0.903931 2.03452 0
      vertex -2.78568 7.01872 -4
      vertex -2.78568 7.01872 0
    endloop
  endfacet
  facet normal 0.935545 0.353208 0
    outer loop
      vertex -2.78568 7.01872 -4
      vertex -0.903931 2.03452 0
      vertex -0.903931 2.03452 -4
    endloop
  endfacet
  facet normal 0.953988 0.299843 0
    outer loop
      vertex -0.456329 0.61042 0
      vertex -0.903931 2.03452 -4
      vertex -0.903931 2.03452 0
    endloop
  endfacet
  facet normal 0.953988 0.299843 0
    outer loop
      vertex -0.903931 2.03452 -4
      vertex -0.456329 0.61042 0
      vertex -0.456329 0.61042 -4
    endloop
  endfacet
  facet normal 0.960717 0.277529 0
    outer loop
      vertex -0.191879 -0.305023 0
      vertex -0.456329 0.61042 -4
      vertex -0.456329 0.61042 0
    endloop
  endfacet
  facet normal 0.960717 0.277529 0
    outer loop
      vertex -0.456329 0.61042 -4
      vertex -0.191879 -0.305023 0
      vertex -0.191879 -0.305023 -4
    endloop
  endfacet
  facet normal -0.965573 0.260132 0
    outer loop
      vertex -0.191879 -0.305023 -4
      vertex 0.0306091 0.520821 0
      vertex 0.0306091 0.520821 -4
    endloop
  endfacet
  facet normal -0.965573 0.260132 0
    outer loop
      vertex 0.0306091 0.520821 0
      vertex -0.191879 -0.305023 -4
      vertex -0.191879 -0.305023 0
    endloop
  endfacet
  facet normal -0.961946 0.27324 0
    outer loop
      vertex 0.0306091 0.520821 -4
      vertex 0.220047 1.18774 0
      vertex 0.220047 1.18774 -4
    endloop
  endfacet
  facet normal -0.961946 0.27324 0
    outer loop
      vertex 0.220047 1.18774 0
      vertex 0.0306091 0.520821 -4
      vertex 0.0306091 0.520821 0
    endloop
  endfacet
  facet normal -0.955731 0.294243 0
    outer loop
      vertex 0.220047 1.18774 -4
      vertex 0.376434 1.6957 0
      vertex 0.376434 1.6957 -4
    endloop
  endfacet
  facet normal -0.955731 0.294243 0
    outer loop
      vertex 0.376434 1.6957 0
      vertex 0.220047 1.18774 -4
      vertex 0.220047 1.18774 0
    endloop
  endfacet
  facet normal -0.942867 0.33317 0
    outer loop
      vertex 0.376434 1.6957 -4
      vertex 0.499763 2.04472 0
      vertex 0.499763 2.04472 -4
    endloop
  endfacet
  facet normal -0.942867 0.33317 0
    outer loop
      vertex 0.499763 2.04472 0
      vertex 0.376434 1.6957 -4
      vertex 0.376434 1.6957 0
    endloop
  endfacet
  facet normal -0.935296 0.353866 0
    outer loop
      vertex 0.499763 2.04472 -4
      vertex 2.38166 7.01872 0
      vertex 2.38166 7.01872 -4
    endloop
  endfacet
  facet normal -0.935296 0.353866 0
    outer loop
      vertex 2.38166 7.01872 0
      vertex 0.499763 2.04472 -4
      vertex 0.499763 2.04472 0
    endloop
  endfacet
  facet normal 0 1 -0
    outer loop
      vertex 4.79231 7.01872 -4
      vertex 2.38166 7.01872 0
      vertex 4.79231 7.01872 0
    endloop
  endfacet
  facet normal 0 1 0
    outer loop
      vertex 2.38166 7.01872 0
      vertex 4.79231 7.01872 -4
      vertex 2.38166 7.01872 -4
    endloop
  endfacet
  facet normal 1 -0 0
    outer loop
      vertex 4.79231 -6.70312 0
      vertex 4.79231 7.01872 -4
      vertex 4.79231 7.01872 0
    endloop
  endfacet
  facet normal 1 0 0
    outer loop
      vertex 4.79231 7.01872 -4
      vertex 4.79231 -6.70312 0
      vertex 4.79231 -6.70312 -4
    endloop
  endfacet
  facet normal 0 -1 0
    outer loop
      vertex 3.16481 -6.70312 -4
      vertex 4.79231 -6.70312 0
      vertex 3.16481 -6.70312 0
    endloop
  endfacet
  facet normal 0 -1 -0
    outer loop
      vertex 4.79231 -6.70312 0
      vertex 3.16481 -6.70312 -4
      vertex 4.79231 -6.70312 -4
    endloop
  endfacet
  facet normal -1 0 0
    outer loop
      vertex 3.16481 -6.70312 -4
      vertex 3.16481 2.12602 0
      vertex 3.16481 2.12602 -4
    endloop
  endfacet
  facet normal -1 -0 0
    outer loop
      vertex 3.16481 2.12602 0
      vertex 3.16481 -6.70312 -4
      vertex 3.16481 -6.70312 0
    endloop
  endfacet
  facet normal -1 0 0
    outer loop
      vertex -18 -10 -14
      vertex -18 10 -4
      vertex -18 10 -14
    endloop
  endfacet
  facet normal -1 -0 0
    outer loop
      vertex -18 10 -4
      vertex -18 -10 -14
      vertex -18 -10 -4
    endloop
  endfacet
  facet normal 0 0 -1
    outer loop
      vertex -18 -10 -14
      vertex 18 10 -14
      vertex 18 -10 -14
    endloop
  endfacet
  facet normal -0 0 -1
    outer loop
      vertex 18 10 -14
      vertex -18 -10 -14
      vertex -18 10 -14
    endloop
  endfacet
  facet normal 0 0 1
    outer loop
      vertex -12.6552 5.64547 -4
      vertex -12.4314 0.468071 -4
      vertex -11.8519 5.56537 -4
    endloop
  endfacet
  facet normal -0 0 1
    outer loop
      vertex -13.6317 5.49862 -4
      vertex -12.4314 0.468071 -4
      vertex -12.6552 5.64547 -4
    endloop
  endfacet
  facet normal -0 0 1
    outer loop
      vertex -14.4454 5.05807 -4
      vertex -12.4314 0.468071 -4
      vertex -13.6317 5.49862 -4
    endloop
  endfacet
  facet normal -0 0 1
    outer loop
      vertex -15.0964 4.32382 -4
      vertex -12.4314 0.468071 -4
      vertex -14.4454 5.05807 -4
    endloop
  endfacet
  facet normal -0 0 1
    outer loop
      vertex -15.5847 3.29587 -4
      vertex -12.4314 0.468071 -4
      vertex -15.0964 4.32382 -4
    endloop
  endfacet
  facet normal 0 0 1
    outer loop
      vertex -15.5847 3.29587 -4
      vertex -17.3038 0.468071 -4
      vertex -12.4314 0.468071 -4
    endloop
  endfacet
  facet normal 0 0 1
    outer loop
      vertex -18 10 -4
      vertex -17.3038 0.468071 -4
      vertex -17.3241 3.86542 -4
    endloop
  endfacet
  facet normal 0 0 1
    outer loop
      vertex -17.3241 3.86542 -4
      vertex -17.3038 0.468071 -4
      vertex -15.5847 3.29587 -4
    endloop
  endfacet
  facet normal 0 0 1
    outer loop
      vertex -12.4314 0.468071 -4
      vertex -9.34964 1.55452 -4
      vertex -9.50317 2.68807 -4
    endloop
  endfacet
  facet normal 0 0 1
    outer loop
      vertex -9.34964 1.55452 -4
      vertex -12.4314 0.468071 -4
      vertex -9.29846 0.223869 -4
    endloop
  endfacet
  facet normal 0 0 1
    outer loop
      vertex -12.4314 0.468071 -4
      vertex -9.50317 2.68807 -4
      vertex -9.75906 3.62452 -4
    endloop
  endfacet
  facet normal 0 0 1
    outer loop
      vertex -12.4314 0.468071 -4
      vertex -9.75906 3.62452 -4
      vertex -10.1173 4.36387 -4
    endloop
  endfacet
  facet normal 0 0 1
    outer loop
      vertex -12.4314 -1.15942 -4
      vertex -9.29846 0.223869 -4
      vertex -12.4314 0.468071 -4
    endloop
  endfacet
  facet normal 0 0 1
    outer loop
      vertex -12.4314 0.468071 -4
      vertex -10.1173 4.36387 -4
      vertex -10.583 4.92457 -4
    endloop
  endfacet
  facet normal 0 0 1
    outer loop
      vertex -12.4314 0.468071 -4
      vertex -10.583 4.92457 -4
      vertex -11.1612 5.32507 -4
    endloop
  endfacet
  facet normal 0 0 1
    outer loop
      vertex -9.29846 0.223869 -4
      vertex -12.4314 -1.15942 -4
      vertex -9.51525 -2.20589 -4
    endloop
  endfacet
  facet normal 0 0 1
    outer loop
      vertex -12.4314 0.468071 -4
      vertex -11.1612 5.32507 -4
      vertex -11.8519 5.56537 -4
    endloop
  endfacet
  facet normal 0 0 1
    outer loop
      vertex -9.51525 -2.20589 -4
      vertex -12.4314 -1.15942 -4
      vertex -10.1656 -3.94144 -4
    endloop
  endfacet
  facet normal 0 0 1
    outer loop
      vertex -10.1656 -3.94144 -4
      vertex -12.4314 -1.15942 -4
      vertex -11.2495 -4.98277 -4
    endloop
  endfacet
  facet normal 0 0 1
    outer loop
      vertex -12.4314 -1.15942 -4
      vertex -12.7671 -5.32987 -4
      vertex -11.2495 -4.98277 -4
    endloop
  endfacet
  facet normal 0 0 1
    outer loop
      vertex -12.4314 -1.15942 -4
      vertex -13.1161 -5.31652 -4
      vertex -12.7671 -5.32987 -4
    endloop
  endfacet
  facet normal 0 0 1
    outer loop
      vertex -12.4314 -1.15942 -4
      vertex -13.4714 -5.27647 -4
      vertex -13.1161 -5.31652 -4
    endloop
  endfacet
  facet normal 0 0 1
    outer loop
      vertex -12.4314 -1.15942 -4
      vertex -13.8331 -5.20972 -4
      vertex -13.4714 -5.27647 -4
    endloop
  endfacet
  facet normal 0 0 1
    outer loop
      vertex -12.4314 -1.15942 -4
      vertex -14.2012 -5.11627 -4
      vertex -13.8331 -5.20972 -4
    endloop
  endfacet
  facet normal 0 0 1
    outer loop
      vertex -12.4314 -1.15942 -4
      vertex -14.5554 -5.00248 -4
      vertex -14.2012 -5.11627 -4
    endloop
  endfacet
  facet normal 0 0 1
    outer loop
      vertex -12.4314 -1.15942 -4
      vertex -14.8752 -4.87469 -4
      vertex -14.5554 -5.00248 -4
    endloop
  endfacet
  facet normal -0 0 1
    outer loop
      vertex -15.4117 -1.15942 -4
      vertex -14.8752 -4.87469 -4
      vertex -12.4314 -1.15942 -4
    endloop
  endfacet
  facet normal 0 0 1
    outer loop
      vertex -14.8752 -4.87469 -4
      vertex -15.4117 -1.15942 -4
      vertex -15.1606 -4.73293 -4
    endloop
  endfacet
  facet normal 0 0 1
    outer loop
      vertex -15.1606 -4.73293 -4
      vertex -15.4117 -1.15942 -4
      vertex -15.4117 -4.57717 -4
    endloop
  endfacet
  facet normal 0 0 1
    outer loop
      vertex -2.69986 2.73695 -4
      vertex -3.42839 2.76878 -4
      vertex -3.42648 2.12602 -4
    endloop
  endfacet
  facet normal 0 0 1
    outer loop
      vertex -2.92046 3.40005 -4
      vertex -3.43413 3.32381 -4
      vertex -3.42839 2.76878 -4
    endloop
  endfacet
  facet normal 0 0 1
    outer loop
      vertex -2.92046 3.40005 -4
      vertex -3.4437 3.79111 -4
      vertex -3.43413 3.32381 -4
    endloop
  endfacet
  facet normal 0 0 1
    outer loop
      vertex -3.18301 4.217 -4
      vertex -3.45708 4.17067 -4
      vertex -3.4437 3.79111 -4
    endloop
  endfacet
  facet normal 0 -0 1
    outer loop
      vertex -3.45708 4.17067 -4
      vertex -3.18301 4.217 -4
      vertex -3.48753 5.18782 -4
    endloop
  endfacet
  facet normal -0 0 1
    outer loop
      vertex 2.56466 3.20174 -4
      vertex 3.16481 2.12602 -4
      vertex 2.84692 4.06828 -4
    endloop
  endfacet
  facet normal -0 0 1
    outer loop
      vertex 2.84692 4.06828 -4
      vertex 3.16481 2.12602 -4
      vertex 3.20546 5.18782 -4
    endloop
  endfacet
  facet normal 0 0 1
    outer loop
      vertex 18 10 -4
      vertex 17.276 0.223869 -4
      vertex 18 -10 -4
    endloop
  endfacet
  facet normal 0 0 1
    outer loop
      vertex 18 10 -4
      vertex 17.1934 1.83549 -4
      vertex 17.276 0.223869 -4
    endloop
  endfacet
  facet normal 0 0 1
    outer loop
      vertex 18 10 -4
      vertex 16.9454 3.24239 -4
      vertex 17.1934 1.83549 -4
    endloop
  endfacet
  facet normal 0 0 1
    outer loop
      vertex 18 10 -4
      vertex 16.5322 4.44459 -4
      vertex 16.9454 3.24239 -4
    endloop
  endfacet
  facet normal 0 0 1
    outer loop
      vertex 18 10 -4
      vertex 15.9537 5.44207 -4
      vertex 16.5322 4.44459 -4
    endloop
  endfacet
  facet normal 0 0 1
    outer loop
      vertex 18 10 -4
      vertex 15.2143 6.2253 -4
      vertex 15.9537 5.44207 -4
    endloop
  endfacet
  facet normal 0 0 1
    outer loop
      vertex 18 10 -4
      vertex 14.3186 6.78476 -4
      vertex 15.2143 6.2253 -4
    endloop
  endfacet
  facet normal 0 0 1
    outer loop
      vertex 18 10 -4
      vertex 13.2664 7.12043 -4
      vertex 14.3186 6.78476 -4
    endloop
  endfacet
  facet normal 0 0 1
    outer loop
      vertex 18 10 -4
      vertex 12.0578 7.23232 -4
      vertex 13.2664 7.12043 -4
    endloop
  endfacet
  facet normal 0 0 1
    outer loop
      vertex 18 10 -4
      vertex 10.8747 7.12202 -4
      vertex 12.0578 7.23232 -4
    endloop
  endfacet
  facet normal 0 0 1
    outer loop
      vertex 4.79231 7.01872 -4
      vertex 10.8747 7.12202 -4
      vertex 18 10 -4
    endloop
  endfacet
  facet normal 0 0 1
    outer loop
      vertex 6.94392 1.85614 -4
      vertex 4.79231 7.01872 -4
      vertex 6.85999 0.223869 -4
    endloop
  endfacet
  facet normal 0 0 1
    outer loop
      vertex 7.19569 3.27416 -4
      vertex 4.79231 7.01872 -4
      vertex 6.94392 1.85614 -4
    endloop
  endfacet
  facet normal 0 0 1
    outer loop
      vertex 7.61532 4.47792 -4
      vertex 4.79231 7.01872 -4
      vertex 7.19569 3.27416 -4
    endloop
  endfacet
  facet normal 0 0 1
    outer loop
      vertex 8.2028 5.46742 -4
      vertex 4.79231 7.01872 -4
      vertex 7.61532 4.47792 -4
    endloop
  endfacet
  facet normal 0 0 1
    outer loop
      vertex 8.94723 6.23956 -4
      vertex 4.79231 7.01872 -4
      vertex 8.2028 5.46742 -4
    endloop
  endfacet
  facet normal 0 0 1
    outer loop
      vertex 9.83787 6.7911 -4
      vertex 4.79231 7.01872 -4
      vertex 8.94723 6.23956 -4
    endloop
  endfacet
  facet normal 0 0 1
    outer loop
      vertex 10.8747 7.12202 -4
      vertex 4.79231 7.01872 -4
      vertex 9.83787 6.7911 -4
    endloop
  endfacet
  facet normal 0 0 1
    outer loop
      vertex 18 10 -4
      vertex 2.38166 7.01872 -4
      vertex 4.79231 7.01872 -4
    endloop
  endfacet
  facet normal 0 0 1
    outer loop
      vertex 0.0306091 0.520821 -4
      vertex -0.456329 0.61042 -4
      vertex -0.191879 -0.305023 -4
    endloop
  endfacet
  facet normal 0 0 1
    outer loop
      vertex 0.220047 1.18774 -4
      vertex -0.456329 0.61042 -4
      vertex 0.0306091 0.520821 -4
    endloop
  endfacet
  facet normal 0 0 1
    outer loop
      vertex -0.903931 2.03452 -4
      vertex 0.220047 1.18774 -4
      vertex 0.376434 1.6957 -4
    endloop
  endfacet
  facet normal -0 0 1
    outer loop
      vertex -0.903931 2.03452 -4
      vertex 0.376434 1.6957 -4
      vertex 0.499763 2.04472 -4
    endloop
  endfacet
  facet normal 0 0 1
    outer loop
      vertex -0.903931 2.03452 -4
      vertex 0.499763 2.04472 -4
      vertex 2.38166 7.01872 -4
    endloop
  endfacet
  facet normal 0 0 1
    outer loop
      vertex 0.220047 1.18774 -4
      vertex -0.903931 2.03452 -4
      vertex -0.456329 0.61042 -4
    endloop
  endfacet
  facet normal 0 0 1
    outer loop
      vertex 2.38166 7.01872 -4
      vertex -2.78568 7.01872 -4
      vertex -0.903931 2.03452 -4
    endloop
  endfacet
  facet normal 0 0 1
    outer loop
      vertex 18 10 -4
      vertex -2.78568 7.01872 -4
      vertex 2.38166 7.01872 -4
    endloop
  endfacet
  facet normal -0 0 1
    outer loop
      vertex -18 10 -4
      vertex -2.78568 7.01872 -4
      vertex 18 10 -4
    endloop
  endfacet
  facet normal 0 0 1
    outer loop
      vertex -5.07438 7.01872 -4
      vertex -7.25396 0.223869 -4
      vertex -5.07438 -6.70312 -4
    endloop
  endfacet
  facet normal 0 0 1
    outer loop
      vertex -5.07438 7.01872 -4
      vertex -7.33788 1.87681 -4
      vertex -7.25396 0.223869 -4
    endloop
  endfacet
  facet normal 0 0 1
    outer loop
      vertex -5.07438 7.01872 -4
      vertex -7.58962 3.30596 -4
      vertex -7.33788 1.87681 -4
    endloop
  endfacet
  facet normal 0 0 1
    outer loop
      vertex -5.07438 7.01872 -4
      vertex -8.0092 4.51133 -4
      vertex -7.58962 3.30596 -4
    endloop
  endfacet
  facet normal 0 0 1
    outer loop
      vertex -5.07438 7.01872 -4
      vertex -8.59661 5.49292 -4
      vertex -8.0092 4.51133 -4
    endloop
  endfacet
  facet normal 0 0 1
    outer loop
      vertex -5.07438 7.01872 -4
      vertex -9.3525 6.25391 -4
      vertex -8.59661 5.49292 -4
    endloop
  endfacet
  facet normal 0 0 1
    outer loop
      vertex -5.07438 7.01872 -4
      vertex -10.2775 6.79747 -4
      vertex -9.3525 6.25391 -4
    endloop
  endfacet
  facet normal 0 0 1
    outer loop
      vertex -2.78568 7.01872 -4
      vertex -18 10 -4
      vertex -5.07438 7.01872 -4
    endloop
  endfacet
  facet normal 0 0 1
    outer loop
      vertex -5.07438 7.01872 -4
      vertex -11.3717 7.12361 -4
      vertex -10.2775 6.79747 -4
    endloop
  endfacet
  facet normal 0 0 1
    outer loop
      vertex -5.07438 7.01872 -4
      vertex -18 10 -4
      vertex -11.3717 7.12361 -4
    endloop
  endfacet
  facet normal 0 0 1
    outer loop
      vertex -16.5924 5.33844 -4
      vertex -18 10 -4
      vertex -17.3241 3.86542 -4
    endloop
  endfacet
  facet normal 0 0 1
    outer loop
      vertex -15.5669 6.39059 -4
      vertex -18 10 -4
      vertex -16.5924 5.33844 -4
    endloop
  endfacet
  facet normal 0 0 1
    outer loop
      vertex -14.2478 7.02189 -4
      vertex -18 10 -4
      vertex -15.5669 6.39059 -4
    endloop
  endfacet
  facet normal 0 0 1
    outer loop
      vertex -12.6349 7.23232 -4
      vertex -18 10 -4
      vertex -14.2478 7.02189 -4
    endloop
  endfacet
  facet normal 0 0 1
    outer loop
      vertex -11.3717 7.12361 -4
      vertex -18 10 -4
      vertex -12.6349 7.23232 -4
    endloop
  endfacet
  facet normal -0 0 1
    outer loop
      vertex 17.1927 -1.4163 -4
      vertex 18 -10 -4
      vertex 17.276 0.223869 -4
    endloop
  endfacet
  facet normal -0 0 1
    outer loop
      vertex 16.9429 -2.84797 -4
      vertex 18 -10 -4
      vertex 17.1927 -1.4163 -4
    endloop
  endfacet
  facet normal -0 0 1
    outer loop
      vertex 16.5265 -4.07114 -4
      vertex 18 -10 -4
      vertex 16.9429 -2.84797 -4
    endloop
  endfacet
  facet normal -0 0 1
    outer loop
      vertex 15.9435 -5.08582 -4
      vertex 18 -10 -4
      vertex 16.5265 -4.07114 -4
    endloop
  endfacet
  facet normal -0 0 1
    outer loop
      vertex 15.2022 -5.88238 -4
      vertex 18 -10 -4
      vertex 15.9435 -5.08582 -4
    endloop
  endfacet
  facet normal -0 0 1
    outer loop
      vertex 14.3109 -6.45135 -4
      vertex 18 -10 -4
      vertex 15.2022 -5.88238 -4
    endloop
  endfacet
  facet normal -0 0 1
    outer loop
      vertex 13.2696 -6.79272 -4
      vertex 18 -10 -4
      vertex 14.3109 -6.45135 -4
    endloop
  endfacet
  facet normal -0 0 1
    outer loop
      vertex 12.0782 -6.90652 -4
      vertex 18 -10 -4
      vertex 13.2696 -6.79272 -4
    endloop
  endfacet
  facet normal 0 0 1
    outer loop
      vertex 10.8903 -6.79082 -4
      vertex 18 -10 -4
      vertex 12.0782 -6.90652 -4
    endloop
  endfacet
  facet normal -0 0 1
    outer loop
      vertex 4.79231 -6.70312 -4
      vertex 10.8903 -6.79082 -4
      vertex 9.84924 -6.4437 -4
    endloop
  endfacet
  facet normal 0 0 1
    outer loop
      vertex 4.79231 -6.70312 -4
      vertex 6.85999 0.223869 -4
      vertex 4.79231 7.01872 -4
    endloop
  endfacet
  facet normal 0 0 1
    outer loop
      vertex 6.85999 0.223869 -4
      vertex 4.79231 -6.70312 -4
      vertex 6.94423 -1.39149 -4
    endloop
  endfacet
  facet normal 0 0 1
    outer loop
      vertex 6.94423 -1.39149 -4
      vertex 4.79231 -6.70312 -4
      vertex 7.19693 -2.8098 -4
    endloop
  endfacet
  facet normal 0 0 1
    outer loop
      vertex 4.79231 -6.70312 -4
      vertex 7.6181 -4.03104 -4
      vertex 7.19693 -2.8098 -4
    endloop
  endfacet
  facet normal 0 0 1
    outer loop
      vertex 4.79231 -6.70312 -4
      vertex 8.20775 -5.05522 -4
      vertex 7.6181 -4.03104 -4
    endloop
  endfacet
  facet normal 0 0 1
    outer loop
      vertex 4.79231 -6.70312 -4
      vertex 8.95506 -5.86517 -4
      vertex 8.20775 -5.05522 -4
    endloop
  endfacet
  facet normal 0 0 1
    outer loop
      vertex 4.79231 -6.70312 -4
      vertex 9.84924 -6.4437 -4
      vertex 8.95506 -5.86517 -4
    endloop
  endfacet
  facet normal 0 0 1
    outer loop
      vertex 10.8903 -6.79082 -4
      vertex 4.79231 -6.70312 -4
      vertex 18 -10 -4
    endloop
  endfacet
  facet normal -0 0 1
    outer loop
      vertex 3.16481 -6.70312 -4
      vertex 18 -10 -4
      vertex 4.79231 -6.70312 -4
    endloop
  endfacet
  facet normal -0 0 1
    outer loop
      vertex 2.35867 2.58823 -4
      vertex 3.16481 2.12602 -4
      vertex 2.56466 3.20174 -4
    endloop
  endfacet
  facet normal -0 0 1
    outer loop
      vertex 2.22897 2.22772 -4
      vertex 3.16481 2.12602 -4
      vertex 2.35867 2.58823 -4
    endloop
  endfacet
  facet normal 0 0 1
    outer loop
      vertex 0.540565 -2.22742 -4
      vertex 3.16481 2.12602 -4
      vertex 2.22897 2.22772 -4
    endloop
  endfacet
  facet normal 0 0 1
    outer loop
      vertex 3.16481 2.12602 -4
      vertex 0.540565 -2.22742 -4
      vertex 3.16481 -6.70312 -4
    endloop
  endfacet
  facet normal -0 0 1
    outer loop
      vertex -0.853081 -2.22742 -4
      vertex 3.16481 -6.70312 -4
      vertex 0.540565 -2.22742 -4
    endloop
  endfacet
  facet normal -0 0 1
    outer loop
      vertex -3.4437 3.79111 -4
      vertex -2.92046 3.40005 -4
      vertex -3.18301 4.217 -4
    endloop
  endfacet
  facet normal -0 0 1
    outer loop
      vertex -3.42839 2.76878 -4
      vertex -2.69986 2.73695 -4
      vertex -2.92046 3.40005 -4
    endloop
  endfacet
  facet normal 0 0 1
    outer loop
      vertex -3.42648 2.12602 -4
      vertex -2.52123 2.22772 -4
      vertex -2.69986 2.73695 -4
    endloop
  endfacet
  facet normal -0 0 1
    outer loop
      vertex -3.42648 2.12602 -4
      vertex -0.853081 -2.22742 -4
      vertex -2.52123 2.22772 -4
    endloop
  endfacet
  facet normal 0 0 1
    outer loop
      vertex -3.42648 -6.70312 -4
      vertex -0.853081 -2.22742 -4
      vertex -3.42648 2.12602 -4
    endloop
  endfacet
  facet normal 0 0 1
    outer loop
      vertex -3.42648 -6.70312 -4
      vertex 3.16481 -6.70312 -4
      vertex -0.853081 -2.22742 -4
    endloop
  endfacet
  facet normal -0 0 1
    outer loop
      vertex -3.42648 -6.70312 -4
      vertex 18 -10 -4
      vertex 3.16481 -6.70312 -4
    endloop
  endfacet
  facet normal 0 0 1
    outer loop
      vertex -18 -10 -4
      vertex -3.42648 -6.70312 -4
      vertex -5.07438 -6.70312 -4
    endloop
  endfacet
  facet normal -0 0 1
    outer loop
      vertex -7.3417 -1.3626 -4
      vertex -5.07438 -6.70312 -4
      vertex -7.25396 0.223869 -4
    endloop
  endfacet
  facet normal -0 0 1
    outer loop
      vertex -7.60489 -2.76536 -4
      vertex -5.07438 -6.70312 -4
      vertex -7.3417 -1.3626 -4
    endloop
  endfacet
  facet normal -0 0 1
    outer loop
      vertex -8.04354 -3.98438 -4
      vertex -5.07438 -6.70312 -4
      vertex -7.60489 -2.76536 -4
    endloop
  endfacet
  facet normal -0 0 1
    outer loop
      vertex -8.65766 -5.01967 -4
      vertex -5.07438 -6.70312 -4
      vertex -8.04354 -3.98438 -4
    endloop
  endfacet
  facet normal -0 0 1
    outer loop
      vertex -9.43072 -5.84517 -4
      vertex -5.07438 -6.70312 -4
      vertex -8.65766 -5.01967 -4
    endloop
  endfacet
  facet normal -0 0 1
    outer loop
      vertex -10.3462 -6.43481 -4
      vertex -5.07438 -6.70312 -4
      vertex -9.43072 -5.84517 -4
    endloop
  endfacet
  facet normal 0 0 1
    outer loop
      vertex -11.404 -6.78859 -4
      vertex -5.07438 -6.70312 -4
      vertex -10.3462 -6.43481 -4
    endloop
  endfacet
  facet normal 0 0 1
    outer loop
      vertex -18 -10 -4
      vertex -5.07438 -6.70312 -4
      vertex -11.404 -6.78859 -4
    endloop
  endfacet
  facet normal 0 0 1
    outer loop
      vertex -18 -10 -4
      vertex -11.404 -6.78859 -4
      vertex -12.6043 -6.90652 -4
    endloop
  endfacet
  facet normal 0 0 1
    outer loop
      vertex -18 -10 -4
      vertex -12.6043 -6.90652 -4
      vertex -13.7868 -6.80926 -4
    endloop
  endfacet
  facet normal 0 0 1
    outer loop
      vertex -17.3038 0.468071 -4
      vertex -18 10 -4
      vertex -18 -10 -4
    endloop
  endfacet
  facet normal 0 0 1
    outer loop
      vertex -3.42648 -6.70312 -4
      vertex -18 -10 -4
      vertex 18 -10 -4
    endloop
  endfacet
  facet normal 0 0 1
    outer loop
      vertex -14.9643 -6.51746 -4
      vertex -18 -10 -4
      vertex -13.7868 -6.80926 -4
    endloop
  endfacet
  facet normal 0 0 1
    outer loop
      vertex -16.1366 -6.03113 -4
      vertex -18 -10 -4
      vertex -14.9643 -6.51746 -4
    endloop
  endfacet
  facet normal 0 0 1
    outer loop
      vertex -17.3038 -5.35027 -4
      vertex -18 -10 -4
      vertex -16.1366 -6.03113 -4
    endloop
  endfacet
  facet normal 0 0 1
    outer loop
      vertex -17.3038 0.468071 -4
      vertex -18 -10 -4
      vertex -17.3038 -5.35027 -4
    endloop
  endfacet
  facet normal 0 0 1
    outer loop
      vertex 8.9045 0.223869 -4
      vertex 15.2315 0.223869 -4
      vertex 15.0331 2.59582 -4
    endloop
  endfacet
  facet normal 0 0 1
    outer loop
      vertex 15.2315 0.223869 -4
      vertex 8.9045 0.223869 -4
      vertex 15.1813 -1.06538 -4
    endloop
  endfacet
  facet normal -0 -0 1
    outer loop
      vertex 8.95155 -1.04887 -4
      vertex 15.1813 -1.06538 -4
      vertex 8.9045 0.223869 -4
    endloop
  endfacet
  facet normal 0 0 1
    outer loop
      vertex 9.10158 2.59582 -4
      vertex 15.0331 2.59582 -4
      vertex 14.4381 4.29007 -4
    endloop
  endfacet
  facet normal 0 0 1
    outer loop
      vertex 15.1813 -1.06538 -4
      vertex 8.95155 -1.04887 -4
      vertex 15.0306 -2.18681 -4
    endloop
  endfacet
  facet normal -0 -0 1
    outer loop
      vertex 9.0927 -2.16142 -4
      vertex 15.0306 -2.18681 -4
      vertex 8.95155 -1.04887 -4
    endloop
  endfacet
  facet normal 0 0 1
    outer loop
      vertex 12.0578 5.64547 -4
      vertex 14.4381 4.29007 -4
      vertex 13.4463 5.30662 -4
    endloop
  endfacet
  facet normal 0 0 1
    outer loop
      vertex 15.0306 -2.18681 -4
      vertex 9.0927 -2.16142 -4
      vertex 14.7795 -3.1404 -4
    endloop
  endfacet
  facet normal -0 -0 1
    outer loop
      vertex 9.32797 -3.11377 -4
      vertex 14.7795 -3.1404 -4
      vertex 9.0927 -2.16142 -4
    endloop
  endfacet
  facet normal 0 0 1
    outer loop
      vertex 14.7795 -3.1404 -4
      vertex 9.32797 -3.11377 -4
      vertex 14.4279 -3.92617 -4
    endloop
  endfacet
  facet normal 0 0 1
    outer loop
      vertex 14.4381 4.29007 -4
      vertex 12.0578 5.64547 -4
      vertex 9.69282 4.29007 -4
    endloop
  endfacet
  facet normal -0 -0 1
    outer loop
      vertex 9.65735 -3.90592 -4
      vertex 14.4279 -3.92617 -4
      vertex 9.32797 -3.11377 -4
    endloop
  endfacet
  facet normal 0 0 1
    outer loop
      vertex 9.69282 4.29007 -4
      vertex 12.0578 5.64547 -4
      vertex 10.6782 5.30662 -4
    endloop
  endfacet
  facet normal 0 -0 1
    outer loop
      vertex 12.068 -5.32987 -4
      vertex 14.4279 -3.92617 -4
      vertex 9.65735 -3.90592 -4
    endloop
  endfacet
  facet normal 0 0 1
    outer loop
      vertex 14.4279 -3.92617 -4
      vertex 12.068 -5.32987 -4
      vertex 13.9791 -4.54029 -4
    endloop
  endfacet
  facet normal 0 0 1
    outer loop
      vertex 14.4381 4.29007 -4
      vertex 9.69282 4.29007 -4
      vertex 9.10158 2.59582 -4
    endloop
  endfacet
  facet normal 0 -0 1
    outer loop
      vertex 12.7991 -5.24214 -4
      vertex 13.9791 -4.54029 -4
      vertex 12.068 -5.32987 -4
    endloop
  endfacet
  facet normal 0 0 1
    outer loop
      vertex 13.9791 -4.54029 -4
      vertex 12.7991 -5.24214 -4
      vertex 13.4361 -4.97894 -4
    endloop
  endfacet
  facet normal 0 0 1
    outer loop
      vertex 15.0331 2.59582 -4
      vertex 9.10158 2.59582 -4
      vertex 8.9045 0.223869 -4
    endloop
  endfacet
  facet normal 0 0 1
    outer loop
      vertex 12.068 -5.32987 -4
      vertex 9.65735 -3.90592 -4
      vertex 11.2956 -5.24088 -4
    endloop
  endfacet
  facet normal 0 0 1
    outer loop
      vertex 11.2956 -5.24088 -4
      vertex 10.0903 -4.5289 -4
      vertex 10.6364 -4.97388 -4
    endloop
  endfacet
  facet normal -0 -0 1
    outer loop
      vertex 10.0903 -4.5289 -4
      vertex 11.2956 -5.24088 -4
      vertex 9.65735 -3.90592 -4
    endloop
  endfacet
  facet normal 1 -0 0
    outer loop
      vertex 18 -10 -4
      vertex 18 10 -14
      vertex 18 10 -4
    endloop
  endfacet
  facet normal 1 0 0
    outer loop
      vertex 18 10 -14
      vertex 18 -10 -4
      vertex 18 -10 -14
    endloop
  endfacet
  facet normal 0 1 -0
    outer loop
      vertex 18 10 -14
      vertex -18 10 -4
      vertex 18 10 -4
    endloop
  endfacet
  facet normal 0 1 0
    outer loop
      vertex -18 10 -4
      vertex 18 10 -14
      vertex -18 10 -14
    endloop
  endfacet
  facet normal 0 -1 0
    outer loop
      vertex -18 -10 -14
      vertex 18 -10 -4
      vertex -18 -10 -4
    endloop
  endfacet
  facet normal 0 -1 -0
    outer loop
      vertex 18 -10 -4
      vertex -18 -10 -14
      vertex 18 -10 -14
    endloop
  endfacet
endsolid OpenSCAD_Model
