solid OpenSCAD_Model
  facet normal 0 0 1
    outer loop
      vertex 9.12698 0.223869 0
      vertex 11.1715 0.223869 0
      vertex 11.0888 1.83549 0
    endloop
  endfacet
  facet normal -0 0 1
    outer loop
      vertex 8.92862 2.59582 0
      vertex 11.0888 1.83549 0
      vertex 10.8409 3.24239 0
    endloop
  endfacet
  facet normal 0 0 1
    outer loop
      vertex 9.07676 -1.06538 0
      vertex 11.1715 0.223869 0
      vertex 9.12698 0.223869 0
    endloop
  endfacet
  facet normal 0 0 1
    outer loop
      vertex 8.92862 2.59582 0
      vertex 10.8409 3.24239 0
      vertex 10.4277 4.44459 0
    endloop
  endfacet
  facet normal 0 0 1
    outer loop
      vertex 11.1715 0.223869 0
      vertex 9.07676 -1.06538 0
      vertex 11.0882 -1.4163 0
    endloop
  endfacet
  facet normal 0 0 1
    outer loop
      vertex 8.33356 4.29007 0
      vertex 10.4277 4.44459 0
      vertex 9.84923 5.44207 0
    endloop
  endfacet
  facet normal 0 0 1
    outer loop
      vertex 8.92609 -2.18681 0
      vertex 11.0882 -1.4163 0
      vertex 9.07676 -1.06538 0
    endloop
  endfacet
  facet normal 0 0 1
    outer loop
      vertex 11.0882 -1.4163 0
      vertex 8.92609 -2.18681 0
      vertex 10.8384 -2.84797 0
    endloop
  endfacet
  facet normal 0 0 1
    outer loop
      vertex 8.33356 4.29007 0
      vertex 9.84923 5.44207 0
      vertex 9.10983 6.2253 0
    endloop
  endfacet
  facet normal 0 0 1
    outer loop
      vertex 11.0888 1.83549 0
      vertex 8.92862 2.59582 0
      vertex 9.12698 0.223869 0
    endloop
  endfacet
  facet normal 0 0 1
    outer loop
      vertex 10.4277 4.44459 0
      vertex 8.33356 4.29007 0
      vertex 8.92862 2.59582 0
    endloop
  endfacet
  facet normal 0 0 1
    outer loop
      vertex 7.34177 5.30662 0
      vertex 9.10983 6.2253 0
      vertex 8.21404 6.78476 0
    endloop
  endfacet
  facet normal 0 0 1
    outer loop
      vertex 9.10983 6.2253 0
      vertex 7.34177 5.30662 0
      vertex 8.33356 4.29007 0
    endloop
  endfacet
  facet normal 0 0 1
    outer loop
      vertex 7.16186 7.12043 0
      vertex 7.34177 5.30662 0
      vertex 8.21404 6.78476 0
    endloop
  endfacet
  facet normal 0 0 1
    outer loop
      vertex 5.95328 5.64547 0
      vertex 7.16186 7.12043 0
      vertex 5.95328 7.23232 0
    endloop
  endfacet
  facet normal 0 0 1
    outer loop
      vertex 7.16186 7.12043 0
      vertex 5.95328 5.64547 0
      vertex 7.34177 5.30662 0
    endloop
  endfacet
  facet normal -0 0 1
    outer loop
      vertex 4.77021 7.12202 0
      vertex 5.95328 5.64547 0
      vertex 5.95328 7.23232 0
    endloop
  endfacet
  facet normal 0 0 1
    outer loop
      vertex 4.77021 7.12202 0
      vertex 4.57371 5.30662 0
      vertex 5.95328 5.64547 0
    endloop
  endfacet
  facet normal -0 0 1
    outer loop
      vertex 3.73335 6.7911 0
      vertex 4.57371 5.30662 0
      vertex 4.77021 7.12202 0
    endloop
  endfacet
  facet normal -0 0 1
    outer loop
      vertex 2.84271 6.23956 0
      vertex 4.57371 5.30662 0
      vertex 3.73335 6.7911 0
    endloop
  endfacet
  facet normal 0 0 1
    outer loop
      vertex 4.57371 5.30662 0
      vertex 2.84271 6.23956 0
      vertex 3.5883 4.29007 0
    endloop
  endfacet
  facet normal -0 0 1
    outer loop
      vertex 2.09828 5.46742 0
      vertex 3.5883 4.29007 0
      vertex 2.84271 6.23956 0
    endloop
  endfacet
  facet normal -0 0 1
    outer loop
      vertex 1.5108 4.47792 0
      vertex 3.5883 4.29007 0
      vertex 2.09828 5.46742 0
    endloop
  endfacet
  facet normal 0 0 1
    outer loop
      vertex 3.5883 4.29007 0
      vertex 1.5108 4.47792 0
      vertex 2.99706 2.59582 0
    endloop
  endfacet
  facet normal -0 0 1
    outer loop
      vertex 1.09118 3.27416 0
      vertex 2.99706 2.59582 0
      vertex 1.5108 4.47792 0
    endloop
  endfacet
  facet normal 0 -0 1
    outer loop
      vertex 0.839714 -1.39149 0
      vertex 2.79998 0.223869 0
      vertex 0.755478 0.223869 0
    endloop
  endfacet
  facet normal 0 0 1
    outer loop
      vertex 0.839401 1.85614 0
      vertex 2.99706 2.59582 0
      vertex 1.09118 3.27416 0
    endloop
  endfacet
  facet normal 0 -0 1
    outer loop
      vertex 1.09241 -2.8098 0
      vertex 2.79998 0.223869 0
      vertex 0.839714 -1.39149 0
    endloop
  endfacet
  facet normal 0 0 1
    outer loop
      vertex 2.99706 2.59582 0
      vertex 0.839401 1.85614 0
      vertex 2.79998 0.223869 0
    endloop
  endfacet
  facet normal 0 -0 1
    outer loop
      vertex 1.51359 -4.03104 0
      vertex 2.79998 0.223869 0
      vertex 1.09241 -2.8098 0
    endloop
  endfacet
  facet normal 0 0 1
    outer loop
      vertex 2.79998 0.223869 0
      vertex 0.839401 1.85614 0
      vertex 0.755478 0.223869 0
    endloop
  endfacet
  facet normal 0 0 1
    outer loop
      vertex 2.79998 0.223869 0
      vertex 1.51359 -4.03104 0
      vertex 2.10323 -5.05522 0
    endloop
  endfacet
  facet normal 0 0 1
    outer loop
      vertex 8.67498 -3.1404 0
      vertex 10.8384 -2.84797 0
      vertex 8.92609 -2.18681 0
    endloop
  endfacet
  facet normal 0 0 1
    outer loop
      vertex 10.8384 -2.84797 0
      vertex 8.67498 -3.1404 0
      vertex 10.422 -4.07114 0
    endloop
  endfacet
  facet normal -0 0 1
    outer loop
      vertex 8.32343 -3.92617 0
      vertex 10.422 -4.07114 0
      vertex 8.67498 -3.1404 0
    endloop
  endfacet
  facet normal 0 0 1
    outer loop
      vertex 10.422 -4.07114 0
      vertex 8.32343 -3.92617 0
      vertex 9.83903 -5.08582 0
    endloop
  endfacet
  facet normal -0 0 1
    outer loop
      vertex 7.87454 -4.54029 0
      vertex 9.83903 -5.08582 0
      vertex 8.32343 -3.92617 0
    endloop
  endfacet
  facet normal 0 0 1
    outer loop
      vertex 9.83903 -5.08582 0
      vertex 7.87454 -4.54029 0
      vertex 9.09772 -5.88238 0
    endloop
  endfacet
  facet normal 0 0 1
    outer loop
      vertex 9.09772 -5.88238 0
      vertex 7.87454 -4.54029 0
      vertex 8.20639 -6.45135 0
    endloop
  endfacet
  facet normal -0 0 1
    outer loop
      vertex 7.33159 -4.97894 0
      vertex 8.20639 -6.45135 0
      vertex 7.87454 -4.54029 0
    endloop
  endfacet
  facet normal 0 0 1
    outer loop
      vertex 7.33159 -4.97894 0
      vertex 7.16505 -6.79272 0
      vertex 8.20639 -6.45135 0
    endloop
  endfacet
  facet normal -0 0 1
    outer loop
      vertex 6.69457 -5.24214 0
      vertex 7.16505 -6.79272 0
      vertex 7.33159 -4.97894 0
    endloop
  endfacet
  facet normal 0 0 1
    outer loop
      vertex 6.69457 -5.24214 0
      vertex 5.97368 -6.90652 0
      vertex 7.16505 -6.79272 0
    endloop
  endfacet
  facet normal -0 0 1
    outer loop
      vertex 5.96348 -5.32987 0
      vertex 5.97368 -6.90652 0
      vertex 6.69457 -5.24214 0
    endloop
  endfacet
  facet normal 0 0 1
    outer loop
      vertex 5.19109 -5.24088 0
      vertex 5.97368 -6.90652 0
      vertex 5.96348 -5.32987 0
    endloop
  endfacet
  facet normal 0 0 1
    outer loop
      vertex 5.19109 -5.24088 0
      vertex 4.78577 -6.79082 0
      vertex 5.97368 -6.90652 0
    endloop
  endfacet
  facet normal 0 0 1
    outer loop
      vertex 4.53185 -4.97388 0
      vertex 4.78577 -6.79082 0
      vertex 5.19109 -5.24088 0
    endloop
  endfacet
  facet normal 0 0 1
    outer loop
      vertex 2.85054 -5.86517 0
      vertex 4.53185 -4.97388 0
      vertex 3.98576 -4.5289 0
    endloop
  endfacet
  facet normal 0 0 1
    outer loop
      vertex 4.53185 -4.97388 0
      vertex 3.74472 -6.4437 0
      vertex 4.78577 -6.79082 0
    endloop
  endfacet
  facet normal 0 0 1
    outer loop
      vertex 2.10323 -5.05522 0
      vertex 3.98576 -4.5289 0
      vertex 3.55283 -3.90592 0
    endloop
  endfacet
  facet normal 0 0 1
    outer loop
      vertex 2.10323 -5.05522 0
      vertex 3.55283 -3.90592 0
      vertex 3.22346 -3.11377 0
    endloop
  endfacet
  facet normal 0 0 1
    outer loop
      vertex 2.10323 -5.05522 0
      vertex 3.22346 -3.11377 0
      vertex 2.98819 -2.16142 0
    endloop
  endfacet
  facet normal 0 0 1
    outer loop
      vertex 4.53185 -4.97388 0
      vertex 2.85054 -5.86517 0
      vertex 3.74472 -6.4437 0
    endloop
  endfacet
  facet normal 0 0 1
    outer loop
      vertex 2.10323 -5.05522 0
      vertex 2.98819 -2.16142 0
      vertex 2.84703 -1.04887 0
    endloop
  endfacet
  facet normal 0 0 1
    outer loop
      vertex 2.10323 -5.05522 0
      vertex 2.84703 -1.04887 0
      vertex 2.79998 0.223869 0
    endloop
  endfacet
  facet normal 0 0 1
    outer loop
      vertex 3.98576 -4.5289 0
      vertex 2.10323 -5.05522 0
      vertex 2.85054 -5.86517 0
    endloop
  endfacet
  facet normal 0 0 1
    outer loop
      vertex 15.7564 -0.449974 0
      vertex 16.6938 0.844421 0
      vertex 16.1779 1.04786 0
    endloop
  endfacet
  facet normal 0 0 1
    outer loop
      vertex 16.6938 0.844421 0
      vertex 15.7564 -0.449974 0
      vertex 16.5146 -0.630524 0
    endloop
  endfacet
  facet normal 0 0 1
    outer loop
      vertex 15.079 -0.172798 0
      vertex 16.1779 1.04786 0
      vertex 15.7466 1.33267 0
    endloop
  endfacet
  facet normal 0 0 1
    outer loop
      vertex 14.4824 0.201012 0
      vertex 15.7466 1.33267 0
      vertex 15.4061 1.69314 0
    endloop
  endfacet
  facet normal 0 0 1
    outer loop
      vertex 13.9665 0.671471 0
      vertex 15.4061 1.69314 0
      vertex 15.1629 2.12354 0
    endloop
  endfacet
  facet normal 0 0 1
    outer loop
      vertex 16.1779 1.04786 0
      vertex 15.079 -0.172798 0
      vertex 15.7564 -0.449974 0
    endloop
  endfacet
  facet normal 0 0 1
    outer loop
      vertex 13.2532 1.82854 0
      vertex 15.1629 2.12354 0
      vertex 15.017 2.62389 0
    endloop
  endfacet
  facet normal 0 0 1
    outer loop
      vertex 13.0748 2.4967 0
      vertex 15.017 2.62389 0
      vertex 14.9684 3.19417 0
    endloop
  endfacet
  facet normal 0 0 1
    outer loop
      vertex 15.7466 1.33267 0
      vertex 14.4824 0.201012 0
      vertex 15.079 -0.172798 0
    endloop
  endfacet
  facet normal -0 0 1
    outer loop
      vertex 13.7134 5.49324 0
      vertex 15.1616 4.18655 0
      vertex 14.2563 6.03712 0
    endloop
  endfacet
  facet normal -0 0 1
    outer loop
      vertex 13.3256 4.84319 0
      vertex 15.1616 4.18655 0
      vertex 13.7134 5.49324 0
    endloop
  endfacet
  facet normal 0 -0 1
    outer loop
      vertex 13.0748 2.4967 0
      vertex 14.9684 3.19417 0
      vertex 13.0154 3.22462 0
    endloop
  endfacet
  facet normal 0 0 1
    outer loop
      vertex 13.0929 4.08699 0
      vertex 15.1616 4.18655 0
      vertex 13.3256 4.84319 0
    endloop
  endfacet
  facet normal 0 0 1
    outer loop
      vertex 15.4061 1.69314 0
      vertex 13.9665 0.671471 0
      vertex 14.4824 0.201012 0
    endloop
  endfacet
  facet normal 0 0 1
    outer loop
      vertex 15.1616 4.18655 0
      vertex 13.0929 4.08699 0
      vertex 14.9684 3.19417 0
    endloop
  endfacet
  facet normal 0 0 1
    outer loop
      vertex 15.017 2.62389 0
      vertex 13.0748 2.4967 0
      vertex 13.2532 1.82854 0
    endloop
  endfacet
  facet normal 0 0 1
    outer loop
      vertex 14.9684 3.19417 0
      vertex 13.0929 4.08699 0
      vertex 13.0154 3.22462 0
    endloop
  endfacet
  facet normal 0 0 1
    outer loop
      vertex 15.1629 2.12354 0
      vertex 13.5504 1.22012 0
      vertex 13.9665 0.671471 0
    endloop
  endfacet
  facet normal 0 0 1
    outer loop
      vertex 15.1629 2.12354 0
      vertex 13.2532 1.82854 0
      vertex 13.5504 1.22012 0
    endloop
  endfacet
  facet normal 0 0 1
    outer loop
      vertex 20.8274 0.681671 0
      vertex 18.4065 -0.854324 0
      vertex 20.8274 -0.854324 0
    endloop
  endfacet
  facet normal -0 0 1
    outer loop
      vertex 17.9793 0.681671 0
      vertex 18.4065 -0.854324 0
      vertex 20.8274 0.681671 0
    endloop
  endfacet
  facet normal 0 0 1
    outer loop
      vertex 17.2943 0.722359 0
      vertex 18.4065 -0.854324 0
      vertex 17.9793 0.681671 0
    endloop
  endfacet
  facet normal 0 0 1
    outer loop
      vertex 16.5146 -0.630524 0
      vertex 17.2943 0.722359 0
      vertex 16.6938 0.844421 0
    endloop
  endfacet
  facet normal 0 0 1
    outer loop
      vertex 17.2943 0.722359 0
      vertex 16.5146 -0.630524 0
      vertex 18.4065 -0.854324 0
    endloop
  endfacet
  facet normal 0 0 1
    outer loop
      vertex 16.5146 -0.630524 0
      vertex 14.6835 -6.70312 0
      vertex 18.4065 -0.854324 0
    endloop
  endfacet
  facet normal 0 -0 1
    outer loop
      vertex 14.6835 -6.70312 0
      vertex 16.5146 -0.630524 0
      vertex 12.4458 -6.70312 0
    endloop
  endfacet
  facet normal 0 0 1
    outer loop
      vertex 20.8274 0.681671 0
      vertex 22.7702 7.01872 0
      vertex 20.8274 5.46247 0
    endloop
  endfacet
  facet normal -0 0 1
    outer loop
      vertex 17.8674 7.01872 0
      vertex 20.8274 5.46247 0
      vertex 22.7702 7.01872 0
    endloop
  endfacet
  facet normal 0 0 1
    outer loop
      vertex 20.8274 5.46247 0
      vertex 17.8674 7.01872 0
      vertex 18.0606 5.46247 0
    endloop
  endfacet
  facet normal -0 0 1
    outer loop
      vertex 16.7529 6.95737 0
      vertex 18.0606 5.46247 0
      vertex 17.8674 7.01872 0
    endloop
  endfacet
  facet normal 0 0 1
    outer loop
      vertex 16.7529 6.95737 0
      vertex 16.7078 5.3207 0
      vertex 18.0606 5.46247 0
    endloop
  endfacet
  facet normal -0 0 1
    outer loop
      vertex 15.7796 6.77332 0
      vertex 16.7078 5.3207 0
      vertex 16.7529 6.95737 0
    endloop
  endfacet
  facet normal 0 0 1
    outer loop
      vertex 15.7796 6.77332 0
      vertex 15.7414 4.89539 0
      vertex 16.7078 5.3207 0
    endloop
  endfacet
  facet normal -0 0 1
    outer loop
      vertex 14.9474 6.46657 0
      vertex 15.7414 4.89539 0
      vertex 15.7796 6.77332 0
    endloop
  endfacet
  facet normal 0 0 1
    outer loop
      vertex 15.7414 4.89539 0
      vertex 14.2563 6.03712 0
      vertex 15.1616 4.18655 0
    endloop
  endfacet
  facet normal -0 0 1
    outer loop
      vertex 14.2563 6.03712 0
      vertex 15.7414 4.89539 0
      vertex 14.9474 6.46657 0
    endloop
  endfacet
  facet normal 0 0 1
    outer loop
      vertex 22.7702 7.01872 0
      vertex 20.8274 0.681671 0
      vertex 22.7702 -6.70312 0
    endloop
  endfacet
  facet normal -0 0 1
    outer loop
      vertex 20.8274 -0.854324 0
      vertex 22.7702 -6.70312 0
      vertex 20.8274 0.681671 0
    endloop
  endfacet
  facet normal 0 0 1
    outer loop
      vertex 22.7702 -6.70312 0
      vertex 20.8274 -0.854324 0
      vertex 20.8274 -6.70312 0
    endloop
  endfacet
  facet normal -0 0 1
    outer loop
      vertex -10.7923 0.407021 0
      vertex -3.9162 -1.20007 0
      vertex -3.9162 0.407021 0
    endloop
  endfacet
  facet normal 0 0 1
    outer loop
      vertex -3.9162 -1.20007 0
      vertex -10.7923 0.407021 0
      vertex -10.7923 -1.20007 0
    endloop
  endfacet
  facet normal 0 0 1
    outer loop
      vertex -3.9162 0.407021 0
      vertex -1.9734 7.01872 0
      vertex -3.9162 5.43187 0
    endloop
  endfacet
  facet normal -0 0 1
    outer loop
      vertex -11.0365 7.01872 0
      vertex -3.9162 5.43187 0
      vertex -1.9734 7.01872 0
    endloop
  endfacet
  facet normal 0 0 1
    outer loop
      vertex -3.9162 5.43187 0
      vertex -11.0365 7.01872 0
      vertex -11.0365 5.43187 0
    endloop
  endfacet
  facet normal 0 0 1
    outer loop
      vertex -1.9734 7.01872 0
      vertex -3.9162 0.407021 0
      vertex -1.9734 -6.70312 0
    endloop
  endfacet
  facet normal -0 0 1
    outer loop
      vertex -3.9162 -1.20007 0
      vertex -1.9734 -6.70312 0
      vertex -3.9162 0.407021 0
    endloop
  endfacet
  facet normal 0 0 1
    outer loop
      vertex -1.9734 -6.70312 0
      vertex -3.9162 -1.20007 0
      vertex -3.9162 -6.70312 0
    endloop
  endfacet
  facet normal 0 0 1
    outer loop
      vertex -16.5626 -5.11627 0
      vertex -14.6198 7.01872 0
      vertex -16.5626 7.01872 0
    endloop
  endfacet
  facet normal 0 0 1
    outer loop
      vertex -14.6198 7.01872 0
      vertex -16.5626 -5.11627 0
      vertex -14.6198 -6.70312 0
    endloop
  endfacet
  facet normal 0 0 1
    outer loop
      vertex -23.3981 -6.70312 0
      vertex -16.5626 -5.11627 0
      vertex -23.3981 -5.11627 0
    endloop
  endfacet
  facet normal 0 0 1
    outer loop
      vertex -16.5626 -5.11627 0
      vertex -23.3981 -6.70312 0
      vertex -14.6198 -6.70312 0
    endloop
  endfacet
  facet normal -0.316313 -0.948655 0
    outer loop
      vertex 3.74472 -6.4437 -4
      vertex 4.78577 -6.79082 0
      vertex 3.74472 -6.4437 0
    endloop
  endfacet
  facet normal -0.316313 -0.948655 -0
    outer loop
      vertex 4.78577 -6.79082 0
      vertex 3.74472 -6.4437 -4
      vertex 4.78577 -6.79082 -4
    endloop
  endfacet
  facet normal -0.543214 -0.839595 0
    outer loop
      vertex 2.85054 -5.86517 -4
      vertex 3.74472 -6.4437 0
      vertex 2.85054 -5.86517 0
    endloop
  endfacet
  facet normal -0.543214 -0.839595 -0
    outer loop
      vertex 3.74472 -6.4437 0
      vertex 2.85054 -5.86517 -4
      vertex 3.74472 -6.4437 -4
    endloop
  endfacet
  facet normal -0.734955 -0.678115 0
    outer loop
      vertex 2.85054 -5.86517 -4
      vertex 2.10323 -5.05522 0
      vertex 2.10323 -5.05522 -4
    endloop
  endfacet
  facet normal -0.734955 -0.678115 0
    outer loop
      vertex 2.10323 -5.05522 0
      vertex 2.85054 -5.86517 -4
      vertex 2.85054 -5.86517 0
    endloop
  endfacet
  facet normal -0.866637 -0.498939 0
    outer loop
      vertex 2.10323 -5.05522 -4
      vertex 1.51359 -4.03104 0
      vertex 1.51359 -4.03104 -4
    endloop
  endfacet
  facet normal -0.866637 -0.498939 0
    outer loop
      vertex 1.51359 -4.03104 0
      vertex 2.10323 -5.05522 -4
      vertex 2.10323 -5.05522 0
    endloop
  endfacet
  facet normal -0.945358 -0.326034 0
    outer loop
      vertex 1.51359 -4.03104 -4
      vertex 1.09241 -2.8098 0
      vertex 1.09241 -2.8098 -4
    endloop
  endfacet
  facet normal -0.945358 -0.326034 0
    outer loop
      vertex 1.09241 -2.8098 0
      vertex 1.51359 -4.03104 -4
      vertex 1.51359 -4.03104 0
    endloop
  endfacet
  facet normal -0.984496 -0.175405 0
    outer loop
      vertex 1.09241 -2.8098 -4
      vertex 0.839714 -1.39149 0
      vertex 0.839714 -1.39149 -4
    endloop
  endfacet
  facet normal -0.984496 -0.175405 0
    outer loop
      vertex 0.839714 -1.39149 0
      vertex 1.09241 -2.8098 -4
      vertex 1.09241 -2.8098 0
    endloop
  endfacet
  facet normal -0.998643 -0.0520762 0
    outer loop
      vertex 0.839714 -1.39149 -4
      vertex 0.755478 0.223869 0
      vertex 0.755478 0.223869 -4
    endloop
  endfacet
  facet normal -0.998643 -0.0520762 0
    outer loop
      vertex 0.755478 0.223869 0
      vertex 0.839714 -1.39149 -4
      vertex 0.839714 -1.39149 0
    endloop
  endfacet
  facet normal -0.998681 0.051347 0
    outer loop
      vertex 0.755478 0.223869 -4
      vertex 0.839401 1.85614 0
      vertex 0.839401 1.85614 -4
    endloop
  endfacet
  facet normal -0.998681 0.051347 0
    outer loop
      vertex 0.839401 1.85614 0
      vertex 0.755478 0.223869 -4
      vertex 0.755478 0.223869 0
    endloop
  endfacet
  facet normal -0.9846 0.174822 0
    outer loop
      vertex 0.839401 1.85614 -4
      vertex 1.09118 3.27416 0
      vertex 1.09118 3.27416 -4
    endloop
  endfacet
  facet normal -0.9846 0.174822 0
    outer loop
      vertex 1.09118 3.27416 0
      vertex 0.839401 1.85614 -4
      vertex 0.839401 1.85614 0
    endloop
  endfacet
  facet normal -0.944272 0.329165 0
    outer loop
      vertex 1.09118 3.27416 -4
      vertex 1.5108 4.47792 0
      vertex 1.5108 4.47792 -4
    endloop
  endfacet
  facet normal -0.944272 0.329165 0
    outer loop
      vertex 1.5108 4.47792 0
      vertex 1.09118 3.27416 -4
      vertex 1.09118 3.27416 0
    endloop
  endfacet
  facet normal -0.859868 0.510516 0
    outer loop
      vertex 1.5108 4.47792 -4
      vertex 2.09828 5.46742 0
      vertex 2.09828 5.46742 -4
    endloop
  endfacet
  facet normal -0.859868 0.510516 0
    outer loop
      vertex 2.09828 5.46742 0
      vertex 1.5108 4.47792 -4
      vertex 1.5108 4.47792 0
    endloop
  endfacet
  facet normal -0.719907 0.694071 0
    outer loop
      vertex 2.09828 5.46742 -4
      vertex 2.84271 6.23956 0
      vertex 2.84271 6.23956 -4
    endloop
  endfacet
  facet normal -0.719907 0.694071 0
    outer loop
      vertex 2.84271 6.23956 0
      vertex 2.09828 5.46742 -4
      vertex 2.09828 5.46742 0
    endloop
  endfacet
  facet normal -0.526487 0.850183 0
    outer loop
      vertex 3.73335 6.7911 -4
      vertex 2.84271 6.23956 0
      vertex 3.73335 6.7911 0
    endloop
  endfacet
  facet normal -0.526487 0.850183 0
    outer loop
      vertex 2.84271 6.23956 0
      vertex 3.73335 6.7911 -4
      vertex 2.84271 6.23956 -4
    endloop
  endfacet
  facet normal -0.304046 0.952657 0
    outer loop
      vertex 4.77021 7.12202 -4
      vertex 3.73335 6.7911 0
      vertex 4.77021 7.12202 0
    endloop
  endfacet
  facet normal -0.304046 0.952657 0
    outer loop
      vertex 3.73335 6.7911 0
      vertex 4.77021 7.12202 -4
      vertex 3.73335 6.7911 -4
    endloop
  endfacet
  facet normal -0.0928294 0.995682 0
    outer loop
      vertex 5.95328 7.23232 -4
      vertex 4.77021 7.12202 0
      vertex 5.95328 7.23232 0
    endloop
  endfacet
  facet normal -0.0928294 0.995682 0
    outer loop
      vertex 4.77021 7.12202 0
      vertex 5.95328 7.23232 -4
      vertex 4.77021 7.12202 -4
    endloop
  endfacet
  facet normal 0.0921855 0.995742 -0
    outer loop
      vertex 7.16186 7.12043 -4
      vertex 5.95328 7.23232 0
      vertex 7.16186 7.12043 0
    endloop
  endfacet
  facet normal 0.0921855 0.995742 0
    outer loop
      vertex 5.95328 7.23232 0
      vertex 7.16186 7.12043 -4
      vertex 5.95328 7.23232 -4
    endloop
  endfacet
  facet normal 0.303932 0.952694 -0
    outer loop
      vertex 8.21404 6.78476 -4
      vertex 7.16186 7.12043 0
      vertex 8.21404 6.78476 0
    endloop
  endfacet
  facet normal 0.303932 0.952694 0
    outer loop
      vertex 7.16186 7.12043 0
      vertex 8.21404 6.78476 -4
      vertex 7.16186 7.12043 -4
    endloop
  endfacet
  facet normal 0.529721 0.848172 -0
    outer loop
      vertex 9.10983 6.2253 -4
      vertex 8.21404 6.78476 0
      vertex 9.10983 6.2253 0
    endloop
  endfacet
  facet normal 0.529721 0.848172 0
    outer loop
      vertex 8.21404 6.78476 0
      vertex 9.10983 6.2253 -4
      vertex 8.21404 6.78476 -4
    endloop
  endfacet
  facet normal 0.72716 0.686468 0
    outer loop
      vertex 9.84923 5.44207 0
      vertex 9.10983 6.2253 -4
      vertex 9.10983 6.2253 0
    endloop
  endfacet
  facet normal 0.72716 0.686468 0
    outer loop
      vertex 9.10983 6.2253 -4
      vertex 9.84923 5.44207 0
      vertex 9.84923 5.44207 -4
    endloop
  endfacet
  facet normal 0.865057 0.501674 0
    outer loop
      vertex 10.4277 4.44459 0
      vertex 9.84923 5.44207 -4
      vertex 9.84923 5.44207 0
    endloop
  endfacet
  facet normal 0.865057 0.501674 0
    outer loop
      vertex 9.84923 5.44207 -4
      vertex 10.4277 4.44459 0
      vertex 10.4277 4.44459 -4
    endloop
  endfacet
  facet normal 0.9457 0.32504 0
    outer loop
      vertex 10.8409 3.24239 0
      vertex 10.4277 4.44459 -4
      vertex 10.4277 4.44459 0
    endloop
  endfacet
  facet normal 0.9457 0.32504 0
    outer loop
      vertex 10.4277 4.44459 -4
      vertex 10.8409 3.24239 0
      vertex 10.8409 3.24239 -4
    endloop
  endfacet
  facet normal 0.984829 0.17353 0
    outer loop
      vertex 11.0888 1.83549 0
      vertex 10.8409 3.24239 -4
      vertex 10.8409 3.24239 0
    endloop
  endfacet
  facet normal 0.984829 0.17353 0
    outer loop
      vertex 10.8409 3.24239 -4
      vertex 11.0888 1.83549 0
      vertex 11.0888 1.83549 -4
    endloop
  endfacet
  facet normal 0.998686 0.0512474 0
    outer loop
      vertex 11.1715 0.223869 0
      vertex 11.0888 1.83549 -4
      vertex 11.0888 1.83549 0
    endloop
  endfacet
  facet normal 0.998686 0.0512474 0
    outer loop
      vertex 11.0888 1.83549 -4
      vertex 11.1715 0.223869 0
      vertex 11.1715 0.223869 -4
    endloop
  endfacet
  facet normal 0.998713 -0.0507221 0
    outer loop
      vertex 11.0882 -1.4163 0
      vertex 11.1715 0.223869 -4
      vertex 11.1715 0.223869 0
    endloop
  endfacet
  facet normal 0.998713 -0.0507221 0
    outer loop
      vertex 11.1715 0.223869 -4
      vertex 11.0882 -1.4163 0
      vertex 11.0882 -1.4163 -4
    endloop
  endfacet
  facet normal 0.985117 -0.171885 0
    outer loop
      vertex 10.8384 -2.84797 0
      vertex 11.0882 -1.4163 -4
      vertex 11.0882 -1.4163 0
    endloop
  endfacet
  facet normal 0.985117 -0.171885 0
    outer loop
      vertex 11.0882 -1.4163 -4
      vertex 10.8384 -2.84797 0
      vertex 10.8384 -2.84797 -4
    endloop
  endfacet
  facet normal 0.94665 -0.322265 0
    outer loop
      vertex 10.422 -4.07114 0
      vertex 10.8384 -2.84797 -4
      vertex 10.8384 -2.84797 0
    endloop
  endfacet
  facet normal 0.94665 -0.322265 0
    outer loop
      vertex 10.8384 -2.84797 -4
      vertex 10.422 -4.07114 0
      vertex 10.422 -4.07114 -4
    endloop
  endfacet
  facet normal 0.86708 -0.498169 0
    outer loop
      vertex 9.83903 -5.08582 0
      vertex 10.422 -4.07114 -4
      vertex 10.422 -4.07114 0
    endloop
  endfacet
  facet normal 0.86708 -0.498169 0
    outer loop
      vertex 10.422 -4.07114 -4
      vertex 9.83903 -5.08582 0
      vertex 9.83903 -5.08582 -4
    endloop
  endfacet
  facet normal 0.732038 -0.681264 0
    outer loop
      vertex 9.09772 -5.88238 0
      vertex 9.83903 -5.08582 -4
      vertex 9.83903 -5.08582 0
    endloop
  endfacet
  facet normal 0.732038 -0.681264 0
    outer loop
      vertex 9.83903 -5.08582 -4
      vertex 9.09772 -5.88238 0
      vertex 9.09772 -5.88238 -4
    endloop
  endfacet
  facet normal 0.53806 -0.842907 0
    outer loop
      vertex 8.20639 -6.45135 -4
      vertex 9.09772 -5.88238 0
      vertex 8.20639 -6.45135 0
    endloop
  endfacet
  facet normal 0.53806 -0.842907 0
    outer loop
      vertex 9.09772 -5.88238 0
      vertex 8.20639 -6.45135 -4
      vertex 9.09772 -5.88238 -4
    endloop
  endfacet
  facet normal 0.311507 -0.950244 0
    outer loop
      vertex 7.16505 -6.79272 -4
      vertex 8.20639 -6.45135 0
      vertex 7.16505 -6.79272 0
    endloop
  endfacet
  facet normal 0.311507 -0.950244 0
    outer loop
      vertex 8.20639 -6.45135 0
      vertex 7.16505 -6.79272 -4
      vertex 8.20639 -6.45135 -4
    endloop
  endfacet
  facet normal 0.0950875 -0.995469 0
    outer loop
      vertex 5.97368 -6.90652 -4
      vertex 7.16505 -6.79272 0
      vertex 5.97368 -6.90652 0
    endloop
  endfacet
  facet normal 0.0950875 -0.995469 0
    outer loop
      vertex 7.16505 -6.79272 0
      vertex 5.97368 -6.90652 -4
      vertex 7.16505 -6.79272 -4
    endloop
  endfacet
  facet normal -0.0969392 -0.99529 0
    outer loop
      vertex 4.78577 -6.79082 -4
      vertex 5.97368 -6.90652 0
      vertex 4.78577 -6.79082 0
    endloop
  endfacet
  facet normal -0.0969392 -0.99529 -0
    outer loop
      vertex 5.97368 -6.90652 0
      vertex 4.78577 -6.79082 -4
      vertex 5.97368 -6.90652 -4
    endloop
  endfacet
  facet normal -0.381863 0.924219 0
    outer loop
      vertex 7.33159 -4.97894 -4
      vertex 6.69457 -5.24214 0
      vertex 7.33159 -4.97894 0
    endloop
  endfacet
  facet normal -0.381863 0.924219 0
    outer loop
      vertex 6.69457 -5.24214 0
      vertex 7.33159 -4.97894 -4
      vertex 6.69457 -5.24214 -4
    endloop
  endfacet
  facet normal -0.628435 0.777862 0
    outer loop
      vertex 7.87454 -4.54029 -4
      vertex 7.33159 -4.97894 0
      vertex 7.87454 -4.54029 0
    endloop
  endfacet
  facet normal -0.628435 0.777862 0
    outer loop
      vertex 7.33159 -4.97894 0
      vertex 7.87454 -4.54029 -4
      vertex 7.33159 -4.97894 -4
    endloop
  endfacet
  facet normal -0.807322 0.590111 0
    outer loop
      vertex 7.87454 -4.54029 -4
      vertex 8.32343 -3.92617 0
      vertex 8.32343 -3.92617 -4
    endloop
  endfacet
  facet normal -0.807322 0.590111 0
    outer loop
      vertex 8.32343 -3.92617 0
      vertex 7.87454 -4.54029 -4
      vertex 7.87454 -4.54029 0
    endloop
  endfacet
  facet normal -0.912809 0.408387 0
    outer loop
      vertex 8.32343 -3.92617 -4
      vertex 8.67498 -3.1404 0
      vertex 8.67498 -3.1404 -4
    endloop
  endfacet
  facet normal -0.912809 0.408387 0
    outer loop
      vertex 8.67498 -3.1404 0
      vertex 8.32343 -3.92617 -4
      vertex 8.32343 -3.92617 0
    endloop
  endfacet
  facet normal -0.967033 0.25465 0
    outer loop
      vertex 8.67498 -3.1404 -4
      vertex 8.92609 -2.18681 0
      vertex 8.92609 -2.18681 -4
    endloop
  endfacet
  facet normal -0.967033 0.25465 0
    outer loop
      vertex 8.92609 -2.18681 0
      vertex 8.67498 -3.1404 -4
      vertex 8.67498 -3.1404 0
    endloop
  endfacet
  facet normal -0.991095 0.133159 0
    outer loop
      vertex 8.92609 -2.18681 -4
      vertex 9.07676 -1.06538 0
      vertex 9.07676 -1.06538 -4
    endloop
  endfacet
  facet normal -0.991095 0.133159 0
    outer loop
      vertex 9.07676 -1.06538 0
      vertex 8.92609 -2.18681 -4
      vertex 8.92609 -2.18681 0
    endloop
  endfacet
  facet normal -0.999242 0.0389234 0
    outer loop
      vertex 9.07676 -1.06538 -4
      vertex 9.12698 0.223869 0
      vertex 9.12698 0.223869 -4
    endloop
  endfacet
  facet normal -0.999242 0.0389234 0
    outer loop
      vertex 9.12698 0.223869 0
      vertex 9.07676 -1.06538 -4
      vertex 9.07676 -1.06538 0
    endloop
  endfacet
  facet normal -0.996521 -0.0833365 0
    outer loop
      vertex 9.12698 0.223869 -4
      vertex 8.92862 2.59582 0
      vertex 8.92862 2.59582 -4
    endloop
  endfacet
  facet normal -0.996521 -0.0833365 0
    outer loop
      vertex 8.92862 2.59582 0
      vertex 9.12698 0.223869 -4
      vertex 9.12698 0.223869 0
    endloop
  endfacet
  facet normal -0.943498 -0.331378 0
    outer loop
      vertex 8.92862 2.59582 -4
      vertex 8.33356 4.29007 0
      vertex 8.33356 4.29007 -4
    endloop
  endfacet
  facet normal -0.943498 -0.331378 0
    outer loop
      vertex 8.33356 4.29007 0
      vertex 8.92862 2.59582 -4
      vertex 8.92862 2.59582 0
    endloop
  endfacet
  facet normal -0.71577 -0.698336 0
    outer loop
      vertex 8.33356 4.29007 -4
      vertex 7.34177 5.30662 0
      vertex 7.34177 5.30662 -4
    endloop
  endfacet
  facet normal -0.71577 -0.698336 0
    outer loop
      vertex 7.34177 5.30662 0
      vertex 8.33356 4.29007 -4
      vertex 8.33356 4.29007 0
    endloop
  endfacet
  facet normal -0.237084 -0.971489 0
    outer loop
      vertex 5.95328 5.64547 -4
      vertex 7.34177 5.30662 0
      vertex 5.95328 5.64547 0
    endloop
  endfacet
  facet normal -0.237084 -0.971489 -0
    outer loop
      vertex 7.34177 5.30662 0
      vertex 5.95328 5.64547 -4
      vertex 7.34177 5.30662 -4
    endloop
  endfacet
  facet normal 0.23853 -0.971135 0
    outer loop
      vertex 4.57371 5.30662 -4
      vertex 5.95328 5.64547 0
      vertex 4.57371 5.30662 0
    endloop
  endfacet
  facet normal 0.23853 -0.971135 0
    outer loop
      vertex 5.95328 5.64547 0
      vertex 4.57371 5.30662 -4
      vertex 5.95328 5.64547 -4
    endloop
  endfacet
  facet normal 0.718019 -0.696024 0
    outer loop
      vertex 3.5883 4.29007 0
      vertex 4.57371 5.30662 -4
      vertex 4.57371 5.30662 0
    endloop
  endfacet
  facet normal 0.718019 -0.696024 0
    outer loop
      vertex 4.57371 5.30662 -4
      vertex 3.5883 4.29007 0
      vertex 3.5883 4.29007 -4
    endloop
  endfacet
  facet normal 0.944162 -0.329483 0
    outer loop
      vertex 2.99706 2.59582 0
      vertex 3.5883 4.29007 -4
      vertex 3.5883 4.29007 0
    endloop
  endfacet
  facet normal 0.944162 -0.329483 0
    outer loop
      vertex 3.5883 4.29007 -4
      vertex 2.99706 2.59582 0
      vertex 2.99706 2.59582 -4
    endloop
  endfacet
  facet normal 0.996566 -0.0828024 0
    outer loop
      vertex 2.79998 0.223869 0
      vertex 2.99706 2.59582 -4
      vertex 2.99706 2.59582 0
    endloop
  endfacet
  facet normal 0.996566 -0.0828024 0
    outer loop
      vertex 2.99706 2.59582 -4
      vertex 2.79998 0.223869 0
      vertex 2.79998 0.223869 -4
    endloop
  endfacet
  facet normal 0.999317 0.0369423 0
    outer loop
      vertex 2.84703 -1.04887 0
      vertex 2.79998 0.223869 -4
      vertex 2.79998 0.223869 0
    endloop
  endfacet
  facet normal 0.999317 0.0369423 0
    outer loop
      vertex 2.79998 0.223869 -4
      vertex 2.84703 -1.04887 0
      vertex 2.84703 -1.04887 -4
    endloop
  endfacet
  facet normal 0.992047 0.125871 0
    outer loop
      vertex 2.98819 -2.16142 0
      vertex 2.84703 -1.04887 -4
      vertex 2.84703 -1.04887 0
    endloop
  endfacet
  facet normal 0.992047 0.125871 0
    outer loop
      vertex 2.84703 -1.04887 -4
      vertex 2.98819 -2.16142 0
      vertex 2.98819 -2.16142 -4
    endloop
  endfacet
  facet normal 0.970815 0.239832 0
    outer loop
      vertex 3.22346 -3.11377 0
      vertex 2.98819 -2.16142 -4
      vertex 2.98819 -2.16142 0
    endloop
  endfacet
  facet normal 0.970815 0.239832 0
    outer loop
      vertex 2.98819 -2.16142 -4
      vertex 3.22346 -3.11377 0
      vertex 3.22346 -3.11377 -4
    endloop
  endfacet
  facet normal 0.923363 0.383927 0
    outer loop
      vertex 3.55283 -3.90592 0
      vertex 3.22346 -3.11377 -4
      vertex 3.22346 -3.11377 0
    endloop
  endfacet
  facet normal 0.923363 0.383927 0
    outer loop
      vertex 3.22346 -3.11377 -4
      vertex 3.55283 -3.90592 0
      vertex 3.55283 -3.90592 -4
    endloop
  endfacet
  facet normal 0.821182 0.570667 0
    outer loop
      vertex 3.98576 -4.5289 0
      vertex 3.55283 -3.90592 -4
      vertex 3.55283 -3.90592 0
    endloop
  endfacet
  facet normal 0.821182 0.570667 0
    outer loop
      vertex 3.55283 -3.90592 -4
      vertex 3.98576 -4.5289 0
      vertex 3.98576 -4.5289 -4
    endloop
  endfacet
  facet normal 0.631688 0.775223 -0
    outer loop
      vertex 4.53185 -4.97388 -4
      vertex 3.98576 -4.5289 0
      vertex 4.53185 -4.97388 0
    endloop
  endfacet
  facet normal 0.631688 0.775223 0
    outer loop
      vertex 3.98576 -4.5289 0
      vertex 4.53185 -4.97388 -4
      vertex 3.98576 -4.5289 -4
    endloop
  endfacet
  facet normal 0.375392 0.926866 -0
    outer loop
      vertex 5.19109 -5.24088 -4
      vertex 4.53185 -4.97388 0
      vertex 5.19109 -5.24088 0
    endloop
  endfacet
  facet normal 0.375392 0.926866 0
    outer loop
      vertex 4.53185 -4.97388 0
      vertex 5.19109 -5.24088 -4
      vertex 4.53185 -4.97388 -4
    endloop
  endfacet
  facet normal 0.114457 0.993428 -0
    outer loop
      vertex 5.96348 -5.32987 -4
      vertex 5.19109 -5.24088 0
      vertex 5.96348 -5.32987 0
    endloop
  endfacet
  facet normal 0.114457 0.993428 0
    outer loop
      vertex 5.19109 -5.24088 0
      vertex 5.96348 -5.32987 -4
      vertex 5.19109 -5.24088 -4
    endloop
  endfacet
  facet normal -0.119144 0.992877 0
    outer loop
      vertex 6.69457 -5.24214 -4
      vertex 5.96348 -5.32987 0
      vertex 6.69457 -5.24214 0
    endloop
  endfacet
  facet normal -0.119144 0.992877 0
    outer loop
      vertex 5.96348 -5.32987 0
      vertex 6.69457 -5.24214 -4
      vertex 5.96348 -5.32987 -4
    endloop
  endfacet
  facet normal 0 -1 0
    outer loop
      vertex 18.4065 -0.854324 -4
      vertex 20.8274 -0.854324 0
      vertex 18.4065 -0.854324 0
    endloop
  endfacet
  facet normal 0 -1 -0
    outer loop
      vertex 20.8274 -0.854324 0
      vertex 18.4065 -0.854324 -4
      vertex 20.8274 -0.854324 -4
    endloop
  endfacet
  facet normal 0.843594 -0.536982 0
    outer loop
      vertex 14.6835 -6.70312 0
      vertex 18.4065 -0.854324 -4
      vertex 18.4065 -0.854324 0
    endloop
  endfacet
  facet normal 0.843594 -0.536982 0
    outer loop
      vertex 18.4065 -0.854324 -4
      vertex 14.6835 -6.70312 0
      vertex 14.6835 -6.70312 -4
    endloop
  endfacet
  facet normal 0 -1 0
    outer loop
      vertex 12.4458 -6.70312 -4
      vertex 14.6835 -6.70312 0
      vertex 12.4458 -6.70312 0
    endloop
  endfacet
  facet normal 0 -1 -0
    outer loop
      vertex 14.6835 -6.70312 0
      vertex 12.4458 -6.70312 -4
      vertex 14.6835 -6.70312 -4
    endloop
  endfacet
  facet normal -0.83076 0.556631 0
    outer loop
      vertex 12.4458 -6.70312 -4
      vertex 16.5146 -0.630524 0
      vertex 16.5146 -0.630524 -4
    endloop
  endfacet
  facet normal -0.83076 0.556631 0
    outer loop
      vertex 16.5146 -0.630524 0
      vertex 12.4458 -6.70312 -4
      vertex 12.4458 -6.70312 0
    endloop
  endfacet
  facet normal -0.231652 -0.972799 0
    outer loop
      vertex 15.7564 -0.449974 -4
      vertex 16.5146 -0.630524 0
      vertex 15.7564 -0.449974 0
    endloop
  endfacet
  facet normal -0.231652 -0.972799 -0
    outer loop
      vertex 16.5146 -0.630524 0
      vertex 15.7564 -0.449974 -4
      vertex 16.5146 -0.630524 -4
    endloop
  endfacet
  facet normal -0.378701 -0.925519 0
    outer loop
      vertex 15.079 -0.172798 -4
      vertex 15.7564 -0.449974 0
      vertex 15.079 -0.172798 0
    endloop
  endfacet
  facet normal -0.378701 -0.925519 -0
    outer loop
      vertex 15.7564 -0.449974 0
      vertex 15.079 -0.172798 -4
      vertex 15.7564 -0.449974 -4
    endloop
  endfacet
  facet normal -0.530954 -0.847401 0
    outer loop
      vertex 14.4824 0.201012 -4
      vertex 15.079 -0.172798 0
      vertex 14.4824 0.201012 0
    endloop
  endfacet
  facet normal -0.530954 -0.847401 -0
    outer loop
      vertex 15.079 -0.172798 0
      vertex 14.4824 0.201012 -4
      vertex 15.079 -0.172798 -4
    endloop
  endfacet
  facet normal -0.673816 -0.738899 0
    outer loop
      vertex 13.9665 0.671471 -4
      vertex 14.4824 0.201012 0
      vertex 13.9665 0.671471 0
    endloop
  endfacet
  facet normal -0.673816 -0.738899 -0
    outer loop
      vertex 14.4824 0.201012 0
      vertex 13.9665 0.671471 -4
      vertex 14.4824 0.201012 -4
    endloop
  endfacet
  facet normal -0.796773 -0.604279 0
    outer loop
      vertex 13.9665 0.671471 -4
      vertex 13.5504 1.22012 0
      vertex 13.5504 1.22012 -4
    endloop
  endfacet
  facet normal -0.796773 -0.604279 0
    outer loop
      vertex 13.5504 1.22012 0
      vertex 13.9665 0.671471 -4
      vertex 13.9665 0.671471 0
    endloop
  endfacet
  facet normal -0.89853 -0.438912 0
    outer loop
      vertex 13.5504 1.22012 -4
      vertex 13.2532 1.82854 0
      vertex 13.2532 1.82854 -4
    endloop
  endfacet
  facet normal -0.89853 -0.438912 0
    outer loop
      vertex 13.2532 1.82854 0
      vertex 13.5504 1.22012 -4
      vertex 13.5504 1.22012 0
    endloop
  endfacet
  facet normal -0.966154 -0.257965 0
    outer loop
      vertex 13.2532 1.82854 -4
      vertex 13.0748 2.4967 0
      vertex 13.0748 2.4967 -4
    endloop
  endfacet
  facet normal -0.966154 -0.257965 0
    outer loop
      vertex 13.0748 2.4967 0
      vertex 13.2532 1.82854 -4
      vertex 13.2532 1.82854 0
    endloop
  endfacet
  facet normal -0.996687 -0.081332 0
    outer loop
      vertex 13.0748 2.4967 -4
      vertex 13.0154 3.22462 0
      vertex 13.0154 3.22462 -4
    endloop
  endfacet
  facet normal -0.996687 -0.081332 0
    outer loop
      vertex 13.0154 3.22462 0
      vertex 13.0748 2.4967 -4
      vertex 13.0748 2.4967 0
    endloop
  endfacet
  facet normal -0.995986 0.0895079 0
    outer loop
      vertex 13.0154 3.22462 -4
      vertex 13.0929 4.08699 0
      vertex 13.0929 4.08699 -4
    endloop
  endfacet
  facet normal -0.995986 0.0895079 0
    outer loop
      vertex 13.0929 4.08699 0
      vertex 13.0154 3.22462 -4
      vertex 13.0154 3.22462 0
    endloop
  endfacet
  facet normal -0.955771 0.294112 0
    outer loop
      vertex 13.0929 4.08699 -4
      vertex 13.3256 4.84319 0
      vertex 13.3256 4.84319 -4
    endloop
  endfacet
  facet normal -0.955771 0.294112 0
    outer loop
      vertex 13.3256 4.84319 0
      vertex 13.0929 4.08699 -4
      vertex 13.0929 4.08699 0
    endloop
  endfacet
  facet normal -0.85879 0.512328 0
    outer loop
      vertex 13.3256 4.84319 -4
      vertex 13.7134 5.49324 0
      vertex 13.7134 5.49324 -4
    endloop
  endfacet
  facet normal -0.85879 0.512328 0
    outer loop
      vertex 13.7134 5.49324 0
      vertex 13.3256 4.84319 -4
      vertex 13.3256 4.84319 0
    endloop
  endfacet
  facet normal -0.707744 0.706469 0
    outer loop
      vertex 13.7134 5.49324 -4
      vertex 14.2563 6.03712 0
      vertex 14.2563 6.03712 -4
    endloop
  endfacet
  facet normal -0.707744 0.706469 0
    outer loop
      vertex 14.2563 6.03712 0
      vertex 13.7134 5.49324 -4
      vertex 13.7134 5.49324 0
    endloop
  endfacet
  facet normal -0.527799 0.849369 0
    outer loop
      vertex 14.9474 6.46657 -4
      vertex 14.2563 6.03712 0
      vertex 14.9474 6.46657 0
    endloop
  endfacet
  facet normal -0.527799 0.849369 0
    outer loop
      vertex 14.2563 6.03712 0
      vertex 14.9474 6.46657 -4
      vertex 14.2563 6.03712 -4
    endloop
  endfacet
  facet normal -0.345854 0.938288 0
    outer loop
      vertex 15.7796 6.77332 -4
      vertex 14.9474 6.46657 0
      vertex 15.7796 6.77332 0
    endloop
  endfacet
  facet normal -0.345854 0.938288 0
    outer loop
      vertex 14.9474 6.46657 0
      vertex 15.7796 6.77332 -4
      vertex 14.9474 6.46657 -4
    endloop
  endfacet
  facet normal -0.185806 0.982586 0
    outer loop
      vertex 16.7529 6.95737 -4
      vertex 15.7796 6.77332 0
      vertex 16.7529 6.95737 0
    endloop
  endfacet
  facet normal -0.185806 0.982586 0
    outer loop
      vertex 15.7796 6.77332 0
      vertex 16.7529 6.95737 -4
      vertex 15.7796 6.77332 -4
    endloop
  endfacet
  facet normal -0.0549639 0.998488 0
    outer loop
      vertex 17.8674 7.01872 -4
      vertex 16.7529 6.95737 0
      vertex 17.8674 7.01872 0
    endloop
  endfacet
  facet normal -0.0549639 0.998488 0
    outer loop
      vertex 16.7529 6.95737 0
      vertex 17.8674 7.01872 -4
      vertex 16.7529 6.95737 -4
    endloop
  endfacet
  facet normal 0 1 -0
    outer loop
      vertex 22.7702 7.01872 -4
      vertex 17.8674 7.01872 0
      vertex 22.7702 7.01872 0
    endloop
  endfacet
  facet normal 0 1 0
    outer loop
      vertex 17.8674 7.01872 0
      vertex 22.7702 7.01872 -4
      vertex 17.8674 7.01872 -4
    endloop
  endfacet
  facet normal 1 -0 0
    outer loop
      vertex 22.7702 -6.70312 0
      vertex 22.7702 7.01872 -4
      vertex 22.7702 7.01872 0
    endloop
  endfacet
  facet normal 1 0 0
    outer loop
      vertex 22.7702 7.01872 -4
      vertex 22.7702 -6.70312 0
      vertex 22.7702 -6.70312 -4
    endloop
  endfacet
  facet normal 0 -1 0
    outer loop
      vertex 20.8274 -6.70312 -4
      vertex 22.7702 -6.70312 0
      vertex 20.8274 -6.70312 0
    endloop
  endfacet
  facet normal 0 -1 -0
    outer loop
      vertex 22.7702 -6.70312 0
      vertex 20.8274 -6.70312 -4
      vertex 22.7702 -6.70312 -4
    endloop
  endfacet
  facet normal -1 0 0
    outer loop
      vertex 20.8274 -6.70312 -4
      vertex 20.8274 -0.854324 0
      vertex 20.8274 -0.854324 -4
    endloop
  endfacet
  facet normal -1 -0 0
    outer loop
      vertex 20.8274 -0.854324 0
      vertex 20.8274 -6.70312 -4
      vertex 20.8274 -6.70312 0
    endloop
  endfacet
  facet normal -1 0 0
    outer loop
      vertex 20.8274 0.681671 -4
      vertex 20.8274 5.46247 0
      vertex 20.8274 5.46247 -4
    endloop
  endfacet
  facet normal -1 -0 0
    outer loop
      vertex 20.8274 5.46247 0
      vertex 20.8274 0.681671 -4
      vertex 20.8274 0.681671 0
    endloop
  endfacet
  facet normal 0 -1 0
    outer loop
      vertex 18.0606 5.46247 -4
      vertex 20.8274 5.46247 0
      vertex 18.0606 5.46247 0
    endloop
  endfacet
  facet normal 0 -1 -0
    outer loop
      vertex 20.8274 5.46247 0
      vertex 18.0606 5.46247 -4
      vertex 20.8274 5.46247 -4
    endloop
  endfacet
  facet normal 0.104227 -0.994554 0
    outer loop
      vertex 16.7078 5.3207 -4
      vertex 18.0606 5.46247 0
      vertex 16.7078 5.3207 0
    endloop
  endfacet
  facet normal 0.104227 -0.994554 0
    outer loop
      vertex 18.0606 5.46247 0
      vertex 16.7078 5.3207 -4
      vertex 18.0606 5.46247 -4
    endloop
  endfacet
  facet normal 0.402813 -0.915282 0
    outer loop
      vertex 15.7414 4.89539 -4
      vertex 16.7078 5.3207 0
      vertex 15.7414 4.89539 0
    endloop
  endfacet
  facet normal 0.402813 -0.915282 0
    outer loop
      vertex 16.7078 5.3207 0
      vertex 15.7414 4.89539 -4
      vertex 16.7078 5.3207 -4
    endloop
  endfacet
  facet normal 0.774043 -0.633133 0
    outer loop
      vertex 15.1616 4.18655 0
      vertex 15.7414 4.89539 -4
      vertex 15.7414 4.89539 0
    endloop
  endfacet
  facet normal 0.774043 -0.633133 0
    outer loop
      vertex 15.7414 4.89539 -4
      vertex 15.1616 4.18655 0
      vertex 15.1616 4.18655 -4
    endloop
  endfacet
  facet normal 0.981571 -0.191096 0
    outer loop
      vertex 14.9684 3.19417 0
      vertex 15.1616 4.18655 -4
      vertex 15.1616 4.18655 0
    endloop
  endfacet
  facet normal 0.981571 -0.191096 0
    outer loop
      vertex 15.1616 4.18655 -4
      vertex 14.9684 3.19417 0
      vertex 14.9684 3.19417 -4
    endloop
  endfacet
  facet normal 0.996388 0.0849135 0
    outer loop
      vertex 15.017 2.62389 0
      vertex 14.9684 3.19417 -4
      vertex 14.9684 3.19417 0
    endloop
  endfacet
  facet normal 0.996388 0.0849135 0
    outer loop
      vertex 14.9684 3.19417 -4
      vertex 15.017 2.62389 0
      vertex 15.017 2.62389 -4
    endloop
  endfacet
  facet normal 0.960018 0.279937 0
    outer loop
      vertex 15.1629 2.12354 0
      vertex 15.017 2.62389 -4
      vertex 15.017 2.62389 0
    endloop
  endfacet
  facet normal 0.960018 0.279937 0
    outer loop
      vertex 15.017 2.62389 -4
      vertex 15.1629 2.12354 0
      vertex 15.1629 2.12354 -4
    endloop
  endfacet
  facet normal 0.870623 0.491951 0
    outer loop
      vertex 15.4061 1.69314 0
      vertex 15.1629 2.12354 -4
      vertex 15.1629 2.12354 0
    endloop
  endfacet
  facet normal 0.870623 0.491951 0
    outer loop
      vertex 15.1629 2.12354 -4
      vertex 15.4061 1.69314 0
      vertex 15.4061 1.69314 -4
    endloop
  endfacet
  facet normal 0.726957 0.686683 0
    outer loop
      vertex 15.7466 1.33267 0
      vertex 15.4061 1.69314 -4
      vertex 15.4061 1.69314 0
    endloop
  endfacet
  facet normal 0.726957 0.686683 0
    outer loop
      vertex 15.4061 1.69314 -4
      vertex 15.7466 1.33267 0
      vertex 15.7466 1.33267 -4
    endloop
  endfacet
  facet normal 0.551047 0.834474 -0
    outer loop
      vertex 16.1779 1.04786 -4
      vertex 15.7466 1.33267 0
      vertex 16.1779 1.04786 0
    endloop
  endfacet
  facet normal 0.551047 0.834474 0
    outer loop
      vertex 15.7466 1.33267 0
      vertex 16.1779 1.04786 -4
      vertex 15.7466 1.33267 -4
    endloop
  endfacet
  facet normal 0.366846 0.930282 -0
    outer loop
      vertex 16.6938 0.844421 -4
      vertex 16.1779 1.04786 0
      vertex 16.6938 0.844421 0
    endloop
  endfacet
  facet normal 0.366846 0.930282 0
    outer loop
      vertex 16.1779 1.04786 0
      vertex 16.6938 0.844421 -4
      vertex 16.1779 1.04786 -4
    endloop
  endfacet
  facet normal 0.199194 0.97996 -0
    outer loop
      vertex 17.2943 0.722359 -4
      vertex 16.6938 0.844421 0
      vertex 17.2943 0.722359 0
    endloop
  endfacet
  facet normal 0.199194 0.97996 0
    outer loop
      vertex 16.6938 0.844421 0
      vertex 17.2943 0.722359 -4
      vertex 16.6938 0.844421 -4
    endloop
  endfacet
  facet normal 0.059294 0.998241 -0
    outer loop
      vertex 17.9793 0.681671 -4
      vertex 17.2943 0.722359 0
      vertex 17.9793 0.681671 0
    endloop
  endfacet
  facet normal 0.059294 0.998241 0
    outer loop
      vertex 17.2943 0.722359 0
      vertex 17.9793 0.681671 -4
      vertex 17.2943 0.722359 -4
    endloop
  endfacet
  facet normal 0 1 -0
    outer loop
      vertex 20.8274 0.681671 -4
      vertex 17.9793 0.681671 0
      vertex 20.8274 0.681671 0
    endloop
  endfacet
  facet normal 0 1 0
    outer loop
      vertex 17.9793 0.681671 0
      vertex 20.8274 0.681671 -4
      vertex 17.9793 0.681671 -4
    endloop
  endfacet
  facet normal 0 -1 0
    outer loop
      vertex -10.7923 -1.20007 -4
      vertex -3.9162 -1.20007 0
      vertex -10.7923 -1.20007 0
    endloop
  endfacet
  facet normal 0 -1 -0
    outer loop
      vertex -3.9162 -1.20007 0
      vertex -10.7923 -1.20007 -4
      vertex -3.9162 -1.20007 -4
    endloop
  endfacet
  facet normal -1 0 0
    outer loop
      vertex -10.7923 -1.20007 -4
      vertex -10.7923 0.407021 0
      vertex -10.7923 0.407021 -4
    endloop
  endfacet
  facet normal -1 -0 0
    outer loop
      vertex -10.7923 0.407021 0
      vertex -10.7923 -1.20007 -4
      vertex -10.7923 -1.20007 0
    endloop
  endfacet
  facet normal 0 1 -0
    outer loop
      vertex -3.9162 0.407021 -4
      vertex -10.7923 0.407021 0
      vertex -3.9162 0.407021 0
    endloop
  endfacet
  facet normal 0 1 0
    outer loop
      vertex -10.7923 0.407021 0
      vertex -3.9162 0.407021 -4
      vertex -10.7923 0.407021 -4
    endloop
  endfacet
  facet normal -1 0 0
    outer loop
      vertex -3.9162 0.407021 -4
      vertex -3.9162 5.43187 0
      vertex -3.9162 5.43187 -4
    endloop
  endfacet
  facet normal -1 -0 0
    outer loop
      vertex -3.9162 5.43187 0
      vertex -3.9162 0.407021 -4
      vertex -3.9162 0.407021 0
    endloop
  endfacet
  facet normal 0 -1 0
    outer loop
      vertex -11.0365 5.43187 -4
      vertex -3.9162 5.43187 0
      vertex -11.0365 5.43187 0
    endloop
  endfacet
  facet normal 0 -1 -0
    outer loop
      vertex -3.9162 5.43187 0
      vertex -11.0365 5.43187 -4
      vertex -3.9162 5.43187 -4
    endloop
  endfacet
  facet normal -1 0 0
    outer loop
      vertex -11.0365 5.43187 -4
      vertex -11.0365 7.01872 0
      vertex -11.0365 7.01872 -4
    endloop
  endfacet
  facet normal -1 -0 0
    outer loop
      vertex -11.0365 7.01872 0
      vertex -11.0365 5.43187 -4
      vertex -11.0365 5.43187 0
    endloop
  endfacet
  facet normal 0 1 -0
    outer loop
      vertex -1.9734 7.01872 -4
      vertex -11.0365 7.01872 0
      vertex -1.9734 7.01872 0
    endloop
  endfacet
  facet normal 0 1 0
    outer loop
      vertex -11.0365 7.01872 0
      vertex -1.9734 7.01872 -4
      vertex -11.0365 7.01872 -4
    endloop
  endfacet
  facet normal 1 -0 0
    outer loop
      vertex -1.9734 -6.70312 0
      vertex -1.9734 7.01872 -4
      vertex -1.9734 7.01872 0
    endloop
  endfacet
  facet normal 1 0 0
    outer loop
      vertex -1.9734 7.01872 -4
      vertex -1.9734 -6.70312 0
      vertex -1.9734 -6.70312 -4
    endloop
  endfacet
  facet normal 0 -1 0
    outer loop
      vertex -3.9162 -6.70312 -4
      vertex -1.9734 -6.70312 0
      vertex -3.9162 -6.70312 0
    endloop
  endfacet
  facet normal 0 -1 -0
    outer loop
      vertex -1.9734 -6.70312 0
      vertex -3.9162 -6.70312 -4
      vertex -1.9734 -6.70312 -4
    endloop
  endfacet
  facet normal -1 0 0
    outer loop
      vertex -3.9162 -6.70312 -4
      vertex -3.9162 -1.20007 0
      vertex -3.9162 -1.20007 -4
    endloop
  endfacet
  facet normal -1 -0 0
    outer loop
      vertex -3.9162 -1.20007 0
      vertex -3.9162 -6.70312 -4
      vertex -3.9162 -6.70312 0
    endloop
  endfacet
  facet normal 0 1 -0
    outer loop
      vertex -16.5626 -5.11627 -4
      vertex -23.3981 -5.11627 0
      vertex -16.5626 -5.11627 0
    endloop
  endfacet
  facet normal 0 1 0
    outer loop
      vertex -23.3981 -5.11627 0
      vertex -16.5626 -5.11627 -4
      vertex -23.3981 -5.11627 -4
    endloop
  endfacet
  facet normal -1 0 0
    outer loop
      vertex -16.5626 -5.11627 -4
      vertex -16.5626 7.01872 0
      vertex -16.5626 7.01872 -4
    endloop
  endfacet
  facet normal -1 -0 0
    outer loop
      vertex -16.5626 7.01872 0
      vertex -16.5626 -5.11627 -4
      vertex -16.5626 -5.11627 0
    endloop
  endfacet
  facet normal 0 1 -0
    outer loop
      vertex -14.6198 7.01872 -4
      vertex -16.5626 7.01872 0
      vertex -14.6198 7.01872 0
    endloop
  endfacet
  facet normal 0 1 0
    outer loop
      vertex -16.5626 7.01872 0
      vertex -14.6198 7.01872 -4
      vertex -16.5626 7.01872 -4
    endloop
  endfacet
  facet normal 1 -0 0
    outer loop
      vertex -14.6198 -6.70312 0
      vertex -14.6198 7.01872 -4
      vertex -14.6198 7.01872 0
    endloop
  endfacet
  facet normal 1 0 0
    outer loop
      vertex -14.6198 7.01872 -4
      vertex -14.6198 -6.70312 0
      vertex -14.6198 -6.70312 -4
    endloop
  endfacet
  facet normal 0 -1 0
    outer loop
      vertex -23.3981 -6.70312 -4
      vertex -14.6198 -6.70312 0
      vertex -23.3981 -6.70312 0
    endloop
  endfacet
  facet normal 0 -1 -0
    outer loop
      vertex -14.6198 -6.70312 0
      vertex -23.3981 -6.70312 -4
      vertex -14.6198 -6.70312 -4
    endloop
  endfacet
  facet normal -1 0 0
    outer loop
      vertex -23.3981 -6.70312 -4
      vertex -23.3981 -5.11627 0
      vertex -23.3981 -5.11627 -4
    endloop
  endfacet
  facet normal -1 -0 0
    outer loop
      vertex -23.3981 -5.11627 0
      vertex -23.3981 -6.70312 -4
      vertex -23.3981 -6.70312 0
    endloop
  endfacet
  facet normal -1 0 0
    outer loop
      vertex -24 -10 -14
      vertex -24 10 -4
      vertex -24 10 -14
    endloop
  endfacet
  facet normal -1 -0 0
    outer loop
      vertex -24 10 -4
      vertex -24 -10 -14
      vertex -24 -10 -4
    endloop
  endfacet
  facet normal 0 0 -1
    outer loop
      vertex -24 -10 -14
      vertex 24 10 -14
      vertex 24 -10 -14
    endloop
  endfacet
  facet normal -0 0 -1
    outer loop
      vertex 24 10 -14
      vertex -24 -10 -14
      vertex -24 10 -14
    endloop
  endfacet
  facet normal 0 0 1
    outer loop
      vertex -3.9162 5.43187 -4
      vertex -10.7923 0.407021 -4
      vertex -3.9162 0.407021 -4
    endloop
  endfacet
  facet normal 0 0 1
    outer loop
      vertex -14.6198 7.01872 -4
      vertex -10.7923 0.407021 -4
      vertex -11.0365 5.43187 -4
    endloop
  endfacet
  facet normal -0 0 1
    outer loop
      vertex -11.0365 5.43187 -4
      vertex -10.7923 0.407021 -4
      vertex -3.9162 5.43187 -4
    endloop
  endfacet
  facet normal 0 0 1
    outer loop
      vertex -3.9162 -1.20007 -4
      vertex -10.7923 -1.20007 -4
      vertex -3.9162 -6.70312 -4
    endloop
  endfacet
  facet normal 0 0 1
    outer loop
      vertex 15.7564 -0.449974 -4
      vertex 12.4458 -6.70312 -4
      vertex 16.5146 -0.630524 -4
    endloop
  endfacet
  facet normal 0 0 1
    outer loop
      vertex 10.8384 -2.84797 -4
      vertex 15.7564 -0.449974 -4
      vertex 15.079 -0.172798 -4
    endloop
  endfacet
  facet normal 0 0 1
    outer loop
      vertex 11.0882 -1.4163 -4
      vertex 15.079 -0.172798 -4
      vertex 14.4824 0.201012 -4
    endloop
  endfacet
  facet normal 0 0 1
    outer loop
      vertex 11.0882 -1.4163 -4
      vertex 14.4824 0.201012 -4
      vertex 13.9665 0.671471 -4
    endloop
  endfacet
  facet normal 0 0 1
    outer loop
      vertex 11.1715 0.223869 -4
      vertex 13.9665 0.671471 -4
      vertex 13.5504 1.22012 -4
    endloop
  endfacet
  facet normal 0 0 1
    outer loop
      vertex 11.1715 0.223869 -4
      vertex 13.5504 1.22012 -4
      vertex 13.2532 1.82854 -4
    endloop
  endfacet
  facet normal -0 0 1
    outer loop
      vertex 11.0888 1.83549 -4
      vertex 13.2532 1.82854 -4
      vertex 13.0748 2.4967 -4
    endloop
  endfacet
  facet normal 0 0 1
    outer loop
      vertex 10.8409 3.24239 -4
      vertex 13.0748 2.4967 -4
      vertex 13.0154 3.22462 -4
    endloop
  endfacet
  facet normal 0 0 1
    outer loop
      vertex 20.8274 -0.854324 -4
      vertex 18.4065 -0.854324 -4
      vertex 20.8274 -6.70312 -4
    endloop
  endfacet
  facet normal 0 0 1
    outer loop
      vertex 22.7702 -6.70312 -4
      vertex 24 10 -4
      vertex 22.7702 7.01872 -4
    endloop
  endfacet
  facet normal 0 0 1
    outer loop
      vertex 24 10 -4
      vertex 17.8674 7.01872 -4
      vertex 22.7702 7.01872 -4
    endloop
  endfacet
  facet normal 0 0 1
    outer loop
      vertex 24 10 -4
      vertex 16.7529 6.95737 -4
      vertex 17.8674 7.01872 -4
    endloop
  endfacet
  facet normal 0 0 1
    outer loop
      vertex 24 10 -4
      vertex 15.7796 6.77332 -4
      vertex 16.7529 6.95737 -4
    endloop
  endfacet
  facet normal -0 0 1
    outer loop
      vertex 7.16186 7.12043 -4
      vertex 15.7796 6.77332 -4
      vertex 24 10 -4
    endloop
  endfacet
  facet normal 0 0 1
    outer loop
      vertex 13.9665 0.671471 -4
      vertex 11.1715 0.223869 -4
      vertex 11.0882 -1.4163 -4
    endloop
  endfacet
  facet normal -0 0 1
    outer loop
      vertex 10.8409 3.24239 -4
      vertex 13.0154 3.22462 -4
      vertex 13.0929 4.08699 -4
    endloop
  endfacet
  facet normal -0 0 1
    outer loop
      vertex 10.4277 4.44459 -4
      vertex 13.0929 4.08699 -4
      vertex 13.3256 4.84319 -4
    endloop
  endfacet
  facet normal 0 0 1
    outer loop
      vertex 13.2532 1.82854 -4
      vertex 11.0888 1.83549 -4
      vertex 11.1715 0.223869 -4
    endloop
  endfacet
  facet normal -0 0 1
    outer loop
      vertex 9.84923 5.44207 -4
      vertex 13.3256 4.84319 -4
      vertex 13.7134 5.49324 -4
    endloop
  endfacet
  facet normal 0 0 1
    outer loop
      vertex 13.0748 2.4967 -4
      vertex 10.8409 3.24239 -4
      vertex 11.0888 1.83549 -4
    endloop
  endfacet
  facet normal 0 0 1
    outer loop
      vertex 9.84923 5.44207 -4
      vertex 13.7134 5.49324 -4
      vertex 14.2563 6.03712 -4
    endloop
  endfacet
  facet normal 0 0 1
    outer loop
      vertex 13.0929 4.08699 -4
      vertex 10.4277 4.44459 -4
      vertex 10.8409 3.24239 -4
    endloop
  endfacet
  facet normal -0 0 1
    outer loop
      vertex 9.10983 6.2253 -4
      vertex 14.2563 6.03712 -4
      vertex 14.9474 6.46657 -4
    endloop
  endfacet
  facet normal 0 0 1
    outer loop
      vertex 13.3256 4.84319 -4
      vertex 9.84923 5.44207 -4
      vertex 10.4277 4.44459 -4
    endloop
  endfacet
  facet normal -0 -0 1
    outer loop
      vertex 8.21404 6.78476 -4
      vertex 15.7796 6.77332 -4
      vertex 7.16186 7.12043 -4
    endloop
  endfacet
  facet normal 0 0 1
    outer loop
      vertex 14.2563 6.03712 -4
      vertex 9.10983 6.2253 -4
      vertex 9.84923 5.44207 -4
    endloop
  endfacet
  facet normal 0 0 1
    outer loop
      vertex 14.9474 6.46657 -4
      vertex 8.21404 6.78476 -4
      vertex 9.10983 6.2253 -4
    endloop
  endfacet
  facet normal 0 0 1
    outer loop
      vertex 15.7796 6.77332 -4
      vertex 8.21404 6.78476 -4
      vertex 14.9474 6.46657 -4
    endloop
  endfacet
  facet normal 0 0 1
    outer loop
      vertex 24 10 -4
      vertex 5.95328 7.23232 -4
      vertex 7.16186 7.12043 -4
    endloop
  endfacet
  facet normal 0 0 1
    outer loop
      vertex -1.9734 7.01872 -4
      vertex 5.95328 7.23232 -4
      vertex 24 10 -4
    endloop
  endfacet
  facet normal 0 0 1
    outer loop
      vertex 0.839401 1.85614 -4
      vertex -1.9734 7.01872 -4
      vertex 0.755478 0.223869 -4
    endloop
  endfacet
  facet normal 0 0 1
    outer loop
      vertex 1.09118 3.27416 -4
      vertex -1.9734 7.01872 -4
      vertex 0.839401 1.85614 -4
    endloop
  endfacet
  facet normal 0 0 1
    outer loop
      vertex 1.5108 4.47792 -4
      vertex -1.9734 7.01872 -4
      vertex 1.09118 3.27416 -4
    endloop
  endfacet
  facet normal 0 0 1
    outer loop
      vertex 2.09828 5.46742 -4
      vertex -1.9734 7.01872 -4
      vertex 1.5108 4.47792 -4
    endloop
  endfacet
  facet normal 0 0 1
    outer loop
      vertex 2.84271 6.23956 -4
      vertex -1.9734 7.01872 -4
      vertex 2.09828 5.46742 -4
    endloop
  endfacet
  facet normal 0 0 1
    outer loop
      vertex 3.73335 6.7911 -4
      vertex -1.9734 7.01872 -4
      vertex 2.84271 6.23956 -4
    endloop
  endfacet
  facet normal 0 0 1
    outer loop
      vertex 4.77021 7.12202 -4
      vertex -1.9734 7.01872 -4
      vertex 3.73335 6.7911 -4
    endloop
  endfacet
  facet normal 0 0 1
    outer loop
      vertex 5.95328 7.23232 -4
      vertex -1.9734 7.01872 -4
      vertex 4.77021 7.12202 -4
    endloop
  endfacet
  facet normal -0 0 1
    outer loop
      vertex -24 10 -4
      vertex -1.9734 7.01872 -4
      vertex 24 10 -4
    endloop
  endfacet
  facet normal 0 0 1
    outer loop
      vertex -11.0365 7.01872 -4
      vertex -14.6198 7.01872 -4
      vertex -11.0365 5.43187 -4
    endloop
  endfacet
  facet normal 0 0 1
    outer loop
      vertex -1.9734 7.01872 -4
      vertex -24 10 -4
      vertex -11.0365 7.01872 -4
    endloop
  endfacet
  facet normal 0 0 1
    outer loop
      vertex -11.0365 7.01872 -4
      vertex -24 10 -4
      vertex -14.6198 7.01872 -4
    endloop
  endfacet
  facet normal 0 0 1
    outer loop
      vertex -16.5626 7.01872 -4
      vertex -23.3981 -5.11627 -4
      vertex -16.5626 -5.11627 -4
    endloop
  endfacet
  facet normal 0 0 1
    outer loop
      vertex -24 -10 -4
      vertex -23.3981 -5.11627 -4
      vertex -24 10 -4
    endloop
  endfacet
  facet normal 0 0 1
    outer loop
      vertex -16.5626 7.01872 -4
      vertex -24 10 -4
      vertex -23.3981 -5.11627 -4
    endloop
  endfacet
  facet normal 0 0 1
    outer loop
      vertex -14.6198 7.01872 -4
      vertex -24 10 -4
      vertex -16.5626 7.01872 -4
    endloop
  endfacet
  facet normal 0 0 1
    outer loop
      vertex 24 10 -4
      vertex 22.7702 -6.70312 -4
      vertex 24 -10 -4
    endloop
  endfacet
  facet normal -0 0 1
    outer loop
      vertex 20.8274 -6.70312 -4
      vertex 24 -10 -4
      vertex 22.7702 -6.70312 -4
    endloop
  endfacet
  facet normal 0 0 1
    outer loop
      vertex 14.6835 -6.70312 -4
      vertex 20.8274 -6.70312 -4
      vertex 18.4065 -0.854324 -4
    endloop
  endfacet
  facet normal -0 0 1
    outer loop
      vertex 14.6835 -6.70312 -4
      vertex 24 -10 -4
      vertex 20.8274 -6.70312 -4
    endloop
  endfacet
  facet normal -0 0 1
    outer loop
      vertex 12.4458 -6.70312 -4
      vertex 24 -10 -4
      vertex 14.6835 -6.70312 -4
    endloop
  endfacet
  facet normal 0 0 1
    outer loop
      vertex 15.079 -0.172798 -4
      vertex 11.0882 -1.4163 -4
      vertex 10.8384 -2.84797 -4
    endloop
  endfacet
  facet normal 0 0 1
    outer loop
      vertex 15.7564 -0.449974 -4
      vertex 10.8384 -2.84797 -4
      vertex 12.4458 -6.70312 -4
    endloop
  endfacet
  facet normal -0 0 1
    outer loop
      vertex 10.422 -4.07114 -4
      vertex 12.4458 -6.70312 -4
      vertex 10.8384 -2.84797 -4
    endloop
  endfacet
  facet normal -0 0 1
    outer loop
      vertex 9.83903 -5.08582 -4
      vertex 12.4458 -6.70312 -4
      vertex 10.422 -4.07114 -4
    endloop
  endfacet
  facet normal -0 0 1
    outer loop
      vertex 9.09772 -5.88238 -4
      vertex 12.4458 -6.70312 -4
      vertex 9.83903 -5.08582 -4
    endloop
  endfacet
  facet normal -0 0 1
    outer loop
      vertex 8.20639 -6.45135 -4
      vertex 12.4458 -6.70312 -4
      vertex 9.09772 -5.88238 -4
    endloop
  endfacet
  facet normal 0 0 1
    outer loop
      vertex 7.16505 -6.79272 -4
      vertex 12.4458 -6.70312 -4
      vertex 8.20639 -6.45135 -4
    endloop
  endfacet
  facet normal 0 0 1
    outer loop
      vertex 12.4458 -6.70312 -4
      vertex 7.16505 -6.79272 -4
      vertex 24 -10 -4
    endloop
  endfacet
  facet normal -0 0 1
    outer loop
      vertex 5.97368 -6.90652 -4
      vertex 24 -10 -4
      vertex 7.16505 -6.79272 -4
    endloop
  endfacet
  facet normal 0 0 1
    outer loop
      vertex -1.9734 -6.70312 -4
      vertex 5.97368 -6.90652 -4
      vertex 4.78577 -6.79082 -4
    endloop
  endfacet
  facet normal 0 0 1
    outer loop
      vertex -1.9734 -6.70312 -4
      vertex 0.755478 0.223869 -4
      vertex -1.9734 7.01872 -4
    endloop
  endfacet
  facet normal 0 0 1
    outer loop
      vertex 0.755478 0.223869 -4
      vertex -1.9734 -6.70312 -4
      vertex 0.839714 -1.39149 -4
    endloop
  endfacet
  facet normal 0 0 1
    outer loop
      vertex 0.839714 -1.39149 -4
      vertex -1.9734 -6.70312 -4
      vertex 1.09241 -2.8098 -4
    endloop
  endfacet
  facet normal 0 0 1
    outer loop
      vertex -1.9734 -6.70312 -4
      vertex 1.51359 -4.03104 -4
      vertex 1.09241 -2.8098 -4
    endloop
  endfacet
  facet normal 0 0 1
    outer loop
      vertex -1.9734 -6.70312 -4
      vertex 2.10323 -5.05522 -4
      vertex 1.51359 -4.03104 -4
    endloop
  endfacet
  facet normal 0 0 1
    outer loop
      vertex -1.9734 -6.70312 -4
      vertex 2.85054 -5.86517 -4
      vertex 2.10323 -5.05522 -4
    endloop
  endfacet
  facet normal 0 0 1
    outer loop
      vertex -1.9734 -6.70312 -4
      vertex 3.74472 -6.4437 -4
      vertex 2.85054 -5.86517 -4
    endloop
  endfacet
  facet normal -0 0 1
    outer loop
      vertex -1.9734 -6.70312 -4
      vertex 4.78577 -6.79082 -4
      vertex 3.74472 -6.4437 -4
    endloop
  endfacet
  facet normal 0 0 1
    outer loop
      vertex 5.97368 -6.90652 -4
      vertex -1.9734 -6.70312 -4
      vertex 24 -10 -4
    endloop
  endfacet
  facet normal 0 0 1
    outer loop
      vertex -24 -10 -4
      vertex -1.9734 -6.70312 -4
      vertex -3.9162 -6.70312 -4
    endloop
  endfacet
  facet normal 0 0 1
    outer loop
      vertex -14.6198 -6.70312 -4
      vertex -10.7923 0.407021 -4
      vertex -14.6198 7.01872 -4
    endloop
  endfacet
  facet normal 0 0 1
    outer loop
      vertex -10.7923 0.407021 -4
      vertex -14.6198 -6.70312 -4
      vertex -10.7923 -1.20007 -4
    endloop
  endfacet
  facet normal 0 0 1
    outer loop
      vertex -14.6198 -6.70312 -4
      vertex -3.9162 -6.70312 -4
      vertex -10.7923 -1.20007 -4
    endloop
  endfacet
  facet normal 0 0 1
    outer loop
      vertex -24 -10 -4
      vertex -3.9162 -6.70312 -4
      vertex -14.6198 -6.70312 -4
    endloop
  endfacet
  facet normal 0 0 1
    outer loop
      vertex -24 -10 -4
      vertex -14.6198 -6.70312 -4
      vertex -23.3981 -6.70312 -4
    endloop
  endfacet
  facet normal 0 0 1
    outer loop
      vertex -1.9734 -6.70312 -4
      vertex -24 -10 -4
      vertex 24 -10 -4
    endloop
  endfacet
  facet normal 0 0 1
    outer loop
      vertex -23.3981 -5.11627 -4
      vertex -24 -10 -4
      vertex -23.3981 -6.70312 -4
    endloop
  endfacet
  facet normal -0 0 1
    outer loop
      vertex 18.0606 5.46247 -4
      vertex 20.8274 0.681671 -4
      vertex 20.8274 5.46247 -4
    endloop
  endfacet
  facet normal 0 0 1
    outer loop
      vertex 18.0606 5.46247 -4
      vertex 17.9793 0.681671 -4
      vertex 20.8274 0.681671 -4
    endloop
  endfacet
  facet normal 0 0 1
    outer loop
      vertex 18.0606 5.46247 -4
      vertex 17.2943 0.722359 -4
      vertex 17.9793 0.681671 -4
    endloop
  endfacet
  facet normal -0 0 1
    outer loop
      vertex 16.7078 5.3207 -4
      vertex 17.2943 0.722359 -4
      vertex 18.0606 5.46247 -4
    endloop
  endfacet
  facet normal 0 0 1
    outer loop
      vertex 16.7078 5.3207 -4
      vertex 16.6938 0.844421 -4
      vertex 17.2943 0.722359 -4
    endloop
  endfacet
  facet normal 0 0 1
    outer loop
      vertex 16.7078 5.3207 -4
      vertex 16.1779 1.04786 -4
      vertex 16.6938 0.844421 -4
    endloop
  endfacet
  facet normal -0 0 1
    outer loop
      vertex 15.017 2.62389 -4
      vertex 16.1779 1.04786 -4
      vertex 16.7078 5.3207 -4
    endloop
  endfacet
  facet normal 0 0 1
    outer loop
      vertex 14.9684 3.19417 -4
      vertex 16.7078 5.3207 -4
      vertex 15.7414 4.89539 -4
    endloop
  endfacet
  facet normal 0 0 1
    outer loop
      vertex 16.1779 1.04786 -4
      vertex 15.017 2.62389 -4
      vertex 15.7466 1.33267 -4
    endloop
  endfacet
  facet normal -0 -0 1
    outer loop
      vertex 15.1629 2.12354 -4
      vertex 15.7466 1.33267 -4
      vertex 15.017 2.62389 -4
    endloop
  endfacet
  facet normal 0 0 1
    outer loop
      vertex 14.9684 3.19417 -4
      vertex 15.7414 4.89539 -4
      vertex 15.1616 4.18655 -4
    endloop
  endfacet
  facet normal 0 0 1
    outer loop
      vertex 15.7466 1.33267 -4
      vertex 15.1629 2.12354 -4
      vertex 15.4061 1.69314 -4
    endloop
  endfacet
  facet normal 0 0 1
    outer loop
      vertex 16.7078 5.3207 -4
      vertex 14.9684 3.19417 -4
      vertex 15.017 2.62389 -4
    endloop
  endfacet
  facet normal 0 0 1
    outer loop
      vertex 2.79998 0.223869 -4
      vertex 9.12698 0.223869 -4
      vertex 8.92862 2.59582 -4
    endloop
  endfacet
  facet normal 0 0 1
    outer loop
      vertex 9.12698 0.223869 -4
      vertex 2.79998 0.223869 -4
      vertex 9.07676 -1.06538 -4
    endloop
  endfacet
  facet normal -0 -0 1
    outer loop
      vertex 2.84703 -1.04887 -4
      vertex 9.07676 -1.06538 -4
      vertex 2.79998 0.223869 -4
    endloop
  endfacet
  facet normal 0 0 1
    outer loop
      vertex 2.99706 2.59582 -4
      vertex 8.92862 2.59582 -4
      vertex 8.33356 4.29007 -4
    endloop
  endfacet
  facet normal 0 0 1
    outer loop
      vertex 9.07676 -1.06538 -4
      vertex 2.84703 -1.04887 -4
      vertex 8.92609 -2.18681 -4
    endloop
  endfacet
  facet normal -0 -0 1
    outer loop
      vertex 2.98819 -2.16142 -4
      vertex 8.92609 -2.18681 -4
      vertex 2.84703 -1.04887 -4
    endloop
  endfacet
  facet normal 0 0 1
    outer loop
      vertex 5.95328 5.64547 -4
      vertex 8.33356 4.29007 -4
      vertex 7.34177 5.30662 -4
    endloop
  endfacet
  facet normal 0 0 1
    outer loop
      vertex 8.92609 -2.18681 -4
      vertex 2.98819 -2.16142 -4
      vertex 8.67498 -3.1404 -4
    endloop
  endfacet
  facet normal -0 -0 1
    outer loop
      vertex 3.22346 -3.11377 -4
      vertex 8.67498 -3.1404 -4
      vertex 2.98819 -2.16142 -4
    endloop
  endfacet
  facet normal 0 0 1
    outer loop
      vertex 8.67498 -3.1404 -4
      vertex 3.22346 -3.11377 -4
      vertex 8.32343 -3.92617 -4
    endloop
  endfacet
  facet normal 0 0 1
    outer loop
      vertex 8.33356 4.29007 -4
      vertex 5.95328 5.64547 -4
      vertex 3.5883 4.29007 -4
    endloop
  endfacet
  facet normal -0 -0 1
    outer loop
      vertex 3.55283 -3.90592 -4
      vertex 8.32343 -3.92617 -4
      vertex 3.22346 -3.11377 -4
    endloop
  endfacet
  facet normal 0 0 1
    outer loop
      vertex 3.5883 4.29007 -4
      vertex 5.95328 5.64547 -4
      vertex 4.57371 5.30662 -4
    endloop
  endfacet
  facet normal 0 -0 1
    outer loop
      vertex 5.96348 -5.32987 -4
      vertex 8.32343 -3.92617 -4
      vertex 3.55283 -3.90592 -4
    endloop
  endfacet
  facet normal 0 0 1
    outer loop
      vertex 8.32343 -3.92617 -4
      vertex 5.96348 -5.32987 -4
      vertex 7.87454 -4.54029 -4
    endloop
  endfacet
  facet normal 0 0 1
    outer loop
      vertex 8.33356 4.29007 -4
      vertex 3.5883 4.29007 -4
      vertex 2.99706 2.59582 -4
    endloop
  endfacet
  facet normal 0 -0 1
    outer loop
      vertex 6.69457 -5.24214 -4
      vertex 7.87454 -4.54029 -4
      vertex 5.96348 -5.32987 -4
    endloop
  endfacet
  facet normal 0 0 1
    outer loop
      vertex 7.87454 -4.54029 -4
      vertex 6.69457 -5.24214 -4
      vertex 7.33159 -4.97894 -4
    endloop
  endfacet
  facet normal 0 0 1
    outer loop
      vertex 8.92862 2.59582 -4
      vertex 2.99706 2.59582 -4
      vertex 2.79998 0.223869 -4
    endloop
  endfacet
  facet normal 0 0 1
    outer loop
      vertex 5.96348 -5.32987 -4
      vertex 3.55283 -3.90592 -4
      vertex 5.19109 -5.24088 -4
    endloop
  endfacet
  facet normal 0 0 1
    outer loop
      vertex 5.19109 -5.24088 -4
      vertex 3.98576 -4.5289 -4
      vertex 4.53185 -4.97388 -4
    endloop
  endfacet
  facet normal -0 -0 1
    outer loop
      vertex 3.98576 -4.5289 -4
      vertex 5.19109 -5.24088 -4
      vertex 3.55283 -3.90592 -4
    endloop
  endfacet
  facet normal 1 -0 0
    outer loop
      vertex 24 -10 -4
      vertex 24 10 -14
      vertex 24 10 -4
    endloop
  endfacet
  facet normal 1 0 0
    outer loop
      vertex 24 10 -14
      vertex 24 -10 -4
      vertex 24 -10 -14
    endloop
  endfacet
  facet normal 0 1 -0
    outer loop
      vertex 24 10 -14
      vertex -24 10 -4
      vertex 24 10 -4
    endloop
  endfacet
  facet normal 0 1 0
    outer loop
      vertex -24 10 -4
      vertex 24 10 -14
      vertex -24 10 -14
    endloop
  endfacet
  facet normal 0 -1 0
    outer loop
      vertex -24 -10 -14
      vertex 24 -10 -4
      vertex -24 -10 -4
    endloop
  endfacet
  facet normal 0 -1 -0
    outer loop
      vertex 24 -10 -4
      vertex -24 -10 -14
      vertex 24 -10 -14
    endloop
  endfacet
endsolid OpenSCAD_Model
