solid OpenSCAD_Model
  facet normal 0 0 1
    outer loop
      vertex 17.5404 7.01872 0
      vertex 13.0343 5.43187 0
      vertex 17.5404 5.43187 0
    endloop
  endfacet
  facet normal 0 0 1
    outer loop
      vertex 13.0343 5.43187 0
      vertex 11.1017 5.43187 0
      vertex 13.0343 -6.70312 0
    endloop
  endfacet
  facet normal 0 0 1
    outer loop
      vertex 17.5404 7.01872 0
      vertex 11.1017 5.43187 0
      vertex 13.0343 5.43187 0
    endloop
  endfacet
  facet normal -0 0 1
    outer loop
      vertex 6.59554 7.01872 0
      vertex 11.1017 5.43187 0
      vertex 17.5404 7.01872 0
    endloop
  endfacet
  facet normal 0 0 1
    outer loop
      vertex 11.1017 5.43187 0
      vertex 6.59554 7.01872 0
      vertex 6.59554 5.43187 0
    endloop
  endfacet
  facet normal 0 0 1
    outer loop
      vertex 13.0343 -6.70312 0
      vertex 11.1017 5.43187 0
      vertex 11.1017 -6.70312 0
    endloop
  endfacet
  facet normal 0 0 1
    outer loop
      vertex 3.16481 2.12602 0
      vertex 4.79231 7.01872 0
      vertex 3.20546 5.18782 0
    endloop
  endfacet
  facet normal 0 0 1
    outer loop
      vertex 2.38166 7.01872 0
      vertex 2.84692 4.06828 0
      vertex 3.20546 5.18782 0
    endloop
  endfacet
  facet normal -0 0 1
    outer loop
      vertex 2.38166 7.01872 0
      vertex 3.20546 5.18782 0
      vertex 4.79231 7.01872 0
    endloop
  endfacet
  facet normal 0 0 1
    outer loop
      vertex 0.499763 2.04472 0
      vertex 2.84692 4.06828 0
      vertex 2.38166 7.01872 0
    endloop
  endfacet
  facet normal 0 0 1
    outer loop
      vertex 2.84692 4.06828 0
      vertex 0.499763 2.04472 0
      vertex 2.56466 3.20174 0
    endloop
  endfacet
  facet normal 0 0 1
    outer loop
      vertex 2.56466 3.20174 0
      vertex 0.499763 2.04472 0
      vertex 2.35867 2.58823 0
    endloop
  endfacet
  facet normal 0 0 1
    outer loop
      vertex 2.35867 2.58823 0
      vertex 0.499763 2.04472 0
      vertex 2.22897 2.22772 0
    endloop
  endfacet
  facet normal 0 0 1
    outer loop
      vertex 0.376434 1.6957 0
      vertex 2.22897 2.22772 0
      vertex 0.499763 2.04472 0
    endloop
  endfacet
  facet normal 0 0 1
    outer loop
      vertex 0.220047 1.18774 0
      vertex 2.22897 2.22772 0
      vertex 0.376434 1.6957 0
    endloop
  endfacet
  facet normal 0 0 1
    outer loop
      vertex 0.0306091 0.520821 0
      vertex 2.22897 2.22772 0
      vertex 0.220047 1.18774 0
    endloop
  endfacet
  facet normal 0 0 1
    outer loop
      vertex 2.22897 2.22772 0
      vertex 0.0306091 0.520821 0
      vertex 0.540565 -2.22742 0
    endloop
  endfacet
  facet normal -0 0 1
    outer loop
      vertex -0.191879 -0.305023 0
      vertex 0.540565 -2.22742 0
      vertex 0.0306091 0.520821 0
    endloop
  endfacet
  facet normal 0 0 1
    outer loop
      vertex -0.191879 -0.305023 0
      vertex -0.853081 -2.22742 0
      vertex 0.540565 -2.22742 0
    endloop
  endfacet
  facet normal 0 0 1
    outer loop
      vertex -0.456329 0.61042 0
      vertex -0.853081 -2.22742 0
      vertex -0.191879 -0.305023 0
    endloop
  endfacet
  facet normal 0 0 1
    outer loop
      vertex -2.52123 2.22772 0
      vertex -0.456329 0.61042 0
      vertex -0.903931 2.03452 0
    endloop
  endfacet
  facet normal 0 0 1
    outer loop
      vertex -0.456329 0.61042 0
      vertex -2.52123 2.22772 0
      vertex -0.853081 -2.22742 0
    endloop
  endfacet
  facet normal 0 0 1
    outer loop
      vertex -0.903931 2.03452 0
      vertex -2.69986 2.73695 0
      vertex -2.52123 2.22772 0
    endloop
  endfacet
  facet normal -0 0 1
    outer loop
      vertex -3.18301 4.217 0
      vertex -0.903931 2.03452 0
      vertex -2.78568 7.01872 0
    endloop
  endfacet
  facet normal 0 0 1
    outer loop
      vertex -0.903931 2.03452 0
      vertex -2.92046 3.40005 0
      vertex -2.69986 2.73695 0
    endloop
  endfacet
  facet normal 0 0 1
    outer loop
      vertex -0.903931 2.03452 0
      vertex -3.18301 4.217 0
      vertex -2.92046 3.40005 0
    endloop
  endfacet
  facet normal 0 0 1
    outer loop
      vertex -2.78568 7.01872 0
      vertex -3.48753 5.18782 0
      vertex -3.18301 4.217 0
    endloop
  endfacet
  facet normal 0 -0 1
    outer loop
      vertex -3.48753 5.18782 0
      vertex -2.78568 7.01872 0
      vertex -5.07438 7.01872 0
    endloop
  endfacet
  facet normal 0 0 1
    outer loop
      vertex 4.79231 7.01872 0
      vertex 3.16481 2.12602 0
      vertex 4.79231 -6.70312 0
    endloop
  endfacet
  facet normal 0 0 1
    outer loop
      vertex 4.79231 -6.70312 0
      vertex 3.16481 2.12602 0
      vertex 3.16481 -6.70312 0
    endloop
  endfacet
  facet normal 0 0 1
    outer loop
      vertex -5.07438 7.01872 0
      vertex -3.42648 2.12602 0
      vertex -3.42839 2.76878 0
    endloop
  endfacet
  facet normal 0 0 1
    outer loop
      vertex -5.07438 7.01872 0
      vertex -3.42839 2.76878 0
      vertex -3.43413 3.32381 0
    endloop
  endfacet
  facet normal 0 0 1
    outer loop
      vertex -5.07438 7.01872 0
      vertex -3.43413 3.32381 0
      vertex -3.4437 3.79111 0
    endloop
  endfacet
  facet normal 0 0 1
    outer loop
      vertex -5.07438 7.01872 0
      vertex -3.4437 3.79111 0
      vertex -3.45708 4.17067 0
    endloop
  endfacet
  facet normal 0 0 1
    outer loop
      vertex -5.07438 7.01872 0
      vertex -3.45708 4.17067 0
      vertex -3.48753 5.18782 0
    endloop
  endfacet
  facet normal 0 0 1
    outer loop
      vertex -3.42648 2.12602 0
      vertex -5.07438 7.01872 0
      vertex -5.07438 -6.70312 0
    endloop
  endfacet
  facet normal 0 0 1
    outer loop
      vertex -3.42648 2.12602 0
      vertex -5.07438 -6.70312 0
      vertex -3.42648 -6.70312 0
    endloop
  endfacet
  facet normal 0 0 1
    outer loop
      vertex -8.15921 7.01872 0
      vertex -11.3736 5.43187 0
      vertex -8.15921 5.43187 0
    endloop
  endfacet
  facet normal 0 0 1
    outer loop
      vertex -11.3736 5.43187 0
      vertex -13.3164 5.43187 0
      vertex -11.3736 -5.11627 0
    endloop
  endfacet
  facet normal 0 0 1
    outer loop
      vertex -8.15921 7.01872 0
      vertex -13.3164 5.43187 0
      vertex -11.3736 5.43187 0
    endloop
  endfacet
  facet normal -0 0 1
    outer loop
      vertex -16.5307 7.01872 0
      vertex -13.3164 5.43187 0
      vertex -8.15921 7.01872 0
    endloop
  endfacet
  facet normal 0 0 1
    outer loop
      vertex -13.3164 5.43187 0
      vertex -16.5307 7.01872 0
      vertex -16.5307 5.43187 0
    endloop
  endfacet
  facet normal -0 0 1
    outer loop
      vertex -11.3736 -5.11627 0
      vertex -8.15921 -6.70312 0
      vertex -8.15921 -5.11627 0
    endloop
  endfacet
  facet normal 0 0 1
    outer loop
      vertex -13.3164 -5.11627 0
      vertex -11.3736 -5.11627 0
      vertex -13.3164 5.43187 0
    endloop
  endfacet
  facet normal -0 0 1
    outer loop
      vertex -13.3164 -5.11627 0
      vertex -8.15921 -6.70312 0
      vertex -11.3736 -5.11627 0
    endloop
  endfacet
  facet normal 0 0 1
    outer loop
      vertex -16.5307 -6.70312 0
      vertex -13.3164 -5.11627 0
      vertex -16.5307 -5.11627 0
    endloop
  endfacet
  facet normal 0 0 1
    outer loop
      vertex -13.3164 -5.11627 0
      vertex -16.5307 -6.70312 0
      vertex -8.15921 -6.70312 0
    endloop
  endfacet
  facet normal 0 -1 0
    outer loop
      vertex 6.59554 5.43187 -4
      vertex 11.1017 5.43187 0
      vertex 6.59554 5.43187 0
    endloop
  endfacet
  facet normal 0 -1 -0
    outer loop
      vertex 11.1017 5.43187 0
      vertex 6.59554 5.43187 -4
      vertex 11.1017 5.43187 -4
    endloop
  endfacet
  facet normal -1 0 0
    outer loop
      vertex 6.59554 5.43187 -4
      vertex 6.59554 7.01872 0
      vertex 6.59554 7.01872 -4
    endloop
  endfacet
  facet normal -1 -0 0
    outer loop
      vertex 6.59554 7.01872 0
      vertex 6.59554 5.43187 -4
      vertex 6.59554 5.43187 0
    endloop
  endfacet
  facet normal 0 1 -0
    outer loop
      vertex 17.5404 7.01872 -4
      vertex 6.59554 7.01872 0
      vertex 17.5404 7.01872 0
    endloop
  endfacet
  facet normal 0 1 0
    outer loop
      vertex 6.59554 7.01872 0
      vertex 17.5404 7.01872 -4
      vertex 6.59554 7.01872 -4
    endloop
  endfacet
  facet normal 1 -0 0
    outer loop
      vertex 17.5404 5.43187 0
      vertex 17.5404 7.01872 -4
      vertex 17.5404 7.01872 0
    endloop
  endfacet
  facet normal 1 0 0
    outer loop
      vertex 17.5404 7.01872 -4
      vertex 17.5404 5.43187 0
      vertex 17.5404 5.43187 -4
    endloop
  endfacet
  facet normal 0 -1 0
    outer loop
      vertex 13.0343 5.43187 -4
      vertex 17.5404 5.43187 0
      vertex 13.0343 5.43187 0
    endloop
  endfacet
  facet normal 0 -1 -0
    outer loop
      vertex 17.5404 5.43187 0
      vertex 13.0343 5.43187 -4
      vertex 17.5404 5.43187 -4
    endloop
  endfacet
  facet normal 1 -0 0
    outer loop
      vertex 13.0343 -6.70312 0
      vertex 13.0343 5.43187 -4
      vertex 13.0343 5.43187 0
    endloop
  endfacet
  facet normal 1 0 0
    outer loop
      vertex 13.0343 5.43187 -4
      vertex 13.0343 -6.70312 0
      vertex 13.0343 -6.70312 -4
    endloop
  endfacet
  facet normal 0 -1 0
    outer loop
      vertex 11.1017 -6.70312 -4
      vertex 13.0343 -6.70312 0
      vertex 11.1017 -6.70312 0
    endloop
  endfacet
  facet normal 0 -1 -0
    outer loop
      vertex 13.0343 -6.70312 0
      vertex 11.1017 -6.70312 -4
      vertex 13.0343 -6.70312 -4
    endloop
  endfacet
  facet normal -1 0 0
    outer loop
      vertex 11.1017 -6.70312 -4
      vertex 11.1017 5.43187 0
      vertex 11.1017 5.43187 -4
    endloop
  endfacet
  facet normal -1 -0 0
    outer loop
      vertex 11.1017 5.43187 0
      vertex 11.1017 -6.70312 -4
      vertex 11.1017 -6.70312 0
    endloop
  endfacet
  facet normal -0.999912 0.0132753 0
    outer loop
      vertex 3.16481 2.12602 -4
      vertex 3.20546 5.18782 0
      vertex 3.20546 5.18782 -4
    endloop
  endfacet
  facet normal -0.999912 0.0132753 0
    outer loop
      vertex 3.20546 5.18782 0
      vertex 3.16481 2.12602 -4
      vertex 3.16481 2.12602 0
    endloop
  endfacet
  facet normal 0.952353 -0.304997 0
    outer loop
      vertex 2.84692 4.06828 0
      vertex 3.20546 5.18782 -4
      vertex 3.20546 5.18782 0
    endloop
  endfacet
  facet normal 0.952353 -0.304997 0
    outer loop
      vertex 3.20546 5.18782 -4
      vertex 2.84692 4.06828 0
      vertex 2.84692 4.06828 -4
    endloop
  endfacet
  facet normal 0.950829 -0.309716 0
    outer loop
      vertex 2.56466 3.20174 0
      vertex 2.84692 4.06828 -4
      vertex 2.84692 4.06828 0
    endloop
  endfacet
  facet normal 0.950829 -0.309716 0
    outer loop
      vertex 2.84692 4.06828 -4
      vertex 2.56466 3.20174 0
      vertex 2.56466 3.20174 -4
    endloop
  endfacet
  facet normal 0.947992 -0.318294 0
    outer loop
      vertex 2.35867 2.58823 0
      vertex 2.56466 3.20174 -4
      vertex 2.56466 3.20174 0
    endloop
  endfacet
  facet normal 0.947992 -0.318294 0
    outer loop
      vertex 2.56466 3.20174 -4
      vertex 2.35867 2.58823 0
      vertex 2.35867 2.58823 -4
    endloop
  endfacet
  facet normal 0.940957 -0.338526 0
    outer loop
      vertex 2.22897 2.22772 0
      vertex 2.35867 2.58823 -4
      vertex 2.35867 2.58823 0
    endloop
  endfacet
  facet normal 0.940957 -0.338526 0
    outer loop
      vertex 2.35867 2.58823 -4
      vertex 2.22897 2.22772 0
      vertex 2.22897 2.22772 -4
    endloop
  endfacet
  facet normal 0.9351 -0.354383 0
    outer loop
      vertex 0.540565 -2.22742 0
      vertex 2.22897 2.22772 -4
      vertex 2.22897 2.22772 0
    endloop
  endfacet
  facet normal 0.9351 -0.354383 0
    outer loop
      vertex 2.22897 2.22772 -4
      vertex 0.540565 -2.22742 0
      vertex 0.540565 -2.22742 -4
    endloop
  endfacet
  facet normal 0 -1 0
    outer loop
      vertex -0.853081 -2.22742 -4
      vertex 0.540565 -2.22742 0
      vertex -0.853081 -2.22742 0
    endloop
  endfacet
  facet normal 0 -1 -0
    outer loop
      vertex 0.540565 -2.22742 0
      vertex -0.853081 -2.22742 -4
      vertex 0.540565 -2.22742 -4
    endloop
  endfacet
  facet normal -0.936504 -0.350657 0
    outer loop
      vertex -0.853081 -2.22742 -4
      vertex -2.52123 2.22772 0
      vertex -2.52123 2.22772 -4
    endloop
  endfacet
  facet normal -0.936504 -0.350657 0
    outer loop
      vertex -2.52123 2.22772 0
      vertex -0.853081 -2.22742 -4
      vertex -0.853081 -2.22742 0
    endloop
  endfacet
  facet normal -0.943627 -0.33101 0
    outer loop
      vertex -2.52123 2.22772 -4
      vertex -2.69986 2.73695 0
      vertex -2.69986 2.73695 -4
    endloop
  endfacet
  facet normal -0.943627 -0.33101 0
    outer loop
      vertex -2.69986 2.73695 0
      vertex -2.52123 2.22772 -4
      vertex -2.52123 2.22772 0
    endloop
  endfacet
  facet normal -0.948869 -0.31567 0
    outer loop
      vertex -2.69986 2.73695 -4
      vertex -2.92046 3.40005 0
      vertex -2.92046 3.40005 -4
    endloop
  endfacet
  facet normal -0.948869 -0.31567 0
    outer loop
      vertex -2.92046 3.40005 0
      vertex -2.69986 2.73695 -4
      vertex -2.69986 2.73695 0
    endloop
  endfacet
  facet normal -0.952043 -0.305966 0
    outer loop
      vertex -2.92046 3.40005 -4
      vertex -3.18301 4.217 0
      vertex -3.18301 4.217 -4
    endloop
  endfacet
  facet normal -0.952043 -0.305966 0
    outer loop
      vertex -3.18301 4.217 0
      vertex -2.92046 3.40005 -4
      vertex -2.92046 3.40005 0
    endloop
  endfacet
  facet normal -0.954161 -0.299294 0
    outer loop
      vertex -3.18301 4.217 -4
      vertex -3.48753 5.18782 0
      vertex -3.48753 5.18782 -4
    endloop
  endfacet
  facet normal -0.954161 -0.299294 0
    outer loop
      vertex -3.48753 5.18782 0
      vertex -3.18301 4.217 -4
      vertex -3.18301 4.217 0
    endloop
  endfacet
  facet normal 0.999552 0.0299232 0
    outer loop
      vertex -3.45708 4.17067 0
      vertex -3.48753 5.18782 -4
      vertex -3.48753 5.18782 0
    endloop
  endfacet
  facet normal 0.999552 0.0299232 0
    outer loop
      vertex -3.48753 5.18782 -4
      vertex -3.45708 4.17067 0
      vertex -3.45708 4.17067 -4
    endloop
  endfacet
  facet normal 0.999379 0.0352295 0
    outer loop
      vertex -3.4437 3.79111 0
      vertex -3.45708 4.17067 -4
      vertex -3.45708 4.17067 0
    endloop
  endfacet
  facet normal 0.999379 0.0352295 0
    outer loop
      vertex -3.45708 4.17067 -4
      vertex -3.4437 3.79111 0
      vertex -3.4437 3.79111 -4
    endloop
  endfacet
  facet normal 0.99979 0.0204751 0
    outer loop
      vertex -3.43413 3.32381 0
      vertex -3.4437 3.79111 -4
      vertex -3.4437 3.79111 0
    endloop
  endfacet
  facet normal 0.99979 0.0204751 0
    outer loop
      vertex -3.4437 3.79111 -4
      vertex -3.43413 3.32381 0
      vertex -3.43413 3.32381 -4
    endloop
  endfacet
  facet normal 0.999947 0.0103412 0
    outer loop
      vertex -3.42839 2.76878 0
      vertex -3.43413 3.32381 -4
      vertex -3.43413 3.32381 0
    endloop
  endfacet
  facet normal 0.999947 0.0103412 0
    outer loop
      vertex -3.43413 3.32381 -4
      vertex -3.42839 2.76878 0
      vertex -3.42839 2.76878 -4
    endloop
  endfacet
  facet normal 0.999996 0.00297155 0
    outer loop
      vertex -3.42648 2.12602 0
      vertex -3.42839 2.76878 -4
      vertex -3.42839 2.76878 0
    endloop
  endfacet
  facet normal 0.999996 0.00297155 0
    outer loop
      vertex -3.42839 2.76878 -4
      vertex -3.42648 2.12602 0
      vertex -3.42648 2.12602 -4
    endloop
  endfacet
  facet normal 1 -0 0
    outer loop
      vertex -3.42648 -6.70312 0
      vertex -3.42648 2.12602 -4
      vertex -3.42648 2.12602 0
    endloop
  endfacet
  facet normal 1 0 0
    outer loop
      vertex -3.42648 2.12602 -4
      vertex -3.42648 -6.70312 0
      vertex -3.42648 -6.70312 -4
    endloop
  endfacet
  facet normal 0 -1 0
    outer loop
      vertex -5.07438 -6.70312 -4
      vertex -3.42648 -6.70312 0
      vertex -5.07438 -6.70312 0
    endloop
  endfacet
  facet normal 0 -1 -0
    outer loop
      vertex -3.42648 -6.70312 0
      vertex -5.07438 -6.70312 -4
      vertex -3.42648 -6.70312 -4
    endloop
  endfacet
  facet normal -1 0 0
    outer loop
      vertex -5.07438 -6.70312 -4
      vertex -5.07438 7.01872 0
      vertex -5.07438 7.01872 -4
    endloop
  endfacet
  facet normal -1 -0 0
    outer loop
      vertex -5.07438 7.01872 0
      vertex -5.07438 -6.70312 -4
      vertex -5.07438 -6.70312 0
    endloop
  endfacet
  facet normal 0 1 -0
    outer loop
      vertex -2.78568 7.01872 -4
      vertex -5.07438 7.01872 0
      vertex -2.78568 7.01872 0
    endloop
  endfacet
  facet normal 0 1 0
    outer loop
      vertex -5.07438 7.01872 0
      vertex -2.78568 7.01872 -4
      vertex -5.07438 7.01872 -4
    endloop
  endfacet
  facet normal 0.935545 0.353208 0
    outer loop
      vertex -0.903931 2.03452 0
      vertex -2.78568 7.01872 -4
      vertex -2.78568 7.01872 0
    endloop
  endfacet
  facet normal 0.935545 0.353208 0
    outer loop
      vertex -2.78568 7.01872 -4
      vertex -0.903931 2.03452 0
      vertex -0.903931 2.03452 -4
    endloop
  endfacet
  facet normal 0.953988 0.299843 0
    outer loop
      vertex -0.456329 0.61042 0
      vertex -0.903931 2.03452 -4
      vertex -0.903931 2.03452 0
    endloop
  endfacet
  facet normal 0.953988 0.299843 0
    outer loop
      vertex -0.903931 2.03452 -4
      vertex -0.456329 0.61042 0
      vertex -0.456329 0.61042 -4
    endloop
  endfacet
  facet normal 0.960717 0.277529 0
    outer loop
      vertex -0.191879 -0.305023 0
      vertex -0.456329 0.61042 -4
      vertex -0.456329 0.61042 0
    endloop
  endfacet
  facet normal 0.960717 0.277529 0
    outer loop
      vertex -0.456329 0.61042 -4
      vertex -0.191879 -0.305023 0
      vertex -0.191879 -0.305023 -4
    endloop
  endfacet
  facet normal -0.965573 0.260132 0
    outer loop
      vertex -0.191879 -0.305023 -4
      vertex 0.0306091 0.520821 0
      vertex 0.0306091 0.520821 -4
    endloop
  endfacet
  facet normal -0.965573 0.260132 0
    outer loop
      vertex 0.0306091 0.520821 0
      vertex -0.191879 -0.305023 -4
      vertex -0.191879 -0.305023 0
    endloop
  endfacet
  facet normal -0.961946 0.27324 0
    outer loop
      vertex 0.0306091 0.520821 -4
      vertex 0.220047 1.18774 0
      vertex 0.220047 1.18774 -4
    endloop
  endfacet
  facet normal -0.961946 0.27324 0
    outer loop
      vertex 0.220047 1.18774 0
      vertex 0.0306091 0.520821 -4
      vertex 0.0306091 0.520821 0
    endloop
  endfacet
  facet normal -0.955731 0.294243 0
    outer loop
      vertex 0.220047 1.18774 -4
      vertex 0.376434 1.6957 0
      vertex 0.376434 1.6957 -4
    endloop
  endfacet
  facet normal -0.955731 0.294243 0
    outer loop
      vertex 0.376434 1.6957 0
      vertex 0.220047 1.18774 -4
      vertex 0.220047 1.18774 0
    endloop
  endfacet
  facet normal -0.942867 0.33317 0
    outer loop
      vertex 0.376434 1.6957 -4
      vertex 0.499763 2.04472 0
      vertex 0.499763 2.04472 -4
    endloop
  endfacet
  facet normal -0.942867 0.33317 0
    outer loop
      vertex 0.499763 2.04472 0
      vertex 0.376434 1.6957 -4
      vertex 0.376434 1.6957 0
    endloop
  endfacet
  facet normal -0.935296 0.353866 0
    outer loop
      vertex 0.499763 2.04472 -4
      vertex 2.38166 7.01872 0
      vertex 2.38166 7.01872 -4
    endloop
  endfacet
  facet normal -0.935296 0.353866 0
    outer loop
      vertex 2.38166 7.01872 0
      vertex 0.499763 2.04472 -4
      vertex 0.499763 2.04472 0
    endloop
  endfacet
  facet normal 0 1 -0
    outer loop
      vertex 4.79231 7.01872 -4
      vertex 2.38166 7.01872 0
      vertex 4.79231 7.01872 0
    endloop
  endfacet
  facet normal 0 1 0
    outer loop
      vertex 2.38166 7.01872 0
      vertex 4.79231 7.01872 -4
      vertex 2.38166 7.01872 -4
    endloop
  endfacet
  facet normal 1 -0 0
    outer loop
      vertex 4.79231 -6.70312 0
      vertex 4.79231 7.01872 -4
      vertex 4.79231 7.01872 0
    endloop
  endfacet
  facet normal 1 0 0
    outer loop
      vertex 4.79231 7.01872 -4
      vertex 4.79231 -6.70312 0
      vertex 4.79231 -6.70312 -4
    endloop
  endfacet
  facet normal 0 -1 0
    outer loop
      vertex 3.16481 -6.70312 -4
      vertex 4.79231 -6.70312 0
      vertex 3.16481 -6.70312 0
    endloop
  endfacet
  facet normal 0 -1 -0
    outer loop
      vertex 4.79231 -6.70312 0
      vertex 3.16481 -6.70312 -4
      vertex 4.79231 -6.70312 -4
    endloop
  endfacet
  facet normal -1 0 0
    outer loop
      vertex 3.16481 -6.70312 -4
      vertex 3.16481 2.12602 0
      vertex 3.16481 2.12602 -4
    endloop
  endfacet
  facet normal -1 -0 0
    outer loop
      vertex 3.16481 2.12602 0
      vertex 3.16481 -6.70312 -4
      vertex 3.16481 -6.70312 0
    endloop
  endfacet
  facet normal 0 1 -0
    outer loop
      vertex -13.3164 -5.11627 -4
      vertex -16.5307 -5.11627 0
      vertex -13.3164 -5.11627 0
    endloop
  endfacet
  facet normal 0 1 0
    outer loop
      vertex -16.5307 -5.11627 0
      vertex -13.3164 -5.11627 -4
      vertex -16.5307 -5.11627 -4
    endloop
  endfacet
  facet normal -1 0 0
    outer loop
      vertex -13.3164 -5.11627 -4
      vertex -13.3164 5.43187 0
      vertex -13.3164 5.43187 -4
    endloop
  endfacet
  facet normal -1 -0 0
    outer loop
      vertex -13.3164 5.43187 0
      vertex -13.3164 -5.11627 -4
      vertex -13.3164 -5.11627 0
    endloop
  endfacet
  facet normal 0 -1 0
    outer loop
      vertex -16.5307 5.43187 -4
      vertex -13.3164 5.43187 0
      vertex -16.5307 5.43187 0
    endloop
  endfacet
  facet normal 0 -1 -0
    outer loop
      vertex -13.3164 5.43187 0
      vertex -16.5307 5.43187 -4
      vertex -13.3164 5.43187 -4
    endloop
  endfacet
  facet normal -1 0 0
    outer loop
      vertex -16.5307 5.43187 -4
      vertex -16.5307 7.01872 0
      vertex -16.5307 7.01872 -4
    endloop
  endfacet
  facet normal -1 -0 0
    outer loop
      vertex -16.5307 7.01872 0
      vertex -16.5307 5.43187 -4
      vertex -16.5307 5.43187 0
    endloop
  endfacet
  facet normal 0 1 -0
    outer loop
      vertex -8.15921 7.01872 -4
      vertex -16.5307 7.01872 0
      vertex -8.15921 7.01872 0
    endloop
  endfacet
  facet normal 0 1 0
    outer loop
      vertex -16.5307 7.01872 0
      vertex -8.15921 7.01872 -4
      vertex -16.5307 7.01872 -4
    endloop
  endfacet
  facet normal 1 -0 0
    outer loop
      vertex -8.15921 5.43187 0
      vertex -8.15921 7.01872 -4
      vertex -8.15921 7.01872 0
    endloop
  endfacet
  facet normal 1 0 0
    outer loop
      vertex -8.15921 7.01872 -4
      vertex -8.15921 5.43187 0
      vertex -8.15921 5.43187 -4
    endloop
  endfacet
  facet normal 0 -1 0
    outer loop
      vertex -11.3736 5.43187 -4
      vertex -8.15921 5.43187 0
      vertex -11.3736 5.43187 0
    endloop
  endfacet
  facet normal 0 -1 -0
    outer loop
      vertex -8.15921 5.43187 0
      vertex -11.3736 5.43187 -4
      vertex -8.15921 5.43187 -4
    endloop
  endfacet
  facet normal 1 -0 0
    outer loop
      vertex -11.3736 -5.11627 0
      vertex -11.3736 5.43187 -4
      vertex -11.3736 5.43187 0
    endloop
  endfacet
  facet normal 1 0 0
    outer loop
      vertex -11.3736 5.43187 -4
      vertex -11.3736 -5.11627 0
      vertex -11.3736 -5.11627 -4
    endloop
  endfacet
  facet normal 0 1 -0
    outer loop
      vertex -8.15921 -5.11627 -4
      vertex -11.3736 -5.11627 0
      vertex -8.15921 -5.11627 0
    endloop
  endfacet
  facet normal 0 1 0
    outer loop
      vertex -11.3736 -5.11627 0
      vertex -8.15921 -5.11627 -4
      vertex -11.3736 -5.11627 -4
    endloop
  endfacet
  facet normal 1 -0 0
    outer loop
      vertex -8.15921 -6.70312 0
      vertex -8.15921 -5.11627 -4
      vertex -8.15921 -5.11627 0
    endloop
  endfacet
  facet normal 1 0 0
    outer loop
      vertex -8.15921 -5.11627 -4
      vertex -8.15921 -6.70312 0
      vertex -8.15921 -6.70312 -4
    endloop
  endfacet
  facet normal 0 -1 0
    outer loop
      vertex -16.5307 -6.70312 -4
      vertex -8.15921 -6.70312 0
      vertex -16.5307 -6.70312 0
    endloop
  endfacet
  facet normal 0 -1 -0
    outer loop
      vertex -8.15921 -6.70312 0
      vertex -16.5307 -6.70312 -4
      vertex -8.15921 -6.70312 -4
    endloop
  endfacet
  facet normal -1 0 0
    outer loop
      vertex -16.5307 -6.70312 -4
      vertex -16.5307 -5.11627 0
      vertex -16.5307 -5.11627 -4
    endloop
  endfacet
  facet normal -1 -0 0
    outer loop
      vertex -16.5307 -5.11627 0
      vertex -16.5307 -6.70312 -4
      vertex -16.5307 -6.70312 0
    endloop
  endfacet
  facet normal -1 0 0
    outer loop
      vertex -18 -10 -14
      vertex -18 10 -4
      vertex -18 10 -14
    endloop
  endfacet
  facet normal -1 -0 0
    outer loop
      vertex -18 10 -4
      vertex -18 -10 -14
      vertex -18 -10 -4
    endloop
  endfacet
  facet normal 0 0 -1
    outer loop
      vertex -18 -10 -14
      vertex 18 10 -14
      vertex 18 -10 -14
    endloop
  endfacet
  facet normal -0 0 -1
    outer loop
      vertex 18 10 -14
      vertex -18 -10 -14
      vertex -18 10 -14
    endloop
  endfacet
  facet normal 0 0 1
    outer loop
      vertex 11.1017 5.43187 -4
      vertex 6.59554 5.43187 -4
      vertex 11.1017 -6.70312 -4
    endloop
  endfacet
  facet normal 0 0 1
    outer loop
      vertex 17.5404 5.43187 -4
      vertex 18 10 -4
      vertex 17.5404 7.01872 -4
    endloop
  endfacet
  facet normal 0 0 1
    outer loop
      vertex 18 10 -4
      vertex 6.59554 7.01872 -4
      vertex 17.5404 7.01872 -4
    endloop
  endfacet
  facet normal 0 0 1
    outer loop
      vertex 6.59554 7.01872 -4
      vertex 4.79231 7.01872 -4
      vertex 6.59554 5.43187 -4
    endloop
  endfacet
  facet normal 0 0 1
    outer loop
      vertex 18 10 -4
      vertex 4.79231 7.01872 -4
      vertex 6.59554 7.01872 -4
    endloop
  endfacet
  facet normal 0 0 1
    outer loop
      vertex 18 10 -4
      vertex 2.38166 7.01872 -4
      vertex 4.79231 7.01872 -4
    endloop
  endfacet
  facet normal 0 0 1
    outer loop
      vertex 0.0306091 0.520821 -4
      vertex -0.456329 0.61042 -4
      vertex -0.191879 -0.305023 -4
    endloop
  endfacet
  facet normal 0 0 1
    outer loop
      vertex 0.220047 1.18774 -4
      vertex -0.456329 0.61042 -4
      vertex 0.0306091 0.520821 -4
    endloop
  endfacet
  facet normal 0 0 1
    outer loop
      vertex -0.903931 2.03452 -4
      vertex 0.220047 1.18774 -4
      vertex 0.376434 1.6957 -4
    endloop
  endfacet
  facet normal -0 0 1
    outer loop
      vertex -0.903931 2.03452 -4
      vertex 0.376434 1.6957 -4
      vertex 0.499763 2.04472 -4
    endloop
  endfacet
  facet normal 0 0 1
    outer loop
      vertex -0.903931 2.03452 -4
      vertex 0.499763 2.04472 -4
      vertex 2.38166 7.01872 -4
    endloop
  endfacet
  facet normal 0 0 1
    outer loop
      vertex 0.220047 1.18774 -4
      vertex -0.903931 2.03452 -4
      vertex -0.456329 0.61042 -4
    endloop
  endfacet
  facet normal 0 0 1
    outer loop
      vertex 2.38166 7.01872 -4
      vertex -2.78568 7.01872 -4
      vertex -0.903931 2.03452 -4
    endloop
  endfacet
  facet normal 0 0 1
    outer loop
      vertex 18 10 -4
      vertex -2.78568 7.01872 -4
      vertex 2.38166 7.01872 -4
    endloop
  endfacet
  facet normal -0 0 1
    outer loop
      vertex -18 10 -4
      vertex -2.78568 7.01872 -4
      vertex 18 10 -4
    endloop
  endfacet
  facet normal 0 0 1
    outer loop
      vertex -8.15921 5.43187 -4
      vertex -5.07438 7.01872 -4
      vertex -8.15921 7.01872 -4
    endloop
  endfacet
  facet normal 0 0 1
    outer loop
      vertex -2.78568 7.01872 -4
      vertex -18 10 -4
      vertex -5.07438 7.01872 -4
    endloop
  endfacet
  facet normal 0 0 1
    outer loop
      vertex -5.07438 7.01872 -4
      vertex -18 10 -4
      vertex -8.15921 7.01872 -4
    endloop
  endfacet
  facet normal 0 0 1
    outer loop
      vertex -18 10 -4
      vertex -16.5307 5.43187 -4
      vertex -16.5307 7.01872 -4
    endloop
  endfacet
  facet normal 0 0 1
    outer loop
      vertex -16.5307 5.43187 -4
      vertex -18 10 -4
      vertex -16.5307 -5.11627 -4
    endloop
  endfacet
  facet normal 0 0 1
    outer loop
      vertex -18 -10 -4
      vertex -16.5307 -5.11627 -4
      vertex -18 10 -4
    endloop
  endfacet
  facet normal 0 0 1
    outer loop
      vertex -8.15921 7.01872 -4
      vertex -18 10 -4
      vertex -16.5307 7.01872 -4
    endloop
  endfacet
  facet normal 0 0 1
    outer loop
      vertex 18 10 -4
      vertex 17.5404 5.43187 -4
      vertex 18 -10 -4
    endloop
  endfacet
  facet normal 0 0 1
    outer loop
      vertex 13.0343 -6.70312 -4
      vertex 17.5404 5.43187 -4
      vertex 13.0343 5.43187 -4
    endloop
  endfacet
  facet normal 0 0 1
    outer loop
      vertex 17.5404 5.43187 -4
      vertex 13.0343 -6.70312 -4
      vertex 18 -10 -4
    endloop
  endfacet
  facet normal -0 0 1
    outer loop
      vertex 11.1017 -6.70312 -4
      vertex 18 -10 -4
      vertex 13.0343 -6.70312 -4
    endloop
  endfacet
  facet normal 0 0 1
    outer loop
      vertex 4.79231 -6.70312 -4
      vertex 6.59554 5.43187 -4
      vertex 4.79231 7.01872 -4
    endloop
  endfacet
  facet normal 0 0 1
    outer loop
      vertex 6.59554 5.43187 -4
      vertex 4.79231 -6.70312 -4
      vertex 11.1017 -6.70312 -4
    endloop
  endfacet
  facet normal -0 0 1
    outer loop
      vertex 4.79231 -6.70312 -4
      vertex 18 -10 -4
      vertex 11.1017 -6.70312 -4
    endloop
  endfacet
  facet normal -0 0 1
    outer loop
      vertex 3.16481 -6.70312 -4
      vertex 18 -10 -4
      vertex 4.79231 -6.70312 -4
    endloop
  endfacet
  facet normal -0 0 1
    outer loop
      vertex 2.35867 2.58823 -4
      vertex 3.16481 2.12602 -4
      vertex 2.56466 3.20174 -4
    endloop
  endfacet
  facet normal -0 0 1
    outer loop
      vertex 2.22897 2.22772 -4
      vertex 3.16481 2.12602 -4
      vertex 2.35867 2.58823 -4
    endloop
  endfacet
  facet normal 0 0 1
    outer loop
      vertex 0.540565 -2.22742 -4
      vertex 3.16481 2.12602 -4
      vertex 2.22897 2.22772 -4
    endloop
  endfacet
  facet normal 0 0 1
    outer loop
      vertex 3.16481 2.12602 -4
      vertex 0.540565 -2.22742 -4
      vertex 3.16481 -6.70312 -4
    endloop
  endfacet
  facet normal -0 0 1
    outer loop
      vertex -0.853081 -2.22742 -4
      vertex 3.16481 -6.70312 -4
      vertex 0.540565 -2.22742 -4
    endloop
  endfacet
  facet normal -0 0 1
    outer loop
      vertex -3.4437 3.79111 -4
      vertex -2.92046 3.40005 -4
      vertex -3.18301 4.217 -4
    endloop
  endfacet
  facet normal -0 0 1
    outer loop
      vertex -3.42839 2.76878 -4
      vertex -2.69986 2.73695 -4
      vertex -2.92046 3.40005 -4
    endloop
  endfacet
  facet normal 0 0 1
    outer loop
      vertex -3.42648 2.12602 -4
      vertex -2.52123 2.22772 -4
      vertex -2.69986 2.73695 -4
    endloop
  endfacet
  facet normal -0 0 1
    outer loop
      vertex -3.42648 2.12602 -4
      vertex -0.853081 -2.22742 -4
      vertex -2.52123 2.22772 -4
    endloop
  endfacet
  facet normal 0 0 1
    outer loop
      vertex -3.42648 -6.70312 -4
      vertex -0.853081 -2.22742 -4
      vertex -3.42648 2.12602 -4
    endloop
  endfacet
  facet normal 0 0 1
    outer loop
      vertex -3.42648 -6.70312 -4
      vertex 3.16481 -6.70312 -4
      vertex -0.853081 -2.22742 -4
    endloop
  endfacet
  facet normal -0 0 1
    outer loop
      vertex -3.42648 -6.70312 -4
      vertex 18 -10 -4
      vertex 3.16481 -6.70312 -4
    endloop
  endfacet
  facet normal 0 0 1
    outer loop
      vertex -18 -10 -4
      vertex -3.42648 -6.70312 -4
      vertex -5.07438 -6.70312 -4
    endloop
  endfacet
  facet normal 0 0 1
    outer loop
      vertex -5.07438 7.01872 -4
      vertex -8.15921 5.43187 -4
      vertex -5.07438 -6.70312 -4
    endloop
  endfacet
  facet normal -0 0 1
    outer loop
      vertex -8.15921 -5.11627 -4
      vertex -5.07438 -6.70312 -4
      vertex -8.15921 5.43187 -4
    endloop
  endfacet
  facet normal 0 0 1
    outer loop
      vertex -8.15921 -6.70312 -4
      vertex -5.07438 -6.70312 -4
      vertex -8.15921 -5.11627 -4
    endloop
  endfacet
  facet normal 0 0 1
    outer loop
      vertex -18 -10 -4
      vertex -5.07438 -6.70312 -4
      vertex -8.15921 -6.70312 -4
    endloop
  endfacet
  facet normal 0 0 1
    outer loop
      vertex -18 -10 -4
      vertex -8.15921 -6.70312 -4
      vertex -16.5307 -6.70312 -4
    endloop
  endfacet
  facet normal 0 0 1
    outer loop
      vertex -3.42648 -6.70312 -4
      vertex -18 -10 -4
      vertex 18 -10 -4
    endloop
  endfacet
  facet normal 0 0 1
    outer loop
      vertex -16.5307 -5.11627 -4
      vertex -18 -10 -4
      vertex -16.5307 -6.70312 -4
    endloop
  endfacet
  facet normal -0 0 1
    outer loop
      vertex -11.3736 5.43187 -4
      vertex -8.15921 -5.11627 -4
      vertex -8.15921 5.43187 -4
    endloop
  endfacet
  facet normal 0 0 1
    outer loop
      vertex -8.15921 -5.11627 -4
      vertex -11.3736 5.43187 -4
      vertex -11.3736 -5.11627 -4
    endloop
  endfacet
  facet normal 0 0 1
    outer loop
      vertex -2.69986 2.73695 -4
      vertex -3.42839 2.76878 -4
      vertex -3.42648 2.12602 -4
    endloop
  endfacet
  facet normal 0 0 1
    outer loop
      vertex -2.92046 3.40005 -4
      vertex -3.43413 3.32381 -4
      vertex -3.42839 2.76878 -4
    endloop
  endfacet
  facet normal 0 0 1
    outer loop
      vertex -2.92046 3.40005 -4
      vertex -3.4437 3.79111 -4
      vertex -3.43413 3.32381 -4
    endloop
  endfacet
  facet normal 0 0 1
    outer loop
      vertex -3.18301 4.217 -4
      vertex -3.45708 4.17067 -4
      vertex -3.4437 3.79111 -4
    endloop
  endfacet
  facet normal 0 -0 1
    outer loop
      vertex -3.45708 4.17067 -4
      vertex -3.18301 4.217 -4
      vertex -3.48753 5.18782 -4
    endloop
  endfacet
  facet normal -0 0 1
    outer loop
      vertex 2.56466 3.20174 -4
      vertex 3.16481 2.12602 -4
      vertex 2.84692 4.06828 -4
    endloop
  endfacet
  facet normal -0 0 1
    outer loop
      vertex 2.84692 4.06828 -4
      vertex 3.16481 2.12602 -4
      vertex 3.20546 5.18782 -4
    endloop
  endfacet
  facet normal -0 0 1
    outer loop
      vertex -16.5307 5.43187 -4
      vertex -13.3164 -5.11627 -4
      vertex -13.3164 5.43187 -4
    endloop
  endfacet
  facet normal 0 0 1
    outer loop
      vertex -13.3164 -5.11627 -4
      vertex -16.5307 5.43187 -4
      vertex -16.5307 -5.11627 -4
    endloop
  endfacet
  facet normal 1 -0 0
    outer loop
      vertex 18 -10 -4
      vertex 18 10 -14
      vertex 18 10 -4
    endloop
  endfacet
  facet normal 1 0 0
    outer loop
      vertex 18 10 -14
      vertex 18 -10 -4
      vertex 18 -10 -14
    endloop
  endfacet
  facet normal 0 1 -0
    outer loop
      vertex 18 10 -14
      vertex -18 10 -4
      vertex 18 10 -4
    endloop
  endfacet
  facet normal 0 1 0
    outer loop
      vertex -18 10 -4
      vertex 18 10 -14
      vertex -18 10 -14
    endloop
  endfacet
  facet normal 0 -1 0
    outer loop
      vertex -18 -10 -14
      vertex 18 -10 -4
      vertex -18 -10 -4
    endloop
  endfacet
  facet normal 0 -1 -0
    outer loop
      vertex 18 -10 -4
      vertex -18 -10 -14
      vertex 18 -10 -14
    endloop
  endfacet
endsolid OpenSCAD_Model
