solid OpenSCAD_Model
  facet normal -1 0 0
    outer loop
      vertex -26.5 -12.5 -15
      vertex -26.5 12.5 0
      vertex -26.5 12.5 -15
    endloop
  endfacet
  facet normal -1 -0 0
    outer loop
      vertex -26.5 12.5 0
      vertex -26.5 -12.5 -15
      vertex -26.5 -12.5 0
    endloop
  endfacet
  facet normal 0 0 -1
    outer loop
      vertex -26.5 -12.5 -15
      vertex 26.5 12.5 -15
      vertex 26.5 -12.5 -15
    endloop
  endfacet
  facet normal -0 0 -1
    outer loop
      vertex 26.5 12.5 -15
      vertex -26.5 -12.5 -15
      vertex -26.5 12.5 -15
    endloop
  endfacet
  facet normal 0 0 1
    outer loop
      vertex 26.5 12.5 0
      vertex 25.5 11 0
      vertex 26.5 -12.5 0
    endloop
  endfacet
  facet normal 0 0 1
    outer loop
      vertex 26.5 12.5 0
      vertex -25 11 0
      vertex 25.5 11 0
    endloop
  endfacet
  facet normal 0 0 1
    outer loop
      vertex -26.5 -12.5 0
      vertex -25 11 0
      vertex -26.5 12.5 0
    endloop
  endfacet
  facet normal -0 0 1
    outer loop
      vertex -26.5 12.5 0
      vertex -25 11 0
      vertex 26.5 12.5 0
    endloop
  endfacet
  facet normal -0 0 1
    outer loop
      vertex 25.5 -11.5 0
      vertex 26.5 -12.5 0
      vertex 25.5 11 0
    endloop
  endfacet
  facet normal -0 0 1
    outer loop
      vertex -25 -11.5 0
      vertex 26.5 -12.5 0
      vertex 25.5 -11.5 0
    endloop
  endfacet
  facet normal 0 0 1
    outer loop
      vertex -25 -11.5 0
      vertex -26.5 -12.5 0
      vertex 26.5 -12.5 0
    endloop
  endfacet
  facet normal 0 0 1
    outer loop
      vertex -25 11 0
      vertex -26.5 -12.5 0
      vertex -25 -11.5 0
    endloop
  endfacet
  facet normal 1 -0 0
    outer loop
      vertex 26.5 -12.5 0
      vertex 26.5 12.5 -15
      vertex 26.5 12.5 0
    endloop
  endfacet
  facet normal 1 0 0
    outer loop
      vertex 26.5 12.5 -15
      vertex 26.5 -12.5 0
      vertex 26.5 -12.5 -15
    endloop
  endfacet
  facet normal 0 1 -0
    outer loop
      vertex 26.5 12.5 -15
      vertex -26.5 12.5 0
      vertex 26.5 12.5 0
    endloop
  endfacet
  facet normal 0 1 0
    outer loop
      vertex -26.5 12.5 0
      vertex 26.5 12.5 -15
      vertex -26.5 12.5 -15
    endloop
  endfacet
  facet normal 0 -1 0
    outer loop
      vertex -26.5 -12.5 -15
      vertex 26.5 -12.5 0
      vertex -26.5 -12.5 0
    endloop
  endfacet
  facet normal 0 -1 -0
    outer loop
      vertex 26.5 -12.5 0
      vertex -26.5 -12.5 -15
      vertex 26.5 -12.5 -15
    endloop
  endfacet
  facet normal 1 -0 0
    outer loop
      vertex -25 -11.5 0
      vertex -25 11 -4
      vertex -25 11 0
    endloop
  endfacet
  facet normal 1 0 0
    outer loop
      vertex -25 11 -4
      vertex -25 -11.5 0
      vertex -25 -11.5 -4
    endloop
  endfacet
  facet normal -0 0 1
    outer loop
      vertex 10.8409 3.24239 -4
      vertex 17.2164 -0.762672 -4
      vertex 12.2931 7.01872 -4
    endloop
  endfacet
  facet normal -0 0 1
    outer loop
      vertex 19.1286 -0.762672 -4
      vertex 24 -10 -4
      vertex 24 6.93668 -4
    endloop
  endfacet
  facet normal -0 0 1
    outer loop
      vertex 19.1286 -6.70312 -4
      vertex 24 -10 -4
      vertex 19.1286 -0.762672 -4
    endloop
  endfacet
  facet normal -0 0 1
    outer loop
      vertex 17.2164 -6.70312 -4
      vertex 24 -10 -4
      vertex 19.1286 -6.70312 -4
    endloop
  endfacet
  facet normal -0 -0 1
    outer loop
      vertex 11.1715 0.223869 -4
      vertex 17.2164 -0.762672 -4
      vertex 11.0888 1.83549 -4
    endloop
  endfacet
  facet normal 0 0 1
    outer loop
      vertex 10.8384 -2.84797 -4
      vertex 17.2164 -0.762672 -4
      vertex 11.0882 -1.4163 -4
    endloop
  endfacet
  facet normal 0 0 1
    outer loop
      vertex 17.2164 -0.762672 -4
      vertex 10.8384 -2.84797 -4
      vertex 17.2164 -6.70312 -4
    endloop
  endfacet
  facet normal -0 0 1
    outer loop
      vertex 10.422 -4.07114 -4
      vertex 17.2164 -6.70312 -4
      vertex 10.8384 -2.84797 -4
    endloop
  endfacet
  facet normal -0 0 1
    outer loop
      vertex 9.83903 -5.08582 -4
      vertex 17.2164 -6.70312 -4
      vertex 10.422 -4.07114 -4
    endloop
  endfacet
  facet normal -0 0 1
    outer loop
      vertex 9.09772 -5.88238 -4
      vertex 17.2164 -6.70312 -4
      vertex 9.83903 -5.08582 -4
    endloop
  endfacet
  facet normal -0 0 1
    outer loop
      vertex 8.20639 -6.45135 -4
      vertex 17.2164 -6.70312 -4
      vertex 9.09772 -5.88238 -4
    endloop
  endfacet
  facet normal 0 0 1
    outer loop
      vertex 7.16505 -6.79272 -4
      vertex 17.2164 -6.70312 -4
      vertex 8.20639 -6.45135 -4
    endloop
  endfacet
  facet normal 0 0 1
    outer loop
      vertex 17.2164 -6.70312 -4
      vertex 7.16505 -6.79272 -4
      vertex 24 -10 -4
    endloop
  endfacet
  facet normal -0 0 1
    outer loop
      vertex 5.97368 -6.90652 -4
      vertex 24 -10 -4
      vertex 7.16505 -6.79272 -4
    endloop
  endfacet
  facet normal 0 0 1
    outer loop
      vertex -2.4108 -6.70312 -4
      vertex 5.97368 -6.90652 -4
      vertex 4.78577 -6.79082 -4
    endloop
  endfacet
  facet normal 0 0 1
    outer loop
      vertex -2.4108 -6.70312 -4
      vertex 0.755478 0.223869 -4
      vertex -2.4108 7.01872 -4
    endloop
  endfacet
  facet normal 0 0 1
    outer loop
      vertex 0.755478 0.223869 -4
      vertex -2.4108 -6.70312 -4
      vertex 0.839714 -1.39149 -4
    endloop
  endfacet
  facet normal 0 0 1
    outer loop
      vertex 0.839714 -1.39149 -4
      vertex -2.4108 -6.70312 -4
      vertex 1.09241 -2.8098 -4
    endloop
  endfacet
  facet normal 0 0 1
    outer loop
      vertex 1.09241 -2.8098 -4
      vertex -2.4108 -6.70312 -4
      vertex 1.51359 -4.03104 -4
    endloop
  endfacet
  facet normal 0 0 1
    outer loop
      vertex -2.4108 -6.70312 -4
      vertex 2.10323 -5.05522 -4
      vertex 1.51359 -4.03104 -4
    endloop
  endfacet
  facet normal 0 0 1
    outer loop
      vertex -2.4108 -6.70312 -4
      vertex 2.85054 -5.86517 -4
      vertex 2.10323 -5.05522 -4
    endloop
  endfacet
  facet normal 0 0 1
    outer loop
      vertex -2.4108 -6.70312 -4
      vertex 3.74472 -6.4437 -4
      vertex 2.85054 -5.86517 -4
    endloop
  endfacet
  facet normal -0 0 1
    outer loop
      vertex -2.4108 -6.70312 -4
      vertex 4.78577 -6.79082 -4
      vertex 3.74472 -6.4437 -4
    endloop
  endfacet
  facet normal 0 0 1
    outer loop
      vertex 5.97368 -6.90652 -4
      vertex -2.4108 -6.70312 -4
      vertex 24 -10 -4
    endloop
  endfacet
  facet normal 0 0 1
    outer loop
      vertex -24 -10 -4
      vertex -2.4108 -6.70312 -4
      vertex -11.1891 -6.70312 -4
    endloop
  endfacet
  facet normal -0 0 1
    outer loop
      vertex -13.5797 -2.84797 -4
      vertex -11.1891 -5.11627 -4
      vertex -13.3299 -1.4163 -4
    endloop
  endfacet
  facet normal -0 0 1
    outer loop
      vertex -13.9961 -4.07114 -4
      vertex -11.1891 -5.11627 -4
      vertex -13.5797 -2.84797 -4
    endloop
  endfacet
  facet normal -0 0 1
    outer loop
      vertex -14.579 -5.08582 -4
      vertex -11.1891 -5.11627 -4
      vertex -13.9961 -4.07114 -4
    endloop
  endfacet
  facet normal 0 0 1
    outer loop
      vertex -11.1891 -5.11627 -4
      vertex -14.579 -5.08582 -4
      vertex -11.1891 -6.70312 -4
    endloop
  endfacet
  facet normal -0 0 1
    outer loop
      vertex -15.3203 -5.88238 -4
      vertex -11.1891 -6.70312 -4
      vertex -14.579 -5.08582 -4
    endloop
  endfacet
  facet normal -0 0 1
    outer loop
      vertex -16.2117 -6.45135 -4
      vertex -11.1891 -6.70312 -4
      vertex -15.3203 -5.88238 -4
    endloop
  endfacet
  facet normal 0 0 1
    outer loop
      vertex -17.253 -6.79272 -4
      vertex -11.1891 -6.70312 -4
      vertex -16.2117 -6.45135 -4
    endloop
  endfacet
  facet normal 0 0 1
    outer loop
      vertex -11.1891 -6.70312 -4
      vertex -17.253 -6.79272 -4
      vertex -24 -10 -4
    endloop
  endfacet
  facet normal 0 0 1
    outer loop
      vertex -24 -10 -4
      vertex -17.253 -6.79272 -4
      vertex -18.4444 -6.90652 -4
    endloop
  endfacet
  facet normal 0 0 1
    outer loop
      vertex -2.4108 -6.70312 -4
      vertex -24 -10 -4
      vertex 24 -10 -4
    endloop
  endfacet
  facet normal 0 0 1
    outer loop
      vertex -19.6323 -6.79082 -4
      vertex -24 -10 -4
      vertex -18.4444 -6.90652 -4
    endloop
  endfacet
  facet normal 0 0 1
    outer loop
      vertex -20.6733 -6.4437 -4
      vertex -24 -10 -4
      vertex -19.6323 -6.79082 -4
    endloop
  endfacet
  facet normal 0 0 1
    outer loop
      vertex -21.5675 -5.86517 -4
      vertex -24 -10 -4
      vertex -20.6733 -6.4437 -4
    endloop
  endfacet
  facet normal 0 0 1
    outer loop
      vertex -22.3148 -5.05522 -4
      vertex -24 -10 -4
      vertex -21.5675 -5.86517 -4
    endloop
  endfacet
  facet normal 0 0 1
    outer loop
      vertex -22.9045 -4.03104 -4
      vertex -24 -10 -4
      vertex -22.3148 -5.05522 -4
    endloop
  endfacet
  facet normal 0 0 1
    outer loop
      vertex -23.3256 -2.8098 -4
      vertex -24 -10 -4
      vertex -22.9045 -4.03104 -4
    endloop
  endfacet
  facet normal 0 0 1
    outer loop
      vertex -23.5783 -1.39149 -4
      vertex -24 -10 -4
      vertex -23.3256 -2.8098 -4
    endloop
  endfacet
  facet normal 0 0 1
    outer loop
      vertex -23.6626 0.223869 -4
      vertex -24 -10 -4
      vertex -23.5783 -1.39149 -4
    endloop
  endfacet
  facet normal 0 0 1
    outer loop
      vertex -24 -10 -4
      vertex -23.6626 0.223869 -4
      vertex -24 10 -4
    endloop
  endfacet
  facet normal 0 0 1
    outer loop
      vertex 24 10 -4
      vertex 21.9666 7.01872 -4
      vertex 24 7.01872 -4
    endloop
  endfacet
  facet normal 0 0 1
    outer loop
      vertex 21.9666 7.01872 -4
      vertex 14.3784 7.01872 -4
      vertex 18.1623 0.803772 -4
    endloop
  endfacet
  facet normal 0 0 1
    outer loop
      vertex 24 10 -4
      vertex 14.3784 7.01872 -4
      vertex 21.9666 7.01872 -4
    endloop
  endfacet
  facet normal 0 0 1
    outer loop
      vertex 24 10 -4
      vertex 12.2931 7.01872 -4
      vertex 14.3784 7.01872 -4
    endloop
  endfacet
  facet normal 0 0 1
    outer loop
      vertex 11.0882 -1.4163 -4
      vertex 17.2164 -0.762672 -4
      vertex 11.1715 0.223869 -4
    endloop
  endfacet
  facet normal 0 0 1
    outer loop
      vertex 17.2164 -0.762672 -4
      vertex 10.8409 3.24239 -4
      vertex 11.0888 1.83549 -4
    endloop
  endfacet
  facet normal 0 0 1
    outer loop
      vertex 12.2931 7.01872 -4
      vertex 10.4277 4.44459 -4
      vertex 10.8409 3.24239 -4
    endloop
  endfacet
  facet normal 0 0 1
    outer loop
      vertex 12.2931 7.01872 -4
      vertex 9.84923 5.44207 -4
      vertex 10.4277 4.44459 -4
    endloop
  endfacet
  facet normal 0 0 1
    outer loop
      vertex 12.2931 7.01872 -4
      vertex 9.10983 6.2253 -4
      vertex 9.84923 5.44207 -4
    endloop
  endfacet
  facet normal -0 0 1
    outer loop
      vertex 7.16186 7.12043 -4
      vertex 12.2931 7.01872 -4
      vertex 24 10 -4
    endloop
  endfacet
  facet normal 0 0 1
    outer loop
      vertex 12.2931 7.01872 -4
      vertex 8.21404 6.78476 -4
      vertex 9.10983 6.2253 -4
    endloop
  endfacet
  facet normal 0 0 1
    outer loop
      vertex 12.2931 7.01872 -4
      vertex 7.16186 7.12043 -4
      vertex 8.21404 6.78476 -4
    endloop
  endfacet
  facet normal 0 0 1
    outer loop
      vertex 24 10 -4
      vertex 5.95328 7.23232 -4
      vertex 7.16186 7.12043 -4
    endloop
  endfacet
  facet normal -0 0 1
    outer loop
      vertex -24 10 -4
      vertex 5.95328 7.23232 -4
      vertex 24 10 -4
    endloop
  endfacet
  facet normal 0 0 1
    outer loop
      vertex 0.839401 1.85614 -4
      vertex -2.4108 7.01872 -4
      vertex 0.755478 0.223869 -4
    endloop
  endfacet
  facet normal 0 0 1
    outer loop
      vertex 1.09118 3.27416 -4
      vertex -2.4108 7.01872 -4
      vertex 0.839401 1.85614 -4
    endloop
  endfacet
  facet normal 0 0 1
    outer loop
      vertex 1.5108 4.47792 -4
      vertex -2.4108 7.01872 -4
      vertex 1.09118 3.27416 -4
    endloop
  endfacet
  facet normal 0 0 1
    outer loop
      vertex 2.09828 5.46742 -4
      vertex -2.4108 7.01872 -4
      vertex 1.5108 4.47792 -4
    endloop
  endfacet
  facet normal 0 0 1
    outer loop
      vertex 2.84271 6.23956 -4
      vertex -2.4108 7.01872 -4
      vertex 2.09828 5.46742 -4
    endloop
  endfacet
  facet normal 0 0 1
    outer loop
      vertex 3.73335 6.7911 -4
      vertex -2.4108 7.01872 -4
      vertex 2.84271 6.23956 -4
    endloop
  endfacet
  facet normal 0 0 1
    outer loop
      vertex 4.77021 7.12202 -4
      vertex -2.4108 7.01872 -4
      vertex 3.73335 6.7911 -4
    endloop
  endfacet
  facet normal 0 0 1
    outer loop
      vertex 5.95328 7.23232 -4
      vertex -2.4108 7.01872 -4
      vertex 4.77021 7.12202 -4
    endloop
  endfacet
  facet normal 0 0 1
    outer loop
      vertex 5.95328 7.23232 -4
      vertex -24 10 -4
      vertex -2.4108 7.01872 -4
    endloop
  endfacet
  facet normal -0 0 1
    outer loop
      vertex -13.2466 0.223869 -4
      vertex -4.3536 -5.11627 -4
      vertex -4.3536 7.01872 -4
    endloop
  endfacet
  facet normal -0 0 1
    outer loop
      vertex -13.3299 -1.4163 -4
      vertex -11.1891 -5.11627 -4
      vertex -13.2466 0.223869 -4
    endloop
  endfacet
  facet normal 0 0 1
    outer loop
      vertex -4.3536 -5.11627 -4
      vertex -13.2466 0.223869 -4
      vertex -11.1891 -5.11627 -4
    endloop
  endfacet
  facet normal 0 0 1
    outer loop
      vertex -4.3536 7.01872 -4
      vertex -13.3292 1.83549 -4
      vertex -13.2466 0.223869 -4
    endloop
  endfacet
  facet normal 0 0 1
    outer loop
      vertex -4.3536 7.01872 -4
      vertex -13.5771 3.24239 -4
      vertex -13.3292 1.83549 -4
    endloop
  endfacet
  facet normal 0 0 1
    outer loop
      vertex -4.3536 7.01872 -4
      vertex -13.9903 4.44459 -4
      vertex -13.5771 3.24239 -4
    endloop
  endfacet
  facet normal 0 0 1
    outer loop
      vertex -4.3536 7.01872 -4
      vertex -14.5688 5.44207 -4
      vertex -13.9903 4.44459 -4
    endloop
  endfacet
  facet normal 0 0 1
    outer loop
      vertex -4.3536 7.01872 -4
      vertex -15.3082 6.2253 -4
      vertex -14.5688 5.44207 -4
    endloop
  endfacet
  facet normal 0 0 1
    outer loop
      vertex -2.4108 7.01872 -4
      vertex -24 10 -4
      vertex -4.3536 7.01872 -4
    endloop
  endfacet
  facet normal 0 0 1
    outer loop
      vertex -4.3536 7.01872 -4
      vertex -16.204 6.78476 -4
      vertex -15.3082 6.2253 -4
    endloop
  endfacet
  facet normal -0 -0 1
    outer loop
      vertex -17.2562 7.12043 -4
      vertex -4.3536 7.01872 -4
      vertex -24 10 -4
    endloop
  endfacet
  facet normal 0 0 1
    outer loop
      vertex -4.3536 7.01872 -4
      vertex -17.2562 7.12043 -4
      vertex -16.204 6.78476 -4
    endloop
  endfacet
  facet normal 0 0 1
    outer loop
      vertex -23.5787 1.85614 -4
      vertex -24 10 -4
      vertex -23.6626 0.223869 -4
    endloop
  endfacet
  facet normal 0 0 1
    outer loop
      vertex -23.3269 3.27416 -4
      vertex -24 10 -4
      vertex -23.5787 1.85614 -4
    endloop
  endfacet
  facet normal 0 0 1
    outer loop
      vertex -22.9073 4.47792 -4
      vertex -24 10 -4
      vertex -23.3269 3.27416 -4
    endloop
  endfacet
  facet normal 0 0 1
    outer loop
      vertex -22.3198 5.46742 -4
      vertex -24 10 -4
      vertex -22.9073 4.47792 -4
    endloop
  endfacet
  facet normal 0 0 1
    outer loop
      vertex -21.5753 6.23956 -4
      vertex -24 10 -4
      vertex -22.3198 5.46742 -4
    endloop
  endfacet
  facet normal 0 0 1
    outer loop
      vertex -20.6847 6.7911 -4
      vertex -24 10 -4
      vertex -21.5753 6.23956 -4
    endloop
  endfacet
  facet normal 0 0 1
    outer loop
      vertex -19.6479 7.12202 -4
      vertex -24 10 -4
      vertex -20.6847 6.7911 -4
    endloop
  endfacet
  facet normal 0 0 1
    outer loop
      vertex -18.4648 7.23232 -4
      vertex -24 10 -4
      vertex -19.6479 7.12202 -4
    endloop
  endfacet
  facet normal 0 0 1
    outer loop
      vertex -17.2562 7.12043 -4
      vertex -24 10 -4
      vertex -18.4648 7.23232 -4
    endloop
  endfacet
  facet normal 0 0 1
    outer loop
      vertex 25.5 11 -4
      vertex 24.0519 7.01872 -4
      vertex 25.5 -11.5 -4
    endloop
  endfacet
  facet normal 0 0 1
    outer loop
      vertex 25.5 11 -4
      vertex 24 10 -4
      vertex 24.0519 7.01872 -4
    endloop
  endfacet
  facet normal -0 0 1
    outer loop
      vertex -25 11 -4
      vertex 24 10 -4
      vertex 25.5 11 -4
    endloop
  endfacet
  facet normal 0 0 1
    outer loop
      vertex -24 10 -4
      vertex -25 11 -4
      vertex -24 -10 -4
    endloop
  endfacet
  facet normal 0 0 1
    outer loop
      vertex 24 10 -4
      vertex -25 11 -4
      vertex -24 10 -4
    endloop
  endfacet
  facet normal -0 0 1
    outer loop
      vertex 24 6.93668 -4
      vertex 25.5 -11.5 -4
      vertex 24.0519 7.01872 -4
    endloop
  endfacet
  facet normal -0 0 1
    outer loop
      vertex 24 -10 -4
      vertex 25.5 -11.5 -4
      vertex 24 6.93668 -4
    endloop
  endfacet
  facet normal 0 0 1
    outer loop
      vertex -25 -11.5 -4
      vertex 24 -10 -4
      vertex -24 -10 -4
    endloop
  endfacet
  facet normal 0 0 1
    outer loop
      vertex 24 -10 -4
      vertex -25 -11.5 -4
      vertex 25.5 -11.5 -4
    endloop
  endfacet
  facet normal 0 0 1
    outer loop
      vertex -25 -11.5 -4
      vertex -24 -10 -4
      vertex -25 11 -4
    endloop
  endfacet
  facet normal 0 0 1
    outer loop
      vertex 24.0519 7.01872 -4
      vertex 24 10 -4
      vertex 24 7.01872 -4
    endloop
  endfacet
  facet normal 0 0 1
    outer loop
      vertex 2.79998 0.223869 -4
      vertex 9.12698 0.223869 -4
      vertex 8.92862 2.59582 -4
    endloop
  endfacet
  facet normal 0 0 1
    outer loop
      vertex 9.12698 0.223869 -4
      vertex 2.79998 0.223869 -4
      vertex 9.07676 -1.06538 -4
    endloop
  endfacet
  facet normal -0 -0 1
    outer loop
      vertex 2.84703 -1.04887 -4
      vertex 9.07676 -1.06538 -4
      vertex 2.79998 0.223869 -4
    endloop
  endfacet
  facet normal 0 0 1
    outer loop
      vertex 2.99706 2.59582 -4
      vertex 8.92862 2.59582 -4
      vertex 8.33356 4.29007 -4
    endloop
  endfacet
  facet normal 0 0 1
    outer loop
      vertex 9.07676 -1.06538 -4
      vertex 2.84703 -1.04887 -4
      vertex 8.92609 -2.18681 -4
    endloop
  endfacet
  facet normal -0 -0 1
    outer loop
      vertex 2.98819 -2.16142 -4
      vertex 8.92609 -2.18681 -4
      vertex 2.84703 -1.04887 -4
    endloop
  endfacet
  facet normal 0 0 1
    outer loop
      vertex 5.95328 5.64547 -4
      vertex 8.33356 4.29007 -4
      vertex 7.34177 5.30662 -4
    endloop
  endfacet
  facet normal 0 0 1
    outer loop
      vertex 8.92609 -2.18681 -4
      vertex 2.98819 -2.16142 -4
      vertex 8.67498 -3.1404 -4
    endloop
  endfacet
  facet normal -0 -0 1
    outer loop
      vertex 3.22346 -3.11377 -4
      vertex 8.67498 -3.1404 -4
      vertex 2.98819 -2.16142 -4
    endloop
  endfacet
  facet normal 0 0 1
    outer loop
      vertex 8.67498 -3.1404 -4
      vertex 3.22346 -3.11377 -4
      vertex 8.32343 -3.92617 -4
    endloop
  endfacet
  facet normal 0 0 1
    outer loop
      vertex 8.33356 4.29007 -4
      vertex 5.95328 5.64547 -4
      vertex 3.5883 4.29007 -4
    endloop
  endfacet
  facet normal -0 -0 1
    outer loop
      vertex 3.55283 -3.90592 -4
      vertex 8.32343 -3.92617 -4
      vertex 3.22346 -3.11377 -4
    endloop
  endfacet
  facet normal 0 0 1
    outer loop
      vertex 3.5883 4.29007 -4
      vertex 5.95328 5.64547 -4
      vertex 4.57371 5.30662 -4
    endloop
  endfacet
  facet normal 0 -0 1
    outer loop
      vertex 5.96348 -5.32987 -4
      vertex 8.32343 -3.92617 -4
      vertex 3.55283 -3.90592 -4
    endloop
  endfacet
  facet normal 0 0 1
    outer loop
      vertex 8.32343 -3.92617 -4
      vertex 5.96348 -5.32987 -4
      vertex 7.87454 -4.54029 -4
    endloop
  endfacet
  facet normal 0 0 1
    outer loop
      vertex 8.33356 4.29007 -4
      vertex 3.5883 4.29007 -4
      vertex 2.99706 2.59582 -4
    endloop
  endfacet
  facet normal 0 -0 1
    outer loop
      vertex 6.69457 -5.24214 -4
      vertex 7.87454 -4.54029 -4
      vertex 5.96348 -5.32987 -4
    endloop
  endfacet
  facet normal 0 0 1
    outer loop
      vertex 7.87454 -4.54029 -4
      vertex 6.69457 -5.24214 -4
      vertex 7.33159 -4.97894 -4
    endloop
  endfacet
  facet normal 0 0 1
    outer loop
      vertex 8.92862 2.59582 -4
      vertex 2.99706 2.59582 -4
      vertex 2.79998 0.223869 -4
    endloop
  endfacet
  facet normal 0 0 1
    outer loop
      vertex 5.96348 -5.32987 -4
      vertex 3.55283 -3.90592 -4
      vertex 5.19109 -5.24088 -4
    endloop
  endfacet
  facet normal 0 0 1
    outer loop
      vertex 5.19109 -5.24088 -4
      vertex 3.98576 -4.5289 -4
      vertex 4.53185 -4.97388 -4
    endloop
  endfacet
  facet normal -0 -0 1
    outer loop
      vertex 3.98576 -4.5289 -4
      vertex 5.19109 -5.24088 -4
      vertex 3.55283 -3.90592 -4
    endloop
  endfacet
  facet normal 0 0 1
    outer loop
      vertex -21.6181 0.223869 -4
      vertex -15.2911 0.223869 -4
      vertex -15.4894 2.59582 -4
    endloop
  endfacet
  facet normal 0 0 1
    outer loop
      vertex -15.2911 0.223869 -4
      vertex -21.6181 0.223869 -4
      vertex -15.3413 -1.06538 -4
    endloop
  endfacet
  facet normal -0 -0 1
    outer loop
      vertex -21.571 -1.04887 -4
      vertex -15.3413 -1.06538 -4
      vertex -21.6181 0.223869 -4
    endloop
  endfacet
  facet normal 0 0 1
    outer loop
      vertex -21.421 2.59582 -4
      vertex -15.4894 2.59582 -4
      vertex -16.0845 4.29007 -4
    endloop
  endfacet
  facet normal 0 0 1
    outer loop
      vertex -15.3413 -1.06538 -4
      vertex -21.571 -1.04887 -4
      vertex -15.492 -2.18681 -4
    endloop
  endfacet
  facet normal -0 -0 1
    outer loop
      vertex -21.4299 -2.16142 -4
      vertex -15.492 -2.18681 -4
      vertex -21.571 -1.04887 -4
    endloop
  endfacet
  facet normal 0 0 1
    outer loop
      vertex -18.4648 5.64547 -4
      vertex -16.0845 4.29007 -4
      vertex -17.0763 5.30662 -4
    endloop
  endfacet
  facet normal 0 0 1
    outer loop
      vertex -15.492 -2.18681 -4
      vertex -21.4299 -2.16142 -4
      vertex -15.7431 -3.1404 -4
    endloop
  endfacet
  facet normal -0 -0 1
    outer loop
      vertex -21.1946 -3.11377 -4
      vertex -15.7431 -3.1404 -4
      vertex -21.4299 -2.16142 -4
    endloop
  endfacet
  facet normal 0 0 1
    outer loop
      vertex -15.7431 -3.1404 -4
      vertex -21.1946 -3.11377 -4
      vertex -16.0946 -3.92617 -4
    endloop
  endfacet
  facet normal 0 0 1
    outer loop
      vertex -16.0845 4.29007 -4
      vertex -18.4648 5.64547 -4
      vertex -20.8298 4.29007 -4
    endloop
  endfacet
  facet normal -0 -0 1
    outer loop
      vertex -20.8652 -3.90592 -4
      vertex -16.0946 -3.92617 -4
      vertex -21.1946 -3.11377 -4
    endloop
  endfacet
  facet normal 0 0 1
    outer loop
      vertex -20.8298 4.29007 -4
      vertex -18.4648 5.64547 -4
      vertex -19.8443 5.30662 -4
    endloop
  endfacet
  facet normal 0 -0 1
    outer loop
      vertex -18.4546 -5.32987 -4
      vertex -16.0946 -3.92617 -4
      vertex -20.8652 -3.90592 -4
    endloop
  endfacet
  facet normal 0 0 1
    outer loop
      vertex -16.0946 -3.92617 -4
      vertex -18.4546 -5.32987 -4
      vertex -16.5435 -4.54029 -4
    endloop
  endfacet
  facet normal 0 0 1
    outer loop
      vertex -16.0845 4.29007 -4
      vertex -20.8298 4.29007 -4
      vertex -21.421 2.59582 -4
    endloop
  endfacet
  facet normal 0 -0 1
    outer loop
      vertex -17.7235 -5.24214 -4
      vertex -16.5435 -4.54029 -4
      vertex -18.4546 -5.32987 -4
    endloop
  endfacet
  facet normal 0 0 1
    outer loop
      vertex -16.5435 -4.54029 -4
      vertex -17.7235 -5.24214 -4
      vertex -17.0865 -4.97894 -4
    endloop
  endfacet
  facet normal 0 0 1
    outer loop
      vertex -15.4894 2.59582 -4
      vertex -21.421 2.59582 -4
      vertex -21.6181 0.223869 -4
    endloop
  endfacet
  facet normal 0 0 1
    outer loop
      vertex -18.4546 -5.32987 -4
      vertex -20.8652 -3.90592 -4
      vertex -19.227 -5.24088 -4
    endloop
  endfacet
  facet normal 0 0 1
    outer loop
      vertex -19.227 -5.24088 -4
      vertex -20.4323 -4.5289 -4
      vertex -19.8862 -4.97388 -4
    endloop
  endfacet
  facet normal -0 -0 1
    outer loop
      vertex -20.4323 -4.5289 -4
      vertex -19.227 -5.24088 -4
      vertex -20.8652 -3.90592 -4
    endloop
  endfacet
  facet normal -1 0 0
    outer loop
      vertex 25.5 -11.5 -4
      vertex 25.5 11 0
      vertex 25.5 11 -4
    endloop
  endfacet
  facet normal -1 -0 0
    outer loop
      vertex 25.5 11 0
      vertex 25.5 -11.5 -4
      vertex 25.5 -11.5 0
    endloop
  endfacet
  facet normal 0 -1 0
    outer loop
      vertex -25 11 -4
      vertex 25.5 11 0
      vertex -25 11 0
    endloop
  endfacet
  facet normal 0 -1 -0
    outer loop
      vertex 25.5 11 0
      vertex -25 11 -4
      vertex 25.5 11 -4
    endloop
  endfacet
  facet normal 0 1 -0
    outer loop
      vertex 25.5 -11.5 -4
      vertex -25 -11.5 0
      vertex 25.5 -11.5 0
    endloop
  endfacet
  facet normal 0 1 0
    outer loop
      vertex -25 -11.5 0
      vertex 25.5 -11.5 -4
      vertex -25 -11.5 -4
    endloop
  endfacet
  facet normal 0 0 1
    outer loop
      vertex 9.12698 0.223869 0
      vertex 11.1715 0.223869 0
      vertex 11.0888 1.83549 0
    endloop
  endfacet
  facet normal -0 0 1
    outer loop
      vertex 8.92862 2.59582 0
      vertex 11.0888 1.83549 0
      vertex 10.8409 3.24239 0
    endloop
  endfacet
  facet normal 0 0 1
    outer loop
      vertex 9.07676 -1.06538 0
      vertex 11.1715 0.223869 0
      vertex 9.12698 0.223869 0
    endloop
  endfacet
  facet normal 0 0 1
    outer loop
      vertex 8.92862 2.59582 0
      vertex 10.8409 3.24239 0
      vertex 10.4277 4.44459 0
    endloop
  endfacet
  facet normal 0 0 1
    outer loop
      vertex 11.1715 0.223869 0
      vertex 9.07676 -1.06538 0
      vertex 11.0882 -1.4163 0
    endloop
  endfacet
  facet normal 0 0 1
    outer loop
      vertex 8.33356 4.29007 0
      vertex 10.4277 4.44459 0
      vertex 9.84923 5.44207 0
    endloop
  endfacet
  facet normal 0 0 1
    outer loop
      vertex 8.92609 -2.18681 0
      vertex 11.0882 -1.4163 0
      vertex 9.07676 -1.06538 0
    endloop
  endfacet
  facet normal 0 0 1
    outer loop
      vertex 11.0882 -1.4163 0
      vertex 8.92609 -2.18681 0
      vertex 10.8384 -2.84797 0
    endloop
  endfacet
  facet normal 0 0 1
    outer loop
      vertex 8.33356 4.29007 0
      vertex 9.84923 5.44207 0
      vertex 9.10983 6.2253 0
    endloop
  endfacet
  facet normal 0 0 1
    outer loop
      vertex 11.0888 1.83549 0
      vertex 8.92862 2.59582 0
      vertex 9.12698 0.223869 0
    endloop
  endfacet
  facet normal 0 0 1
    outer loop
      vertex 10.4277 4.44459 0
      vertex 8.33356 4.29007 0
      vertex 8.92862 2.59582 0
    endloop
  endfacet
  facet normal 0 0 1
    outer loop
      vertex 7.34177 5.30662 0
      vertex 9.10983 6.2253 0
      vertex 8.21404 6.78476 0
    endloop
  endfacet
  facet normal 0 0 1
    outer loop
      vertex 9.10983 6.2253 0
      vertex 7.34177 5.30662 0
      vertex 8.33356 4.29007 0
    endloop
  endfacet
  facet normal 0 0 1
    outer loop
      vertex 7.16186 7.12043 0
      vertex 7.34177 5.30662 0
      vertex 8.21404 6.78476 0
    endloop
  endfacet
  facet normal 0 0 1
    outer loop
      vertex 5.95328 5.64547 0
      vertex 7.16186 7.12043 0
      vertex 5.95328 7.23232 0
    endloop
  endfacet
  facet normal 0 0 1
    outer loop
      vertex 7.16186 7.12043 0
      vertex 5.95328 5.64547 0
      vertex 7.34177 5.30662 0
    endloop
  endfacet
  facet normal -0 0 1
    outer loop
      vertex 4.77021 7.12202 0
      vertex 5.95328 5.64547 0
      vertex 5.95328 7.23232 0
    endloop
  endfacet
  facet normal 0 0 1
    outer loop
      vertex 4.77021 7.12202 0
      vertex 4.57371 5.30662 0
      vertex 5.95328 5.64547 0
    endloop
  endfacet
  facet normal -0 0 1
    outer loop
      vertex 3.73335 6.7911 0
      vertex 4.57371 5.30662 0
      vertex 4.77021 7.12202 0
    endloop
  endfacet
  facet normal -0 0 1
    outer loop
      vertex 2.84271 6.23956 0
      vertex 4.57371 5.30662 0
      vertex 3.73335 6.7911 0
    endloop
  endfacet
  facet normal 0 0 1
    outer loop
      vertex 4.57371 5.30662 0
      vertex 2.84271 6.23956 0
      vertex 3.5883 4.29007 0
    endloop
  endfacet
  facet normal -0 0 1
    outer loop
      vertex 2.09828 5.46742 0
      vertex 3.5883 4.29007 0
      vertex 2.84271 6.23956 0
    endloop
  endfacet
  facet normal -0 0 1
    outer loop
      vertex 1.5108 4.47792 0
      vertex 3.5883 4.29007 0
      vertex 2.09828 5.46742 0
    endloop
  endfacet
  facet normal 0 0 1
    outer loop
      vertex 3.5883 4.29007 0
      vertex 1.5108 4.47792 0
      vertex 2.99706 2.59582 0
    endloop
  endfacet
  facet normal -0 0 1
    outer loop
      vertex 1.09118 3.27416 0
      vertex 2.99706 2.59582 0
      vertex 1.5108 4.47792 0
    endloop
  endfacet
  facet normal 0 -0 1
    outer loop
      vertex 0.839714 -1.39149 0
      vertex 2.79998 0.223869 0
      vertex 0.755478 0.223869 0
    endloop
  endfacet
  facet normal 0 0 1
    outer loop
      vertex 0.839401 1.85614 0
      vertex 2.99706 2.59582 0
      vertex 1.09118 3.27416 0
    endloop
  endfacet
  facet normal 0 -0 1
    outer loop
      vertex 1.09241 -2.8098 0
      vertex 2.79998 0.223869 0
      vertex 0.839714 -1.39149 0
    endloop
  endfacet
  facet normal 0 0 1
    outer loop
      vertex 2.99706 2.59582 0
      vertex 0.839401 1.85614 0
      vertex 2.79998 0.223869 0
    endloop
  endfacet
  facet normal 0 -0 1
    outer loop
      vertex 1.51359 -4.03104 0
      vertex 2.79998 0.223869 0
      vertex 1.09241 -2.8098 0
    endloop
  endfacet
  facet normal 0 0 1
    outer loop
      vertex 2.79998 0.223869 0
      vertex 0.839401 1.85614 0
      vertex 0.755478 0.223869 0
    endloop
  endfacet
  facet normal 0 0 1
    outer loop
      vertex 2.79998 0.223869 0
      vertex 1.51359 -4.03104 0
      vertex 2.10323 -5.05522 0
    endloop
  endfacet
  facet normal 0 0 1
    outer loop
      vertex 8.67498 -3.1404 0
      vertex 10.8384 -2.84797 0
      vertex 8.92609 -2.18681 0
    endloop
  endfacet
  facet normal 0 0 1
    outer loop
      vertex 10.8384 -2.84797 0
      vertex 8.67498 -3.1404 0
      vertex 10.422 -4.07114 0
    endloop
  endfacet
  facet normal -0 0 1
    outer loop
      vertex 8.32343 -3.92617 0
      vertex 10.422 -4.07114 0
      vertex 8.67498 -3.1404 0
    endloop
  endfacet
  facet normal 0 0 1
    outer loop
      vertex 10.422 -4.07114 0
      vertex 8.32343 -3.92617 0
      vertex 9.83903 -5.08582 0
    endloop
  endfacet
  facet normal -0 0 1
    outer loop
      vertex 7.87454 -4.54029 0
      vertex 9.83903 -5.08582 0
      vertex 8.32343 -3.92617 0
    endloop
  endfacet
  facet normal 0 0 1
    outer loop
      vertex 9.83903 -5.08582 0
      vertex 7.87454 -4.54029 0
      vertex 9.09772 -5.88238 0
    endloop
  endfacet
  facet normal 0 0 1
    outer loop
      vertex 9.09772 -5.88238 0
      vertex 7.87454 -4.54029 0
      vertex 8.20639 -6.45135 0
    endloop
  endfacet
  facet normal -0 0 1
    outer loop
      vertex 7.33159 -4.97894 0
      vertex 8.20639 -6.45135 0
      vertex 7.87454 -4.54029 0
    endloop
  endfacet
  facet normal 0 0 1
    outer loop
      vertex 7.33159 -4.97894 0
      vertex 7.16505 -6.79272 0
      vertex 8.20639 -6.45135 0
    endloop
  endfacet
  facet normal -0 0 1
    outer loop
      vertex 6.69457 -5.24214 0
      vertex 7.16505 -6.79272 0
      vertex 7.33159 -4.97894 0
    endloop
  endfacet
  facet normal 0 0 1
    outer loop
      vertex 6.69457 -5.24214 0
      vertex 5.97368 -6.90652 0
      vertex 7.16505 -6.79272 0
    endloop
  endfacet
  facet normal -0 0 1
    outer loop
      vertex 5.96348 -5.32987 0
      vertex 5.97368 -6.90652 0
      vertex 6.69457 -5.24214 0
    endloop
  endfacet
  facet normal 0 0 1
    outer loop
      vertex 5.19109 -5.24088 0
      vertex 5.97368 -6.90652 0
      vertex 5.96348 -5.32987 0
    endloop
  endfacet
  facet normal 0 0 1
    outer loop
      vertex 5.19109 -5.24088 0
      vertex 4.78577 -6.79082 0
      vertex 5.97368 -6.90652 0
    endloop
  endfacet
  facet normal 0 0 1
    outer loop
      vertex 4.53185 -4.97388 0
      vertex 4.78577 -6.79082 0
      vertex 5.19109 -5.24088 0
    endloop
  endfacet
  facet normal 0 0 1
    outer loop
      vertex 2.85054 -5.86517 0
      vertex 4.53185 -4.97388 0
      vertex 3.98576 -4.5289 0
    endloop
  endfacet
  facet normal 0 0 1
    outer loop
      vertex 4.53185 -4.97388 0
      vertex 3.74472 -6.4437 0
      vertex 4.78577 -6.79082 0
    endloop
  endfacet
  facet normal 0 0 1
    outer loop
      vertex 2.10323 -5.05522 0
      vertex 3.98576 -4.5289 0
      vertex 3.55283 -3.90592 0
    endloop
  endfacet
  facet normal 0 0 1
    outer loop
      vertex 2.10323 -5.05522 0
      vertex 3.55283 -3.90592 0
      vertex 3.22346 -3.11377 0
    endloop
  endfacet
  facet normal 0 0 1
    outer loop
      vertex 2.10323 -5.05522 0
      vertex 3.22346 -3.11377 0
      vertex 2.98819 -2.16142 0
    endloop
  endfacet
  facet normal 0 0 1
    outer loop
      vertex 4.53185 -4.97388 0
      vertex 2.85054 -5.86517 0
      vertex 3.74472 -6.4437 0
    endloop
  endfacet
  facet normal 0 0 1
    outer loop
      vertex 2.10323 -5.05522 0
      vertex 2.98819 -2.16142 0
      vertex 2.84703 -1.04887 0
    endloop
  endfacet
  facet normal 0 0 1
    outer loop
      vertex 2.10323 -5.05522 0
      vertex 2.84703 -1.04887 0
      vertex 2.79998 0.223869 0
    endloop
  endfacet
  facet normal 0 0 1
    outer loop
      vertex 3.98576 -4.5289 0
      vertex 2.10323 -5.05522 0
      vertex 2.85054 -5.86517 0
    endloop
  endfacet
  facet normal 0 0 1
    outer loop
      vertex -15.2911 0.223869 0
      vertex -13.2466 0.223869 0
      vertex -13.3292 1.83549 0
    endloop
  endfacet
  facet normal -0 0 1
    outer loop
      vertex -15.4894 2.59582 0
      vertex -13.3292 1.83549 0
      vertex -13.5771 3.24239 0
    endloop
  endfacet
  facet normal 0 0 1
    outer loop
      vertex -15.3413 -1.06538 0
      vertex -13.2466 0.223869 0
      vertex -15.2911 0.223869 0
    endloop
  endfacet
  facet normal 0 0 1
    outer loop
      vertex -15.4894 2.59582 0
      vertex -13.5771 3.24239 0
      vertex -13.9903 4.44459 0
    endloop
  endfacet
  facet normal 0 0 1
    outer loop
      vertex -13.2466 0.223869 0
      vertex -15.3413 -1.06538 0
      vertex -13.3299 -1.4163 0
    endloop
  endfacet
  facet normal 0 0 1
    outer loop
      vertex -16.0845 4.29007 0
      vertex -13.9903 4.44459 0
      vertex -14.5688 5.44207 0
    endloop
  endfacet
  facet normal 0 0 1
    outer loop
      vertex -15.492 -2.18681 0
      vertex -13.3299 -1.4163 0
      vertex -15.3413 -1.06538 0
    endloop
  endfacet
  facet normal 0 0 1
    outer loop
      vertex -13.3299 -1.4163 0
      vertex -15.492 -2.18681 0
      vertex -13.5797 -2.84797 0
    endloop
  endfacet
  facet normal 0 0 1
    outer loop
      vertex -16.0845 4.29007 0
      vertex -14.5688 5.44207 0
      vertex -15.3082 6.2253 0
    endloop
  endfacet
  facet normal 0 0 1
    outer loop
      vertex -13.3292 1.83549 0
      vertex -15.4894 2.59582 0
      vertex -15.2911 0.223869 0
    endloop
  endfacet
  facet normal 0 0 1
    outer loop
      vertex -13.9903 4.44459 0
      vertex -16.0845 4.29007 0
      vertex -15.4894 2.59582 0
    endloop
  endfacet
  facet normal 0 0 1
    outer loop
      vertex -17.0763 5.30662 0
      vertex -15.3082 6.2253 0
      vertex -16.204 6.78476 0
    endloop
  endfacet
  facet normal 0 0 1
    outer loop
      vertex -15.3082 6.2253 0
      vertex -17.0763 5.30662 0
      vertex -16.0845 4.29007 0
    endloop
  endfacet
  facet normal 0 0 1
    outer loop
      vertex -17.2562 7.12043 0
      vertex -17.0763 5.30662 0
      vertex -16.204 6.78476 0
    endloop
  endfacet
  facet normal 0 0 1
    outer loop
      vertex -18.4648 5.64547 0
      vertex -17.2562 7.12043 0
      vertex -18.4648 7.23232 0
    endloop
  endfacet
  facet normal 0 0 1
    outer loop
      vertex -17.2562 7.12043 0
      vertex -18.4648 5.64547 0
      vertex -17.0763 5.30662 0
    endloop
  endfacet
  facet normal -0 0 1
    outer loop
      vertex -19.6479 7.12202 0
      vertex -18.4648 5.64547 0
      vertex -18.4648 7.23232 0
    endloop
  endfacet
  facet normal 0 0 1
    outer loop
      vertex -19.6479 7.12202 0
      vertex -19.8443 5.30662 0
      vertex -18.4648 5.64547 0
    endloop
  endfacet
  facet normal -0 0 1
    outer loop
      vertex -20.6847 6.7911 0
      vertex -19.8443 5.30662 0
      vertex -19.6479 7.12202 0
    endloop
  endfacet
  facet normal -0 0 1
    outer loop
      vertex -21.5753 6.23956 0
      vertex -19.8443 5.30662 0
      vertex -20.6847 6.7911 0
    endloop
  endfacet
  facet normal 0 0 1
    outer loop
      vertex -19.8443 5.30662 0
      vertex -21.5753 6.23956 0
      vertex -20.8298 4.29007 0
    endloop
  endfacet
  facet normal -0 0 1
    outer loop
      vertex -22.3198 5.46742 0
      vertex -20.8298 4.29007 0
      vertex -21.5753 6.23956 0
    endloop
  endfacet
  facet normal -0 0 1
    outer loop
      vertex -22.9073 4.47792 0
      vertex -20.8298 4.29007 0
      vertex -22.3198 5.46742 0
    endloop
  endfacet
  facet normal 0 0 1
    outer loop
      vertex -20.8298 4.29007 0
      vertex -22.9073 4.47792 0
      vertex -21.421 2.59582 0
    endloop
  endfacet
  facet normal -0 0 1
    outer loop
      vertex -23.3269 3.27416 0
      vertex -21.421 2.59582 0
      vertex -22.9073 4.47792 0
    endloop
  endfacet
  facet normal 0 -0 1
    outer loop
      vertex -23.5783 -1.39149 0
      vertex -21.6181 0.223869 0
      vertex -23.6626 0.223869 0
    endloop
  endfacet
  facet normal 0 0 1
    outer loop
      vertex -23.5787 1.85614 0
      vertex -21.421 2.59582 0
      vertex -23.3269 3.27416 0
    endloop
  endfacet
  facet normal 0 -0 1
    outer loop
      vertex -23.3256 -2.8098 0
      vertex -21.6181 0.223869 0
      vertex -23.5783 -1.39149 0
    endloop
  endfacet
  facet normal 0 0 1
    outer loop
      vertex -21.421 2.59582 0
      vertex -23.5787 1.85614 0
      vertex -21.6181 0.223869 0
    endloop
  endfacet
  facet normal 0 -0 1
    outer loop
      vertex -22.9045 -4.03104 0
      vertex -21.6181 0.223869 0
      vertex -23.3256 -2.8098 0
    endloop
  endfacet
  facet normal 0 0 1
    outer loop
      vertex -21.6181 0.223869 0
      vertex -23.5787 1.85614 0
      vertex -23.6626 0.223869 0
    endloop
  endfacet
  facet normal 0 0 1
    outer loop
      vertex -21.6181 0.223869 0
      vertex -22.9045 -4.03104 0
      vertex -22.3148 -5.05522 0
    endloop
  endfacet
  facet normal 0 0 1
    outer loop
      vertex -15.7431 -3.1404 0
      vertex -13.5797 -2.84797 0
      vertex -15.492 -2.18681 0
    endloop
  endfacet
  facet normal 0 0 1
    outer loop
      vertex -13.5797 -2.84797 0
      vertex -15.7431 -3.1404 0
      vertex -13.9961 -4.07114 0
    endloop
  endfacet
  facet normal -0 0 1
    outer loop
      vertex -16.0946 -3.92617 0
      vertex -13.9961 -4.07114 0
      vertex -15.7431 -3.1404 0
    endloop
  endfacet
  facet normal 0 0 1
    outer loop
      vertex -13.9961 -4.07114 0
      vertex -16.0946 -3.92617 0
      vertex -14.579 -5.08582 0
    endloop
  endfacet
  facet normal -0 0 1
    outer loop
      vertex -16.5435 -4.54029 0
      vertex -14.579 -5.08582 0
      vertex -16.0946 -3.92617 0
    endloop
  endfacet
  facet normal 0 0 1
    outer loop
      vertex -14.579 -5.08582 0
      vertex -16.5435 -4.54029 0
      vertex -15.3203 -5.88238 0
    endloop
  endfacet
  facet normal 0 0 1
    outer loop
      vertex -15.3203 -5.88238 0
      vertex -16.5435 -4.54029 0
      vertex -16.2117 -6.45135 0
    endloop
  endfacet
  facet normal -0 0 1
    outer loop
      vertex -17.0865 -4.97894 0
      vertex -16.2117 -6.45135 0
      vertex -16.5435 -4.54029 0
    endloop
  endfacet
  facet normal 0 0 1
    outer loop
      vertex -17.0865 -4.97894 0
      vertex -17.253 -6.79272 0
      vertex -16.2117 -6.45135 0
    endloop
  endfacet
  facet normal -0 0 1
    outer loop
      vertex -17.7235 -5.24214 0
      vertex -17.253 -6.79272 0
      vertex -17.0865 -4.97894 0
    endloop
  endfacet
  facet normal 0 0 1
    outer loop
      vertex -17.7235 -5.24214 0
      vertex -18.4444 -6.90652 0
      vertex -17.253 -6.79272 0
    endloop
  endfacet
  facet normal -0 0 1
    outer loop
      vertex -18.4546 -5.32987 0
      vertex -18.4444 -6.90652 0
      vertex -17.7235 -5.24214 0
    endloop
  endfacet
  facet normal 0 0 1
    outer loop
      vertex -19.227 -5.24088 0
      vertex -18.4444 -6.90652 0
      vertex -18.4546 -5.32987 0
    endloop
  endfacet
  facet normal 0 0 1
    outer loop
      vertex -19.227 -5.24088 0
      vertex -19.6323 -6.79082 0
      vertex -18.4444 -6.90652 0
    endloop
  endfacet
  facet normal 0 0 1
    outer loop
      vertex -19.8862 -4.97388 0
      vertex -19.6323 -6.79082 0
      vertex -19.227 -5.24088 0
    endloop
  endfacet
  facet normal 0 0 1
    outer loop
      vertex -21.5675 -5.86517 0
      vertex -19.8862 -4.97388 0
      vertex -20.4323 -4.5289 0
    endloop
  endfacet
  facet normal 0 0 1
    outer loop
      vertex -19.8862 -4.97388 0
      vertex -20.6733 -6.4437 0
      vertex -19.6323 -6.79082 0
    endloop
  endfacet
  facet normal 0 0 1
    outer loop
      vertex -22.3148 -5.05522 0
      vertex -20.4323 -4.5289 0
      vertex -20.8652 -3.90592 0
    endloop
  endfacet
  facet normal 0 0 1
    outer loop
      vertex -22.3148 -5.05522 0
      vertex -20.8652 -3.90592 0
      vertex -21.1946 -3.11377 0
    endloop
  endfacet
  facet normal 0 0 1
    outer loop
      vertex -22.3148 -5.05522 0
      vertex -21.1946 -3.11377 0
      vertex -21.4299 -2.16142 0
    endloop
  endfacet
  facet normal 0 0 1
    outer loop
      vertex -19.8862 -4.97388 0
      vertex -21.5675 -5.86517 0
      vertex -20.6733 -6.4437 0
    endloop
  endfacet
  facet normal 0 0 1
    outer loop
      vertex -22.3148 -5.05522 0
      vertex -21.4299 -2.16142 0
      vertex -21.571 -1.04887 0
    endloop
  endfacet
  facet normal 0 0 1
    outer loop
      vertex -22.3148 -5.05522 0
      vertex -21.571 -1.04887 0
      vertex -21.6181 0.223869 0
    endloop
  endfacet
  facet normal 0 0 1
    outer loop
      vertex -20.4323 -4.5289 0
      vertex -22.3148 -5.05522 0
      vertex -21.5675 -5.86517 0
    endloop
  endfacet
  facet normal 0 0 1
    outer loop
      vertex 14.3784 7.01872 0
      vertex 17.2164 -0.762672 0
      vertex 18.1623 0.803772 0
    endloop
  endfacet
  facet normal 0 0 1
    outer loop
      vertex 17.2164 -0.762672 0
      vertex 14.3784 7.01872 0
      vertex 12.2931 7.01872 0
    endloop
  endfacet
  facet normal -0 0 1
    outer loop
      vertex 21.9666 7.01872 0
      vertex 19.1286 -0.762672 0
      vertex 24.0519 7.01872 0
    endloop
  endfacet
  facet normal -0 0 1
    outer loop
      vertex 18.1623 0.803772 0
      vertex 19.1286 -0.762672 0
      vertex 21.9666 7.01872 0
    endloop
  endfacet
  facet normal 0 0 1
    outer loop
      vertex 17.2164 -0.762672 0
      vertex 19.1286 -0.762672 0
      vertex 18.1623 0.803772 0
    endloop
  endfacet
  facet normal 0 0 1
    outer loop
      vertex 19.1286 -0.762672 0
      vertex 17.2164 -0.762672 0
      vertex 19.1286 -6.70312 0
    endloop
  endfacet
  facet normal 0 0 1
    outer loop
      vertex 19.1286 -6.70312 0
      vertex 17.2164 -0.762672 0
      vertex 17.2164 -6.70312 0
    endloop
  endfacet
  facet normal 0 0 1
    outer loop
      vertex -4.3536 -5.11627 0
      vertex -2.4108 7.01872 0
      vertex -4.3536 7.01872 0
    endloop
  endfacet
  facet normal 0 0 1
    outer loop
      vertex -2.4108 7.01872 0
      vertex -4.3536 -5.11627 0
      vertex -2.4108 -6.70312 0
    endloop
  endfacet
  facet normal 0 0 1
    outer loop
      vertex -11.1891 -6.70312 0
      vertex -4.3536 -5.11627 0
      vertex -11.1891 -5.11627 0
    endloop
  endfacet
  facet normal 0 0 1
    outer loop
      vertex -4.3536 -5.11627 0
      vertex -11.1891 -6.70312 0
      vertex -2.4108 -6.70312 0
    endloop
  endfacet
  facet normal -0.316313 -0.948655 0
    outer loop
      vertex 3.74472 -6.4437 -4
      vertex 4.78577 -6.79082 0
      vertex 3.74472 -6.4437 0
    endloop
  endfacet
  facet normal -0.316313 -0.948655 -0
    outer loop
      vertex 4.78577 -6.79082 0
      vertex 3.74472 -6.4437 -4
      vertex 4.78577 -6.79082 -4
    endloop
  endfacet
  facet normal -0.543214 -0.839595 0
    outer loop
      vertex 2.85054 -5.86517 -4
      vertex 3.74472 -6.4437 0
      vertex 2.85054 -5.86517 0
    endloop
  endfacet
  facet normal -0.543214 -0.839595 -0
    outer loop
      vertex 3.74472 -6.4437 0
      vertex 2.85054 -5.86517 -4
      vertex 3.74472 -6.4437 -4
    endloop
  endfacet
  facet normal -0.734955 -0.678115 0
    outer loop
      vertex 2.85054 -5.86517 -4
      vertex 2.10323 -5.05522 0
      vertex 2.10323 -5.05522 -4
    endloop
  endfacet
  facet normal -0.734955 -0.678115 0
    outer loop
      vertex 2.10323 -5.05522 0
      vertex 2.85054 -5.86517 -4
      vertex 2.85054 -5.86517 0
    endloop
  endfacet
  facet normal -0.866637 -0.498939 0
    outer loop
      vertex 2.10323 -5.05522 -4
      vertex 1.51359 -4.03104 0
      vertex 1.51359 -4.03104 -4
    endloop
  endfacet
  facet normal -0.866637 -0.498939 0
    outer loop
      vertex 1.51359 -4.03104 0
      vertex 2.10323 -5.05522 -4
      vertex 2.10323 -5.05522 0
    endloop
  endfacet
  facet normal -0.945358 -0.326034 0
    outer loop
      vertex 1.51359 -4.03104 -4
      vertex 1.09241 -2.8098 0
      vertex 1.09241 -2.8098 -4
    endloop
  endfacet
  facet normal -0.945358 -0.326034 0
    outer loop
      vertex 1.09241 -2.8098 0
      vertex 1.51359 -4.03104 -4
      vertex 1.51359 -4.03104 0
    endloop
  endfacet
  facet normal -0.984496 -0.175405 0
    outer loop
      vertex 1.09241 -2.8098 -4
      vertex 0.839714 -1.39149 0
      vertex 0.839714 -1.39149 -4
    endloop
  endfacet
  facet normal -0.984496 -0.175405 0
    outer loop
      vertex 0.839714 -1.39149 0
      vertex 1.09241 -2.8098 -4
      vertex 1.09241 -2.8098 0
    endloop
  endfacet
  facet normal -0.998643 -0.0520762 0
    outer loop
      vertex 0.839714 -1.39149 -4
      vertex 0.755478 0.223869 0
      vertex 0.755478 0.223869 -4
    endloop
  endfacet
  facet normal -0.998643 -0.0520762 0
    outer loop
      vertex 0.755478 0.223869 0
      vertex 0.839714 -1.39149 -4
      vertex 0.839714 -1.39149 0
    endloop
  endfacet
  facet normal -0.998681 0.051347 0
    outer loop
      vertex 0.755478 0.223869 -4
      vertex 0.839401 1.85614 0
      vertex 0.839401 1.85614 -4
    endloop
  endfacet
  facet normal -0.998681 0.051347 0
    outer loop
      vertex 0.839401 1.85614 0
      vertex 0.755478 0.223869 -4
      vertex 0.755478 0.223869 0
    endloop
  endfacet
  facet normal -0.9846 0.174822 0
    outer loop
      vertex 0.839401 1.85614 -4
      vertex 1.09118 3.27416 0
      vertex 1.09118 3.27416 -4
    endloop
  endfacet
  facet normal -0.9846 0.174822 0
    outer loop
      vertex 1.09118 3.27416 0
      vertex 0.839401 1.85614 -4
      vertex 0.839401 1.85614 0
    endloop
  endfacet
  facet normal -0.944272 0.329165 0
    outer loop
      vertex 1.09118 3.27416 -4
      vertex 1.5108 4.47792 0
      vertex 1.5108 4.47792 -4
    endloop
  endfacet
  facet normal -0.944272 0.329165 0
    outer loop
      vertex 1.5108 4.47792 0
      vertex 1.09118 3.27416 -4
      vertex 1.09118 3.27416 0
    endloop
  endfacet
  facet normal -0.859868 0.510516 0
    outer loop
      vertex 1.5108 4.47792 -4
      vertex 2.09828 5.46742 0
      vertex 2.09828 5.46742 -4
    endloop
  endfacet
  facet normal -0.859868 0.510516 0
    outer loop
      vertex 2.09828 5.46742 0
      vertex 1.5108 4.47792 -4
      vertex 1.5108 4.47792 0
    endloop
  endfacet
  facet normal -0.719907 0.694071 0
    outer loop
      vertex 2.09828 5.46742 -4
      vertex 2.84271 6.23956 0
      vertex 2.84271 6.23956 -4
    endloop
  endfacet
  facet normal -0.719907 0.694071 0
    outer loop
      vertex 2.84271 6.23956 0
      vertex 2.09828 5.46742 -4
      vertex 2.09828 5.46742 0
    endloop
  endfacet
  facet normal -0.526487 0.850183 0
    outer loop
      vertex 3.73335 6.7911 -4
      vertex 2.84271 6.23956 0
      vertex 3.73335 6.7911 0
    endloop
  endfacet
  facet normal -0.526487 0.850183 0
    outer loop
      vertex 2.84271 6.23956 0
      vertex 3.73335 6.7911 -4
      vertex 2.84271 6.23956 -4
    endloop
  endfacet
  facet normal -0.304046 0.952657 0
    outer loop
      vertex 4.77021 7.12202 -4
      vertex 3.73335 6.7911 0
      vertex 4.77021 7.12202 0
    endloop
  endfacet
  facet normal -0.304046 0.952657 0
    outer loop
      vertex 3.73335 6.7911 0
      vertex 4.77021 7.12202 -4
      vertex 3.73335 6.7911 -4
    endloop
  endfacet
  facet normal -0.0928294 0.995682 0
    outer loop
      vertex 5.95328 7.23232 -4
      vertex 4.77021 7.12202 0
      vertex 5.95328 7.23232 0
    endloop
  endfacet
  facet normal -0.0928294 0.995682 0
    outer loop
      vertex 4.77021 7.12202 0
      vertex 5.95328 7.23232 -4
      vertex 4.77021 7.12202 -4
    endloop
  endfacet
  facet normal 0.0921855 0.995742 -0
    outer loop
      vertex 7.16186 7.12043 -4
      vertex 5.95328 7.23232 0
      vertex 7.16186 7.12043 0
    endloop
  endfacet
  facet normal 0.0921855 0.995742 0
    outer loop
      vertex 5.95328 7.23232 0
      vertex 7.16186 7.12043 -4
      vertex 5.95328 7.23232 -4
    endloop
  endfacet
  facet normal 0.303932 0.952694 -0
    outer loop
      vertex 8.21404 6.78476 -4
      vertex 7.16186 7.12043 0
      vertex 8.21404 6.78476 0
    endloop
  endfacet
  facet normal 0.303932 0.952694 0
    outer loop
      vertex 7.16186 7.12043 0
      vertex 8.21404 6.78476 -4
      vertex 7.16186 7.12043 -4
    endloop
  endfacet
  facet normal 0.529721 0.848172 -0
    outer loop
      vertex 9.10983 6.2253 -4
      vertex 8.21404 6.78476 0
      vertex 9.10983 6.2253 0
    endloop
  endfacet
  facet normal 0.529721 0.848172 0
    outer loop
      vertex 8.21404 6.78476 0
      vertex 9.10983 6.2253 -4
      vertex 8.21404 6.78476 -4
    endloop
  endfacet
  facet normal 0.72716 0.686468 0
    outer loop
      vertex 9.84923 5.44207 0
      vertex 9.10983 6.2253 -4
      vertex 9.10983 6.2253 0
    endloop
  endfacet
  facet normal 0.72716 0.686468 0
    outer loop
      vertex 9.10983 6.2253 -4
      vertex 9.84923 5.44207 0
      vertex 9.84923 5.44207 -4
    endloop
  endfacet
  facet normal 0.865057 0.501674 0
    outer loop
      vertex 10.4277 4.44459 0
      vertex 9.84923 5.44207 -4
      vertex 9.84923 5.44207 0
    endloop
  endfacet
  facet normal 0.865057 0.501674 0
    outer loop
      vertex 9.84923 5.44207 -4
      vertex 10.4277 4.44459 0
      vertex 10.4277 4.44459 -4
    endloop
  endfacet
  facet normal 0.9457 0.32504 0
    outer loop
      vertex 10.8409 3.24239 0
      vertex 10.4277 4.44459 -4
      vertex 10.4277 4.44459 0
    endloop
  endfacet
  facet normal 0.9457 0.32504 0
    outer loop
      vertex 10.4277 4.44459 -4
      vertex 10.8409 3.24239 0
      vertex 10.8409 3.24239 -4
    endloop
  endfacet
  facet normal 0.984829 0.17353 0
    outer loop
      vertex 11.0888 1.83549 0
      vertex 10.8409 3.24239 -4
      vertex 10.8409 3.24239 0
    endloop
  endfacet
  facet normal 0.984829 0.17353 0
    outer loop
      vertex 10.8409 3.24239 -4
      vertex 11.0888 1.83549 0
      vertex 11.0888 1.83549 -4
    endloop
  endfacet
  facet normal 0.998686 0.0512474 0
    outer loop
      vertex 11.1715 0.223869 0
      vertex 11.0888 1.83549 -4
      vertex 11.0888 1.83549 0
    endloop
  endfacet
  facet normal 0.998686 0.0512474 0
    outer loop
      vertex 11.0888 1.83549 -4
      vertex 11.1715 0.223869 0
      vertex 11.1715 0.223869 -4
    endloop
  endfacet
  facet normal 0.998713 -0.0507221 0
    outer loop
      vertex 11.0882 -1.4163 0
      vertex 11.1715 0.223869 -4
      vertex 11.1715 0.223869 0
    endloop
  endfacet
  facet normal 0.998713 -0.0507221 0
    outer loop
      vertex 11.1715 0.223869 -4
      vertex 11.0882 -1.4163 0
      vertex 11.0882 -1.4163 -4
    endloop
  endfacet
  facet normal 0.985117 -0.171885 0
    outer loop
      vertex 10.8384 -2.84797 0
      vertex 11.0882 -1.4163 -4
      vertex 11.0882 -1.4163 0
    endloop
  endfacet
  facet normal 0.985117 -0.171885 0
    outer loop
      vertex 11.0882 -1.4163 -4
      vertex 10.8384 -2.84797 0
      vertex 10.8384 -2.84797 -4
    endloop
  endfacet
  facet normal 0.94665 -0.322265 0
    outer loop
      vertex 10.422 -4.07114 0
      vertex 10.8384 -2.84797 -4
      vertex 10.8384 -2.84797 0
    endloop
  endfacet
  facet normal 0.94665 -0.322265 0
    outer loop
      vertex 10.8384 -2.84797 -4
      vertex 10.422 -4.07114 0
      vertex 10.422 -4.07114 -4
    endloop
  endfacet
  facet normal 0.86708 -0.498169 0
    outer loop
      vertex 9.83903 -5.08582 0
      vertex 10.422 -4.07114 -4
      vertex 10.422 -4.07114 0
    endloop
  endfacet
  facet normal 0.86708 -0.498169 0
    outer loop
      vertex 10.422 -4.07114 -4
      vertex 9.83903 -5.08582 0
      vertex 9.83903 -5.08582 -4
    endloop
  endfacet
  facet normal 0.732038 -0.681264 0
    outer loop
      vertex 9.09772 -5.88238 0
      vertex 9.83903 -5.08582 -4
      vertex 9.83903 -5.08582 0
    endloop
  endfacet
  facet normal 0.732038 -0.681264 0
    outer loop
      vertex 9.83903 -5.08582 -4
      vertex 9.09772 -5.88238 0
      vertex 9.09772 -5.88238 -4
    endloop
  endfacet
  facet normal 0.53806 -0.842907 0
    outer loop
      vertex 8.20639 -6.45135 -4
      vertex 9.09772 -5.88238 0
      vertex 8.20639 -6.45135 0
    endloop
  endfacet
  facet normal 0.53806 -0.842907 0
    outer loop
      vertex 9.09772 -5.88238 0
      vertex 8.20639 -6.45135 -4
      vertex 9.09772 -5.88238 -4
    endloop
  endfacet
  facet normal 0.311507 -0.950244 0
    outer loop
      vertex 7.16505 -6.79272 -4
      vertex 8.20639 -6.45135 0
      vertex 7.16505 -6.79272 0
    endloop
  endfacet
  facet normal 0.311507 -0.950244 0
    outer loop
      vertex 8.20639 -6.45135 0
      vertex 7.16505 -6.79272 -4
      vertex 8.20639 -6.45135 -4
    endloop
  endfacet
  facet normal 0.0950875 -0.995469 0
    outer loop
      vertex 5.97368 -6.90652 -4
      vertex 7.16505 -6.79272 0
      vertex 5.97368 -6.90652 0
    endloop
  endfacet
  facet normal 0.0950875 -0.995469 0
    outer loop
      vertex 7.16505 -6.79272 0
      vertex 5.97368 -6.90652 -4
      vertex 7.16505 -6.79272 -4
    endloop
  endfacet
  facet normal -0.0969392 -0.99529 0
    outer loop
      vertex 4.78577 -6.79082 -4
      vertex 5.97368 -6.90652 0
      vertex 4.78577 -6.79082 0
    endloop
  endfacet
  facet normal -0.0969392 -0.99529 -0
    outer loop
      vertex 5.97368 -6.90652 0
      vertex 4.78577 -6.79082 -4
      vertex 5.97368 -6.90652 -4
    endloop
  endfacet
  facet normal -0.381863 0.924219 0
    outer loop
      vertex 7.33159 -4.97894 -4
      vertex 6.69457 -5.24214 0
      vertex 7.33159 -4.97894 0
    endloop
  endfacet
  facet normal -0.381863 0.924219 0
    outer loop
      vertex 6.69457 -5.24214 0
      vertex 7.33159 -4.97894 -4
      vertex 6.69457 -5.24214 -4
    endloop
  endfacet
  facet normal -0.628435 0.777862 0
    outer loop
      vertex 7.87454 -4.54029 -4
      vertex 7.33159 -4.97894 0
      vertex 7.87454 -4.54029 0
    endloop
  endfacet
  facet normal -0.628435 0.777862 0
    outer loop
      vertex 7.33159 -4.97894 0
      vertex 7.87454 -4.54029 -4
      vertex 7.33159 -4.97894 -4
    endloop
  endfacet
  facet normal -0.807322 0.590111 0
    outer loop
      vertex 7.87454 -4.54029 -4
      vertex 8.32343 -3.92617 0
      vertex 8.32343 -3.92617 -4
    endloop
  endfacet
  facet normal -0.807322 0.590111 0
    outer loop
      vertex 8.32343 -3.92617 0
      vertex 7.87454 -4.54029 -4
      vertex 7.87454 -4.54029 0
    endloop
  endfacet
  facet normal -0.912809 0.408387 0
    outer loop
      vertex 8.32343 -3.92617 -4
      vertex 8.67498 -3.1404 0
      vertex 8.67498 -3.1404 -4
    endloop
  endfacet
  facet normal -0.912809 0.408387 0
    outer loop
      vertex 8.67498 -3.1404 0
      vertex 8.32343 -3.92617 -4
      vertex 8.32343 -3.92617 0
    endloop
  endfacet
  facet normal -0.967033 0.25465 0
    outer loop
      vertex 8.67498 -3.1404 -4
      vertex 8.92609 -2.18681 0
      vertex 8.92609 -2.18681 -4
    endloop
  endfacet
  facet normal -0.967033 0.25465 0
    outer loop
      vertex 8.92609 -2.18681 0
      vertex 8.67498 -3.1404 -4
      vertex 8.67498 -3.1404 0
    endloop
  endfacet
  facet normal -0.991095 0.133159 0
    outer loop
      vertex 8.92609 -2.18681 -4
      vertex 9.07676 -1.06538 0
      vertex 9.07676 -1.06538 -4
    endloop
  endfacet
  facet normal -0.991095 0.133159 0
    outer loop
      vertex 9.07676 -1.06538 0
      vertex 8.92609 -2.18681 -4
      vertex 8.92609 -2.18681 0
    endloop
  endfacet
  facet normal -0.999242 0.0389234 0
    outer loop
      vertex 9.07676 -1.06538 -4
      vertex 9.12698 0.223869 0
      vertex 9.12698 0.223869 -4
    endloop
  endfacet
  facet normal -0.999242 0.0389234 0
    outer loop
      vertex 9.12698 0.223869 0
      vertex 9.07676 -1.06538 -4
      vertex 9.07676 -1.06538 0
    endloop
  endfacet
  facet normal -0.996521 -0.0833365 0
    outer loop
      vertex 9.12698 0.223869 -4
      vertex 8.92862 2.59582 0
      vertex 8.92862 2.59582 -4
    endloop
  endfacet
  facet normal -0.996521 -0.0833365 0
    outer loop
      vertex 8.92862 2.59582 0
      vertex 9.12698 0.223869 -4
      vertex 9.12698 0.223869 0
    endloop
  endfacet
  facet normal -0.943498 -0.331378 0
    outer loop
      vertex 8.92862 2.59582 -4
      vertex 8.33356 4.29007 0
      vertex 8.33356 4.29007 -4
    endloop
  endfacet
  facet normal -0.943498 -0.331378 0
    outer loop
      vertex 8.33356 4.29007 0
      vertex 8.92862 2.59582 -4
      vertex 8.92862 2.59582 0
    endloop
  endfacet
  facet normal -0.71577 -0.698336 0
    outer loop
      vertex 8.33356 4.29007 -4
      vertex 7.34177 5.30662 0
      vertex 7.34177 5.30662 -4
    endloop
  endfacet
  facet normal -0.71577 -0.698336 0
    outer loop
      vertex 7.34177 5.30662 0
      vertex 8.33356 4.29007 -4
      vertex 8.33356 4.29007 0
    endloop
  endfacet
  facet normal -0.237084 -0.971489 0
    outer loop
      vertex 5.95328 5.64547 -4
      vertex 7.34177 5.30662 0
      vertex 5.95328 5.64547 0
    endloop
  endfacet
  facet normal -0.237084 -0.971489 -0
    outer loop
      vertex 7.34177 5.30662 0
      vertex 5.95328 5.64547 -4
      vertex 7.34177 5.30662 -4
    endloop
  endfacet
  facet normal 0.23853 -0.971135 0
    outer loop
      vertex 4.57371 5.30662 -4
      vertex 5.95328 5.64547 0
      vertex 4.57371 5.30662 0
    endloop
  endfacet
  facet normal 0.23853 -0.971135 0
    outer loop
      vertex 5.95328 5.64547 0
      vertex 4.57371 5.30662 -4
      vertex 5.95328 5.64547 -4
    endloop
  endfacet
  facet normal 0.718019 -0.696024 0
    outer loop
      vertex 3.5883 4.29007 0
      vertex 4.57371 5.30662 -4
      vertex 4.57371 5.30662 0
    endloop
  endfacet
  facet normal 0.718019 -0.696024 0
    outer loop
      vertex 4.57371 5.30662 -4
      vertex 3.5883 4.29007 0
      vertex 3.5883 4.29007 -4
    endloop
  endfacet
  facet normal 0.944162 -0.329483 0
    outer loop
      vertex 2.99706 2.59582 0
      vertex 3.5883 4.29007 -4
      vertex 3.5883 4.29007 0
    endloop
  endfacet
  facet normal 0.944162 -0.329483 0
    outer loop
      vertex 3.5883 4.29007 -4
      vertex 2.99706 2.59582 0
      vertex 2.99706 2.59582 -4
    endloop
  endfacet
  facet normal 0.996566 -0.0828024 0
    outer loop
      vertex 2.79998 0.223869 0
      vertex 2.99706 2.59582 -4
      vertex 2.99706 2.59582 0
    endloop
  endfacet
  facet normal 0.996566 -0.0828024 0
    outer loop
      vertex 2.99706 2.59582 -4
      vertex 2.79998 0.223869 0
      vertex 2.79998 0.223869 -4
    endloop
  endfacet
  facet normal 0.999317 0.0369423 0
    outer loop
      vertex 2.84703 -1.04887 0
      vertex 2.79998 0.223869 -4
      vertex 2.79998 0.223869 0
    endloop
  endfacet
  facet normal 0.999317 0.0369423 0
    outer loop
      vertex 2.79998 0.223869 -4
      vertex 2.84703 -1.04887 0
      vertex 2.84703 -1.04887 -4
    endloop
  endfacet
  facet normal 0.992047 0.125871 0
    outer loop
      vertex 2.98819 -2.16142 0
      vertex 2.84703 -1.04887 -4
      vertex 2.84703 -1.04887 0
    endloop
  endfacet
  facet normal 0.992047 0.125871 0
    outer loop
      vertex 2.84703 -1.04887 -4
      vertex 2.98819 -2.16142 0
      vertex 2.98819 -2.16142 -4
    endloop
  endfacet
  facet normal 0.970815 0.239832 0
    outer loop
      vertex 3.22346 -3.11377 0
      vertex 2.98819 -2.16142 -4
      vertex 2.98819 -2.16142 0
    endloop
  endfacet
  facet normal 0.970815 0.239832 0
    outer loop
      vertex 2.98819 -2.16142 -4
      vertex 3.22346 -3.11377 0
      vertex 3.22346 -3.11377 -4
    endloop
  endfacet
  facet normal 0.923363 0.383927 0
    outer loop
      vertex 3.55283 -3.90592 0
      vertex 3.22346 -3.11377 -4
      vertex 3.22346 -3.11377 0
    endloop
  endfacet
  facet normal 0.923363 0.383927 0
    outer loop
      vertex 3.22346 -3.11377 -4
      vertex 3.55283 -3.90592 0
      vertex 3.55283 -3.90592 -4
    endloop
  endfacet
  facet normal 0.821182 0.570667 0
    outer loop
      vertex 3.98576 -4.5289 0
      vertex 3.55283 -3.90592 -4
      vertex 3.55283 -3.90592 0
    endloop
  endfacet
  facet normal 0.821182 0.570667 0
    outer loop
      vertex 3.55283 -3.90592 -4
      vertex 3.98576 -4.5289 0
      vertex 3.98576 -4.5289 -4
    endloop
  endfacet
  facet normal 0.631688 0.775223 -0
    outer loop
      vertex 4.53185 -4.97388 -4
      vertex 3.98576 -4.5289 0
      vertex 4.53185 -4.97388 0
    endloop
  endfacet
  facet normal 0.631688 0.775223 0
    outer loop
      vertex 3.98576 -4.5289 0
      vertex 4.53185 -4.97388 -4
      vertex 3.98576 -4.5289 -4
    endloop
  endfacet
  facet normal 0.375392 0.926866 -0
    outer loop
      vertex 5.19109 -5.24088 -4
      vertex 4.53185 -4.97388 0
      vertex 5.19109 -5.24088 0
    endloop
  endfacet
  facet normal 0.375392 0.926866 0
    outer loop
      vertex 4.53185 -4.97388 0
      vertex 5.19109 -5.24088 -4
      vertex 4.53185 -4.97388 -4
    endloop
  endfacet
  facet normal 0.114457 0.993428 -0
    outer loop
      vertex 5.96348 -5.32987 -4
      vertex 5.19109 -5.24088 0
      vertex 5.96348 -5.32987 0
    endloop
  endfacet
  facet normal 0.114457 0.993428 0
    outer loop
      vertex 5.19109 -5.24088 0
      vertex 5.96348 -5.32987 -4
      vertex 5.19109 -5.24088 -4
    endloop
  endfacet
  facet normal -0.119144 0.992877 0
    outer loop
      vertex 6.69457 -5.24214 -4
      vertex 5.96348 -5.32987 0
      vertex 6.69457 -5.24214 0
    endloop
  endfacet
  facet normal -0.119144 0.992877 0
    outer loop
      vertex 5.96348 -5.32987 0
      vertex 6.69457 -5.24214 -4
      vertex 5.96348 -5.32987 -4
    endloop
  endfacet
  facet normal -0.316326 -0.94865 0
    outer loop
      vertex -20.6733 -6.4437 -4
      vertex -19.6323 -6.79082 0
      vertex -20.6733 -6.4437 0
    endloop
  endfacet
  facet normal -0.316326 -0.94865 -0
    outer loop
      vertex -19.6323 -6.79082 0
      vertex -20.6733 -6.4437 -4
      vertex -19.6323 -6.79082 -4
    endloop
  endfacet
  facet normal -0.543205 -0.8396 0
    outer loop
      vertex -21.5675 -5.86517 -4
      vertex -20.6733 -6.4437 0
      vertex -21.5675 -5.86517 0
    endloop
  endfacet
  facet normal -0.543205 -0.8396 -0
    outer loop
      vertex -20.6733 -6.4437 0
      vertex -21.5675 -5.86517 -4
      vertex -20.6733 -6.4437 -4
    endloop
  endfacet
  facet normal -0.73496 -0.67811 0
    outer loop
      vertex -21.5675 -5.86517 -4
      vertex -22.3148 -5.05522 0
      vertex -22.3148 -5.05522 -4
    endloop
  endfacet
  facet normal -0.73496 -0.67811 0
    outer loop
      vertex -22.3148 -5.05522 0
      vertex -21.5675 -5.86517 -4
      vertex -21.5675 -5.86517 0
    endloop
  endfacet
  facet normal -0.866615 -0.498978 0
    outer loop
      vertex -22.3148 -5.05522 -4
      vertex -22.9045 -4.03104 0
      vertex -22.9045 -4.03104 -4
    endloop
  endfacet
  facet normal -0.866615 -0.498978 0
    outer loop
      vertex -22.9045 -4.03104 0
      vertex -22.3148 -5.05522 -4
      vertex -22.3148 -5.05522 0
    endloop
  endfacet
  facet normal -0.945377 -0.325979 0
    outer loop
      vertex -22.9045 -4.03104 -4
      vertex -23.3256 -2.8098 0
      vertex -23.3256 -2.8098 -4
    endloop
  endfacet
  facet normal -0.945377 -0.325979 0
    outer loop
      vertex -23.3256 -2.8098 0
      vertex -22.9045 -4.03104 -4
      vertex -22.9045 -4.03104 0
    endloop
  endfacet
  facet normal -0.984496 -0.175407 0
    outer loop
      vertex -23.3256 -2.8098 -4
      vertex -23.5783 -1.39149 0
      vertex -23.5783 -1.39149 -4
    endloop
  endfacet
  facet normal -0.984496 -0.175407 0
    outer loop
      vertex -23.5783 -1.39149 0
      vertex -23.3256 -2.8098 -4
      vertex -23.3256 -2.8098 0
    endloop
  endfacet
  facet normal -0.998641 -0.0521156 0
    outer loop
      vertex -23.5783 -1.39149 -4
      vertex -23.6626 0.223869 0
      vertex -23.6626 0.223869 -4
    endloop
  endfacet
  facet normal -0.998641 -0.0521156 0
    outer loop
      vertex -23.6626 0.223869 0
      vertex -23.5783 -1.39149 -4
      vertex -23.5783 -1.39149 0
    endloop
  endfacet
  facet normal -0.998682 0.051333 0
    outer loop
      vertex -23.6626 0.223869 -4
      vertex -23.5787 1.85614 0
      vertex -23.5787 1.85614 -4
    endloop
  endfacet
  facet normal -0.998682 0.051333 0
    outer loop
      vertex -23.5787 1.85614 0
      vertex -23.6626 0.223869 -4
      vertex -23.6626 0.223869 0
    endloop
  endfacet
  facet normal -0.984597 0.174836 0
    outer loop
      vertex -23.5787 1.85614 -4
      vertex -23.3269 3.27416 0
      vertex -23.3269 3.27416 -4
    endloop
  endfacet
  facet normal -0.984597 0.174836 0
    outer loop
      vertex -23.3269 3.27416 0
      vertex -23.5787 1.85614 -4
      vertex -23.5787 1.85614 0
    endloop
  endfacet
  facet normal -0.944277 0.329151 0
    outer loop
      vertex -23.3269 3.27416 -4
      vertex -22.9073 4.47792 0
      vertex -22.9073 4.47792 -4
    endloop
  endfacet
  facet normal -0.944277 0.329151 0
    outer loop
      vertex -22.9073 4.47792 0
      vertex -23.3269 3.27416 -4
      vertex -23.3269 3.27416 0
    endloop
  endfacet
  facet normal -0.859861 0.510529 0
    outer loop
      vertex -22.9073 4.47792 -4
      vertex -22.3198 5.46742 0
      vertex -22.3198 5.46742 -4
    endloop
  endfacet
  facet normal -0.859861 0.510529 0
    outer loop
      vertex -22.3198 5.46742 0
      vertex -22.9073 4.47792 -4
      vertex -22.9073 4.47792 0
    endloop
  endfacet
  facet normal -0.719874 0.694105 0
    outer loop
      vertex -22.3198 5.46742 -4
      vertex -21.5753 6.23956 0
      vertex -21.5753 6.23956 -4
    endloop
  endfacet
  facet normal -0.719874 0.694105 0
    outer loop
      vertex -21.5753 6.23956 0
      vertex -22.3198 5.46742 -4
      vertex -22.3198 5.46742 0
    endloop
  endfacet
  facet normal -0.526504 0.850173 0
    outer loop
      vertex -20.6847 6.7911 -4
      vertex -21.5753 6.23956 0
      vertex -20.6847 6.7911 0
    endloop
  endfacet
  facet normal -0.526504 0.850173 0
    outer loop
      vertex -21.5753 6.23956 0
      vertex -20.6847 6.7911 -4
      vertex -21.5753 6.23956 -4
    endloop
  endfacet
  facet normal -0.304062 0.952652 0
    outer loop
      vertex -19.6479 7.12202 -4
      vertex -20.6847 6.7911 0
      vertex -19.6479 7.12202 0
    endloop
  endfacet
  facet normal -0.304062 0.952652 0
    outer loop
      vertex -20.6847 6.7911 0
      vertex -19.6479 7.12202 -4
      vertex -20.6847 6.7911 -4
    endloop
  endfacet
  facet normal -0.0928271 0.995682 0
    outer loop
      vertex -18.4648 7.23232 -4
      vertex -19.6479 7.12202 0
      vertex -18.4648 7.23232 0
    endloop
  endfacet
  facet normal -0.0928271 0.995682 0
    outer loop
      vertex -19.6479 7.12202 0
      vertex -18.4648 7.23232 -4
      vertex -19.6479 7.12202 -4
    endloop
  endfacet
  facet normal 0.092184 0.995742 -0
    outer loop
      vertex -17.2562 7.12043 -4
      vertex -18.4648 7.23232 0
      vertex -17.2562 7.12043 0
    endloop
  endfacet
  facet normal 0.092184 0.995742 0
    outer loop
      vertex -18.4648 7.23232 0
      vertex -17.2562 7.12043 -4
      vertex -18.4648 7.23232 -4
    endloop
  endfacet
  facet normal 0.303926 0.952696 -0
    outer loop
      vertex -16.204 6.78476 -4
      vertex -17.2562 7.12043 0
      vertex -16.204 6.78476 0
    endloop
  endfacet
  facet normal 0.303926 0.952696 0
    outer loop
      vertex -17.2562 7.12043 0
      vertex -16.204 6.78476 -4
      vertex -17.2562 7.12043 -4
    endloop
  endfacet
  facet normal 0.529716 0.848175 -0
    outer loop
      vertex -15.3082 6.2253 -4
      vertex -16.204 6.78476 0
      vertex -15.3082 6.2253 0
    endloop
  endfacet
  facet normal 0.529716 0.848175 0
    outer loop
      vertex -16.204 6.78476 0
      vertex -15.3082 6.2253 -4
      vertex -16.204 6.78476 -4
    endloop
  endfacet
  facet normal 0.72716 0.686468 0
    outer loop
      vertex -14.5688 5.44207 0
      vertex -15.3082 6.2253 -4
      vertex -15.3082 6.2253 0
    endloop
  endfacet
  facet normal 0.72716 0.686468 0
    outer loop
      vertex -15.3082 6.2253 -4
      vertex -14.5688 5.44207 0
      vertex -14.5688 5.44207 -4
    endloop
  endfacet
  facet normal 0.865046 0.501693 0
    outer loop
      vertex -13.9903 4.44459 0
      vertex -14.5688 5.44207 -4
      vertex -14.5688 5.44207 0
    endloop
  endfacet
  facet normal 0.865046 0.501693 0
    outer loop
      vertex -14.5688 5.44207 -4
      vertex -13.9903 4.44459 0
      vertex -13.9903 4.44459 -4
    endloop
  endfacet
  facet normal 0.9457 0.32504 0
    outer loop
      vertex -13.5771 3.24239 0
      vertex -13.9903 4.44459 -4
      vertex -13.9903 4.44459 0
    endloop
  endfacet
  facet normal 0.9457 0.32504 0
    outer loop
      vertex -13.9903 4.44459 -4
      vertex -13.5771 3.24239 0
      vertex -13.5771 3.24239 -4
    endloop
  endfacet
  facet normal 0.984829 0.17353 0
    outer loop
      vertex -13.3292 1.83549 0
      vertex -13.5771 3.24239 -4
      vertex -13.5771 3.24239 0
    endloop
  endfacet
  facet normal 0.984829 0.17353 0
    outer loop
      vertex -13.5771 3.24239 -4
      vertex -13.3292 1.83549 0
      vertex -13.3292 1.83549 -4
    endloop
  endfacet
  facet normal 0.998689 0.0511856 0
    outer loop
      vertex -13.2466 0.223869 0
      vertex -13.3292 1.83549 -4
      vertex -13.3292 1.83549 0
    endloop
  endfacet
  facet normal 0.998689 0.0511856 0
    outer loop
      vertex -13.3292 1.83549 -4
      vertex -13.2466 0.223869 0
      vertex -13.2466 0.223869 -4
    endloop
  endfacet
  facet normal 0.998713 -0.0507221 0
    outer loop
      vertex -13.3299 -1.4163 0
      vertex -13.2466 0.223869 -4
      vertex -13.2466 0.223869 0
    endloop
  endfacet
  facet normal 0.998713 -0.0507221 0
    outer loop
      vertex -13.2466 0.223869 -4
      vertex -13.3299 -1.4163 0
      vertex -13.3299 -1.4163 -4
    endloop
  endfacet
  facet normal 0.985117 -0.171885 0
    outer loop
      vertex -13.5797 -2.84797 0
      vertex -13.3299 -1.4163 -4
      vertex -13.3299 -1.4163 0
    endloop
  endfacet
  facet normal 0.985117 -0.171885 0
    outer loop
      vertex -13.3299 -1.4163 -4
      vertex -13.5797 -2.84797 0
      vertex -13.5797 -2.84797 -4
    endloop
  endfacet
  facet normal 0.94665 -0.322265 0
    outer loop
      vertex -13.9961 -4.07114 0
      vertex -13.5797 -2.84797 -4
      vertex -13.5797 -2.84797 0
    endloop
  endfacet
  facet normal 0.94665 -0.322265 0
    outer loop
      vertex -13.5797 -2.84797 -4
      vertex -13.9961 -4.07114 0
      vertex -13.9961 -4.07114 -4
    endloop
  endfacet
  facet normal 0.867106 -0.498124 0
    outer loop
      vertex -14.579 -5.08582 0
      vertex -13.9961 -4.07114 -4
      vertex -13.9961 -4.07114 0
    endloop
  endfacet
  facet normal 0.867106 -0.498124 0
    outer loop
      vertex -13.9961 -4.07114 -4
      vertex -14.579 -5.08582 0
      vertex -14.579 -5.08582 -4
    endloop
  endfacet
  facet normal 0.732043 -0.681259 0
    outer loop
      vertex -15.3203 -5.88238 0
      vertex -14.579 -5.08582 -4
      vertex -14.579 -5.08582 0
    endloop
  endfacet
  facet normal 0.732043 -0.681259 0
    outer loop
      vertex -14.579 -5.08582 -4
      vertex -15.3203 -5.88238 0
      vertex -15.3203 -5.88238 -4
    endloop
  endfacet
  facet normal 0.53803 -0.842926 0
    outer loop
      vertex -16.2117 -6.45135 -4
      vertex -15.3203 -5.88238 0
      vertex -16.2117 -6.45135 0
    endloop
  endfacet
  facet normal 0.53803 -0.842926 0
    outer loop
      vertex -15.3203 -5.88238 0
      vertex -16.2117 -6.45135 -4
      vertex -15.3203 -5.88238 -4
    endloop
  endfacet
  facet normal 0.311518 -0.95024 0
    outer loop
      vertex -17.253 -6.79272 -4
      vertex -16.2117 -6.45135 0
      vertex -17.253 -6.79272 0
    endloop
  endfacet
  facet normal 0.311518 -0.95024 0
    outer loop
      vertex -16.2117 -6.45135 0
      vertex -17.253 -6.79272 -4
      vertex -16.2117 -6.45135 -4
    endloop
  endfacet
  facet normal 0.0950851 -0.995469 0
    outer loop
      vertex -18.4444 -6.90652 -4
      vertex -17.253 -6.79272 0
      vertex -18.4444 -6.90652 0
    endloop
  endfacet
  facet normal 0.0950851 -0.995469 0
    outer loop
      vertex -17.253 -6.79272 0
      vertex -18.4444 -6.90652 -4
      vertex -17.253 -6.79272 -4
    endloop
  endfacet
  facet normal -0.09694 -0.99529 0
    outer loop
      vertex -19.6323 -6.79082 -4
      vertex -18.4444 -6.90652 0
      vertex -19.6323 -6.79082 0
    endloop
  endfacet
  facet normal -0.09694 -0.99529 -0
    outer loop
      vertex -18.4444 -6.90652 0
      vertex -19.6323 -6.79082 -4
      vertex -18.4444 -6.90652 -4
    endloop
  endfacet
  facet normal -0.381873 0.924215 0
    outer loop
      vertex -17.0865 -4.97894 -4
      vertex -17.7235 -5.24214 0
      vertex -17.0865 -4.97894 0
    endloop
  endfacet
  facet normal -0.381873 0.924215 0
    outer loop
      vertex -17.7235 -5.24214 0
      vertex -17.0865 -4.97894 -4
      vertex -17.7235 -5.24214 -4
    endloop
  endfacet
  facet normal -0.6284 0.77789 0
    outer loop
      vertex -16.5435 -4.54029 -4
      vertex -17.0865 -4.97894 0
      vertex -16.5435 -4.54029 0
    endloop
  endfacet
  facet normal -0.6284 0.77789 0
    outer loop
      vertex -17.0865 -4.97894 0
      vertex -16.5435 -4.54029 -4
      vertex -17.0865 -4.97894 -4
    endloop
  endfacet
  facet normal -0.807316 0.590119 0
    outer loop
      vertex -16.5435 -4.54029 -4
      vertex -16.0946 -3.92617 0
      vertex -16.0946 -3.92617 -4
    endloop
  endfacet
  facet normal -0.807316 0.590119 0
    outer loop
      vertex -16.0946 -3.92617 0
      vertex -16.5435 -4.54029 -4
      vertex -16.5435 -4.54029 0
    endloop
  endfacet
  facet normal -0.912831 0.408338 0
    outer loop
      vertex -16.0946 -3.92617 -4
      vertex -15.7431 -3.1404 0
      vertex -15.7431 -3.1404 -4
    endloop
  endfacet
  facet normal -0.912831 0.408338 0
    outer loop
      vertex -15.7431 -3.1404 0
      vertex -16.0946 -3.92617 -4
      vertex -16.0946 -3.92617 0
    endloop
  endfacet
  facet normal -0.967036 0.254641 0
    outer loop
      vertex -15.7431 -3.1404 -4
      vertex -15.492 -2.18681 0
      vertex -15.492 -2.18681 -4
    endloop
  endfacet
  facet normal -0.967036 0.254641 0
    outer loop
      vertex -15.492 -2.18681 0
      vertex -15.7431 -3.1404 -4
      vertex -15.7431 -3.1404 0
    endloop
  endfacet
  facet normal -0.991091 0.133185 0
    outer loop
      vertex -15.492 -2.18681 -4
      vertex -15.3413 -1.06538 0
      vertex -15.3413 -1.06538 -4
    endloop
  endfacet
  facet normal -0.991091 0.133185 0
    outer loop
      vertex -15.3413 -1.06538 0
      vertex -15.492 -2.18681 -4
      vertex -15.492 -2.18681 0
    endloop
  endfacet
  facet normal -0.999243 0.0389079 0
    outer loop
      vertex -15.3413 -1.06538 -4
      vertex -15.2911 0.223869 0
      vertex -15.2911 0.223869 -4
    endloop
  endfacet
  facet normal -0.999243 0.0389079 0
    outer loop
      vertex -15.2911 0.223869 0
      vertex -15.3413 -1.06538 -4
      vertex -15.3413 -1.06538 0
    endloop
  endfacet
  facet normal -0.996524 -0.0833114 0
    outer loop
      vertex -15.2911 0.223869 -4
      vertex -15.4894 2.59582 0
      vertex -15.4894 2.59582 -4
    endloop
  endfacet
  facet normal -0.996524 -0.0833114 0
    outer loop
      vertex -15.4894 2.59582 0
      vertex -15.2911 0.223869 -4
      vertex -15.2911 0.223869 0
    endloop
  endfacet
  facet normal -0.943491 -0.331398 0
    outer loop
      vertex -15.4894 2.59582 -4
      vertex -16.0845 4.29007 0
      vertex -16.0845 4.29007 -4
    endloop
  endfacet
  facet normal -0.943491 -0.331398 0
    outer loop
      vertex -16.0845 4.29007 0
      vertex -15.4894 2.59582 -4
      vertex -15.4894 2.59582 0
    endloop
  endfacet
  facet normal -0.715766 -0.69834 0
    outer loop
      vertex -16.0845 4.29007 -4
      vertex -17.0763 5.30662 0
      vertex -17.0763 5.30662 -4
    endloop
  endfacet
  facet normal -0.715766 -0.69834 0
    outer loop
      vertex -17.0763 5.30662 0
      vertex -16.0845 4.29007 -4
      vertex -16.0845 4.29007 0
    endloop
  endfacet
  facet normal -0.237083 -0.971489 0
    outer loop
      vertex -18.4648 5.64547 -4
      vertex -17.0763 5.30662 0
      vertex -18.4648 5.64547 0
    endloop
  endfacet
  facet normal -0.237083 -0.971489 -0
    outer loop
      vertex -17.0763 5.30662 0
      vertex -18.4648 5.64547 -4
      vertex -17.0763 5.30662 -4
    endloop
  endfacet
  facet normal 0.238542 -0.971132 0
    outer loop
      vertex -19.8443 5.30662 -4
      vertex -18.4648 5.64547 0
      vertex -19.8443 5.30662 0
    endloop
  endfacet
  facet normal 0.238542 -0.971132 0
    outer loop
      vertex -18.4648 5.64547 0
      vertex -19.8443 5.30662 -4
      vertex -18.4648 5.64547 -4
    endloop
  endfacet
  facet normal 0.717987 -0.696056 0
    outer loop
      vertex -20.8298 4.29007 0
      vertex -19.8443 5.30662 -4
      vertex -19.8443 5.30662 0
    endloop
  endfacet
  facet normal 0.717987 -0.696056 0
    outer loop
      vertex -19.8443 5.30662 -4
      vertex -20.8298 4.29007 0
      vertex -20.8298 4.29007 -4
    endloop
  endfacet
  facet normal 0.944169 -0.329463 0
    outer loop
      vertex -21.421 2.59582 0
      vertex -20.8298 4.29007 -4
      vertex -20.8298 4.29007 0
    endloop
  endfacet
  facet normal 0.944169 -0.329463 0
    outer loop
      vertex -20.8298 4.29007 -4
      vertex -21.421 2.59582 0
      vertex -21.421 2.59582 -4
    endloop
  endfacet
  facet normal 0.996565 -0.0828107 0
    outer loop
      vertex -21.6181 0.223869 0
      vertex -21.421 2.59582 -4
      vertex -21.421 2.59582 0
    endloop
  endfacet
  facet normal 0.996565 -0.0828107 0
    outer loop
      vertex -21.421 2.59582 -4
      vertex -21.6181 0.223869 0
      vertex -21.6181 0.223869 -4
    endloop
  endfacet
  facet normal 0.999316 0.0369815 0
    outer loop
      vertex -21.571 -1.04887 0
      vertex -21.6181 0.223869 -4
      vertex -21.6181 0.223869 0
    endloop
  endfacet
  facet normal 0.999316 0.0369815 0
    outer loop
      vertex -21.6181 0.223869 -4
      vertex -21.571 -1.04887 0
      vertex -21.571 -1.04887 -4
    endloop
  endfacet
  facet normal 0.992053 0.125818 0
    outer loop
      vertex -21.4299 -2.16142 0
      vertex -21.571 -1.04887 -4
      vertex -21.571 -1.04887 0
    endloop
  endfacet
  facet normal 0.992053 0.125818 0
    outer loop
      vertex -21.571 -1.04887 -4
      vertex -21.4299 -2.16142 0
      vertex -21.4299 -2.16142 -4
    endloop
  endfacet
  facet normal 0.970807 0.23986 0
    outer loop
      vertex -21.1946 -3.11377 0
      vertex -21.4299 -2.16142 -4
      vertex -21.4299 -2.16142 0
    endloop
  endfacet
  facet normal 0.970807 0.23986 0
    outer loop
      vertex -21.4299 -2.16142 -4
      vertex -21.1946 -3.11377 0
      vertex -21.1946 -3.11377 -4
    endloop
  endfacet
  facet normal 0.923351 0.383957 0
    outer loop
      vertex -20.8652 -3.90592 0
      vertex -21.1946 -3.11377 -4
      vertex -21.1946 -3.11377 0
    endloop
  endfacet
  facet normal 0.923351 0.383957 0
    outer loop
      vertex -21.1946 -3.11377 -4
      vertex -20.8652 -3.90592 0
      vertex -20.8652 -3.90592 -4
    endloop
  endfacet
  facet normal 0.8212 0.57064 0
    outer loop
      vertex -20.4323 -4.5289 0
      vertex -20.8652 -3.90592 -4
      vertex -20.8652 -3.90592 0
    endloop
  endfacet
  facet normal 0.8212 0.57064 0
    outer loop
      vertex -20.8652 -3.90592 -4
      vertex -20.4323 -4.5289 0
      vertex -20.4323 -4.5289 -4
    endloop
  endfacet
  facet normal 0.631681 0.775228 -0
    outer loop
      vertex -19.8862 -4.97388 -4
      vertex -20.4323 -4.5289 0
      vertex -19.8862 -4.97388 0
    endloop
  endfacet
  facet normal 0.631681 0.775228 0
    outer loop
      vertex -20.4323 -4.5289 0
      vertex -19.8862 -4.97388 -4
      vertex -20.4323 -4.5289 -4
    endloop
  endfacet
  facet normal 0.375411 0.926858 -0
    outer loop
      vertex -19.227 -5.24088 -4
      vertex -19.8862 -4.97388 0
      vertex -19.227 -5.24088 0
    endloop
  endfacet
  facet normal 0.375411 0.926858 0
    outer loop
      vertex -19.8862 -4.97388 0
      vertex -19.227 -5.24088 -4
      vertex -19.8862 -4.97388 -4
    endloop
  endfacet
  facet normal 0.114455 0.993428 -0
    outer loop
      vertex -18.4546 -5.32987 -4
      vertex -19.227 -5.24088 0
      vertex -18.4546 -5.32987 0
    endloop
  endfacet
  facet normal 0.114455 0.993428 0
    outer loop
      vertex -19.227 -5.24088 0
      vertex -18.4546 -5.32987 -4
      vertex -19.227 -5.24088 -4
    endloop
  endfacet
  facet normal -0.119143 0.992877 0
    outer loop
      vertex -17.7235 -5.24214 -4
      vertex -18.4546 -5.32987 0
      vertex -17.7235 -5.24214 0
    endloop
  endfacet
  facet normal -0.119143 0.992877 0
    outer loop
      vertex -18.4546 -5.32987 0
      vertex -17.7235 -5.24214 -4
      vertex -18.4546 -5.32987 -4
    endloop
  endfacet
  facet normal -0.84506 -0.534671 0
    outer loop
      vertex 17.2164 -0.762672 -4
      vertex 12.2931 7.01872 0
      vertex 12.2931 7.01872 -4
    endloop
  endfacet
  facet normal -0.84506 -0.534671 0
    outer loop
      vertex 12.2931 7.01872 0
      vertex 17.2164 -0.762672 -4
      vertex 17.2164 -0.762672 0
    endloop
  endfacet
  facet normal 0 1 -0
    outer loop
      vertex 14.3784 7.01872 -4
      vertex 12.2931 7.01872 0
      vertex 14.3784 7.01872 0
    endloop
  endfacet
  facet normal 0 1 0
    outer loop
      vertex 12.2931 7.01872 0
      vertex 14.3784 7.01872 -4
      vertex 12.2931 7.01872 -4
    endloop
  endfacet
  facet normal 0.854144 0.520036 0
    outer loop
      vertex 18.1623 0.803772 0
      vertex 14.3784 7.01872 -4
      vertex 14.3784 7.01872 0
    endloop
  endfacet
  facet normal 0.854144 0.520036 0
    outer loop
      vertex 14.3784 7.01872 -4
      vertex 18.1623 0.803772 0
      vertex 18.1623 0.803772 -4
    endloop
  endfacet
  facet normal -0.852898 0.522077 0
    outer loop
      vertex 18.1623 0.803772 -4
      vertex 21.9666 7.01872 0
      vertex 21.9666 7.01872 -4
    endloop
  endfacet
  facet normal -0.852898 0.522077 0
    outer loop
      vertex 21.9666 7.01872 0
      vertex 18.1623 0.803772 -4
      vertex 18.1623 0.803772 0
    endloop
  endfacet
  facet normal 0 1 0
    outer loop
      vertex 24 7.01872 -4
      vertex 24.0519 7.01872 0
      vertex 24.0519 7.01872 -4
    endloop
  endfacet
  facet normal 0 1 0
    outer loop
      vertex 24.0519 7.01872 0
      vertex 24 7.01872 -4
      vertex 21.9666 7.01872 0
    endloop
  endfacet
  facet normal 0 1 0
    outer loop
      vertex 21.9666 7.01872 0
      vertex 24 7.01872 -4
      vertex 21.9666 7.01872 -4
    endloop
  endfacet
  facet normal 0.845092 -0.534621 0
    outer loop
      vertex 24.0519 7.01872 0
      vertex 24 6.93668 -4
      vertex 24.0519 7.01872 -4
    endloop
  endfacet
  facet normal 0.84506 -0.534671 1.44675e-06
    outer loop
      vertex 19.1286 -0.762672 0
      vertex 24 6.93668 -4
      vertex 24.0519 7.01872 0
    endloop
  endfacet
  facet normal 0.84506 -0.534672 0
    outer loop
      vertex 24 6.93668 -4
      vertex 19.1286 -0.762672 0
      vertex 19.1286 -0.762672 -4
    endloop
  endfacet
  facet normal 1 -0 0
    outer loop
      vertex 19.1286 -6.70312 0
      vertex 19.1286 -0.762672 -4
      vertex 19.1286 -0.762672 0
    endloop
  endfacet
  facet normal 1 0 0
    outer loop
      vertex 19.1286 -0.762672 -4
      vertex 19.1286 -6.70312 0
      vertex 19.1286 -6.70312 -4
    endloop
  endfacet
  facet normal 0 -1 0
    outer loop
      vertex 17.2164 -6.70312 -4
      vertex 19.1286 -6.70312 0
      vertex 17.2164 -6.70312 0
    endloop
  endfacet
  facet normal 0 -1 -0
    outer loop
      vertex 19.1286 -6.70312 0
      vertex 17.2164 -6.70312 -4
      vertex 19.1286 -6.70312 -4
    endloop
  endfacet
  facet normal -1 0 0
    outer loop
      vertex 17.2164 -6.70312 -4
      vertex 17.2164 -0.762672 0
      vertex 17.2164 -0.762672 -4
    endloop
  endfacet
  facet normal -1 -0 0
    outer loop
      vertex 17.2164 -0.762672 0
      vertex 17.2164 -6.70312 -4
      vertex 17.2164 -6.70312 0
    endloop
  endfacet
  facet normal 0 1 -0
    outer loop
      vertex -4.3536 -5.11627 -4
      vertex -11.1891 -5.11627 0
      vertex -4.3536 -5.11627 0
    endloop
  endfacet
  facet normal 0 1 0
    outer loop
      vertex -11.1891 -5.11627 0
      vertex -4.3536 -5.11627 -4
      vertex -11.1891 -5.11627 -4
    endloop
  endfacet
  facet normal -1 0 0
    outer loop
      vertex -4.3536 -5.11627 -4
      vertex -4.3536 7.01872 0
      vertex -4.3536 7.01872 -4
    endloop
  endfacet
  facet normal -1 -0 0
    outer loop
      vertex -4.3536 7.01872 0
      vertex -4.3536 -5.11627 -4
      vertex -4.3536 -5.11627 0
    endloop
  endfacet
  facet normal 0 1 -0
    outer loop
      vertex -2.4108 7.01872 -4
      vertex -4.3536 7.01872 0
      vertex -2.4108 7.01872 0
    endloop
  endfacet
  facet normal 0 1 0
    outer loop
      vertex -4.3536 7.01872 0
      vertex -2.4108 7.01872 -4
      vertex -4.3536 7.01872 -4
    endloop
  endfacet
  facet normal 1 -0 0
    outer loop
      vertex -2.4108 -6.70312 0
      vertex -2.4108 7.01872 -4
      vertex -2.4108 7.01872 0
    endloop
  endfacet
  facet normal 1 0 0
    outer loop
      vertex -2.4108 7.01872 -4
      vertex -2.4108 -6.70312 0
      vertex -2.4108 -6.70312 -4
    endloop
  endfacet
  facet normal 0 -1 0
    outer loop
      vertex -11.1891 -6.70312 -4
      vertex -2.4108 -6.70312 0
      vertex -11.1891 -6.70312 0
    endloop
  endfacet
  facet normal 0 -1 -0
    outer loop
      vertex -2.4108 -6.70312 0
      vertex -11.1891 -6.70312 -4
      vertex -2.4108 -6.70312 -4
    endloop
  endfacet
  facet normal -1 0 0
    outer loop
      vertex -11.1891 -6.70312 -4
      vertex -11.1891 -5.11627 0
      vertex -11.1891 -5.11627 -4
    endloop
  endfacet
  facet normal -1 -0 0
    outer loop
      vertex -11.1891 -5.11627 0
      vertex -11.1891 -6.70312 -4
      vertex -11.1891 -6.70312 0
    endloop
  endfacet
endsolid OpenSCAD_Model
